<svg id="圖層_1" data-name="圖層 1" xmlns="http://www.w3.org/2000/svg" viewBox="0 0 198 386"><defs><style>.cls-1{fill:#334b5b;}.cls-2{fill:#3f3b3a;}.cls-3{fill:#5ec2d0;}.cls-4{fill:#e6c549;}.cls-5{fill:#da793a;}.cls-6{fill:#d45a45;}</style></defs><title>Artboard 6</title><rect class="cls-1" x="23.14" y="7.01" width="46.76" height="46.76" rx="3.09"/><path class="cls-2" d="M94,14.61a3.06,3.06,0,0,1-1,2.06,3.18,3.18,0,0,1-2.18.72,3,3,0,0,1-1.68-.48,3.05,3.05,0,0,1-1.13-1.34,4.81,4.81,0,0,1-.4-2V12.47a4.75,4.75,0,0,1,.4-2A3,3,0,0,1,89.19,9.1a3.11,3.11,0,0,1,1.72-.48,3.07,3.07,0,0,1,2.17.74A3.12,3.12,0,0,1,94,11.41h-.73a2.17,2.17,0,0,0-2.36-2.18,2.24,2.24,0,0,0-1.85.87,3.76,3.76,0,0,0-.68,2.4v1a3.78,3.78,0,0,0,.67,2.36,2.14,2.14,0,0,0,1.81.88,2.39,2.39,0,0,0,1.7-.54,2.58,2.58,0,0,0,.71-1.63Z"/><path class="cls-2" d="M95.49,18h-.64l3.56-9.26H99Z"/><path class="cls-2" d="M108.19,10.94a1.92,1.92,0,0,1-.39,1.18,2.33,2.33,0,0,1-1,.78,2.37,2.37,0,0,1,1.18.81,2,2,0,0,1,.45,1.3,2.18,2.18,0,0,1-.75,1.74,3.35,3.35,0,0,1-3.94,0A2.17,2.17,0,0,1,103,15a2.1,2.1,0,0,1,.42-1.29,2.35,2.35,0,0,1,1.18-.82,2.2,2.2,0,0,1-1-.78,2,2,0,0,1-.38-1.18,2.17,2.17,0,0,1,.69-1.69,2.53,2.53,0,0,1,1.8-.63,2.56,2.56,0,0,1,1.82.64A2.16,2.16,0,0,1,108.19,10.94ZM107.71,15a1.67,1.67,0,0,0-.57-1.31,2.07,2.07,0,0,0-1.46-.52,2,2,0,0,0-1.44.51,1.8,1.8,0,0,0,0,2.61,2.46,2.46,0,0,0,2.93,0A1.64,1.64,0,0,0,107.71,15Zm-.23-4.09a1.65,1.65,0,0,0-.5-1.22,1.78,1.78,0,0,0-1.3-.49,1.81,1.81,0,0,0-1.29.47,1.64,1.64,0,0,0-.49,1.24,1.58,1.58,0,0,0,.49,1.21,2.05,2.05,0,0,0,2.59,0A1.55,1.55,0,0,0,107.48,10.93Z"/><path class="cls-2" d="M110.28,12.9l.42-4.16H115v.65H111.3l-.3,2.88a2.82,2.82,0,0,1,1.61-.46,2.37,2.37,0,0,1,1.84.75,2.81,2.81,0,0,1,.68,2,3.07,3.07,0,0,1-.66,2.1,2.43,2.43,0,0,1-1.88.74,2.62,2.62,0,0,1-1.81-.62A2.58,2.58,0,0,1,110,15h.67a2,2,0,0,0,.6,1.32,1.88,1.88,0,0,0,1.33.45,1.68,1.68,0,0,0,1.38-.58,2.6,2.6,0,0,0,.46-1.66,2.19,2.19,0,0,0-.52-1.52,1.79,1.79,0,0,0-1.42-.6,2.8,2.8,0,0,0-.87.13,2.27,2.27,0,0,0-.78.49Z"/><path class="cls-2" d="M88.91,23.14l3.15,7.53,3.16-7.53h1v8.53h-.72V28l.06-3.81-3.18,7.52h-.55l-3.17-7.49.06,3.75v3.74H88V23.14Z"/><path class="cls-2" d="M98.08,32.4h-.64L101,23.14h.63Z"/><path class="cls-2" d="M111,23.54l-3.64,8.13h-.73l3.62-7.93H105.4v-.6H111Z"/><path class="cls-2" d="M117.54,28.12a4.7,4.7,0,0,1-.66,2.73,2.22,2.22,0,0,1-1.95.94,2.27,2.27,0,0,1-1.94-.92,4.53,4.53,0,0,1-.69-2.67V26.67A4.59,4.59,0,0,1,113,24a2.51,2.51,0,0,1,3.88,0,4.37,4.37,0,0,1,.69,2.63Zm-.7-1.53a4.16,4.16,0,0,0-.48-2.22,1.6,1.6,0,0,0-1.44-.75,1.62,1.62,0,0,0-1.43.73,4,4,0,0,0-.49,2.17v1.67a4.14,4.14,0,0,0,.49,2.23,1.6,1.6,0,0,0,1.44.78,1.57,1.57,0,0,0,1.42-.76,4.14,4.14,0,0,0,.49-2.21Z"/><path class="cls-2" d="M90.46,42.19l2.61-4.65h.83l-3.08,5.32v3.21H90.1V42.86L87,37.54h.86Z"/><path class="cls-2" d="M94.88,46.8h-.64l3.56-9.26h.64Z"/><path class="cls-2" d="M103,41.7l.42-4.16h4.27v.65H104l-.3,2.88a2.82,2.82,0,0,1,1.61-.47,2.37,2.37,0,0,1,1.84.75,2.84,2.84,0,0,1,.69,2,3,3,0,0,1-.67,2.09,2.4,2.4,0,0,1-1.88.75,2.62,2.62,0,0,1-1.81-.62,2.58,2.58,0,0,1-.79-1.74h.67a2,2,0,0,0,.6,1.32,1.88,1.88,0,0,0,1.33.45,1.68,1.68,0,0,0,1.38-.58,2.6,2.6,0,0,0,.46-1.66,2.19,2.19,0,0,0-.52-1.52,1.79,1.79,0,0,0-1.42-.6,2.8,2.8,0,0,0-.87.13,2.27,2.27,0,0,0-.78.49Z"/><path class="cls-2" d="M109.67,41.7l.42-4.16h4.27v.65h-3.67l-.3,2.88A2.82,2.82,0,0,1,112,40.6a2.37,2.37,0,0,1,1.84.75,2.84,2.84,0,0,1,.69,2,3,3,0,0,1-.67,2.09,2.39,2.39,0,0,1-1.88.75,2.62,2.62,0,0,1-1.81-.62,2.58,2.58,0,0,1-.79-1.74h.67a2,2,0,0,0,.6,1.32,1.88,1.88,0,0,0,1.33.45,1.68,1.68,0,0,0,1.38-.58,2.6,2.6,0,0,0,.46-1.66,2.19,2.19,0,0,0-.52-1.52,1.79,1.79,0,0,0-1.42-.6,2.8,2.8,0,0,0-.87.13,2.27,2.27,0,0,0-.78.49Z"/><path class="cls-2" d="M89.88,56.24l-1.2,1.18v3H88V51.94h.72v4.6l4.37-4.6H94l-3.58,3.8,3.85,4.73h-.87Z"/><path class="cls-2" d="M95.27,61.2h-.64l3.56-9.26h.63Z"/><path class="cls-2" d="M106.2,60.47h-.7V52.78l-2.32.87V53l2.9-1.08h.12Z"/><path class="cls-2" d="M114.84,52.35l-3.64,8.12h-.74l3.63-7.93h-4.86v-.6h5.61Z"/><path class="cls-2" d="M138.28,13.72H135.8v3.55h-.72V8.74h2.77A3.16,3.16,0,0,1,140,9.4a2.32,2.32,0,0,1,.77,1.85,2.32,2.32,0,0,1-.48,1.45,2.49,2.49,0,0,1-1.29.86l2.13,3.64v.07h-.77Zm-2.48-.61H138a2.07,2.07,0,0,0,1.46-.52,1.74,1.74,0,0,0,.55-1.34,1.76,1.76,0,0,0-.57-1.4,2.41,2.41,0,0,0-1.62-.5h-2Z"/><path class="cls-2" d="M142.45,18h-.64l3.56-9.26H146Z"/><path class="cls-2" d="M150.59,12.9,151,8.74h4.26v.65h-3.66l-.3,2.88a2.79,2.79,0,0,1,1.61-.46,2.37,2.37,0,0,1,1.84.75,2.86,2.86,0,0,1,.68,2,3,3,0,0,1-.67,2.1,2.4,2.4,0,0,1-1.88.74,2.61,2.61,0,0,1-1.8-.62A2.54,2.54,0,0,1,150.3,15H151a2.09,2.09,0,0,0,.59,1.32,1.9,1.9,0,0,0,1.33.45,1.68,1.68,0,0,0,1.38-.58,2.6,2.6,0,0,0,.47-1.66,2.19,2.19,0,0,0-.52-1.52,1.79,1.79,0,0,0-1.43-.6,2.73,2.73,0,0,0-.86.13,2.27,2.27,0,0,0-.78.49Z"/><path class="cls-2" d="M161.91,13.72a4.7,4.7,0,0,1-.66,2.73,2.22,2.22,0,0,1-1.95.94,2.26,2.26,0,0,1-1.94-.92,4.53,4.53,0,0,1-.69-2.67V12.27a4.67,4.67,0,0,1,.66-2.72,2.52,2.52,0,0,1,3.89,0,4.37,4.37,0,0,1,.69,2.63Zm-.7-1.53a4.16,4.16,0,0,0-.48-2.22,1.76,1.76,0,0,0-2.87,0,4.06,4.06,0,0,0-.5,2.17v1.67a4.14,4.14,0,0,0,.5,2.23,1.6,1.6,0,0,0,1.44.78,1.57,1.57,0,0,0,1.42-.76,4.23,4.23,0,0,0,.49-2.21Z"/><path class="cls-2" d="M141.25,30.66a2.45,2.45,0,0,1-1.17.83,5.09,5.09,0,0,1-1.79.3,3.35,3.35,0,0,1-1.79-.48A3.19,3.19,0,0,1,135.3,30a4.65,4.65,0,0,1-.44-2V26.86a4.12,4.12,0,0,1,.9-2.81,3.06,3.06,0,0,1,2.41-1,3.24,3.24,0,0,1,2.12.67,2.81,2.81,0,0,1,1,1.85h-.73a2.2,2.2,0,0,0-.76-1.42,2.42,2.42,0,0,0-1.59-.49,2.35,2.35,0,0,0-1.89.85,3.73,3.73,0,0,0-.7,2.4v1a4.22,4.22,0,0,0,.34,1.72,2.55,2.55,0,0,0,1,1.16,2.52,2.52,0,0,0,1.42.41,4.08,4.08,0,0,0,1.6-.29,1.81,1.81,0,0,0,.64-.45V28.23h-2.29v-.61h3Z"/><path class="cls-2" d="M143,32.4h-.64L146,23.14h.63Z"/><path class="cls-2" d="M156,23.54l-3.65,8.13h-.73l3.62-7.93h-4.85v-.6H156Z"/><path class="cls-2" d="M161.66,28.92H163v.6h-1.33v2.15H161V29.52h-4v-.4l3.95-6h.77Zm-3.86,0H161V24.05l-.31.54Z"/><path class="cls-2" d="M135.09,46.07V37.54h2.52a3.24,3.24,0,0,1,2.08.57,2,2,0,0,1,.71,1.66,1.91,1.91,0,0,1-.36,1.16,2,2,0,0,1-1,.7,2,2,0,0,1,1.2.73,2.05,2.05,0,0,1,.46,1.31,2.26,2.26,0,0,1-.73,1.77,3,3,0,0,1-2,.63Zm.72-4.7h2a2.29,2.29,0,0,0,1.4-.43,1.45,1.45,0,0,0,.49-1.19,1.42,1.42,0,0,0-.51-1.21,2.55,2.55,0,0,0-1.55-.39h-1.8Zm0,.61v3.48H138a2.12,2.12,0,0,0,1.46-.47,1.65,1.65,0,0,0,.55-1.31,1.58,1.58,0,0,0-.52-1.24A2.09,2.09,0,0,0,138,42Z"/><path class="cls-2" d="M142.18,46.8h-.64l3.57-9.26h.63Z"/><path class="cls-2" d="M154.23,42.12a2.73,2.73,0,0,1-.93.86,2.52,2.52,0,0,1-1.21.3,2.24,2.24,0,0,1-1.28-.38,2.4,2.4,0,0,1-.86-1,3.3,3.3,0,0,1-.31-1.44,3.51,3.51,0,0,1,.33-1.54,2.46,2.46,0,0,1,.91-1.07,2.32,2.32,0,0,1,1.34-.39,2.41,2.41,0,0,1,2,.9,4.05,4.05,0,0,1,.71,2.55v.64A5.3,5.3,0,0,1,154,45a3.75,3.75,0,0,1-3,1.16h-.13v-.61h.25a3.14,3.14,0,0,0,2.32-.87A3.73,3.73,0,0,0,154.23,42.12Zm-2,.55a2,2,0,0,0,1.26-.42,2.33,2.33,0,0,0,.8-1.08v-.41a3.29,3.29,0,0,0-.55-2,1.73,1.73,0,0,0-1.46-.72,1.68,1.68,0,0,0-1.36.67,2.61,2.61,0,0,0-.54,1.69,2.53,2.53,0,0,0,.52,1.63A1.62,1.62,0,0,0,152.18,42.67Z"/><path class="cls-2" d="M161.65,42.52a4.7,4.7,0,0,1-.66,2.73,2.51,2.51,0,0,1-3.9,0,4.68,4.68,0,0,1-.69-2.67V41.07a4.66,4.66,0,0,1,.67-2.72,2.52,2.52,0,0,1,3.89,0,4.51,4.51,0,0,1,.69,2.63ZM160.94,41a4.17,4.17,0,0,0-.47-2.22,1.77,1.77,0,0,0-2.88,0,4.07,4.07,0,0,0-.49,2.17v1.67a4.14,4.14,0,0,0,.5,2.23,1.71,1.71,0,0,0,2.86,0,4.14,4.14,0,0,0,.48-2.21Z"/><path class="cls-2" d="M138.43,58.07h-1.84l-.45,2.4h-.58l.45-2.4h-1.5v-.55h1.6l.48-2.58H135v-.56h1.74l.46-2.44h.58l-.46,2.44h1.84l.47-2.44h.58l-.46,2.44h1.34v.56H139.6l-.48,2.58h1.49v.55H139l-.45,2.4H138Zm-1.74-.55h1.84l.49-2.58h-1.85Z"/><path class="cls-2" d="M143.35,55.83h.73a2.54,2.54,0,0,0,1.06-.22,1.53,1.53,0,0,0,.92-1.44,1.74,1.74,0,0,0-.46-1.29,1.83,1.83,0,0,0-1.33-.46,1.92,1.92,0,0,0-1.35.48,1.67,1.67,0,0,0-.52,1.28h-.7A2.29,2.29,0,0,1,142,53a2.19,2.19,0,0,1,.93-.85,2.84,2.84,0,0,1,1.31-.3,2.54,2.54,0,0,1,1.83.64,2.28,2.28,0,0,1,.66,1.73,1.88,1.88,0,0,1-.38,1.13,2.32,2.32,0,0,1-1.07.78,2.14,2.14,0,0,1,1.2.77,2,2,0,0,1,.41,1.29,2.3,2.3,0,0,1-.71,1.76,2.68,2.68,0,0,1-1.91.67,3.09,3.09,0,0,1-1.4-.31,2.26,2.26,0,0,1-1.33-2.12h.7a1.69,1.69,0,0,0,.57,1.32,2.06,2.06,0,0,0,1.46.52,2,2,0,0,0,1.41-.47,1.73,1.73,0,0,0,.51-1.35,1.6,1.6,0,0,0-.55-1.31,2.47,2.47,0,0,0-1.61-.45h-.71Z"/><path class="cls-2" d="M153.79,60.47h-5.34v-.54l2.92-3.31a7.87,7.87,0,0,0,1-1.39,2.24,2.24,0,0,0,.28-1.06,1.72,1.72,0,0,0-.48-1.28,1.77,1.77,0,0,0-1.3-.47,1.82,1.82,0,0,0-1.39.55A2,2,0,0,0,149,54.4h-.7a2.73,2.73,0,0,1,.32-1.31,2.38,2.38,0,0,1,.93-.93,2.81,2.81,0,0,1,1.37-.34,2.58,2.58,0,0,1,1.83.62,2.18,2.18,0,0,1,.66,1.67,2.94,2.94,0,0,1-.37,1.31,10.28,10.28,0,0,1-1.31,1.77l-2.38,2.69h4.48Z"/><path class="cls-2" d="M159.4,57.72h1.33v.6H159.4v2.15h-.7V58.32h-4v-.4l3.95-6h.76Zm-3.85,0h3.15V52.85l-.31.54Z"/><path class="cls-2" d="M166.63,58.08h-3.88l-.87,2.39h-.76l3.23-8.53H165l3.23,8.53h-.75ZM163,57.47h3.42l-1.71-4.65Z"/><path class="cls-2" d="M169.72,56.1l.41-4.16h4.27v.65h-3.66l-.3,2.88A2.76,2.76,0,0,1,172,55a2.37,2.37,0,0,1,1.84.75,2.82,2.82,0,0,1,.69,2,3.08,3.08,0,0,1-.67,2.1,2.42,2.42,0,0,1-1.88.74,2.63,2.63,0,0,1-1.81-.62,2.58,2.58,0,0,1-.79-1.74h.68a2,2,0,0,0,.59,1.32A1.9,1.9,0,0,0,172,60a1.68,1.68,0,0,0,1.38-.58,2.59,2.59,0,0,0,.46-1.65,2.2,2.2,0,0,0-.52-1.53,1.77,1.77,0,0,0-1.42-.6,2.84,2.84,0,0,0-.87.13,2.48,2.48,0,0,0-.78.49Z"/><path class="cls-2" d="M180.77,58.08H176.9L176,60.47h-.76l3.23-8.53h.69l3.23,8.53h-.75Zm-3.65-.61h3.42l-1.71-4.65Z"/><rect class="cls-3" x="23.14" y="84.84" width="46.76" height="46.76" rx="3.09"/><path class="cls-2" d="M94,92.45a3.11,3.11,0,0,1-1,2.06,3.23,3.23,0,0,1-2.18.71,3.08,3.08,0,0,1-1.68-.47,3.14,3.14,0,0,1-1.13-1.35,4.81,4.81,0,0,1-.4-2v-1.1a4.79,4.79,0,0,1,.4-2,3.06,3.06,0,0,1,1.14-1.36,3.19,3.19,0,0,1,1.72-.47,3,3,0,0,1,2.17.74,3.09,3.09,0,0,1,.92,2h-.73a2.16,2.16,0,0,0-2.36-2.17,2.26,2.26,0,0,0-1.85.86,3.76,3.76,0,0,0-.68,2.4v1a3.75,3.75,0,0,0,.67,2.35,2.14,2.14,0,0,0,1.81.88,2.39,2.39,0,0,0,1.7-.54,2.55,2.55,0,0,0,.71-1.62Z"/><path class="cls-2" d="M95.49,95.84h-.64l3.56-9.27H99Z"/><path class="cls-2" d="M107.29,86.51v.61h-.08a3.22,3.22,0,0,0-2.41.9,3.79,3.79,0,0,0-1,2.5,2.52,2.52,0,0,1,.9-.75A2.7,2.7,0,0,1,106,89.5a2.24,2.24,0,0,1,1.79.78,3,3,0,0,1,.66,2,3.44,3.44,0,0,1-.31,1.5,2.36,2.36,0,0,1-2.21,1.41,2.51,2.51,0,0,1-2-.89,3.37,3.37,0,0,1-.76-2.29v-.7a5.39,5.39,0,0,1,1-3.55,3.7,3.7,0,0,1,3-1.28Zm-1.45,3.6a2.21,2.21,0,0,0-1.25.4,1.93,1.93,0,0,0-.77,1v.6a2.78,2.78,0,0,0,.57,1.81,1.82,1.82,0,0,0,1.49.7A1.59,1.59,0,0,0,107.2,94a2.59,2.59,0,0,0,.51-1.64,2.46,2.46,0,0,0-.51-1.62A1.68,1.68,0,0,0,105.84,90.11Z"/><path class="cls-2" d="M115,91.55a4.74,4.74,0,0,1-.66,2.74,2.24,2.24,0,0,1-2,.93,2.26,2.26,0,0,1-1.94-.91,4.57,4.57,0,0,1-.69-2.67V90.11a4.62,4.62,0,0,1,.67-2.73,2.53,2.53,0,0,1,3.88,0A4.39,4.39,0,0,1,115,90Zm-.7-1.53a4.16,4.16,0,0,0-.48-2.22,1.75,1.75,0,0,0-2.87,0,4,4,0,0,0-.49,2.16v1.67a4.18,4.18,0,0,0,.49,2.24,1.61,1.61,0,0,0,1.44.77,1.59,1.59,0,0,0,1.42-.75,4.2,4.2,0,0,0,.49-2.22Z"/><path class="cls-2" d="M88.91,101l3.15,7.53L95.22,101h1v8.54h-.72v-3.72l.06-3.81-3.18,7.53h-.55L88.62,102l.06,3.76v3.74H88V101Z"/><path class="cls-2" d="M98.08,110.24h-.64L101,101h.63Z"/><path class="cls-2" d="M110.89,106a4.76,4.76,0,0,1-.66,2.74,2.24,2.24,0,0,1-2,.93,2.26,2.26,0,0,1-1.94-.91,4.57,4.57,0,0,1-.69-2.67v-1.53a4.62,4.62,0,0,1,.67-2.73,2.53,2.53,0,0,1,3.88,0,4.39,4.39,0,0,1,.69,2.63Zm-.7-1.53a4.16,4.16,0,0,0-.48-2.22,1.75,1.75,0,0,0-2.87,0,4,4,0,0,0-.49,2.16V106a4.18,4.18,0,0,0,.49,2.24,1.61,1.61,0,0,0,1.44.77,1.57,1.57,0,0,0,1.42-.76,4.14,4.14,0,0,0,.49-2.21Z"/><path class="cls-2" d="M90.46,120l2.61-4.66h.83l-3.08,5.32v3.22H90.1v-3.22L87,115.37h.86Z"/><path class="cls-2" d="M94.88,124.64h-.64l3.56-9.27h.64Z"/><path class="cls-2" d="M107.89,123.91h-5.34v-.54l2.92-3.32a7.71,7.71,0,0,0,1-1.38,2.3,2.3,0,0,0,.28-1.06,1.74,1.74,0,0,0-.47-1.28,1.76,1.76,0,0,0-1.31-.48,1.84,1.84,0,0,0-1.39.56,2,2,0,0,0-.53,1.42h-.7a2.66,2.66,0,0,1,.33-1.31,2.35,2.35,0,0,1,.92-.93,2.8,2.8,0,0,1,1.37-.33,2.58,2.58,0,0,1,1.83.61,2.18,2.18,0,0,1,.66,1.68,2.78,2.78,0,0,1-.37,1.3,9.56,9.56,0,0,1-1.31,1.77l-2.38,2.69h4.48Z"/><path class="cls-2" d="M114.34,120.35a4.76,4.76,0,0,1-.66,2.74,2.24,2.24,0,0,1-2,.93,2.26,2.26,0,0,1-1.94-.91,4.57,4.57,0,0,1-.69-2.67v-1.53a4.62,4.62,0,0,1,.67-2.73,2.53,2.53,0,0,1,3.88,0,4.39,4.39,0,0,1,.69,2.63Zm-.7-1.53a4.16,4.16,0,0,0-.48-2.22,1.75,1.75,0,0,0-2.87,0,4,4,0,0,0-.49,2.16v1.67a4.18,4.18,0,0,0,.49,2.24,1.61,1.61,0,0,0,1.44.77,1.56,1.56,0,0,0,1.42-.76,4.14,4.14,0,0,0,.49-2.21Z"/><path class="cls-2" d="M89.88,134.07l-1.2,1.18v3.06H88v-8.54h.72v4.6l4.37-4.6H94l-3.58,3.8,3.85,4.74h-.87Z"/><path class="cls-2" d="M95.27,139h-.64l3.56-9.27h.63Z"/><path class="cls-2" d="M108.08,134.75a4.74,4.74,0,0,1-.66,2.74,2.52,2.52,0,0,1-3.89,0,4.57,4.57,0,0,1-.69-2.67v-1.53a4.7,4.7,0,0,1,.66-2.73,2.54,2.54,0,0,1,3.89,0,4.54,4.54,0,0,1,.69,2.63Zm-.7-1.53a4.16,4.16,0,0,0-.48-2.22,1.75,1.75,0,0,0-2.87,0,4.05,4.05,0,0,0-.5,2.16v1.68a4.16,4.16,0,0,0,.5,2.23,1.61,1.61,0,0,0,1.44.77,1.59,1.59,0,0,0,1.42-.75,4.3,4.3,0,0,0,.49-2.22Z"/><path class="cls-2" d="M138.28,91.55H135.8v3.56h-.72V86.57h2.77a3.11,3.11,0,0,1,2.13.67,2.52,2.52,0,0,1,.29,3.29,2.45,2.45,0,0,1-1.29.87L141.11,95v.08h-.77Zm-2.48-.61H138a2,2,0,0,0,1.46-.52,1.74,1.74,0,0,0,.55-1.34,1.77,1.77,0,0,0-.57-1.4,2.41,2.41,0,0,0-1.62-.5h-2Z"/><path class="cls-2" d="M142.45,95.84h-.64l3.56-9.27H146Z"/><path class="cls-2" d="M154.49,91.16a2.7,2.7,0,0,1-.93.85,2.49,2.49,0,0,1-1.21.3,2.24,2.24,0,0,1-1.28-.37,2.45,2.45,0,0,1-.86-1,3.74,3.74,0,0,1,0-3,2.62,2.62,0,0,1,.91-1.08,2.36,2.36,0,0,1,1.34-.38,2.41,2.41,0,0,1,2,.9,4,4,0,0,1,.72,2.55v.63a5.22,5.22,0,0,1-1,3.47,3.72,3.72,0,0,1-3,1.16h-.13v-.61h.25a3.13,3.13,0,0,0,2.33-.87A3.65,3.65,0,0,0,154.49,91.16Zm-2.05.54a2.08,2.08,0,0,0,1.27-.42,2.31,2.31,0,0,0,.79-1.08v-.4a3.3,3.3,0,0,0-.54-2,1.75,1.75,0,0,0-1.46-.71,1.67,1.67,0,0,0-1.37.67,2.89,2.89,0,0,0,0,3.31A1.63,1.63,0,0,0,152.44,91.7Z"/><path class="cls-2" d="M158.33,90.46h.72a2.51,2.51,0,0,0,1.06-.21,1.58,1.58,0,0,0,.68-.59,1.57,1.57,0,0,0,.24-.86,1.72,1.72,0,0,0-.46-1.28,1.8,1.8,0,0,0-1.33-.47,1.93,1.93,0,0,0-1.35.49,1.64,1.64,0,0,0-.52,1.27h-.7A2.32,2.32,0,0,1,157,87.6a2.23,2.23,0,0,1,.93-.84,2.84,2.84,0,0,1,1.31-.3,2.58,2.58,0,0,1,1.83.63,2.29,2.29,0,0,1,.67,1.73,1.87,1.87,0,0,1-.39,1.14,2.37,2.37,0,0,1-1.07.77,2.19,2.19,0,0,1,1.2.77,2,2,0,0,1,.41,1.29,2.27,2.27,0,0,1-.71,1.76,2.67,2.67,0,0,1-1.91.67,3.23,3.23,0,0,1-1.4-.3,2.4,2.4,0,0,1-1-.85,2.28,2.28,0,0,1-.35-1.28h.7a1.71,1.71,0,0,0,.57,1.33,2.1,2.1,0,0,0,1.46.51,2,2,0,0,0,1.41-.46,1.77,1.77,0,0,0,.51-1.36,1.57,1.57,0,0,0-.55-1.3,2.47,2.47,0,0,0-1.61-.45h-.7Z"/><path class="cls-2" d="M141.25,108.49a2.39,2.39,0,0,1-1.17.83,5.09,5.09,0,0,1-1.79.3,3.35,3.35,0,0,1-1.79-.48,3.19,3.19,0,0,1-1.2-1.36,4.61,4.61,0,0,1-.44-2v-1.08a4.1,4.1,0,0,1,.9-2.8,3,3,0,0,1,2.41-1,3.19,3.19,0,0,1,2.12.67,2.79,2.79,0,0,1,1,1.85h-.73a2.2,2.2,0,0,0-.76-1.43,2.47,2.47,0,0,0-1.59-.48,2.32,2.32,0,0,0-1.89.85,3.68,3.68,0,0,0-.7,2.39v1a4.19,4.19,0,0,0,.34,1.72,2.55,2.55,0,0,0,1,1.16,2.44,2.44,0,0,0,1.42.41,3.91,3.91,0,0,0,1.6-.29,1.81,1.81,0,0,0,.64-.45v-2.2h-2.29v-.61h3Z"/><path class="cls-2" d="M143,110.24h-.64L146,101h.63Z"/><path class="cls-2" d="M154,109.51h-.71v-7.69l-2.32.86V102l2.91-1.08H154Z"/><path class="cls-2" d="M161.73,105.56a2.7,2.7,0,0,1-.93.85,2.52,2.52,0,0,1-1.21.3,2.24,2.24,0,0,1-1.28-.37,2.45,2.45,0,0,1-.86-1,3.34,3.34,0,0,1-.31-1.45,3.5,3.5,0,0,1,.33-1.53,2.49,2.49,0,0,1,.91-1.08,2.32,2.32,0,0,1,1.34-.38,2.41,2.41,0,0,1,2,.9,4.05,4.05,0,0,1,.71,2.55v.63a5.28,5.28,0,0,1-1,3.47,3.75,3.75,0,0,1-3,1.16h-.13V109h.25a3.11,3.11,0,0,0,2.32-.87A3.7,3.7,0,0,0,161.73,105.56Zm-2,.54a2,2,0,0,0,1.26-.42,2.33,2.33,0,0,0,.8-1.08v-.4a3.3,3.3,0,0,0-.55-2,1.75,1.75,0,0,0-1.46-.71,1.65,1.65,0,0,0-1.36.67,2.57,2.57,0,0,0-.54,1.68,2.51,2.51,0,0,0,.52,1.63A1.62,1.62,0,0,0,159.68,106.1Z"/><path class="cls-2" d="M165.56,104.86h.73a2.46,2.46,0,0,0,1.05-.21,1.67,1.67,0,0,0,.69-.59,1.57,1.57,0,0,0,.24-.86,1.76,1.76,0,0,0-.46-1.28,1.81,1.81,0,0,0-1.33-.47,1.93,1.93,0,0,0-1.35.49,1.64,1.64,0,0,0-.52,1.27h-.71a2.24,2.24,0,0,1,.34-1.21,2.2,2.2,0,0,1,.92-.84,2.91,2.91,0,0,1,1.32-.3,2.53,2.53,0,0,1,1.82.63,2.25,2.25,0,0,1,.67,1.73,1.87,1.87,0,0,1-.39,1.14,2.32,2.32,0,0,1-1.07.77,2.22,2.22,0,0,1,1.21.77,2.09,2.09,0,0,1,.41,1.29,2.3,2.3,0,0,1-.71,1.76,2.69,2.69,0,0,1-1.92.67,3.21,3.21,0,0,1-1.39-.3,2.43,2.43,0,0,1-1-.85,2.36,2.36,0,0,1-.35-1.28h.71a1.71,1.71,0,0,0,.57,1.33,2.07,2.07,0,0,0,1.45.51,2,2,0,0,0,1.42-.47,1.73,1.73,0,0,0,.51-1.35,1.6,1.6,0,0,0-.55-1.3,2.5,2.5,0,0,0-1.62-.45h-.7Z"/><path class="cls-2" d="M135.09,123.91v-8.54h2.52a3.24,3.24,0,0,1,2.08.57,2,2,0,0,1,.71,1.67,1.9,1.9,0,0,1-.36,1.15,1.94,1.94,0,0,1-1,.7,2,2,0,0,1,1.2.73,2.07,2.07,0,0,1,.46,1.31,2.23,2.23,0,0,1-.73,1.77,3,3,0,0,1-2,.64Zm.72-4.71h2a2.17,2.17,0,0,0,1.4-.43,1.69,1.69,0,0,0,0-2.4,2.55,2.55,0,0,0-1.55-.39h-1.8Zm0,.61v3.49H138a2.17,2.17,0,0,0,1.46-.47,1.66,1.66,0,0,0,.55-1.31,1.61,1.61,0,0,0-.52-1.25,2.09,2.09,0,0,0-1.44-.46Z"/><path class="cls-2" d="M142.18,124.64h-.64l3.57-9.27h.63Z"/><path class="cls-2" d="M155.2,123.91h-5.35v-.54l2.93-3.32a7.56,7.56,0,0,0,1-1.38,2.32,2.32,0,0,0,.29-1.06,1.7,1.7,0,0,0-.48-1.28,1.76,1.76,0,0,0-1.31-.48,1.85,1.85,0,0,0-1.39.56,2,2,0,0,0-.53,1.42h-.69a2.65,2.65,0,0,1,.32-1.31,2.44,2.44,0,0,1,.93-.93,2.77,2.77,0,0,1,1.36-.33,2.59,2.59,0,0,1,1.84.61,2.21,2.21,0,0,1,.65,1.68,2.78,2.78,0,0,1-.37,1.3,9.12,9.12,0,0,1-1.31,1.77l-2.38,2.69h4.49Z"/><path class="cls-2" d="M161.65,120.35a4.76,4.76,0,0,1-.66,2.74,2.53,2.53,0,0,1-3.9,0,4.72,4.72,0,0,1-.69-2.67v-1.53a4.7,4.7,0,0,1,.67-2.73,2.54,2.54,0,0,1,3.89,0,4.54,4.54,0,0,1,.69,2.63Zm-.71-1.53a4.17,4.17,0,0,0-.47-2.22,1.76,1.76,0,0,0-2.88,0,4.06,4.06,0,0,0-.49,2.16v1.67a4.18,4.18,0,0,0,.5,2.24,1.61,1.61,0,0,0,1.43.77,1.59,1.59,0,0,0,1.43-.76,4.14,4.14,0,0,0,.48-2.21Z"/><path class="cls-2" d="M168.41,115.78l-3.65,8.13H164l3.62-7.94H162.8v-.6h5.61Z"/><path class="cls-2" d="M138.43,135.9h-1.84l-.45,2.41h-.58l.45-2.41h-1.5v-.54h1.6l.48-2.59H135v-.56h1.74l.46-2.44h.58l-.46,2.44h1.84l.47-2.44h.58l-.46,2.44h1.34v.56H139.6l-.48,2.59h1.49v.54H139l-.45,2.41H138Zm-1.74-.54h1.84l.49-2.59h-1.85Z"/><path class="cls-2" d="M142.27,133.93l.42-4.16H147v.65h-3.66l-.3,2.89a2.8,2.8,0,0,1,1.61-.47,2.37,2.37,0,0,1,1.84.75,2.87,2.87,0,0,1,.68,2,3,3,0,0,1-.67,2.09,2.4,2.4,0,0,1-1.88.74,2.56,2.56,0,0,1-1.8-.62,2.5,2.5,0,0,1-.79-1.74h.67a2.09,2.09,0,0,0,.59,1.32,1.9,1.9,0,0,0,1.33.45,1.65,1.65,0,0,0,1.38-.58,2.59,2.59,0,0,0,.47-1.65,2.2,2.2,0,0,0-.52-1.53,1.79,1.79,0,0,0-1.43-.59,2.75,2.75,0,0,0-.86.12,2.44,2.44,0,0,0-.78.49Z"/><path class="cls-2" d="M148.72,138.31v-8.54h2.39a3.7,3.7,0,0,1,1.88.48,3.44,3.44,0,0,1,1.3,1.37,4.31,4.31,0,0,1,.46,2v.78a4.31,4.31,0,0,1-.46,2,3.39,3.39,0,0,1-1.31,1.37,3.81,3.81,0,0,1-1.93.48Zm.72-7.93v7.32h1.62a2.76,2.76,0,0,0,2.16-.9,3.46,3.46,0,0,0,.82-2.42v-.75a3.34,3.34,0,0,0-.81-2.35,2.72,2.72,0,0,0-2.11-.9Z"/><path class="cls-2" d="M162.62,135.65a3.11,3.11,0,0,1-1,2.06,3.23,3.23,0,0,1-2.18.71,3.08,3.08,0,0,1-1.68-.47,3.14,3.14,0,0,1-1.13-1.35,4.81,4.81,0,0,1-.4-2v-1.1a4.79,4.79,0,0,1,.4-2,3.06,3.06,0,0,1,1.14-1.36,3.19,3.19,0,0,1,1.72-.47,3,3,0,0,1,2.17.74,3.09,3.09,0,0,1,.92,2h-.73a2.16,2.16,0,0,0-2.36-2.17,2.26,2.26,0,0,0-1.85.86,3.76,3.76,0,0,0-.68,2.4v1.05a3.75,3.75,0,0,0,.67,2.35,2.14,2.14,0,0,0,1.81.88,2.39,2.39,0,0,0,1.7-.54,2.55,2.55,0,0,0,.71-1.62Z"/><path class="cls-2" d="M167.36,138.31h-.7v-7.69l-2.32.86v-.66l2.9-1.07h.12Z"/><path class="cls-2" d="M177.06,135.65a3.06,3.06,0,0,1-1,2.06,3.23,3.23,0,0,1-2.18.71,3.08,3.08,0,0,1-1.68-.47,3.12,3.12,0,0,1-1.12-1.35,4.81,4.81,0,0,1-.41-2v-1.1a4.79,4.79,0,0,1,.4-2,3,3,0,0,1,2.87-1.83,2.85,2.85,0,0,1,3.08,2.78h-.72a2.17,2.17,0,0,0-2.36-2.17,2.25,2.25,0,0,0-1.85.86,3.77,3.77,0,0,0-.69,2.4v1.05a3.75,3.75,0,0,0,.67,2.35,2.15,2.15,0,0,0,1.81.88,2.4,2.4,0,0,0,1.71-.54,2.6,2.6,0,0,0,.71-1.62Z"/><path class="cls-2" d="M183.51,134.32h-4v4h-.72v-8.54h5.28v.61h-4.56v3.33h4Z"/><rect class="cls-4" x="23.14" y="162.67" width="46.76" height="46.76" rx="3.09"/><path class="cls-2" d="M94,170.28a3.08,3.08,0,0,1-1,2.06,3.18,3.18,0,0,1-2.18.72,3,3,0,0,1-1.68-.48,3.11,3.11,0,0,1-1.13-1.34,4.84,4.84,0,0,1-.4-2v-1.11a4.79,4.79,0,0,1,.4-2,3,3,0,0,1,1.14-1.35,3.11,3.11,0,0,1,1.72-.48A2.85,2.85,0,0,1,94,167.07h-.73a2.16,2.16,0,0,0-2.36-2.17,2.24,2.24,0,0,0-1.85.87,3.76,3.76,0,0,0-.68,2.4v1a3.8,3.8,0,0,0,.67,2.36,2.16,2.16,0,0,0,1.81.88,2.35,2.35,0,0,0,1.7-.55,2.55,2.55,0,0,0,.71-1.62Z"/><path class="cls-2" d="M95.49,173.67h-.64l3.56-9.26H99Z"/><path class="cls-2" d="M106.42,172.94h-.7v-7.69l-2.32.86v-.65l2.9-1.08h.12Z"/><path class="cls-2" d="M115.15,172.94h-5.34v-.54l2.92-3.32a7.71,7.71,0,0,0,1-1.38,2.27,2.27,0,0,0,.28-1.06,1.74,1.74,0,0,0-.47-1.28,1.81,1.81,0,0,0-1.31-.47,1.83,1.83,0,0,0-1.39.55,2,2,0,0,0-.53,1.43h-.7a2.63,2.63,0,0,1,.33-1.31,2.23,2.23,0,0,1,.92-.93,2.7,2.7,0,0,1,1.37-.34,2.58,2.58,0,0,1,1.83.62,2.16,2.16,0,0,1,.66,1.67,2.81,2.81,0,0,1-.37,1.31,10.28,10.28,0,0,1-1.31,1.77l-2.38,2.69h4.48Z"/><path class="cls-2" d="M88.91,178.81l3.15,7.53,3.16-7.53h1v8.53h-.72v-3.72l.06-3.8-3.18,7.52h-.55l-3.17-7.5.06,3.76v3.74H88v-8.53Z"/><path class="cls-2" d="M98.08,188.07h-.64l3.56-9.26h.63Z"/><path class="cls-2" d="M111.09,187.34h-5.34v-.54l2.92-3.32a7.71,7.71,0,0,0,1-1.38A2.27,2.27,0,0,0,110,181a1.74,1.74,0,0,0-.47-1.28,1.81,1.81,0,0,0-1.31-.47,1.83,1.83,0,0,0-1.39.55,2,2,0,0,0-.53,1.43h-.7a2.63,2.63,0,0,1,.33-1.31,2.23,2.23,0,0,1,.92-.93,2.7,2.7,0,0,1,1.37-.34,2.58,2.58,0,0,1,1.83.62,2.16,2.16,0,0,1,.66,1.67,2.81,2.81,0,0,1-.37,1.31,10.28,10.28,0,0,1-1.31,1.77l-2.38,2.69h4.48Z"/><path class="cls-2" d="M114,182.69h.72a2.47,2.47,0,0,0,1.06-.21,1.61,1.61,0,0,0,.69-.59,1.62,1.62,0,0,0,.23-.86,1.73,1.73,0,0,0-.46-1.28,1.79,1.79,0,0,0-1.33-.46,1.9,1.9,0,0,0-1.34.48,1.66,1.66,0,0,0-.53,1.28h-.7a2.26,2.26,0,0,1,1.26-2.06,2.84,2.84,0,0,1,1.31-.3,2.58,2.58,0,0,1,1.83.63,2.31,2.31,0,0,1,.67,1.74,1.82,1.82,0,0,1-.39,1.13,2.32,2.32,0,0,1-1.07.78,2.24,2.24,0,0,1,1.21.76,2.09,2.09,0,0,1,.41,1.29,2.31,2.31,0,0,1-.72,1.77,2.71,2.71,0,0,1-1.91.67,3.26,3.26,0,0,1-1.4-.31,2.33,2.33,0,0,1-1-.85,2.36,2.36,0,0,1-.35-1.28h.7a1.7,1.7,0,0,0,.57,1.33,2.11,2.11,0,0,0,1.46.51,2,2,0,0,0,1.42-.46,1.77,1.77,0,0,0,.5-1.35,1.59,1.59,0,0,0-.55-1.31,2.47,2.47,0,0,0-1.61-.45H114Z"/><path class="cls-2" d="M90.46,197.86l2.61-4.65h.83l-3.08,5.32v3.21H90.1v-3.21L87,193.21h.86Z"/><path class="cls-2" d="M94.88,202.47h-.64l3.56-9.26h.64Z"/><path class="cls-2" d="M107.8,193.61l-3.64,8.13h-.73l3.62-7.94H102.2v-.59h5.6Z"/><path class="cls-2" d="M114.23,195.4a1.93,1.93,0,0,1-.39,1.19,2.24,2.24,0,0,1-1,.77,2.45,2.45,0,0,1,1.18.82,2,2,0,0,1,.45,1.3,2.17,2.17,0,0,1-.74,1.73,3.35,3.35,0,0,1-3.95,0,2.17,2.17,0,0,1-.74-1.74,2.07,2.07,0,0,1,.43-1.3,2.34,2.34,0,0,1,1.17-.82,2.16,2.16,0,0,1-1-.77,2,2,0,0,1-.38-1.19,2.15,2.15,0,0,1,.69-1.68,2.53,2.53,0,0,1,1.8-.63,2.6,2.6,0,0,1,1.82.63A2.18,2.18,0,0,1,114.23,195.4Zm-.48,4.08a1.68,1.68,0,0,0-.57-1.31,2.11,2.11,0,0,0-1.46-.51,2.08,2.08,0,0,0-1.44.5,1.69,1.69,0,0,0-.57,1.32,1.65,1.65,0,0,0,.55,1.3,2.49,2.49,0,0,0,2.94,0A1.65,1.65,0,0,0,113.75,199.48Zm-.23-4.08a1.64,1.64,0,0,0-.5-1.22,2,2,0,0,0-2.59,0,1.63,1.63,0,0,0-.49,1.24,1.58,1.58,0,0,0,.49,1.21,1.87,1.87,0,0,0,1.3.45,1.8,1.8,0,0,0,1.29-.46A1.53,1.53,0,0,0,113.52,195.4Z"/><path class="cls-2" d="M89.88,211.9l-1.2,1.19v3H88v-8.53h.72v4.6l4.37-4.6H94l-3.58,3.79,3.85,4.74h-.87Z"/><path class="cls-2" d="M95.27,216.87h-.64l3.56-9.26h.63Z"/><path class="cls-2" d="M108.08,212.58a4.71,4.71,0,0,1-.66,2.74,2.5,2.5,0,0,1-3.89,0,4.53,4.53,0,0,1-.69-2.67v-1.53a4.64,4.64,0,0,1,.66-2.72,2.53,2.53,0,0,1,3.89,0,4.57,4.57,0,0,1,.69,2.64Zm-.7-1.53a4.14,4.14,0,0,0-.48-2.21,1.76,1.76,0,0,0-2.87,0,4.05,4.05,0,0,0-.5,2.16v1.68a4.14,4.14,0,0,0,.5,2.23,1.73,1.73,0,0,0,2.86,0,4.27,4.27,0,0,0,.49-2.22Z"/><path class="cls-2" d="M138.28,169.38H135.8v3.56h-.72v-8.53h2.77a3.16,3.16,0,0,1,2.13.66,2.32,2.32,0,0,1,.77,1.85,2.29,2.29,0,0,1-.48,1.44,2.45,2.45,0,0,1-1.29.87l2.13,3.63v.08h-.77Zm-2.48-.61H138a2.06,2.06,0,0,0,1.46-.51,2,2,0,0,0,0-2.74,2.36,2.36,0,0,0-1.62-.5h-2Z"/><path class="cls-2" d="M142.45,173.67h-.64l3.56-9.26H146Z"/><path class="cls-2" d="M155.46,172.94h-5.34v-.54l2.92-3.32a8.25,8.25,0,0,0,1-1.38,2.27,2.27,0,0,0,.28-1.06,1.7,1.7,0,0,0-.48-1.28,1.77,1.77,0,0,0-1.3-.47,1.82,1.82,0,0,0-1.39.55,2,2,0,0,0-.53,1.43h-.7a2.73,2.73,0,0,1,.32-1.31,2.31,2.31,0,0,1,.93-.93,2.7,2.7,0,0,1,1.37-.34,2.58,2.58,0,0,1,1.83.62,2.16,2.16,0,0,1,.66,1.67,2.94,2.94,0,0,1-.37,1.31,10.28,10.28,0,0,1-1.31,1.77L151,172.35h4.48Z"/><path class="cls-2" d="M158.33,168.29h.72a2.51,2.51,0,0,0,1.06-.21,1.52,1.52,0,0,0,.68-.59,1.54,1.54,0,0,0,.24-.86,1.73,1.73,0,0,0-.46-1.28,1.79,1.79,0,0,0-1.33-.46,1.92,1.92,0,0,0-1.35.48,1.65,1.65,0,0,0-.52,1.28h-.7a2.27,2.27,0,0,1,.33-1.21,2.19,2.19,0,0,1,.93-.85,2.84,2.84,0,0,1,1.31-.3,2.58,2.58,0,0,1,1.83.63,2.31,2.31,0,0,1,.67,1.74,1.82,1.82,0,0,1-.39,1.13,2.32,2.32,0,0,1-1.07.78,2.18,2.18,0,0,1,1.2.76,2,2,0,0,1,.41,1.29,2.31,2.31,0,0,1-.71,1.77,2.71,2.71,0,0,1-1.91.67,3.23,3.23,0,0,1-1.4-.31,2.33,2.33,0,0,1-1-.85,2.28,2.28,0,0,1-.35-1.28h.7a1.7,1.7,0,0,0,.57,1.33,2.1,2.1,0,0,0,1.46.51,2,2,0,0,0,1.41-.46,1.73,1.73,0,0,0,.51-1.35,1.59,1.59,0,0,0-.55-1.31,2.47,2.47,0,0,0-1.61-.45h-.7Z"/><path class="cls-2" d="M168.56,169.38a4.71,4.71,0,0,1-.66,2.74,2.5,2.5,0,0,1-3.89,0,4.53,4.53,0,0,1-.69-2.67v-1.53a4.57,4.57,0,0,1,.67-2.72,2.24,2.24,0,0,1,1.95-.93,2.28,2.28,0,0,1,1.93.89,4.42,4.42,0,0,1,.69,2.64Zm-.7-1.53a4.14,4.14,0,0,0-.48-2.21,1.76,1.76,0,0,0-2.87,0,4.05,4.05,0,0,0-.5,2.16v1.68a4.14,4.14,0,0,0,.5,2.23,1.73,1.73,0,0,0,2.86,0,4.27,4.27,0,0,0,.49-2.22Z"/><path class="cls-2" d="M141.25,186.33a2.45,2.45,0,0,1-1.17.83,5.09,5.09,0,0,1-1.79.3,3.35,3.35,0,0,1-1.79-.48,3.25,3.25,0,0,1-1.2-1.36,4.65,4.65,0,0,1-.44-2v-1.08a4.1,4.1,0,0,1,.9-2.8,3,3,0,0,1,2.41-1,3.19,3.19,0,0,1,2.12.67,2.79,2.79,0,0,1,1,1.85h-.73a2.22,2.22,0,0,0-.76-1.43,2.47,2.47,0,0,0-1.59-.48,2.32,2.32,0,0,0-1.89.85,3.73,3.73,0,0,0-.7,2.4v1a4.22,4.22,0,0,0,.34,1.72,2.6,2.6,0,0,0,1,1.16,2.52,2.52,0,0,0,1.42.41,3.9,3.9,0,0,0,1.6-.3,1.81,1.81,0,0,0,.64-.45v-2.2h-2.29v-.61h3Z"/><path class="cls-2" d="M143,188.07h-.64l3.57-9.26h.63Z"/><path class="cls-2" d="M154,187.34h-.71v-7.69l-2.32.86v-.65l2.91-1.08H154Z"/><path class="cls-2" d="M161.73,183.39a2.6,2.6,0,0,1-.93.85,2.52,2.52,0,0,1-1.21.3,2.24,2.24,0,0,1-1.28-.37,2.45,2.45,0,0,1-.86-1,3.31,3.31,0,0,1-.31-1.45,3.5,3.5,0,0,1,.33-1.53,2.54,2.54,0,0,1,.91-1.08,2.63,2.63,0,0,1,3.34.52,4.05,4.05,0,0,1,.71,2.55v.63a5.28,5.28,0,0,1-1,3.47,3.71,3.71,0,0,1-3,1.16h-.13v-.61h.25a3.1,3.1,0,0,0,2.32-.86A3.75,3.75,0,0,0,161.73,183.39Zm-2,.54a2.09,2.09,0,0,0,1.26-.41,2.31,2.31,0,0,0,.8-1.09V182a3.25,3.25,0,0,0-.55-2,1.73,1.73,0,0,0-1.46-.72,1.65,1.65,0,0,0-1.36.67,2.61,2.61,0,0,0-.54,1.69,2.48,2.48,0,0,0,.52,1.62A1.59,1.59,0,0,0,159.68,183.93Z"/><path class="cls-2" d="M169.26,179.21l-3.65,8.13h-.73l3.62-7.93h-4.85v-.6h5.61Z"/><path class="cls-2" d="M135.09,201.74v-8.53h2.52a3.31,3.31,0,0,1,2.08.56,2,2,0,0,1,.71,1.67,1.88,1.88,0,0,1-.36,1.15,1.94,1.94,0,0,1-1,.7,2.1,2.1,0,0,1,1.66,2.05,2.23,2.23,0,0,1-.73,1.76,3,3,0,0,1-2,.64Zm.72-4.71h2a2.22,2.22,0,0,0,1.4-.42,1.45,1.45,0,0,0,.49-1.19,1.42,1.42,0,0,0-.51-1.21,2.55,2.55,0,0,0-1.55-.39h-1.8Zm0,.61v3.49H138a2.17,2.17,0,0,0,1.46-.47,1.66,1.66,0,0,0,.55-1.31,1.61,1.61,0,0,0-.52-1.25,2.14,2.14,0,0,0-1.44-.46Z"/><path class="cls-2" d="M142.18,202.47h-.64l3.57-9.26h.63Z"/><path class="cls-2" d="M155.11,193.61l-3.65,8.13h-.73l3.62-7.94H149.5v-.59h5.61Z"/><path class="cls-2" d="M161.85,201.74H156.5v-.54l2.93-3.32a7.56,7.56,0,0,0,1-1.38,2.29,2.29,0,0,0,.29-1.06,1.7,1.7,0,0,0-.48-1.28,1.75,1.75,0,0,0-1.31-.47,1.85,1.85,0,0,0-1.39.55,2,2,0,0,0-.53,1.43h-.69a2.62,2.62,0,0,1,.32-1.31,2.31,2.31,0,0,1,.93-.93,2.67,2.67,0,0,1,1.36-.34,2.55,2.55,0,0,1,1.84.62,2.16,2.16,0,0,1,.65,1.67,2.85,2.85,0,0,1-.37,1.31,9.77,9.77,0,0,1-1.31,1.77l-2.38,2.69h4.49Z"/><path class="cls-2" d="M138.43,213.74h-1.84l-.45,2.4h-.58l.45-2.4h-1.5v-.55h1.6l.48-2.58H135V210h1.74l.46-2.43h.58l-.46,2.43h1.84l.47-2.43h.58l-.46,2.43h1.34v.57H139.6l-.48,2.58h1.49v.55H139l-.45,2.4H138Zm-1.74-.55h1.84l.49-2.58h-1.85Z"/><path class="cls-2" d="M146.78,212.05h-4v3.48h4.59v.61h-5.31v-8.53h5.28v.61h-4.56v3.22h4Z"/><path class="cls-2" d="M152.76,207.54v.61h-.08a3.21,3.21,0,0,0-2.41.9,3.74,3.74,0,0,0-1,2.51,2.34,2.34,0,0,1,.89-.76,2.87,2.87,0,0,1,1.22-.26,2.25,2.25,0,0,1,1.79.77,3,3,0,0,1,.67,2,3.59,3.59,0,0,1-.31,1.5,2.39,2.39,0,0,1-2.22,1.42,2.51,2.51,0,0,1-2-.89,3.4,3.4,0,0,1-.77-2.3v-.7a5.44,5.44,0,0,1,1-3.55,3.75,3.75,0,0,1,3-1.28Zm-1.46,3.61a2.2,2.2,0,0,0-1.25.39,1.93,1.93,0,0,0-.77,1v.6a2.76,2.76,0,0,0,.58,1.82,1.83,1.83,0,0,0,1.48.7,1.62,1.62,0,0,0,1.33-.65,2.56,2.56,0,0,0,.5-1.64,2.45,2.45,0,0,0-.5-1.62A1.71,1.71,0,0,0,151.3,211.15Z"/><path class="cls-2" d="M161.59,213.48a3,3,0,0,1-1,2.06,3.16,3.16,0,0,1-2.17.72,3,3,0,0,1-1.68-.48,3.11,3.11,0,0,1-1.13-1.34,4.84,4.84,0,0,1-.4-2v-1.11a4.79,4.79,0,0,1,.4-2,3,3,0,0,1,1.14-1.35,3.11,3.11,0,0,1,1.72-.48,2.85,2.85,0,0,1,3.09,2.78h-.73a2.16,2.16,0,0,0-2.36-2.17,2.24,2.24,0,0,0-1.85.87,3.77,3.77,0,0,0-.69,2.4v1a3.86,3.86,0,0,0,.67,2.36,2.2,2.2,0,0,0,1.82.88,2.35,2.35,0,0,0,1.7-.55,2.55,2.55,0,0,0,.71-1.62Z"/><path class="cls-2" d="M163.54,211.77l.42-4.16h4.26v.65h-3.66l-.3,2.88a2.8,2.8,0,0,1,1.61-.47,2.37,2.37,0,0,1,1.84.75,2.89,2.89,0,0,1,.68,2,3,3,0,0,1-.67,2.09,2.38,2.38,0,0,1-1.88.75,2.57,2.57,0,0,1-1.8-.63,2.5,2.5,0,0,1-.79-1.74h.67a2,2,0,0,0,.59,1.33,1.94,1.94,0,0,0,1.33.44,1.65,1.65,0,0,0,1.38-.58,2.55,2.55,0,0,0,.47-1.65,2.29,2.29,0,0,0-.52-1.53,1.83,1.83,0,0,0-1.43-.59,2.47,2.47,0,0,0-.86.13,2.13,2.13,0,0,0-.78.49Z"/><path class="cls-2" d="M174,213.39h1.33V214H174v2.16h-.7V214h-4v-.4l3.94-6H174Zm-3.85,0h3.15v-4.87l-.31.53Z"/><path class="cls-2" d="M181.39,209.8A2,2,0,0,1,181,211a2.24,2.24,0,0,1-1,.77,2.5,2.5,0,0,1,1.18.82,2,2,0,0,1,.45,1.3,2.14,2.14,0,0,1-.75,1.73,2.89,2.89,0,0,1-2,.65,2.93,2.93,0,0,1-2-.64,2.18,2.18,0,0,1-.75-1.74,2.14,2.14,0,0,1,.43-1.3,2.43,2.43,0,0,1,1.17-.82,2.14,2.14,0,0,1-1-.77,2,2,0,0,1-.38-1.19,2.19,2.19,0,0,1,.68-1.68,2.93,2.93,0,0,1,3.63,0A2.21,2.21,0,0,1,181.39,209.8Zm-.48,4.08a1.7,1.7,0,0,0-.57-1.31,2.07,2.07,0,0,0-1.45-.51,2.13,2.13,0,0,0-1.45.5,1.71,1.71,0,0,0-.56,1.32,1.62,1.62,0,0,0,.55,1.3,2.48,2.48,0,0,0,2.93,0A1.62,1.62,0,0,0,180.91,213.88Zm-.22-4.08a1.61,1.61,0,0,0-.51-1.22,1.74,1.74,0,0,0-1.29-.49,1.81,1.81,0,0,0-1.29.47,1.63,1.63,0,0,0-.5,1.24,1.58,1.58,0,0,0,.5,1.21,1.85,1.85,0,0,0,1.3.45,1.82,1.82,0,0,0,1.29-.46A1.56,1.56,0,0,0,180.69,209.8Z"/><rect class="cls-5" x="23.14" y="240.51" width="46.76" height="46.76" rx="3.09"/><path class="cls-2" d="M94,248.11a3.06,3.06,0,0,1-1,2.06,3.18,3.18,0,0,1-2.18.72,3,3,0,0,1-1.68-.48,3.05,3.05,0,0,1-1.13-1.34,4.81,4.81,0,0,1-.4-2V246a4.71,4.71,0,0,1,.4-2,3,3,0,0,1,1.14-1.36,3.11,3.11,0,0,1,1.72-.48,3.07,3.07,0,0,1,2.17.74,3.12,3.12,0,0,1,.92,2h-.73a2.17,2.17,0,0,0-2.36-2.18,2.24,2.24,0,0,0-1.85.87,3.76,3.76,0,0,0-.68,2.4v1a3.78,3.78,0,0,0,.67,2.36,2.14,2.14,0,0,0,1.81.88,2.39,2.39,0,0,0,1.7-.54,2.58,2.58,0,0,0,.71-1.63Z"/><path class="cls-2" d="M95.49,251.5h-.64l3.56-9.26H99Z"/><path class="cls-2" d="M106.42,250.77h-.7v-7.69l-2.32.87v-.66l2.9-1.08h.12Z"/><path class="cls-2" d="M111.37,246.12h.72a2.47,2.47,0,0,0,1.06-.21,1.65,1.65,0,0,0,.69-.58,1.56,1.56,0,0,0,.23-.86,1.74,1.74,0,0,0-.46-1.29,1.83,1.83,0,0,0-1.33-.46,1.9,1.9,0,0,0-1.34.48,1.67,1.67,0,0,0-.53,1.28h-.7a2.29,2.29,0,0,1,.33-1.21,2.25,2.25,0,0,1,.93-.85,2.84,2.84,0,0,1,1.31-.3,2.54,2.54,0,0,1,1.83.64,2.29,2.29,0,0,1,.67,1.73,1.82,1.82,0,0,1-.39,1.13,2.32,2.32,0,0,1-1.07.78,2.2,2.2,0,0,1,1.21.77,2.09,2.09,0,0,1,.41,1.29,2.28,2.28,0,0,1-.72,1.76,2.67,2.67,0,0,1-1.91.67,3.12,3.12,0,0,1-1.4-.31,2.26,2.26,0,0,1-1-.85,2.33,2.33,0,0,1-.35-1.27h.7a1.69,1.69,0,0,0,.57,1.32,2.07,2.07,0,0,0,1.46.52,2,2,0,0,0,1.42-.47,1.77,1.77,0,0,0,.5-1.35,1.59,1.59,0,0,0-.55-1.31,2.47,2.47,0,0,0-1.61-.45h-.7Z"/><path class="cls-2" d="M88.91,256.64l3.15,7.53,3.16-7.53h1v8.53h-.72v-3.71l.06-3.81-3.18,7.52h-.55l-3.17-7.49.06,3.75v3.74H88v-8.53Z"/><path class="cls-2" d="M98.08,265.9h-.64l3.56-9.26h.63Z"/><path class="cls-2" d="M109.88,256.58v.61h-.08a3.22,3.22,0,0,0-2.41.9,3.77,3.77,0,0,0-1,2.5,2.42,2.42,0,0,1,.9-.75,2.7,2.7,0,0,1,1.22-.27,2.24,2.24,0,0,1,1.79.78,3,3,0,0,1,.66,2,3.5,3.5,0,0,1-.31,1.5,2.45,2.45,0,0,1-.89,1,2.47,2.47,0,0,1-1.32.37,2.54,2.54,0,0,1-2-.89,3.39,3.39,0,0,1-.76-2.29v-.71a5.36,5.36,0,0,1,1-3.54,3.67,3.67,0,0,1,3-1.28Zm-1.45,3.6a2.2,2.2,0,0,0-1.25.39,2,2,0,0,0-.77,1v.59A2.79,2.79,0,0,0,107,264a1.82,1.82,0,0,0,1.49.7,1.6,1.6,0,0,0,1.32-.65,2.57,2.57,0,0,0,.51-1.64,2.41,2.41,0,0,0-.51-1.61A1.66,1.66,0,0,0,108.43,260.18Z"/><path class="cls-2" d="M114,260.53h.72a2.47,2.47,0,0,0,1.06-.22,1.52,1.52,0,0,0,.92-1.44,1.74,1.74,0,0,0-.46-1.29,1.83,1.83,0,0,0-1.33-.46,1.9,1.9,0,0,0-1.34.48,1.67,1.67,0,0,0-.53,1.28h-.7a2.29,2.29,0,0,1,.33-1.21,2.25,2.25,0,0,1,.93-.85,2.84,2.84,0,0,1,1.31-.3,2.54,2.54,0,0,1,1.83.64,2.29,2.29,0,0,1,.67,1.73A1.82,1.82,0,0,1,117,260a2.32,2.32,0,0,1-1.07.78,2.24,2.24,0,0,1,1.21.76,2.14,2.14,0,0,1,.41,1.3,2.28,2.28,0,0,1-.72,1.76,2.67,2.67,0,0,1-1.91.67,3.12,3.12,0,0,1-1.4-.31,2.26,2.26,0,0,1-1-.85,2.33,2.33,0,0,1-.35-1.27h.7a1.69,1.69,0,0,0,.57,1.32,2.07,2.07,0,0,0,1.46.52,2,2,0,0,0,1.42-.47,1.77,1.77,0,0,0,.5-1.35,1.6,1.6,0,0,0-.55-1.31,2.47,2.47,0,0,0-1.61-.45H114Z"/><path class="cls-2" d="M90.46,275.69,93.07,271h.83l-3.08,5.32v3.21H90.1v-3.21L87,271h.86Z"/><path class="cls-2" d="M94.88,280.3h-.64L97.8,271h.64Z"/><path class="cls-2" d="M107.58,273.24a1.92,1.92,0,0,1-.39,1.18,2.24,2.24,0,0,1-1,.77,2.45,2.45,0,0,1,1.18.82,2,2,0,0,1,.45,1.3,2.18,2.18,0,0,1-.75,1.74,2.93,2.93,0,0,1-2,.64,2.89,2.89,0,0,1-2-.64,2.33,2.33,0,0,1-.32-3,2.47,2.47,0,0,1,1.18-.82,2.11,2.11,0,0,1-1-.77,2,2,0,0,1-.38-1.18,2.17,2.17,0,0,1,.69-1.69,2.53,2.53,0,0,1,1.8-.63,2.56,2.56,0,0,1,1.82.64A2.16,2.16,0,0,1,107.58,273.24Zm-.48,4.08a1.67,1.67,0,0,0-.57-1.31,2.07,2.07,0,0,0-1.46-.52,2,2,0,0,0-1.44.51,1.8,1.8,0,0,0,0,2.61,2.46,2.46,0,0,0,2.93,0A1.64,1.64,0,0,0,107.1,277.32Zm-.23-4.09a1.65,1.65,0,0,0-.5-1.22,1.78,1.78,0,0,0-1.3-.49,1.81,1.81,0,0,0-1.29.47,1.64,1.64,0,0,0-.49,1.24,1.58,1.58,0,0,0,.49,1.21,2.05,2.05,0,0,0,2.59,0A1.55,1.55,0,0,0,106.87,273.23Z"/><path class="cls-2" d="M114.34,276a4.71,4.71,0,0,1-.66,2.74,2.22,2.22,0,0,1-2,.94,2.27,2.27,0,0,1-1.94-.92,4.53,4.53,0,0,1-.69-2.67v-1.53a4.59,4.59,0,0,1,.67-2.72,2.51,2.51,0,0,1,3.88,0,4.37,4.37,0,0,1,.69,2.63Zm-.7-1.52a4.16,4.16,0,0,0-.48-2.22,1.76,1.76,0,0,0-2.87,0,4,4,0,0,0-.49,2.17v1.67a4.14,4.14,0,0,0,.49,2.23,1.6,1.6,0,0,0,1.44.78,1.58,1.58,0,0,0,1.42-.76,4.14,4.14,0,0,0,.49-2.21Z"/><path class="cls-2" d="M89.88,289.74l-1.2,1.18V294H88v-8.53h.72V290l4.37-4.6H94l-3.58,3.8L94.23,294h-.87Z"/><path class="cls-2" d="M95.27,294.7h-.64l3.56-9.26h.63Z"/><path class="cls-2" d="M108.08,290.42a4.7,4.7,0,0,1-.66,2.73,2.22,2.22,0,0,1-2,.94,2.26,2.26,0,0,1-1.94-.92,4.53,4.53,0,0,1-.69-2.67V289a4.67,4.67,0,0,1,.66-2.72,2.52,2.52,0,0,1,3.89,0,4.51,4.51,0,0,1,.69,2.63Zm-.7-1.53a4.16,4.16,0,0,0-.48-2.22,1.76,1.76,0,0,0-2.87,0,4.06,4.06,0,0,0-.5,2.17v1.67a4.14,4.14,0,0,0,.5,2.23,1.6,1.6,0,0,0,1.44.78,1.57,1.57,0,0,0,1.42-.76,4.23,4.23,0,0,0,.49-2.21Z"/><path class="cls-2" d="M138.28,247.21H135.8v3.56h-.72v-8.53h2.77a3.16,3.16,0,0,1,2.13.66,2.53,2.53,0,0,1,.29,3.3,2.49,2.49,0,0,1-1.29.86l2.13,3.64v.07h-.77Zm-2.48-.6H138a2.07,2.07,0,0,0,1.46-.52,2,2,0,0,0,0-2.74,2.41,2.41,0,0,0-1.62-.5h-2Z"/><path class="cls-2" d="M142.45,251.5h-.64l3.56-9.26H146Z"/><path class="cls-2" d="M155.46,250.77h-5.34v-.54l2.92-3.31a7.87,7.87,0,0,0,1-1.39,2.24,2.24,0,0,0,.28-1.06,1.72,1.72,0,0,0-.48-1.28,1.77,1.77,0,0,0-1.3-.47,1.82,1.82,0,0,0-1.39.55,2,2,0,0,0-.53,1.43h-.7a2.73,2.73,0,0,1,.32-1.31,2.31,2.31,0,0,1,.93-.93,2.81,2.81,0,0,1,1.37-.34,2.58,2.58,0,0,1,1.83.62,2.18,2.18,0,0,1,.66,1.67,2.94,2.94,0,0,1-.37,1.31,10.28,10.28,0,0,1-1.31,1.77L151,250.18h4.48Z"/><path class="cls-2" d="M160,250.77h-.7v-7.69L157,244v-.66l2.9-1.08H160Z"/><path class="cls-2" d="M168.44,244.44a1.91,1.91,0,0,1-.38,1.18,2.24,2.24,0,0,1-1,.77,2.5,2.5,0,0,1,1.18.82,2,2,0,0,1,.45,1.3,2.18,2.18,0,0,1-.75,1.74,2.93,2.93,0,0,1-2,.64,2.88,2.88,0,0,1-2-.64,2.33,2.33,0,0,1-.32-3,2.49,2.49,0,0,1,1.17-.82,2.14,2.14,0,0,1-1-.77,2,2,0,0,1-.38-1.18,2.2,2.2,0,0,1,.68-1.69,2.91,2.91,0,0,1,3.63,0A2.19,2.19,0,0,1,168.44,244.44Zm-.48,4.08a1.69,1.69,0,0,0-.56-1.31,2.07,2.07,0,0,0-1.46-.52,2,2,0,0,0-1.44.51,1.66,1.66,0,0,0-.57,1.32,1.62,1.62,0,0,0,.55,1.29,2.09,2.09,0,0,0,1.47.49,2.12,2.12,0,0,0,1.46-.48A1.64,1.64,0,0,0,168,248.52Zm-.22-4.09a1.62,1.62,0,0,0-.51-1.22,1.74,1.74,0,0,0-1.29-.49,1.81,1.81,0,0,0-1.29.47,1.64,1.64,0,0,0-.49,1.24,1.58,1.58,0,0,0,.49,1.21,2.05,2.05,0,0,0,2.59,0A1.58,1.58,0,0,0,167.74,244.43Z"/><path class="cls-2" d="M141.25,264.16a2.45,2.45,0,0,1-1.17.83,5.09,5.09,0,0,1-1.79.3,3.35,3.35,0,0,1-1.79-.48,3.19,3.19,0,0,1-1.2-1.36,4.65,4.65,0,0,1-.44-2v-1.07a4.12,4.12,0,0,1,.9-2.81,3.06,3.06,0,0,1,2.41-1,3.24,3.24,0,0,1,2.12.67,2.81,2.81,0,0,1,1,1.85h-.73a2.2,2.2,0,0,0-.76-1.42,2.42,2.42,0,0,0-1.59-.49,2.35,2.35,0,0,0-1.89.85,3.73,3.73,0,0,0-.7,2.4v1a4.22,4.22,0,0,0,.34,1.72,2.55,2.55,0,0,0,1,1.16,2.52,2.52,0,0,0,1.42.41,4.08,4.08,0,0,0,1.6-.29,1.81,1.81,0,0,0,.64-.45v-2.21h-2.29v-.61h3Z"/><path class="cls-2" d="M143,265.9h-.64l3.57-9.26h.63Z"/><path class="cls-2" d="M154,265.17h-.71v-7.69l-2.32.87v-.66l2.91-1.08H154Z"/><path class="cls-2" d="M162.7,265.17h-5.35v-.54l2.93-3.31a7.25,7.25,0,0,0,1-1.39,2.26,2.26,0,0,0,.29-1.06,1.72,1.72,0,0,0-.48-1.28,1.79,1.79,0,0,0-1.31-.47,1.85,1.85,0,0,0-1.39.55,2,2,0,0,0-.53,1.43h-.69a2.62,2.62,0,0,1,.32-1.31,2.31,2.31,0,0,1,.93-.93,2.67,2.67,0,0,1,1.36-.34,2.59,2.59,0,0,1,1.84.62,2.21,2.21,0,0,1,.65,1.67,2.81,2.81,0,0,1-.37,1.31,9.77,9.77,0,0,1-1.31,1.77l-2.38,2.69h4.49Z"/><path class="cls-2" d="M169.15,261.62a4.7,4.7,0,0,1-.66,2.73,2.51,2.51,0,0,1-3.9,0,4.68,4.68,0,0,1-.69-2.67v-1.53a4.66,4.66,0,0,1,.67-2.72,2.52,2.52,0,0,1,3.89,0,4.51,4.51,0,0,1,.69,2.63Zm-.71-1.53a4.17,4.17,0,0,0-.47-2.22,1.77,1.77,0,0,0-2.88,0,4.07,4.07,0,0,0-.49,2.17v1.67a4.14,4.14,0,0,0,.5,2.23,1.71,1.71,0,0,0,2.86,0,4.14,4.14,0,0,0,.48-2.21Z"/><path class="cls-2" d="M135.09,279.57V271h2.52a3.24,3.24,0,0,1,2.08.57,2,2,0,0,1,.71,1.66,1.93,1.93,0,0,1-.36,1.16,2,2,0,0,1-1,.7,2,2,0,0,1,1.2.73,2.05,2.05,0,0,1,.46,1.31,2.26,2.26,0,0,1-.73,1.77,3,3,0,0,1-2,.63Zm.72-4.7h2a2.29,2.29,0,0,0,1.4-.43,1.45,1.45,0,0,0,.49-1.19,1.42,1.42,0,0,0-.51-1.21,2.55,2.55,0,0,0-1.55-.39h-1.8Zm0,.61V279H138a2.17,2.17,0,0,0,1.46-.47,1.65,1.65,0,0,0,.55-1.31,1.62,1.62,0,0,0-.52-1.25,2.14,2.14,0,0,0-1.44-.45Z"/><path class="cls-2" d="M142.18,280.3h-.64l3.57-9.26h.63Z"/><path class="cls-2" d="M150.33,275.2l.41-4.16H155v.65h-3.66l-.3,2.88a2.77,2.77,0,0,1,1.6-.47,2.36,2.36,0,0,1,1.84.75,2.84,2.84,0,0,1,.69,2,3,3,0,0,1-.67,2.09,2.38,2.38,0,0,1-1.88.75,2.61,2.61,0,0,1-1.8-.62,2.55,2.55,0,0,1-.8-1.74h.68a2,2,0,0,0,.59,1.32,1.9,1.9,0,0,0,1.33.45,1.68,1.68,0,0,0,1.38-.58,2.6,2.6,0,0,0,.47-1.66,2.24,2.24,0,0,0-.53-1.53,1.8,1.8,0,0,0-1.42-.59,2.84,2.84,0,0,0-.87.13,2.48,2.48,0,0,0-.78.49Z"/><path class="cls-2" d="M161.53,273.24a1.92,1.92,0,0,1-.39,1.18,2.14,2.14,0,0,1-1,.77,2.48,2.48,0,0,1,1.19.82,2.06,2.06,0,0,1,.44,1.3,2.2,2.2,0,0,1-.74,1.74,3.37,3.37,0,0,1-3.95,0,2.2,2.2,0,0,1-.74-1.74,2.09,2.09,0,0,1,.43-1.3,2.4,2.4,0,0,1,1.17-.82,2.16,2.16,0,0,1-1-.77,2,2,0,0,1-.37-1.18,2.2,2.2,0,0,1,.68-1.69,2.57,2.57,0,0,1,1.81-.63,2.54,2.54,0,0,1,1.81.64A2.16,2.16,0,0,1,161.53,273.24Zm-.48,4.08a1.67,1.67,0,0,0-.57-1.31,2,2,0,0,0-1.45-.52,2.09,2.09,0,0,0-1.45.51,1.69,1.69,0,0,0-.56,1.32,1.64,1.64,0,0,0,.54,1.29,2.47,2.47,0,0,0,2.94,0A1.64,1.64,0,0,0,161.05,277.32Zm-.22-4.09a1.62,1.62,0,0,0-.51-1.22,1.77,1.77,0,0,0-1.29-.49,1.81,1.81,0,0,0-1.29.47,1.65,1.65,0,0,0-.5,1.24,1.58,1.58,0,0,0,.5,1.21,1.85,1.85,0,0,0,1.29.46,1.89,1.89,0,0,0,1.3-.46A1.58,1.58,0,0,0,160.83,273.23Z"/><path class="cls-2" d="M138.43,291.57h-1.84l-.45,2.4h-.58l.45-2.4h-1.5V291h1.6l.48-2.58H135v-.56h1.74l.46-2.44h.58l-.46,2.44h1.84l.47-2.44h.58l-.46,2.44h1.34v.56H139.6l-.48,2.58h1.49v.55H139l-.45,2.4H138Zm-1.74-.55h1.84l.49-2.58h-1.85Z"/><path class="cls-2" d="M142.07,294v-8.53h2.39a3.7,3.7,0,0,1,1.88.48,3.29,3.29,0,0,1,1.29,1.37,4.18,4.18,0,0,1,.47,2v.79a4.31,4.31,0,0,1-.46,2,3.3,3.3,0,0,1-1.31,1.36,3.81,3.81,0,0,1-1.93.48Zm.72-7.92v7.31h1.62a2.79,2.79,0,0,0,2.16-.89,3.48,3.48,0,0,0,.82-2.42v-.75a3.37,3.37,0,0,0-.81-2.36,2.71,2.71,0,0,0-2.11-.89Z"/><path class="cls-2" d="M154.41,291.58h-3.87l-.88,2.39h-.76l3.23-8.53h.69l3.23,8.53h-.75Zm-3.65-.61h3.42l-1.71-4.65Z"/><path class="cls-2" d="M162.28,285.84,158.64,294h-.74l3.62-7.93h-4.85v-.6h5.61Z"/><path class="cls-2" d="M168.7,287.64a2,2,0,0,1-.38,1.18,2.24,2.24,0,0,1-1,.77,2.5,2.5,0,0,1,1.18.82,2,2,0,0,1,.44,1.3,2.17,2.17,0,0,1-.74,1.74,3.37,3.37,0,0,1-4,0,2.2,2.2,0,0,1-.74-1.74,2.11,2.11,0,0,1,.43-1.29,2.44,2.44,0,0,1,1.17-.83,2.16,2.16,0,0,1-1-.77,2,2,0,0,1-.37-1.18,2.2,2.2,0,0,1,.68-1.69,2.57,2.57,0,0,1,1.81-.63A2.54,2.54,0,0,1,168,286,2.16,2.16,0,0,1,168.7,287.64Zm-.48,4.08a1.67,1.67,0,0,0-.57-1.31,2,2,0,0,0-1.45-.52,2.09,2.09,0,0,0-1.45.51,1.69,1.69,0,0,0-.56,1.32,1.62,1.62,0,0,0,.55,1.29,2.09,2.09,0,0,0,1.47.49,2.14,2.14,0,0,0,1.46-.48A1.64,1.64,0,0,0,168.22,291.72Zm-.22-4.09a1.62,1.62,0,0,0-.51-1.22,1.77,1.77,0,0,0-1.29-.49,1.81,1.81,0,0,0-1.29.47,1.65,1.65,0,0,0-.5,1.24,1.58,1.58,0,0,0,.5,1.21,1.86,1.86,0,0,0,1.3.46,1.88,1.88,0,0,0,1.29-.46A1.58,1.58,0,0,0,168,287.63Z"/><path class="cls-2" d="M171.88,289.33h.73a2.54,2.54,0,0,0,1.06-.22,1.53,1.53,0,0,0,.92-1.44,1.74,1.74,0,0,0-.46-1.29,1.83,1.83,0,0,0-1.33-.46,1.92,1.92,0,0,0-1.35.48,1.67,1.67,0,0,0-.52,1.28h-.7a2.29,2.29,0,0,1,.33-1.21,2.19,2.19,0,0,1,.93-.85,2.84,2.84,0,0,1,1.31-.3,2.54,2.54,0,0,1,1.83.64,2.28,2.28,0,0,1,.66,1.73,1.82,1.82,0,0,1-.39,1.13,2.27,2.27,0,0,1-1.07.78,2.13,2.13,0,0,1,1.21.77,2,2,0,0,1,.41,1.29,2.3,2.3,0,0,1-.71,1.76,2.68,2.68,0,0,1-1.91.67,3.09,3.09,0,0,1-1.4-.31,2.26,2.26,0,0,1-1.33-2.12h.7a1.69,1.69,0,0,0,.57,1.32,2.06,2.06,0,0,0,1.46.52,2,2,0,0,0,1.41-.47,1.73,1.73,0,0,0,.51-1.35,1.59,1.59,0,0,0-.55-1.31,2.47,2.47,0,0,0-1.61-.45h-.71Z"/><path class="cls-2" d="M181.86,291.58H178L177.1,294h-.75l3.23-8.53h.68l3.23,8.53h-.75Zm-3.65-.61h3.42l-1.71-4.65Z"/><rect class="cls-6" x="23.14" y="318.34" width="46.76" height="46.76" rx="3.09"/><path class="cls-2" d="M94,326A3.11,3.11,0,0,1,93,328a3.23,3.23,0,0,1-2.18.71,3.08,3.08,0,0,1-1.68-.47,3.14,3.14,0,0,1-1.13-1.35,4.81,4.81,0,0,1-.4-2v-1.1a4.79,4.79,0,0,1,.4-2,3.06,3.06,0,0,1,1.14-1.36,3.19,3.19,0,0,1,1.72-.47,3,3,0,0,1,2.17.74,3.09,3.09,0,0,1,.92,2h-.73a2.16,2.16,0,0,0-2.36-2.17,2.26,2.26,0,0,0-1.85.86,3.76,3.76,0,0,0-.68,2.4v1.05a3.75,3.75,0,0,0,.67,2.35,2.14,2.14,0,0,0,1.81.88,2.39,2.39,0,0,0,1.7-.54,2.55,2.55,0,0,0,.71-1.62Z"/><path class="cls-2" d="M95.49,329.34h-.64l3.56-9.27H99Z"/><path class="cls-2" d="M106.42,328.61h-.7v-7.69l-2.32.86v-.66l2.9-1.08h.12Z"/><path class="cls-2" d="M110.28,324.23l.42-4.16H115v.65H111.3l-.3,2.89a2.75,2.75,0,0,1,1.61-.47,2.37,2.37,0,0,1,1.84.75,2.82,2.82,0,0,1,.68,2,3,3,0,0,1-.66,2.09,2.43,2.43,0,0,1-1.88.74,2.57,2.57,0,0,1-1.81-.62,2.54,2.54,0,0,1-.79-1.74h.67a2,2,0,0,0,.6,1.32,1.88,1.88,0,0,0,1.33.45,1.65,1.65,0,0,0,1.38-.58,2.59,2.59,0,0,0,.46-1.65,2.2,2.2,0,0,0-.52-1.53,1.78,1.78,0,0,0-1.42-.59,2.81,2.81,0,0,0-.87.12,2.44,2.44,0,0,0-.78.49Z"/><path class="cls-2" d="M88.91,334.47,92.06,342l3.16-7.53h1V343h-.72v-3.72l.06-3.81L92.34,343h-.55l-3.17-7.5.06,3.76V343H88v-8.54Z"/><path class="cls-2" d="M98.08,343.74h-.64l3.56-9.27h.63Z"/><path class="cls-2" d="M111,334.88,107.36,343h-.73l3.62-7.94H105.4v-.6H111Z"/><path class="cls-2" d="M117.65,334.88,114,343h-.73l3.62-7.94h-4.85v-.6h5.6Z"/><path class="cls-2" d="M90.46,353.53l2.61-4.66h.83l-3.08,5.32v3.22H90.1v-3.22L87,348.87h.86Z"/><path class="cls-2" d="M94.88,358.14h-.64l3.56-9.27h.64Z"/><path class="cls-2" d="M107.8,349.28l-3.64,8.13h-.73l3.62-7.94H102.2v-.6h5.6Z"/><path class="cls-2" d="M114.34,353.85a4.76,4.76,0,0,1-.66,2.74,2.24,2.24,0,0,1-2,.93,2.26,2.26,0,0,1-1.94-.91,4.57,4.57,0,0,1-.69-2.67v-1.53a4.62,4.62,0,0,1,.67-2.73,2.53,2.53,0,0,1,3.88,0,4.39,4.39,0,0,1,.69,2.63Zm-.7-1.53a4.16,4.16,0,0,0-.48-2.22,1.75,1.75,0,0,0-2.87,0,4,4,0,0,0-.49,2.16v1.67a4.18,4.18,0,0,0,.49,2.24,1.61,1.61,0,0,0,1.44.77,1.56,1.56,0,0,0,1.42-.76,4.14,4.14,0,0,0,.49-2.21Z"/><path class="cls-2" d="M89.88,367.57l-1.2,1.18v3.06H88v-8.54h.72v4.6l4.37-4.6H94l-3.58,3.8,3.85,4.74h-.87Z"/><path class="cls-2" d="M95.27,372.54h-.64l3.56-9.27h.63Z"/><path class="cls-2" d="M108.08,368.25a4.74,4.74,0,0,1-.66,2.74,2.52,2.52,0,0,1-3.89,0,4.57,4.57,0,0,1-.69-2.67v-1.53a4.7,4.7,0,0,1,.66-2.73,2.54,2.54,0,0,1,3.89,0,4.54,4.54,0,0,1,.69,2.63Zm-.7-1.53a4.16,4.16,0,0,0-.48-2.22,1.75,1.75,0,0,0-2.87,0,4.05,4.05,0,0,0-.5,2.16v1.68a4.16,4.16,0,0,0,.5,2.23,1.61,1.61,0,0,0,1.44.77,1.59,1.59,0,0,0,1.42-.75,4.3,4.3,0,0,0,.49-2.22Z"/><path class="cls-2" d="M138.28,325.05H135.8v3.56h-.72v-8.54h2.77a3.11,3.11,0,0,1,2.13.67,2.52,2.52,0,0,1,.29,3.29,2.45,2.45,0,0,1-1.29.87l2.13,3.63v.08h-.77Zm-2.48-.61H138a2,2,0,0,0,1.46-.52,1.74,1.74,0,0,0,.55-1.34,1.77,1.77,0,0,0-.57-1.4,2.41,2.41,0,0,0-1.62-.5h-2Z"/><path class="cls-2" d="M142.45,329.34h-.64l3.56-9.27H146Z"/><path class="cls-2" d="M155.46,328.61h-5.34v-.54l2.92-3.32a8.25,8.25,0,0,0,1-1.38,2.3,2.3,0,0,0,.28-1.06,1.7,1.7,0,0,0-.48-1.28,1.74,1.74,0,0,0-1.3-.48,1.82,1.82,0,0,0-1.39.56,1.93,1.93,0,0,0-.53,1.43h-.7a2.77,2.77,0,0,1,.32-1.32,2.44,2.44,0,0,1,.93-.93,2.8,2.8,0,0,1,1.37-.33,2.58,2.58,0,0,1,1.83.61,2.18,2.18,0,0,1,.66,1.68,2.9,2.9,0,0,1-.37,1.3,9.56,9.56,0,0,1-1.31,1.77L151,328h4.48Z"/><path class="cls-2" d="M160,328.61h-.7v-7.69l-2.32.86v-.66l2.9-1.08H160Z"/><path class="cls-2" d="M166.68,328.61H166v-7.69l-2.32.86v-.66l2.9-1.08h.12Z"/><path class="cls-2" d="M141.25,342a2.39,2.39,0,0,1-1.17.83,5.09,5.09,0,0,1-1.79.3,3.35,3.35,0,0,1-1.79-.48,3.19,3.19,0,0,1-1.2-1.36,4.57,4.57,0,0,1-.44-2v-1.08a4.14,4.14,0,0,1,.9-2.81,3,3,0,0,1,2.41-1,3.19,3.19,0,0,1,2.12.67,2.77,2.77,0,0,1,1,1.85h-.73a2.2,2.2,0,0,0-.76-1.43,2.47,2.47,0,0,0-1.59-.48,2.32,2.32,0,0,0-1.89.85,3.68,3.68,0,0,0-.7,2.39v1a4.27,4.27,0,0,0,.34,1.73,2.57,2.57,0,0,0,1,1.15,2.44,2.44,0,0,0,1.42.41,3.91,3.91,0,0,0,1.6-.29,1.81,1.81,0,0,0,.64-.45v-2.2h-2.29V339h3Z"/><path class="cls-2" d="M143,343.74h-.64l3.57-9.27h.63Z"/><path class="cls-2" d="M155.73,336.67a2,2,0,0,1-.39,1.19,2.26,2.26,0,0,1-1,.77,2.54,2.54,0,0,1,1.19.81,2.08,2.08,0,0,1,.44,1.3,2.2,2.2,0,0,1-.74,1.74,3.37,3.37,0,0,1-4,0,2.17,2.17,0,0,1-.74-1.74,2.07,2.07,0,0,1,.43-1.29,2.34,2.34,0,0,1,1.17-.82,2.23,2.23,0,0,1-1-.77,2,2,0,0,1-.37-1.19,2.16,2.16,0,0,1,.68-1.69,2.62,2.62,0,0,1,1.81-.62A2.57,2.57,0,0,1,155,335,2.16,2.16,0,0,1,155.73,336.67Zm-.48,4.08a1.68,1.68,0,0,0-.57-1.31,2.09,2.09,0,0,0-1.45-.51,2.13,2.13,0,0,0-1.45.5,1.71,1.71,0,0,0-.56,1.32,1.68,1.68,0,0,0,.54,1.3,2.49,2.49,0,0,0,2.94,0A1.62,1.62,0,0,0,155.25,340.75Zm-.22-4.08a1.64,1.64,0,0,0-.51-1.23,1.81,1.81,0,0,0-1.29-.48,1.77,1.77,0,0,0-1.29.47,1.62,1.62,0,0,0-.5,1.24,1.55,1.55,0,0,0,.5,1.2,1.8,1.8,0,0,0,1.29.46,1.85,1.85,0,0,0,1.3-.46A1.58,1.58,0,0,0,155,336.67Z"/><path class="cls-2" d="M161.73,339.06a2.7,2.7,0,0,1-.93.85,2.52,2.52,0,0,1-1.21.3,2.24,2.24,0,0,1-1.28-.37,2.45,2.45,0,0,1-.86-1,3.31,3.31,0,0,1-.31-1.45,3.5,3.5,0,0,1,.33-1.53,2.54,2.54,0,0,1,.91-1.08,2.32,2.32,0,0,1,1.34-.38,2.41,2.41,0,0,1,2,.9,4.05,4.05,0,0,1,.71,2.55v.63a5.28,5.28,0,0,1-1,3.47,3.75,3.75,0,0,1-3,1.16h-.13v-.61h.25a3.07,3.07,0,0,0,2.32-.87A3.7,3.7,0,0,0,161.73,339.06Zm-2,.54a2,2,0,0,0,1.26-.42,2.33,2.33,0,0,0,.8-1.08v-.4a3.3,3.3,0,0,0-.55-2,1.75,1.75,0,0,0-1.46-.71,1.65,1.65,0,0,0-1.36.67,2.57,2.57,0,0,0-.54,1.68,2.51,2.51,0,0,0,.52,1.63A1.62,1.62,0,0,0,159.68,339.6Z"/><path class="cls-2" d="M135.09,357.41v-8.54h2.52a3.24,3.24,0,0,1,2.08.57,2,2,0,0,1,.71,1.67,1.9,1.9,0,0,1-.36,1.15,1.94,1.94,0,0,1-1,.7,2,2,0,0,1,1.2.73,2.07,2.07,0,0,1,.46,1.31,2.23,2.23,0,0,1-.73,1.77,3,3,0,0,1-2,.64Zm.72-4.71h2a2.17,2.17,0,0,0,1.4-.43,1.69,1.69,0,0,0,0-2.4,2.55,2.55,0,0,0-1.55-.39h-1.8Zm0,.61v3.49H138a2.17,2.17,0,0,0,1.46-.47A1.66,1.66,0,0,0,140,355a1.61,1.61,0,0,0-.52-1.25,2.09,2.09,0,0,0-1.44-.46Z"/><path class="cls-2" d="M142.18,358.14h-.64l3.57-9.27h.63Z"/><path class="cls-2" d="M154,348.81v.61h-.08a3.21,3.21,0,0,0-2.41.9,3.72,3.72,0,0,0-1,2.5,2.4,2.4,0,0,1,.89-.75,2.73,2.73,0,0,1,1.22-.27,2.23,2.23,0,0,1,1.79.78,3,3,0,0,1,.67,2,3.59,3.59,0,0,1-.31,1.5,2.46,2.46,0,0,1-.89,1,2.4,2.4,0,0,1-1.33.37,2.48,2.48,0,0,1-2-.89,3.37,3.37,0,0,1-.77-2.29v-.7a5.44,5.44,0,0,1,1-3.55,3.72,3.72,0,0,1,3-1.28Zm-1.46,3.6a2.08,2.08,0,0,0-1.24.4,1.89,1.89,0,0,0-.78,1v.6a2.79,2.79,0,0,0,.58,1.81,1.81,1.81,0,0,0,1.48.7,1.61,1.61,0,0,0,1.33-.64,2.59,2.59,0,0,0,.51-1.64,2.46,2.46,0,0,0-.51-1.62A1.72,1.72,0,0,0,152.53,352.41Z"/><path class="cls-2" d="M160.88,353.46a2.7,2.7,0,0,1-.93.85,2.52,2.52,0,0,1-1.21.3,2.24,2.24,0,0,1-1.28-.37,2.45,2.45,0,0,1-.86-1,3.34,3.34,0,0,1-.31-1.45,3.5,3.5,0,0,1,.33-1.53,2.49,2.49,0,0,1,.91-1.08,2.32,2.32,0,0,1,1.34-.38,2.41,2.41,0,0,1,2,.9,4.05,4.05,0,0,1,.71,2.55v.63a5.28,5.28,0,0,1-1,3.47,3.75,3.75,0,0,1-3,1.16h-.13v-.61h.25A3.09,3.09,0,0,0,160,356,3.72,3.72,0,0,0,160.88,353.46Zm-2,.54a2,2,0,0,0,1.26-.42,2.33,2.33,0,0,0,.8-1.08v-.4a3.24,3.24,0,0,0-.55-2,1.74,1.74,0,0,0-1.46-.71,1.65,1.65,0,0,0-1.36.67,2.57,2.57,0,0,0-.54,1.68,2.51,2.51,0,0,0,.52,1.63A1.62,1.62,0,0,0,158.83,354Z"/><path class="cls-2" d="M138.43,369.4h-1.84l-.45,2.41h-.58l.45-2.41h-1.5v-.54h1.6l.48-2.59H135v-.56h1.74l.46-2.44h.58l-.46,2.44h1.84l.47-2.44h.58l-.46,2.44h1.34v.56H139.6l-.48,2.59h1.49v.54H139l-.45,2.41H138Zm-1.74-.54h1.84l.49-2.59h-1.85Z"/><path class="cls-2" d="M142.07,371.81v-8.54h2.39a3.7,3.7,0,0,1,1.88.48,3.35,3.35,0,0,1,1.29,1.37,4.19,4.19,0,0,1,.47,2v.78a4.31,4.31,0,0,1-.46,2,3.39,3.39,0,0,1-1.31,1.37,3.81,3.81,0,0,1-1.93.48Zm.72-7.93v7.32h1.62a2.76,2.76,0,0,0,2.16-.9,3.46,3.46,0,0,0,.82-2.42v-.75a3.34,3.34,0,0,0-.81-2.35,2.72,2.72,0,0,0-2.11-.9Z"/><path class="cls-2" d="M151.21,367.16h.73A2.46,2.46,0,0,0,153,367a1.67,1.67,0,0,0,.69-.59,1.54,1.54,0,0,0,.24-.86,1.76,1.76,0,0,0-.46-1.28,1.81,1.81,0,0,0-1.33-.47,1.93,1.93,0,0,0-1.35.49,1.64,1.64,0,0,0-.52,1.27h-.71a2.33,2.33,0,0,1,.34-1.21,2.27,2.27,0,0,1,.92-.84,2.91,2.91,0,0,1,1.32-.3,2.53,2.53,0,0,1,1.82.63,2.25,2.25,0,0,1,.67,1.73,1.87,1.87,0,0,1-.39,1.14,2.32,2.32,0,0,1-1.07.77,2.22,2.22,0,0,1,1.21.77,2.09,2.09,0,0,1,.41,1.29,2.3,2.3,0,0,1-.71,1.76,2.68,2.68,0,0,1-1.91.67,3.23,3.23,0,0,1-1.4-.3,2.25,2.25,0,0,1-1.34-2.13h.71a1.71,1.71,0,0,0,.57,1.33,2.1,2.1,0,0,0,1.46.51,2,2,0,0,0,1.41-.46,1.77,1.77,0,0,0,.51-1.36,1.6,1.6,0,0,0-.55-1.3,2.49,2.49,0,0,0-1.61-.45h-.71Z"/><path class="cls-2" d="M156.78,367.43l.41-4.16h4.27v.65H157.8l-.3,2.89a2.79,2.79,0,0,1,1.6-.47,2.36,2.36,0,0,1,1.84.75,2.83,2.83,0,0,1,.69,2,3,3,0,0,1-.67,2.09,2.4,2.4,0,0,1-1.88.74,2.56,2.56,0,0,1-1.8-.62,2.5,2.5,0,0,1-.79-1.74h.67a2,2,0,0,0,.59,1.32,1.9,1.9,0,0,0,1.33.45,1.65,1.65,0,0,0,1.38-.58,2.59,2.59,0,0,0,.47-1.65,2.25,2.25,0,0,0-.52-1.53A1.8,1.8,0,0,0,159,367a2.86,2.86,0,0,0-.87.12,2.67,2.67,0,0,0-.78.49Z"/><path class="cls-2" d="M167.33,367.86a2.7,2.7,0,0,1-.93.85,2.49,2.49,0,0,1-1.21.3,2.24,2.24,0,0,1-1.28-.37,2.45,2.45,0,0,1-.86-1,3.34,3.34,0,0,1-.31-1.45,3.5,3.5,0,0,1,.33-1.53,2.62,2.62,0,0,1,.91-1.08,2.63,2.63,0,0,1,3.34.52,4,4,0,0,1,.71,2.55v.63a5.22,5.22,0,0,1-1,3.47,3.75,3.75,0,0,1-3,1.16h-.12v-.61h.25a3.05,3.05,0,0,0,2.32-.87A3.7,3.7,0,0,0,167.33,367.86Zm-2.05.54a2,2,0,0,0,1.26-.42,2.22,2.22,0,0,0,.8-1.08v-.4a3.24,3.24,0,0,0-.55-2,1.74,1.74,0,0,0-1.46-.71,1.65,1.65,0,0,0-1.36.67,2.85,2.85,0,0,0,0,3.31A1.62,1.62,0,0,0,165.28,368.4Z"/><path class="cls-2" d="M173.91,369.06h1.33v.59h-1.33v2.16h-.7v-2.16h-4v-.4l3.95-6h.77Zm-3.85,0h3.15v-4.88l-.31.54Z"/><path class="cls-2" d="M176.73,367.43l.42-4.16h4.26v.65h-3.66l-.3,2.89a2.8,2.8,0,0,1,1.61-.47,2.37,2.37,0,0,1,1.84.75,2.87,2.87,0,0,1,.68,2,3,3,0,0,1-.67,2.09,2.4,2.4,0,0,1-1.88.74,2.56,2.56,0,0,1-1.8-.62,2.5,2.5,0,0,1-.79-1.74h.67a2,2,0,0,0,.59,1.32,1.9,1.9,0,0,0,1.33.45,1.65,1.65,0,0,0,1.38-.58,2.59,2.59,0,0,0,.47-1.65,2.25,2.25,0,0,0-.52-1.53,1.8,1.8,0,0,0-1.43-.59,2.75,2.75,0,0,0-.86.12,2.44,2.44,0,0,0-.78.49Z"/></svg>