<svg id="圖層_1" data-name="圖層 1" xmlns="http://www.w3.org/2000/svg" viewBox="0 0 274.5 70.26"><defs><style>.cls-1{fill:#da793a;}.cls-2{fill:#57c0d1;}</style></defs><title>Artboard 2</title><path class="cls-1" d="M88.1,27.85h2.54v.65a8.24,8.24,0,0,1,11.5.12A8.52,8.52,0,0,1,103.27,30a8.78,8.78,0,0,1,1.15-1.41,8.22,8.22,0,0,1,14,5.56V55.59h-2.54V34.18h0a5.7,5.7,0,0,0-9.73-3.75,5.6,5.6,0,0,0-1.68,4.15v21H102V34.18h0a5.7,5.7,0,0,0-5.7-5.42,5.42,5.42,0,0,0-4,1.67A5.49,5.49,0,0,0,90.64,34V55.59H88.1Z"/><path class="cls-1" d="M132.22,50.4a12.22,12.22,0,0,0,8.53,3.27,12.35,12.35,0,0,0,9.07-3.76c.32-.32.62-.64.9-1l2.68,1a17.52,17.52,0,0,1-1.66,2,15.53,15.53,0,0,1-26.5-11,15.55,15.55,0,0,1,25.14-12.2c.45.37.9.79,1.36,1.24.17.17.32.34.48.51l-1.92,1.92Zm16.21-19.81A12.82,12.82,0,0,0,128,40.85a12.26,12.26,0,0,0,2.54,7.68Z"/><path class="cls-1" d="M190.12,55.59h-2.54V49.94a20.49,20.49,0,0,1-1.61,1.9,15.52,15.52,0,0,1-26.49-11,15.51,15.51,0,0,1,26.49-11,19.15,19.15,0,0,1,1.61,1.89V10.4h2.54Zm-2.54-12.2v-5a12.83,12.83,0,1,0-21.66,11.57,12.87,12.87,0,0,0,21.66-6.54Z"/><path class="cls-1" d="M228.54,55.59H226V49.94a19.17,19.17,0,0,1-1.62,1.9,15.52,15.52,0,0,1-26.49-11,15.51,15.51,0,0,1,26.49-11A18,18,0,0,1,226,31.78V10.4h2.54ZM226,43.39v-5a12.84,12.84,0,1,0-21.67,11.57A12.89,12.89,0,0,0,226,43.39Z"/><path class="cls-1" d="M239.55,10.4V55.59H237V10.4Z"/><path class="cls-1" d="M253.31,50.4a12.22,12.22,0,0,0,8.53,3.27,12.35,12.35,0,0,0,9.07-3.76c.32-.32.62-.64.9-1l2.69,1a17.63,17.63,0,0,1-1.67,2,15.53,15.53,0,0,1-26.5-11,15.55,15.55,0,0,1,25.14-12.2c.45.37.91.79,1.36,1.24q.26.25.48.51l-1.92,1.92Zm16.21-19.81A12.82,12.82,0,0,0,249,40.85a12.2,12.2,0,0,0,2.55,7.68Z"/><polygon class="cls-2" points="67.13 25.12 67.13 33.72 38.5 33.72 58.75 13.48 64.83 19.56 67 17.39 52.83 3.22 50.66 5.39 56.75 11.48 36.51 31.72 36.51 3.06 45.12 3.06 45.12 0 25.07 0 25.07 3.06 33.69 3.06 33.69 31.72 13.43 11.46 19.51 5.38 17.34 3.22 3.17 17.39 5.34 19.55 11.43 13.46 31.69 33.72 3.06 33.72 3.06 25.12 0 25.12 0 45.16 3.06 45.16 3.06 36.54 31.69 36.54 11.42 56.81 5.33 50.72 3.17 52.88 17.34 67.06 19.5 64.89 13.42 58.8 33.69 38.54 33.69 67.19 25.05 67.19 25.05 70.26 45.09 70.26 45.09 67.19 36.51 67.19 36.51 38.54 56.76 58.78 50.67 64.88 52.83 67.04 67 52.87 64.84 50.7 58.75 56.79 38.51 36.54 67.13 36.54 67.13 45.16 70.19 45.16 70.19 25.12 67.13 25.12"/></svg>