<svg xmlns="http://www.w3.org/2000/svg" xmlns:xlink="http://www.w3.org/1999/xlink" viewBox="0 0 1000 400"><defs><style>.cls-1,.cls-10,.cls-29,.cls-30,.cls-31,.cls-34,.cls-46,.cls-61,.cls-74{fill:none;}.cls-2{fill:#39221e;}.cls-3{fill:#fff;}.cls-4{fill:#9e6536;}.cls-5,.cls-72,.cls-74{mix-blend-mode:darken;}.cls-6,.cls-7,.cls-72,.cls-8{fill:#361a18;}.cls-19,.cls-20,.cls-29,.cls-46,.cls-47,.cls-6,.cls-61{opacity:0.5;}.cls-7{opacity:0.25;}.cls-9{fill:#fffbf6;}.cls-10{stroke:#fffbf6;}.cls-10,.cls-29,.cls-30,.cls-31,.cls-34,.cls-46,.cls-61,.cls-75{stroke-miterlimit:10;}.Anon-2380{fill:#cc4924;}.cls-11{fill:#1dad3b;}.cls-12{fill:#3b4b5a;}.cls-13,.cls-22{fill:#351815;}.cls-14{fill:#916541;}.Anon-2315,.cls-39{fill:#4d2818;}.cls-15,.cls-20{fill:#006a78;}.cls-16{fill:#f57e20;}.cls-17,.cls-42{fill:#f0b36e;}.Anon-2314{fill:#33b7ba;}.cls-18{fill:#f5d3a4;}.Anon-2413{fill:#a12b1f;}.Anon-2414{fill:#3e8a4e;}.cls-21{fill:#3bc0c8;}.cls-22{opacity:0.15;}.cls-23{fill:#efc46f;}.cls-24{fill:#141210;}.cls-25{fill:#361a17;}.cls-26{fill:#f1c985;}.cls-27{fill:#eec156;}.cls-28{fill:#7e422b;}.cls-29,.cls-30{stroke:#006a78;}.cls-31{stroke:#bf8647;}.cls-32{fill:#bf8647;}.cls-33{fill:#9e8233;}.cls-34{stroke:#ffd69e;}.cls-35{fill:#dba86f;}.cls-36,.cls-43{fill:#6c4435;}.cls-37,.cls-47{fill:#7e422c;}.cls-38{isolation:isolate;}.cls-39,.cls-42,.cls-43{opacity:0.1;}.cls-40{fill:#99dbdd;}.cls-41{fill:#dca970;}.cls-44{clip-path:url(#clip-path);}.cls-45{clip-path:url(#clip-path-2);}.cls-46{stroke:#7e422c;}.cls-46,.cls-61{stroke-linecap:round;}.cls-48{clip-path:url(#clip-path-3);}.cls-49{clip-path:url(#clip-path-4);}.cls-50{clip-path:url(#clip-path-5);}.cls-51{clip-path:url(#clip-path-6);}.cls-52{clip-path:url(#clip-path-7);}.cls-53{clip-path:url(#clip-path-8);}.cls-54{clip-path:url(#clip-path-11);}.cls-55{clip-path:url(#clip-path-12);}.cls-56{fill:#c7491c;}.cls-57{fill:#fcca79;}.cls-58{clip-path:url(#clip-path-13);}.cls-59{clip-path:url(#clip-path-14);}.cls-60{fill:#029bc9;}.cls-61{stroke:#361a18;}.cls-62,.cls-75{fill:#fff9f5;}.cls-63{fill:#61c3cd;}.cls-64{fill:#eb472f;}.cls-65{fill:#ffd69e;}.cls-66{clip-path:url(#clip-path-15);}.cls-67{clip-path:url(#clip-path-16);}.cls-68{fill:#2f683b;}.cls-69{fill:#65a171;}.cls-70{fill:#b4554c;}.cls-71{fill:#dead23;}.cls-72,.cls-74{opacity:0.05;}.cls-73{fill:#9e6535;}.cls-75{stroke:#61c3cd;}.cls-76{fill:#edc687;}</style><clipPath id="clip-path"><ellipse class="cls-1" cx="497.86" cy="264.29" rx="4.95" ry="4.92"/></clipPath><clipPath id="clip-path-2"><ellipse class="cls-1" cx="509.91" cy="264.38" rx="4.95" ry="4.92"/></clipPath><clipPath id="clip-path-3"><ellipse class="cls-1" cx="568.08" cy="263.18" rx="5.12" ry="5.09"/></clipPath><clipPath id="clip-path-4"><ellipse class="cls-1" cx="580.55" cy="263.28" rx="5.12" ry="5.09"/></clipPath><clipPath id="clip-path-5"><ellipse class="cls-1" cx="604.77" cy="260.51" rx="5.12" ry="5.09"/></clipPath><clipPath id="clip-path-6"><ellipse class="cls-1" cx="617.24" cy="260.61" rx="5.12" ry="5.09"/></clipPath><clipPath id="clip-path-7"><circle class="cls-1" cx="426.18" cy="262.38" r="5.08"/></clipPath><clipPath id="clip-path-8"><circle class="cls-1" cx="438.55" cy="262.48" r="5.08"/></clipPath><clipPath id="clip-path-11"><circle class="cls-1" cx="677.94" cy="261.65" r="4.88"/></clipPath><clipPath id="clip-path-12"><circle class="cls-1" cx="689.83" cy="261.74" r="4.88"/></clipPath><clipPath id="clip-path-13"><circle class="cls-1" cx="315.52" cy="260.14" r="5.24"/></clipPath><clipPath id="clip-path-14"><circle class="cls-1" cx="328.27" cy="260.24" r="5.24"/></clipPath><clipPath id="clip-path-15"><circle class="cls-1" cx="348.72" cy="313.34" r="2.59"/></clipPath><clipPath id="clip-path-16"><circle class="cls-1" cx="355.02" cy="313.39" r="2.59"/></clipPath><symbol id="Meddle_Logo_4" data-name="Meddle_Logo 4" viewBox="0 0 70.25 70.03"><g id="Back"><path class="cls-16" d="M27.28,3.66C33.5,4.18,35.2,8.8,35.2,8.8s1.35-4.63,7.91-5.14a1,1,0,0,0,.88-1L44.2,1c0-.54-.64.6-1.18.6H27.39c-.54,0-1.18-1.14-1.18-.6l.21,1.69A1,1,0,0,0,27.28,3.66Z"/><path class="cls-16" d="M67.71,25.75c-.27,0-.93,1.1-.93,1.37v.36a6.9,6.9,0,0,1-6.9,6.9H39.29a.49.49,0,0,1-.34-.84L53.57,18.92a6.89,6.89,0,0,1,9.76,0l.25.25a.49.49,0,0,0,.69,0l1.06-1.06c.19-.19,1-1.39.79-1.58L53.32,5.41a2.07,2.07,0,0,0-1.5-.14l-.26,1.21s-.18.51,0,.7a7,7,0,0,1,.15,10.07l-16.1,16.1a.74.74,0,0,1-1,0l-16.1-16.1a7,7,0,0,1,.15-10.07c.21-.19,0-.7,0-.7l-.26-1.29c-.19-.19-1.31,0-1.5.22L4.11,16.58c-.19.19.62,1.34.81,1.53L6,19.17a.49.49,0,0,0,.69,0l.25-.25a6.89,6.89,0,0,1,9.76,0L31.3,33.54a.49.49,0,0,1-.34.84H10.37a6.89,6.89,0,0,1-6.89-6.9v-.36a7.23,7.23,0,0,0-1-1.5C2.13,25.62.9,27,.9,27.37L.11,43.57c0,.4,1,.73,1.42.73H3a.49.49,0,0,0,.49-.49v-.28a6.89,6.89,0,0,1,6.87-6.9l20.59-.07a.49.49,0,0,1,.35.83L16.53,51.94a6.89,6.89,0,0,1-9.67,0h0a1.14,1.14,0,0,0-1.33-.15l-.42.86a.75.75,0,0,0,0,1l11.46,12c.28.29.86,0,1.14-.28l1-1a.49.49,0,0,0,0-.69l-.25-.25a6.9,6.9,0,0,1,0-9.75L33,39.17a.49.49,0,0,1,.84.35l-.13,20.69a7.16,7.16,0,0,1-6.89,7.16h-.21a.89.89,0,0,0-.67.52l.19,1.36a.49.49,0,0,0,.48.49h17a.48.48,0,0,0,.48-.49l.19-1.36a.78.78,0,0,0-.67-.52h-.21a7.16,7.16,0,0,1-6.89-7.16l-.13-20.69a.49.49,0,0,1,.84-.35l14.59,14.6a6.88,6.88,0,0,1,0,9.75l-.25.25a.49.49,0,0,0,0,.69l1.14,1.28c.28.29,1.13.05,1.13.05l11.32-12.1c.28-.29-.42-2-.42-2-.29-.29-1,0-1.33.3h0a6.89,6.89,0,0,1-9.67,0L39,37.39a.48.48,0,0,1,.34-.83l20.59.07a6.9,6.9,0,0,1,6.88,6.9v.28a.48.48,0,0,0,.48.49h1.46c.4,0,1.47-.33,1.47-.73l-.84-16.2C69.35,27,67.71,25.75,67.71,25.75Z"/></g><g id="Front"><path class="cls-21" d="M27.1,2.1c6.36.54,8.1,5.27,8.1,5.27s1.38-4.74,8.09-5.27a1,1,0,0,0,.91-1V1a1,1,0,0,0-1-1h-16a1,1,0,0,0-1,1v.12A1,1,0,0,0,27.1,2.1Z"/><path class="cls-21" d="M69.4,25.62H68a.5.5,0,0,0-.5.5v.36a7.06,7.06,0,0,1-7.06,7.06H39.39a.49.49,0,0,1-.35-.85l15-15a7,7,0,0,1,10,0l.25.26A.51.51,0,0,0,65,18L66,16.89a.5.5,0,0,0,0-.7L53.75,3.9a.5.5,0,0,0-.71,0L52,5a.5.5,0,0,0,0,.72A7.18,7.18,0,0,1,52.13,16L35.65,32.49a.74.74,0,0,1-1,0L18.12,16a7.18,7.18,0,0,1,.16-10.3.49.49,0,0,0,0-.72L17.21,3.9a.5.5,0,0,0-.71,0L4.21,16.19a.5.5,0,0,0,0,.7L5.3,18A.51.51,0,0,0,6,18l.25-.26a7,7,0,0,1,10,0l15,15a.49.49,0,0,1-.35.85H9.79a7.06,7.06,0,0,1-7.06-7.06v-.36a.49.49,0,0,0-.49-.5H.85a.75.75,0,0,0-.75.75L0,43.25A.75.75,0,0,0,.75,44H2.24a.5.5,0,0,0,.49-.5v-.29a7.07,7.07,0,0,1,7-7.06l21.07-.07a.5.5,0,0,1,.36.85L16.09,51.82a7.05,7.05,0,0,1-9.89,0h0a.74.74,0,0,0-1.06,0l-.73.73a.75.75,0,0,0,0,1.06l11.84,12a.73.73,0,0,0,1.05,0l1-1a.5.5,0,0,0,0-.7L18,63.67a7,7,0,0,1,0-10L33,38.75a.5.5,0,0,1,.85.36L33.7,60.28a7.06,7.06,0,0,1-7.06,7h-.2a.5.5,0,0,0-.5.5v1.74a.49.49,0,0,0,.5.49H43.82a.49.49,0,0,0,.49-.49V67.8a.49.49,0,0,0-.49-.5h-.21a7.06,7.06,0,0,1-7.06-7l-.13-21.17a.51.51,0,0,1,.86-.36L52.21,53.69a7,7,0,0,1,0,10l-.25.26a.48.48,0,0,0,0,.7l1,1a.73.73,0,0,0,1.05,0l11.84-12a.75.75,0,0,0,0-1.06l-.73-.73a.74.74,0,0,0-1.06,0h0a7.05,7.05,0,0,1-9.89,0L39.06,36.93a.49.49,0,0,1,.35-.85l21.07.07a7.07,7.07,0,0,1,7,7.06v.29a.5.5,0,0,0,.5.5H69.5a.75.75,0,0,0,.75-.75l-.1-16.88A.75.75,0,0,0,69.4,25.62Z"/></g></symbol><symbol id="Paris_4" data-name="Paris 4" viewBox="0 0 388.79 310.87"><g id="Paris" class="cls-19"><polygon class="cls-30" points="57.1 79.08 38.73 79.08 32.73 64.4 32.73 49.71 62.1 49.71 62.1 64.4 57.1 79.08"/><rect class="cls-30" x="36.9" y="40.5" width="22.04" height="13.01"/><rect class="cls-30" x="45.96" y="0.5" width="4.46" height="43.49"/><path class="cls-30" d="M21.07,305.72s7-35.66,31.12-35.66,35.23,38.53,35.23,38.53l6.84-17L71.74,279.74,85.14,261H65.49l22.73,11.24-7.55,20.34,19.92,16.16s-13.84-32.07-23.66-84.47S54.1,79.09,54.1,79.09l-14,12.37L57.71,104.2,36,126.17H62.1L39,105.83,55.73,90.48,41,78.15s-6.32,93.68-16.14,146.09S1.18,308.73,1.18,308.73l25.16-18.35L13.05,273.89l24.29-13.23H16.69l16,19.47L8.27,289.5Z"/><rect class="cls-30" x="9.18" y="242.44" width="80.99" height="18.22"/><polygon class="cls-30" points="42.96 191.28 37.34 242.46 65.49 242.46 58.93 191.28 42.96 191.28"/><rect class="cls-30" x="24.82" y="185.19" width="52.53" height="6.09"/><rect class="cls-30" x="35.96" y="126.17" width="26.14" height="3.33"/><polyline class="cls-30" points="35.96 129.5 63.13 140.58 62.1 129.5 35.62 141.45 65.49 159.78 63.13 140.58 33.73 159.78 70.16 185.19 65.49 159.78 30.75 185.19"/><polyline class="cls-30" points="71.16 191.28 62.1 208.38 76.33 221.38 65.49 242.46 80.67 242.46 63.27 223.5 74.48 205.95 58.93 191.28"/><polyline class="cls-30" points="42.96 191.28 27.94 205.53 39.34 224.24 21.07 242.44 37.34 242.46 24.82 224.24 41.41 205.42 29.95 191.28"/><polyline class="cls-30" points="107.6 308.59 107.6 232.62 133.17 207.16 208.63 207.75 209.58 232.62 102.59 232.62 102.59 227.95 214.16 227.95"/><polygon class="cls-30" points="122.99 261.99 152.73 261.99 152.73 272.21 122.99 271.87 122.99 261.99"/><polyline class="cls-30" points="128.93 268.35 128.93 249.17 147.93 249.17 147.93 268.09"/><polygon class="cls-30" points="128.93 221.41 138.43 210.83 146.47 221.41 128.93 221.41"/><rect class="cls-30" x="230.25" y="143.68" width="152.99" height="20.52"/><path class="cls-30" d="M285.92,310.87V224.52A24.52,24.52,0,0,1,310.44,200h0A24.51,24.51,0,0,1,335,224.52v86.35"/><rect class="cls-30" x="223.87" y="162.37" width="164.19" height="12.29"/><line class="cls-30" x1="285.92" y1="193.27" x2="285.92" y2="310.87"/><line class="cls-30" x1="236.9" y1="310.87" x2="236.9" y2="193.27"/><polyline class="cls-30" points="380.34 310.87 380.34 194.94 334.95 194.94 334.95 310.87"/><rect class="cls-30" x="243.14" y="205.91" width="32.54" height="18"/><rect class="cls-30" x="341.69" y="202.64" width="33.44" height="21.27"/><rect class="cls-30" x="256.28" y="246.19" width="11.5" height="33.22"/><rect class="cls-30" x="349.98" y="246.19" width="10.86" height="32.28"/><rect class="cls-30" x="223.87" y="162.37" width="164.19" height="13.21"/><rect class="cls-30" x="233.71" y="229.3" width="54.15" height="3.32"/><rect class="cls-30" x="333.63" y="229.3" width="49.61" height="3.32"/><rect class="cls-30" x="227.46" y="148.02" width="158.41" height="2.49"/><circle class="cls-30" cx="241.49" cy="157.17" r="3.23"/><circle class="cls-30" cx="251.66" cy="157.17" r="3.23"/><circle class="cls-30" cx="261.82" cy="157.17" r="3.23"/><circle class="cls-30" cx="271.98" cy="157.17" r="3.23"/><circle class="cls-30" cx="282.15" cy="157.17" r="3.23"/><circle class="cls-30" cx="292.31" cy="157.17" r="3.23"/><circle class="cls-30" cx="302.48" cy="157.17" r="3.23"/><circle class="cls-30" cx="312.64" cy="157.17" r="3.23"/><circle class="cls-30" cx="322.8" cy="157.17" r="3.23"/><circle class="cls-30" cx="332.97" cy="157.17" r="3.23"/><circle class="cls-30" cx="343.13" cy="157.17" r="3.23"/><circle class="cls-30" cx="353.29" cy="157.17" r="3.23"/><circle class="cls-30" cx="363.46" cy="157.17" r="3.23"/><circle class="cls-30" cx="373.62" cy="157.17" r="3.23"/><polygon class="cls-30" points="223.87 174.66 388.06 175.58 380.34 194.94 236.9 194.94 223.87 174.66"/></g></symbol><symbol id="Character-2" data-name="Character" viewBox="0 0 243.82 483.31"><g id="Character-4" data-name="Character"><path class="Anon-2315" d="M243.82,152.64a19,19,0,0,0-.17-2.4,19.12,19.12,0,0,0,.17-2.41,17.86,17.86,0,0,0-7.24-14.55,22.09,22.09,0,0,0,.61-5.05,21.43,21.43,0,0,0-2.23-9.57,16.72,16.72,0,0,0,4.5-11.53,16.28,16.28,0,0,0-8.37-14.47,17.14,17.14,0,0,0,1.4-6.79c0-8.93-6.72-16.16-15-16.16-.38,0-.75,0-1.12.06,0-.37.05-.74.05-1.12,0-9-6.75-16.23-15.09-16.23a14.83,14.83,0,0,0-12.47,7.1,31.49,31.49,0,0,0-3.55-1.46c-1.87-7-7.87-12.17-15-12.17a14.57,14.57,0,0,0-3.32.39c-1.75-7.23-7.84-12.57-15.1-12.57a15.29,15.29,0,0,0-12.6,6.89,31,31,0,0,0-7.93-1,30.61,30.61,0,0,0-11.18,2.11c-3.36-7-11.77-12-21.62-12C87.62,29.64,78.46,35.77,76,44a30.77,30.77,0,0,0-19.51-7C39.1,37,25,51.55,25,69.48c0,1.13.06,2.25.17,3.36C15.55,72.9,7.77,81.3,7.77,91.66a20,20,0,0,0,1,6.14A20.73,20.73,0,0,0,0,114.94a21.26,21.26,0,0,0,4.36,13,21.58,21.58,0,0,0-2,9.06,21.18,21.18,0,0,0,4.56,13.24,21.15,21.15,0,0,0-4.56,13.23A21.82,21.82,0,0,0,3,168.75,21.67,21.67,0,0,0,2.37,174c0,.52,0,1,.07,1.54a21.58,21.58,0,0,0,.36,20.6,22,22,0,0,0-.43,4.33,21.58,21.58,0,0,0,2,9.06,21.26,21.26,0,0,0-4.36,13,20.73,20.73,0,0,0,8.74,17.14,20,20,0,0,0-1,6.14c0,10.36,7.78,18.76,17.41,18.83-.11,1.1-.17,2.22-.17,3.36,0,17.92,14.09,32.45,31.48,32.45a30.72,30.72,0,0,0,19.51-7c2.46,8.25,11.62,14.38,22.54,14.38,9.85,0,18.26-5,21.62-12a30.71,30.71,0,0,0,19.11,1.07,15.29,15.29,0,0,0,12.6,6.89c7.26,0,13.35-5.34,15.1-12.56a14.57,14.57,0,0,0,3.32.38c7.13,0,13.13-5.14,15-12.17a29.73,29.73,0,0,0,3.55-1.46,14.81,14.81,0,0,0,12.47,7.1c8.34,0,15.09-7.26,15.09-16.23,0-.37,0-.74-.05-1.12.37,0,.74.06,1.12.06,8.3,0,15-7.23,15-16.16a17.14,17.14,0,0,0-1.4-6.79,16.28,16.28,0,0,0,8.37-14.47,16.69,16.69,0,0,0-4.5-11.52,21.46,21.46,0,0,0,2.23-9.57,22.11,22.11,0,0,0-.61-5.06,17.85,17.85,0,0,0,7.24-14.55,19.12,19.12,0,0,0-.17-2.41,18.83,18.83,0,0,0,.17-2.4,17.91,17.91,0,0,0-6.7-14.13,22.46,22.46,0,0,0-.54-3.52A17.88,17.88,0,0,0,243.82,152.64Z"/><path class="cls-8" d="M90.94,347c0-15.7,13.68-28.42,30.51-28.42S152,331.28,152,347c0,2.38.88,4.54.69,6.53l.58,60.16.41,43.65c.4,5.7,1.23,12.56-4.51,12.95l-3.49.24c-5.74.39-10.76-5.9-11.15-11.6l-1.19-44.56-4.58-39c-2.33.09-4.77.09-7.27.09-2.09,0-4.13,0-6.1-.05l-2.16,39.9-.3,43.42c0,5.71-2.25,9.85-8,9.85h-3.5c-5.75,0-8.26-4.14-8.26-9.85,0,0,.53-19.29-.46-43.39s-3.5-53-1.73-68.42Z"/><g id="Shoes"><path class="cls-15" d="M132.73,480.57c1.86,1.85,8.84,2.45,8.84,2.45h17.26s12.26-.66,16.21-1.64c14-3.44,15.36-14.77,15.36-14.77-6.7-4.55-12.82-2.56-21.4-2.6-3.85,0-15.86-5.39-18.82-1.67-11.31,14.17-15.56-2.61-15.56-2.61.38,0-3.61,2.62-3.61,7C131,466.73,129.83,477.69,132.73,480.57Z"/><path class="cls-16" d="M132.73,480.57c1.86,1.85,8.84,2.45,8.84,2.45h17.26s12.26-.66,16.21-1.64c14-3.44,15.36-14.77,15.36-14.77-6.7-4.55-11.65,5.53-19.11,9.74-4.74,2.67-15,.37-19.77.81-12.26,1.14-20.67-7.38-20.67-3A6.83,6.83,0,0,0,132.73,480.57Z"/><path class="cls-9" d="M141.57,483.31c-.32,0-7.13-.63-9-2.54a7.06,7.06,0,0,1-2-6.65,1.47,1.47,0,0,1,.55-1.3c.82-.55,2.38.07,4.74,1,3.62,1.45,9.09,3.64,15.64,3a43.75,43.75,0,0,1,6.35.2c4.8.35,10.25.75,13.3-1a37.14,37.14,0,0,0,6.77-5.41c4.12-3.84,8-7.47,12.66-4.32l.14.1,0,.17c0,.12-1.6,11.57-15.58,15-3.93,1-15.77,1.62-16.27,1.65Zm-9.67-10.12a.84.84,0,0,0-.47.11c-.19.13-.28.41-.28.86l0,.08a6.59,6.59,0,0,0,1.8,6.12c1.78,1.76,8.59,2.36,8.66,2.37h17.24c.1,0,12.26-.67,16.14-1.63,7.11-1.75,10.85-5.62,12.74-8.55a16.8,16.8,0,0,0,2.38-5.81c-4.19-2.7-7.71.58-11.78,4.37a37.62,37.62,0,0,1-6.88,5.49c-3.21,1.81-8.75,1.4-13.64,1a43.74,43.74,0,0,0-6.25-.19c-6.69.62-12.23-1.6-15.9-3.07A13.74,13.74,0,0,0,131.9,473.19Z"/><path class="cls-15" d="M95.09,458.76h14.39c8.58,0,8.31,6.69,13.63,15.5h0c0,4.83-2,8.76-6.85,8.76H88.31c-4.87,0-6.86-3.93-6.86-8.76h0C86.75,465.45,86.51,458.76,95.09,458.76Z"/></g><g id="Shoes-2" data-name="Shoes"><path class="cls-16" d="M123.11,474.26h0c0,4.83-2,8.76-6.85,8.76H88.31c-4.87,0-6.86-3.93-6.86-8.76h0c9.87-1.81,11.34-8.21,19.84-8.21S113.38,474.89,123.11,474.26Z"/><path class="cls-9" d="M116.26,483.31H88.31c-4.54,0-7.15-3.3-7.15-9.05V474l.24,0a23.5,23.5,0,0,0,10-4.51c2.77-1.9,5.38-3.7,9.89-3.7,4.1,0,7.14,2.05,10.07,4,3.29,2.21,6.7,4.5,11.74,4.18l.31,0v.31C123.41,480,120.8,483.31,116.26,483.31ZM81.75,474.5c0,2.66.81,8.23,6.56,8.23h28c5.7,0,6.51-5.48,6.56-8.17-5.07.23-8.48-2.07-11.78-4.29-3-2-5.83-3.93-9.75-3.93-4.33,0-6.75,1.67-9.56,3.6A24.63,24.63,0,0,1,81.75,474.5Z"/></g><path class="cls-9" d="M153.89,466.26l-.5-.29c0-.05,3.12-5.29,8.19-4l-.15.56C156.8,461.35,153.92,466.21,153.89,466.26Z"/><path class="cls-9" d="M157.2,467.12l-.5-.29c0-.05,3.12-5.29,8.19-3.95l-.15.56C160.1,462.2,157.23,467.07,157.2,467.12Z"/><path class="cls-9" d="M161.14,468l-.51-.29c0-.05,3.13-5.29,8.19-3.95l-.15.56C164,463.12,161.16,468,161.14,468Z"/><path class="cls-9" d="M111.26,464.38c-.12,0-12.4-3.41-16.15-.3l-.38-.45c4-3.29,16.17.05,16.69.2Z"/><path class="cls-9" d="M111.23,462.36c-.11-.05-10.72-4.41-16.17-1.35l-.28-.5c5.69-3.2,16.23,1.13,16.67,1.31Z"/><path class="cls-17" d="M196.27,109.89V82.65c0-40.46-33.32-73.57-74-73.57h0c-40.72,0-74,33.11-74,73.57v27.22A26.29,26.29,0,0,0,51.55,162a74.33,74.33,0,0,0,59.59,50.91v47.67c0,4.5,7,8.19,10.8,8.19s10.8-3.69,10.8-8.19V213a74.33,74.33,0,0,0,60.19-51,26.28,26.28,0,0,0,3.34-52.1Z"/><g class="cls-5"><path class="cls-6" d="M122.24,213.75h0a73.79,73.79,0,0,1-11.1-.84v18.63c6-13.25,18.19-15.27,21.18-18.48A74.52,74.52,0,0,1,122.24,213.75Z"/><path class="cls-7" d="M196.18,140.19v-25a21,21,0,0,1-1.89,41.33A72.54,72.54,0,0,0,196.18,140.19Z"/><path class="cls-7" d="M48.21,140.19v-25a21,21,0,0,0,1.88,41.33A72.54,72.54,0,0,1,48.21,140.19Z"/><ellipse class="cls-6" cx="121.94" cy="137.75" rx="10.8" ry="4.24"/></g><path id="Shirt" class="Anon-2314" d="M156.41,347H89.17s6.15-34.22,5.86-45.79c-.42-16.61-6-27.57-7.16-48.58-.14-2.72-1.07-22.17,1.67-22.17h21.39c0,10.73,9.88,27.27,9.88,27.27s11.43-16.54,11.86-27.27h19.89c2.36,0,.87,19.82.76,22.17,0,0-6.32,31.84-5.53,48.58C148.34,312.89,156.41,347,156.41,347Z"/><path class="Anon-2315" d="M108.46,17.42c-5.73,17.69,7.75,28.05,45.32,47.75s44.83,73.84,49.41,69.48S226.56,65.74,187.53,32.2,118.18-12.59,108.46,17.42Z"/><path class="Anon-2315" d="M51.25,119.18s-21.42-46.05-6-70.49S78.15,7.05,108.46,6.05c13.35-.44-6.3,58.8-37.76,63.1C58.9,70.77,50.1,88.48,51.25,119.18Z"/></g></symbol><symbol id="Seattle_2" data-name="Seattle 2" viewBox="0 0 582.4 331.66"><g id="Seattle" class="cls-19"><polyline class="cls-30" points="468.73 325.8 468.73 151.23 431.24 113.22 387.3 151.23 387.3 325.8"/><polyline class="cls-30" points="518.76 125.85 478.05 125.85 478.05 326.52"/><polyline class="cls-30" points="559.48 326.52 559.48 125.85 552.3 125.85"/><polyline class="cls-30" points="385.78 325.8 385.78 137.93 309.45 137.93"/><polyline class="cls-30" points="307.54 325.8 307.54 113.84 229.71 113.84"/><polyline class="cls-30" points="81.93 241.78 0.5 241.78 0.5 324.41"/><polyline class="cls-30" points="162.77 325.8 162.41 187.66 124.12 157.76 80.98 187.66 81.34 325.8"/><polyline class="cls-30" points="226.39 331.65 225.87 96.42 144.44 96.42 144.59 163.47"/><line class="cls-30" x1="490.2" y1="121.38" x2="517.2" y2="97.38"/><line class="cls-30" x1="483" y1="155.58" x2="520.8" y2="155.58"/><line class="cls-30" x1="483" y1="178.85" x2="520.8" y2="178.85"/><line class="cls-30" x1="483" y1="202.11" x2="520.8" y2="202.11"/><line class="cls-30" x1="483" y1="225.38" x2="520.8" y2="225.38"/><line class="cls-30" x1="483" y1="248.64" x2="520.8" y2="248.64"/><line class="cls-30" x1="483" y1="271.91" x2="520.8" y2="271.91"/><line class="cls-30" x1="89.92" y1="190.76" x2="153.37" y2="190.76"/><line class="cls-30" x1="89.92" y1="214.03" x2="153.37" y2="214.03"/><line class="cls-30" x1="89.92" y1="237.29" x2="153.37" y2="237.29"/><line class="cls-30" x1="89.92" y1="260.56" x2="153.37" y2="260.56"/><line class="cls-30" x1="89.92" y1="283.82" x2="153.37" y2="283.82"/><line class="cls-30" x1="89.92" y1="307.09" x2="153.37" y2="307.09"/><polyline class="cls-30" points="29.17 316.31 29.17 282.56 52.12 282.56 52.12 316.31"/><line class="cls-30" x1="8.92" y1="256.91" x2="71.02" y2="256.91"/><line class="cls-30" x1="6.22" y1="273.56" x2="72.37" y2="273.56"/><line class="cls-30" x1="292.8" y1="137.58" x2="237" y2="137.58"/><line class="cls-30" x1="292.8" y1="182.58" x2="237" y2="182.58"/><line class="cls-30" x1="292.8" y1="227.58" x2="237" y2="227.58"/><line class="cls-30" x1="292.8" y1="272.58" x2="237" y2="272.58"/><line class="cls-30" x1="292.8" y1="317.58" x2="237" y2="317.58"/><polyline class="cls-30" points="457.5 157.38 457.5 212.28 425.1 212.28"/><polyline class="cls-30" points="425.1 267.19 458.4 267.19 458.4 315.79"/></g><g class="cls-19"><path class="cls-30" d="M554.69,330.72l-5-134.5-2.49-40.59,7.3-91.51h7.41v-9c12.08-1.38,20-3.69,20-6.31s-7.91-4.92-20-6.3V31.91H537.8V.5h-2.43V31.91H513.7V42c-14.78,1.28-24.86,3.84-24.86,6.79s10.08,5.52,24.86,6.8v8.52h6.91l7.62,90.26-.82,41.84-7,134.5"/><path class="cls-30" d="M527.23,64.09s7.5,81.5,10,81.5,9.5-81.5,9.5-81.5Z"/><line class="cls-30" x1="517.73" y1="55.09" x2="557.23" y2="55.09"/><line class="cls-30" x1="516.73" y1="41.09" x2="558.73" y2="41.09"/><polygon class="cls-30" points="536.73 154.09 532.23 239.59 545.23 239.59 536.73 154.09"/><polygon class="cls-30" points="531.23 245.59 527.23 300.59 549.23 300.59 545.23 245.59 531.23 245.59"/><polyline class="cls-30" points="524.73 330.59 526.73 305.59 549.23 305.59 550.73 330.09"/></g></symbol><symbol id="Hair_Parted_Wavy_2" data-name="Hair/Parted/Wavy 2" viewBox="0 0 196.44 116.59"><path class="cls-8" d="M48.07,19.13C40.24,36.52,56,59.6,94.3,79.83S191.05,104,195.72,99.47s-14.59,4.28-25.09-16.14c0,0,9.58-26.27-30.23-60.7S57.55-1.94,48.07,19.13Z"/><path class="cls-8" d="M13.05,116.59S-10.29,76.32,5.46,51.23s29.18-29.77,42.61-32.1S65,67.82,32.89,72.24C20.86,73.9,11.88,85.08,13.05,116.59Z"/></symbol><symbol id="Torso_Sweater_2" data-name="Torso/Sweater 2" viewBox="0 0 77.6 119.64"><path class="cls-2" d="M77.37,4.42A4.22,4.22,0,0,0,73.16,0H50.83c0,6.67-5,12.08-11.1,12.08S28.63,6.67,28.63,0H4.87A4.74,4.74,0,0,0,.16,5.19s-1.1,75.68,2.4,98.43c.1.6,1.89.49,2.23,1,2.12,3.1,0,12.42,2.7,15H71.08c2.31-2.38.48-10.14,1.58-13.28.24-.69,1.77-1.52,1.9-2.24C78.81,80.62,77.37,4.42,77.37,4.42Z"/></symbol><symbol id="Acces_Hoodie_2" data-name="Acces/Hoodie 2" viewBox="0 0 70.25 134.13"><g id="Hoodie"><path class="cls-2" d="M35,26.91C32.25,22.85,24.16,22,24.07,14.48c0-3.41-.18-10.45,0-14.15C24.12-.46,17.57.26,12.9,5,4.08,4.43-1.39,10.89.31,14.48,7.17,28.93,25.67,26.68,35,31.77,35.11,31.85,35,26.91,35,26.91Z"/><path class="cls-2" d="M35.3,26.86C36.74,23.77,46.09,22,46.18,14.43c0-3.42.18-10.45,0-14.16,0-.78,6.52-.06,11.18,4.68,8.82-.57,14.3,5.89,12.59,9.48C63.09,28.88,44.59,26.63,35.3,31.71,35.15,31.8,35.3,26.86,35.3,26.86Z"/></g><g id="Straps"><path id="Right" class="cls-3" d="M24.12,56.28H21.84l-.17-28.16a2.63,2.63,0,0,1,.15-1.27h2.05c.08,0,.14.49.14,1.08Z"/><path id="Left" class="cls-3" d="M49.32,48.56H47l-.17-23c0-.56.06-1.05.15-1.05h2c.07,0,.13.41.13.89Z"/></g><g id="Zipper"><path id="Line" class="cls-3" d="M39.23,134.12H36.94S34.17,26.48,34.26,26.48h2.05C36.39,26.48,39.23,134.12,39.23,134.12Z"/><polygon id="Head" class="cls-3" points="37.12 36.77 33.14 36.77 33.88 26.57 36.39 26.57 37.12 36.77"/></g></symbol><symbol id="Hair_Medium_Flat_2" data-name="Hair/Medium/Flat 2" viewBox="0 0 199.45 199.72"><path class="cls-8" d="M199.32,83.61A88.51,88.51,0,0,0,111,0H88.5A88.5,88.5,0,0,0,.14,83.61H0V88.5H0V199.72H199.45V88.5h0V83.61Z"/></symbol><symbol id="Meddlers" data-name="Meddlers" viewBox="0 0 516.34 639"><ellipse class="cls-22" cx="106.79" cy="631" rx="82" ry="8"/><ellipse class="cls-22" cx="375.79" cy="629" rx="82" ry="8"/><g id="Meddlers-3" data-name="Meddlers"><path class="cls-23" d="M480.07,139.1V103.71c0-52.56-43.28-95.57-96.18-95.57h0c-52.9,0-96.18,43-96.18,95.57v35.36a34.16,34.16,0,0,0,4.35,67.73,96.55,96.55,0,0,0,77.41,66.14v61.94c0,5.85,9.07,10.63,14,10.63s14-4.78,14-10.63V273.05a96.55,96.55,0,0,0,78.19-66.25,34.16,34.16,0,0,0,4.34-67.7Z"/><g class="cls-5"><path class="cls-6" d="M384.19,274h0a100,100,0,0,1-14.67-1.1v24.21c7.81-17.21,23.89-19.85,27.77-24A96.07,96.07,0,0,1,384.19,274Z"/><path class="cls-7" d="M480.26,178.47V146.06a27.31,27.31,0,0,1-2.46,53.69A94,94,0,0,0,480.26,178.47Z"/><path class="cls-7" d="M288,178.47V146.06a27.31,27.31,0,0,0,2.45,53.69A94,94,0,0,1,288,178.47Z"/><ellipse class="cls-6" cx="383.81" cy="175.3" rx="14.03" ry="5.5"/></g><use width="196.44" height="116.59" transform="translate(272.63) scale(1.24 1.23)" xlink:href="#Hair_Parted_Wavy_2"/><g id="Pants"><path class="cls-24" d="M353.13,609.92,341,609.09A10.83,10.83,0,0,1,331,597.57l14.68-169,32.5,2.43L366.62,598.16A12.7,12.7,0,0,1,353.13,609.92Z"/><path class="cls-24" d="M419.81,607H405.56a10.7,10.7,0,0,1-10.66-10.67l-3-166.68h32.58l6,166.68A10.7,10.7,0,0,1,419.81,607Z"/><path class="cls-24" d="M425.48,429.68c0,41.53-14.92,41.53-39.48,41.53s-42.48,0-42.48-41.53c0-22.93,17.91-41.52,42.48-41.52S425.48,406.75,425.48,429.68Z"/></g><g id="Shoes-3" data-name="Shoes"><path class="cls-24" d="M372.06,627.94H307.27a12.42,12.42,0,0,1-12.46-12.38v-.39c0-12.42,10.62-22.53,23.12-22.59,5.6,0,22.15-.42,26.19,5.22,17,23.68,22.68-5.22,22.68-5.22-.55,0,5.26,5.23,5.26,11.62Z"/><path class="cls-24" d="M424.43,592.58h-21a22.73,22.73,0,0,0-22.74,22.59v12.77h66.45V615.17A22.73,22.73,0,0,0,424.43,592.58Z"/></g><g id="Shoes-4" data-name="Shoes"><path class="cls-8" d="M372.06,627.94h-66a11.26,11.26,0,0,1-11.29-11.22v-5.45c5.44-3.55,25.05-3,32-.16,27.54,11.25,45.29,4.8,45.29,4.8Z"/><path class="cls-25" d="M380.71,615.17v12.77h66.45V615.17C447.16,602.75,380.71,602.75,380.71,615.17Z"/></g><use width="77.6" height="119.64" transform="translate(335.64 297.35) scale(1.24 1.23)" xlink:href="#Torso_Sweater_2"/><use width="70.25" height="134.12" transform="translate(340.49 280.73) scale(1.24 1.23)" xlink:href="#Acces_Hoodie_2"/><path class="cls-8" d="M288.08,383.2C277.36,405,263.66,448.86,262,454.69c-1.79,6.31,17.53,10.19,18.18,7.43,2-8.34,27.05-57.05,27.05-57.05,2.71-6,4.25-8.14-.21-15.63C299.79,377.31,290.3,378.71,288.08,383.2Z"/><g id="LeftHand"><path class="cls-23" d="M268.31,479c3.51.26-11.47,5.73-1.58,6.35,7.63.47,16.94-13.91,15.7-17.24-2.25-6-2.6-12.43-18-15.53-3.39-.68-1.77-.65-10.16,9.58C251.93,465,247.7,477.49,268.31,479Z"/><path class="cls-23" d="M260.56,487.66s5.7-1,5.84-3.65c.88-17.52,8.84-9.93,8.84-9.93.88-2.54-.3-5-2.62-5.56h0a5.14,5.14,0,0,0-5.24,2.44,3.87,3.87,0,0,0-2.9-4.28,5.15,5.15,0,0,0-5.27,2.51,3.87,3.87,0,0,0-2.89-4.35h0c-2.33-.53-2.87-2.18-3.76.35l-6.2,13.57c-.88,2.53-.87,8.22.21,9.15a3.93,3.93,0,0,0,3.33.68s-1.21,1.53,2.53,2.38c1.93.44,3.06-4.46,4.64-5.88C257.49,486.93,258.63,487.22,260.56,487.66Z"/></g><path class="cls-8" d="M289.35,379.79,326,310.56a1,1,0,0,1,.13-.16c2.71-5.59,6.25-8.31,13.15-8.07L335.64,349l-21.72,43.34c-3.91,7.38-13.43,10.31-18.19,7.82S285.44,387.18,289.35,379.79Z"/><g id="First"><use width="199.45" height="199.72" transform="translate(0 37.58) scale(1.23 1.22)" xlink:href="#Hair_Medium_Flat_2"/><path class="cls-26" d="M216.14,160.11V125.62c0-51.22-42.17-93.12-93.72-93.12h0c-51.54,0-93.71,41.9-93.71,93.12v34.46a33.29,33.29,0,0,0,4.23,66,94.09,94.09,0,0,0,75.43,64.44v60.35c0,5.7,8.84,10.36,13.68,10.36s13.67-4.66,13.67-10.36V290.63a94.09,94.09,0,0,0,76.19-64.56,33.28,33.28,0,0,0,4.23-66Z"/><g class="cls-5"><path class="cls-6" d="M122.72,291.59h0a99.28,99.28,0,0,1-14.42-1.07v23.59c7.6-16.77,23.4-19.34,27.18-23.4A94.29,94.29,0,0,1,122.72,291.59Z"/><path class="cls-7" d="M216.32,198.47V166.89a26.61,26.61,0,0,1-2.39,52.32A91.66,91.66,0,0,0,216.32,198.47Z"/><path class="cls-7" d="M29,198.47V166.89a26.62,26.62,0,0,0,2.39,52.32A92.23,92.23,0,0,1,29,198.47Z"/><ellipse class="cls-6" cx="122.34" cy="195.38" rx="13.67" ry="5.36"/></g><g id="Pants-2" data-name="Pants"><path class="cls-8" d="M90.71,613.39l-4.38-.3c-7.21-.49-9-9.2-8.52-16.37l6-139.53,30.61,2.09-9.64,139.53C104.23,606,97.93,613.89,90.71,613.39Z"/><path class="cls-8" d="M146.33,611h-4.4C134.7,611,130,605.1,130,597.92l-1.23-139.87h30.68L157,597.92C157,605.1,153.56,611,146.33,611Z"/><ellipse class="cls-8" cx="121.12" cy="458.13" rx="38.35" ry="35.8"/></g><g id="Shoes-5" data-name="Shoes"><path class="cls-27" d="M109.1,629.08H53.24A10.71,10.71,0,0,1,42.49,618.4v-.33c0-10.72,9.15-19.43,19.94-19.48,4.83,0,19.1-.36,22.58,4.5,14.62,20.42,19.56-4.5,19.56-4.5-.48,0,4.53,4.51,4.53,10Z"/><path class="cls-27" d="M154.25,598.59H136.16a19.59,19.59,0,0,0-19.6,19.48v11h57.29v-11A19.59,19.59,0,0,0,154.25,598.59Z"/><path class="cls-27" d="M90.71,613.39l-4.38-.3c-7.21-.49-12.71-9.2-12.21-16.37l0-16.84,35,2-.93,22.48C107.68,611.52,97.93,613.89,90.71,613.39Z"/><path class="cls-27" d="M146.33,611h-4.4c-7.23,0-16.48,2.93-16.48-4.25L127,581.41l33.89,1.23v18.67C160.85,608.49,153.56,611,146.33,611Z"/></g><g id="Shoes-6" data-name="Shoes"><path class="cls-28" d="M109.1,629.08H52.23a9.71,9.71,0,0,1-9.74-9.68v-4.7c4.69-3.06,21.6-2.57,27.56-.13,23.74,9.7,39.05,4.14,39.05,4.14Z"/><path class="cls-28" d="M116.56,618.07v11h57.29v-11C173.85,607.35,116.56,607.35,116.56,618.07Z"/></g><path class="cls-16" d="M229.38,377.25l-51.09-58.8-.16-.13a16.74,16.74,0,0,0-18.45-4.88c-8.74,3-13.55,12-10.74,20.07a14.58,14.58,0,0,0,4.68,6.61,1.6,1.6,0,0,0,.3.58l52.6,56.17c5.45,6.27,17.25,5,21.3,1.55S234.83,383.53,229.38,377.25Z"/><path class="cls-26" d="M232.52,383c10.15,21.87,22.73,65.74,24.25,71.57,1.63,6.3-17.64,9.72-18.23,7-1.76-8.32-27.86-56.46-27.86-56.46-2.55-6-4-8.18.57-15.51C218.71,377.69,230.43,378.51,232.52,383Z"/><g id="LeftHand-2" data-name="LeftHand"><path class="cls-26" d="M249.94,478.6c-1.37.52,6.46,8.92-3.37,9.31-7.59.3-11.71-17.16-10.39-20.45,2.36-5.91,2.86-12.27,18.22-15,3.37-.6,1.77-.61,9.86,9.74C266.52,465.1,269.14,471.38,249.94,478.6Z"/><path class="cls-26" d="M256.62,492.05s-5.63-1.1-5.7-3.76c-.47-17.42-7.75-14.76-7.75-14.76-.81-2.53.42-5,2.74-5.45h0a5.11,5.11,0,0,1,5.14,2.54,3.84,3.84,0,0,1,3-4.18,5.14,5.14,0,0,1,5.18,2.61,3.85,3.85,0,0,1,3-4.26h0c2.32-.46,2.9-2.09,3.72.44L271.55,477c.82,2.53-5.49,1-6.58,1.86-1.43,1.17,5,6.92,2.86,6,0,0,.65,4.8-3.09,5.55-1.93.39-3.06.61-4.59-.84C259.7,491.4,258.55,491.66,256.62,492.05Z"/></g><path class="cls-16" d="M169,317a5.17,5.17,0,0,0-5.18-5.41H136.32c0,8.17-27.36,8.17-27.36,0H79.69a5.8,5.8,0,0,0-5.8,6.36S65.6,481.81,69,485H181.71C184.56,482.07,169,317,169,317Z"/></g><ellipse class="cls-23" cx="246.81" cy="486.68" rx="4.5" ry="4.47"/><ellipse class="cls-23" cx="244.01" cy="482.42" rx="4.5" ry="4.47"/><ellipse class="cls-23" cx="242.18" cy="476.37" rx="4.5" ry="4.47"/><path class="cls-23" d="M274,474.38c-2.19-1.17-10.89,2.84-12.07,5a4.46,4.46,0,0,0,1.84,6.05c2.18,1.17,10.88-2.84,12.06-5A4.46,4.46,0,0,0,274,474.38Z"/></g></symbol><symbol id="Mountains_2" data-name="Mountains 2" viewBox="0 0 409.92 332.26"><polyline class="cls-29" points="354.42 327.81 354.42 115.51 409.42 115.51 409.42 325.61"/><polyline class="cls-29" points="359.1 111.66 359.1 90.76 404.75 90.76 404.75 111.11"/><polyline class="cls-29" points="363.5 86.36 363.5 80.86 400.35 80.86 400.35 86.36"/><polyline class="cls-29" points="366.52 76.46 378.62 69.86 387.42 69.86 397.32 76.46"/><polyline class="cls-29" points="378.07 69.31 378.07 30.26 385.77 30.26 385.77 68.76"/><line class="cls-29" x1="381.65" y1="0.01" x2="382.2" y2="29.16"/><polyline class="cls-29" points="338.73 324.6 338.73 96.91 271.08 96.91 271.08 326.25"/><line class="cls-29" x1="325.53" y1="111.76" x2="282.63" y2="111.76"/><line class="cls-29" x1="325.53" y1="139.26" x2="282.63" y2="139.26"/><line class="cls-29" x1="325.53" y1="166.76" x2="282.63" y2="166.76"/><line class="cls-29" x1="325.53" y1="194.26" x2="282.63" y2="194.26"/><line class="cls-29" x1="325.53" y1="221.76" x2="282.63" y2="221.76"/><line class="cls-29" x1="325.53" y1="249.26" x2="282.63" y2="249.26"/><line class="cls-29" x1="325.53" y1="276.76" x2="282.63" y2="276.76"/><line class="cls-29" x1="325.53" y1="304.26" x2="282.63" y2="304.26"/><line class="cls-29" x1="325.53" y1="331.76" x2="282.63" y2="331.76"/><polyline class="cls-29" points="130.84 324.6 130.84 80.86 185.28 121.66 185.28 322.95"/><line class="cls-29" x1="129.06" y1="32.46" x2="130.16" y2="74.81"/><polyline class="cls-29" points="56.59 283.35 56.59 82.06 106.09 82.06 106.09 281.7"/><line class="cls-29" x1="137.44" y1="128.26" x2="173.73" y2="128.26"/><polyline class="cls-29" points="96.19 95.26 96.19 134.86 68.14 134.86"/><line class="cls-29" x1="66.49" y1="187.66" x2="66.49" y2="233.85"/><polyline class="cls-29" points="0.49 326.25 3.79 308.1 49.99 306.45 54.94 326.25"/><polyline class="cls-29" points="36.79 298.2 71.44 280.05 124.24 280.05"/><line class="cls-29" x1="68.14" y1="301.5" x2="117.64" y2="301.5"/><line class="cls-29" x1="66.49" y1="319.65" x2="115.99" y2="319.65"/></symbol><symbol id="Hair_Frame_Curly_2" data-name="Hair/Frame/Curly 2" viewBox="0 0 248.72 173.6"><path class="cls-8" d="M248.72,121.33a18.38,18.38,0,0,0-7.39-14.94,22.62,22.62,0,0,0,.63-5.19,22.23,22.23,0,0,0-2.27-9.82,17.24,17.24,0,0,0,4.59-11.83,16.76,16.76,0,0,0-8.54-14.86,17.65,17.65,0,0,0,1.43-7c0-9.16-6.87-16.59-15.33-16.59-.39,0-.77,0-1.14.06,0-.38.05-.76.05-1.15,0-9.2-6.89-16.66-15.39-16.66a15.08,15.08,0,0,0-12.72,7.29,32.81,32.81,0,0,0-3.62-1.5c-1.91-7.21-8-12.49-15.31-12.49a14.69,14.69,0,0,0-3.39.4c-1.78-7.42-8-12.9-15.4-12.9a15.56,15.56,0,0,0-12.85,7.07,31.07,31.07,0,0,0-19.49,1.1C119.15,5.13,110.57,0,100.52,0,89.38,0,80,6.29,77.53,14.76A31.29,31.29,0,0,0,57.62,7.58c-17.73,0-32.11,14.91-32.11,33.31,0,1.17.06,2.32.17,3.45C15.87,44.41,7.93,53,7.93,63.67a20.72,20.72,0,0,0,1,6.3A21.31,21.31,0,0,0,0,87.56a21.87,21.87,0,0,0,4.45,13.35,22.21,22.21,0,0,0-2,9.3c0,9.86,6.32,18.1,14.8,20.31a22.76,22.76,0,0,0-1,6.5c0,11.54,8.65,20.9,19.31,20.9s19.32-9.36,19.32-20.9A22.07,22.07,0,0,0,52,126.12a21.38,21.38,0,0,0,5.51-10.72,11.8,11.8,0,0,0,1.46.09c7.73,0,14-6.79,14-15.16a16.27,16.27,0,0,0-.27-3,32.07,32.07,0,0,0,6.53-4.27,13.24,13.24,0,0,0,10.36,5.16,13.54,13.54,0,0,0,11.94-7.59,31.37,31.37,0,0,0,4.87.38h.31a12,12,0,0,0,11.39,9.36c5.7,0,10.46-4.36,11.59-10.17l.3,0a10.7,10.7,0,0,0,2.84-.39c2.15,6.61,8,11.35,14.79,11.35s12.88-4.93,14.92-11.74A31.08,31.08,0,0,0,176.63,94a12.85,12.85,0,0,0-.17,2.07c0,6.78,5.08,12.28,11.34,12.28a10.59,10.59,0,0,0,4.65-1.08,20.2,20.2,0,0,0-.23,2.93,19.93,19.93,0,0,0,11.34,18.35,16.55,16.55,0,0,0,1,21.76,16.55,16.55,0,0,0-1.82,7.6c0,8.66,6.48,15.68,14.48,15.68s14.49-7,14.49-15.68c0-.2,0-.4,0-.6,6.1-1.85,10.57-7.89,10.57-15.08a16.65,16.65,0,0,0-1.06-5.86A18.36,18.36,0,0,0,248.72,121.33Z"/></symbol><symbol id="BikeGuy-2" data-name="BikeGuy" viewBox="0 0 272.92 529.95"><g id="ShortBoots"><path class="cls-4" d="M229.53,138.84V110.7a76.22,76.22,0,0,0-76-76h0a76.22,76.22,0,0,0-76,76v28.12A27.18,27.18,0,0,0,81,192.67a76.44,76.44,0,0,0,61.17,52.59v49.25c0,4.65,7.17,8.45,11.09,8.45s11.09-3.8,11.09-8.45V245.35a76.45,76.45,0,0,0,61.78-52.69,27.17,27.17,0,0,0,3.43-53.82Z"/><g class="cls-5"><path class="cls-6" d="M153.77,246.13h0a80.52,80.52,0,0,1-11.69-.87v19.25c6.17-13.69,19-15.78,22-19.1A75.28,75.28,0,0,1,153.77,246.13Z"/><path class="cls-7" d="M229.68,170.14V144.37a21.74,21.74,0,0,1-1.94,42.69A75.53,75.53,0,0,0,229.68,170.14Z"/><path class="cls-7" d="M77.78,170.14V144.37a21.74,21.74,0,0,0,1.94,42.69A75,75,0,0,1,77.78,170.14Z"/><ellipse class="cls-6" cx="153.47" cy="167.62" rx="11.09" ry="4.38"/></g><g id="Pants-3" data-name="Pants"><path class="cls-4" d="M176.42,509.6l3.56-.25c5.85-.4,8.3-1.76,6.91-7.46C181.67,480.48,182.06,382,182.06,382l-24.84,1.71s13.16,107.39,8.54,118.85C163.56,508,170.57,510,176.42,509.6Z"/><path class="cls-4" d="M131.48,507.62h3.57c5.87,0,11.71-4.89,10.67-10.66-5.38-29.81,0-114.23,0-114.23h-24.9s4.86,85.75,0,114.23C119.83,502.74,125.62,507.62,131.48,507.62Z"/><ellipse class="cls-8" cx="151.94" cy="382.79" rx="31.13" ry="29.24"/></g><g id="Pants-4" data-name="Pants"><path class="cls-8" d="M187.09,454l-4.83-72-24.84,1.71,4.83,72C162.65,461.54,187.49,459.83,187.09,454Z"/><path class="cls-8" d="M145.72,455V382.73h-24.9V455C120.82,460.82,145.72,460.82,145.72,455Z"/><ellipse class="cls-8" cx="151.94" cy="382.79" rx="31.13" ry="29.24"/></g><g id="Shoes-7" data-name="Shoes"><path class="cls-8" d="M161.9,522.41h45.34a8.72,8.72,0,0,0,8.72-8.72v-.28c0-8.75-7.43-13.86-16.18-13.9-3.92,0-15.5-2.3-18.33,1.67-11.86,16.68-15.87-2.67-15.87-2.67.39,0-3.68,2.68-3.68,7.18Z"/><circle class="cls-9" cx="187.27" cy="499.96" r="2.45"/><ellipse class="cls-10" cx="182.46" cy="500.86" rx="6.47" ry="0.9" transform="translate(-145.17 80.37) rotate(-17.91)"/><ellipse class="cls-10" cx="193.44" cy="499.51" rx="0.9" ry="6.47" transform="translate(-315.08 667.82) rotate(-87.15)"/><path class="cls-9" d="M197.28,522.41h17a8.72,8.72,0,0,0,8.72-8.72v-.28c0-8.75-6.06-14.56-14.81-14.6-3.92,0-12.5.2-15.33,4.17C181,519.65,197.28,522.41,197.28,522.41Z"/><path class="cls-8" d="M125.26,497.51h14.68a16,16,0,0,1,15.91,15.9v9h-46.5v-9A16,16,0,0,1,125.26,497.51Z"/><ellipse class="cls-9" cx="131.71" cy="497.5" rx="2.95" ry="2.45"/><ellipse class="cls-10" cx="125.91" cy="498.4" rx="7.68" ry="0.91" transform="matrix(0.97, -0.26, 0.26, 0.97, -124.13, 49.25)"/><ellipse class="cls-10" cx="139.14" cy="497.05" rx="0.9" ry="7.79" transform="translate(-363.21 615.64) rotate(-87.64)"/></g><g id="Shoes-8" data-name="Shoes"><path class="cls-9" d="M161.9,522.41h52.16c4.93,0,8.93-3.54,8.93-7.91v-3.84c-4.3-2.49-19.81-2.09-25.27-.1-21.78,7.92-35.82,3.37-35.82,3.37Z"/><path class="cls-9" d="M155.85,513.41v9h-46.5v-9c0-4.26,6.47-13.45,22.36-13.46C149.15,500,155.85,508.92,155.85,513.41Z"/></g><path class="cls-4" d="M87.27,330.85s17.94-52.46,19.58-58.9,8.41-7.37,14-7.75l1,38L108,339c-2.51,6.28-9.91,9.43-13.93,7.82S84.75,337.13,87.27,330.85Z"/><path class="Anon-2380" d="M190.82,267.5a4.21,4.21,0,0,0-4.21-4.41H164.29c0,6.67-5,12.08-11.1,12.08s-11.1-5.41-11.1-12.08H118.32a4.72,4.72,0,0,0-4.7,5.19s4,105.38,9,107.45h59.2C189.63,373.66,190.82,267.5,190.82,267.5Z"/><use width="248.72" height="173.6" transform="translate(24.2)" xlink:href="#Hair_Frame_Curly_2"/><path d="M52.8,529.87h0a13.69,13.69,0,0,1-12.12-15.09l13.15-121a13.7,13.7,0,0,1,15.09-12.13h0A13.69,13.69,0,0,1,81,396.75l-13.15,121A13.71,13.71,0,0,1,52.8,529.87Z"/><polygon class="cls-11" points="64.13 368.14 75.96 369.43 81.72 316.51 69.88 315.22 64.13 368.14"/><polygon class="cls-11" points="91.19 362.46 50.76 358.07 49.83 366.59 49.86 366.59 40.41 453.54 45.96 454.14 55.41 367.2 84.67 370.38 75.22 457.33 80.78 457.93 90.23 370.98 90.26 370.99 91.19 362.46"/><path class="cls-12" d="M115.43,335.12l-86.22-9.37a5.56,5.56,0,0,1-4.93-6.14h0a5.56,5.56,0,0,1,6.13-4.93l86.23,9.37a5.58,5.58,0,0,1,4.93,6.14h0A5.56,5.56,0,0,1,115.43,335.12Z"/><path class="cls-12" d="M23.89,364.62h0a4.62,4.62,0,0,1-4.09-5.09l4.34-40a4.62,4.62,0,0,1,5.09-4.09h0a4.6,4.6,0,0,1,4.08,5.08l-4.34,40A4.62,4.62,0,0,1,23.89,364.62Z"/><path class="cls-12" d="M111.84,376.06h0a4.61,4.61,0,0,1-4.08-5.08l4.66-42.87A4.6,4.6,0,0,1,117.5,324h0a4.61,4.61,0,0,1,4.09,5.08L116.93,372A4.62,4.62,0,0,1,111.84,376.06Z"/><polygon class="cls-13" points="39.1 424.17 0 419.92 1.31 407.88 40.41 412.13 39.1 424.17"/><polygon class="cls-13" points="112.53 490.36 73.43 486.11 74.74 474.08 113.84 478.33 112.53 490.36"/><g id="LeftHand-3" data-name="LeftHand"><path class="cls-14" d="M87.34,320.85c6.29-.8,2.44-3.89,10.33-2.68,6.1.94,2.55-2.32,1.79-5.1-1.36-5,5.07-3.39-7.06-7-2.66-.79-7.62-7.48-15.1.18C75.21,308.37,70.81,322.94,87.34,320.85Z"/><path class="cls-14" d="M79.36,339.74h0c1.83.59,4.65-.37,5-2.53,2-14.09,9-19.86,9-19.86.89-2,.13-4.08-1.7-4.67h0a4.12,4.12,0,0,0-4.38,1.59,3.14,3.14,0,0,0-2-3.67,4.17,4.17,0,0,0-4.42,1.65,3.14,3.14,0,0,0-2-3.73h0c-1.82-.59-2.14-2-3,0L68.38,324.8c-.9,2-.32,5,.48,5.81,1,1.09,1.75.61,3.53,0,0,0-2.36,6.06.58,7,1.52.49,2.41.77,3.78-.26C77,338.93,77.85,339.25,79.36,339.74Z"/><path class="cls-4" d="M87.34,320.85c6.29-.8,2.44-3.89,10.33-2.68,6.1.94,2.55-2.32,1.79-5.1-1.36-5,5.07-3.39-7.06-7-2.66-.79-7.62-7.48-15.1.18C75.21,308.37,70.81,322.94,87.34,320.85Z"/><path class="cls-4" d="M79.36,339.74h0c1.83.59,4.65-.37,5-2.53,2-14.09,9-19.86,9-19.86.89-2,.13-4.08-1.7-4.67h0a4.12,4.12,0,0,0-4.38,1.59,3.14,3.14,0,0,0-2-3.67,4.17,4.17,0,0,0-4.42,1.65,3.14,3.14,0,0,0-2-3.73h0c-1.82-.59-2.14-2-3,0L68.38,324.8c-.9,2-.32,5,.48,5.81,1,1.09,1.75.61,3.53,0,0,0-2.36,6.06.58,7,1.52.49,2.41.77,3.78-.26C77,338.93,77.85,339.25,79.36,339.74Z"/></g></g></symbol><symbol id="Home_2" data-name="Home 2" viewBox="0 0 277.81 250.34"><g id="Home"><g class="cls-19"><polygon class="cls-15" points="277.81 216.79 266.83 216.79 266.83 215.79 276.81 215.79 276.81 1 92.17 1 92.17 215.79 198.47 215.79 198.47 216.79 91.17 216.79 91.17 0 277.81 0 277.81 216.79"/><path class="cls-15" d="M216.77,156.92c-4.64,0-8.46-4.86-8.69-10.94h0c-5.49,0-8.86-.83-10.6-2.61s-1.69-4.24-1.64-6.87c0-.46,0-.94,0-1.42s0-.81,0-1.19c0-2.78-.07-4.85,2.29-6.51-2.64-1.45-4.13-3.41-4.13-5.48,0-3.63,4.45-6.7,10.91-7.59a16.8,16.8,0,1,1,32.42-7,15.28,15.28,0,0,1,20.87,19.23c5.19.58,9.16,5.53,9.16,11.59,0,6.43-4.56,11.67-10.18,11.67a9.77,9.77,0,0,1-7.89-4.31,14.71,14.71,0,0,1-23.84,1.2C225,152.41,221.25,156.92,216.77,156.92Zm-7.71-12v.5c0,5.77,3.48,10.46,7.7,10.46s7.7-4.72,7.7-10.53l0-2,.94,1.45a13.72,13.72,0,0,0,23.43-.62l.42-.73.44.72a8.89,8.89,0,0,0,7.48,4.5c5.06,0,9.18-4.79,9.18-10.67s-3.91-10.47-8.9-10.64l-.74,0,.3-.67a14.28,14.28,0,0,0-19.92-18.23l-.74.39v-.83a15.8,15.8,0,0,0-31.6.14,15.67,15.67,0,0,0,1.32,6.32l.28.62-.68.08c-6.19.69-10.68,3.5-10.68,6.67,0,1.86,1.59,3.68,4.36,5l.88.42-.86.47c-2.61,1.44-2.58,3.09-2.54,6.1,0,.38,0,.78,0,1.2s0,1,0,1.44c-.05,2.51-.09,4.69,1.35,6.15S202.83,145,208,145h1Z"/><path class="cls-15" d="M247.51,165.14l9.69-17,.41.89c2.18,4.81,2.61,8.35,1.33,10.82-1.52,2.91-5.09,4.1-10.37,5.08Zm9.58-14.78-7.64,13.39c4.4-.88,7.37-2,8.6-4.35C259.11,157.37,258.8,154.4,257.09,150.36Z"/><path class="cls-15" d="M263.47,234.73H203.73V182.28h7c-3.16-3.7-6.4-5.57-9.64-5.57h0c-8.61,0-16,17.54-16.07,17.72l-1,2.41,0-2.61c0-1.18.6-28.95,10.43-30,9.53-1,22.5,1.34,24.08,5.51l0,.11-1.06,12.41h1.73c.3-3.51,2.12-6.83,5.42-9.9,5.77-5.36,13.67-6.7,20.65-7.88,1.07-.18,2.11-.35,3.11-.54l1.06-.2-3.82,6.71c10.89-5.19,24.14-10.14,24.28-10.19l.67-.25v.72c0,.36-.08,9.11-7.22,18.23h0a15.36,15.36,0,0,1-3.83,3.3h3.94Zm-58.74-1h57.74V183.28h-6.73l1.72-.94a16.72,16.72,0,0,0,5.12-4,32.58,32.58,0,0,0,7-16.88c-3.05,1.16-15.25,5.87-24.92,10.58l-1.46.71,4.36-7.64-2.08.36c-6.83,1.16-14.58,2.47-20.13,7.62-3.25,3-5,6.28-5.13,9.69l0,.48h-3.77L217.52,170c-1.46-3.3-13.38-5.78-23-4.78-4.6.49-7,8.27-8.11,14.7a99.87,99.87,0,0,0-1.32,11.77c2.4-5,8.58-16,15.93-16h0c3.79,0,7.52,2.27,11.09,6.75l.65.82h-8.07Z"/></g><polygon class="cls-20" points="276.13 249.34 1 249.34 1 234.73 276.13 234.73 276.13 233.73 0 233.73 0 250.34 276.13 250.34 276.13 249.34"/><path class="cls-20" d="M224.32,129.2c0-.15-4-15.62-10.85-15.62a3.27,3.27,0,0,0-2.78,1.27c-2.53,3.36-.1,12-.07,12.09l-1,.28c-.11-.38-2.59-9.22.24-13a4.21,4.21,0,0,1,3.57-1.67c7.63,0,11.65,15.71,11.82,16.38Z"/><path class="cls-20" d="M208,145.48c-2.21,0-2.72-1.38-2.83-2.17-.48-3.49,4.76-10.44,10.12-12l.28,1c-4.76,1.42-9.82,7.93-9.41,10.94.05.32.18,1.28,1.85,1.31Z"/><path class="cls-20" d="M226.64,136.41h-1c0-1.38-.12-2.76-.23-4.09-.28-3.27-.52-6.1,1.1-7.59,1-.94,2.67-1.2,5-.81,5.55.92,10.73,3.9,12.6,7.23a3.94,3.94,0,0,1,.45,3.45l-.93-.37a3.08,3.08,0,0,0-.39-2.59c-1.46-2.61-6-5.75-11.89-6.73-2-.35-3.42-.16-4.2.56-1.26,1.16-1,3.75-.79,6.76C226.52,133.59,226.64,135,226.64,136.41Z"/><path class="cls-20" d="M240,116.41h-1c0-2.59-2-10.28-8.31-12.18-5.24-1.58-6.39.64-8.3,4.32-.34.68-.71,1.39-1.12,2.11l-.87-.49c.4-.72.76-1.41,1.11-2.07,1.91-3.71,3.43-6.64,9.47-4.83a12.14,12.14,0,0,1,7.13,6.33A16.61,16.61,0,0,1,240,116.41Z"/><polygon class="cls-20" points="219.22 222.02 218.38 221.47 237.05 192.81 237.89 193.35 219.22 222.02"/><polygon class="cls-20" points="227.89 222.02 227.05 221.47 245.72 192.81 246.56 193.35 227.89 222.02"/></g></symbol><symbol id="Shoppingbags_2" data-name="Shoppingbags 2" viewBox="0 0 82.56 143.01"><path class="cls-31" d="M8,38.9S-2.14.19,8,.5s6.72,38.9,6.72,38.9"/><rect class="cls-14" y="30.44" width="26.28" height="109.82"/><polygon class="cls-32" points="46.71 26.82 26.28 30.44 26.28 140.26 52.87 127.91 46.71 26.82"/><polygon class="Anon-2315" points="19.14 26.82 0 30.44 26.28 30.44 46.71 26.82 19.14 26.82"/><path class="cls-33" d="M9.34,30.44s-.33-2.2,2.72-6.21S17.65,16.67,23.35,20s10.13-.19,10.52,2.5,5.71,5.63,5.71,5.63l-13.3,2.36H9.34Z"/><path class="cls-31" d="M33.28,38.9S23.18.19,33.28.5,43.61,35.9,43.61,35.9"/><ellipse class="cls-27" cx="40.35" cy="82.52" rx="2.16" ry="25.92" transform="translate(-4.18 2.18) rotate(-2.94)"/><path class="cls-34" d="M37.64,41.65s-10.1-38.71,0-38.4,6.71,38.9,6.71,38.9"/><rect class="cls-35" x="29.68" y="33.19" width="26.28" height="109.82"/><polygon class="cls-35" points="76.39 29.57 55.96 33.19 55.96 143.01 82.56 130.66 76.39 29.57"/><polygon class="cls-36" points="48.82 29.57 29.68 33.19 55.96 33.19 76.39 29.57 48.82 29.57"/><path class="cls-37" d="M56.9,26.81c-3.32,1-5.72,4.63-7.22,4.57s-8.07,1.81-8.07,1.81H56L70,30.69s2.53-1.87-1.72-2.06-5.25,2.56-6,1.06S58.92,26.19,56.9,26.81Z"/><path class="cls-34" d="M63,41.65S52.87,2.94,63,3.25s10.33,35.4,10.33,35.4"/><ellipse class="cls-27" cx="70.03" cy="85.27" rx="2.16" ry="25.92" transform="translate(-4.28 3.7) rotate(-2.94)"/></symbol><symbol id="Heels" data-name="Heels" viewBox="0 0 222.92 390.13"><path class="cls-12" d="M80.51,0C66.87,0,54,6,42.46,16.6a2.07,2.07,0,0,0-1.52-.18C30.7,19.21,21.37,25.71,8.46,54.75c-20.08,45.15,0,69.55,14.68,90.12C33.94,153.72,41.26,160,50.51,158c89.55-18.9,100.61-24.1,100.61-51C151.12,28.27,128.62,0,80.51,0Z"/><path class="cls-12" d="M63.78,149.19c0,14.56,25.72,26.37,57.46,26.37s41.21-11.81,41.21-26.37-9.33-37.58-41.06-37.58S63.78,134.62,63.78,149.19Z"/><path class="cls-18" d="M136.93,90.08V68.63A58.12,58.12,0,0,0,79,10.69h0A58.12,58.12,0,0,0,21.05,68.63V90.07a20.72,20.72,0,0,0,2.62,41.06A58.26,58.26,0,0,0,70.3,171.22v37.55c0,3.54,5.47,6.44,8.46,6.44s8.45-2.9,8.45-6.44V171.29a58.29,58.29,0,0,0,47.1-40.17,20.72,20.72,0,0,0,2.62-41Z"/><g class="cls-5"><path class="cls-6" d="M79.17,171.88h0a60,60,0,0,1-8.84-.66v14.67c4.71-10.43,14.4-12,16.73-14.56A57,57,0,0,1,79.17,171.88Z"/><path class="cls-7" d="M137,114V94.3a16.58,16.58,0,0,1-1.48,32.55A57.2,57.2,0,0,0,137,114Z"/><path class="cls-7" d="M21.24,114V94.3a16.58,16.58,0,0,0,1.47,32.55A57.77,57.77,0,0,1,21.24,114Z"/><ellipse class="cls-6" cx="78.94" cy="112.03" rx="8.45" ry="3.34"/></g><g id="Pants-5" data-name="Pants"><path class="cls-18" d="M59.56,380.71l-16,.33c1.4-3.3,5.47-7.47,9-13C57.15,361,54.82,277,54.82,277l18.94,1.3s-10,81.87-6.51,90.61C68.92,373.07,64,381,59.56,380.71Z"/><path class="Anon-2413" d="M65.06,380.16l-2.92.82-13.43,7.63-15.22.76c-3.67,0-4.63-4.61-4.36-6.86.6-4.88,5.24-3.58,11.86-4.39,3.32-.4,2.37-1.31,4.72-.38,13.71,5.41,20.44-13.05,21.26-11.95,5.17,7,1.79,11.13,1.79,11.13S67.39,379.65,65.06,380.16Z"/><path class="cls-13" d="M59.08,382.35c-3.49,1.9-7.49,5.42-11.42,6.12-.9.16-15.57.35-15.57.35,0,1.14,1.54,1.08,1.54,1.08s13.7,0,15.08-.53c5-2,9.69-6.37,13.4-7.26,0,.67-.13,2.12-.13,3.25v4h4.44s1.64-9.46,1.64-10.67a12.69,12.69,0,0,0,.76-1.89S64.65,379.31,59.08,382.35Z"/><path class="cls-18" d="M94.9,380.94l16,.33c-1.4-3.3-5.47-7.47-9-13-4.58-7.09-2.25-91.05-2.25-91.05l-18.94,1.3s10,81.87,6.51,90.61C85.54,373.29,90.44,381.25,94.9,380.94Z"/><path class="Anon-2413" d="M89.4,380.39l2.92.82,13.43,7.63,15.22.76c3.67,0,3.87-4.62,3.59-6.86-.6-4.88-5.23-3.59-11.85-4.39-3.33-.4-1.61-1.31-4-.38-13.71,5.4-20.44-13.05-21.26-12-5.17,7-1.79,11.13-1.79,11.13S87.07,379.87,89.4,380.39Z"/><path class="cls-13" d="M95.38,382.57c3.49,1.91,7.49,5.43,11.42,6.13.9.16,15.57.35,15.57.35,0,1.14-1.54,1.08-1.54,1.08s-13.7,0-15.08-.53c-5-2-9.69-6.37-13.4-7.26.05.67.14,2.12.14,3.25v4H88s-1.64-9.46-1.64-10.67a12.69,12.69,0,0,1-.76-1.89S89.82,379.53,95.38,382.57Z"/><ellipse class="cls-8" cx="77.78" cy="277.59" rx="23.73" ry="22.29"/></g><g id="Pants-6" data-name="Pants"><path class="cls-8" d="M51,331.87,54.67,277l18.94,1.3-3.68,54.86C69.62,337.63,50.68,336.33,51,331.87Z"/><path class="cls-8" d="M83.72,333l-2.51-55,19-.87,2.51,55C102.89,336.62,83.92,337.48,83.72,333Z"/><path class="cls-8" d="M100,277.59c0,22.29-9.1,22.29-22.21,22.29s-23.73,0-23.73-22.29c0-12.31,10.63-22.29,23.73-22.29S100,265.28,100,277.59Z"/></g><path id="Shirt-2" data-name="Shirt" class="Anon-2414" d="M117.68,331.21c6.63,14.7-69.3,4.6-74.94,11.08-11.3,13,15.45-93.05,15.23-102.11-.22-8.83-4.11-16.4-5.7-25-.75-4.06.41-7.74.13-13-.11-2.13-.83-17.35,1.3-17.35H70.33c0,8.4,7.68,21.35,7.68,21.35s8.9-12.95,9.23-21.35h15.47c1.84,0,.68,15.52.59,17.35a47.92,47.92,0,0,1,.81,15.67c-1.19,8-5.42,15.6-5.11,22.35C99.43,249.37,109.07,312.13,117.68,331.21Z"/><circle class="Anon-2413" cx="67.93" cy="182.68" r="2.56"/><circle class="Anon-2413" cx="69.06" cy="186.9" r="2.56"/><circle class="Anon-2413" cx="72.63" cy="190.26" r="2.56"/><circle class="Anon-2413" cx="77" cy="192.01" r="2.56"/><circle class="Anon-2413" cx="81.7" cy="192.01" r="2.56"/><circle class="Anon-2413" cx="85.81" cy="191.23" r="2.56"/><circle class="Anon-2413" cx="88.37" cy="187.7" r="2.56"/><circle class="Anon-2413" cx="89.06" cy="183.83" r="2.56"/><path class="cls-12" d="M66.36,15.07c-4.46,13.84,6,22,35.24,37.37s34.87,57.79,38.43,54.38,18.17-53.93-12.18-80.18S73.92-8.42,66.36,15.07Z"/><path class="cls-12" d="M21.86,94.71s-16.65-36-4.64-55.17S42.78,7,66.36,6.17c10.38-.35-4.9,46-29.37,49.39C27.82,56.82,21,70.68,21.86,94.71Z"/><path class="Anon-2413" d="M19.11,39.36S35.44,58.67,31.44,61.43,19.11,39.36,19.11,39.36Z"/><use width="82.56" height="143.01" transform="translate(140.36 247.12)" xlink:href="#Shoppingbags_2"/></symbol><symbol id="Mouth_Yes_2" data-name="Mouth/Yes 2" viewBox="0 0 90 34.44"><path class="cls-9" d="M0,0C1.7,13.15,21.19,34.44,45,34.44S88.3,13.15,90,0Z"/></symbol></defs><title>coverWide</title><g class="cls-38"><g id="BG"><rect class="cls-3" x="-39.93" y="-153.42" width="1080.43" height="8523.41"/></g><g id="Cover"><path class="Anon-2314" d="M413.5,119.88h5.08v1.05a19.34,19.34,0,0,1,22.94.18,14.2,14.2,0,0,1,2.26,2.26,14.61,14.61,0,0,1,2.31-2.26,19.39,19.39,0,0,1,23.22,0A11.86,11.86,0,0,1,474.1,130v34.38H469V130h.06a8.2,8.2,0,0,0-3.33-6,13.41,13.41,0,0,0-16.09,0,8.19,8.19,0,0,0-3.36,6.67v33.74h-5.07V130h.05a8.19,8.19,0,0,0-3.32-6,12.63,12.63,0,0,0-8.06-2.68,12.41,12.41,0,0,0-8,2.68,8.28,8.28,0,0,0-3.32,5.67v34.74H413.5Z"/><path class="Anon-2314" d="M497.29,156.07A19.6,19.6,0,0,0,511,161.33a19.83,19.83,0,0,0,14.56-6c.51-.51,1-1,1.45-1.59l4.31,1.55a26,26,0,0,1-2.68,3.13,24.91,24.91,0,1,1-35.23-35.24,25,25,0,0,1,33.06-2c.72.61,1.45,1.27,2.17,2,.28.27.53.54.78.81l-3.09,3.09Zm26-31.79a20.58,20.58,0,0,0-28.8,28.8Z"/><path class="Anon-2314" d="M590.26,164.42h-4.09v-9.07a29.44,29.44,0,0,1-2.58,3,24.92,24.92,0,1,1-35.24-35.24,24.91,24.91,0,0,1,35.24,0,29.44,29.44,0,0,1,2.58,3V91.85h4.09Zm-4.09-19.59v-8.08a20.39,20.39,0,1,0,0,8.08Z"/><path class="Anon-2314" d="M651.93,164.42h-4.08v-9.07a30.73,30.73,0,0,1-2.58,3A24.92,24.92,0,1,1,610,123.15a24.91,24.91,0,0,1,35.24,0,30.73,30.73,0,0,1,2.58,3V91.85h4.08Zm-4.08-19.59v-8.08a20.37,20.37,0,1,0,0,8.08Z"/><path class="Anon-2314" d="M669.62,91.85v72.57h-4.08V91.85Z"/><path class="Anon-2314" d="M691.71,156.07a19.6,19.6,0,0,0,13.69,5.26,19.83,19.83,0,0,0,14.56-6,19.63,19.63,0,0,0,1.45-1.59l4.31,1.55a25.9,25.9,0,0,1-2.67,3.13,24.92,24.92,0,1,1-35.24-35.24,25,25,0,0,1,33.06-2c.72.61,1.45,1.27,2.18,2,.27.27.52.54.77.81l-3.09,3.09Zm26-31.79a20.58,20.58,0,0,0-28.8,28.8Z"/><use width="70.25" height="70.03" transform="translate(274.28 76.28) scale(1.61)" xlink:href="#Meddle_Logo_4"/><path class="cls-16" d="M414.35,189.51h7.71l-.24,1.47h-9.35l2.91-16.48H417Z"/><path class="cls-16" d="M425.41,186a2.51,2.51,0,0,0,0,.27c0,.08,0,.17,0,.24a3.55,3.55,0,0,0,.27,1.41,3.49,3.49,0,0,0,.74,1.1,3.37,3.37,0,0,0,1.12.72,3.55,3.55,0,0,0,1.39.26,4.28,4.28,0,0,0,2.23-.57,5.19,5.19,0,0,0,1.54-1.34l1,.93a6.14,6.14,0,0,1-2.21,1.71,6.38,6.38,0,0,1-2.67.58,5.72,5.72,0,0,1-2-.33,4.74,4.74,0,0,1-1.57-.93,4.4,4.4,0,0,1-1-1.5,5.26,5.26,0,0,1-.38-2,6.68,6.68,0,0,1,.49-2.54,6.76,6.76,0,0,1,1.34-2.12,6.63,6.63,0,0,1,2-1.45,5.77,5.77,0,0,1,2.48-.55,4.49,4.49,0,0,1,3.38,1.19,4.23,4.23,0,0,1,1.16,3.07c0,.19,0,.47-.05.85a7.35,7.35,0,0,1-.16,1Zm7.61-1.17a2.41,2.41,0,0,0,0-.4c0-.15,0-.29,0-.41a2.87,2.87,0,0,0-.77-2.06,3,3,0,0,0-2.26-.8,4.13,4.13,0,0,0-1.59.29,4.27,4.27,0,0,0-1.31.8,4.78,4.78,0,0,0-1,1.18,4.57,4.57,0,0,0-.56,1.4Z"/><path class="cls-16" d="M443.21,181.39h-2.95l-1.14,6.39a4.27,4.27,0,0,0-.07.75,1.19,1.19,0,0,0,.37,1,1.7,1.7,0,0,0,1,.25,2.76,2.76,0,0,0,.72-.1,1.34,1.34,0,0,0,.6-.27l-.18,1.35a2.4,2.4,0,0,1-.78.24,5.5,5.5,0,0,1-1,.09,3.74,3.74,0,0,1-.81-.1,2,2,0,0,1-.74-.33,2,2,0,0,1-.56-.67,2.24,2.24,0,0,1-.22-1.07,4.16,4.16,0,0,1,.07-.74l1.21-6.82h-2.26l.26-1.31h2.21l.53-3.07H441l-.53,3.07h3Z"/><path class="cls-16" d="M453.53,189.25h0l5.31-9.17h1.75l-8.24,13.71a9.67,9.67,0,0,1-1.59,2,2.87,2.87,0,0,1-2,.75,6,6,0,0,1-1.33-.14l.23-1.44a3.12,3.12,0,0,0,1,.19,1.88,1.88,0,0,0,1.29-.5,6.4,6.4,0,0,0,1.08-1.44l1.35-2.28-2.28-10.87h1.63Z"/><path class="cls-16" d="M466.19,191.26a5.81,5.81,0,0,1-2-.35,4.88,4.88,0,0,1-1.59-1,4.4,4.4,0,0,1-1-1.49,4.8,4.8,0,0,1-.37-1.92,7.06,7.06,0,0,1,.48-2.6,6.68,6.68,0,0,1,1.34-2.14,6.37,6.37,0,0,1,2-1.45,6.25,6.25,0,0,1,2.61-.54,6,6,0,0,1,2,.34,4.61,4.61,0,0,1,1.58,1,4.49,4.49,0,0,1,1,1.49,4.89,4.89,0,0,1,.37,1.91,7.22,7.22,0,0,1-.48,2.63,6.35,6.35,0,0,1-3.39,3.58A6.21,6.21,0,0,1,466.19,191.26Zm4.84-6.65a4.18,4.18,0,0,0-.23-1.39,3.16,3.16,0,0,0-.69-1.11,3.12,3.12,0,0,0-1.1-.73,3.76,3.76,0,0,0-1.46-.27,4.09,4.09,0,0,0-1.88.43,4.72,4.72,0,0,0-1.49,1.17,5.48,5.48,0,0,0-1,1.7,5.84,5.84,0,0,0-.36,2,3.94,3.94,0,0,0,.23,1.39,3,3,0,0,0,.68,1.11,3.31,3.31,0,0,0,1.09.73,3.71,3.71,0,0,0,1.45.27,4.23,4.23,0,0,0,1.92-.43,4.73,4.73,0,0,0,1.5-1.16,5.3,5.3,0,0,0,1-1.69A6.06,6.06,0,0,0,471,184.61Z"/><path class="cls-16" d="M482.71,191c0-.3.07-.62.12-1s.09-.65.14-.89h-.05a4.68,4.68,0,0,1-1.61,1.58,4.18,4.18,0,0,1-2.11.57,4,4,0,0,1-2.76-.89,3.09,3.09,0,0,1-1-2.42,3.52,3.52,0,0,1,0-.56c0-.18.05-.39.08-.6l1.2-6.68h1.57l-1.07,6a7,7,0,0,0-.14,1.38,2.77,2.77,0,0,0,.53,1.79,2.33,2.33,0,0,0,1.88.65,3.24,3.24,0,0,0,1.25-.25,3.63,3.63,0,0,0,1.17-.78,5.08,5.08,0,0,0,1-1.33,6.33,6.33,0,0,0,.6-1.9l1-5.58h1.56l-1.49,8.49c-.07.3-.13.67-.2,1.14s-.12.87-.15,1.24Z"/><path class="cls-16" d="M490.2,181.34c.07-.47.12-.88.15-1.26h1.49c0,.3-.07.62-.12,1s-.09.65-.14.89h.05a4.82,4.82,0,0,1,1.53-1.55,3.81,3.81,0,0,1,2.1-.6,4.39,4.39,0,0,1,.54,0,2.23,2.23,0,0,1,.48.09l-.37,1.49a2.31,2.31,0,0,0-.43-.09,4.48,4.48,0,0,0-.64,0,3.48,3.48,0,0,0-1.23.23,3.09,3.09,0,0,0-1.11.74,4.65,4.65,0,0,0-.88,1.28,6.54,6.54,0,0,0-.57,1.87l-1,5.59h-1.56l1.49-8.5C490.06,182.19,490.13,181.8,490.2,181.34Z"/><path class="cls-16" d="M508.71,181.39h-2.56L504.48,191h-1.56l1.67-9.59h-2.3l.25-1.31h2.26l.51-3a7.72,7.72,0,0,1,.45-1.55,4.27,4.27,0,0,1,.8-1.28,3.5,3.5,0,0,1,1.2-.87,3.76,3.76,0,0,1,1.63-.33l.63,0a5.34,5.34,0,0,1,.65.13l-.37,1.38a3.76,3.76,0,0,0-1.1-.14,2.06,2.06,0,0,0-1,.21,1.76,1.76,0,0,0-.68.59,3.28,3.28,0,0,0-.44.9,6,6,0,0,0-.27,1.09l-.49,2.79H509Z"/><path class="cls-16" d="M511,181.34c.07-.47.12-.88.15-1.26h1.49c0,.3-.07.62-.11,1s-.1.65-.14.89h0A5,5,0,0,1,514,180.4a3.79,3.79,0,0,1,2.1-.6,4.22,4.22,0,0,1,.53,0,2.21,2.21,0,0,1,.49.09l-.37,1.49a2.31,2.31,0,0,0-.43-.09,4.6,4.6,0,0,0-.64,0,3.58,3.58,0,0,0-1.24.23,3.14,3.14,0,0,0-1.1.74,4.67,4.67,0,0,0-.89,1.28,7.24,7.24,0,0,0-.57,1.87l-1,5.59h-1.56l1.49-8.5C510.85,182.19,510.91,181.8,511,181.34Z"/><path class="cls-16" d="M519,191h-1.56l1.93-10.9h1.56Zm2.86-15.11a1.09,1.09,0,0,1-.31.79,1,1,0,0,1-.78.33,1.13,1.13,0,0,1-.76-.28,1,1,0,0,1-.31-.77,1.11,1.11,0,0,1,.33-.82,1.13,1.13,0,0,1,.78-.32,1.05,1.05,0,0,1,.75.29A1,1,0,0,1,521.84,175.87Z"/><path class="cls-16" d="M524.8,186a2.51,2.51,0,0,0,0,.27,2,2,0,0,0,0,.24,3.55,3.55,0,0,0,.27,1.41,3.49,3.49,0,0,0,.74,1.1,3.37,3.37,0,0,0,1.12.72,3.55,3.55,0,0,0,1.39.26,4.28,4.28,0,0,0,2.23-.57A5.19,5.19,0,0,0,532,188l1,.93a6.14,6.14,0,0,1-2.21,1.71,6.41,6.41,0,0,1-2.67.58,5.72,5.72,0,0,1-2-.33,4.74,4.74,0,0,1-1.57-.93,4.4,4.4,0,0,1-1.05-1.5,5.26,5.26,0,0,1-.38-2,6.68,6.68,0,0,1,.49-2.54A6.76,6.76,0,0,1,525,181.8a6.63,6.63,0,0,1,2-1.45,5.74,5.74,0,0,1,2.48-.55,4.5,4.5,0,0,1,3.38,1.19,4.22,4.22,0,0,1,1.15,3.07c0,.19,0,.47,0,.85a6.1,6.1,0,0,1-.17,1Zm7.61-1.17c0-.12,0-.25,0-.4s0-.29,0-.41a2.87,2.87,0,0,0-.76-2.06,3,3,0,0,0-2.26-.8,4.18,4.18,0,0,0-1.6.29,4.34,4.34,0,0,0-1.3.8,4.78,4.78,0,0,0-1,1.18,4.33,4.33,0,0,0-.56,1.4Z"/><path class="cls-16" d="M539.74,180.08c0,.3-.07.62-.12,1s-.09.65-.14.89h0a4.62,4.62,0,0,1,1.62-1.58,4.19,4.19,0,0,1,2.12-.57,4,4,0,0,1,2.76.9,3.13,3.13,0,0,1,1,2.43,5.27,5.27,0,0,1,0,.56c0,.19,0,.39-.08.61l-1.2,6.68h-1.57l1.07-6a7.51,7.51,0,0,0,.14-1.38,2.76,2.76,0,0,0-.54-1.8,2.29,2.29,0,0,0-1.88-.66,3.33,3.33,0,0,0-1.26.25,3.67,3.67,0,0,0-1.17.79,5.31,5.31,0,0,0-1,1.34,6.33,6.33,0,0,0-.6,1.9L538,191h-1.56l1.49-8.5c.06-.29.13-.68.2-1.14s.12-.88.15-1.26Z"/><path class="cls-16" d="M549.77,186.55a7.22,7.22,0,0,1,.48-2.63,6.47,6.47,0,0,1,1.34-2.14,6.57,6.57,0,0,1,2-1.44,6.08,6.08,0,0,1,2.55-.54,4.77,4.77,0,0,1,2.23.54,3.58,3.58,0,0,1,1.57,1.58h0l1.52-8.54h1.56L560,191h-1.56l.32-1.8h0a4.6,4.6,0,0,1-1.61,1.46,4.71,4.71,0,0,1-2.4.62,5.8,5.8,0,0,1-2-.34,4.58,4.58,0,0,1-1.55-1,4.25,4.25,0,0,1-1-1.49A5.08,5.08,0,0,1,549.77,186.55Zm1.63-.1a4.34,4.34,0,0,0,.22,1.38,3.15,3.15,0,0,0,.67,1.11,3,3,0,0,0,1.07.74,3.66,3.66,0,0,0,1.46.27,4.38,4.38,0,0,0,1.91-.42,4.82,4.82,0,0,0,1.54-1.15,5.7,5.7,0,0,0,1-1.7,5.53,5.53,0,0,0,.37-2.05,4,4,0,0,0-.24-1.41,3.19,3.19,0,0,0-.71-1.12,3.09,3.09,0,0,0-1.12-.74,3.89,3.89,0,0,0-1.44-.25,4.41,4.41,0,0,0-1.94.42,4.46,4.46,0,0,0-1.5,1.14,5,5,0,0,0-1,1.69A6.19,6.19,0,0,0,551.4,186.45Z"/><path class="cls-16" d="M571.7,182.48a2.58,2.58,0,0,0-1-1,3,3,0,0,0-1.56-.38,4.43,4.43,0,0,0-.87.09,3,3,0,0,0-.84.3,1.86,1.86,0,0,0-.63.55,1.38,1.38,0,0,0-.24.83,1.54,1.54,0,0,0,.15.72,1.37,1.37,0,0,0,.43.47,2.81,2.81,0,0,0,.67.35,7.53,7.53,0,0,0,.91.29,6.9,6.9,0,0,1,2.45,1.18,2.47,2.47,0,0,1,.83,2,2.9,2.9,0,0,1-.39,1.53,3.58,3.58,0,0,1-1,1,4.3,4.3,0,0,1-1.35.59,6.31,6.31,0,0,1-1.47.19,6.51,6.51,0,0,1-2.57-.51,4,4,0,0,1-1.87-1.54l1.35-.89a3.26,3.26,0,0,0,1.18,1.15,3.48,3.48,0,0,0,1.84.48,4.71,4.71,0,0,0,1-.1,3,3,0,0,0,.88-.33,1.79,1.79,0,0,0,.61-.58,1.51,1.51,0,0,0,.24-.85,1.48,1.48,0,0,0-.69-1.32,8.06,8.06,0,0,0-2-.88c-.32-.11-.65-.23-1-.37A3.34,3.34,0,0,1,566,185a2.6,2.6,0,0,1-.64-.82,2.51,2.51,0,0,1-.24-1.15,2.64,2.64,0,0,1,.38-1.45,3.19,3.19,0,0,1,1-1,4.14,4.14,0,0,1,1.34-.57,6.26,6.26,0,0,1,1.48-.19,5.1,5.1,0,0,1,2.25.49,3.11,3.11,0,0,1,1.43,1.31Z"/><path class="cls-16" d="M587.85,182.48a2.58,2.58,0,0,0-1-1,3,3,0,0,0-1.55-.38,4.53,4.53,0,0,0-.88.09,3,3,0,0,0-.84.3,1.83,1.83,0,0,0-.62.55,1.32,1.32,0,0,0-.25.83,1.54,1.54,0,0,0,.15.72,1.47,1.47,0,0,0,.43.47,2.71,2.71,0,0,0,.68.35,6.54,6.54,0,0,0,.91.29,6.84,6.84,0,0,1,2.44,1.18,2.48,2.48,0,0,1,.84,2,2.82,2.82,0,0,1-.4,1.53,3.46,3.46,0,0,1-1,1,4.11,4.11,0,0,1-1.35.59,6.24,6.24,0,0,1-1.47.19,6.51,6.51,0,0,1-2.57-.51,4,4,0,0,1-1.87-1.54l1.35-.89a3.21,3.21,0,0,0,1.19,1.15,3.46,3.46,0,0,0,1.84.48,4.78,4.78,0,0,0,1-.1,3,3,0,0,0,.87-.33,1.82,1.82,0,0,0,.62-.58,1.59,1.59,0,0,0,.23-.85,1.48,1.48,0,0,0-.69-1.32,8.06,8.06,0,0,0-2-.88c-.32-.11-.65-.23-1-.37a3.4,3.4,0,0,1-.89-.55,2.75,2.75,0,0,1-.64-.82,2.51,2.51,0,0,1-.24-1.15,2.72,2.72,0,0,1,.38-1.45,3.3,3.3,0,0,1,1-1,4.24,4.24,0,0,1,1.34-.57,6.27,6.27,0,0,1,1.49-.19,5.05,5.05,0,0,1,2.24.49,3.19,3.19,0,0,1,1.44,1.31Z"/><path class="cls-16" d="M592.79,180.08l.74,8.85h.05l4.61-8.85h1.49l1.28,8.85H601l4.35-8.85h1.67L601.49,191h-1.67l-1.24-8.83h0L594,191h-1.66l-1.18-10.9Z"/><path class="cls-16" d="M609.43,191h-1.56l1.93-10.9h1.56Zm2.86-15.11a1.09,1.09,0,0,1-.31.79,1,1,0,0,1-.78.33,1.13,1.13,0,0,1-.76-.28,1,1,0,0,1-.31-.77,1.11,1.11,0,0,1,.33-.82,1.13,1.13,0,0,1,.78-.32,1.05,1.05,0,0,1,.75.29A1,1,0,0,1,612.29,175.87Z"/><path class="cls-16" d="M617,181.85a3.48,3.48,0,0,1,.67-.79,4.56,4.56,0,0,1,1-.65,5,5,0,0,1,1.12-.44,4.85,4.85,0,0,1,1.26-.17,5.72,5.72,0,0,1,2,.34,4.48,4.48,0,0,1,1.55,1,4.12,4.12,0,0,1,1,1.49,4.89,4.89,0,0,1,.35,1.91,7,7,0,0,1-.49,2.63,6.63,6.63,0,0,1-1.34,2.14,6.41,6.41,0,0,1-2,1.44,6,6,0,0,1-2.55.54,4.73,4.73,0,0,1-2.22-.54,3.53,3.53,0,0,1-1.57-1.58h0l-1.33,7.42h-1.56l2.94-16.48h1.56l-.33,1.77Zm7.28,2.76a4.14,4.14,0,0,0-.22-1.37,3.22,3.22,0,0,0-.66-1.12,3,3,0,0,0-1.07-.74,3.71,3.71,0,0,0-1.47-.27,4.41,4.41,0,0,0-1.91.42,4.67,4.67,0,0,0-1.53,1.15,5.46,5.46,0,0,0-1,1.71,5.55,5.55,0,0,0-.37,2,4,4,0,0,0,.24,1.41,3.34,3.34,0,0,0,.71,1.12,3.27,3.27,0,0,0,1.11.74,3.9,3.9,0,0,0,1.45.25,4.43,4.43,0,0,0,1.95-.42,4.67,4.67,0,0,0,1.5-1.14,5.22,5.22,0,0,0,1-1.69A6.49,6.49,0,0,0,624.23,184.61Z"/><path class="cls-16" d="M629.87,186a2.51,2.51,0,0,0,0,.27,2,2,0,0,0,0,.24,3.55,3.55,0,0,0,.27,1.41,3.19,3.19,0,0,0,.74,1.1,3.37,3.37,0,0,0,1.12.72,3.53,3.53,0,0,0,1.38.26,4.29,4.29,0,0,0,2.24-.57A5.15,5.15,0,0,0,637.1,188l1,.93a6.14,6.14,0,0,1-2.21,1.71,6.42,6.42,0,0,1-2.68.58,5.66,5.66,0,0,1-2-.33,4.64,4.64,0,0,1-1.57-.93,4.4,4.4,0,0,1-1-1.5,5.08,5.08,0,0,1-.38-2,6.86,6.86,0,0,1,.48-2.54,7.14,7.14,0,0,1,1.34-2.12,6.8,6.8,0,0,1,2-1.45,5.72,5.72,0,0,1,2.47-.55,4.53,4.53,0,0,1,3.39,1.19,4.22,4.22,0,0,1,1.15,3.07c0,.19,0,.47,0,.85a6.1,6.1,0,0,1-.17,1Zm7.61-1.17c0-.12,0-.25,0-.4s0-.29,0-.41a2.87,2.87,0,0,0-.76-2.06,3,3,0,0,0-2.26-.8,4.18,4.18,0,0,0-1.6.29,4.22,4.22,0,0,0-1.3.8,5.05,5.05,0,0,0-1,1.18,4.54,4.54,0,0,0-.55,1.4Z"/><path class="cls-16" d="M653.56,181.39H651L649.32,191h-1.55l1.67-9.59h-2.3l.25-1.31h2.26l.51-3a7.12,7.12,0,0,1,.45-1.55,4.08,4.08,0,0,1,.8-1.28,3.5,3.5,0,0,1,1.2-.87,3.76,3.76,0,0,1,1.63-.33l.62,0a5.13,5.13,0,0,1,.66.13l-.38,1.38a3.69,3.69,0,0,0-1.09-.14,2.13,2.13,0,0,0-1,.21,1.8,1.8,0,0,0-.67.59,3.28,3.28,0,0,0-.44.9,6,6,0,0,0-.27,1.09l-.49,2.79h2.61Z"/><path class="cls-16" d="M659.12,191.26a5.75,5.75,0,0,1-2-.35,5,5,0,0,1-1.6-1,4.37,4.37,0,0,1-1-1.49,4.8,4.8,0,0,1-.37-1.92,7.27,7.27,0,0,1,.47-2.6,6.85,6.85,0,0,1,1.34-2.14,6.52,6.52,0,0,1,2.05-1.45,6.22,6.22,0,0,1,2.61-.54,6,6,0,0,1,2,.34,4.66,4.66,0,0,1,1.59,1,4.47,4.47,0,0,1,1,1.49,4.72,4.72,0,0,1,.38,1.91,7.22,7.22,0,0,1-.48,2.63,6.63,6.63,0,0,1-1.34,2.14,6.54,6.54,0,0,1-2,1.44A6.22,6.22,0,0,1,659.12,191.26Zm4.85-6.65a3.94,3.94,0,0,0-.24-1.39,3,3,0,0,0-.68-1.11,3.12,3.12,0,0,0-1.1-.73,3.81,3.81,0,0,0-1.47-.27,4.12,4.12,0,0,0-1.88.43,4.79,4.79,0,0,0-1.48,1.17,5.51,5.51,0,0,0-1,1.7,5.84,5.84,0,0,0-.36,2,4.18,4.18,0,0,0,.23,1.39,3.16,3.16,0,0,0,.69,1.11,3.21,3.21,0,0,0,1.09.73,3.71,3.71,0,0,0,1.45.27,4.23,4.23,0,0,0,1.92-.43,4.69,4.69,0,0,0,1.49-1.16,5.14,5.14,0,0,0,1-1.69A6.06,6.06,0,0,0,664,184.61Z"/><path class="cls-16" d="M669.7,181.34c.07-.47.12-.88.15-1.26h1.49c0,.3-.07.62-.11,1s-.1.65-.14.89h0a5,5,0,0,1,1.54-1.55,3.79,3.79,0,0,1,2.1-.6,4.11,4.11,0,0,1,.53,0,2.21,2.21,0,0,1,.49.09l-.37,1.49a2.31,2.31,0,0,0-.43-.09,4.6,4.6,0,0,0-.64,0,3.58,3.58,0,0,0-1.24.23,3.14,3.14,0,0,0-1.1.74,4.67,4.67,0,0,0-.89,1.28,7.24,7.24,0,0,0-.57,1.87l-1,5.59H668l1.48-8.5C669.57,182.19,669.63,181.8,669.7,181.34Z"/><path class="cls-16" d="M685.5,189.25h0l5.31-9.17h1.75l-8.24,13.71a9.67,9.67,0,0,1-1.59,2,2.87,2.87,0,0,1-2,.75,6,6,0,0,1-1.33-.14l.23-1.44a3.17,3.17,0,0,0,1,.19,1.87,1.87,0,0,0,1.29-.5,6.12,6.12,0,0,0,1.08-1.44L684.4,191l-2.28-10.87h1.63Z"/><path class="cls-16" d="M698.16,191.26a5.81,5.81,0,0,1-2-.35,4.88,4.88,0,0,1-1.59-1,4.4,4.4,0,0,1-1-1.49,4.8,4.8,0,0,1-.37-1.92,7.06,7.06,0,0,1,.48-2.6,6.68,6.68,0,0,1,1.34-2.14,6.37,6.37,0,0,1,2-1.45,6.25,6.25,0,0,1,2.61-.54,6,6,0,0,1,2,.34,4.61,4.61,0,0,1,1.58,1,4.49,4.49,0,0,1,1,1.49,4.72,4.72,0,0,1,.37,1.91,7.22,7.22,0,0,1-.48,2.63,6.37,6.37,0,0,1-3.38,3.58A6.29,6.29,0,0,1,698.16,191.26Zm4.84-6.65a4.18,4.18,0,0,0-.23-1.39,3.16,3.16,0,0,0-.69-1.11,3.12,3.12,0,0,0-1.1-.73,3.76,3.76,0,0,0-1.46-.27,4.09,4.09,0,0,0-1.88.43,4.83,4.83,0,0,0-1.49,1.17,5.48,5.48,0,0,0-1,1.7,5.84,5.84,0,0,0-.36,2,3.94,3.94,0,0,0,.23,1.39,3,3,0,0,0,.68,1.11,3.31,3.31,0,0,0,1.09.73,3.73,3.73,0,0,0,1.46.27,4.22,4.22,0,0,0,1.91-.43,4.73,4.73,0,0,0,1.5-1.16,5.3,5.3,0,0,0,1-1.69A6.06,6.06,0,0,0,703,184.61Z"/><path class="cls-16" d="M714.68,191c0-.3.07-.62.12-1s.09-.65.14-.89h-.05a4.59,4.59,0,0,1-1.61,1.58,4.18,4.18,0,0,1-2.11.57,4,4,0,0,1-2.76-.89,3.09,3.09,0,0,1-1-2.42,3.52,3.52,0,0,1,0-.56c0-.18,0-.39.08-.6l1.2-6.68h1.57l-1.07,6a7,7,0,0,0-.14,1.38,2.77,2.77,0,0,0,.53,1.79,2.33,2.33,0,0,0,1.88.65,3.24,3.24,0,0,0,1.25-.25,3.78,3.78,0,0,0,1.18-.78,5.29,5.29,0,0,0,1-1.33,6.33,6.33,0,0,0,.6-1.9l1-5.58H718l-1.49,8.49c-.07.3-.13.67-.2,1.14s-.12.87-.15,1.24Z"/><use width="388.79" height="310.87" transform="translate(274.11 253.25) scale(0.24)" xlink:href="#Paris_4"/><g id="Character"><ellipse class="cls-39" cx="504.77" cy="332.06" rx="15.5" ry="1.8"/><use width="243.82" height="483.31" transform="translate(481.9 245.79) scale(0.18)" xlink:href="#Character-2"/><path id="Phone" class="cls-40" d="M507.21,308.46l-6.63.08a.74.74,0,0,1-.84-.61l-.22-11.27a.73.73,0,0,1,.62-.83h7.26a.74.74,0,0,1,.84.61l-.42,11.2A.73.73,0,0,1,507.21,308.46Z"/><path class="cls-17" d="M509.15,294.07l3.57,7.82a2.7,2.7,0,0,0,3.78.52h0a2.7,2.7,0,0,0,.52-3.75c-5-7.21-4.46-11.26-7.81-11.19C508.81,287.48,508.86,293.42,509.15,294.07Z"/><path class="cls-17" d="M516.63,303c-4.4,1.48-12.68,3.35-12.68,3.35-1.07.13-1.74-7.75-.87-7.13,3.45,2.48,6.17-1.39,10.9-.93,1.08.11,3,0,3.63,1.89A2.57,2.57,0,0,1,516.63,303Z"/><g id="RightArm"><path class="cls-41" d="M500.8,305.75a1.39,1.39,0,0,1,1.08-1.3c-.59-.17-1.67-.72-1.65-1.36a1.39,1.39,0,0,1,1.06-1.29,1.37,1.37,0,0,1-1-1.35,1.38,1.38,0,0,1,1.43-1.33l5.67.26a1.37,1.37,0,0,1,1.33,1.42c0,.63-.22,1.06-.81,1.21.58.18.74.8.72,1.43a1.38,1.38,0,0,1-1.43,1.33l-.51,0c.51.22.61.57.52,1.14-.16,1-1.24,1.27-2,1.25l-3.18-.21C501.3,306.9,500.78,306.5,500.8,305.75Z"/></g><path class="cls-42" d="M508.75,300.8a1.37,1.37,0,0,0-1.33-1.42l-.45,0-2,7.68.29.06c.76,0,1.84-.26,2-1.25.09-.57.92-1.58.95-2.34S508.73,301.43,508.75,300.8Z"/><path class="cls-17" d="M498,293.94l-3.56,7.83a2.7,2.7,0,0,1-3.78.51h0a2.7,2.7,0,0,1-.52-3.75c5-7.21,4.45-11.26,7.81-11.19C498.32,287.35,498.27,293.29,498,293.94Z"/><path class="cls-17" d="M490.5,302.92c4.4,1.47,12.68,3.34,12.68,3.34,1.07.13,1.74-7.75.87-7.13-3.45,2.48-6.17-1.39-10.9-.93-1.08.11-3,0-3.63,1.89A2.59,2.59,0,0,0,490.5,302.92Z"/><g id="RightArm-2" data-name="RightArm"><path class="cls-17" d="M506.33,305.62a1.38,1.38,0,0,0-1.08-1.29c.59-.18,1.67-.73,1.65-1.37a1.38,1.38,0,0,0-1.06-1.28,1.38,1.38,0,0,0-.46-2.69l-5.67.26a1.37,1.37,0,0,0-1.33,1.42c0,.63.22,1.07.81,1.21-.58.18-.75.81-.72,1.43a1.38,1.38,0,0,0,1.43,1.33l.51,0c-.51.22-.61.57-.52,1.15.16,1,1.24,1.26,2,1.24l3.18-.21C505.83,306.77,506.35,306.38,506.33,305.62Z"/></g><path class="cls-43" d="M498.38,300.67a1.37,1.37,0,0,1,1.33-1.42l.45,0,2,7.69-.29.05c-.76,0-1.84-.26-2-1.24-.09-.58-.92-1.59-.95-2.34S498.4,301.3,498.38,300.67Z"/></g><ellipse class="cls-3" cx="497.86" cy="264.29" rx="4.95" ry="4.92"/><g class="cls-44"><ellipse class="cls-8" cx="497.78" cy="264.69" rx="3.3" ry="3.28"/><ellipse class="cls-3" cx="498.9" cy="263.56" rx="1.23" ry="1.22"/></g><ellipse class="cls-3" cx="509.91" cy="264.38" rx="4.95" ry="4.92"/><g class="cls-45"><ellipse class="cls-8" cx="509.9" cy="264.69" rx="3.3" ry="3.28"/><ellipse class="cls-3" cx="511.02" cy="263.56" rx="1.23" ry="1.22"/></g><path class="cls-46" d="M507.48,276.36c-1.75,2.91-6.87,1.32-7,.28"/><use width="582.4" height="331.66" transform="translate(543.92 268.53) scale(0.18)" xlink:href="#Seattle_2"/><use width="516.34" height="639" transform="translate(556.64 241.59) scale(0.14)" xlink:href="#Meddlers"/><path class="cls-47" d="M580.51,275.76a.47.47,0,0,0-.62.27c-.15.31-1.95,1.05-5.31,1.12s-5.15-.81-5.31-1.12a.48.48,0,1,0-.89.35c.4,1,3,1.59,5.58,1.71l.15,0h.94l.15,0c2.58-.12,5.18-.67,5.59-1.71A.48.48,0,0,0,580.51,275.76Z"/><ellipse class="cls-3" cx="568.08" cy="263.18" rx="5.12" ry="5.09"/><g class="cls-48"><ellipse class="cls-8" cx="566.04" cy="263.69" rx="3.41" ry="3.39"/><ellipse class="cls-3" cx="569.29" cy="263.62" rx="1.27" ry="1.26"/></g><ellipse class="cls-3" cx="580.55" cy="263.28" rx="5.12" ry="5.09"/><g class="cls-49"><ellipse class="cls-8" cx="578.58" cy="263.69" rx="3.41" ry="3.39"/><ellipse class="cls-3" cx="581.83" cy="263.62" rx="1.27" ry="1.26"/></g><ellipse class="cls-3" cx="604.77" cy="260.51" rx="5.12" ry="5.09"/><g class="cls-50"><ellipse class="cls-8" cx="602.73" cy="261.02" rx="3.41" ry="3.39"/><ellipse class="cls-3" cx="605.98" cy="260.95" rx="1.27" ry="1.26"/></g><ellipse class="cls-3" cx="617.24" cy="260.61" rx="5.12" ry="5.09"/><g class="cls-51"><ellipse class="cls-8" cx="615.27" cy="261.02" rx="3.41" ry="3.39"/><ellipse class="cls-3" cx="618.52" cy="260.95" rx="1.27" ry="1.26"/></g><use width="196.44" height="116.59" transform="translate(595.95 241.59) scale(0.18 0.18)" xlink:href="#Hair_Parted_Wavy_2"/><path class="cls-8" d="M590,259.4H558.53v-3c0-4.37,7.81-10.24,12.21-10.24h6.91c4.4,0,12.32,5.87,12.32,10.24Z"/><use width="409.92" height="332.26" transform="translate(386.65 267) scale(0.18)" xlink:href="#Mountains_2"/><g id="BikeGuy"><ellipse class="cls-39" cx="429.26" cy="332.06" rx="23.25" ry="1.8"/><use width="272.92" height="529.95" transform="translate(404.7 238.67) scale(0.18)" xlink:href="#BikeGuy-2"/><circle class="cls-3" cx="426.18" cy="262.38" r="5.08"/><g class="cls-52"><circle class="cls-8" cx="426.08" cy="262.9" r="3.39"/><circle class="cls-3" cx="425.67" cy="261.03" r="1.26"/></g><circle class="cls-3" cx="438.55" cy="262.48" r="5.08"/><g class="cls-53"><circle class="cls-8" cx="438.51" cy="262.9" r="3.39"/><circle class="cls-3" cx="438.1" cy="261.03" r="1.26"/></g></g><circle class="cls-3" cx="426.18" cy="262.38" r="5.08"/><g class="cls-52"><circle class="cls-8" cx="428.14" cy="263.21" r="3.39"/><circle class="cls-3" cx="425.67" cy="261.03" r="1.26"/></g><circle class="cls-3" cx="438.55" cy="262.48" r="5.08"/><g class="cls-53"><circle class="cls-8" cx="440.58" cy="263.21" r="3.39"/><circle class="cls-3" cx="438.1" cy="261.03" r="1.26"/></g><use width="277.81" height="250.34" transform="translate(661.61 239.82) scale(0.23)" xlink:href="#Home_2"/><use width="222.92" height="390.13" transform="translate(665.94 242.44) scale(0.23)" xlink:href="#Heels"/><circle class="cls-3" cx="677.94" cy="261.65" r="4.88"/><g class="cls-54"><circle class="cls-8" cx="675.78" cy="261.82" r="3.25"/><circle class="cls-3" cx="678.95" cy="260.2" r="1.21"/></g><circle class="cls-3" cx="689.83" cy="261.74" r="4.88"/><g class="cls-55"><circle class="cls-8" cx="687.73" cy="261.82" r="3.25"/><circle class="cls-3" cx="690.9" cy="260.2" r="1.21"/></g><ellipse class="cls-39" cx="340.33" cy="332.06" rx="26.85" ry="2.08"/><g id="Hoodie-2" data-name="Hoodie"><path class="cls-56" d="M300.65,268.68c0-14.65,8.91-27.59,21.23-27.49,11.72.09,21.23,12.84,21.23,27.49s-9.51,26.54-21.23,26.54S300.65,283.34,300.65,268.68Z"/><path class="cls-57" d="M336,261.49v-5.22a14.15,14.15,0,0,0-14.11-14.12h0a14.16,14.16,0,0,0-14.12,14.12v5.22a5,5,0,0,0,.64,10,14.18,14.18,0,0,0,11.36,9.77v9.15c0,.87,1.33,1.57,2.06,1.57s2.06-.7,2.06-1.57v-9.13a14.21,14.21,0,0,0,11.48-9.79,5,5,0,0,0,.63-10Z"/><circle class="cls-3" cx="315.52" cy="260.14" r="5.24"/><g class="cls-58"><circle class="cls-8" cx="317.46" cy="260.72" r="3.49"/><circle class="cls-3" cx="317.04" cy="258.75" r="1.3"/></g><circle class="cls-3" cx="328.27" cy="260.24" r="5.24"/><g class="cls-59"><circle class="cls-8" cx="330.28" cy="260.72" r="3.49"/><circle class="cls-3" cx="329.85" cy="258.75" r="1.3"/></g><g class="cls-5"><path class="cls-6" d="M322,281.43h0a13.86,13.86,0,0,1-2.15-.17v3.58c1.14-2.54,3.5-2.93,4.07-3.55A13.56,13.56,0,0,1,322,281.43Z"/><path class="cls-7" d="M336.05,267.31v-4.79a4,4,0,0,1-.36,7.93A14.12,14.12,0,0,0,336.05,267.31Z"/><path class="cls-7" d="M307.83,267.31v-4.79a4,4,0,0,0,.36,7.93A14.12,14.12,0,0,1,307.83,267.31Z"/><ellipse class="cls-6" cx="321.89" cy="266.84" rx="2.06" ry="0.81"/></g><g id="Shoes-9" data-name="Shoes"><path class="cls-57" d="M324.36,329.07v0c0-.08,0-.14.05-.17.69-2.88-1.64-21.89-1.64-21.89l4.61-.32s-.07,18.11.89,22.21c1,.24,2.36,1,2.86,1,1.62,0,2.51-.41,2.51,1.22v.05c0,.89-.72,1.25-1.62,1.25H325.6l-.71-.2c-.57-.13-.8-.81-.83-1.39,0,0,.12-.78.22-1.35A.88.88,0,0,1,324.36,329.07Z"/></g><path class="cls-57" d="M314.21,330.89A9.94,9.94,0,0,0,316,328c.9-5.29,0-21.22,0-21.22h4.62s-1,15.68,0,21.22a9.44,9.44,0,0,0,1.85,3.06S312.68,332.42,314.21,330.89Z"/><path class="cls-12" d="M316,306.8a5.79,5.79,0,0,1,11.56,0c0,.46,0,.88-.05,1.26l.8,12c.07,1.08-4.54,1.4-4.62.31l-.54-8.12h-2.53v8c0,1.09-4.62,1.09-4.62,0V306.8Z"/><path class="Anon-2315" d="M314.55,330.14c1.2-.47,5.57-.5,7.91.24.66.21,0,2.37,0,2.37l0-2.37-7.77.32-.85,1.68s.39.38,0,.24A1.88,1.88,0,0,1,314.55,330.14Z"/><path class="cls-57" d="M317,330.38l2.37-.38,1.34-.35c1.63,0,1.76-.2,1.76,1.43v1.67h-8.64v-1.67C315.24,330,315.38,330.38,317,330.38Z"/><g id="Shoes-10" data-name="Shoes"><path class="cls-13" d="M324,332.75h8.21c.81,0,1.65.08,1.65-.73a30.56,30.56,0,0,0-4.33.14,15.06,15.06,0,0,1-5.53-.24Z"/><path class="cls-13" d="M322.48,332.38v.37h-8.64v-.37C313.84,331.55,322.48,331.69,322.48,332.38Z"/></g><path class="Anon-2315" d="M331.38,329.49l-1.46-.21a1.63,1.63,0,0,0-1.81.72,4.84,4.84,0,0,0-.54,2.52l1.51-.09s-.11-1.72.51-2.18a3.67,3.67,0,0,1,1.92-.38S331.64,329.59,331.38,329.49Z"/><path class="cls-60" d="M328.83,285.4a.78.78,0,0,0-.78-.82H323.9a2.07,2.07,0,1,1-4.12,0h-4.42a.88.88,0,0,0-.87,1s-.2,14.06.45,18.28c0,.12.35.1.41.19.39.58,0,2.31.5,2.79h11.81c.43-.44.09-1.88.3-2.47,0-.13.33-.28.35-.41C329.1,299.55,328.83,285.4,328.83,285.4Z"/><g id="Hoodie-3" data-name="Hoodie"><path class="cls-13" d="M321.8,287c-.5-.75-2-.91-2-2.31,0-.63,0-1.94,0-2.63,0-.14-1.21,0-2.07.87-1.64-.1-2.66,1.1-2.34,1.76,1.27,2.69,4.71,2.27,6.43,3.21C321.83,287.87,321.8,287,321.8,287Z"/><path class="cls-13" d="M321.87,286.94c.26-.57,2-.91,2-2.31,0-.63,0-1.94,0-2.63,0-.14,1.21,0,2.07.87,1.64-.1,2.66,1.1,2.34,1.76-1.27,2.69-4.71,2.27-6.43,3.21C321.84,287.86,321.87,286.94,321.87,286.94Z"/></g><g id="Straps-2" data-name="Straps"><path id="Right-2" data-name="Right" d="M319.79,292.41h-.42l0-5.23a.64.64,0,0,1,0-.24h.38s0,.09,0,.2Z"/><path id="Left-2" data-name="Left" d="M324.47,291h-.42l0-4.28a.35.35,0,0,1,0-.19h.38s0,.07,0,.16Z"/></g><g id="Zipper-2" data-name="Zipper"><path id="Line-2" data-name="Line" d="M322.6,306.87h-.43s-.51-20-.5-20h.38S322.6,306.87,322.6,306.87Z"/><polygon id="Head-2" data-name="Head" class="cls-3" points="322.2 288.78 321.47 288.78 321.6 286.89 322.07 286.89 322.2 288.78"/></g><path class="cls-56" d="M314.3,244.37c-1.45,3.23,1.47,7.52,8.59,11.28s18,4.48,18.84,3.65-2.71.79-4.66-3c0,0,1.78-4.88-5.61-11.28S316.06,240.46,314.3,244.37Z"/><path class="cls-56" d="M307.8,262.48s-4.34-7.48-1.41-12.15,5.42-5.53,7.91-6,3.15,9-2.82,9.87C309.25,254.54,307.58,256.62,307.8,262.48Z"/><path class="cls-60" d="M316.78,288.88l-4.71,7.51a2.19,2.19,0,0,1-3.07.43h0a2.19,2.19,0,0,1-.43-3.07l6.36-9.16C315.12,284.29,317,288.35,316.78,288.88Z"/><path class="cls-60" d="M308.89,297.33c3.58,1.21,10.31,2.74,10.31,2.74.87.11,1.42-6.34.71-5.83-2.81,2-5-1.14-8.86-.76-.88.09-2.42,0-2.95,1.54A2.11,2.11,0,0,0,308.89,297.33Z"/><g id="RightArm-3" data-name="RightArm"><path id="Phone-2" data-name="Phone" class="cls-21" d="M325.24,301.33l-4.27,0a.6.6,0,0,1-.68-.51l-1.37-9.07a.6.6,0,0,1,.51-.68l6.07-.11a.6.6,0,0,1,.68.51l-.43,9.16A.6.6,0,0,1,325.24,301.33Z"/><path class="cls-57" d="M325,299.55a1.13,1.13,0,0,0-.88-1.06c.48-.15,1.36-.6,1.34-1.12a1.13,1.13,0,0,0-.86-1.05,1.13,1.13,0,0,0-.38-2.2l-6.2.21a1.14,1.14,0,0,0-1.09,1.17c0,.51.19.87.66,1-.46.15-.6.66-.58,1.17a1.13,1.13,0,0,0,1.16,1.09l.42,0c-.42.18-.5.47-.42.94.12.8,1,1,1.62,1l4.18-.17C324.55,300.49,325,300.16,325,299.55Z"/></g><path class="cls-43" d="M316.92,295.49a1.13,1.13,0,0,1,1.09-1.16l1.77,6.34c-.62,0-1.5-.2-1.62-1-.08-.47-.75-1.3-.77-1.92S316.94,296,316.92,295.49Z"/></g><path id="Phone-3" data-name="Phone" class="cls-21" d="M687.17,298.34l-3.85,0a.54.54,0,0,1-.61-.42l-1.23-7.53a.5.5,0,0,1,.45-.56l5.47-.08a.53.53,0,0,1,.61.42l-.39,7.58A.51.51,0,0,1,687.17,298.34Z"/><g id="Heels-3" data-name="Heels"><path class="Anon-2414" d="M688,288.24l4.24,6.23a2.08,2.08,0,0,0,2.76.35h0a1.73,1.73,0,0,0,.38-2.55l-6.1-7.61C689.1,284.41,687.78,287.8,688,288.24Z"/><path class="Anon-2414" d="M695.1,295.25c-3.22,1-9.29,2.27-9.29,2.27-.78.09-1.28-5.26-.64-4.84,2.53,1.68,4.52-.94,8-.63.79.07,2.17,0,2.65,1.28A1.7,1.7,0,0,1,695.1,295.25Z"/><g id="RightArm-4" data-name="RightArm"><path id="Phone-4" data-name="Phone" class="cls-1" d="M680.38,298.56l3.84,0a.53.53,0,0,0,.61-.42l1.23-7.52a.5.5,0,0,0-.45-.56l-5.47-.09a.53.53,0,0,0-.61.42l.39,7.59A.5.5,0,0,0,680.38,298.56Z"/><path class="cls-18" d="M682.18,297.08a1,1,0,0,1,.78-.88c-.43-.11-1.22-.49-1.2-.92a.93.93,0,0,1,.77-.87,1,1,0,0,1-.71-.92,1,1,0,0,1,1-.9l5.59.17a1,1,0,0,1,1,1,.76.76,0,0,1-.6.83.86.86,0,0,1,.53,1c0,.51-1,1.27-1,1.66-.12.67-.91.86-1.47.84l-3.76-.14C682.54,297.86,682.16,297.59,682.18,297.08Z"/></g><path class="cls-43" d="M689.41,293.72a1,1,0,0,0-1-1L686.84,298c.55,0,1.35-.18,1.46-.84.07-.39.67-1.08.69-1.59S689.39,294.14,689.41,293.72Z"/></g><path class="cls-61" d="M687.57,273.37c0,1.65-1.65,3-3.69,3s-3.69-1.34-3.69-3"/><path class="cls-62" d="M316.81,271a4.93,4.93,0,0,0,9.86,0"/><use width="90" height="34.44" transform="translate(423.99 272.17) scale(0.19)" xlink:href="#Mouth_Yes_2"/><g id="Hoodie-4" data-name="Hoodie"><circle class="Anon-2414" cx="369.8" cy="332.64" r="3.2"/><ellipse class="cls-63" cx="366.85" cy="326.66" rx="2.94" ry="2.78"/><circle class="cls-64" cx="362.52" cy="329.87" r="1.75"/><g id="Casual"><path class="cls-65" d="M358.81,314v-2.12c0-3.15-3.08-4.38-6.8-4.38h0c-3.72,0-6.73,1.23-6.73,4.38V314a2.18,2.18,0,0,0-2,2,2.24,2.24,0,0,0,2.28,2,6.6,6.6,0,0,0,5.45,4v3.71c0,.35.64.64,1,.64s1-.29,1-.64V322a6.61,6.61,0,0,0,5.5-4,2.23,2.23,0,0,0,2.27-2A2.17,2.17,0,0,0,358.81,314Z"/><path class="Anon-2413" d="M352.06,306.35s-5.91-.12-7.11,2.12-.85,5.41.33,5.49,1.9-1.81,4.27-3.51,2.17-.86,3.74-1,4.73,3.42,6.19,2.32.6-2.59-1.44-3.26-2.21-1.2-3.78-1.3S354.67,306.25,352.06,306.35Z"/><circle class="cls-3" cx="348.72" cy="313.34" r="2.59"/><g class="cls-66"><circle class="cls-8" cx="349.16" cy="314.73" r="1.72"/><circle class="cls-3" cx="349.47" cy="313.14" r="0.64"/></g><circle class="cls-3" cx="355.02" cy="313.39" r="2.59"/><g class="cls-67"><circle class="cls-8" cx="354.77" cy="314.73" r="1.72"/><circle class="cls-3" cx="355.8" cy="313.14" r="0.64"/></g><g class="cls-5"><path class="cls-6" d="M352.06,322h0a8.77,8.77,0,0,1-1-.06v1.45c.55-1,1.68-1.19,2-1.44A6.9,6.9,0,0,1,352.06,322Z"/><path class="cls-7" d="M358.82,316.32v-1.94a1.73,1.73,0,0,1,1.49,1.59,1.75,1.75,0,0,1-1.66,1.62A4.86,4.86,0,0,0,358.82,316.32Z"/><path class="cls-7" d="M345.3,316.32v-1.94a1.73,1.73,0,0,0-1.49,1.59,1.75,1.75,0,0,0,1.66,1.62A4.86,4.86,0,0,1,345.3,316.32Z"/><ellipse class="cls-6" cx="352.04" cy="316.13" rx="0.99" ry="0.33"/></g></g><path class="Anon-2414" d="M354,319.06a1.82,1.82,0,0,1-1.93,1.67,2,2,0,0,1-1.93-1.91,1.81,1.81,0,0,1,1.93-1.67A2,2,0,0,1,354,319.06Z"/><path class="cls-68" d="M355.12,320.45a2.34,2.34,0,0,1-1.25,2,3.21,3.21,0,0,1-1.83.38,3.32,3.32,0,0,1-1.69-.62,2.12,2.12,0,0,1-.9-1.76,1.92,1.92,0,0,1,1.05-1.52,3.29,3.29,0,0,1,1.54-.37,6.75,6.75,0,0,1,1.68.13,1.92,1.92,0,0,1,.92.54A1.81,1.81,0,0,1,355.12,320.45Zm-2.31,0c0,.11.18,0,.05-.35a.89.89,0,0,0-.82-.54,1.67,1.67,0,0,0-1,.3c-.26.19-.36.44-.3.59s.72.51,1.27.39a1.6,1.6,0,0,0,.67-.29C352.86,320.42,352.82,320.36,352.81,320.45Z"/><circle class="cls-69" cx="352.03" cy="318.87" r="0.63"/><path class="Anon-2414" d="M347.53,327.63a16.9,16.9,0,0,0,0,3.26c.67,1.65,2.62,1.24,4.5,1.24s4.39-.25,5.11-1.79c.26-.58-.61-2-.61-2.71a4.5,4.5,0,0,0-9,0Z"/><path class="Anon-2414" d="M351.7,324.52c0,.86-1.52,1.56-3.39,1.56s-2.76-.79-2.76-1.65.89-1.46,2.76-1.46S351.7,323.66,351.7,324.52Z"/><path class="Anon-2414" d="M358.56,326.78c-.31.8-1.37.37-3.11-.3s-2.91-1.88-2.6-2.68,2-.9,3.72-.22A2.86,2.86,0,0,1,358.56,326.78Z"/><ellipse class="Anon-2414" cx="355.98" cy="327.65" rx="2.72" ry="1.55" transform="translate(-79.91 117.7) rotate(-16.91)"/><ellipse class="Anon-2414" cx="348.28" cy="325.11" rx="1.55" ry="2.72" transform="translate(-107.41 464.18) rotate(-60)"/><ellipse class="Anon-2414" cx="356.44" cy="331.73" rx="1.55" ry="3.39" transform="translate(-99.7 502.09) rotate(-63.42)"/><path class="Anon-2413" d="M359.17,332.16a1.9,1.9,0,0,1,.45,2.58c-.52,1.05-.95,1.7-1.71,1.32a2.23,2.23,0,0,1-1.07-2.71A1.9,1.9,0,0,1,359.17,332.16Z"/><path class="cls-70" d="M357.05,331.11c.82-.4,1.6-.49,2.61,1.58s1,3.56.19,4-2.15-.43-3.16-2.51S356.23,331.51,357.05,331.11Z"/><ellipse class="Anon-2414" cx="347.71" cy="331.73" rx="2.82" ry="1.45" transform="translate(-129.62 276.06) rotate(-37)"/><ellipse class="Anon-2413" cx="345.8" cy="333.81" rx="2.05" ry="1.24" transform="translate(-100.87 511.27) rotate(-65.66)"/><path class="cls-70" d="M348.15,331.66c-.65-.63-1.32-1-2.57.28s-1.74,2.85-1.08,3.49,2.2.11,3.45-1.18S348.81,332.3,348.15,331.66Z"/><ellipse class="cls-71" cx="351.31" cy="327.41" rx="2.25" ry="2.01"/><path class="cls-65" d="M355,328.81c0,.64-.83.77-1.73.77s-1.51-.13-1.51-.77.72-1.16,1.62-1.16S355,328.17,355,328.81Z"/><ellipse class="cls-65" cx="351.35" cy="325.49" rx="1.62" ry="1.16" transform="translate(-71.24 100.08) rotate(-14.74)"/></g><path class="cls-60" d="M328.82,289.25l10.46-.39a2.05,2.05,0,0,0,0-4.1h-10.6C327.89,284.76,328,289.25,328.82,289.25Z"/><path class="cls-60" d="M341.21,288.33c1.94-2.66,6.23-10.64,6.59-11.38s-2.77-1.59-2.92-1.24c-.46,1.07-6,9.08-6,9.08a2.77,2.77,0,0,0-.68,2.67A1.86,1.86,0,0,0,341.21,288.33Z"/><g id="LeftHand-4" data-name="LeftHand"><path class="cls-57" d="M348.87,273.9c.18-3-2-3-2-3s-.16-1.65-.13-2.3a1.44,1.44,0,0,0-.89-1.55c-.56-.12-.93.47-.88,1.05.14,1.75-1.2,3.78-1,6.4,0,.58.19,2.48,1.75,2.47C346.33,277,348.67,277.37,348.87,273.9Z"/><path class="cls-57" d="M351.19,272h0c0-.58-.35-1.06-.77-1.06h-4.23c-.42,0-.76.48-.76,1.06h0a1.19,1.19,0,0,1,0,2,1.19,1.19,0,0,1,0,2h0a.75.75,0,0,0,.76.85h3.46a1.44,1.44,0,0,0,1.05-.85c.14-.42,0-.56-.2-1a1,1,0,0,0,.69-1.05c0-.48,0-.76-.28-1C351.18,272.73,351.19,272.45,351.19,272Z"/><path class="cls-72" d="M346.75,276a4,4,0,0,0-.05-1s.17-.12.17-1.05a7.32,7.32,0,0,1,0-2c0-.58-.09-1.06-.19-1.06h-.49c-.42,0-.76.48-.76,1.06a1.19,1.19,0,0,1,0,2,1.19,1.19,0,0,1,0,2,.75.75,0,0,0,.76.85h.3C346.59,276.87,346.72,276.34,346.75,276Z"/></g><path class="cls-73" d="M439,291.8l12.25-.46a2.4,2.4,0,1,0,0-4.8H438.8C437.88,286.54,438,291.8,439,291.8Z"/><path class="cls-73" d="M453.48,290.72c2.27-3.11,7.29-12.46,7.72-13.32s-3.25-1.87-3.43-1.45c-.53,1.24-7,10.63-7,10.63-.58.86-1.28,1.83-.79,3.12A2.17,2.17,0,0,0,453.48,290.72Z"/><g id="LeftHand-5" data-name="LeftHand"><path class="cls-73" d="M462.45,273.83c.21-3.51-2.32-3.51-2.32-3.51s-.19-1.93-.16-2.69a1.69,1.69,0,0,0-1-1.82c-.66-.15-1.09.55-1,1.23.17,2-1.4,4.43-1.16,7.5.06.67.23,2.9,2.06,2.89C459.47,277.43,462.21,277.88,462.45,273.83Z"/><path class="cls-1" d="M465.16,271.56h0c0-.68-.4-1.24-.9-1.24h-4.94c-.5,0-.9.56-.9,1.24h0a1.4,1.4,0,0,1,0,2.36,1.39,1.39,0,0,1,0,2.38h0a.89.89,0,0,0,.9,1h4.05a1.71,1.71,0,0,0,1.23-1c.16-.49,0-.65-.24-1.14a1.13,1.13,0,0,0,.8-1.24c0-.56,0-.89-.32-1.18C465.16,272.45,465.16,272.12,465.16,271.56Z"/><path class="cls-74" d="M460,276.3a4,4,0,0,0-.07-1.14s.21-.15.21-1.24a8.74,8.74,0,0,1,0-2.36c0-.68-.1-1.24-.23-1.24h-.56c-.5,0-.9.56-.9,1.24a1.4,1.4,0,0,1,0,2.36,1.39,1.39,0,0,1,0,2.38.89.89,0,0,0,.9,1h.34C459.78,277.31,459.93,276.68,460,276.3Z"/></g><rect class="cls-75" x="459.59" y="264.08" width="7.29" height="12.39" rx="1"/><ellipse class="cls-73" cx="467.44" cy="267.58" rx="0.84" ry="0.99"/><ellipse class="cls-73" cx="467.44" cy="269.29" rx="0.84" ry="0.99"/><ellipse class="cls-73" cx="467.44" cy="271.01" rx="0.84" ry="0.99"/><ellipse class="cls-73" cx="467.31" cy="272.49" rx="0.71" ry="0.85"/><circle class="cls-63" cx="463.36" cy="268.6" r="1.57"/><path class="cls-63" d="M460.41,273.88a2.95,2.95,0,0,1,5.9,0"/><path class="cls-8" d="M618.22,288.79l10.46-.39a2,2,0,1,0,0-4.09h-10.6C617.3,284.31,617.44,288.79,618.22,288.79Z"/><path class="cls-8" d="M630.62,287.87c1.94-2.65,6.23-10.63,6.59-11.37s-2.77-1.6-2.92-1.24c-.46,1.06-6,9.07-6,9.07a2.76,2.76,0,0,0-.68,2.67A1.86,1.86,0,0,0,630.62,287.87Z"/><g id="LeftHand-6" data-name="LeftHand"><path class="cls-23" d="M638.28,273.45c.18-3-2-3-2-3s-.17-1.66-.14-2.31a1.44,1.44,0,0,0-.88-1.55c-.57-.12-.93.48-.88,1,.14,1.75-1.2,3.78-1,6.41,0,.57.19,2.47,1.75,2.47C635.74,276.53,638.08,276.91,638.28,273.45Z"/><path class="cls-23" d="M640.59,271.51h0c0-.58-.34-1.05-.76-1.05H635.6c-.42,0-.76.47-.76,1.05h0a1.19,1.19,0,0,1,0,2,1.19,1.19,0,0,1,0,2h0a.76.76,0,0,0,.76.86h3.46a1.45,1.45,0,0,0,1.05-.86c.14-.42,0-.56-.2-1,0,0,.68-.12.68-1.05,0-.48,0-.76-.27-1C640.59,272.28,640.59,272,640.59,271.51Z"/><path class="cls-72" d="M636.16,275.56a4,4,0,0,0,0-1s.17-.12.17-1.05a3.89,3.89,0,0,0-.07-1,3.85,3.85,0,0,0,.07-1c0-.58-.09-1.05-.19-1.05h-.49c-.42,0-.76.47-.76,1.05a1.19,1.19,0,0,1,0,2,1.19,1.19,0,0,1,0,2,.76.76,0,0,0,.76.86h.29C636,276.42,636.13,275.88,636.16,275.56Z"/></g><path class="cls-62" d="M582,273.8c0,3.36-3.43,6.08-7.65,6.08s-7.66-2.72-7.66-6.08"/><path class="cls-62" d="M511.49,275.07c0,3.36-3.42,6.09-7.65,6.09s-7.66-2.73-7.66-6.09"/><path class="cls-16" d="M566.93,292.18l-12.26-.46a2.4,2.4,0,0,1,0-4.79h12.42C568,286.93,567.85,292.18,566.93,292.18Z"/><path class="cls-26" d="M552.41,291.1c-2.27-3.1-7.3-12.45-7.72-13.32s3.25-1.86,3.42-1.45c.54,1.25,7,10.63,7,10.63.59.86,1.29,1.83.8,3.12A2.17,2.17,0,0,1,552.41,291.1Z"/><g id="LeftHand-7" data-name="LeftHand"><path class="cls-76" d="M543.43,274.21c-.2-3.5,2.32-3.5,2.32-3.5s.2-1.94.16-2.7a1.68,1.68,0,0,1,1-1.82c.66-.14,1.09.56,1,1.23-.17,2.05,1.4,4.43,1.15,7.5,0,.68-.22,2.9-2,2.9C546.42,277.82,543.67,278.26,543.43,274.21Z"/><path class="cls-1" d="M540.73,271.94h0c0-.68.4-1.23.89-1.23h5c.5,0,.9.55.9,1.23h0a1.23,1.23,0,0,1-.66,1.18,1.25,1.25,0,0,1,.66,1.19,1.39,1.39,0,0,0,0,2.38h0a.89.89,0,0,1-.9,1h-4.05a1.71,1.71,0,0,1-1.23-1c-.16-.5,0-.66.24-1.15,0,0-.8-.14-.8-1.23,0-.56,0-.89.32-1.19C540.73,272.84,540.73,272.5,540.73,271.94Z"/><path class="cls-74" d="M545.92,276.69a4.42,4.42,0,0,1,.06-1.15s-.2-.14-.2-1.23a4.77,4.77,0,0,1,.08-1.19,4.6,4.6,0,0,1-.08-1.18c0-.68.1-1.23.23-1.23h.56c.5,0,.9.55.9,1.23a1.23,1.23,0,0,1-.66,1.18,1.25,1.25,0,0,1,.66,1.19,1.39,1.39,0,0,0,0,2.38.89.89,0,0,1-.9,1h-.34C546.11,277.69,546,277.06,545.92,276.69Z"/></g><rect class="cls-75" x="539.01" y="264.46" width="7.29" height="12.39" rx="1" transform="translate(1085.3 541.32) rotate(-180)"/><ellipse class="cls-76" cx="538.45" cy="267.96" rx="0.84" ry="0.99"/><ellipse class="cls-76" cx="538.45" cy="269.67" rx="0.84" ry="0.99"/><ellipse class="cls-76" cx="538.45" cy="271.39" rx="0.84" ry="0.99"/><ellipse class="cls-76" cx="538.58" cy="272.87" rx="0.71" ry="0.85"/><circle class="cls-63" cx="542.52" cy="268.99" r="1.57"/><path class="cls-63" d="M545.47,274.27a3,3,0,0,0-5.9,0"/><path class="Anon-2414" d="M679.61,288l-7.2,5a2.09,2.09,0,0,1-2.72-.61h0a1.71,1.71,0,0,1,.5-2.52l8-5.19C678.4,284.51,680,287.63,679.61,288Z"/><path class="Anon-2414" d="M671.29,293.48l-8.61,1.8a2.09,2.09,0,0,1-2.26-1.63h0a1.73,1.73,0,0,1,1.46-2.13l9.35-1.64C671.54,289.82,671.75,293.3,671.29,293.48Z"/><rect class="cls-18" x="653.47" y="292.75" width="9.47" height="1.36" rx="0.68"/><rect class="cls-18" x="657.78" y="293.78" width="5.19" height="1.36" rx="0.68" transform="translate(-58.76 369.64) rotate(-30)"/><rect class="cls-21" width="1000" height="8"/><rect class="cls-21" y="392" width="1000" height="8"/><path class="cls-62" d="M618.61,270.88c0,3.36-3.43,6.09-7.66,6.09s-7.66-2.73-7.66-6.09"/></g></g></svg>