<svg xmlns="http://www.w3.org/2000/svg" viewBox="0 0 634.64 160.29"><defs><style>.cls-1{fill:#228f9b;}.cls-2{fill:#28b5bd;}.cls-3{fill:#5dc5ca;}.cls-4{fill:#a3eae7;}.cls-5{fill:#fb9502;}.cls-6{fill:#b9b9b6;}.cls-7{fill:none;stroke:#171616;stroke-miterlimit:10;}</style></defs><title>AverageInvestorChart</title><g id="Page3"><rect class="cls-1" x="31.28" y="18.25" width="46.05" height="111.2"/><rect class="cls-1" x="86.28" y="34.98" width="46.05" height="94.47"/><rect class="cls-1" x="141.28" y="42" width="46.05" height="87.44"/><rect class="cls-2" x="196.28" y="51.74" width="46.05" height="77.71"/><rect class="cls-2" x="251.28" y="51.74" width="46.05" height="77.71"/><rect class="cls-2" x="306.28" y="56.03" width="46.05" height="73.42"/><rect class="cls-3" x="361.28" y="60.15" width="46.05" height="69.3"/><rect class="cls-3" x="416.28" y="68.64" width="46.05" height="60.81"/><rect class="cls-4" x="471.28" y="87.98" width="46.05" height="41.47"/><rect class="cls-5" x="526.28" y="98.07" width="46.05" height="31.38"/><rect class="cls-6" x="581.28" y="104.52" width="46.05" height="24.93"/><line class="cls-7" x1="26.5" y1="7.39" x2="26.5" y2="133.79"/><line class="cls-7" x1="23.02" y1="129.45" x2="631.17" y2="129.45"/><line class="cls-7" x1="24.17" y1="7.82" x2="26.78" y2="7.82"/><line class="cls-7" x1="24.17" y1="32.32" x2="26.78" y2="32.32"/><line class="cls-7" x1="24.17" y1="56.82" x2="26.78" y2="56.82"/><line class="cls-7" x1="24.17" y1="81.32" x2="26.78" y2="81.32"/><line class="cls-7" x1="24.17" y1="105.82" x2="26.78" y2="105.82"/><path d="M2.44,6.58V6a3.38,3.38,0,0,0,1.2-.28,1.39,1.39,0,0,0,.5-.92h.62V11H3.92V6.58Z"/><path d="M10.79,5.75a4.5,4.5,0,0,1,.42,2.13A5.22,5.22,0,0,1,10.83,10,1.88,1.88,0,0,1,9,11.2a1.8,1.8,0,0,1-1.68-1A4.48,4.48,0,0,1,6.87,8a5.62,5.62,0,0,1,.27-1.84A1.9,1.9,0,0,1,9,4.74,1.88,1.88,0,0,1,10.79,5.75ZM10,9.94a4,4,0,0,0,.37-2,5,5,0,0,0-.27-1.77,1,1,0,0,0-1-.69,1.08,1.08,0,0,0-1,.66A4.61,4.61,0,0,0,7.72,8a4.67,4.67,0,0,0,.21,1.55A1.12,1.12,0,0,0,10,9.94Z"/><path d="M14.49,5.38a1.52,1.52,0,0,1,0,2.16A1.46,1.46,0,0,1,13.41,8a1.54,1.54,0,0,1-1.53-1.53,1.54,1.54,0,0,1,1.53-1.53A1.46,1.46,0,0,1,14.49,5.38ZM14.05,7.1a.89.89,0,0,0,0-1.28.88.88,0,0,0-.64-.26.9.9,0,0,0-.64.26.91.91,0,0,0,.64,1.55A.85.85,0,0,0,14.05,7.1Zm3-2.33h.49L14.06,11.2h-.49Zm1.72,3.65a1.55,1.55,0,0,1,0,2.16,1.53,1.53,0,1,1-2.17-2.16,1.53,1.53,0,0,1,2.17,0Zm-.45,1.72a.89.89,0,0,0,0-1.28.85.85,0,0,0-.64-.27.91.91,0,0,0,0,1.82A.85.85,0,0,0,18.36,10.14Z"/><path d="M7.44,31.24a1.24,1.24,0,0,1-.35-.91,1.65,1.65,0,0,1,.51-1.21,2,2,0,0,1,1.45-.51,2,2,0,0,1,1.42.48,1.55,1.55,0,0,1,.21,2.07,1.64,1.64,0,0,1-.52.4,2,2,0,0,1,.62.42,1.57,1.57,0,0,1,.42,1.14,2,2,0,0,1-.56,1.41,2.11,2.11,0,0,1-1.58.57,2.43,2.43,0,0,1-1.55-.49,1.75,1.75,0,0,1-.63-1.45,1.72,1.72,0,0,1,.27-1A1.67,1.67,0,0,1,8,31.57,1.46,1.46,0,0,1,7.44,31.24ZM10,34.09a1.1,1.1,0,0,0,.37-.89,1.16,1.16,0,0,0-.38-.93A1.44,1.44,0,0,0,9,32a1.36,1.36,0,0,0-.92.32,1.15,1.15,0,0,0-.36.9,1.23,1.23,0,0,0,.33.85,1.33,1.33,0,0,0,1,.35A1.42,1.42,0,0,0,10,34.09ZM9.85,31a1,1,0,0,0,.29-.7.91.91,0,0,0-.28-.65,1.12,1.12,0,0,0-.86-.3,1,1,0,0,0-.82.3,1,1,0,0,0-.26.69.86.86,0,0,0,.33.7,1.3,1.3,0,0,0,.78.25A1.14,1.14,0,0,0,9.85,31Z"/><path d="M14.5,29.27a1.5,1.5,0,0,1,.44,1.08,1.53,1.53,0,0,1-2.61,1.08,1.44,1.44,0,0,1-.45-1.08,1.53,1.53,0,0,1,2.62-1.08ZM14.05,31a.85.85,0,0,0,.27-.64.87.87,0,0,0-.27-.64.88.88,0,0,0-.64-.26.9.9,0,0,0-.64.26.86.86,0,0,0-.26.64.84.84,0,0,0,.26.64.87.87,0,0,0,.64.27A.85.85,0,0,0,14.05,31Zm3-2.33h.49l-3.52,6.43h-.49Zm1.72,3.65a1.53,1.53,0,0,1,0,2.17,1.56,1.56,0,0,1-2.17,0,1.53,1.53,0,1,1,2.17-2.17ZM18.37,34a.88.88,0,0,0,.26-.64.9.9,0,0,0-.26-.64.93.93,0,0,0-1.29,0,.86.86,0,0,0-.26.64.84.84,0,0,0,.26.64.88.88,0,0,0,.65.27A.89.89,0,0,0,18.37,34Z"/><path d="M10.69,54a1.89,1.89,0,0,1,.41,1.13h-.78a1.55,1.55,0,0,0-.22-.59,1,1,0,0,0-.87-.39,1.19,1.19,0,0,0-1.05.61,3.54,3.54,0,0,0-.44,1.76,1.66,1.66,0,0,1,.69-.6,1.92,1.92,0,0,1,.84-.18,2,2,0,0,1,1.38.51,1.89,1.89,0,0,1,.59,1.51,2.28,2.28,0,0,1-.56,1.51,2,2,0,0,1-1.59.67,2,2,0,0,1-1.52-.67A3.21,3.21,0,0,1,6.92,57a6.06,6.06,0,0,1,.29-2,2,2,0,0,1,2-1.57A1.76,1.76,0,0,1,10.69,54Zm-.6,4.81a1.6,1.6,0,0,0,.31-1,1.72,1.72,0,0,0-.27-.92,1.11,1.11,0,0,0-1-.44,1.32,1.32,0,0,0-.89.34,1.29,1.29,0,0,0-.39,1,1.53,1.53,0,0,0,.35,1,1.21,1.21,0,0,0,1,.4A1.07,1.07,0,0,0,10.09,58.77Z"/><path d="M14.5,54.08a1.55,1.55,0,0,1,0,2.16,1.53,1.53,0,1,1,0-2.16Zm-.45,1.72a.89.89,0,0,0,0-1.28.88.88,0,0,0-.64-.26.9.9,0,0,0-.64.26.92.92,0,0,0,0,1.28.87.87,0,0,0,.64.27A.85.85,0,0,0,14.05,55.8Zm3-2.33h.49L14.06,59.9h-.49Zm1.72,3.65a1.53,1.53,0,1,1-1.08-.45A1.47,1.47,0,0,1,18.81,57.12Zm-.44,1.72a.92.92,0,0,0,0-1.28.89.89,0,0,0-.64-.27.88.88,0,0,0-.65.27.92.92,0,0,0,0,1.28.88.88,0,0,0,.65.27A.89.89,0,0,0,18.37,58.84Z"/><path d="M9.57,84.06V82.52H6.81v-.77l2.89-4h.66v4.08h.93v.69h-.93v1.54Zm0-2.23V79l-2,2.86Z"/><path d="M14.5,78.4a1.54,1.54,0,0,1,.44,1.09,1.5,1.5,0,0,1-.44,1.08,1.54,1.54,0,0,1-2.62-1.08,1.51,1.51,0,0,1,.45-1.09,1.53,1.53,0,0,1,2.17,0Zm-.45,1.73a.89.89,0,0,0,0-1.28.85.85,0,0,0-.64-.27.87.87,0,0,0-.64.27.84.84,0,0,0-.26.64.86.86,0,0,0,.26.64.9.9,0,0,0,.64.26A.88.88,0,0,0,14.05,80.13Zm3-2.34h.49l-3.52,6.44h-.49Zm1.72,3.65a1.54,1.54,0,1,1-2.17,0,1.56,1.56,0,0,1,2.17,0Zm-.44,1.73a.9.9,0,0,0,.26-.64.91.91,0,0,0-1.55-.64.84.84,0,0,0-.26.64.89.89,0,0,0,.91.9A.88.88,0,0,0,18.37,83.17Z"/><path d="M7.2,107.19a2.75,2.75,0,0,1,1.14-1.1l.85-.49A3.9,3.9,0,0,0,10,105a1.15,1.15,0,0,0,.36-.84,1.18,1.18,0,0,0-.33-.87,1.22,1.22,0,0,0-.88-.32,1.14,1.14,0,0,0-1.12.61,2.39,2.39,0,0,0-.19.92H7a2.89,2.89,0,0,1,.3-1.34,1.91,1.91,0,0,1,1.82-.91,1.86,1.86,0,0,1,2.08,1.88,1.73,1.73,0,0,1-.54,1.29,5.1,5.1,0,0,1-1.1.76l-.6.33a3.79,3.79,0,0,0-.68.46,1.65,1.65,0,0,0-.55.84h3.44v.75H6.87A3.75,3.75,0,0,1,7.2,107.19Z"/><path d="M14.5,103a1.55,1.55,0,0,1,0,2.16,1.53,1.53,0,1,1,0-2.16Zm-.45,1.72a.89.89,0,0,0,0-1.28.84.84,0,0,0-.64-.26.91.91,0,0,0-.64,1.54.87.87,0,0,0,.64.27A.85.85,0,0,0,14.05,104.67Zm3-2.34h.49l-3.52,6.44h-.49ZM18.81,106a1.53,1.53,0,1,1-1.08-.45A1.47,1.47,0,0,1,18.81,106Zm-.44,1.72a.92.92,0,0,0,0-1.28.89.89,0,0,0-.64-.27.88.88,0,0,0-.65.27.92.92,0,0,0,0,1.28.88.88,0,0,0,.65.27A.89.89,0,0,0,18.37,107.71Z"/><path d="M10.79,127.42a4.52,4.52,0,0,1,.42,2.13,5.24,5.24,0,0,1-.38,2.13A1.88,1.88,0,0,1,9,132.88a1.82,1.82,0,0,1-1.68-1,4.51,4.51,0,0,1-.46-2.21,5.58,5.58,0,0,1,.27-1.84A1.89,1.89,0,0,1,9,126.42,1.87,1.87,0,0,1,10.79,127.42Zm-.8,4.2a4,4,0,0,0,.37-2,4.92,4.92,0,0,0-.27-1.77,1,1,0,0,0-1-.69,1.08,1.08,0,0,0-1,.66,4.58,4.58,0,0,0-.32,1.93,4.71,4.71,0,0,0,.21,1.55,1.12,1.12,0,0,0,2.06.35Z"/><path d="M14.5,127.06a1.55,1.55,0,0,1,0,2.16,1.53,1.53,0,1,1,0-2.16Zm-.45,1.72a.89.89,0,0,0,0-1.28.85.85,0,0,0-.64-.27.87.87,0,0,0-.64.27.84.84,0,0,0-.26.64.89.89,0,0,0,.9.9A.84.84,0,0,0,14.05,128.78Zm3-2.34h.49l-3.52,6.44h-.49Zm1.72,3.66a1.53,1.53,0,1,1-1.08-.45A1.47,1.47,0,0,1,18.81,130.1Zm-.44,1.72a.92.92,0,0,0,0-1.28.89.89,0,0,0-.64-.27.88.88,0,0,0-.65.27.92.92,0,0,0,0,1.28.88.88,0,0,0,.65.27A.89.89,0,0,0,18.37,131.82Z"/><path d="M43.2,136.7h2.93a2.83,2.83,0,0,1,1.2.22,1.52,1.52,0,0,1,.89,1.52,1.61,1.61,0,0,1-.91,1.55,1.3,1.3,0,0,1,.57.4,1.41,1.41,0,0,1,.21.81l0,.87a3,3,0,0,0,.06.55.56.56,0,0,0,.29.39v.15H47.39a1,1,0,0,1-.07-.22c0-.09,0-.26,0-.51l-.05-1.07a.91.91,0,0,0-.46-.85,1.82,1.82,0,0,0-.76-.12H44.07v2.77H43.2Zm2.84,3a1.54,1.54,0,0,0,.94-.25,1,1,0,0,0,.35-.88.94.94,0,0,0-.49-.94,1.48,1.48,0,0,0-.69-.14H44.07v2.21Z"/><path d="M49.67,136.7h4.69v.79H50.53v2h3.54v.75H50.53v2.19h3.89v.77H49.67Z"/><path d="M55.79,136.7h.88v6.46h-.88Z"/><path d="M62.79,136.7v.77H60.61v5.69h-.88v-5.69H57.55v-.77Z"/><path d="M63,141.68a1.1,1.1,0,0,0,.2.61,1.3,1.3,0,0,0,1.06.38,1.57,1.57,0,0,0,.79-.19.63.63,0,0,0,.34-.59.5.5,0,0,0-.27-.46,3.32,3.32,0,0,0-.69-.23l-.64-.16a3.18,3.18,0,0,1-.9-.33,1,1,0,0,1-.52-.89,1.35,1.35,0,0,1,.49-1.08,2,2,0,0,1,1.31-.41,1.83,1.83,0,0,1,1.55.62,1.33,1.33,0,0,1,.29.85h-.74a.92.92,0,0,0-.2-.48,1.59,1.59,0,0,0-1.66-.14.51.51,0,0,0-.23.45.54.54,0,0,0,.31.49,1.79,1.79,0,0,0,.52.19l.54.13a4.19,4.19,0,0,1,1.16.4,1.05,1.05,0,0,1,.46,1,1.44,1.44,0,0,1-.48,1.08,2,2,0,0,1-1.47.46,2,2,0,0,1-1.51-.48,1.81,1.81,0,0,1-.47-1.18Z"/><path d="M104.88,136.89a2.28,2.28,0,0,1,1.17,1.77h-.87a1.57,1.57,0,0,0-.64-1,2.17,2.17,0,0,0-1.23-.33,1.92,1.92,0,0,0-1.48.68,2.9,2.9,0,0,0-.6,2,3.23,3.23,0,0,0,.5,1.87,1.8,1.8,0,0,0,1.61.73,2,2,0,0,0,1.42-.51,2.14,2.14,0,0,0,.58-1.64h-2v-.73h2.83v3.46h-.56l-.21-.83a3.1,3.1,0,0,1-.78.67,3.06,3.06,0,0,1-3.38-.41,3.57,3.57,0,0,1-.88-2.56,3.74,3.74,0,0,1,.86-2.58,2.73,2.73,0,0,1,2.13-.91A3.14,3.14,0,0,1,104.88,136.89Z"/><path d="M110.89,138.92a2.37,2.37,0,0,1,.63,1.78,3.1,3.1,0,0,1-.55,1.88,2,2,0,0,1-1.71.74,1.91,1.91,0,0,1-1.53-.65,2.61,2.61,0,0,1-.57-1.76,2.82,2.82,0,0,1,.6-1.89,2,2,0,0,1,1.6-.7A2.1,2.1,0,0,1,110.89,138.92Zm-.49,3.13a3,3,0,0,0,.29-1.32,2.42,2.42,0,0,0-.21-1.08,1.17,1.17,0,0,0-1.14-.64,1.11,1.11,0,0,0-1,.55,2.55,2.55,0,0,0-.33,1.33,2.22,2.22,0,0,0,.33,1.25,1.13,1.13,0,0,0,1,.5A1.07,1.07,0,0,0,110.4,142.05Z"/><path d="M112.51,136.7h.79v6.46h-.79Z"/><path d="M117.07,138.6a2,2,0,0,1,.48.46v-2.38h.76v6.48h-.71v-.66a1.7,1.7,0,0,1-.65.63,1.86,1.86,0,0,1-.87.19,1.73,1.73,0,0,1-1.35-.66,2.54,2.54,0,0,1-.58-1.76,3,3,0,0,1,.53-1.78,1.7,1.7,0,0,1,1.49-.75A1.59,1.59,0,0,1,117.07,138.6Zm-1.76,3.53a1.1,1.1,0,0,0,1,.5,1.06,1.06,0,0,0,.9-.47,2.24,2.24,0,0,0,.35-1.35,2,2,0,0,0-.36-1.32,1.12,1.12,0,0,0-.9-.43,1.18,1.18,0,0,0-1,.45,2.11,2.11,0,0,0-.37,1.35A2.31,2.31,0,0,0,115.31,142.13Z"/><path d="M148,141.07a1.81,1.81,0,0,0,.25.9,1.65,1.65,0,0,0,1.48.64,2.63,2.63,0,0,0,.86-.14,1,1,0,0,0,.76-1,.86.86,0,0,0-.32-.75,3.21,3.21,0,0,0-1-.38l-.84-.2a3.63,3.63,0,0,1-1.18-.43,1.34,1.34,0,0,1-.6-1.2,1.89,1.89,0,0,1,.59-1.43,2.31,2.31,0,0,1,1.66-.56,2.8,2.8,0,0,1,1.68.49,1.8,1.8,0,0,1,.69,1.57h-.82a1.87,1.87,0,0,0-.27-.8,1.54,1.54,0,0,0-1.31-.5,1.45,1.45,0,0,0-1.06.32,1,1,0,0,0-.33.76.74.74,0,0,0,.39.69,5.69,5.69,0,0,0,1.13.35l.88.21a2.56,2.56,0,0,1,1,.41,1.54,1.54,0,0,1,.6,1.31,1.67,1.67,0,0,1-.76,1.54,3.43,3.43,0,0,1-1.77.46,2.61,2.61,0,0,1-1.84-.62,2.11,2.11,0,0,1-.65-1.66Z"/><path d="M154,138.78a1.46,1.46,0,0,1-.14-.62,1.4,1.4,0,0,1,.42-1,1.54,1.54,0,0,1,1.12-.41,1.42,1.42,0,0,1,1,.38,1.28,1.28,0,0,1,.38.92,1.63,1.63,0,0,1-.39,1.08,3.92,3.92,0,0,1-.76.63l1.17,1.41c.08-.24.13-.41.16-.53a4.71,4.71,0,0,0,.09-.48h.76a4.83,4.83,0,0,1-.3,1.19c-.15.37-.22.53-.22.45l1.14,1.4h-1l-.6-.74a3.16,3.16,0,0,1-.66.57,2.29,2.29,0,0,1-1.2.32,1.79,1.79,0,0,1-1.46-.55,1.86,1.86,0,0,1-.45-1.22,1.8,1.8,0,0,1,.44-1.23,5.35,5.35,0,0,1,1-.74A3.46,3.46,0,0,1,154,138.78Zm1.9,3.61a1.83,1.83,0,0,0,.53-.5L155,140.11a3.88,3.88,0,0,0-.8.63,1.15,1.15,0,0,0-.29.81.93.93,0,0,0,.37.79,1.35,1.35,0,0,0,.8.27A1.55,1.55,0,0,0,155.93,142.39Zm-.07-3.66a1,1,0,0,0,.26-.66.67.67,0,0,0-.19-.49.64.64,0,0,0-.51-.21.72.72,0,0,0-.67.32.81.81,0,0,0-.09.37,1,1,0,0,0,.14.51,5.25,5.25,0,0,0,.49.64A3.27,3.27,0,0,0,155.86,138.73Z"/><path d="M159.5,136.7h2.89a1.93,1.93,0,0,1,1.38.49,1.76,1.76,0,0,1,.53,1.36,2,2,0,0,1-.47,1.32,1.8,1.8,0,0,1-1.44.56h-2v2.73h-.87Zm3.39.89a1.86,1.86,0,0,0-.79-.14h-1.73v2.24h1.73a1.62,1.62,0,0,0,1-.25,1,1,0,0,0,.36-.88A1,1,0,0,0,162.89,137.59Z"/><path d="M168.19,141.55a1.08,1.08,0,0,0,.63.94,1.45,1.45,0,0,0,.65.13,1.23,1.23,0,0,0,1-.45,1.65,1.65,0,0,0,.34-1,1.3,1.3,0,0,0-.41-1,1.52,1.52,0,0,0-1.66-.2,1.4,1.4,0,0,0-.5.44l-.69,0,.48-3.39h3.27v.77h-2.67l-.27,1.74a1.86,1.86,0,0,1,.42-.25,2.21,2.21,0,0,1,.81-.14,2.06,2.06,0,0,1,1.47.56,1.84,1.84,0,0,1,.6,1.41,2.44,2.44,0,0,1-.55,1.57,2.13,2.13,0,0,1-1.76.69,2.21,2.21,0,0,1-1.36-.44,1.68,1.68,0,0,1-.66-1.33Z"/><path d="M176.28,137.87a4.52,4.52,0,0,1,.42,2.13,5.08,5.08,0,0,1-.38,2.13,1.87,1.87,0,0,1-1.81,1.2,1.82,1.82,0,0,1-1.69-1,4.56,4.56,0,0,1-.46-2.2,5.28,5.28,0,0,1,.28-1.84,1.89,1.89,0,0,1,1.88-1.44A1.86,1.86,0,0,1,176.28,137.87Zm-.79,4.19a4,4,0,0,0,.36-2,5.15,5.15,0,0,0-.26-1.76,1,1,0,0,0-1-.69,1.06,1.06,0,0,0-1,.65,4.51,4.51,0,0,0-.32,1.94,4.74,4.74,0,0,0,.2,1.55,1.13,1.13,0,0,0,2.07.34Z"/><path d="M181.29,137.87a4.52,4.52,0,0,1,.42,2.13,5.24,5.24,0,0,1-.38,2.13,1.88,1.88,0,0,1-1.81,1.2,1.81,1.81,0,0,1-1.69-1,4.44,4.44,0,0,1-.46-2.2,5.28,5.28,0,0,1,.28-1.84,2,2,0,0,1,3.64-.43Zm-.8,4.19a3.85,3.85,0,0,0,.37-2,4.9,4.9,0,0,0-.27-1.76,1,1,0,0,0-1-.69,1.09,1.09,0,0,0-1,.65,5.94,5.94,0,0,0-.11,3.49,1.13,1.13,0,0,0,1.08.89A1.11,1.11,0,0,0,180.49,142.06Z"/><path d="M212.25,137.39a1.8,1.8,0,0,1,.41,1.12h-.78a1.35,1.35,0,0,0-.22-.58,1,1,0,0,0-.87-.4,1.2,1.2,0,0,0-1,.62,3.5,3.5,0,0,0-.44,1.75,1.73,1.73,0,0,1,.69-.6,2.16,2.16,0,0,1,2.22.33,1.89,1.89,0,0,1,.59,1.51,2.3,2.3,0,0,1-.56,1.52,2,2,0,0,1-1.59.66,2,2,0,0,1-1.52-.67,3.21,3.21,0,0,1-.65-2.26,6.1,6.1,0,0,1,.29-2,2,2,0,0,1,2-1.56A1.73,1.73,0,0,1,212.25,137.39Zm-.59,4.81a1.67,1.67,0,0,0,.31-1,1.71,1.71,0,0,0-.28-.92,1.09,1.09,0,0,0-1-.44,1.25,1.25,0,0,0-1.28,1.36,1.49,1.49,0,0,0,.35,1,1.23,1.23,0,0,0,1,.41A1.1,1.1,0,0,0,211.66,142.2Z"/><path d="M217.35,137.87a4.52,4.52,0,0,1,.42,2.13,5.08,5.08,0,0,1-.38,2.13,1.87,1.87,0,0,1-1.81,1.2,1.82,1.82,0,0,1-1.69-1,4.56,4.56,0,0,1-.46-2.2,5.28,5.28,0,0,1,.28-1.84,1.89,1.89,0,0,1,1.88-1.44A1.86,1.86,0,0,1,217.35,137.87Zm-.79,4.19a4,4,0,0,0,.36-2,5.15,5.15,0,0,0-.26-1.76,1,1,0,0,0-1-.69,1.07,1.07,0,0,0-1,.65,4.51,4.51,0,0,0-.32,1.94,4.74,4.74,0,0,0,.2,1.55,1.13,1.13,0,0,0,2.07.34Z"/><path d="M220.21,136.7h.67l-2,6.46h-.67Z"/><path d="M223.65,143.16v-1.54h-2.76v-.77l2.88-4h.67v4.08h.92v.69h-.92v1.54Zm0-2.23v-2.86l-2,2.86Z"/><path d="M229.86,137.87a4.4,4.4,0,0,1,.43,2.13,5.07,5.07,0,0,1-.39,2.13,1.87,1.87,0,0,1-1.81,1.2,1.8,1.8,0,0,1-1.68-1,4.44,4.44,0,0,1-.47-2.2,5.52,5.52,0,0,1,.28-1.84,1.9,1.9,0,0,1,1.88-1.44A1.86,1.86,0,0,1,229.86,137.87Zm-.79,4.19a4,4,0,0,0,.36-2,4.91,4.91,0,0,0-.26-1.76,1,1,0,0,0-1-.69,1.08,1.08,0,0,0-1,.65,4.51,4.51,0,0,0-.32,1.94,5,5,0,0,0,.2,1.55,1.15,1.15,0,0,0,1.09.89A1.12,1.12,0,0,0,229.07,142.06Z"/><path d="M274.91,137.63a3.54,3.54,0,0,1,.64,2.19,3.83,3.83,0,0,1-.73,2.4,3.25,3.25,0,0,1-4.8.14,3.69,3.69,0,0,1-.76-2.4,3.84,3.84,0,0,1,.65-2.24,2.81,2.81,0,0,1,2.47-1.19A2.94,2.94,0,0,1,274.91,137.63Zm-.77,4.11a3.57,3.57,0,0,0,.52-1.91,2.69,2.69,0,0,0-.6-1.83,2.05,2.05,0,0,0-1.63-.7,2.1,2.1,0,0,0-1.63.69,3.4,3.4,0,0,0-.09,3.84,2,2,0,0,0,1.76.74A1.82,1.82,0,0,0,274.14,141.74Z"/><path d="M276.49,136.7h.8v.9h-.8Zm0,1.77h.8v4.69h-.8Z"/><path d="M278.51,136.7h.79v6.46h-.79Z"/><path d="M321.13,143.16v-1.54h-2.75v-.77l2.88-4h.67v4.08h.92v.69h-.92v1.54Zm0-2.23v-2.86l-2,2.86Z"/><path d="M327.35,137.87a4.52,4.52,0,0,1,.42,2.13,5.08,5.08,0,0,1-.38,2.13,1.87,1.87,0,0,1-1.81,1.2,1.82,1.82,0,0,1-1.69-1,4.56,4.56,0,0,1-.46-2.2,5.28,5.28,0,0,1,.28-1.84,1.89,1.89,0,0,1,1.88-1.44A1.86,1.86,0,0,1,327.35,137.87Zm-.79,4.19a4,4,0,0,0,.36-2,5.15,5.15,0,0,0-.26-1.76,1,1,0,0,0-1-.69,1.07,1.07,0,0,0-1,.65,4.51,4.51,0,0,0-.32,1.94,4.74,4.74,0,0,0,.2,1.55,1.13,1.13,0,0,0,2.07.34Z"/><path d="M330.21,136.7h.67l-2.05,6.46h-.67Z"/><path d="M334.76,137.39a1.8,1.8,0,0,1,.41,1.12h-.78a1.35,1.35,0,0,0-.22-.58,1,1,0,0,0-.87-.4,1.2,1.2,0,0,0-1.05.62,3.5,3.5,0,0,0-.44,1.75,1.73,1.73,0,0,1,.69-.6,2.16,2.16,0,0,1,2.22.33,1.89,1.89,0,0,1,.59,1.51,2.25,2.25,0,0,1-.56,1.52,2,2,0,0,1-1.59.66,2,2,0,0,1-1.52-.67,3.21,3.21,0,0,1-.64-2.26,6.12,6.12,0,0,1,.28-2,2,2,0,0,1,2-1.56A1.73,1.73,0,0,1,334.76,137.39Zm-.59,4.81a1.67,1.67,0,0,0,.31-1,1.71,1.71,0,0,0-.28-.92,1.09,1.09,0,0,0-1-.44,1.25,1.25,0,0,0-1.28,1.36,1.49,1.49,0,0,0,.35,1,1.23,1.23,0,0,0,1,.41A1.1,1.1,0,0,0,334.17,142.2Z"/><path d="M339.86,137.87a4.4,4.4,0,0,1,.43,2.13,5.07,5.07,0,0,1-.39,2.13,1.87,1.87,0,0,1-1.81,1.2,1.8,1.8,0,0,1-1.68-1,4.44,4.44,0,0,1-.47-2.2,5.52,5.52,0,0,1,.28-1.84,1.9,1.9,0,0,1,1.88-1.44A1.86,1.86,0,0,1,339.86,137.87Zm-.79,4.19a4,4,0,0,0,.36-2,4.91,4.91,0,0,0-.26-1.76,1,1,0,0,0-1-.69,1.08,1.08,0,0,0-1,.65,4.51,4.51,0,0,0-.32,1.94,5,5,0,0,0,.2,1.55,1.15,1.15,0,0,0,1.09.89A1.12,1.12,0,0,0,339.07,142.06Z"/><path d="M373.42,136.7h4.69v.79h-3.83v2h3.54v.75h-3.54v2.19h3.89v.77h-4.75Z"/><path d="M381.23,136.7h1l2.35,6.46h-1l-.68-1.94h-2.53l-.7,1.94h-.89Zm1.45,3.81-1-2.85-1,2.85Z"/><path d="M385.43,136.7h4.48v.79H386.3v2h3.17v.77H386.3v2.94h-.87Z"/><path d="M390.93,136.7h4.68v.79h-3.83v2h3.54v.75h-3.54v2.19h3.9v.77h-4.75Z"/><path d="M427.31,136.7h2.79a1.88,1.88,0,0,1,1.63.68,1.61,1.61,0,0,1,.28.92,1.45,1.45,0,0,1-.35,1,1.56,1.56,0,0,1-.52.38,2.35,2.35,0,0,1,.75.43,1.54,1.54,0,0,1,.43,1.16,1.78,1.78,0,0,1-.39,1.13,2.21,2.21,0,0,1-1.87.76h-2.75Zm2.47,2.73a2.06,2.06,0,0,0,.87-.15.89.89,0,0,0,.48-.87.85.85,0,0,0-.51-.86,2.47,2.47,0,0,0-.88-.12h-1.57v2Zm.29,3a1.35,1.35,0,0,0,1.16-.46,1.23,1.23,0,0,0,.22-.72.94.94,0,0,0-.64-.95,2.21,2.21,0,0,0-.89-.14h-1.75v2.27Z"/><path d="M436.64,138.92a2.37,2.37,0,0,1,.62,1.78,3.1,3.1,0,0,1-.54,1.88,2,2,0,0,1-1.71.74,1.91,1.91,0,0,1-1.53-.65,2.61,2.61,0,0,1-.57-1.76,2.82,2.82,0,0,1,.6-1.89,2,2,0,0,1,1.6-.7A2.12,2.12,0,0,1,436.64,138.92Zm-.49,3.13a3,3,0,0,0,.29-1.32,2.42,2.42,0,0,0-.21-1.08,1.17,1.17,0,0,0-1.14-.64,1.11,1.11,0,0,0-1,.55,2.55,2.55,0,0,0-.33,1.33,2.22,2.22,0,0,0,.33,1.25,1.13,1.13,0,0,0,1,.5A1.07,1.07,0,0,0,436.15,142.05Z"/><path d="M438.24,138.45H439v.67a2.08,2.08,0,0,1,.7-.59,1.9,1.9,0,0,1,.83-.18,1.39,1.39,0,0,1,1.36.69,2.5,2.5,0,0,1,.19,1.1v3h-.8v-3a1.63,1.63,0,0,0-.13-.69.76.76,0,0,0-.76-.44,2,2,0,0,0-.47.05,1.33,1.33,0,0,0-.57.39,1.23,1.23,0,0,0-.25.48,3.22,3.22,0,0,0-.06.71v2.47h-.79Z"/><path d="M445.83,138.6a1.8,1.8,0,0,1,.47.46v-2.38h.76v6.48h-.71v-.66a1.7,1.7,0,0,1-.65.63,1.84,1.84,0,0,1-.86.19,1.75,1.75,0,0,1-1.36-.66,2.59,2.59,0,0,1-.57-1.76,3,3,0,0,1,.52-1.78,1.72,1.72,0,0,1,1.49-.75A1.62,1.62,0,0,1,445.83,138.6Zm-1.77,3.53a1.12,1.12,0,0,0,1,.5,1,1,0,0,0,.89-.47,2.17,2.17,0,0,0,.36-1.35,2,2,0,0,0-.37-1.32,1.11,1.11,0,0,0-.89-.43,1.2,1.2,0,0,0-1,.45,2.17,2.17,0,0,0-.37,1.35A2.39,2.39,0,0,0,444.06,142.13Z"/><path d="M448.72,141.68a1.1,1.1,0,0,0,.2.61,1.3,1.3,0,0,0,1.06.38,1.57,1.57,0,0,0,.79-.19.65.65,0,0,0,.34-.59.5.5,0,0,0-.27-.46,3.32,3.32,0,0,0-.69-.23l-.64-.16a3.18,3.18,0,0,1-.9-.33,1,1,0,0,1-.52-.89,1.35,1.35,0,0,1,.49-1.08,2,2,0,0,1,1.31-.41,1.83,1.83,0,0,1,1.55.62,1.33,1.33,0,0,1,.29.85H451a.92.92,0,0,0-.2-.48,1.24,1.24,0,0,0-1-.31,1.21,1.21,0,0,0-.69.17.52.52,0,0,0-.24.45.56.56,0,0,0,.31.49,1.87,1.87,0,0,0,.53.19l.53.13a4.3,4.3,0,0,1,1.17.4,1.05,1.05,0,0,1,.46,1,1.44,1.44,0,0,1-.48,1.08,2,2,0,0,1-1.47.46,2,2,0,0,1-1.51-.48,1.81,1.81,0,0,1-.47-1.18Z"/><path d="M534.35,136.69h1.53l2.29,6.48h-1.46l-.43-1.33h-2.39l-.44,1.33H532Zm-.09,4h1.66l-.82-2.55Z"/><path d="M541.52,138.38h1.34l-1.73,4.79h-1.32l-1.72-4.79h1.41l1,3.53Z"/><path d="M546.69,138.48a1.93,1.93,0,0,1,.83.7,2.38,2.38,0,0,1,.38,1,5.17,5.17,0,0,1,0,1h-3.48a1.12,1.12,0,0,0,.5,1,1.27,1.27,0,0,0,.69.18,1.1,1.1,0,0,0,.69-.22,1,1,0,0,0,.26-.33h1.28a1.58,1.58,0,0,1-.47.86,2.3,2.3,0,0,1-1.8.7,2.58,2.58,0,0,1-1.69-.59,2.34,2.34,0,0,1-.73-1.92,2.57,2.57,0,0,1,.66-1.9,2.29,2.29,0,0,1,1.72-.67A2.7,2.7,0,0,1,546.69,138.48Zm-1.87,1.08a1.24,1.24,0,0,0-.33.74h2.15a1,1,0,0,0-.33-.76,1.11,1.11,0,0,0-.74-.26A1,1,0,0,0,544.82,139.56Z"/><path d="M551.24,138.27h.11v1.29l-.21,0H551a1,1,0,0,0-1,.5,1.86,1.86,0,0,0-.14.85v2.29h-1.27v-4.79h1.2v.83a2.66,2.66,0,0,1,.5-.65,1.38,1.38,0,0,1,.92-.3Z"/><path d="M554,140.26a2.25,2.25,0,0,0,.5-.11.39.39,0,0,0,.27-.36.43.43,0,0,0-.21-.41,1.38,1.38,0,0,0-.61-.11.76.76,0,0,0-.63.22.93.93,0,0,0-.18.44h-1.21a1.77,1.77,0,0,1,.35-1,2.07,2.07,0,0,1,1.71-.64,3.05,3.05,0,0,1,1.41.32,1.18,1.18,0,0,1,.61,1.17V142c0,.15,0,.34,0,.56a.74.74,0,0,0,.07.33.45.45,0,0,0,.19.14v.19H554.9a1.14,1.14,0,0,1-.08-.27,2.54,2.54,0,0,1,0-.29,2.88,2.88,0,0,1-.6.48,1.87,1.87,0,0,1-.92.23,1.64,1.64,0,0,1-1.08-.37,1.54,1.54,0,0,1,.26-2.33,2.9,2.9,0,0,1,1.11-.31Zm.76.58a1.34,1.34,0,0,1-.24.12l-.34.09-.28,0a1.94,1.94,0,0,0-.58.17.66.66,0,0,0-.11,1,.7.7,0,0,0,.44.14,1.29,1.29,0,0,0,.75-.24,1,1,0,0,0,.36-.86Z"/><path d="M559.46,138.37a1.49,1.49,0,0,1,.73.7v-.69h1.22v4.54a2.53,2.53,0,0,1-.31,1.4,2.29,2.29,0,0,1-2.05.81,2.78,2.78,0,0,1-1.5-.36,1.32,1.32,0,0,1-.64-1.08h1.36a.55.55,0,0,0,.17.32,1.07,1.07,0,0,0,.68.17.93.93,0,0,0,.91-.45,2.35,2.35,0,0,0,.14-1v-.31a1.35,1.35,0,0,1-1.35.75,1.85,1.85,0,0,1-1.48-.65,2.59,2.59,0,0,1-.55-1.75,3,3,0,0,1,.53-1.8,1.78,1.78,0,0,1,1.51-.73A1.73,1.73,0,0,1,559.46,138.37Zm.42,3.44a1.54,1.54,0,0,0,.3-1.06,1.65,1.65,0,0,0-.28-1,1,1,0,0,0-.77-.35.92.92,0,0,0-.91.62,2.37,2.37,0,0,0-.13.81,1.88,1.88,0,0,0,.14.74.91.91,0,0,0,.91.61A1,1,0,0,0,559.88,141.81Z"/><path d="M565.71,138.48a2,2,0,0,1,.82.7,2.25,2.25,0,0,1,.38,1,6,6,0,0,1,.05,1h-3.49a1.14,1.14,0,0,0,.5,1,1.27,1.27,0,0,0,.69.18,1.08,1.08,0,0,0,.69-.22,1,1,0,0,0,.26-.33h1.28a1.56,1.56,0,0,1-.46.86,2.32,2.32,0,0,1-1.81.7,2.55,2.55,0,0,1-1.68-.59,2.31,2.31,0,0,1-.73-1.92,2.57,2.57,0,0,1,.66-1.9,2.28,2.28,0,0,1,1.71-.67A2.75,2.75,0,0,1,565.71,138.48Zm-1.88,1.08a1.24,1.24,0,0,0-.33.74h2.16a1.08,1.08,0,0,0-.34-.76,1.11,1.11,0,0,0-.74-.26A1,1,0,0,0,563.83,139.56Z"/><path d="M533.82,154h-1.34v-6.48h1.34Z"/><path d="M538.85,149.45a1.6,1.6,0,0,1,.47,1.29V154H538v-2.91a1.41,1.41,0,0,0-.1-.58.71.71,0,0,0-.7-.37.87.87,0,0,0-.87.54,1.89,1.89,0,0,0-.12.73V154H535v-4.78h1.21v.7a2.2,2.2,0,0,1,.45-.54,1.63,1.63,0,0,1,1-.29A1.83,1.83,0,0,1,538.85,149.45Z"/><path d="M543.43,149.18h1.35L543.05,154h-1.32L540,149.18h1.41l1,3.53Z"/><path d="M548.61,149.28a1.93,1.93,0,0,1,.83.7,2.53,2.53,0,0,1,.38,1,6.23,6.23,0,0,1,0,1h-3.49a1.17,1.17,0,0,0,.5,1,1.31,1.31,0,0,0,.69.18,1.1,1.1,0,0,0,.7-.22,1.12,1.12,0,0,0,.26-.33h1.28a1.58,1.58,0,0,1-.47.86,2.31,2.31,0,0,1-1.8.7,2.58,2.58,0,0,1-1.69-.59,2.34,2.34,0,0,1-.73-1.92,2.57,2.57,0,0,1,.66-1.9,2.28,2.28,0,0,1,1.71-.67A2.71,2.71,0,0,1,548.61,149.28Zm-1.87,1.08a1.31,1.31,0,0,0-.34.74h2.16a1,1,0,0,0-.33-.76,1.11,1.11,0,0,0-.74-.26A1,1,0,0,0,546.74,150.36Z"/><path d="M551.47,152.44a.76.76,0,0,0,.17.47,1.16,1.16,0,0,0,.87.25,1.2,1.2,0,0,0,.58-.11.34.34,0,0,0,.22-.32.38.38,0,0,0-.17-.33,8.3,8.3,0,0,0-1.31-.37,2.76,2.76,0,0,1-1.15-.51,1.08,1.08,0,0,1-.34-.86,1.52,1.52,0,0,1,.52-1.14,2.1,2.1,0,0,1,1.47-.48,2.71,2.71,0,0,1,1.47.36,1.57,1.57,0,0,1,.65,1.24h-1.26a.69.69,0,0,0-.13-.38.88.88,0,0,0-.71-.26,1,1,0,0,0-.58.13.35.35,0,0,0-.18.3.34.34,0,0,0,.19.31,8.16,8.16,0,0,0,1.31.35,2.3,2.3,0,0,1,1.12.53,1.19,1.19,0,0,1,.37.9,1.47,1.47,0,0,1-.53,1.16,2.51,2.51,0,0,1-1.64.45,2.45,2.45,0,0,1-1.67-.48,1.53,1.53,0,0,1-.54-1.21Z"/><path d="M555,150.11v-.89h.67v-1.33h1.24v1.33h.77v.89h-.77v2.54a.57.57,0,0,0,.07.36.79.79,0,0,0,.46.08h.24V154l-.59,0a1.56,1.56,0,0,1-1.21-.3.94.94,0,0,1-.21-.67v-2.95Z"/><path d="M562.49,153.38a2.63,2.63,0,0,1-3.68,0,2.8,2.8,0,0,1-.61-1.8,2.84,2.84,0,0,1,.61-1.8,2.63,2.63,0,0,1,3.68,0,2.78,2.78,0,0,1,.61,1.8A2.74,2.74,0,0,1,562.49,153.38Zm-1-.69a2.2,2.2,0,0,0,0-2.22,1,1,0,0,0-.84-.39,1,1,0,0,0-.85.39,2.27,2.27,0,0,0,0,2.22,1,1,0,0,0,.85.39A1,1,0,0,0,561.49,152.69Z"/><path d="M566.66,149.07h.1v1.29l-.21,0h-.15a1,1,0,0,0-1,.5,1.84,1.84,0,0,0-.15.85V154H564v-4.79h1.2V150a2.66,2.66,0,0,1,.5-.65,1.38,1.38,0,0,1,.92-.3Z"/><path d="M589.53,136.7h.88v6.46h-.88Z"/><path d="M591.73,138.45h.75v.67a2,2,0,0,1,.71-.59,1.87,1.87,0,0,1,.83-.18,1.37,1.37,0,0,1,1.35.69,2.5,2.5,0,0,1,.19,1.1v3h-.8v-3a1.49,1.49,0,0,0-.13-.69.76.76,0,0,0-.76-.44,1.89,1.89,0,0,0-.46.05,1.22,1.22,0,0,0-.57.39,1.14,1.14,0,0,0-.26.48,3.22,3.22,0,0,0-.06.71v2.47h-.79Z"/><path d="M597.1,137a1.22,1.22,0,0,1,1.07-.4h.15l.19,0v.72h-.29c-.24,0-.39.06-.44.18a4.08,4.08,0,0,0-.07.95h.8v.63h-.8v4.06h-.78V139.1h-.65v-.63h.65v-.73A1.48,1.48,0,0,1,597.1,137Z"/><path d="M599.26,136.7h.79v6.46h-.79Z"/><path d="M603.76,140.31a.41.41,0,0,0,.36-.23.62.62,0,0,0,0-.3.64.64,0,0,0-.28-.59,1.6,1.6,0,0,0-.83-.18,1,1,0,0,0-.87.33,1.08,1.08,0,0,0-.19.55h-.74a1.35,1.35,0,0,1,.56-1.21,2.31,2.31,0,0,1,1.26-.34,2.59,2.59,0,0,1,1.35.31,1.08,1.08,0,0,1,.51,1v2.71a.39.39,0,0,0,0,.2.26.26,0,0,0,.22.07h.12l.14,0v.58l-.29.07h-.26a.65.65,0,0,1-.59-.29,1.08,1.08,0,0,1-.14-.44,2,2,0,0,1-.69.55,2.14,2.14,0,0,1-1,.24,1.51,1.51,0,0,1-1.07-.4,1.33,1.33,0,0,1-.42-1,1.29,1.29,0,0,1,.41-1,1.9,1.9,0,0,1,1.08-.44Zm-1.67,2.14a1,1,0,0,0,.59.19,1.78,1.78,0,0,0,.81-.19,1.08,1.08,0,0,0,.66-1v-.63a1.42,1.42,0,0,1-.37.15,3.58,3.58,0,0,1-.45.09l-.48.06a1.91,1.91,0,0,0-.64.18.7.7,0,0,0-.37.66A.65.65,0,0,0,602.09,142.45Z"/><path d="M606.4,137.14h.8v1.31H608v.65h-.75v3.07a.34.34,0,0,0,.16.33.8.8,0,0,0,.31.05H608v.63l-.28.06h-.32a.88.88,0,0,1-.76-.28,1.29,1.29,0,0,1-.19-.74V139.1h-.64v-.65h.64Z"/><path d="M608.74,136.7h.8v.9h-.8Zm0,1.77h.8v4.69h-.8Z"/><path d="M614.15,138.92a2.37,2.37,0,0,1,.62,1.78,3,3,0,0,1-.55,1.88,2,2,0,0,1-1.7.74,1.88,1.88,0,0,1-1.53-.65,2.61,2.61,0,0,1-.57-1.76A2.82,2.82,0,0,1,611,139a2,2,0,0,1,1.6-.7A2.14,2.14,0,0,1,614.15,138.92Zm-.49,3.13a3,3,0,0,0,.29-1.32,2.42,2.42,0,0,0-.21-1.08,1.17,1.17,0,0,0-1.14-.64,1.1,1.1,0,0,0-1,.55,2.55,2.55,0,0,0-.33,1.33,2.22,2.22,0,0,0,.33,1.25,1.12,1.12,0,0,0,1,.5A1.07,1.07,0,0,0,613.66,142.05Z"/><path d="M615.75,138.45h.75v.67a2.08,2.08,0,0,1,.7-.59,1.9,1.9,0,0,1,.83-.18,1.39,1.39,0,0,1,1.36.69,2.5,2.5,0,0,1,.19,1.1v3h-.8v-3a1.63,1.63,0,0,0-.13-.69.76.76,0,0,0-.76-.44,2,2,0,0,0-.47.05,1.33,1.33,0,0,0-.57.39,1.11,1.11,0,0,0-.25.48,3.22,3.22,0,0,0-.06.71v2.47h-.79Z"/><path d="M104.13,22.92v.69a8.51,8.51,0,0,0-.81,1,11.51,11.51,0,0,0-.89,1.58,12.92,12.92,0,0,0-.58,1.5c-.08.29-.19.75-.33,1.4h-.87A10.82,10.82,0,0,1,102,25.52a11.36,11.36,0,0,1,1.26-1.8H99.75v-.8Z"/><path d="M105.2,28.15h.92v1h-.92Z"/><path d="M107.79,25.43a1.23,1.23,0,0,1-.35-.92A1.65,1.65,0,0,1,108,23.3a2,2,0,0,1,1.44-.5,2,2,0,0,1,1.42.47,1.49,1.49,0,0,1,.51,1.12,1.44,1.44,0,0,1-.3.95,1.89,1.89,0,0,1-.51.41,1.91,1.91,0,0,1,.61.41,1.57,1.57,0,0,1,.42,1.14,1.94,1.94,0,0,1-.55,1.41,2.09,2.09,0,0,1-1.58.58,2.49,2.49,0,0,1-1.56-.5,1.74,1.74,0,0,1-.63-1.45,1.69,1.69,0,0,1,.27-1,1.67,1.67,0,0,1,.81-.62A1.73,1.73,0,0,1,107.79,25.43Zm2.55,2.84a1.08,1.08,0,0,0,.36-.88,1.17,1.17,0,0,0-.37-.93,1.44,1.44,0,0,0-1-.32,1.32,1.32,0,0,0-.93.33,1.12,1.12,0,0,0-.35.89,1.2,1.2,0,0,0,.32.85,1.31,1.31,0,0,0,1,.36A1.41,1.41,0,0,0,110.34,28.27Zm-.15-3.11a.94.94,0,0,0,.29-.7.93.93,0,0,0-.28-.65,1.13,1.13,0,0,0-.85-.29,1.07,1.07,0,0,0-.83.29,1,1,0,0,0-.25.7.83.83,0,0,0,.33.69,1.23,1.23,0,0,0,.77.25A1.14,1.14,0,0,0,110.19,25.16Z"/><path d="M114.84,23.45a1.51,1.51,0,0,1,.45,1.09,1.54,1.54,0,0,1-3.07,0,1.51,1.51,0,0,1,.45-1.09,1.53,1.53,0,0,1,2.17,0Zm-.44,1.73a.92.92,0,0,0,0-1.28.88.88,0,0,0-.65-.27.9.9,0,0,0-.9.91.9.9,0,0,0,.26.64.92.92,0,0,0,.64.26A.91.91,0,0,0,114.4,25.18Zm3-2.34h.49l-3.52,6.44h-.49Zm1.72,3.65A1.53,1.53,0,1,1,117,28.66a1.56,1.56,0,0,1,0-2.17,1.56,1.56,0,0,1,2.17,0Zm-.44,1.73a.86.86,0,0,0,.26-.64.84.84,0,0,0-.26-.64.87.87,0,0,0-.64-.27.92.92,0,0,0-.91.91.87.87,0,0,0,.27.64.84.84,0,0,0,.64.26A.86.86,0,0,0,118.71,28.22Z"/><path d="M159.19,29.44v.69a7.11,7.11,0,0,0-.81,1,11.64,11.64,0,0,0-1.47,3.07c-.08.29-.19.76-.33,1.4h-.87A10.77,10.77,0,0,1,157,32a11.47,11.47,0,0,1,1.26-1.81h-3.48v-.79Z"/><path d="M160.26,34.67h.91v.95h-.91Z"/><path d="M162.6,34.21a2.78,2.78,0,0,1,1.15-1.1l.84-.48a3.59,3.59,0,0,0,.79-.57,1.16,1.16,0,0,0,.37-.83,1.12,1.12,0,0,0-1.21-1.2,1.15,1.15,0,0,0-1.13.62,2.18,2.18,0,0,0-.18.91h-.81a2.79,2.79,0,0,1,.31-1.34,1.89,1.89,0,0,1,1.81-.91,2,2,0,0,1,1.58.58,2,2,0,0,1,.5,1.3,1.8,1.8,0,0,1-.53,1.3,5.56,5.56,0,0,1-1.11.75l-.6.34a3.36,3.36,0,0,0-.67.45,1.63,1.63,0,0,0-.56.85h3.44v.74h-4.32A3.75,3.75,0,0,1,162.6,34.21Z"/><path d="M169.9,30a1.47,1.47,0,0,1,.45,1.08,1.44,1.44,0,0,1-.45,1.08,1.53,1.53,0,0,1-2.17,0,1.44,1.44,0,0,1-.45-1.08A1.53,1.53,0,0,1,169.9,30Zm-.44,1.72a.88.88,0,0,0,.26-.64.9.9,0,0,0-.26-.64.92.92,0,0,0-.65-.26.89.89,0,0,0-.9.9.88.88,0,0,0,.26.64.87.87,0,0,0,.64.27A.89.89,0,0,0,169.46,31.69Zm3-2.33H173l-3.52,6.43H169ZM174.21,33a1.53,1.53,0,0,1,0,2.17,1.56,1.56,0,0,1-2.17,0A1.53,1.53,0,1,1,174.21,33Zm-.44,1.72a.88.88,0,0,0,.26-.64.9.9,0,0,0-.26-.64.86.86,0,0,0-.64-.26.88.88,0,0,0-.65.26.9.9,0,0,0-.26.64.9.9,0,0,0,.91.91A.87.87,0,0,0,173.77,34.73Z"/><path d="M213.32,39a1.89,1.89,0,0,1,.41,1.13H213a1.5,1.5,0,0,0-.22-.58,1,1,0,0,0-.87-.4,1.24,1.24,0,0,0-1.06.61,3.58,3.58,0,0,0-.43,1.76,1.66,1.66,0,0,1,.69-.6,2.07,2.07,0,0,1,.84-.17,2,2,0,0,1,1.38.5,1.89,1.89,0,0,1,.59,1.51,2.3,2.3,0,0,1-.56,1.52,2,2,0,0,1-1.59.66,2,2,0,0,1-1.53-.67,3.26,3.26,0,0,1-.64-2.26,6.1,6.1,0,0,1,.29-2,2,2,0,0,1,2-1.56A1.76,1.76,0,0,1,213.32,39Zm-.6,4.82a1.6,1.6,0,0,0,.31-1,1.76,1.76,0,0,0-.27-.93,1.11,1.11,0,0,0-1-.43,1.25,1.25,0,0,0-1.28,1.36,1.5,1.5,0,0,0,.35,1,1.22,1.22,0,0,0,1,.41A1.07,1.07,0,0,0,212.72,43.79Z"/><path d="M215,43.79h.92v1H215Z"/><path d="M219.71,44.75V43.21H217v-.78l2.88-4h.67v4.08h.93v.69h-.93v1.54Zm0-2.23V39.66l-2,2.86Z"/><path d="M224.63,39.09a1.53,1.53,0,1,1-2.17,2.17,1.56,1.56,0,0,1,0-2.17,1.53,1.53,0,0,1,2.17,0Zm-.44,1.73a.88.88,0,0,0,.26-.64.84.84,0,0,0-.26-.64.87.87,0,0,0-.64-.27.91.91,0,1,0,0,1.81A.9.9,0,0,0,224.19,40.82Zm3-2.34h.49l-3.52,6.43h-.49Zm1.72,3.65a1.54,1.54,0,0,1-1.08,2.62,1.54,1.54,0,1,1,0-3.07A1.47,1.47,0,0,1,228.94,42.13Zm-.44,1.73a.92.92,0,1,0-.64.26A.89.89,0,0,0,228.5,43.86Z"/><path d="M268.05,39a1.84,1.84,0,0,1,.42,1.13h-.79a1.35,1.35,0,0,0-.22-.58,1,1,0,0,0-.87-.4,1.21,1.21,0,0,0-1,.61,3.57,3.57,0,0,0-.44,1.76,1.66,1.66,0,0,1,.69-.6,2.07,2.07,0,0,1,.84-.17,2,2,0,0,1,1.38.5,1.89,1.89,0,0,1,.59,1.51,2.25,2.25,0,0,1-.56,1.52,2,2,0,0,1-1.59.66,2,2,0,0,1-1.52-.67,3.21,3.21,0,0,1-.64-2.26,6.12,6.12,0,0,1,.28-2,2,2,0,0,1,2-1.56A1.76,1.76,0,0,1,268.05,39Zm-.59,4.82a1.67,1.67,0,0,0,.31-1,1.77,1.77,0,0,0-.28-.93,1.11,1.11,0,0,0-1-.43,1.25,1.25,0,0,0-1.28,1.36,1.5,1.5,0,0,0,.35,1,1.23,1.23,0,0,0,1,.41A1.1,1.1,0,0,0,267.46,43.79Z"/><path d="M269.72,43.79h.92v1h-.92Z"/><path d="M274.44,44.75V43.21h-2.76v-.78l2.88-4h.67v4.08h.93v.69h-.93v1.54Zm0-2.23V39.66l-2,2.86Z"/><path d="M279.36,39.09a1.52,1.52,0,1,1-1.08-.45A1.48,1.48,0,0,1,279.36,39.09Zm-.44,1.73a.89.89,0,0,0,.27-.64.92.92,0,0,0-.91-.91.9.9,0,0,0-.64.26.88.88,0,0,0-.27.65.89.89,0,0,0,.27.64.9.9,0,0,0,.64.26A.88.88,0,0,0,278.92,40.82Zm3-2.34h.49l-3.52,6.43h-.49Zm1.71,3.65a1.53,1.53,0,0,1,0,2.17,1.44,1.44,0,0,1-1.08.45,1.54,1.54,0,0,1,0-3.07A1.44,1.44,0,0,1,283.67,42.13Zm-.44,1.73a.92.92,0,1,0-.64.26A.89.89,0,0,0,283.23,43.86Z"/><path d="M322.78,43.86A1.84,1.84,0,0,1,323.2,45h-.78a1.55,1.55,0,0,0-.23-.59,1,1,0,0,0-.86-.39,1.19,1.19,0,0,0-1.06.61,3.47,3.47,0,0,0-.43,1.76,1.7,1.7,0,0,1,.68-.6,1.93,1.93,0,0,1,.85-.18,2,2,0,0,1,1.37.51,1.86,1.86,0,0,1,.59,1.51,2.27,2.27,0,0,1-.55,1.51,2,2,0,0,1-1.6.67,2.07,2.07,0,0,1-1.52-.67,3.21,3.21,0,0,1-.64-2.26,6.08,6.08,0,0,1,.28-2,2,2,0,0,1,2-1.57A1.74,1.74,0,0,1,322.78,43.86Zm-.59,4.81a1.6,1.6,0,0,0,.31-1,1.65,1.65,0,0,0-.28-.92,1.09,1.09,0,0,0-1-.44,1.36,1.36,0,0,0-.9.34,1.29,1.29,0,0,0-.38,1,1.46,1.46,0,0,0,.35,1,1.2,1.2,0,0,0,1,.4A1.09,1.09,0,0,0,322.19,48.67Z"/><path d="M324.46,48.68h.91v1h-.91Z"/><path d="M327.05,45.18v-.61a3.26,3.26,0,0,0,1.19-.28,1.36,1.36,0,0,0,.51-.92h.62v6.26h-.84V45.18Z"/><path d="M334.1,44a1.51,1.51,0,0,1,.45,1.08,1.5,1.5,0,0,1-.45,1.08,1.53,1.53,0,0,1-2.17,0,1.46,1.46,0,0,1-.45-1.08A1.53,1.53,0,0,1,334.1,44Zm-.45,1.72a.89.89,0,0,0,0-1.28.88.88,0,0,0-.64-.26.9.9,0,0,0-.64.26.92.92,0,0,0,0,1.28A.87.87,0,0,0,333,46,.85.85,0,0,0,333.65,45.7Zm3-2.33h.49l-3.52,6.43h-.49ZM338.41,47a1.47,1.47,0,0,1,.45,1.08,1.46,1.46,0,0,1-.45,1.08,1.53,1.53,0,0,1-2.17,0,1.46,1.46,0,0,1-.45-1.08A1.53,1.53,0,0,1,338.41,47ZM338,48.74a.92.92,0,0,0,0-1.28.91.91,0,0,0-1.29,0,.92.92,0,0,0,0,1.28.91.91,0,0,0,1.29,0Z"/><path d="M374.85,52.59a1.1,1.1,0,0,0,.63.94,1.64,1.64,0,0,0,.65.13,1.22,1.22,0,0,0,1-.45,1.59,1.59,0,0,0,.34-1,1.29,1.29,0,0,0-.4-1,1.4,1.4,0,0,0-1-.36,1.42,1.42,0,0,0-.7.16,1.57,1.57,0,0,0-.5.43l-.68,0,.48-3.38H378v.76h-2.68l-.27,1.75a2.43,2.43,0,0,1,.42-.25,2,2,0,0,1,.81-.15,2.09,2.09,0,0,1,1.47.56,1.87,1.87,0,0,1,.6,1.42,2.41,2.41,0,0,1-.55,1.57,2.11,2.11,0,0,1-1.76.68,2.23,2.23,0,0,1-1.36-.43,1.74,1.74,0,0,1-.66-1.33Z"/><path d="M379.51,53.24h.92v.95h-.92Z"/><path d="M386,48v.69a7.11,7.11,0,0,0-.81,1,11.39,11.39,0,0,0-.89,1.57,12.92,12.92,0,0,0-.58,1.5c-.08.29-.19.76-.33,1.4h-.87a10.77,10.77,0,0,1,1.32-3.58,11.47,11.47,0,0,1,1.26-1.81h-3.48V48Z"/><path d="M389.15,48.54a1.53,1.53,0,0,1-1.08,2.61,1.5,1.5,0,0,1-1.08-.44,1.54,1.54,0,0,1,1.08-2.62A1.46,1.46,0,0,1,389.15,48.54Zm-.44,1.72a.85.85,0,0,0,.27-.64.87.87,0,0,0-.27-.64.88.88,0,0,0-.64-.26.9.9,0,0,0-.64.26.87.87,0,0,0-.27.64.85.85,0,0,0,.27.64.87.87,0,0,0,.64.27A.85.85,0,0,0,388.71,50.26Zm3-2.33h.49l-3.52,6.43h-.49Zm1.72,3.65a1.53,1.53,0,0,1-2.17,2.17,1.53,1.53,0,1,1,2.17-2.17ZM393,53.3a.85.85,0,0,0,.27-.64A.87.87,0,0,0,393,52a.84.84,0,0,0-.64-.26.86.86,0,0,0-.64.26.87.87,0,0,0-.27.64.85.85,0,0,0,.27.64.87.87,0,0,0,.64.27A.85.85,0,0,0,393,53.3Z"/><path d="M429.91,60.74a1.07,1.07,0,0,0,.63.93,1.45,1.45,0,0,0,.65.13,1.22,1.22,0,0,0,1-.45,1.63,1.63,0,0,0,.34-1,1.32,1.32,0,0,0-.4-1,1.53,1.53,0,0,0-1.67-.2,1.5,1.5,0,0,0-.5.44l-.68,0,.48-3.39h3.26v.77h-2.67l-.27,1.75a2,2,0,0,1,.42-.26,2.21,2.21,0,0,1,.81-.14,2.09,2.09,0,0,1,1.47.56,1.84,1.84,0,0,1,.6,1.41,2.43,2.43,0,0,1-.55,1.58,2.16,2.16,0,0,1-1.76.68,2.24,2.24,0,0,1-1.36-.44,1.66,1.66,0,0,1-.66-1.32Z"/><path d="M434.57,61.38h.92v1h-.92Z"/><path d="M440.5,57.05a4.4,4.4,0,0,1,.43,2.13,5.07,5.07,0,0,1-.39,2.13,1.87,1.87,0,0,1-1.81,1.2,1.81,1.81,0,0,1-1.68-1,4.5,4.5,0,0,1-.47-2.21,5.56,5.56,0,0,1,.28-1.84,1.89,1.89,0,0,1,1.88-1.43A1.85,1.85,0,0,1,440.5,57.05Zm-.79,4.19a4,4,0,0,0,.36-2,4.91,4.91,0,0,0-.26-1.76,1,1,0,0,0-1-.69,1.08,1.08,0,0,0-1,.65,4.51,4.51,0,0,0-.32,1.94,5,5,0,0,0,.2,1.55,1.14,1.14,0,0,0,1.09.89A1.12,1.12,0,0,0,439.71,61.24Z"/><path d="M444.21,56.69a1.52,1.52,0,1,1-1.08-.45A1.47,1.47,0,0,1,444.21,56.69Zm-.44,1.72a.91.91,0,1,0-1.28-1.28.85.85,0,0,0-.27.64.87.87,0,0,0,.27.64.92.92,0,0,0,1.28,0Zm3-2.34h.49l-3.52,6.44h-.49Zm1.71,3.66a1.46,1.46,0,0,1,.45,1.08,1.47,1.47,0,0,1-.45,1.08,1.44,1.44,0,0,1-1.08.45,1.54,1.54,0,0,1-1.53-1.53,1.46,1.46,0,0,1,.45-1.08,1.47,1.47,0,0,1,1.08-.45A1.44,1.44,0,0,1,448.52,59.73Zm-.44,1.72a.87.87,0,0,0,.27-.64.92.92,0,0,0-.91-.91.87.87,0,0,0-.64.27.85.85,0,0,0-.27.64.92.92,0,0,0,.91.91A.85.85,0,0,0,448.08,61.45Z"/><path d="M484.25,81.12a2.26,2.26,0,0,1-.5-1.49h.82a2,2,0,0,0,.23.88,1.19,1.19,0,0,0,1.11.5,1.45,1.45,0,0,0,1-.33,1.08,1.08,0,0,0,.38-.86,1,1,0,0,0-.4-.91,1.93,1.93,0,0,0-1.1-.26h-.33V78h.39a1.69,1.69,0,0,0,.73-.14.91.91,0,0,0,.5-.88.88.88,0,0,0-.33-.73A1.27,1.27,0,0,0,486,76a1.15,1.15,0,0,0-1.09.53,1.65,1.65,0,0,0-.19.82h-.79a2.43,2.43,0,0,1,.28-1.19,1.78,1.78,0,0,1,1.71-.88,2.3,2.3,0,0,1,1.49.43,1.5,1.5,0,0,1,.52,1.24,1.37,1.37,0,0,1-.31.94,1.22,1.22,0,0,1-.5.35,1.39,1.39,0,0,1,.78.53,1.61,1.61,0,0,1,.27,1,1.93,1.93,0,0,1-.59,1.47,2.37,2.37,0,0,1-1.68.56A2,2,0,0,1,484.25,81.12Z"/><path d="M489.31,80.6h.91v1h-.91Z"/><path d="M494,81.56V80h-2.76v-.77l2.89-4h.67v4.08h.92V80h-.92v1.54Zm0-2.23V76.47l-2,2.86Z"/><path d="M499,75.91a1.53,1.53,0,1,1-1.09-.45A1.47,1.47,0,0,1,499,75.91Zm-.44,1.72a.92.92,0,0,0,0-1.28.88.88,0,0,0-.65-.26.86.86,0,0,0-.64.26A.88.88,0,0,0,497,77a.9.9,0,0,0,.26.64.87.87,0,0,0,.64.27A.89.89,0,0,0,498.51,77.63Zm3-2.34H502l-3.52,6.44H498ZM503.26,79a1.53,1.53,0,1,1-1.08-.45A1.47,1.47,0,0,1,503.26,79Zm-.44,1.72a.92.92,0,0,0,0-1.28.91.91,0,0,0-1.29,0,.92.92,0,0,0,0,1.28.91.91,0,0,0,1.29,0Z"/><path d="M539.27,90.73a3.6,3.6,0,0,1,1.27-1.35,8.79,8.79,0,0,0,1.12-.88,1.33,1.33,0,0,0,.39-.92,1,1,0,0,0-.22-.67.8.8,0,0,0-.65-.27.76.76,0,0,0-.77.43,2,2,0,0,0-.14.78h-1.22a3.14,3.14,0,0,1,.29-1.31,1.85,1.85,0,0,1,1.79-1,2.29,2.29,0,0,1,1.61.56,2.13,2.13,0,0,1,.17,2.74,4,4,0,0,1-.91.82l-.5.35c-.32.23-.53.39-.65.49a1.58,1.58,0,0,0-.29.34h2.78V92H539A3.07,3.07,0,0,1,539.27,90.73Z"/><path d="M544.27,90.67h1.33V92h-1.33Z"/><path d="M549.5,87.22a.64.64,0,0,0-.12-.34.67.67,0,0,0-.61-.3.92.92,0,0,0-.87.69,4.62,4.62,0,0,0-.19,1.11,1.46,1.46,0,0,1,.54-.4,1.75,1.75,0,0,1,.7-.13,1.8,1.8,0,0,1,1.39.58,2,2,0,0,1,.55,1.47,2.5,2.5,0,0,1-.53,1.57,2,2,0,0,1-1.66.68,1.89,1.89,0,0,1-1.77-1,4.07,4.07,0,0,1-.45-2,9.15,9.15,0,0,1,.07-1.19,3.58,3.58,0,0,1,.42-1.35,2.16,2.16,0,0,1,.72-.75,2,2,0,0,1,1-.28,2.06,2.06,0,0,1,1.42.46,1.7,1.7,0,0,1,.59,1.21ZM548,90.81a.86.86,0,0,0,.7.32.78.78,0,0,0,.66-.31,1.31,1.31,0,0,0,.24-.82,1.22,1.22,0,0,0-.27-.85.89.89,0,0,0-.67-.3.88.88,0,0,0-.57.2,1.07,1.07,0,0,0-.37.92A1.24,1.24,0,0,0,548,90.81Z"/><path d="M554.21,88.44a1.64,1.64,0,0,1-2.32-2.32,1.64,1.64,0,0,1,2.32,2.32Zm-.66-.67a.7.7,0,0,0,0-1,.69.69,0,0,0-.5-.21.7.7,0,0,0,0,1.4A.69.69,0,0,0,553.55,87.77Zm3.07-2.16h.67l-3.55,6.54h-.68Zm1.86,6a1.59,1.59,0,0,1-1.16.48,1.56,1.56,0,0,1-1.15-.48,1.55,1.55,0,0,1-.48-1.15,1.64,1.64,0,0,1,1.63-1.64A1.64,1.64,0,0,1,559,90.48,1.55,1.55,0,0,1,558.48,91.63ZM557.82,90a.7.7,0,0,0-.5-.2.68.68,0,0,0-.49.2.69.69,0,0,0-.21.5.72.72,0,0,0,.7.7.67.67,0,0,0,.5-.21.68.68,0,0,0,.2-.49A.72.72,0,0,0,557.82,90Z"/><path d="M594.26,96.11A2.71,2.71,0,0,1,595.41,95l.84-.49A3.59,3.59,0,0,0,597,94a1.16,1.16,0,0,0,.37-.83,1.18,1.18,0,0,0-.33-.88,1.24,1.24,0,0,0-.88-.32,1.15,1.15,0,0,0-1.13.62,2.18,2.18,0,0,0-.18.91h-.81a2.79,2.79,0,0,1,.31-1.34,1.89,1.89,0,0,1,1.81-.91,2,2,0,0,1,1.58.58,2,2,0,0,1,.5,1.3,1.8,1.8,0,0,1-.53,1.3,5.56,5.56,0,0,1-1.11.75l-.6.34a3.68,3.68,0,0,0-.67.45,1.63,1.63,0,0,0-.56.85h3.44v.74h-4.32A3.75,3.75,0,0,1,594.26,96.11Z"/><path d="M599.42,96.57h.92v1h-.92Z"/><path d="M602,93.07v-.61a3.12,3.12,0,0,0,1.2-.28,1.4,1.4,0,0,0,.51-.92h.62v6.26h-.84V93.07Z"/><path d="M609.06,91.87a1.53,1.53,0,0,1,0,2.17,1.55,1.55,0,0,1-2.16,0,1.53,1.53,0,1,1,2.16-2.17Zm-.44,1.72a.85.85,0,0,0,.27-.64.9.9,0,0,0-.91-.9.9.9,0,0,0-.64.26.87.87,0,0,0-.27.64.85.85,0,0,0,.27.64.87.87,0,0,0,.64.27A.85.85,0,0,0,608.62,93.59Zm3-2.33h.49l-3.52,6.43h-.49Zm1.72,3.65a1.53,1.53,0,0,1-2.17,2.17,1.53,1.53,0,1,1,2.17-2.17Zm-.45,1.72a.85.85,0,0,0,.27-.64.87.87,0,0,0-.27-.64.84.84,0,0,0-.64-.26.86.86,0,0,0-.64.26.87.87,0,0,0-.27.64.85.85,0,0,0,.27.64.87.87,0,0,0,.64.27A.85.85,0,0,0,612.93,96.63Z"/><path d="M46.32,13.46a1,1,0,0,0,.51.91,1.08,1.08,0,0,0,.54.13,1.25,1.25,0,0,0,1-.47,3.87,3.87,0,0,0,.57-1.92,1.58,1.58,0,0,1-.65.59,2.13,2.13,0,0,1-.84.16A1.85,1.85,0,0,1,46,12.3a2.06,2.06,0,0,1-.53-1.46A2.3,2.3,0,0,1,46,9.34a1.84,1.84,0,0,1,1.54-.65,1.9,1.9,0,0,1,1.9,1.23,4.3,4.3,0,0,1,.29,1.71,5.59,5.59,0,0,1-.34,2,2,2,0,0,1-2,1.49,1.9,1.9,0,0,1-1.4-.48,1.67,1.67,0,0,1-.48-1.22Zm2.06-1.6a1.3,1.3,0,0,0,.39-1.08,1.38,1.38,0,0,0-.35-1,1.32,1.32,0,0,0-1.81,0,1.52,1.52,0,0,0-.34,1,1.49,1.49,0,0,0,.3,1,1.17,1.17,0,0,0,1,.36A1.32,1.32,0,0,0,48.38,11.86Z"/><path d="M50.9,14h.92v1H50.9Z"/><path d="M53.5,10.53V9.92a3.1,3.1,0,0,0,1.19-.27,1.4,1.4,0,0,0,.51-.93h.62V15H55V10.53Z"/><path d="M60.54,9.33A1.5,1.5,0,0,1,61,10.42a1.47,1.47,0,0,1-.45,1.08,1.46,1.46,0,0,1-1.08.45,1.54,1.54,0,0,1-1.53-1.53,1.5,1.5,0,0,1,.45-1.09,1.47,1.47,0,0,1,1.08-.45A1.46,1.46,0,0,1,60.54,9.33Zm-.44,1.73a.89.89,0,0,0,0-1.28.85.85,0,0,0-.64-.27.87.87,0,0,0-.64.27.85.85,0,0,0-.27.64.87.87,0,0,0,.27.64.9.9,0,0,0,.64.26A.88.88,0,0,0,60.1,11.06Zm3-2.34h.49l-3.52,6.43h-.49Zm1.72,3.65a1.56,1.56,0,0,1,0,2.17,1.54,1.54,0,1,1,0-2.17Zm-.45,1.73a.87.87,0,0,0,.27-.64.92.92,0,0,0-.91-.91.87.87,0,0,0-.64.27.85.85,0,0,0-.27.64.87.87,0,0,0,.27.64.9.9,0,0,0,.64.26A.88.88,0,0,0,64.41,14.1Z"/><path d="M480.35,136.24h.89v2.67h3.31v-2.67h.89v6.46h-.89v-3h-3.31v3h-.89Z"/><path d="M490.14,138.46a2.39,2.39,0,0,1,.62,1.78,3,3,0,0,1-.55,1.88,2,2,0,0,1-1.71.74,1.91,1.91,0,0,1-1.53-.65,2.6,2.6,0,0,1-.56-1.76,2.82,2.82,0,0,1,.59-1.89,2,2,0,0,1,1.61-.71A2.15,2.15,0,0,1,490.14,138.46Zm-.5,3.13a2.9,2.9,0,0,0,.29-1.32,2.42,2.42,0,0,0-.21-1.08,1.15,1.15,0,0,0-1.13-.65,1.13,1.13,0,0,0-1,.56,2.64,2.64,0,0,0-.32,1.33,2.3,2.3,0,0,0,.32,1.25,1.15,1.15,0,0,0,1,.5A1.05,1.05,0,0,0,489.64,141.59Z"/><path d="M491.73,138h.78v.67a3,3,0,0,1,.51-.51,1.6,1.6,0,0,1,.89-.26,1.43,1.43,0,0,1,.91.27,1.69,1.69,0,0,1,.35.47,1.65,1.65,0,0,1,.62-.56,1.71,1.71,0,0,1,.8-.18,1.3,1.3,0,0,1,1.29.68,2.31,2.31,0,0,1,.18,1v3.14h-.82v-3.27a.78.78,0,0,0-.23-.65.93.93,0,0,0-.58-.17,1.12,1.12,0,0,0-.8.31,1.38,1.38,0,0,0-.33,1v2.74h-.81v-3.07a1.69,1.69,0,0,0-.11-.7.71.71,0,0,0-.68-.33,1.14,1.14,0,0,0-.81.34,1.71,1.71,0,0,0-.37,1.26v2.5h-.79Z"/><path d="M502.13,138.12a1.82,1.82,0,0,1,.72.61,2.17,2.17,0,0,1,.31.83,5.21,5.21,0,0,1,.07,1h-3.42a2,2,0,0,0,.33,1.15,1.13,1.13,0,0,0,1,.43,1.23,1.23,0,0,0,1-.41,1.53,1.53,0,0,0,.29-.55h.78a1.79,1.79,0,0,1-.21.58,2.14,2.14,0,0,1-.39.52,1.79,1.79,0,0,1-.88.47,2.51,2.51,0,0,1-.64.07,2,2,0,0,1-1.48-.63,2.5,2.5,0,0,1-.61-1.8,2.71,2.71,0,0,1,.61-1.84,2,2,0,0,1,1.6-.7A2.06,2.06,0,0,1,502.13,138.12Zm.29,1.85a2.12,2.12,0,0,0-.22-.82,1.15,1.15,0,0,0-1.08-.57,1.21,1.21,0,0,0-.91.39,1.47,1.47,0,0,0-.38,1Z"/><path d="M504.7,141.22a1.22,1.22,0,0,0,.21.61,1.28,1.28,0,0,0,1,.38,1.54,1.54,0,0,0,.79-.19.63.63,0,0,0,.34-.59.5.5,0,0,0-.27-.46,2.93,2.93,0,0,0-.69-.23l-.63-.16a3.4,3.4,0,0,1-.91-.33,1,1,0,0,1-.51-.89,1.37,1.37,0,0,1,.48-1.08,2,2,0,0,1,1.31-.41,1.86,1.86,0,0,1,1.56.62,1.39,1.39,0,0,1,.29.85H507a.9.9,0,0,0-.19-.48,1.25,1.25,0,0,0-1-.31,1.19,1.19,0,0,0-.69.17.52.52,0,0,0-.24.45.54.54,0,0,0,.31.49,1.87,1.87,0,0,0,.53.19l.53.13a4.3,4.3,0,0,1,1.17.4,1.08,1.08,0,0,1,.46,1,1.42,1.42,0,0,1-.49,1.08,2,2,0,0,1-1.47.46,2,2,0,0,1-1.5-.48,1.77,1.77,0,0,1-.48-1.18Z"/></g></svg>