<svg xmlns="http://www.w3.org/2000/svg" viewBox="0 0 417.01 149.86"><defs><style>.cls-1{fill:#28b5bd;}.cls-2{fill:#228f9b;}</style></defs><title>BrandPhilosophy</title><g id="Page3"><path class="cls-1" d="M7.75,19.81V14.52H27.83v5.29h-7V38.53H14.66V19.81Z"/><path class="cls-1" d="M29.69,38.53V22.36A27.85,27.85,0,0,1,40,20.28v5.29a32.93,32.93,0,0,0-4.08.31V38.53Z"/><path class="cls-1" d="M44.85,30.42V20.56H51v11c0,1.76.71,2.64,2.14,2.64l0,0c1.44,0,2.16-.87,2.16-2.62v-11h6.19v9.86q0,8.36-8.35,8.35T44.85,30.42Z"/><path class="cls-1" d="M66.12,26.28a5.21,5.21,0,0,1,2-4.43,8.31,8.31,0,0,1,5.15-1.53,9.77,9.77,0,0,1,5.15,1.45v4.07a8.76,8.76,0,0,0-4.15-1.31c-1.3,0-2,.42-2,1.24,0,.24.27.47.8.71s1.18.52,1.94.82a21.06,21.06,0,0,1,2.25,1.09,5.44,5.44,0,0,1,1.9,1.86,5.22,5.22,0,0,1,.8,2.89,5,5,0,0,1-2,4.06,8,8,0,0,1-5.15,1.57A11,11,0,0,1,66.81,37v-4.8a8.87,8.87,0,0,0,5.43,2.2c1.08,0,1.62-.33,1.62-1,0-.32-.27-.6-.8-.85s-1.16-.51-1.92-.8a21.63,21.63,0,0,1-2.29-1A5.29,5.29,0,0,1,66.91,29,4.7,4.7,0,0,1,66.12,26.28Z"/><path class="cls-1" d="M83.44,24.78V20.56H85.9V15.31h6.19v5.25h3.76v4.22H92.09v8.67a.87.87,0,0,0,.32.68,1.16,1.16,0,0,0,.79.28,5.58,5.58,0,0,0,2.65-.89v4.4a7.31,7.31,0,0,1-3.6.85,6.36,6.36,0,0,1-4.74-1.64,6.35,6.35,0,0,1-1.61-4.62V24.78Z"/><path class="cls-2" d="M114.28,35.39l.13,1.11.2-1,1.59-7h1l1.54,7,.2,1,.14-1.15,1.22-6.81h1.25l-2,10h-1.13l-1.66-7.26-.1-.59-.1.59-1.73,7.26h-1.13l-2-10H113Z"/><path class="cls-2" d="M125.66,38.66a2.69,2.69,0,0,1-2.12-.82,3.59,3.59,0,0,1-.75-2.42v-.89a4.2,4.2,0,0,1,.72-2.6,2.41,2.41,0,0,1,2-.94,2.31,2.31,0,0,1,1.94.83,4.24,4.24,0,0,1,.66,2.58v.79H124v.17a2.7,2.7,0,0,0,.45,1.73,1.57,1.57,0,0,0,1.29.54,2.2,2.2,0,0,0,.94-.2,2.47,2.47,0,0,0,.76-.64l.63.77A2.77,2.77,0,0,1,125.66,38.66ZM125.52,32a1.25,1.25,0,0,0-1.11.52,3,3,0,0,0-.41,1.6h2.91V34a2.82,2.82,0,0,0-.38-1.51A1.17,1.17,0,0,0,125.52,32Z"/><path class="cls-2" d="M133.22,34.49a4.42,4.42,0,0,1,.64-2.6,2.12,2.12,0,0,1,1.84-.9,1.91,1.91,0,0,1,1.65.86V28h1.21v10.5h-1.11l-.06-.8a1.9,1.9,0,0,1-1.7.93,2.08,2.08,0,0,1-1.8-.89,4.22,4.22,0,0,1-.67-2.52Zm1.21.69A3.48,3.48,0,0,0,134.8,37a1.32,1.32,0,0,0,1.2.58,1.44,1.44,0,0,0,1.35-.91V33a1.45,1.45,0,0,0-1.34-.88,1.29,1.29,0,0,0-1.2.58,3.38,3.38,0,0,0-.38,1.79Z"/><path class="cls-2" d="M140.52,34.49a3.89,3.89,0,0,1,.78-2.56,2.76,2.76,0,0,1,4.13,0,3.78,3.78,0,0,1,.81,2.49v.78a3.87,3.87,0,0,1-.78,2.55,2.79,2.79,0,0,1-4.14,0,3.69,3.69,0,0,1-.8-2.46Zm1.21.69a3.16,3.16,0,0,0,.44,1.8,1.4,1.4,0,0,0,1.21.65q1.6,0,1.65-2.31v-.83a3.15,3.15,0,0,0-.45-1.8,1.4,1.4,0,0,0-1.21-.66,1.39,1.39,0,0,0-1.2.66,3.14,3.14,0,0,0-.44,1.79Z"/><path class="cls-2" d="M157.22,36.4l1.12-5.27h1.2l-1.82,7.4h-1l-1.44-5.29-1.41,5.29h-1l-1.8-7.4h1.19l1.15,5.14,1.37-5.14h1Z"/><path class="cls-2" d="M162.36,31.89a2.13,2.13,0,0,1,1.76-.9c1.31,0,2,.88,2,2.62v4.92h-1.2V33.67a2.07,2.07,0,0,0-.29-1.24,1,1,0,0,0-.87-.36,1.23,1.23,0,0,0-.81.3,2.21,2.21,0,0,0-.58.78v5.38h-1.21V28h1.21Z"/><path class="cls-2" d="M172.07,38.53a2.69,2.69,0,0,1-.16-.81,1.91,1.91,0,0,1-1.64.94,2.11,2.11,0,0,1-1.57-.56,2.19,2.19,0,0,1-.56-1.59,2.24,2.24,0,0,1,.76-1.79A3.17,3.17,0,0,1,171,34h.89v-.78A1,1,0,0,0,170.7,32a1.24,1.24,0,0,0-.89.33,1.1,1.1,0,0,0-.34.82h-1.21a1.89,1.89,0,0,1,.34-1.08,2.21,2.21,0,0,1,.9-.81,2.66,2.66,0,0,1,1.26-.3,2.39,2.39,0,0,1,1.73.57,2.17,2.17,0,0,1,.6,1.64v3.73a4.7,4.7,0,0,0,.24,1.49v.11Zm-1.61-1a1.63,1.63,0,0,0,.84-.24,1.52,1.52,0,0,0,.59-.62V34.94h-.68a2.34,2.34,0,0,0-1.36.38,1.25,1.25,0,0,0-.5,1,1.36,1.36,0,0,0,.25.91A1.11,1.11,0,0,0,170.46,37.56Z"/><path class="cls-2" d="M176.9,29.34v1.79H178v1H176.9V36.7a1.19,1.19,0,0,0,.15.66.51.51,0,0,0,.49.23,1.61,1.61,0,0,0,.48-.08v1a2.63,2.63,0,0,1-.84.13,1.27,1.27,0,0,1-1.09-.51,2.41,2.41,0,0,1-.38-1.45V32.11h-1.13v-1h1.13V29.34Z"/><path class="cls-2" d="M180,31.38l-.68-.5a3.73,3.73,0,0,0,.56-1.86V28H181V29a3.6,3.6,0,0,1-.3,1.33A3.07,3.07,0,0,1,180,31.38Z"/><path class="cls-2" d="M185.7,36.63a.88.88,0,0,0-.29-.67,4.6,4.6,0,0,0-1.13-.65,7.14,7.14,0,0,1-1.38-.69,1.87,1.87,0,0,1-.6-.66,1.8,1.8,0,0,1-.2-.87,1.94,1.94,0,0,1,.66-1.5,2.69,2.69,0,0,1,3.42,0,2.14,2.14,0,0,1,.66,1.62h-1.2a1.23,1.23,0,0,0-.34-.86,1.14,1.14,0,0,0-.85-.35,1.17,1.17,0,0,0-.84.28,1,1,0,0,0-.31.74.81.81,0,0,0,.23.59,3.63,3.63,0,0,0,1.07.59,5.77,5.77,0,0,1,1.83,1,1.78,1.78,0,0,1,.48,1.28,2,2,0,0,1-.66,1.55,2.62,2.62,0,0,1-1.78.57A2.65,2.65,0,0,1,182.6,38a2.18,2.18,0,0,1-.72-1.68h1.22a1.26,1.26,0,0,0,1.37,1.31,1.38,1.38,0,0,0,.92-.27A.9.9,0,0,0,185.7,36.63Z"/><path class="cls-2" d="M193.79,29.17a.75.75,0,0,1-.17.51.74.74,0,0,1-1,0,.8.8,0,0,1-.17-.51.81.81,0,0,1,.17-.52.62.62,0,0,1,.51-.21.64.64,0,0,1,.52.21A.79.79,0,0,1,193.79,29.17Zm-.09,9.36h-1.21v-7.4h1.21Z"/><path class="cls-2" d="M197.09,31.13l0,.8a2.18,2.18,0,0,1,1.8-.94c1.31,0,2,.88,2,2.62v4.92h-1.2V33.67a2.07,2.07,0,0,0-.29-1.24,1.07,1.07,0,0,0-.87-.36,1.2,1.2,0,0,0-.81.3,2.1,2.1,0,0,0-.58.78v5.38H196v-7.4Z"/><path class="cls-2" d="M208.65,36.52,210,31.13h1.28l-2.42,8.44a3.26,3.26,0,0,1-.77,1.45,1.56,1.56,0,0,1-1.13.49,2.08,2.08,0,0,1-.63-.11v-1l.26,0a1.28,1.28,0,0,0,.83-.25,1.78,1.78,0,0,0,.48-.87l.24-.83L206,31.13h1.32Z"/><path class="cls-2" d="M212.45,34.49a3.84,3.84,0,0,1,.79-2.56,2.76,2.76,0,0,1,4.13,0,3.83,3.83,0,0,1,.81,2.49v.78a3.87,3.87,0,0,1-.78,2.55,2.59,2.59,0,0,1-2.08.93,2.55,2.55,0,0,1-2.06-.91,3.75,3.75,0,0,1-.81-2.46Zm1.21.69a3.15,3.15,0,0,0,.45,1.8,1.4,1.4,0,0,0,1.21.65q1.59,0,1.65-2.31v-.83a3.08,3.08,0,0,0-.46-1.8,1.42,1.42,0,0,0-2.4,0,3.14,3.14,0,0,0-.45,1.79Z"/><path class="cls-2" d="M223.86,37.88a2.09,2.09,0,0,1-1.76.78,1.79,1.79,0,0,1-1.52-.69,3.45,3.45,0,0,1-.52-2V31.13h1.21v4.73c0,1.15.34,1.73,1,1.73a1.5,1.5,0,0,0,1.51-1V31.13H225v7.4h-1.14Z"/><path class="cls-2" d="M230.26,32.27a2.39,2.39,0,0,0-.55-.05,1.33,1.33,0,0,0-1.3,1v5.29H227.2v-7.4h1.18l0,.75a1.5,1.5,0,0,1,1.37-.89,1,1,0,0,1,.48.1Z"/><path class="cls-2" d="M240.73,35.18a4.47,4.47,0,0,1-.63,2.61,2.06,2.06,0,0,1-1.8.87,1.9,1.9,0,0,1-1.76-1l-.07.88h-1.1V28h1.21v3.91a1.89,1.89,0,0,1,1.71-1,2.08,2.08,0,0,1,1.82.86,4.57,4.57,0,0,1,.62,2.6Zm-1.21-.69a3.61,3.61,0,0,0-.36-1.87,1.32,1.32,0,0,0-1.19-.55,1.47,1.47,0,0,0-1.39,1v3.51a1.47,1.47,0,0,0,1.4,1,1.29,1.29,0,0,0,1.18-.57,3.48,3.48,0,0,0,.36-1.79Z"/><path class="cls-2" d="M245.27,38.66a2.69,2.69,0,0,1-2.12-.82,3.54,3.54,0,0,1-.76-2.42v-.89a4.21,4.21,0,0,1,.73-2.6,2.41,2.41,0,0,1,2-.94,2.31,2.31,0,0,1,1.94.83,4.24,4.24,0,0,1,.66,2.58v.79H243.6v.17a2.7,2.7,0,0,0,.45,1.73,1.55,1.55,0,0,0,1.28.54,2.13,2.13,0,0,0,.94-.2,2.39,2.39,0,0,0,.77-.64l.63.77A2.77,2.77,0,0,1,245.27,38.66ZM245.13,32a1.25,1.25,0,0,0-1.11.52,3,3,0,0,0-.42,1.6h2.92V34a2.91,2.91,0,0,0-.38-1.51A1.17,1.17,0,0,0,245.13,32Z"/><path class="cls-2" d="M253.12,36.63a.92.92,0,0,0-.29-.67,4.72,4.72,0,0,0-1.14-.65,7.3,7.3,0,0,1-1.37-.69,1.87,1.87,0,0,1-.6-.66,1.8,1.8,0,0,1-.2-.87,1.94,1.94,0,0,1,.66-1.5,2.69,2.69,0,0,1,3.42,0,2.14,2.14,0,0,1,.66,1.62h-1.21a1.22,1.22,0,0,0-.33-.86,1.15,1.15,0,0,0-.86-.35,1.16,1.16,0,0,0-.83.28.92.92,0,0,0-.31.74.84.84,0,0,0,.22.59,3.89,3.89,0,0,0,1.08.59,5.77,5.77,0,0,1,1.83,1,1.78,1.78,0,0,1,.48,1.28,2,2,0,0,1-.66,1.55,2.62,2.62,0,0,1-1.78.57A2.65,2.65,0,0,1,250,38a2.18,2.18,0,0,1-.72-1.68h1.22a1.24,1.24,0,0,0,1.37,1.31,1.38,1.38,0,0,0,.92-.27A.9.9,0,0,0,253.12,36.63Z"/><path class="cls-2" d="M257.84,29.34v1.79H259v1h-1.11V36.7a1.3,1.3,0,0,0,.14.66.53.53,0,0,0,.5.23,1.61,1.61,0,0,0,.48-.08v1a2.72,2.72,0,0,1-.84.13,1.28,1.28,0,0,1-1.1-.51,2.41,2.41,0,0,1-.37-1.45V32.11h-1.13v-1h1.13V29.34Z"/><path class="cls-2" d="M265.7,29.17a.8.8,0,0,1-.17.51.75.75,0,0,1-1,0,.8.8,0,0,1-.17-.51.81.81,0,0,1,.17-.52.64.64,0,0,1,.52-.21.62.62,0,0,1,.51.21A.8.8,0,0,1,265.7,29.17Zm-.1,9.36h-1.21v-7.4h1.21Z"/><path class="cls-2" d="M269,31.13l0,.8a2.18,2.18,0,0,1,1.8-.94c1.3,0,2,.88,2,2.62v4.92h-1.2V33.67a2,2,0,0,0-.29-1.24,1,1,0,0,0-.87-.36,1.23,1.23,0,0,0-.81.3,2.21,2.21,0,0,0-.58.78v5.38h-1.21v-7.4Z"/><path class="cls-2" d="M276.56,29.34v1.79h1.12v1h-1.12V36.7a1.19,1.19,0,0,0,.15.66.51.51,0,0,0,.49.23,1.61,1.61,0,0,0,.48-.08v1a2.63,2.63,0,0,1-.84.13,1.27,1.27,0,0,1-1.09-.51,2.34,2.34,0,0,1-.38-1.45V32.11h-1.13v-1h1.13V29.34Z"/><path class="cls-2" d="M282.11,38.66a2.69,2.69,0,0,1-2.12-.82,3.59,3.59,0,0,1-.75-2.42v-.89a4.2,4.2,0,0,1,.72-2.6,2.41,2.41,0,0,1,2-.94,2.31,2.31,0,0,1,1.94.83,4.24,4.24,0,0,1,.66,2.58v.79h-4.13v.17a2.7,2.7,0,0,0,.45,1.73,1.58,1.58,0,0,0,1.29.54,2.16,2.16,0,0,0,.94-.2,2.47,2.47,0,0,0,.76-.64l.63.77A2.77,2.77,0,0,1,282.11,38.66ZM282,32a1.25,1.25,0,0,0-1.11.52,3,3,0,0,0-.41,1.6h2.91V34a2.82,2.82,0,0,0-.38-1.51A1.17,1.17,0,0,0,282,32Z"/><path class="cls-2" d="M289.42,32.27a2.31,2.31,0,0,0-.54-.05,1.32,1.32,0,0,0-1.3,1v5.29h-1.21v-7.4h1.17l0,.75a1.53,1.53,0,0,1,1.38-.89,1,1,0,0,1,.48.1Z"/><path class="cls-2" d="M293.49,38.66a2.71,2.71,0,0,1-2.12-.82,3.59,3.59,0,0,1-.75-2.42v-.89a4.2,4.2,0,0,1,.72-2.6,2.41,2.41,0,0,1,2-.94,2.32,2.32,0,0,1,1.94.83A4.25,4.25,0,0,1,296,34.4v.79h-4.13v.17a2.7,2.7,0,0,0,.45,1.73,1.58,1.58,0,0,0,1.29.54,2.13,2.13,0,0,0,.94-.2,2.36,2.36,0,0,0,.76-.64l.63.77A2.75,2.75,0,0,1,293.49,38.66ZM293.36,32a1.26,1.26,0,0,0-1.12.52,3,3,0,0,0-.41,1.6h2.91V34a2.73,2.73,0,0,0-.38-1.51A1.15,1.15,0,0,0,293.36,32Z"/><path class="cls-2" d="M301.35,36.63a.89.89,0,0,0-.3-.67,4.41,4.41,0,0,0-1.13-.65,7.82,7.82,0,0,1-1.38-.69,2.08,2.08,0,0,1-.6-.66,1.8,1.8,0,0,1-.19-.87,2,2,0,0,1,.65-1.5,2.44,2.44,0,0,1,1.69-.6,2.42,2.42,0,0,1,1.74.63,2.17,2.17,0,0,1,.65,1.62h-1.2a1.18,1.18,0,0,0-.34-.86,1.12,1.12,0,0,0-.85-.35,1.19,1.19,0,0,0-.84.28,1,1,0,0,0-.3.74.8.8,0,0,0,.22.59,4,4,0,0,0,1.07.59,5.55,5.55,0,0,1,1.83,1,1.75,1.75,0,0,1,.49,1.28,2,2,0,0,1-.67,1.55,2.61,2.61,0,0,1-1.77.57,2.68,2.68,0,0,1-1.88-.66,2.2,2.2,0,0,1-.71-1.68h1.21a1.36,1.36,0,0,0,.38,1,1.63,1.63,0,0,0,1.91.08A.91.91,0,0,0,301.35,36.63Z"/><path class="cls-2" d="M306.07,29.34v1.79h1.11v1h-1.11V36.7a1.2,1.2,0,0,0,.14.66.52.52,0,0,0,.49.23,1.73,1.73,0,0,0,.49-.08l0,1a2.63,2.63,0,0,1-.84.13,1.27,1.27,0,0,1-1.09-.51,2.41,2.41,0,0,1-.38-1.45V32.11h-1.12v-1h1.12V29.34Z"/><path class="cls-2" d="M309,40.51l-.72-.49a3.33,3.33,0,0,0,.67-1.85V37h1.24v1a3.05,3.05,0,0,1-.34,1.38A3.34,3.34,0,0,1,309,40.51Z"/><path class="cls-2" d="M316.76,31.13l0,.8a2.16,2.16,0,0,1,1.79-.94c1.31,0,2,.88,2,2.62v4.92h-1.2V33.67a2.07,2.07,0,0,0-.29-1.24,1,1,0,0,0-.87-.36,1.23,1.23,0,0,0-.81.3,2.21,2.21,0,0,0-.58.78v5.38h-1.21v-7.4Z"/><path class="cls-2" d="M322.49,34.49a3.89,3.89,0,0,1,.78-2.56,2.77,2.77,0,0,1,4.14,0,3.77,3.77,0,0,1,.8,2.49v.78a3.87,3.87,0,0,1-.78,2.55,2.78,2.78,0,0,1-4.13,0,3.75,3.75,0,0,1-.81-2.46Zm1.21.69a3.15,3.15,0,0,0,.45,1.8,1.4,1.4,0,0,0,1.21.65c1.06,0,1.61-.77,1.64-2.31v-.83a3.15,3.15,0,0,0-.45-1.8,1.42,1.42,0,0,0-2.4,0,3.14,3.14,0,0,0-.45,1.79Z"/><path class="cls-2" d="M331.71,29.34v1.79h1.11v1h-1.11V36.7a1.3,1.3,0,0,0,.14.66.52.52,0,0,0,.49.23,1.67,1.67,0,0,0,.49-.08v1a2.74,2.74,0,0,1-.85.13,1.28,1.28,0,0,1-1.09-.51,2.41,2.41,0,0,1-.37-1.45V32.11h-1.13v-1h1.13V29.34Z"/><path class="cls-2" d="M340.19,36.52l1.34-5.39h1.29l-2.42,8.44a3.26,3.26,0,0,1-.77,1.45,1.58,1.58,0,0,1-1.14.49,2.19,2.19,0,0,1-.63-.11v-1l.27,0a1.25,1.25,0,0,0,.82-.25,1.86,1.86,0,0,0,.49-.87l.24-.83-2.18-7.33h1.32Z"/><path class="cls-2" d="M344,34.49a3.89,3.89,0,0,1,.78-2.56,2.77,2.77,0,0,1,4.14,0,3.77,3.77,0,0,1,.8,2.49v.78a3.87,3.87,0,0,1-.78,2.55,2.79,2.79,0,0,1-4.14,0,3.8,3.8,0,0,1-.8-2.46Zm1.21.69a3.15,3.15,0,0,0,.45,1.8,1.4,1.4,0,0,0,1.2.65q1.61,0,1.65-2.31v-.83a3.15,3.15,0,0,0-.45-1.8,1.39,1.39,0,0,0-1.21-.66,1.37,1.37,0,0,0-1.19.66,3.14,3.14,0,0,0-.45,1.79Z"/><path class="cls-2" d="M355.39,37.88a2.07,2.07,0,0,1-1.75.78,1.77,1.77,0,0,1-1.52-.69,3.38,3.38,0,0,1-.52-2V31.13h1.2v4.73c0,1.15.35,1.73,1,1.73a1.52,1.52,0,0,0,1.52-1V31.13h1.21v7.4h-1.15Z"/><path class="cls-2" d="M361.79,32.27a2.36,2.36,0,0,0-.54-.05,1.32,1.32,0,0,0-1.3,1v5.29h-1.21v-7.4h1.17l0,.75a1.53,1.53,0,0,1,1.38-.89,1,1,0,0,1,.48.1Z"/><path class="cls-2" d="M372.26,35.18a4.47,4.47,0,0,1-.62,2.61,2.09,2.09,0,0,1-1.8.87,1.9,1.9,0,0,1-1.77-1l-.06.88h-1.1V28h1.2v3.91a1.92,1.92,0,0,1,1.71-1,2.11,2.11,0,0,1,1.83.86,4.58,4.58,0,0,1,.61,2.6Zm-1.2-.69a3.5,3.5,0,0,0-.37-1.87,1.3,1.3,0,0,0-1.18-.55,1.48,1.48,0,0,0-1.4,1v3.51a1.48,1.48,0,0,0,1.41,1A1.29,1.29,0,0,0,370.7,37a3.7,3.7,0,0,0,.36-1.79Z"/><path class="cls-2" d="M377.21,32.27a2.36,2.36,0,0,0-.54-.05,1.32,1.32,0,0,0-1.3,1v5.29h-1.21v-7.4h1.17l0,.75a1.52,1.52,0,0,1,1.38-.89,1,1,0,0,1,.48.1Z"/><path class="cls-2" d="M378.38,34.49a3.89,3.89,0,0,1,.78-2.56,2.76,2.76,0,0,1,4.13,0,3.78,3.78,0,0,1,.81,2.49v.78a3.87,3.87,0,0,1-.78,2.55,2.79,2.79,0,0,1-4.14,0,3.69,3.69,0,0,1-.8-2.46Zm1.21.69A3.16,3.16,0,0,0,380,37a1.4,1.4,0,0,0,1.21.65c1.07,0,1.61-.77,1.65-2.31v-.83a3.15,3.15,0,0,0-.45-1.8,1.4,1.4,0,0,0-1.21-.66,1.39,1.39,0,0,0-1.2.66,3.14,3.14,0,0,0-.44,1.79Z"/><path class="cls-2" d="M387.87,35.14l-.65.74v2.65H386V28h1.21v6.28l2.31-3.18H391l-2.36,3.09,2.66,4.31h-1.4Z"/><path class="cls-2" d="M395.17,38.66a2.67,2.67,0,0,1-2.11-.82,3.54,3.54,0,0,1-.76-2.42v-.89a4.2,4.2,0,0,1,.72-2.6,2.44,2.44,0,0,1,2-.94,2.32,2.32,0,0,1,1.94.83,4.24,4.24,0,0,1,.66,2.58v.79h-4.13v.17a2.76,2.76,0,0,0,.44,1.73,1.58,1.58,0,0,0,1.29.54,2.13,2.13,0,0,0,.94-.2,2.36,2.36,0,0,0,.76-.64l.63.77A2.75,2.75,0,0,1,395.17,38.66ZM395,32a1.27,1.27,0,0,0-1.12.52,3.15,3.15,0,0,0-.41,1.6h2.92V34a2.91,2.91,0,0,0-.38-1.51A1.19,1.19,0,0,0,395,32Z"/><path class="cls-2" d="M402.49,32.27a2.39,2.39,0,0,0-.55-.05,1.33,1.33,0,0,0-1.3,1v5.29h-1.21v-7.4h1.18l0,.75A1.51,1.51,0,0,1,402,31a.94.94,0,0,1,.47.1Z"/><path class="cls-2" d="M407.64,36.63a.92.92,0,0,0-.29-.67,4.72,4.72,0,0,0-1.14-.65,7.82,7.82,0,0,1-1.38-.69,2.08,2.08,0,0,1-.6-.66,1.8,1.8,0,0,1-.19-.87,1.94,1.94,0,0,1,.66-1.5,2.69,2.69,0,0,1,3.42,0,2.13,2.13,0,0,1,.65,1.62h-1.2a1.22,1.22,0,0,0-.33-.86,1.16,1.16,0,0,0-.86-.35,1.2,1.2,0,0,0-.84.28,1,1,0,0,0-.3.74.8.8,0,0,0,.22.59,4,4,0,0,0,1.07.59,5.55,5.55,0,0,1,1.83,1,1.75,1.75,0,0,1,.49,1.28,2,2,0,0,1-.66,1.55,3,3,0,0,1-3.65-.09,2.18,2.18,0,0,1-.72-1.68H405a1.36,1.36,0,0,0,.38,1,1.63,1.63,0,0,0,1.91.08A.91.91,0,0,0,407.64,36.63Z"/><path class="cls-2" d="M411.6,28.78l-.15,2.52h-.88V28h1Z"/><path class="cls-2" d="M413.64,37.86a.77.77,0,0,1,.2-.54.72.72,0,0,1,.58-.22.78.78,0,0,1,.6.22.82.82,0,0,1,0,1.07.81.81,0,0,1-.6.21.75.75,0,0,1-.58-.21A.76.76,0,0,1,413.64,37.86Z"/><path class="cls-1" d="M9.51,74.52a16.78,16.78,0,0,1,1-6.17,8.42,8.42,0,0,1,2.74-3.79,11.14,11.14,0,0,1,3.55-1.77,14.43,14.43,0,0,1,4-.52,20,20,0,0,1,8.27,1.79v5a19.24,19.24,0,0,0-7.34-1.48q-6,0-6,7c0,2.62.52,4.44,1.58,5.45a5.85,5.85,0,0,0,4.24,1.51,8.48,8.48,0,0,0,3.3-.53v-4H20.55V72.34h9.21V84.48a17.39,17.39,0,0,1-9,2.29,16.77,16.77,0,0,1-3.17-.28,10.27,10.27,0,0,1-3-1.12A9.14,9.14,0,0,1,12,83.23a10.07,10.07,0,0,1-1.78-3.55A17.52,17.52,0,0,1,9.51,74.52Z"/><path class="cls-1" d="M35.9,86.53V70.36a27.76,27.76,0,0,1,10.26-2.08v5.29a32.93,32.93,0,0,0-4.08.31V86.53Z"/><path class="cls-1" d="M51.83,84.4Q49.58,82,49.58,77.56t2.25-6.84a8.39,8.39,0,0,1,6.39-2.37,8.39,8.39,0,0,1,6.39,2.37q2.25,2.39,2.25,6.84T64.61,84.4a8.39,8.39,0,0,1-6.39,2.37A8.39,8.39,0,0,1,51.83,84.4Zm6.39-11.58q-2.46,0-2.46,4.74t2.46,4.75q2.45,0,2.45-4.75T58.22,72.82Z"/><path class="cls-1" d="M70.09,68.56h6.56L79,79.39l2.85-10.83h4.6l2.85,10.83,2.34-10.83h6.54l-6.37,18H86.37l-2.23-8.07-2.23,8.07H76.46Z"/><path class="cls-1" d="M101.7,72.78V68.56h2.46V63.31h6.19v5.25h3.76v4.22h-3.76v8.67a.85.85,0,0,0,.33.68,1.15,1.15,0,0,0,.78.28,5.55,5.55,0,0,0,2.65-.89v4.4a7.31,7.31,0,0,1-3.6.85,5.68,5.68,0,0,1-6.35-6.26V72.78Z"/><path class="cls-1" d="M119.6,86.53V61.74h6.19v6.79a19.42,19.42,0,0,1,3.06-.21,8,8,0,0,1,5.85,2.06,7.42,7.42,0,0,1,2.11,5.56V86.53h-6.19V75q0-2-3.18-2a4.74,4.74,0,0,0-1.65.25V86.53Z"/><path class="cls-2" d="M156,83.39l.13,1.11.2-1,1.59-7H159l1.54,7,.2,1,.15-1.15,1.21-6.81h1.25l-2,10h-1.13l-1.66-7.26-.1-.59-.1.59-1.73,7.26h-1.13l-2-10h1.25Z"/><path class="cls-2" d="M167.41,86.66a2.69,2.69,0,0,1-2.12-.82,3.59,3.59,0,0,1-.75-2.42v-.89a4.2,4.2,0,0,1,.72-2.6,2.41,2.41,0,0,1,2-.94,2.29,2.29,0,0,1,1.94.83,4.24,4.24,0,0,1,.66,2.58v.79h-4.13v.17a2.7,2.7,0,0,0,.45,1.73,1.58,1.58,0,0,0,1.29.54,2.16,2.16,0,0,0,.94-.2,2.47,2.47,0,0,0,.76-.64l.63.77A2.77,2.77,0,0,1,167.41,86.66ZM167.27,80a1.25,1.25,0,0,0-1.11.52,3,3,0,0,0-.41,1.6h2.91V82a2.82,2.82,0,0,0-.38-1.51A1.17,1.17,0,0,0,167.27,80Z"/><path class="cls-2" d="M176.43,79.89a2.15,2.15,0,0,1,1.77-.9c1.31,0,2,.88,2,2.62v4.92H179V81.67a2,2,0,0,0-.29-1.24,1,1,0,0,0-.87-.36,1.23,1.23,0,0,0-.81.3,2.21,2.21,0,0,0-.58.78v5.38h-1.21V76h1.21Z"/><path class="cls-2" d="M185,86.66a2.69,2.69,0,0,1-2.12-.82,3.59,3.59,0,0,1-.75-2.42v-.89a4.2,4.2,0,0,1,.72-2.6,2.41,2.41,0,0,1,2-.94,2.33,2.33,0,0,1,1.95.83,4.32,4.32,0,0,1,.65,2.58v.79h-4.13v.17a2.7,2.7,0,0,0,.45,1.73,1.58,1.58,0,0,0,1.29.54,2.13,2.13,0,0,0,.94-.2,2.36,2.36,0,0,0,.76-.64l.63.77A2.75,2.75,0,0,1,185,86.66ZM184.84,80a1.25,1.25,0,0,0-1.11.52,3,3,0,0,0-.41,1.6h2.91V82a2.82,2.82,0,0,0-.38-1.51A1.16,1.16,0,0,0,184.84,80Z"/><path class="cls-2" d="M190.55,86.53h-1.21V76h1.21Z"/><path class="cls-2" d="M198.14,83.18a4.44,4.44,0,0,1-.63,2.62,2.07,2.07,0,0,1-1.79.86,2,2,0,0,1-1.71-.84v3.55H192.8V79.13h1.1L194,80a2,2,0,0,1,1.74-1,2.07,2.07,0,0,1,1.82.85,4.48,4.48,0,0,1,.62,2.54Zm-1.2-.69a3.47,3.47,0,0,0-.38-1.83,1.35,1.35,0,0,0-1.23-.59,1.41,1.41,0,0,0-1.32.86v3.85a1.41,1.41,0,0,0,1.33.85,1.35,1.35,0,0,0,1.21-.59,3.43,3.43,0,0,0,.39-1.81Z"/><path class="cls-2" d="M205.63,84.52,207,79.13h1.28l-2.42,8.44a3.26,3.26,0,0,1-.77,1.45,1.56,1.56,0,0,1-1.13.49,2.08,2.08,0,0,1-.63-.11v-1l.26,0a1.3,1.3,0,0,0,.83-.25,1.78,1.78,0,0,0,.48-.87l.24-.83-2.18-7.33h1.32Z"/><path class="cls-2" d="M209.43,82.49a3.84,3.84,0,0,1,.79-2.56,2.76,2.76,0,0,1,4.13,0,3.83,3.83,0,0,1,.81,2.49v.78a3.87,3.87,0,0,1-.78,2.55,2.59,2.59,0,0,1-2.08.93,2.55,2.55,0,0,1-2.06-.91,3.75,3.75,0,0,1-.81-2.46Zm1.21.69a3.15,3.15,0,0,0,.45,1.8,1.4,1.4,0,0,0,1.21.65q1.59,0,1.65-2.31v-.83a3.15,3.15,0,0,0-.46-1.8,1.42,1.42,0,0,0-2.4,0,3.14,3.14,0,0,0-.45,1.79Z"/><path class="cls-2" d="M220.84,85.88a2.09,2.09,0,0,1-1.76.78,1.77,1.77,0,0,1-1.52-.69,3.45,3.45,0,0,1-.52-2V79.13h1.21v4.73c0,1.15.34,1.73,1,1.73a1.51,1.51,0,0,0,1.51-1V79.13H222v7.4h-1.15Z"/><path class="cls-2" d="M233.1,83.18a4.47,4.47,0,0,1-.63,2.61,2.06,2.06,0,0,1-1.8.87,1.9,1.9,0,0,1-1.76-1l-.07.88h-1.1V76H229v3.91a1.89,1.89,0,0,1,1.71-1,2.08,2.08,0,0,1,1.82.86,4.57,4.57,0,0,1,.62,2.6Zm-1.21-.69a3.61,3.61,0,0,0-.36-1.87,1.32,1.32,0,0,0-1.19-.55,1.47,1.47,0,0,0-1.39,1v3.51a1.47,1.47,0,0,0,1.4,1,1.29,1.29,0,0,0,1.18-.57,3.48,3.48,0,0,0,.36-1.79Z"/><path class="cls-2" d="M237.64,86.66a2.69,2.69,0,0,1-2.12-.82,3.49,3.49,0,0,1-.75-2.42v-.89a4.2,4.2,0,0,1,.72-2.6,2.41,2.41,0,0,1,2-.94,2.31,2.31,0,0,1,1.94.83,4.24,4.24,0,0,1,.66,2.58v.79H236v.17a2.7,2.7,0,0,0,.45,1.73,1.55,1.55,0,0,0,1.28.54,2.13,2.13,0,0,0,.94-.2,2.39,2.39,0,0,0,.77-.64l.63.77A2.77,2.77,0,0,1,237.64,86.66ZM237.5,80a1.25,1.25,0,0,0-1.11.52,3,3,0,0,0-.42,1.6h2.92V82a2.91,2.91,0,0,0-.38-1.51A1.17,1.17,0,0,0,237.5,80Z"/><path class="cls-2" d="M244.47,85.63a1.27,1.27,0,0,0,1-.37,1.58,1.58,0,0,0,.4-1.07H247a2.49,2.49,0,0,1-.76,1.77,2.36,2.36,0,0,1-1.74.7,2.59,2.59,0,0,1-2.1-.86,4,4,0,0,1-.72-2.58v-.81a3.93,3.93,0,0,1,.72-2.55,2.55,2.55,0,0,1,2.09-.87,2.32,2.32,0,0,1,1.8.72,2.9,2.9,0,0,1,.71,2h-1.14a2,2,0,0,0-.4-1.23,1.2,1.2,0,0,0-1-.41,1.4,1.4,0,0,0-1.2.53,3.1,3.1,0,0,0-.4,1.74v1a3.27,3.27,0,0,0,.39,1.84A1.38,1.38,0,0,0,244.47,85.63Z"/><path class="cls-2" d="M248.46,82.49a3.89,3.89,0,0,1,.78-2.56,2.77,2.77,0,0,1,4.14,0,3.77,3.77,0,0,1,.8,2.49v.78a3.87,3.87,0,0,1-.78,2.55,2.79,2.79,0,0,1-4.14,0,3.8,3.8,0,0,1-.8-2.46Zm1.21.69a3.15,3.15,0,0,0,.45,1.8,1.4,1.4,0,0,0,1.2.65q1.6,0,1.65-2.31v-.83a3.15,3.15,0,0,0-.45-1.8,1.39,1.39,0,0,0-1.21-.66,1.37,1.37,0,0,0-1.19.66,3.14,3.14,0,0,0-.45,1.79Z"/><path class="cls-2" d="M257.23,79.13l0,.68A2.22,2.22,0,0,1,259,79a1.74,1.74,0,0,1,1.73,1.08,2.21,2.21,0,0,1,2-1.08c1.36,0,2,.85,2.09,2.55v5H263.6V81.66a2,2,0,0,0-.28-1.2,1.13,1.13,0,0,0-1-.39,1.08,1.08,0,0,0-.89.42,1.93,1.93,0,0,0-.4,1.08v5h-1.22V81.6c0-1-.43-1.53-1.25-1.53a1.31,1.31,0,0,0-1.29.91v5.55h-1.2v-7.4Z"/><path class="cls-2" d="M269.62,86.66a2.69,2.69,0,0,1-2.12-.82,3.59,3.59,0,0,1-.75-2.42v-.89a4.2,4.2,0,0,1,.72-2.6,2.41,2.41,0,0,1,2-.94,2.33,2.33,0,0,1,1.95.83,4.32,4.32,0,0,1,.65,2.58v.79H268v.17a2.7,2.7,0,0,0,.45,1.73,1.58,1.58,0,0,0,1.29.54,2.16,2.16,0,0,0,.94-.2,2.47,2.47,0,0,0,.76-.64l.63.77A2.75,2.75,0,0,1,269.62,86.66ZM269.48,80a1.25,1.25,0,0,0-1.11.52,3,3,0,0,0-.41,1.6h2.91V82a2.82,2.82,0,0,0-.38-1.51A1.17,1.17,0,0,0,269.48,80Z"/><path class="cls-2" d="M281.24,86.53a2.76,2.76,0,0,1-.15-.81,1.92,1.92,0,0,1-1.64.94,2.1,2.1,0,0,1-1.57-.56,2.15,2.15,0,0,1-.57-1.59,2.25,2.25,0,0,1,.77-1.79,3.17,3.17,0,0,1,2.1-.68h.89v-.78A1,1,0,0,0,279.88,80a1.22,1.22,0,0,0-.89.33,1.06,1.06,0,0,0-.34.82h-1.21a2,2,0,0,1,.33-1.08,2.34,2.34,0,0,1,.9-.81,2.67,2.67,0,0,1,1.27-.3,2.41,2.41,0,0,1,1.73.57,2.21,2.21,0,0,1,.6,1.64v3.73a4.44,4.44,0,0,0,.23,1.49v.11Zm-1.61-1a1.63,1.63,0,0,0,.85-.24,1.59,1.59,0,0,0,.59-.62V82.94h-.69a2.38,2.38,0,0,0-1.36.38,1.25,1.25,0,0,0-.5,1.05,1.35,1.35,0,0,0,.26.91A1.09,1.09,0,0,0,279.63,85.56Z"/><path class="cls-2" d="M293.41,83.18a4.55,4.55,0,0,1-.62,2.61,2.09,2.09,0,0,1-1.81.87,1.9,1.9,0,0,1-1.76-1l-.06.88h-1.1V76h1.2v3.91A1.9,1.9,0,0,1,291,79a2.08,2.08,0,0,1,1.82.86,4.57,4.57,0,0,1,.62,2.6Zm-1.2-.69a3.6,3.6,0,0,0-.37-1.87,1.31,1.31,0,0,0-1.19-.55,1.47,1.47,0,0,0-1.39,1v3.51a1.48,1.48,0,0,0,1.41,1,1.27,1.27,0,0,0,1.17-.57,3.57,3.57,0,0,0,.37-1.79Z"/><path class="cls-2" d="M298,86.66a2.69,2.69,0,0,1-2.12-.82,3.59,3.59,0,0,1-.75-2.42v-.89a4.2,4.2,0,0,1,.72-2.6,2.41,2.41,0,0,1,2-.94,2.31,2.31,0,0,1,1.94.83,4.24,4.24,0,0,1,.66,2.58v.79h-4.13v.17a2.7,2.7,0,0,0,.45,1.73,1.58,1.58,0,0,0,1.29.54,2.16,2.16,0,0,0,.94-.2,2.47,2.47,0,0,0,.76-.64l.63.77A2.77,2.77,0,0,1,298,86.66ZM297.81,80a1.25,1.25,0,0,0-1.11.52,3,3,0,0,0-.41,1.6h2.91V82a2.82,2.82,0,0,0-.38-1.51A1.17,1.17,0,0,0,297.81,80Z"/><path class="cls-2" d="M303.79,77.34v1.79h1.12v1h-1.12V84.7a1.19,1.19,0,0,0,.15.66.51.51,0,0,0,.49.23,1.73,1.73,0,0,0,.49-.08l0,1a2.63,2.63,0,0,1-.84.13,1.27,1.27,0,0,1-1.09-.51,2.41,2.41,0,0,1-.38-1.45V80.11h-1.13v-1h1.13V77.34Z"/><path class="cls-2" d="M308.28,77.34v1.79h1.11v1h-1.11V84.7a1.3,1.3,0,0,0,.14.66.53.53,0,0,0,.5.23,1.61,1.61,0,0,0,.48-.08v1a2.72,2.72,0,0,1-.84.13,1.28,1.28,0,0,1-1.1-.51,2.41,2.41,0,0,1-.37-1.45V80.11H306v-1h1.13V77.34Z"/><path class="cls-2" d="M313.83,86.66a2.68,2.68,0,0,1-2.12-.82,3.54,3.54,0,0,1-.76-2.42v-.89a4.14,4.14,0,0,1,.73-2.6,2.41,2.41,0,0,1,2-.94,2.31,2.31,0,0,1,1.94.83,4.24,4.24,0,0,1,.66,2.58v.79h-4.13v.17a2.7,2.7,0,0,0,.45,1.73,1.55,1.55,0,0,0,1.28.54,2.13,2.13,0,0,0,.94-.2,2.5,2.5,0,0,0,.77-.64l.62.77A2.74,2.74,0,0,1,313.83,86.66ZM313.69,80a1.28,1.28,0,0,0-1.12.52,3.15,3.15,0,0,0-.41,1.6h2.92V82a2.91,2.91,0,0,0-.38-1.51A1.17,1.17,0,0,0,313.69,80Z"/><path class="cls-2" d="M321.14,80.27a2.36,2.36,0,0,0-.54,0,1.32,1.32,0,0,0-1.3,1v5.29h-1.21v-7.4h1.17l0,.75a1.52,1.52,0,0,1,1.38-.89,1,1,0,0,1,.48.1Z"/><path class="cls-2" d="M327.65,77.17a.75.75,0,0,1-.17.51.63.63,0,0,1-.52.21.61.61,0,0,1-.51-.21.75.75,0,0,1-.17-.51.76.76,0,0,1,.17-.52.61.61,0,0,1,.51-.21.64.64,0,0,1,.52.21A.85.85,0,0,1,327.65,77.17Zm-.09,9.36h-1.21v-7.4h1.21Z"/><path class="cls-2" d="M331,79.13l0,.8a2.18,2.18,0,0,1,1.8-.94c1.31,0,2,.88,2,2.62v4.92h-1.2V81.67a2.07,2.07,0,0,0-.29-1.24,1.08,1.08,0,0,0-.88-.36,1.23,1.23,0,0,0-.81.3,2.19,2.19,0,0,0-.57.78v5.38h-1.21v-7.4Z"/><path class="cls-2" d="M339,84.69l1.4-5.56h1.23l-2.19,7.4h-.91l-2.22-7.4h1.23Z"/><path class="cls-2" d="M345.83,86.66a2.69,2.69,0,0,1-2.12-.82,3.54,3.54,0,0,1-.75-2.42v-.89a4.2,4.2,0,0,1,.72-2.6,2.41,2.41,0,0,1,2-.94,2.31,2.31,0,0,1,1.94.83,4.24,4.24,0,0,1,.66,2.58v.79h-4.13v.17a2.7,2.7,0,0,0,.45,1.73,1.55,1.55,0,0,0,1.28.54,2.21,2.21,0,0,0,.95-.2,2.47,2.47,0,0,0,.76-.64l.63.77A2.77,2.77,0,0,1,345.83,86.66ZM345.69,80a1.25,1.25,0,0,0-1.11.52,3,3,0,0,0-.41,1.6h2.91V82a2.82,2.82,0,0,0-.38-1.51A1.17,1.17,0,0,0,345.69,80Z"/><path class="cls-2" d="M353.68,84.63a.92.92,0,0,0-.29-.67,4.72,4.72,0,0,0-1.14-.65,7.3,7.3,0,0,1-1.37-.69,1.87,1.87,0,0,1-.6-.66,1.8,1.8,0,0,1-.2-.87,1.94,1.94,0,0,1,.66-1.5,2.69,2.69,0,0,1,3.42,0,2.14,2.14,0,0,1,.66,1.62h-1.21a1.22,1.22,0,0,0-.33-.86,1.15,1.15,0,0,0-.86-.35,1.16,1.16,0,0,0-.83.28.92.92,0,0,0-.31.74.84.84,0,0,0,.22.59,4,4,0,0,0,1.07.59,5.73,5.73,0,0,1,1.84,1,1.78,1.78,0,0,1,.48,1.28,2,2,0,0,1-.66,1.55,3,3,0,0,1-3.65-.09,2.18,2.18,0,0,1-.72-1.68h1.22a1.24,1.24,0,0,0,1.37,1.31,1.38,1.38,0,0,0,.92-.27A.9.9,0,0,0,353.68,84.63Z"/><path class="cls-2" d="M358.4,77.34v1.79h1.11v1H358.4V84.7a1.3,1.3,0,0,0,.14.66.53.53,0,0,0,.5.23,1.66,1.66,0,0,0,.48-.08v1a2.72,2.72,0,0,1-.84.13,1.28,1.28,0,0,1-1.1-.51,2.41,2.41,0,0,1-.37-1.45V80.11h-1.13v-1h1.13V77.34Z"/><path class="cls-2" d="M360.91,82.49a3.89,3.89,0,0,1,.78-2.56,2.77,2.77,0,0,1,4.14,0,3.77,3.77,0,0,1,.8,2.49v.78a3.87,3.87,0,0,1-.78,2.55,2.79,2.79,0,0,1-4.14,0,3.8,3.8,0,0,1-.8-2.46Zm1.21.69a3.15,3.15,0,0,0,.45,1.8,1.4,1.4,0,0,0,1.2.65q1.61,0,1.65-2.31v-.83a3.15,3.15,0,0,0-.45-1.8,1.39,1.39,0,0,0-1.21-.66,1.37,1.37,0,0,0-1.19.66,3.14,3.14,0,0,0-.45,1.79Z"/><path class="cls-2" d="M371.6,80.27a2.39,2.39,0,0,0-.55,0,1.33,1.33,0,0,0-1.3,1v5.29h-1.21v-7.4h1.18l0,.75a1.5,1.5,0,0,1,1.37-.89,1,1,0,0,1,.48.1Z"/><path class="cls-2" d="M372.39,85.86a.77.77,0,0,1,.2-.54.72.72,0,0,1,.58-.22.74.74,0,0,1,.59.22.72.72,0,0,1,.2.54.72.72,0,0,1-.2.53.77.77,0,0,1-.59.21.75.75,0,0,1-.58-.21A.76.76,0,0,1,372.39,85.86Z"/><path class="cls-1" d="M9.54,117.74a6.47,6.47,0,0,1,2.56-5.57,10.51,10.51,0,0,1,6.34-1.87,13.49,13.49,0,0,1,6.47,1.64v5.39a10.94,10.94,0,0,0-5.58-1.73,6.37,6.37,0,0,0-2.5.46,1.61,1.61,0,0,0-1.1,1.55,1.35,1.35,0,0,0,.81,1.16,6.9,6.9,0,0,0,2.06.69,14.86,14.86,0,0,1,2.66.76,15.21,15.21,0,0,1,2.66,1.29A5.67,5.67,0,0,1,26,123.87a8.47,8.47,0,0,1,.81,3.88,6.17,6.17,0,0,1-2.52,5.1,9.76,9.76,0,0,1-6.13,2,14.37,14.37,0,0,1-8.31-2.31v-5.76a11.19,11.19,0,0,0,7.36,2.78h0a5,5,0,0,0,2.37-.53,1.61,1.61,0,0,0,1-1.49,1.36,1.36,0,0,0-.61-1.12,4.56,4.56,0,0,0-1.6-.72l-2.15-.55a15.54,15.54,0,0,1-2.35-.8,10,10,0,0,1-2.15-1.26,5.38,5.38,0,0,1-1.58-2.11A7.71,7.71,0,0,1,9.54,117.74Z"/><path class="cls-1" d="M32.5,114.51v-4.7h6.33v4.7Zm.07,20v-18h6.19v18Z"/><path class="cls-1" d="M45.53,134.53V118.18l.25-.1.74-.28c.3-.12.66-.24,1.06-.36s.87-.26,1.38-.39,1.06-.26,1.63-.37,1.18-.19,1.85-.26a19.08,19.08,0,0,1,2-.1,8.49,8.49,0,0,1,4.37,1,19.27,19.27,0,0,1,6.24-1A8.47,8.47,0,0,1,71,118.26a7.3,7.3,0,0,1,2.14,5.68v10.59H66.91V123.71c0-1.85-.83-2.77-2.48-2.77a8.11,8.11,0,0,0-2.48.35,7.91,7.91,0,0,1,.46,2.58v10.66H56.22V123.62c0-1.74-.77-2.61-2.3-2.61h0a8.19,8.19,0,0,0-2.16.32v13.2Z"/><path class="cls-1" d="M79,141.19V122.71a7.9,7.9,0,0,1,.31-2.32,6.38,6.38,0,0,1,1.08-2,5,5,0,0,1,2.4-1.53,13,13,0,0,1,4-.53q8.85,0,8.85,9.35,0,4.41-2.12,6.76a7.75,7.75,0,0,1-6,2.34,21.83,21.83,0,0,1-2.33-.07v6.49Zm6.19-10.41c.57.05,1,.07,1.19.07a2.55,2.55,0,0,0,2.33-1.32,7.13,7.13,0,0,0,.79-3.64,11.83,11.83,0,0,0-.57-4c-.38-1-1-1.58-1.83-1.58a2.23,2.23,0,0,0-1.44.39,1.19,1.19,0,0,0-.47.9Z"/><path class="cls-1" d="M101.42,134.53V109.72h6.19v24.81Z"/><path class="cls-1" d="M114.29,114.51v-4.7h6.33v4.7Zm.07,20v-18h6.19v18Z"/><path class="cls-1" d="M128.12,132.43q-2.2-2.38-2.21-6.87t2.22-6.86a8.23,8.23,0,0,1,6.34-2.38,13.09,13.09,0,0,1,5.67,1.2v4.6A11.08,11.08,0,0,0,135.6,121a3.16,3.16,0,0,0-2.54,1.14,6.55,6.55,0,0,0,0,6.83,3.15,3.15,0,0,0,2.54,1.13,11.08,11.08,0,0,0,4.54-1.11v4.6a12.52,12.52,0,0,1-5.58,1.21h-.09A8.26,8.26,0,0,1,128.12,132.43Z"/><path class="cls-1" d="M145.13,114.51v-4.7h6.33v4.7Zm.07,20v-18h6.19v18Z"/><path class="cls-1" d="M156.05,120.78v-4.22h2.46v-5.25h6.19v5.25h3.76v4.22H164.7v8.67a.85.85,0,0,0,.33.68,1.13,1.13,0,0,0,.78.28,5.55,5.55,0,0,0,2.65-.89v4.4a7.31,7.31,0,0,1-3.6.85,5.68,5.68,0,0,1-6.35-6.26v-7.73Z"/><path class="cls-1" d="M172.4,116.56h6.42l2.74,10.34,2.69-10.34h6.38l-6.56,17.62a19.19,19.19,0,0,1-3.11,5.74,4.82,4.82,0,0,1-3.72,1.69,9,9,0,0,1-3.92-.76v-4.5a6.86,6.86,0,0,0,2.37.44,2.17,2.17,0,0,0,1.62-1,9,9,0,0,0,1.37-3Z"/><path class="cls-2" d="M211.52,131.92h-3.36l-.77,2.61H206.1l3.21-10h1.07l3.21,10h-1.28Zm-3-1.07h2.71l-1.36-4.53Z"/><path class="cls-2" d="M217.7,133.63a1.27,1.27,0,0,0,1-.37,1.63,1.63,0,0,0,.4-1.07h1.14a2.49,2.49,0,0,1-.76,1.77,2.38,2.38,0,0,1-1.74.7,2.59,2.59,0,0,1-2.1-.86,4,4,0,0,1-.72-2.58v-.81a3.93,3.93,0,0,1,.72-2.55,2.55,2.55,0,0,1,2.09-.87,2.32,2.32,0,0,1,1.8.72,3,3,0,0,1,.71,2h-1.14a2,2,0,0,0-.4-1.23,1.22,1.22,0,0,0-1-.41,1.4,1.4,0,0,0-1.2.53,3.1,3.1,0,0,0-.4,1.74v.95a3.27,3.27,0,0,0,.39,1.84A1.38,1.38,0,0,0,217.7,133.63Z"/><path class="cls-2" d="M224.51,133.63a1.3,1.3,0,0,0,1-.37,1.58,1.58,0,0,0,.39-1.07H227a2.48,2.48,0,0,1-.75,1.77,2.4,2.4,0,0,1-1.75.7,2.59,2.59,0,0,1-2.09-.86,4,4,0,0,1-.72-2.58v-.81a3.93,3.93,0,0,1,.71-2.55,2.57,2.57,0,0,1,2.1-.87,2.35,2.35,0,0,1,1.8.72,2.9,2.9,0,0,1,.7,2h-1.14a2,2,0,0,0-.39-1.23,1.23,1.23,0,0,0-1-.41,1.4,1.4,0,0,0-1.2.53,3,3,0,0,0-.4,1.74v.95a3.28,3.28,0,0,0,.38,1.84A1.41,1.41,0,0,0,224.51,133.63Z"/><path class="cls-2" d="M231.4,134.66a2.67,2.67,0,0,1-2.11-.82,3.54,3.54,0,0,1-.76-2.42v-.89a4.14,4.14,0,0,1,.73-2.6,2.41,2.41,0,0,1,2-.94,2.32,2.32,0,0,1,1.94.83,4.24,4.24,0,0,1,.66,2.58v.79h-4.13v.17a2.76,2.76,0,0,0,.44,1.73,1.58,1.58,0,0,0,1.29.54,2.13,2.13,0,0,0,.94-.2,2.5,2.5,0,0,0,.77-.64l.62.77A2.75,2.75,0,0,1,231.4,134.66Zm-.13-6.63a1.27,1.27,0,0,0-1.12.52,3.15,3.15,0,0,0-.41,1.6h2.92V130a2.91,2.91,0,0,0-.38-1.51A1.17,1.17,0,0,0,231.27,128Z"/><path class="cls-2" d="M239.26,132.63A.92.92,0,0,0,239,132a4.72,4.72,0,0,0-1.14-.65,7.82,7.82,0,0,1-1.38-.69,1.93,1.93,0,0,1-.59-.66,1.7,1.7,0,0,1-.2-.87,1.94,1.94,0,0,1,.66-1.5,2.69,2.69,0,0,1,3.42,0,2.13,2.13,0,0,1,.65,1.62h-1.2a1.22,1.22,0,0,0-.33-.86A1.16,1.16,0,0,0,238,128a1.2,1.2,0,0,0-.84.28,1,1,0,0,0-.3.74.8.8,0,0,0,.22.59,4,4,0,0,0,1.07.59,5.55,5.55,0,0,1,1.83,1,1.75,1.75,0,0,1,.49,1.28,2,2,0,0,1-.66,1.55,3,3,0,0,1-3.65-.09,2.18,2.18,0,0,1-.72-1.68h1.22a1.31,1.31,0,0,0,.37,1,1.34,1.34,0,0,0,1,.35,1.38,1.38,0,0,0,.92-.27A.9.9,0,0,0,239.26,132.63Z"/><path class="cls-2" d="M246,132.63a.89.89,0,0,0-.3-.67,4.41,4.41,0,0,0-1.13-.65,7.82,7.82,0,0,1-1.38-.69,2.08,2.08,0,0,1-.6-.66,1.8,1.8,0,0,1-.19-.87,1.94,1.94,0,0,1,.66-1.5,2.69,2.69,0,0,1,3.42,0,2.17,2.17,0,0,1,.65,1.62h-1.2a1.22,1.22,0,0,0-.33-.86,1.16,1.16,0,0,0-.86-.35,1.2,1.2,0,0,0-.84.28,1,1,0,0,0-.3.74.8.8,0,0,0,.22.59,4,4,0,0,0,1.07.59,5.55,5.55,0,0,1,1.83,1,1.75,1.75,0,0,1,.49,1.28,2,2,0,0,1-.66,1.55,3,3,0,0,1-3.65-.09,2.18,2.18,0,0,1-.72-1.68h1.21a1.36,1.36,0,0,0,.38,1,1.63,1.63,0,0,0,1.91.08A.91.91,0,0,0,246,132.63Z"/><path class="cls-2" d="M250.52,125.17a.75.75,0,0,1-.17.51.63.63,0,0,1-.52.21.61.61,0,0,1-.51-.21.75.75,0,0,1-.17-.51.76.76,0,0,1,.17-.52.61.61,0,0,1,.51-.21.64.64,0,0,1,.52.21A.85.85,0,0,1,250.52,125.17Zm-.09,9.36h-1.21v-7.4h1.21Z"/><path class="cls-2" d="M258,131.18a4.47,4.47,0,0,1-.63,2.61,2.06,2.06,0,0,1-1.8.87,1.89,1.89,0,0,1-1.76-1l-.07.88h-1.1V124h1.21v3.91a1.89,1.89,0,0,1,1.71-1,2.08,2.08,0,0,1,1.82.86,4.57,4.57,0,0,1,.62,2.6Zm-1.21-.69a3.61,3.61,0,0,0-.36-1.87,1.32,1.32,0,0,0-1.19-.55,1.47,1.47,0,0,0-1.39,1v3.51a1.47,1.47,0,0,0,1.4,1,1.29,1.29,0,0,0,1.18-.57,3.48,3.48,0,0,0,.36-1.79Z"/><path class="cls-2" d="M261.24,134.53H260V124h1.21Z"/><path class="cls-2" d="M266.13,134.66a2.71,2.71,0,0,1-2.12-.82,3.59,3.59,0,0,1-.75-2.42v-.89a4.2,4.2,0,0,1,.72-2.6,2.41,2.41,0,0,1,2-.94,2.32,2.32,0,0,1,1.94.83,4.25,4.25,0,0,1,.65,2.58v.79h-4.13v.17a2.7,2.7,0,0,0,.45,1.73,1.58,1.58,0,0,0,1.29.54,2.13,2.13,0,0,0,.94-.2,2.36,2.36,0,0,0,.76-.64l.63.77A2.75,2.75,0,0,1,266.13,134.66ZM266,128a1.26,1.26,0,0,0-1.12.52,3,3,0,0,0-.41,1.6h2.91V130a2.82,2.82,0,0,0-.38-1.51A1.15,1.15,0,0,0,266,128Z"/><path class="cls-2" d="M274.48,134.53v-6.42h-1v-1h1v-.86a2.72,2.72,0,0,1,.57-1.75,1.94,1.94,0,0,1,1.56-.64,2.37,2.37,0,0,1,.73.12l-.06,1a2.53,2.53,0,0,0-.56-.06c-.68,0-1,.49-1,1.47v.7H277v1h-1.27v6.42Z"/><path class="cls-2" d="M278.47,130.49a3.9,3.9,0,0,1,.79-2.56,2.76,2.76,0,0,1,4.13,0,3.78,3.78,0,0,1,.81,2.49v.78a3.87,3.87,0,0,1-.78,2.55,2.79,2.79,0,0,1-4.14,0,3.75,3.75,0,0,1-.81-2.46Zm1.21.69a3.15,3.15,0,0,0,.45,1.8,1.4,1.4,0,0,0,1.21.65c1.07,0,1.61-.77,1.65-2.31v-.83a3.15,3.15,0,0,0-.45-1.8,1.42,1.42,0,0,0-1.21-.66,1.39,1.39,0,0,0-1.2.66,3.14,3.14,0,0,0-.45,1.79Z"/><path class="cls-2" d="M289.16,128.27a2.39,2.39,0,0,0-.55-.05,1.31,1.31,0,0,0-1.29,1v5.29h-1.21v-7.4h1.17l0,.75a1.52,1.52,0,0,1,1.38-.89.94.94,0,0,1,.47.1Z"/><path class="cls-2" d="M298.08,134.53a2.69,2.69,0,0,1-.16-.81,1.91,1.91,0,0,1-1.64.94,2.11,2.11,0,0,1-1.57-.56,2.19,2.19,0,0,1-.56-1.59,2.24,2.24,0,0,1,.76-1.79A3.17,3.17,0,0,1,297,130h.89v-.78a1,1,0,0,0-1.19-1.23,1.24,1.24,0,0,0-.89.33,1.1,1.1,0,0,0-.34.82h-1.21a1.89,1.89,0,0,1,.34-1.08,2.21,2.21,0,0,1,.9-.81,2.66,2.66,0,0,1,1.26-.3,2.41,2.41,0,0,1,1.73.57,2.17,2.17,0,0,1,.6,1.64v3.73a4.7,4.7,0,0,0,.24,1.49v.11Zm-1.61-1a1.63,1.63,0,0,0,.84-.24,1.52,1.52,0,0,0,.59-.62v-1.76h-.68a2.34,2.34,0,0,0-1.36.38,1.22,1.22,0,0,0-.5,1.05,1.36,1.36,0,0,0,.25.91A1.1,1.1,0,0,0,296.47,133.56Z"/><path class="cls-2" d="M302.47,127.13l0,.8a2.18,2.18,0,0,1,1.8-.94c1.31,0,2,.88,2,2.62v4.92h-1.2v-4.86a2.07,2.07,0,0,0-.29-1.24,1.08,1.08,0,0,0-.88-.36,1.23,1.23,0,0,0-.81.3,2.19,2.19,0,0,0-.57.78v5.38h-1.21v-7.4Z"/><path class="cls-2" d="M310.47,132.52l1.35-5.39h1.29l-2.42,8.44a3.27,3.27,0,0,1-.78,1.45,1.56,1.56,0,0,1-1.13.49,2.08,2.08,0,0,1-.63-.11v-1l.27,0a1.27,1.27,0,0,0,.82-.25,1.78,1.78,0,0,0,.48-.87l.24-.83-2.17-7.33h1.32Z"/><path class="cls-2" d="M321.78,132.63a.88.88,0,0,0-.29-.67,4.52,4.52,0,0,0-1.14-.65,7.3,7.3,0,0,1-1.37-.69,1.87,1.87,0,0,1-.6-.66,1.8,1.8,0,0,1-.2-.87,1.94,1.94,0,0,1,.66-1.5,2.69,2.69,0,0,1,3.42,0,2.14,2.14,0,0,1,.66,1.62h-1.2a1.23,1.23,0,0,0-.34-.86,1.14,1.14,0,0,0-.85-.35,1.17,1.17,0,0,0-.84.28,1,1,0,0,0-.31.74.81.81,0,0,0,.23.59,3.63,3.63,0,0,0,1.07.59,5.77,5.77,0,0,1,1.83,1,1.78,1.78,0,0,1,.48,1.28,2,2,0,0,1-.66,1.55,2.62,2.62,0,0,1-1.78.57,2.65,2.65,0,0,1-1.87-.66,2.18,2.18,0,0,1-.72-1.68h1.22a1.32,1.32,0,0,0,.38,1,1.3,1.3,0,0,0,1,.35,1.38,1.38,0,0,0,.92-.27A.9.9,0,0,0,321.78,132.63Z"/><path class="cls-2" d="M326.78,131.14l-.65.74v2.65h-1.21V124h1.21v6.28l2.31-3.18h1.45l-2.36,3.09,2.66,4.31h-1.4Z"/><path class="cls-2" d="M333,125.17a.8.8,0,0,1-.17.51.75.75,0,0,1-1,0,.8.8,0,0,1-.17-.51.81.81,0,0,1,.17-.52.64.64,0,0,1,.52-.21.62.62,0,0,1,.51.21A.8.8,0,0,1,333,125.17Zm-.1,9.36h-1.21v-7.4h1.21Z"/><path class="cls-2" d="M336.44,134.53h-1.21V124h1.21Z"/><path class="cls-2" d="M340,134.53h-1.21V124H340Z"/><path class="cls-2" d="M347.11,134.53H345.9V124h1.21Z"/><path class="cls-2" d="M352,134.66a2.69,2.69,0,0,1-2.12-.82,3.59,3.59,0,0,1-.75-2.42v-.89a4.2,4.2,0,0,1,.72-2.6,2.41,2.41,0,0,1,2-.94,2.33,2.33,0,0,1,1.95.83,4.32,4.32,0,0,1,.65,2.58v.79h-4.13v.17a2.7,2.7,0,0,0,.45,1.73,1.58,1.58,0,0,0,1.29.54,2.13,2.13,0,0,0,.94-.2,2.47,2.47,0,0,0,.76-.64l.63.77A2.75,2.75,0,0,1,352,134.66Zm-.14-6.63a1.25,1.25,0,0,0-1.11.52,3,3,0,0,0-.41,1.6h2.91V130a2.82,2.82,0,0,0-.38-1.51A1.16,1.16,0,0,0,351.86,128Z"/><path class="cls-2" d="M358.27,132.69l1.4-5.56h1.23l-2.19,7.4h-.9l-2.23-7.4h1.23Z"/><path class="cls-2" d="M365.07,134.66a2.69,2.69,0,0,1-2.12-.82,3.59,3.59,0,0,1-.75-2.42v-.89a4.2,4.2,0,0,1,.72-2.6,2.41,2.41,0,0,1,2-.94,2.31,2.31,0,0,1,1.94.83,4.24,4.24,0,0,1,.66,2.58v.79H363.4v.17a2.7,2.7,0,0,0,.45,1.73,1.58,1.58,0,0,0,1.29.54,2.16,2.16,0,0,0,.94-.2,2.47,2.47,0,0,0,.76-.64l.63.77A2.77,2.77,0,0,1,365.07,134.66Zm-.14-6.63a1.25,1.25,0,0,0-1.11.52,3,3,0,0,0-.41,1.6h2.91V130a2.82,2.82,0,0,0-.38-1.51A1.17,1.17,0,0,0,364.93,128Z"/><path class="cls-2" d="M370.63,134.53h-1.21V124h1.21Z"/><path class="cls-2" d="M373,133.86a.76.76,0,0,1,.19-.54.74.74,0,0,1,.59-.22.76.76,0,0,1,.59.22.82.82,0,0,1,0,1.07.79.79,0,0,1-.59.21.77.77,0,0,1-.59-.21A.75.75,0,0,1,373,133.86Z"/></g></svg>