<svg id="Page1" xmlns="http://www.w3.org/2000/svg" xmlns:xlink="http://www.w3.org/1999/xlink" viewBox="0 0 247.6 484.78"><defs><style>.cls-1,.cls-32,.cls-34{fill:none;}.cls-2{clip-path:url(#clip-path);}.cls-3{fill:#fffefa;}.cls-4{fill:#228f9b;}.cls-5{fill:#fb9502;}.cls-6{opacity:0.35;isolation:isolate;}.cls-7{clip-path:url(#clip-path-4);}.cls-8{fill:#a3eae7;}.cls-9{clip-path:url(#clip-path-5);}.cls-10{opacity:0.5;}.cls-11{clip-path:url(#clip-path-6);}.cls-12{clip-path:url(#clip-path-7);}.cls-13{clip-path:url(#clip-path-8);}.cls-14{clip-path:url(#clip-path-9);}.cls-15{clip-path:url(#clip-path-10);}.cls-16{clip-path:url(#clip-path-11);}.cls-17{clip-path:url(#clip-path-12);}.cls-18{fill:#28b5bd;}.cls-19{clip-path:url(#clip-path-14);}.cls-20{clip-path:url(#clip-path-15);}.cls-21{clip-path:url(#clip-path-16);}.cls-22{fill:url(#linear-gradient);}.cls-23{clip-path:url(#clip-path-17);}.cls-24{fill:url(#linear-gradient-2);}.cls-25{clip-path:url(#clip-path-18);}.cls-26{fill:url(#linear-gradient-3);}.cls-27{clip-path:url(#clip-path-19);}.cls-28{fill:url(#linear-gradient-4);}.cls-29{clip-path:url(#clip-path-20);}.cls-30{fill:url(#linear-gradient-5);}.cls-31{fill:#f2f2f2;}.cls-32{stroke:#e6e6e6;}.cls-32,.cls-34{stroke-miterlimit:10;}.cls-33{fill:#fff;}.cls-34{stroke:#f2f2f2;}.cls-35{fill:#f7f7f7;}</style><clipPath id="clip-path"><rect class="cls-1" x="7.82" y="7.82" width="232.53" height="465.36"/></clipPath><clipPath id="clip-path-4"><rect class="cls-1" x="46.13" y="227" width="158.57" height="24.29"/></clipPath><clipPath id="clip-path-5"><rect class="cls-1" x="85.65" y="198.7" width="21.39" height="28.41"/></clipPath><clipPath id="clip-path-6"><rect class="cls-1" x="85.65" y="198.77" width="21.46" height="28.34"/></clipPath><clipPath id="clip-path-7"><rect class="cls-1" x="55.54" y="184.48" width="21.39" height="42.61"/></clipPath><clipPath id="clip-path-8"><rect class="cls-1" x="55.54" y="184.58" width="21.46" height="42.51"/></clipPath><clipPath id="clip-path-9"><rect class="cls-1" x="141.85" y="195.14" width="24.06" height="31.96"/></clipPath><clipPath id="clip-path-10"><rect class="cls-1" x="141.85" y="195.22" width="24.14" height="31.88"/></clipPath><clipPath id="clip-path-11"><rect class="cls-1" x="173.08" y="211.14" width="13.37" height="15.98"/></clipPath><clipPath id="clip-path-12"><rect class="cls-1" x="173.08" y="211.18" width="13.41" height="15.94"/></clipPath><clipPath id="clip-path-14"><rect class="cls-1" x="56.51" y="211.7" width="7.22" height="15.39"/></clipPath><clipPath id="clip-path-15"><rect class="cls-1" x="194.74" y="211.7" width="7.22" height="15.39"/></clipPath><clipPath id="clip-path-16"><path class="cls-1" d="M99.37,116.48a4.64,4.64,0,0,1,4.45-4.52,4.56,4.56,0,0,1,4.46,4.52,4.65,4.65,0,0,1-4.46,4.52,4.55,4.55,0,0,1-4.45-4.52m-4.32-14.71v14.71a8.83,8.83,0,0,0,3.85,7.42,9.22,9.22,0,0,0,9.24.34,8.81,8.81,0,0,0,4.39-7.76,8.66,8.66,0,0,0-4.73-7.83,8.89,8.89,0,0,0-8.43.41c0-1.35-.14-7.29-.14-7.29Z"/></clipPath><linearGradient id="linear-gradient" x1="-2484.17" y1="6695.56" x2="-2483.17" y2="6695.56" gradientTransform="translate(117130.65 58595.8) rotate(90) scale(23.55 17.48)" gradientUnits="userSpaceOnUse"><stop offset="0" stop-color="#fb9502"/><stop offset="1" stop-color="#fb9502"/></linearGradient><clipPath id="clip-path-17"><rect class="cls-1" x="114.96" y="101.77" width="4.39" height="23.08"/></clipPath><linearGradient id="linear-gradient-2" x1="-2489.66" y1="6316.01" x2="-2488.66" y2="6316.01" gradientTransform="translate(27818.42 57554.44) rotate(90) scale(23.08 4.39)" xlink:href="#linear-gradient"/><clipPath id="clip-path-18"><path class="cls-1" d="M126,116.48h0a4.46,4.46,0,0,1,8.91,0h0a4.46,4.46,0,1,1-8.91,0m-1.17-6.81A8.78,8.78,0,0,0,123.59,122a9,9,0,0,0,9.92,2.63,8.67,8.67,0,0,0,5.6-8.16,8.48,8.48,0,0,0-6.81-8.57,8.78,8.78,0,0,0-7.45,1.76"/></clipPath><linearGradient id="linear-gradient-3" x1="-2577.81" y1="6695.68" x2="-2576.81" y2="6695.68" gradientTransform="translate(117237.88 45161.72) rotate(90) scale(17.48 17.49)" xlink:href="#linear-gradient"/><clipPath id="clip-path-19"><path class="cls-1" d="M144.92,116.48h0a4.45,4.45,0,1,1,8.9,0h0a4.45,4.45,0,1,1-8.9,0m-1.1-6.81A8.77,8.77,0,0,0,142.55,122a9,9,0,0,0,9.92,2.63,8.66,8.66,0,0,0,5.6-8.16,8.54,8.54,0,0,0-6.81-8.57,8.76,8.76,0,0,0-7.44,1.76"/></clipPath><linearGradient id="linear-gradient-4" x1="-2577.81" y1="6695.69" x2="-2576.81" y2="6695.69" gradientTransform="translate(117272.06 45161.72) rotate(90) scale(17.48 17.49)" xlink:href="#linear-gradient"/><clipPath id="clip-path-20"><path class="cls-1" d="M167.05,108.05a6.89,6.89,0,0,0-2.9.67c-.41.2-1.49.81-1.49.81s-.07-1.15-1.68-1.21c-.54,0-.48.4-.48.4v16.13s3,.13,3.91.06c.48,0,.41.07.41-.4.07-.68,0-5.87,0-7.83,0-1.35-.34-3.24,1.08-4.05a2.15,2.15,0,0,1,1-.29,2.2,2.2,0,0,1,2.29,2.12v10.45h4.25s.06-6.81.06-8.7c0-1.55-.2-3.64,1.89-3.91,2.37-.34,2.5,2,2.5,3.51v9h4.32s0-8,.07-10.39a6.45,6.45,0,0,0-3.58-5.67c-2.36-1.22-5.74-1-7.35,1.21a5.27,5.27,0,0,0-4.1-2h-.22"/></clipPath><linearGradient id="linear-gradient-5" x1="-2590.39" y1="6720.76" x2="-2589.39" y2="6720.76" gradientTransform="translate(146664.77 43866.22) rotate(90) scale(16.89 21.8)" xlink:href="#linear-gradient"/></defs><title>PhoneWelcome</title><g id="ScreenWelcome"><g class="cls-2"><g class="cls-2"><g class="cls-2"><path class="cls-3" d="M206.54,465.14H44.45A27.46,27.46,0,0,1,17,437.67V41.86A27.46,27.46,0,0,1,44.45,14.39H206.54A27.47,27.47,0,0,1,234,41.86V437.67a27.47,27.47,0,0,1-27.46,27.47"/><path class="cls-4" d="M117.81,409.37a1.57,1.57,0,0,1,.5-1.17,2.16,2.16,0,0,1,1.55-.48,3.35,3.35,0,0,1,1.51.36v.79a2.67,2.67,0,0,0-1.41-.39c-.89,0-1.33.3-1.33.89a.5.5,0,0,0,.23.41,1.85,1.85,0,0,0,.58.29q.34.1.75.27c.27.12.52.23.75.36a1.6,1.6,0,0,1,.8,1.42,1.36,1.36,0,0,1-.56,1.17,2.53,2.53,0,0,1-1.55.42,3.91,3.91,0,0,1-1.74-.42v-.84a3.18,3.18,0,0,0,1.67.5c.91,0,1.36-.28,1.37-.83a.89.89,0,0,0-.23-.61,1.3,1.3,0,0,0-.58-.36l-.75-.26c-.27-.09-.52-.19-.75-.29a1.43,1.43,0,0,1-.58-.46,1.32,1.32,0,0,1-.23-.77"/><polygon class="cls-4" points="122.78 413.64 122.78 407.6 123.59 407.6 123.59 411.1 125.48 409.26 126.57 409.26 124.67 411.09 126.82 413.64 125.75 413.64 124.13 411.61 123.59 412.13 123.59 413.64 122.78 413.64"/><path class="cls-4" d="M127.7,407.74h.85v.85h-.85Zm0,1.52h.8v4.38h-.8Z"/><path class="cls-4" d="M130,415.31V410.6a1.41,1.41,0,0,1,0-.28,1.18,1.18,0,0,1,.13-.35,1.29,1.29,0,0,1,.28-.38,1.5,1.5,0,0,1,.54-.28,2.66,2.66,0,0,1,.84-.12,2.42,2.42,0,0,1,.47.05,1.69,1.69,0,0,1,.51.19,1.79,1.79,0,0,1,.48.39,2.05,2.05,0,0,1,.33.68,3.31,3.31,0,0,1,.14,1,3.07,3.07,0,0,1-.18,1.11,1.38,1.38,0,0,1-.49.68,2.09,2.09,0,0,1-.63.32,2.37,2.37,0,0,1-.72.1,3.22,3.22,0,0,1-.93-.13v1.73Zm.8-2.5a2.56,2.56,0,0,0,.93.18,2,2,0,0,0,.46-.05,1.07,1.07,0,0,0,.38-.2.92.92,0,0,0,.28-.45,2.53,2.53,0,0,0,.1-.79,3,3,0,0,0-.1-.85,1,1,0,0,0-.28-.49,1.09,1.09,0,0,0-.35-.21,1.62,1.62,0,0,0-.4-.05c-.68,0-1,.22-1,.65Z"/><path class="cls-4" d="M59.63,361.68h130.9a2.7,2.7,0,0,1,2.7,2.7v27a2.7,2.7,0,0,1-2.7,2.7H59.63a2.7,2.7,0,0,1-2.7-2.7v-27a2.7,2.7,0,0,1,2.7-2.7"/><path class="cls-3" d="M103.38,376a2.4,2.4,0,0,1,.77-1.79,3.28,3.28,0,0,1,2.38-.74,5.23,5.23,0,0,1,2.32.54v1.23a4.13,4.13,0,0,0-2.17-.6c-1.36,0-2,.45-2,1.36a.78.78,0,0,0,.36.64,2.9,2.9,0,0,0,.88.44c.35.11.74.25,1.15.42a11.43,11.43,0,0,1,1.16.55,2.48,2.48,0,0,1,1.24,2.18,2.13,2.13,0,0,1-.86,1.8,3.94,3.94,0,0,1-2.39.65,6.07,6.07,0,0,1-2.68-.65v-1.29a4.87,4.87,0,0,0,2.57.76c1.4,0,2.1-.42,2.1-1.27a1.33,1.33,0,0,0-.35-.93,2,2,0,0,0-.89-.56l-1.15-.4a11.73,11.73,0,0,1-1.16-.45,2.15,2.15,0,0,1-.88-.71,1.92,1.92,0,0,1-.36-1.18"/><polygon class="cls-3" points="111.41 382.6 111.41 373.6 117.28 373.6 117.28 374.77 112.67 374.77 112.67 377.51 116.73 377.51 116.73 378.69 112.67 378.69 112.67 381.43 117.28 381.43 117.28 382.6 111.41 382.6"/><polygon class="cls-3" points="118.83 374.77 118.83 373.6 126.15 373.6 126.15 374.77 123.11 374.77 123.11 382.6 121.85 382.6 121.85 374.77 118.83 374.77"/><path class="cls-3" d="M132.29,378.89V373.6h1.26V379a2.83,2.83,0,0,0,.59,2,2.43,2.43,0,0,0,1.84.63,2.39,2.39,0,0,0,1.83-.63,2.79,2.79,0,0,0,.6-2v-5.4h1.26v5.29a4,4,0,0,1-1,2.83,4.2,4.2,0,0,1-5.44,0,3.9,3.9,0,0,1-1-2.83"/><path class="cls-3" d="M142,382.6v-9h3.25a3.37,3.37,0,0,1,2.32.74,3.06,3.06,0,0,1,0,4.19,3.37,3.37,0,0,1-2.32.74h-2v3.33Zm1.26-4.44h1.87a2.09,2.09,0,0,0,1.6-.46,1.84,1.84,0,0,0,.41-1.25,1.82,1.82,0,0,0-.4-1.25,2.12,2.12,0,0,0-1.61-.47h-1.87Z"/><polygon class="cls-5" points="37.17 300.26 37.29 301.23 37.46 300.37 38.84 294.35 39.75 294.35 41.09 300.37 41.26 301.25 41.38 300.25 42.44 294.35 43.53 294.35 41.81 302.98 40.83 302.98 39.39 296.69 39.3 296.18 39.21 296.69 37.71 302.98 36.73 302.98 35.02 294.35 36.1 294.35 37.17 300.26"/><path class="cls-5" d="M46.85,303.1a2.37,2.37,0,0,1-1.84-.71,3.15,3.15,0,0,1-.65-2.1v-.78a3.62,3.62,0,0,1,.63-2.25,2.32,2.32,0,0,1,3.43-.1A3.74,3.74,0,0,1,49,299.4v.69H45.4v.15a2.36,2.36,0,0,0,.39,1.5,1.37,1.37,0,0,0,1.12.46,1.73,1.73,0,0,0,.81-.17,2.11,2.11,0,0,0,.67-.55l.54.66a2.38,2.38,0,0,1-2.08,1m-.12-5.75a1.08,1.08,0,0,0-1,.45,2.64,2.64,0,0,0-.36,1.39h2.53V299a2.46,2.46,0,0,0-.33-1.3,1,1,0,0,0-.88-.39"/><path class="cls-5" d="M54.29,297.22a1.84,1.84,0,0,1,1.53-.77c1.14,0,1.71.75,1.73,2.27V303h-1v-4.22a1.76,1.76,0,0,0-.25-1.07.91.91,0,0,0-.75-.31,1,1,0,0,0-.71.26,2,2,0,0,0-.5.68V303h-1v-9.11h1Z"/><path class="cls-5" d="M61.51,303.1a2.37,2.37,0,0,1-1.84-.71,3.15,3.15,0,0,1-.65-2.1v-.78a3.62,3.62,0,0,1,.63-2.25,2.07,2.07,0,0,1,1.74-.81,2,2,0,0,1,1.69.71,3.74,3.74,0,0,1,.57,2.24v.69H60.07v.15a2.37,2.37,0,0,0,.38,1.5,1.39,1.39,0,0,0,1.12.46,1.8,1.8,0,0,0,.82-.17,2.2,2.2,0,0,0,.66-.55l.54.66a2.37,2.37,0,0,1-2.08,1m-.12-5.75a1.09,1.09,0,0,0-1,.45,2.64,2.64,0,0,0-.36,1.39H62.6V299a2.46,2.46,0,0,0-.33-1.3,1,1,0,0,0-.88-.39"/><rect class="cls-5" x="65.1" y="293.87" width="1.05" height="9.11"/><path class="cls-5" d="M72.54,300.08a3.8,3.8,0,0,1-.55,2.27,1.8,1.8,0,0,1-1.55.75,1.72,1.72,0,0,1-1.49-.73v3.08h-1v-8.89h1l0,.72a1.68,1.68,0,0,1,1.51-.83,1.8,1.8,0,0,1,1.58.73,3.87,3.87,0,0,1,.54,2.2Zm-1-.6a3,3,0,0,0-.33-1.59,1.19,1.19,0,0,0-1.07-.51,1.24,1.24,0,0,0-1.15.75v3.34a1.24,1.24,0,0,0,1.16.73,1.18,1.18,0,0,0,1-.51,3,3,0,0,0,.34-1.57Z"/><path class="cls-5" d="M78.65,301.24l1.17-4.68h1.11l-2.1,7.33a2.79,2.79,0,0,1-.67,1.25,1.32,1.32,0,0,1-1,.43,2.21,2.21,0,0,1-.55-.09v-.89l.23,0a1.1,1.1,0,0,0,.72-.21,1.64,1.64,0,0,0,.42-.75l.21-.72-1.89-6.37h1.14Z"/><path class="cls-5" d="M81.75,299.48a3.38,3.38,0,0,1,.68-2.22,2.41,2.41,0,0,1,3.59,0,3.3,3.3,0,0,1,.7,2.17v.67a3.35,3.35,0,0,1-.68,2.21,2.41,2.41,0,0,1-3.59,0,3.28,3.28,0,0,1-.7-2.13Zm1,.6a2.73,2.73,0,0,0,.39,1.56,1.2,1.2,0,0,0,1,.56c.92,0,1.4-.66,1.43-2v-.72a2.73,2.73,0,0,0-.39-1.56,1.24,1.24,0,0,0-2.09,0,2.72,2.72,0,0,0-.39,1.55Z"/><path class="cls-5" d="M91.45,302.42a1.8,1.8,0,0,1-1.52.68,1.55,1.55,0,0,1-1.32-.6,2.9,2.9,0,0,1-.45-1.75v-4.19h1v4.11c0,1,.31,1.5.91,1.5a1.31,1.31,0,0,0,1.31-.86v-4.75h1V303h-1Z"/><path class="cls-5" d="M98,296.56l0,.6a1.91,1.91,0,0,1,1.55-.71,1.51,1.51,0,0,1,1.5.93,1.92,1.92,0,0,1,1.69-.93c1.18,0,1.78.73,1.81,2.21V303h-1v-4.22a1.81,1.81,0,0,0-.25-1,1,1,0,0,0-.84-.34.93.93,0,0,0-.77.36,1.67,1.67,0,0,0-.35.94V303h-1v-4.27c0-.89-.38-1.33-1.09-1.33a1.14,1.14,0,0,0-1.12.79V303h-1v-6.42Z"/><path class="cls-5" d="M109.6,303a2.47,2.47,0,0,1-.14-.7,1.65,1.65,0,0,1-1.42.82,1.7,1.7,0,0,1-1.85-1.87,2,2,0,0,1,.66-1.55,2.73,2.73,0,0,1,1.83-.59h.77v-.68a.9.9,0,0,0-1-1.06,1.08,1.08,0,0,0-.78.28,1,1,0,0,0-.29.71h-1a1.67,1.67,0,0,1,.29-.94,2,2,0,0,1,.78-.7,2.34,2.34,0,0,1,1.1-.25,2.1,2.1,0,0,1,1.5.49,1.91,1.91,0,0,1,.52,1.42v3.24a3.88,3.88,0,0,0,.2,1.29V303Zm-1.4-.83a1.45,1.45,0,0,0,.74-.22,1.36,1.36,0,0,0,.51-.53v-1.53h-.6a2.06,2.06,0,0,0-1.18.33,1.1,1.1,0,0,0-.43.91,1.15,1.15,0,0,0,.22.79,1,1,0,0,0,.74.25"/><polygon class="cls-5" points="113.84 300.05 113.28 300.69 113.28 302.98 112.23 302.98 112.23 293.87 113.28 293.87 113.28 299.32 115.28 296.56 116.54 296.56 114.5 299.25 116.8 302.98 115.58 302.98 113.84 300.05"/><path class="cls-5" d="M120,303.1a2.33,2.33,0,0,1-1.83-.71,3.1,3.1,0,0,1-.66-2.1v-.78a3.62,3.62,0,0,1,.63-2.25,2.09,2.09,0,0,1,1.75-.81,2,2,0,0,1,1.68.71,3.74,3.74,0,0,1,.57,2.24v.69h-3.58v.15a2.36,2.36,0,0,0,.39,1.5,1.35,1.35,0,0,0,1.11.46,1.8,1.8,0,0,0,.82-.17,2.2,2.2,0,0,0,.66-.55l.55.66a2.4,2.4,0,0,1-2.09,1m-.11-5.75a1.1,1.1,0,0,0-1,.45,2.64,2.64,0,0,0-.36,1.39h2.53V299a2.46,2.46,0,0,0-.33-1.3,1,1,0,0,0-.87-.39"/><path class="cls-5" d="M126.17,299.48a4,4,0,0,1,.54-2.27,1.85,1.85,0,0,1,1.6-.76,1.65,1.65,0,0,1,1.49.83l0-.71h1V303a2.51,2.51,0,0,1-.61,1.83,2.22,2.22,0,0,1-1.7.64,2.9,2.9,0,0,1-1.07-.24,2.28,2.28,0,0,1-.88-.57L127,304a2,2,0,0,0,1.45.64c.87,0,1.32-.47,1.34-1.43v-.83a1.65,1.65,0,0,1-1.45.75,1.82,1.82,0,0,1-1.55-.75,3.73,3.73,0,0,1-.58-2.16Zm1,.6a2.94,2.94,0,0,0,.32,1.58,1.12,1.12,0,0,0,1,.51,1.25,1.25,0,0,0,1.17-.8v-3.21a1.27,1.27,0,0,0-1.16-.78,1.14,1.14,0,0,0-1,.5,2.92,2.92,0,0,0-.33,1.56Z"/><path class="cls-5" d="M135.12,297.55a2.35,2.35,0,0,0-.47,0,1.15,1.15,0,0,0-1.13.88V303h-1.05v-6.41h1l0,.65a1.3,1.3,0,0,1,1.19-.77.83.83,0,0,1,.41.08Z"/><path class="cls-5" d="M138.46,303.1a2.35,2.35,0,0,1-1.84-.71,3.05,3.05,0,0,1-.65-2.1v-.78a3.62,3.62,0,0,1,.62-2.25,2.09,2.09,0,0,1,1.75-.81,2,2,0,0,1,1.68.71,3.74,3.74,0,0,1,.57,2.24v.69H137v.15a2.36,2.36,0,0,0,.39,1.5,1.37,1.37,0,0,0,1.12.46,1.75,1.75,0,0,0,.81-.17,2,2,0,0,0,.66-.55l.55.66a2.39,2.39,0,0,1-2.08,1m-.12-5.75a1.1,1.1,0,0,0-1,.45,2.56,2.56,0,0,0-.35,1.39h2.52V299a2.46,2.46,0,0,0-.33-1.3,1,1,0,0,0-.87-.39"/><path class="cls-5" d="M145.26,303a2.47,2.47,0,0,1-.14-.7,1.65,1.65,0,0,1-1.42.82,1.7,1.7,0,0,1-1.85-1.87,2,2,0,0,1,.66-1.55,2.73,2.73,0,0,1,1.83-.59h.77v-.68a.9.9,0,0,0-1-1.06,1.07,1.07,0,0,0-.77.28,1,1,0,0,0-.29.71h-1a1.67,1.67,0,0,1,.29-.94,2,2,0,0,1,.78-.7,2.34,2.34,0,0,1,1.1-.25,2.1,2.1,0,0,1,1.5.49,1.91,1.91,0,0,1,.52,1.42v3.24a3.88,3.88,0,0,0,.2,1.29V303Zm-1.4-.83a1.45,1.45,0,0,0,.74-.22,1.36,1.36,0,0,0,.51-.53v-1.53h-.6a2.06,2.06,0,0,0-1.18.33,1.1,1.1,0,0,0-.43.91,1.15,1.15,0,0,0,.22.79,1,1,0,0,0,.74.25"/><path class="cls-5" d="M149.26,295v1.55h1v.85h-1v4a1,1,0,0,0,.13.57.46.46,0,0,0,.42.2,1.54,1.54,0,0,0,.42-.07V303a2.24,2.24,0,0,1-.73.12,1.11,1.11,0,0,1-1-.45,2.12,2.12,0,0,1-.32-1.25v-4h-1v-.85h1V295Z"/><path class="cls-5" d="M155.69,294.86a.68.68,0,0,1-.15.45.68.68,0,0,1-.9,0,.79.79,0,0,1,0-.9.65.65,0,0,1,.9,0,.72.72,0,0,1,.15.45M155.6,303h-1v-6.42h1Z"/><path class="cls-5" d="M158.35,296.56l0,.7a1.88,1.88,0,0,1,1.56-.81c1.14,0,1.71.75,1.73,2.27V303h-1v-4.22a1.75,1.75,0,0,0-.26-1.07.89.89,0,0,0-.75-.31,1,1,0,0,0-.7.26,1.87,1.87,0,0,0-.51.68V303h-1v-6.42Z"/><polygon class="cls-5" points="165.17 301.39 166.39 296.56 167.45 296.56 165.55 302.98 164.77 302.98 162.84 296.56 163.91 296.56 165.17 301.39"/><path class="cls-5" d="M170.87,303.1a2.37,2.37,0,0,1-1.84-.71,3.15,3.15,0,0,1-.65-2.1v-.78a3.62,3.62,0,0,1,.63-2.25,2.07,2.07,0,0,1,1.74-.81,2,2,0,0,1,1.69.71,3.74,3.74,0,0,1,.57,2.24v.69h-3.58v.15a2.37,2.37,0,0,0,.38,1.5,1.37,1.37,0,0,0,1.12.46,1.8,1.8,0,0,0,.82-.17,2.2,2.2,0,0,0,.66-.55l.54.66a2.37,2.37,0,0,1-2.08,1m-.12-5.75a1.09,1.09,0,0,0-1,.45,2.64,2.64,0,0,0-.36,1.39H172V299a2.46,2.46,0,0,0-.33-1.3,1,1,0,0,0-.88-.39"/><path class="cls-5" d="M177.49,301.34a.76.76,0,0,0-.25-.58,3.9,3.9,0,0,0-1-.57,6.66,6.66,0,0,1-1.19-.6,1.73,1.73,0,0,1-.52-.57,1.6,1.6,0,0,1-.17-.75,1.66,1.66,0,0,1,.57-1.3,2.07,2.07,0,0,1,1.46-.52,2.1,2.1,0,0,1,1.51.54,1.86,1.86,0,0,1,.57,1.4h-1a1,1,0,0,0-.29-.74,1,1,0,0,0-.74-.3,1,1,0,0,0-.72.24.81.81,0,0,0-.27.64.69.69,0,0,0,.19.51,3.67,3.67,0,0,0,.93.52,4.59,4.59,0,0,1,1.59.89,1.53,1.53,0,0,1,.42,1.11,1.7,1.7,0,0,1-.57,1.34,2.6,2.6,0,0,1-3.17-.08,1.9,1.9,0,0,1-.62-1.45h1a1.09,1.09,0,0,0,1.2,1.13,1.16,1.16,0,0,0,.79-.23.8.8,0,0,0,.27-.63"/><path class="cls-5" d="M181.39,295v1.55h1v.85h-1v4a1,1,0,0,0,.13.57.46.46,0,0,0,.42.2,1.68,1.68,0,0,0,.43-.07l0,.88a2.24,2.24,0,0,1-.73.12,1.11,1.11,0,0,1-1-.45,2.12,2.12,0,0,1-.32-1.25v-4h-1v-.85h1V295Z"/><path class="cls-5" d="M184.7,296.56l0,.6a1.89,1.89,0,0,1,1.54-.71,1.53,1.53,0,0,1,1.51.93,1.89,1.89,0,0,1,1.68-.93c1.18,0,1.79.73,1.81,2.21V303h-1v-4.22a1.73,1.73,0,0,0-.25-1,1,1,0,0,0-.84-.34,1,1,0,0,0-.77.36,1.75,1.75,0,0,0-.35.94V303H187v-4.27c0-.89-.37-1.33-1.09-1.33a1.14,1.14,0,0,0-1.12.79V303h-1v-6.42Z"/><path class="cls-5" d="M195.26,303.1a2.37,2.37,0,0,1-1.84-.71,3.05,3.05,0,0,1-.65-2.1v-.78a3.62,3.62,0,0,1,.62-2.25,2.09,2.09,0,0,1,1.75-.81,2,2,0,0,1,1.68.71,3.74,3.74,0,0,1,.57,2.24v.69h-3.58v.15a2.36,2.36,0,0,0,.39,1.5,1.37,1.37,0,0,0,1.12.46,1.75,1.75,0,0,0,.81-.17,2,2,0,0,0,.66-.55l.55.66a2.39,2.39,0,0,1-2.08,1m-.12-5.75a1.1,1.1,0,0,0-1,.45,2.56,2.56,0,0,0-.35,1.39h2.52V299a2.46,2.46,0,0,0-.33-1.3,1,1,0,0,0-.87-.39"/><path class="cls-5" d="M199.75,296.56l0,.7a1.88,1.88,0,0,1,1.56-.81c1.13,0,1.71.75,1.72,2.27V303h-1v-4.22a1.76,1.76,0,0,0-.25-1.07.91.91,0,0,0-.76-.31,1,1,0,0,0-.7.26,1.75,1.75,0,0,0-.5.68V303h-1.05v-6.42Z"/><path class="cls-5" d="M206.12,295v1.55h1v.85h-1v4a1.1,1.1,0,0,0,.12.57.49.49,0,0,0,.43.2,1.54,1.54,0,0,0,.42-.07V303a2.28,2.28,0,0,1-.73.12,1.11,1.11,0,0,1-.95-.45,2,2,0,0,1-.32-1.25v-4h-1v-.85h1V295Z"/><path class="cls-5" d="M211.56,301.34a.76.76,0,0,0-.25-.58,3.9,3.9,0,0,0-1-.57,6.66,6.66,0,0,1-1.19-.6,1.73,1.73,0,0,1-.52-.57,1.49,1.49,0,0,1-.17-.75A1.66,1.66,0,0,1,209,297a2.07,2.07,0,0,1,1.46-.52A2.12,2.12,0,0,1,212,297a1.86,1.86,0,0,1,.57,1.4H211.5a1,1,0,0,0-.29-.74,1,1,0,0,0-.74-.3,1.05,1.05,0,0,0-.73.24.84.84,0,0,0-.26.64.69.69,0,0,0,.19.51,3.67,3.67,0,0,0,.93.52,4.59,4.59,0,0,1,1.59.89,1.53,1.53,0,0,1,.42,1.11,1.7,1.7,0,0,1-.57,1.34,2.31,2.31,0,0,1-1.55.5,2.27,2.27,0,0,1-1.62-.58,1.87,1.87,0,0,1-.62-1.45h1.05a1.14,1.14,0,0,0,.33.83,1.44,1.44,0,0,0,1.66.07.8.8,0,0,0,.27-.63"/><path class="cls-5" d="M214.15,302.41a.72.72,0,0,1,.17-.48.69.69,0,0,1,.51-.19.66.66,0,0,1,.51.19.68.68,0,0,1,.18.48.61.61,0,0,1-.18.45.63.63,0,0,1-.51.19.66.66,0,0,1-.51-.19.64.64,0,0,1-.17-.45"/><polygon class="cls-5" points="65.36 315.36 62.44 315.36 62.44 319.18 61.36 319.18 61.36 310.54 65.85 310.54 65.85 311.47 62.44 311.47 62.44 314.43 65.36 314.43 65.36 315.36"/><path class="cls-5" d="M68.37,311.06a.67.67,0,0,1-.15.44.65.65,0,0,1-.9,0,.72.72,0,0,1-.14-.44.73.73,0,0,1,.14-.45.63.63,0,0,1,.9,0,.68.68,0,0,1,.15.45m-.08,8.11H67.24v-6.41h1.05Z"/><path class="cls-5" d="M72.69,313.74a3.3,3.3,0,0,0-.47,0,1.16,1.16,0,0,0-1.13.89v4.59H70v-6.42h1l0,.65a1.31,1.31,0,0,1,1.19-.77,1,1,0,0,1,.42.08Z"/><path class="cls-5" d="M77,317.53a.78.78,0,0,0-.26-.58,4,4,0,0,0-1-.57,5.91,5.91,0,0,1-1.2-.6,1.72,1.72,0,0,1-.52-.56,1.64,1.64,0,0,1-.17-.76,1.69,1.69,0,0,1,.57-1.3,2.08,2.08,0,0,1,1.47-.52,2.06,2.06,0,0,1,1.5.55,1.85,1.85,0,0,1,.57,1.4h-1a1,1,0,0,0-.29-.74,1,1,0,0,0-.74-.31,1,1,0,0,0-.73.24.8.8,0,0,0-.26.64.69.69,0,0,0,.19.52,3.44,3.44,0,0,0,.93.51,4.68,4.68,0,0,1,1.59.9,1.52,1.52,0,0,1,.42,1.1,1.7,1.7,0,0,1-.58,1.34,2.23,2.23,0,0,1-1.54.5,2.33,2.33,0,0,1-1.63-.57,1.91,1.91,0,0,1-.62-1.46h1.06a1.07,1.07,0,0,0,1.19,1.14,1.15,1.15,0,0,0,.79-.24.75.75,0,0,0,.28-.63"/><path class="cls-5" d="M80.87,311.2v1.56h1v.85h-1v4a1.14,1.14,0,0,0,.12.58.47.47,0,0,0,.43.19,1.28,1.28,0,0,0,.42-.07v.89a2.58,2.58,0,0,1-.73.11,1.09,1.09,0,0,1-.95-.44,2.1,2.1,0,0,1-.33-1.26v-4h-1v-.85h1V311.2Z"/><path class="cls-5" d="M83.2,320.9l-.62-.43a2.9,2.9,0,0,0,.58-1.6v-1h1.07v.86a2.71,2.71,0,0,1-.29,1.19,3.08,3.08,0,0,1-.74,1"/><rect class="cls-5" x="88.65" y="310.07" width="1.05" height="9.11"/><path class="cls-5" d="M93.76,319.29a2.33,2.33,0,0,1-1.84-.71,3.05,3.05,0,0,1-.65-2.1v-.77a3.58,3.58,0,0,1,.62-2.25,2.07,2.07,0,0,1,1.75-.82,2,2,0,0,1,1.68.72,3.7,3.7,0,0,1,.57,2.23v.69H92.31v.15a2.32,2.32,0,0,0,.39,1.5,1.38,1.38,0,0,0,1.12.47,1.76,1.76,0,0,0,.81-.18,1.87,1.87,0,0,0,.66-.55l.55.66a2.39,2.39,0,0,1-2.08,1m-.12-5.75a1.1,1.1,0,0,0-1,.45,2.58,2.58,0,0,0-.35,1.39h2.52v-.14a2.51,2.51,0,0,0-.33-1.31,1,1,0,0,0-.87-.39"/><path class="cls-5" d="M98.63,311.2v1.56h1v.85h-1v4a1.13,1.13,0,0,0,.13.58.46.46,0,0,0,.43.19,1.32,1.32,0,0,0,.42-.07l0,.89a2.53,2.53,0,0,1-.73.11,1.07,1.07,0,0,1-.94-.44,2.1,2.1,0,0,1-.33-1.26v-4h-1v-.85h1V311.2Z"/><polygon class="cls-5" points="101.67 310.73 101.55 312.91 100.78 312.91 100.79 310.07 101.67 310.07 101.67 310.73"/><path class="cls-5" d="M105.83,317.53a.78.78,0,0,0-.26-.58,4,4,0,0,0-1-.57,5.91,5.91,0,0,1-1.2-.6,1.72,1.72,0,0,1-.52-.56,1.64,1.64,0,0,1-.17-.76,1.69,1.69,0,0,1,.57-1.3,2.08,2.08,0,0,1,1.47-.52,2.06,2.06,0,0,1,1.5.55,1.85,1.85,0,0,1,.57,1.4h-1a1,1,0,0,0-.29-.74,1,1,0,0,0-.74-.31,1,1,0,0,0-.73.24.8.8,0,0,0-.26.64.69.69,0,0,0,.19.52,3.44,3.44,0,0,0,.93.51,4.78,4.78,0,0,1,1.59.9,1.52,1.52,0,0,1,.42,1.1,1.7,1.7,0,0,1-.58,1.34,2.23,2.23,0,0,1-1.54.5,2.33,2.33,0,0,1-1.63-.57,1.91,1.91,0,0,1-.62-1.46h1.06a1.07,1.07,0,0,0,1.19,1.14,1.15,1.15,0,0,0,.79-.24.75.75,0,0,0,.28-.63"/><path class="cls-5" d="M111,315.68a3.94,3.94,0,0,1,.55-2.27,1.83,1.83,0,0,1,1.59-.77,1.63,1.63,0,0,1,1.49.84l.06-.72h.94v6.48a2.5,2.5,0,0,1-.61,1.82,2.21,2.21,0,0,1-1.7.64,3,3,0,0,1-1.06-.23,2.25,2.25,0,0,1-.89-.58l.43-.72a2,2,0,0,0,1.44.64c.87,0,1.32-.48,1.34-1.43v-.84a1.64,1.64,0,0,1-1.44.75,1.84,1.84,0,0,1-1.56-.75,3.69,3.69,0,0,1-.58-2.15Zm1,.59a3.1,3.1,0,0,0,.32,1.59,1.14,1.14,0,0,0,1,.5,1.24,1.24,0,0,0,1.17-.8v-3.2a1.26,1.26,0,0,0-1.16-.79,1.13,1.13,0,0,0-1,.51,3.08,3.08,0,0,0-.33,1.55Z"/><path class="cls-5" d="M119.63,319.29a2.33,2.33,0,0,1-1.84-.71,3.1,3.1,0,0,1-.65-2.1v-.77a3.65,3.65,0,0,1,.62-2.25,2.07,2.07,0,0,1,1.75-.82,2,2,0,0,1,1.68.72,3.57,3.57,0,0,1,.57,2.23v.69h-3.58v.15a2.32,2.32,0,0,0,.39,1.5,1.38,1.38,0,0,0,1.12.47,1.73,1.73,0,0,0,.81-.18,1.87,1.87,0,0,0,.66-.55l.55.66a2.38,2.38,0,0,1-2.08,1m-.12-5.75a1.1,1.1,0,0,0-1,.45,2.58,2.58,0,0,0-.35,1.39h2.52v-.14a2.33,2.33,0,0,0-.33-1.31,1,1,0,0,0-.87-.39"/><path class="cls-5" d="M124.51,311.2v1.56h1v.85h-1v4a1.14,1.14,0,0,0,.12.58.47.47,0,0,0,.43.19,1.23,1.23,0,0,0,.42-.07v.89a2.58,2.58,0,0,1-.73.11,1.09,1.09,0,0,1-.95-.44,2.1,2.1,0,0,1-.33-1.26v-4h-1v-.85h1V311.2Z"/><path class="cls-5" d="M131.09,311.2v1.56h1v.85h-1v4a1.13,1.13,0,0,0,.13.58.46.46,0,0,0,.43.19,1.32,1.32,0,0,0,.42-.07l0,.89a2.53,2.53,0,0,1-.73.11,1.07,1.07,0,0,1-.94-.44,2.1,2.1,0,0,1-.33-1.26v-4h-1v-.85h1V311.2Z"/><path class="cls-5" d="M133.08,315.67a3.3,3.3,0,0,1,.68-2.21,2.2,2.2,0,0,1,1.79-.82,2.26,2.26,0,0,1,1.79.79,3.27,3.27,0,0,1,.7,2.17v.68a3.34,3.34,0,0,1-.68,2.2,2.22,2.22,0,0,1-1.8.81,2.25,2.25,0,0,1-1.79-.78,3.25,3.25,0,0,1-.69-2.14Zm1,.61a2.67,2.67,0,0,0,.39,1.55,1.18,1.18,0,0,0,1,.57c.93,0,1.4-.67,1.43-2v-.72a2.75,2.75,0,0,0-.39-1.56,1.21,1.21,0,0,0-1-.57,1.18,1.18,0,0,0-1,.57,2.74,2.74,0,0,0-.39,1.55Z"/><polygon class="cls-5" points="144.01 316.24 143.45 316.88 143.45 319.18 142.4 319.18 142.4 310.07 143.45 310.07 143.45 315.52 145.45 312.76 146.7 312.76 144.66 315.44 146.97 319.18 145.75 319.18 144.01 316.24"/><path class="cls-5" d="M149,312.76l0,.69a1.86,1.86,0,0,1,1.56-.81c1.13,0,1.71.76,1.72,2.27v4.27h-1V315a1.81,1.81,0,0,0-.25-1.07.92.92,0,0,0-.76-.32,1.06,1.06,0,0,0-.7.26,1.83,1.83,0,0,0-.5.68v4.67H148v-6.42Z"/><path class="cls-5" d="M153.74,315.67a3.35,3.35,0,0,1,.68-2.21,2.2,2.2,0,0,1,1.8-.82,2.26,2.26,0,0,1,1.79.79,3.38,3.38,0,0,1,.7,2.17v.68a3.34,3.34,0,0,1-.68,2.2,2.42,2.42,0,0,1-3.59,0,3.31,3.31,0,0,1-.7-2.14Zm1,.61a2.67,2.67,0,0,0,.39,1.55,1.21,1.21,0,0,0,1,.57c.92,0,1.4-.67,1.43-2v-.72a2.75,2.75,0,0,0-.39-1.56,1.24,1.24,0,0,0-1.05-.57,1.2,1.2,0,0,0-1,.57,2.74,2.74,0,0,0-.39,1.55Z"/><polygon class="cls-5" points="164.95 317.33 165.93 312.76 166.97 312.76 165.39 319.18 164.56 319.18 163.31 314.58 162.08 319.18 161.24 319.18 159.68 312.76 160.71 312.76 161.71 317.22 162.9 312.76 163.73 312.76 164.95 317.33"/><path class="cls-5" d="M172.82,317.43l1.16-4.67h1.12l-2.1,7.32a2.89,2.89,0,0,1-.67,1.26,1.39,1.39,0,0,1-1,.43,1.84,1.84,0,0,1-.55-.1v-.89l.23,0a1.12,1.12,0,0,0,.72-.22,1.51,1.51,0,0,0,.41-.75l.21-.72-1.88-6.36h1.14Z"/><path class="cls-5" d="M175.92,315.67a3.35,3.35,0,0,1,.68-2.21,2.2,2.2,0,0,1,1.79-.82,2.27,2.27,0,0,1,1.8.79,3.32,3.32,0,0,1,.69,2.17v.68a3.34,3.34,0,0,1-.67,2.2,2.42,2.42,0,0,1-3.59,0,3.31,3.31,0,0,1-.7-2.14Zm1.05.61a2.67,2.67,0,0,0,.39,1.55,1.21,1.21,0,0,0,1,.57c.92,0,1.4-.67,1.42-2v-.72a2.75,2.75,0,0,0-.39-1.56,1.21,1.21,0,0,0-1.05-.57,1.19,1.19,0,0,0-1,.57,2.74,2.74,0,0,0-.39,1.55Z"/><path class="cls-5" d="M185.62,318.61a1.79,1.79,0,0,1-1.52.68,1.53,1.53,0,0,1-1.32-.6,2.88,2.88,0,0,1-.45-1.75v-4.18h1v4.1q0,1.5.9,1.5a1.31,1.31,0,0,0,1.32-.85v-4.75h1v6.41h-1Z"/><path class="cls-5" d="M188.4,318.6a.68.68,0,0,1,.17-.47.62.62,0,0,1,.5-.19.67.67,0,0,1,.52.19.68.68,0,0,1,.17.47.69.69,0,0,1-.17.46.7.7,0,0,1-.52.18.65.65,0,0,1-.5-.18.69.69,0,0,1-.17-.46"/><g class="cls-6"><g class="cls-7"><path class="cls-8" d="M46.13,227v2.7a9.49,9.49,0,0,0,9.45,9.45H98a2.7,2.7,0,0,1,2.7,2.7,9.49,9.49,0,0,0,9.45,9.45h60.32a9.49,9.49,0,0,0,9.45-9.45,2.7,2.7,0,0,1,2.7-2.7h12.68a9.49,9.49,0,0,0,9.45-9.45V227Z"/></g></g></g><g class="cls-9"><g class="cls-10"><g class="cls-11"><polygon class="cls-8" points="99.42 227.11 107.11 227.11 107.11 203.96 99.42 198.77 99.42 227.11"/><polygon class="cls-8" points="85.65 203.96 85.65 227.11 86.8 227.11 86.8 204.5 98.07 200.52 98.07 227.11 99.42 227.11 99.42 198.77 85.65 203.96"/></g></g></g><g class="cls-12"><g class="cls-10"><g class="cls-13"><polygon class="cls-8" points="69.31 227.09 77 227.09 77 192.37 69.31 184.58 69.31 227.09"/><polygon class="cls-8" points="55.54 192.37 55.54 227.09 56.69 227.09 56.69 193.18 67.96 187.21 67.96 227.09 69.31 227.09 69.31 184.58 55.54 192.37"/></g></g></g><g class="cls-14"><g class="cls-10"><g class="cls-15"><polygon class="cls-8" points="157.34 227.1 165.99 227.1 165.99 201.06 157.34 195.22 157.34 227.1"/><polygon class="cls-8" points="141.85 201.06 141.85 227.1 143.14 227.1 143.14 201.67 155.82 197.19 155.82 227.1 157.34 227.1 157.34 195.22 141.85 201.06"/></g></g></g><g class="cls-16"><g class="cls-10"><g class="cls-17"><polygon class="cls-8" points="181.69 227.12 186.49 227.12 186.49 214.1 181.69 211.18 181.69 227.12"/><polygon class="cls-8" points="173.08 214.1 173.08 227.12 173.8 227.12 173.8 214.41 180.84 212.17 180.84 227.12 181.69 227.12 181.69 211.18 173.08 214.1"/></g></g></g><g class="cls-2"><polygon class="cls-5" points="128.45 188.81 128.45 227.14 136.14 227.14 136.14 195.83 128.45 188.81"/><polygon class="cls-5" points="114.69 227.14 115.83 227.14 115.83 196.64 127.1 191.18 127.1 227.14 128.45 227.14 128.45 188.81 114.69 195.83 114.69 227.14"/><path class="cls-18" d="M153.89,233.82A3.95,3.95,0,0,1,149,229l-.54-.54a30.33,30.33,0,1,0-6.27,5.2l1.08,1.08a3.93,3.93,0,0,1,4.85,2.74,3.79,3.79,0,0,1,0,2.11l19.5,19.77,6.68-5ZM126,232.74a25.14,25.14,0,1,1,25.16-25.17A25.15,25.15,0,0,1,126,232.74"/><polygon class="cls-4" points="148.16 239.56 153.89 233.82 174.34 254.26 168.4 260.13 148.16 239.56"/><path class="cls-4" d="M126.29,180.18a27.67,27.67,0,1,1-27.66,27.66,27.66,27.66,0,0,1,27.66-27.66m0-2A29.69,29.69,0,1,0,156,207.84a29.69,29.69,0,0,0-29.69-29.69"/><polygon class="cls-5" points="168.4 260.13 174.33 254.26 172.92 252.71 166.84 258.45 168.4 260.13"/><polygon class="cls-5" points="149.57 241.11 155.51 235.3 154.09 233.75 148.02 239.49 149.57 241.11"/></g><g class="cls-19"><rect class="cls-8" x="59.48" y="219.53" width="1.28" height="7.56"/><path class="cls-8" d="M62.18,215.75c0,2.84-.94,5.07-2.09,5.07S58,218.52,58,215.75s.94-4,2.09-4,2.09,1.15,2.09,4"/><path class="cls-8" d="M63.67,216.63c0,1.76-1.62,2.7-3.58,2.7s-3.58-.88-3.58-2.7a3.32,3.32,0,0,1,3.58-3.17,3.37,3.37,0,0,1,3.58,3.17"/></g><g class="cls-20"><rect class="cls-8" x="197.71" y="219.53" width="1.28" height="7.56"/><path class="cls-8" d="M200.41,215.75c0,2.84-.95,5.07-2.1,5.07s-2.09-2.3-2.09-5.07.95-4,2.09-4,2.1,1.15,2.1,4"/><path class="cls-8" d="M201.89,216.63c0,1.76-1.62,2.7-3.57,2.7s-3.58-.88-3.58-2.7a3.32,3.32,0,0,1,3.58-3.17,3.36,3.36,0,0,1,3.57,3.17"/></g><g class="cls-21"><rect class="cls-22" x="95.01" y="101.77" width="17.57" height="24.02"/></g><g class="cls-23"><rect class="cls-24" x="114.96" y="101.77" width="4.39" height="23.08"/></g><g class="cls-25"><rect class="cls-26" x="120.53" y="107.7" width="18.6" height="18.22"/></g><g class="cls-27"><rect class="cls-28" x="139.49" y="107.7" width="18.68" height="18.22"/></g><g class="cls-29"><rect class="cls-30" x="160.44" y="107.57" width="21.86" height="17.41"/></g><g class="cls-2"><path class="cls-8" d="M84.8,96.51a5.6,5.6,0,1,1-5.81,5.6,5.7,5.7,0,0,1,5.81-5.6"/><path class="cls-18" d="M73.05,106.76a4.53,4.53,0,1,1-4.65,4.52,4.59,4.59,0,0,1,4.65-4.52"/><path class="cls-4" d="M84.31,113.52a3.17,3.17,0,1,1-3.09,3.32,3.2,3.2,0,0,1,3.09-3.32"/><polygon class="cls-5" points="86.3 80.74 86.71 82.82 87.22 80.83 90.13 70.93 91.16 70.93 94.03 80.83 94.53 82.84 94.98 80.74 97.4 70.93 98.57 70.93 95.12 84.36 94.03 84.36 90.99 73.86 90.65 72.53 90.32 73.86 87.2 84.36 86.11 84.36 82.68 70.93 83.84 70.93 86.3 80.74"/><path class="cls-5" d="M104.07,84.55a4.28,4.28,0,0,1-3.9-2.38,5.45,5.45,0,0,1-.57-2.51v-.4a5.76,5.76,0,0,1,.56-2.59,4.43,4.43,0,0,1,1.55-1.81,3.86,3.86,0,0,1,2.16-.66,3.59,3.59,0,0,1,2.88,1.24,5,5,0,0,1,1.07,3.39v.61H100.7v.22a4.19,4.19,0,0,0,1,2.83,3.12,3.12,0,0,0,2.45,1.13,3.51,3.51,0,0,0,1.56-.33,3.3,3.3,0,0,0,1.23-1l.7.52a4,4,0,0,1-3.54,1.77m-.2-9.41a2.76,2.76,0,0,0-2.1.91,4.27,4.27,0,0,0-1,2.45h6v-.12A3.64,3.64,0,0,0,105.9,76a2.55,2.55,0,0,0-2-.9"/><rect class="cls-5" x="110.1" y="70.19" width="1.11" height="14.17"/><path class="cls-5" d="M117.89,83.61a2.9,2.9,0,0,0,1.94-.65,2.26,2.26,0,0,0,.84-1.68h1.06a3.16,3.16,0,0,1-.57,1.67,3.57,3.57,0,0,1-1.4,1.17,4.24,4.24,0,0,1-1.87.43,3.85,3.85,0,0,1-3.11-1.37,5.49,5.49,0,0,1-1.15-3.67v-.33a6.11,6.11,0,0,1,.52-2.61,4,4,0,0,1,1.48-1.76,4.08,4.08,0,0,1,2.25-.61,3.85,3.85,0,0,1,2.71,1,3.59,3.59,0,0,1,1.14,2.58h-1.06a2.73,2.73,0,0,0-.84-1.89,3,3,0,0,0-4.27.36,4.86,4.86,0,0,0-.82,3v.32a4.76,4.76,0,0,0,.82,3,2.76,2.76,0,0,0,2.33,1.07"/><path class="cls-5" d="M123.33,79.22a5.89,5.89,0,0,1,.55-2.59,4.31,4.31,0,0,1,1.58-1.79,4.23,4.23,0,0,1,2.31-.64A4.1,4.1,0,0,1,131,75.59a5.39,5.39,0,0,1,1.24,3.71v.23a5.94,5.94,0,0,1-.56,2.6,4.17,4.17,0,0,1-1.57,1.79,4.32,4.32,0,0,1-2.32.63,4.1,4.1,0,0,1-3.22-1.4,5.36,5.36,0,0,1-1.24-3.7Zm1.1.31a4.54,4.54,0,0,0,.93,2.94,3.13,3.13,0,0,0,4.85,0,4.68,4.68,0,0,0,.93-3v-.22a5.1,5.1,0,0,0-.42-2.09,3.5,3.5,0,0,0-1.19-1.47,3.06,3.06,0,0,0-1.76-.52,2.92,2.92,0,0,0-2.4,1.16,4.63,4.63,0,0,0-.94,3Z"/><path class="cls-5" d="M135.52,74.38l0,1.62a3.71,3.71,0,0,1,1.38-1.35,3.84,3.84,0,0,1,1.85-.45,2.81,2.81,0,0,1,3,1.93,3.64,3.64,0,0,1,1.43-1.43,3.88,3.88,0,0,1,2-.5c2.14,0,3.23,1.16,3.27,3.5v6.66h-1.1V77.78a3,3,0,0,0-.58-2,2.34,2.34,0,0,0-1.85-.64,2.9,2.9,0,0,0-2,.77,2.69,2.69,0,0,0-.91,1.83v6.6H140.9V77.7a2.78,2.78,0,0,0-.6-1.91,2.43,2.43,0,0,0-1.84-.63,2.78,2.78,0,0,0-1.79.59,3.57,3.57,0,0,0-1.1,1.77v6.84h-1.11v-10Z"/><path class="cls-5" d="M155.12,84.55a4.28,4.28,0,0,1-3.9-2.38,5.45,5.45,0,0,1-.57-2.51v-.4a5.9,5.9,0,0,1,.56-2.59,4.43,4.43,0,0,1,1.55-1.81,3.86,3.86,0,0,1,2.16-.66,3.59,3.59,0,0,1,2.88,1.24,5,5,0,0,1,1.07,3.39v.61h-7.12v.22a4.19,4.19,0,0,0,1,2.83,3.12,3.12,0,0,0,2.45,1.13,3.51,3.51,0,0,0,1.56-.33,3.41,3.41,0,0,0,1.24-1l.69.52a4,4,0,0,1-3.54,1.77m-.2-9.41a2.76,2.76,0,0,0-2.1.91,4.2,4.2,0,0,0-1,2.45h6v-.12A3.64,3.64,0,0,0,157,76a2.54,2.54,0,0,0-2-.9"/><path class="cls-5" d="M167.33,71.83v2.55h2.07v.9h-2.07v6.66a2.08,2.08,0,0,0,.3,1.24,1.16,1.16,0,0,0,1,.41,7,7,0,0,0,.89-.09l0,.89a3.68,3.68,0,0,1-1.18.16,2,2,0,0,1-1.65-.66,3.07,3.07,0,0,1-.52-1.94V75.28h-1.83v-.9h1.83V71.83Z"/><path class="cls-5" d="M170.89,79.22a5.9,5.9,0,0,1,.56-2.59,4.2,4.2,0,0,1,3.89-2.43,4.11,4.11,0,0,1,3.23,1.39,5.43,5.43,0,0,1,1.23,3.71v.23a5.8,5.8,0,0,1-.56,2.6,4.1,4.1,0,0,1-1.57,1.79,4.32,4.32,0,0,1-2.32.63,4.12,4.12,0,0,1-3.22-1.4,5.36,5.36,0,0,1-1.24-3.7Zm1.11.31a4.59,4.59,0,0,0,.92,2.94,3.14,3.14,0,0,0,4.86,0,4.74,4.74,0,0,0,.92-3v-.22a5.1,5.1,0,0,0-.42-2.09,3.42,3.42,0,0,0-1.19-1.47,3,3,0,0,0-1.75-.52,2.92,2.92,0,0,0-2.41,1.16,4.68,4.68,0,0,0-.93,3Z"/><path class="cls-31" d="M202.87,8.32H47.43a37,37,0,0,0-37,37V435.7a37,37,0,0,0,37,37H202.87a37,37,0,0,0,37-37V45.29a37,37,0,0,0-37-37m29.76,428.17a29,29,0,0,1-29,29h-157a29,29,0,0,1-29-29v-392a29,29,0,0,1,29-29h157a29,29,0,0,1,29,29Z"/><path class="cls-32" d="M202.87,8.32H47.43a37,37,0,0,0-37,37V435.7a37,37,0,0,0,37,37H202.87a37,37,0,0,0,37-37V45.29A37,37,0,0,0,202.87,8.32Zm29.76,428.17a29,29,0,0,1-29,29h-157a29,29,0,0,1-29-29v-392a29,29,0,0,1,29-29h157a29,29,0,0,1,29,29Z"/><path class="cls-33" d="M203.27,11.93H47a33,33,0,0,0-33,33V436.1a33,33,0,0,0,33,33H203.27a33,33,0,0,0,33-33V44.9a33,33,0,0,0-33-33m28.08,422.74a27.18,27.18,0,0,1-27.19,27.18H46.53a27.18,27.18,0,0,1-27.18-27.18V45A27.18,27.18,0,0,1,46.53,17.85H204.16A27.19,27.19,0,0,1,231.35,45Z"/><path class="cls-34" d="M203.27,11.93H47a33,33,0,0,0-33,33V436.1a33,33,0,0,0,33,33H203.27a33,33,0,0,0,33-33V44.9A33,33,0,0,0,203.27,11.93Zm28.08,422.74a27.18,27.18,0,0,1-27.19,27.18H46.53a27.18,27.18,0,0,1-27.18-27.18V45A27.18,27.18,0,0,1,46.53,17.85H204.16A27.19,27.19,0,0,1,231.35,45Z"/><path class="cls-35" d="M203.66,15.53h-157a29,29,0,0,0-29,29v392a29,29,0,0,0,29,29h157a29,29,0,0,0,29-29v-392a29,29,0,0,0-29-29m21.76,46.15V436.46a26.51,26.51,0,0,1-3.15,12.77c-2.48,4.51-6.77,9-14,9H40.58c-7.21,0-11.5-4.51-14-9a26.51,26.51,0,0,1-3.15-12.77V41.68c0-8.11,4.51-13.07,9-16a24.53,24.53,0,0,1,13.4-3.84h20a1.72,1.72,0,0,1,1.72,1.67c.14,4.15,2.33,14.56,11.72,14.56h90.17c9.39,0,11.58-10.41,11.72-14.56A1.72,1.72,0,0,1,183,21.84h20a24.47,24.47,0,0,1,13.39,3.84c4.51,2.93,9,7.89,9,16Z"/></g></g></g></g></svg>