<svg id="Icons" xmlns="http://www.w3.org/2000/svg" width="40" height="40" viewBox="0 0 200 200"><title>MHM-Icon</title><path id="Email" d="M30.08,111.79c.57,13.45,3.73,27.58,10.21,39.45s20.55,17.68,33.51,18.61c14.08,1,28.41-3.1,38.53-13.19,1.58-1.57-6.11.19-8,.83A61.26,61.26,0,0,1,87.65,161c-5.37.34-20.2-2.52-27.35-9.44-3.93-3.8-10.1-13.14-12.12-18.23-2.74-6.94-5.35-22.13-4.6-29.49.87-8.57,6.92-28.58,14.57-37.53,7.4-8.66,23.68-18.12,31.34-21.14,7.45-2.93,25.23-3.92,35.42-1.28,10.69,2.77,26,17,29.11,26.28C158,82,157.07,104,153.25,114.39c-1.65,4.47-8,12.76-12.51,14.36-2.52.9-8.24,1.42-10.5.09-1.81-1.07-3.9-5.61-4.23-7.26-.61-3.08,2.52-16.37,2.9-18.78C129.74,97.44,131,90.55,133,87c1.08-2,5.31-6.47,1.39-9-3-1.94-6.87-1.48-8.62,1.16-3.9-4.48-9.91-5.87-15.48-7.27C104,70.21,97,70.05,91,73c-11.58,5.72-18.48,18.11-20.45,30.53s.22,24,11.29,31.45c11.94,8.09,27.14,5.1,37-4.76,4.26,8.55,13.91,10.52,22.53,7.76a39.14,39.14,0,0,0,22.19-19.15c9-17,8.74-42.29-1.15-58.8-5.26-8.78-11.3-17-20.39-22.12a57.24,57.24,0,0,0-26.16-7.83c-20.38-1-41.46,7.76-57.2,20.26C50.27,57,40.75,66.81,36.77,76.86c-4.07,10.27-7.31,23.81-6.69,34.93Zm60-21.6c3.36-4.36,12.3-11,18-9.78,4.37.94,8.46,3.39,10.64,6.81,2.36,3.71-.46,6.59-1.49,10.6a132.64,132.64,0,0,0-2.65,15c0-.16,0,8-1.74,10.23-1.9,2.52-4,5.18-6,6-5,2-17.8-1.25-20.48-5.88C80.73,113.49,84.68,97.17,90.06,90.19Z" style="fill:#2a2722"/></svg>