<svg id="Icons" xmlns="http://www.w3.org/2000/svg" width="40" height="40" viewBox="0 0 200 200"><title>MHM-Icon</title><g id="Linkedin"><path d="M162.27,133.12c-.4-9.25.09-18.37-.93-27.58-.88-7.94-2.45-16.17-9.17-22.15a41.31,41.31,0,0,0-24.45-10.25c-9-.81-24.69,4.09-31.27,12.49,0-2.65,1.38-9.5-1.75-10.91-2.85-1.29-.88-1.12-4-1-2.71.14-7.93-.29-9.87,1.5-.73.68-1.54,7.08-1.61,9.11-.5,14.56.89,29.08.32,43.64-.29,7.38-1.63,23.68-1.44,26.89.23,4-.06,3.53,4.69,3.33,4.24-.17,11.29,1.64,13.06-1,1.33-2,.28-9.86.41-15.56.2-8.73.06-26.94,0-35.67,0-5.59,15.5-14.81,25-14.81,12.45,0,19.06,6.89,21.74,11.36,3,5,2.52,14.51,2.64,19.92.27,12.4.86,22.78.91,35.17,0,0,11.8,2.81,13.66.64s1.6-1.06,2.18-4.69C163.43,146.82,162.56,139.9,162.27,133.12Z" style="fill:#2a2722"/><path d="M39.57,58.91c4.06,5.1,12.32,4.6,16.67.07a11.3,11.3,0,0,0,3.07-7.28,8.21,8.21,0,0,0-.6-3.73c-.26-.6-.74-1.11-1-1.7l-.66-.76a1.07,1.07,0,0,0,.11-1.13c-1.16-2.29-5.84-3.57-8.38-3.58a11.18,11.18,0,0,0-9.22,18.11Z" style="fill:#2a2722"/><path d="M56,126.91c-.86-14.32-.52-35.59.28-49.93l-17.9-1.44c-.73,5.25-.08,30.67-.24,36.08-.23,7.85.49,15.47.64,23.3.1,5.45-2.18,20.6.42,22.8s6.12.37,9.66.53c5.58.25,7.35,2.24,7.42-.37C56.51,148.31,56.69,137.14,56,126.91Z" style="fill:#2a2722"/></g></svg>