<svg id="Icons" xmlns="http://www.w3.org/2000/svg" width="40" height="40" viewBox="0 0 200 200"><title>MHM-Icon</title><g id="Medium"><path d="M66.37,169.62c-1.64,0-6.26-.8-26.4-11.69-10.62-5.75-19.26-11.5-21.16-13.53l-.6-.65-.16-.87c-1.52-8.34-1.36-101.82.18-108.72a3.65,3.65,0,0,1,2.29-2.75c4.37-1.76,13.29-.22,48.65,22.76l2.56,1.65.94.59L73,57.48c1.5,4.85,1.49,28.59,0,54h0c-1.07,18.05-1.71,30.59-2.13,38.89-.77,15.25-.84,16.5-1.75,17.86l-.83,1.24-1.49.09ZM23.82,140.86a152.73,152.73,0,0,0,19,11.78C55.24,159.37,61.28,162,64.13,163c.19-2.57.42-6.94.72-12.87.42-8.31,1.06-20.86,2.13-38.94,1.51-25.46,1.3-45.62.48-50.95l-1.57-1c-29.31-19-38.9-22.14-42-22.34C22.8,49.49,22.72,129.4,23.82,140.86Z" style="fill:#2a2722"/><path d="M178.23,57.11,173.15,67c.37,8.22.88,86.18-.34,95.49-8.59-2.62-90-45.65-99.85-50.93l-.31,5.36,59.11,31.72c3.62,2,33.6,19.3,43,20.43l3.17-2C179.49,162.78,178.23,57.11,178.23,57.11Z" style="fill:#2a2722"/><path d="M72.66,56.42l55.25,87.64L119,140.78s-46.37-67.67-46.36-76Z" style="fill:#2a2722"/><path d="M177.43,56.38c-2.36-3.9-10.31-9-23.63-15.09a144.45,144.45,0,0,0-28.16-9.08c-4.66,1.86-16.93,18.68-36.45,52l3.65,5.52c19.73-33.52,32.05-48.82,34.88-51.21,2.9.46,9.58,2.34,23.35,8.65,12.59,5.78,17.62,9.41,19.6,11.23l-47.24,78.5,4.31,7.23L178.42,58Z" style="fill:#2a2722"/></g></svg>