<svg id="Icons" xmlns="http://www.w3.org/2000/svg" width="40" height="40" viewBox="0 0 200 200"><title>MHM-Icon</title><g id="Layer_5" data-name="Layer 5"><path d="M179.07,82.81a59,59,0,0,0-16-34.86c-1.09-1.18-3.23-.33-4.4-1.45-.79-.76-.61-3.5-1.44-4.22a91.24,91.24,0,0,0-9.74-7.39C128.46,22.27,100.67,18.82,84.8,21.19a53.89,53.89,0,0,0-8,2c-1.64.52-.34,2.11-2.08,2.76s-6.28.27-7.92,1c-6.78,2.86-13.38,6.29-17.28,9.19-6.89,5.12-18.31,18.51-22.3,26.11-3.23,6.14-6.33,16.93-7,26.75-.12,1.74,2.84,3.44,2.89,5.09s-2.91,3.45-2.87,5.24c.22,8.67.64,18.15,3.7,26a88.46,88.46,0,0,0,18.84,29.09c1.3,1.35,5.65-.35,7,.91s-.2,5.47,1.25,6.64a80.77,80.77,0,0,0,15.41,9.77,96.09,96.09,0,0,0,41.23,7.77,67.06,67.06,0,0,0,23.26-5c2.07-.83,3.11-5.76,5.12-6.75s3,3.93,4.93,2.78c3.17-1.86,8.25-5.89,11.24-8,16.41-11.81,24.06-31,26.52-50.75.13-1-2.76-4-2.66-5,.12-1.22,3.22-2.44,3.3-3.67A112,112,0,0,0,179.07,82.81Zm-98-53.75a127.9,127.9,0,0,1,16.8-2.59c5.19-.29,14.56,1.16,19.64,2.19,11.2,2.27,27.26,9.43,34.92,18.35,2.45,2.85-17.52,17.24-21.92,19.75-4.7,2.68-12.25,6.48-17.72,7.53-1.91-6.43-10.07-19-14.16-24.18C94.17,44.43,80.17,29.33,81.1,29.06Zm-31.69,15c4.68-4.48,20.26-13.64,22.84-11.79,5.45,3.89,15,15,18.36,20.14a115.92,115.92,0,0,1,7.24,11.53c.54,1.08,6.45,11.31,6.35,12.11-.62,4.87-16.91,7.1-21,8-9.16,2-20.75,2.94-30.09,3.6-3.74.26-25.93,3.62-26.37,1.49C23.72,75.34,39.61,53.44,49.42,44.06Zm.46,104c-3.63,2.39-6.4-4.53-9.52-7.66-8-8.08-13-19.26-12.51-30,.18-4-2.22-9.82.74-12.25,2.36-1.94,11.56-2.92,14.77-2.94a247.55,247.55,0,0,0,27.16-2.11C81,91.89,90,90.92,100.14,87.23l9.79-3.55c1.47,2.65,7.38,14.26,7.14,18,0,0-13.28,4.5-16.95,6.06-4.72,2-20.5,12.05-24.61,15.21-3.37,2.59-7,4.84-9.71,8.16C62.45,135,54.23,145.21,49.88,148.08ZM130,167.9c-1,2.84-24.22,6.88-32.07,5.84-8.9-1.18-19.3-3-27.16-7.29-3-1.67-12.65-6.44-14.87-9-1.94-2.2,2.44-6.55,3.36-8.06.08-.13,5.67-6.42,8.38-9.32,3.3-3.54,7.08-6.55,10.7-9.76,7.18-6.35,14.57-11.9,23.56-15.68,2.39-1,14.78-6.8,17.33-6.48.88.11,3.83,12,4.89,14.76,3.32,8.46,4.13,17.85,5.3,26.87C129.87,153.7,131.27,164.05,130,167.9Zm36.65-33.65a82.55,82.55,0,0,1-14.53,20c-2,2-10.54,9-12.8,7.69s-2.3-14.57-2.76-16.82c-1-4.84-2.13-9.63-3.37-14.41-1.08-4.18-2-9.93-4-13.76-1.29-2.46-2.66-10.11-2.66-10.11S148.76,105,152,105c3.47.06,18.49,1.81,20.7,6.25C174.59,115,168.25,131,166.62,134.25Zm7.48-33.16c-3.3,1.74-14.75-1.68-18.47-2.22-5.49-.9-29.42,1.57-30.62.74-1.79-1.24-3.58-6.72-4.18-7.77-.79-1.39-3.89-8.89-3.77-10.3,0,0,11.66-5.13,15-6.84a81.26,81.26,0,0,0,12.81-8.84s12.89-11.76,15.2-12.42c0,0,4.8,5.93,6.51,8.48,4,6,5.5,14.35,7.08,21.26C174.5,87.16,176.16,100,174.1,101.09Z" style="fill:#2a2722"/></g></svg>