<svg id="Icons" xmlns="http://www.w3.org/2000/svg" width="40" height="40" viewBox="0 0 200 200"><title>MHM-Icon</title><path d="M141.35,168.92s-61.46,2.43-82.13,0c-15.38-1.81-28.09-12.61-28.09-28.1L30,58.1c0-15.49,13.73-27.53,29.22-27.53l82.7-.56A28.12,28.12,0,0,1,170,58.1l-.56,82.73A28.12,28.12,0,0,1,141.35,168.92ZM59.22,41.32c-7,0-15.77,9.73-17.9,16.77,0,0-.51,43,0,57.29.25,6.38,2.21,25.43,2.21,25.43,0,7,8.6,16.77,15.64,16.77,0,0,19.78.6,40.78.46,15.37-.1,31.39-1.13,40.79-.46,7,.5,16.18-9.73,16.2-16.77,0-7.67,1.8-21,1.9-34.81.16-23.36-.21-47.91-.21-47.91,0-7-12.55-16.77-19.59-16.77Z" style="fill:#2a2722"/><path d="M99.2,133.46c-17.65,0-32.57-14.37-32.57-32s14.92-32,32.57-32a32.06,32.06,0,0,1,32,32c0,12-6.62,23.23-16.39,28.67C110.2,132.68,104.87,134.39,99.2,133.46Zm0-50.32c-10.39,0-18.84,7.9-18.84,18.29s8.54,19.67,18.84,18.29c12-1.6,18.84-7.9,18.84-18.29S109.59,83.14,99.2,83.14Z" style="fill:#2a2722"/><path d="M146.65,67A7.61,7.61,0,0,1,139,74.59c-4.2,0-8.38-3.41-8.38-7.61s4.17-8.38,8.38-8.38S146.65,62.78,146.65,67Z" style="fill:#2a2722"/></svg>