<svg id="Draw_Layer" data-name="Draw Layer" xmlns="http://www.w3.org/2000/svg" viewBox="0 0 180 40"><title>Signature</title><path d="M38.27,7.08a27.59,27.59,0,0,0-3.43,3.06c-1.37,1.19-2.76,2.33-4.15,3.48-2.69,2.23-5.3,4.59-7.88,7s-5.21,4.66-7.84,7-5.21,4.9-8.39,6.25c-1.83.71-4.11,1-3.89-1.67a7.06,7.06,0,0,1,.46-1.64A12.31,12.31,0,0,1,4.47,28.2a14.52,14.52,0,0,1,2.12-2.11,27.36,27.36,0,0,1,4.7-2.77,35.17,35.17,0,0,1,4.14-1.92c-3.45,1.13-7,2.46-9.81,4.91-1.5,1.35-5.95,7.63-1.85,8.45,3.12.62,6.63-2.66,8.8-4.51,2.9-2.46,5.76-5,8.58-7.53-.16,2.32,4.36.13,5.13-.3-.76.81-1.48,1.64-2.19,2.5a10.44,10.44,0,0,0-1.95,2.64c-.95,2.81,3.93-.16,4.54-.6-.64.86-1.55,2.87.43,2.36,1.36-.34,2.63-1.82,3.62-2.77-.4.76-.69,1.69.54,1.75s2.48-1.48,3.21-2.29c-.2.31-1,1.08-.7,1.46s1.21-.91,1.42-1.11a15.32,15.32,0,0,1,2.87-2.12c-.36.5-2.61,3-1.81,3.6s2.61-1.61,3.15-1.95c-.61.7-1.68,2.63.18,2.4,1.21-.15,2.32-1.65,3.09-2.5-.71,2.77,2.46,1.41,3.63.41a8.19,8.19,0,0,1-1.31.7c-.54.32-1.84.52-2-.31-.1-.52,1.08-2.88-.45-1.52-.7.63-2,2.79-3.12,2.65-.69-.09-.22-.65,0-.92l.05-.06a10.62,10.62,0,0,1,1.32-1.47c.29-.27,1.39-1.1.33-1.15-.58,0-2,1.22-2.44,1.53-.62.45-1.18,1-1.82,1.41.27-.44,2.69-3.43,2.23-3.82s-3,1.59-3.38,1.89c.33-.53.52-1.33-.36-.95-.57.26-1.15,1.25-1.57,1.7s-2.47,2.59-2.86,1.6c-.25-.67,2.5-3,1.22-3.14-.35,0-1.93,1.91-2.27,2.24-.54.5-1.09,1-1.65,1.44-1.3,1-2.53,1.26-1.28-.52s3-2.52,5-3.27c.56-.21,1-.52.18-.63s-2.21.66-2.91,1c-1.91.95-3.37,2.65-5.37,3.48-2.84,1.23.18-2.26.71-2.9a35.44,35.44,0,0,1,5.82-5.6c2.18-1.67,4.27-3.44,6.42-5.14,1.08-.86,2.23-1.63,3.35-2.43.58-.41,1.17-.82,1.77-1.21.08-.06,1.43-.81.71-1s-2.54,1.47-3.12,1.88c-1.1.78-2.14,1.64-3.22,2.44-2.27,1.68-4.56,3.29-6.68,5.15-1.87,1.63-4.18,3.64-6.77,3.91-2.77.3.63-2.53,1.35-3.14,2.8-2.35,5.55-4.74,8.29-7.17,1.11-1,2.27-1.9,3.37-2.9l1.76-1.61c.2-.18.72-.5.83-.76,0-.1.38-.87-.15-.55ZM31.7,18.55Zm-7.14,4.14ZM21.68,23Zm.12.14Zm1.51,3.62Zm19.75.18Zm-6,0Zm0,0Zm6.09.08Zm.41.15Zm-16.4,0Zm9.31.1s0,0,0,0ZM31,27.41Zm.74.18Zm7.34,0Zm-8.13,0Zm8.17,0Zm-8.16,0Zm0,0Zm8.46.09Zm-.13,0ZM28.21,28Zm-5.68,0Zm1.27.05Zm-1.28,0Zm0,0c0,.06,0,0,0,0Zm0,0Zm0,0Zm4,.05Zm-3.92,0Zm0,0Zm3.75.5Zm.06.07s0,0,0,0Zm0,0ZM10,31.7ZM2.67,33Zm.31.87Zm.51.38Zm1-6ZM45,26.89Zm-5.53-.14Z"/><path d="M44.52,16.32c-2.14,1.37-2.58,3.09-4.29,4.16A10.68,10.68,0,0,0,42.7,18.8c.68-.75,1.14-1.79,1.82-2.48Z"/><path d="M78.56,3.93c-4.91,5.69-9.73,11.49-14.51,17.28-2.21,2.67-4.26,5.47-6.27,8.3-1,1.42-2,2.85-3,4.26-.62.87-1.26,1.72-1.89,2.58a9.49,9.49,0,0,1-1.3,1.77,13.92,13.92,0,0,0,2.14-2.26,38.93,38.93,0,0,0,2.74-3.41c1.78-2.51,3.47-5.18,5.4-7.54,2.86-3.64,5.83-7.18,8.83-10.69,1.5-1.76,3-3.53,4.4-5.37.67-.88,1.32-1.77,2-2.67.42-.59,1-1.87,1.54-2.25Z"/><path d="M86.15,5.57c-1,.18-1.87,1.17-2.6,1.79-1,.85-2,1.69-2.92,2.58a58.62,58.62,0,0,0-4.16,4.33c-1.42,1.64-2.74,3.35-4.16,5A19.94,19.94,0,0,1,70,21.86a15.09,15.09,0,0,1-3.42,1.74,22.55,22.55,0,0,1-5.7,1.53,12.34,12.34,0,0,1-6.09-.41c4.22,2.42,10,.55,14-1.49-1.54,1.82-3.05,3.65-4.41,5.62-.61.89-1.19,1.81-1.73,2.76s-.95,2.53-1.65,3.23c2.06-3.11,4.21-6.16,6.48-9.12a36,36,0,0,1,2.49-2.9,14.54,14.54,0,0,1,2.77-1.92A57.12,57.12,0,0,0,79.33,16a38.55,38.55,0,0,0,5.12-5.56c.67-.87,1.32-1.76,1.93-2.68.4-.61,1.34-2.52-.23-2.23Zm.21.6c.4.08-1.69,3-1.89,3.23a41.71,41.71,0,0,1-3.58,4.27,50,50,0,0,1-9.06,7c2.39-2.74,4.6-5.65,7.11-8.28,1.24-1.29,2.58-2.5,3.92-3.69.77-.67,2.38-2.62,3.5-2.58Zm.12.09Z"/><path d="M119.75,10.39c-2.54,2-4.84,4.31-7.29,6.4-1.25,1.06-2.48,2.13-3.72,3.2-.89.78-2.54,2.65-3.85,2.62,0-.51.81-1.26,1.11-1.65.49-.62,1-1.23,1.47-1.87,1.11-1.46,2.16-2.91,3.37-4.29.45-.51,3-3.16,2.86-3.8-.23-.92-2.26,1.7-2.5,2-4.19,5.42-9.57,11.1-15.14,14.81-1.65,1.25-3.36,2.78-5.33,3.5-1.37.49-3,.29-1.72-1.37a15.67,15.67,0,0,1,2.17-2.13,38.2,38.2,0,0,1,3.28-2.26,13.47,13.47,0,0,1,2.94-1.81,25.82,25.82,0,0,0-7.8,4.81c-.64.62-2.13,2-1.46,3,.9,1.34,3.24.08,4.21-.47,5.57-3.24,10.32-8,14.83-12.56-.54.7-1.09,1.39-1.63,2.08-.39.49-1.14,1.15-1.23,1.79-.22,1.65,2,.3,2.56-.09a110.08,110.08,0,0,0,9-7.69c-3.6,3.58-7.33,7-10.13,11.25-.64,1-2.73,3.74-.16,3.83,2.19.07,4.64-2.17,6.18-3.48a1.08,1.08,0,0,0,.42,1.77c1.17.46,2.69-.52,3.59-1.15,1,2.15,5.12-2.11,5.84-2.83,2-2,4.18-4,6.17-6.07A36.4,36.4,0,0,1,124,22.47c-1.18,1.17-2.89,1.83-3.91,3.15-.23.3-.77.91-.18,1.15.39.17,1.47-1.06,1.76-1.31.79-.7,2.18-2.08,3.09-1.93.15,0,.39.28.3.16.64.88-.11,2.23.34,3.19s2,1.05,3,.82c-.17,2.06,3.21.63,3.9.21a22.6,22.6,0,0,0,5.26-4.74c-.62.88-3.32,4.25-.93,4.62,1.08.17,2.19-.78,3-1.34,1.13-.76,2.23-1.56,3.31-2.39.3.8,1.26.89,1.76,1.48s.21.39-.58.73c-.38.16-2,.46-2.08,1-.13.86,2.48.47,2.92.42a11.59,11.59,0,0,0,3.74-1.09c.73-.35.6-.18,1.26.1a2.79,2.79,0,0,0,1.49.11c2.08-.32,3.93-2,5.58-3.21-.37.78-.79,1.74.36,1.16a13.24,13.24,0,0,1,2.88-1.4,2.34,2.34,0,0,0,.66.08c1.11.58,1.83,1.68,3,2.19a5.91,5.91,0,0,0,4.3,0,41,41,0,0,0,8.52-4.48,31.59,31.59,0,0,1-4.73,2c-1.77.78-3.64,1.89-5.6,2.07s-2.9-.75-4.27-1.87-2.76-.69-4.22.12c.28-.64.06-1.09-.66-.94s-1.58,1.11-2.12,1.49c-1.16.83-3.56,2.86-5.12,1.88a12.33,12.33,0,0,0,3.2-2.64c.59-.73.51-1.52-.54-1.33a6.25,6.25,0,0,0-3.14,2.32,9.13,9.13,0,0,0-.56,1.2,2.82,2.82,0,0,1-1.1.7l-.09,0a10.08,10.08,0,0,1-3.44.81c1.39-.55,1.84-1.29.52-2.2-.26-.17-1.25-.61-1.25-.95,0-.53,1-.76,1.39-.93s1.25-.49.75-1-1.42.26-1.83.55c-1.35,1-2.67,2-4,3-.51.36-2.68,2.25-3.39,1.62s1.79-3.68,2.21-4.28c1.34-1.88,2.66-3.77,4.11-5.57.4-.49,1.66-1.53,1.75-2.14.17-1.23-1.17.17-1.43.45-3.36,3.67-6.15,8-10.1,11.08-.79.68-2.58,1.67-3.5,1.54-.18,0-.45-.26-.39-.13-.27-.54,2.49-2.1,3-2.59s2-1.82,1-2.53-2.53,1-3,1.6-.84,1.62-1.39,2.25a2.12,2.12,0,0,1-1.85.46l-.73-.29c-.89-.89.62-4.32-1.74-3.94a43.47,43.47,0,0,0,5.39-6.85c.19-.29,1.47-1.71.69-1.93-.53-.16-2.07,2.15-2.46,2.58-1.79,1.91-3.78,3.64-5.61,5.51-1,1-4.35,5.27-6.06,4.4-.23-.11.75-.85,1-1.05,1-.8,2.23-1.91,3-2.52.54-.39,1.75-1.09.34-1a6,6,0,0,0-3.24,1.83c-.65.63-1,1.5-1.65,2.13a5.37,5.37,0,0,1-3.15,1.42c-.06,0-.49-.16-.3-.07,0,0-.35-.23-.17-.1-.51-.49.86-1.78,1.14-2.11a20.34,20.34,0,0,1,1.47-1.6c.36-.36,1.7-1.12,1.85-1.59.41-1.35-2.27,1.1-2.53,1.33-1.34,1.17-2.65,2.36-4.06,3.46A11.08,11.08,0,0,1,105.82,29s-.87.11-.88-.39c-.1-.94,1.87-3.24,2.56-4.19a43.86,43.86,0,0,1,4.3-4.94c1.59-1.6,3.26-3.13,4.83-4.76.82-.85,1.61-1.73,2.4-2.6.24-.27,1.18-1,1.21-1.39s-.12-.67-.49-.38ZM107,21.5Zm-2,.93Zm-.06.17Zm0,.06Zm47.84,0Zm0,0a12.53,12.53,0,0,1-2.84,2.4,6.11,6.11,0,0,1,2.84-2.4Zm8,.65Zm-27.87,0Zm25.16,0Zm-25.26.05Zm0,0Zm.1,0c.16,0-.82,1.15-.94,1.28a9.23,9.23,0,0,1-2.23,1.8c.53-1,1.78-3.19,3.17-3.08Zm-8.08.1Zm.24,0Zm18.67.2s0,0,0,0Zm0,.09Zm.22.21Zm7.08.3Zm17.91.18Zm-4.56.37ZM130.57,25Zm36.1.15ZM145,25.69Zm.12.09Zm0,0c.07.09,0,0,0,0Zm0,0Zm-.09,0Zm5.06,0c.05,0,0,0,0,0Zm-24.13.4Zm10.49.24Zm-19.48.18Zm-4.73,0Zm24.21.11Zm-10.29,0Zm10.34.12Zm-10,.07Zm-14.31.15Zm0,0s0,.1,0,0Zm0,.07Zm1,.18Zm15.94.29Zm.25.33Zm.68.05ZM105,28.51Zm0,.32Zm.38.22ZM88.47,30.9Zm0,.19Zm.2.29Zm1.12.2Zm-.6,0Zm43.93-5Zm14.75-.38Z"/><path d="M120.07,17.18a2.63,2.63,0,0,0-2.13,2.69c0,.09,0-.28,0-.26,0-.23.06-.38.14-.43.62,0,1.37-1.49,2-2Z"/></svg>