<svg id="AlterEgo_Image" data-name="AlterEgo Image" xmlns="http://www.w3.org/2000/svg" viewBox="0 0 95.87 1408.11"><title>Arrow</title><polygon points="23.49 1342.93 27.15 1339.52 47.93 1357.58 68.72 1339.52 72.38 1342.93 47.93 1364.92 23.49 1342.93"/><path d="M49.21,1288.67a2,2,0,0,1,1.68.76,3.31,3.31,0,0,1,.61,2.13,5,5,0,0,1-.47,2.23H49.48a8,8,0,0,0,.5-1.35,3.86,3.86,0,0,0,.15-1,1.45,1.45,0,0,0-.21-.84.73.73,0,0,0-.62-.29.68.68,0,0,0-.42.13,1.29,1.29,0,0,0-.34.38,8.6,8.6,0,0,0-.53,1,5.06,5.06,0,0,1-.65,1.08,2.26,2.26,0,0,1-.73.58,2.1,2.1,0,0,1-1,.21A2,2,0,0,1,44,1293a2.92,2.92,0,0,1-.6-2,4.93,4.93,0,0,1,.14-1.17,9.69,9.69,0,0,1,.41-1.17l1.3.54a8.77,8.77,0,0,0-.36,1,3.27,3.27,0,0,0-.1.81,1,1,0,0,0,.22.72.7.7,0,0,0,.57.26.74.74,0,0,0,.38-.1,1.12,1.12,0,0,0,.32-.33,9.4,9.4,0,0,0,.55-1.06,4.34,4.34,0,0,1,1.06-1.51A2,2,0,0,1,49.21,1288.67Z"/><path d="M51.4,1280.52V1285H43.54v-4.52h1.37v2.86h1.72v-2.66H48v2.66h2v-2.86Z"/><path d="M51.4,1276.68H43.54V1275H50v-3.19H51.4Z"/><path d="M51.4,1263.75v4.52H43.54v-4.52h1.37v2.85h1.72v-2.66H48v2.66h2v-2.85Z"/><path d="M44.82,1256.57a1.71,1.71,0,0,0,.7,1.46,3.32,3.32,0,0,0,2,.51c1.75,0,2.63-.65,2.63-2a6.12,6.12,0,0,0-.42-2h1.4a5.51,5.51,0,0,1,.4,2.16,3.28,3.28,0,0,1-1,2.62,4.41,4.41,0,0,1-3,.91,4.86,4.86,0,0,1-2.15-.45,3.25,3.25,0,0,1-1.41-1.28,3.78,3.78,0,0,1-.49-2,5.28,5.28,0,0,1,.55-2.3l1.36.54a7.6,7.6,0,0,0-.37.89A2.7,2.7,0,0,0,44.82,1256.57Z"/><path d="M51.4,1247.67v1.66H44.93v2.14H43.54v-5.93h1.39v2.13Z"/><path d="M51.4,1237.61v4.52H43.54v-4.52h1.37v2.85h1.72v-2.66H48v2.66h2v-2.85Z"/><path d="M47.39,1227.25a3.83,3.83,0,0,1,3,1.11,4.46,4.46,0,0,1,1,3.18v2.23H43.54v-2.47a4.13,4.13,0,0,1,1-3A3.73,3.73,0,0,1,47.39,1227.25Zm0,1.73c-1.69,0-2.53.75-2.53,2.24v.88H50v-.71C50,1229.78,49.16,1229,47.44,1229Z"/><path d="M51.4,1210.72v1.9l-4.13,1.06c-.15,0-.45.11-.91.2a7.38,7.38,0,0,1-.93.16c.2,0,.51.08.93.17l.92.19,4.12,1.06v1.89l-7.86,2v-1.64l4.29-1c.79-.17,1.48-.3,2.06-.38-.21,0-.52-.07-1-.15s-.76-.15-1-.21l-4.4-1.15v-1.57l4.4-1.14c.2,0,.5-.12.9-.19l1-.18c-.28,0-.63-.09-1-.17l-1-.21-4.29-1v-1.64Z"/><path d="M47.46,1198.41a4.29,4.29,0,0,1,3,1,4.22,4.22,0,0,1,0,5.55,4.32,4.32,0,0,1-3,1,4.21,4.21,0,0,1-3-1,4.24,4.24,0,0,1,0-5.55A4.32,4.32,0,0,1,47.46,1198.41Zm0,5.73a3.28,3.28,0,0,0,2-.5,1.75,1.75,0,0,0,.67-1.49c0-1.33-.89-2-2.65-2s-2.65.66-2.65,2a1.75,1.75,0,0,0,.66,1.5A3.26,3.26,0,0,0,47.46,1204.14Z"/><path d="M48.38,1192.91h3v1.67H43.54v-2.29a3.9,3.9,0,0,1,.59-2.37,2.3,2.3,0,0,1,3-.38,2.46,2.46,0,0,1,.84,1.07l3.43-2.3v1.84l-3,1.88Zm-1.35,0v-.53a2.11,2.11,0,0,0-.26-1.17,1,1,0,0,0-.83-.38.87.87,0,0,0-.8.39,2.43,2.43,0,0,0-.23,1.19v.5Z"/><path d="M51.4,1178.8v1.89l-3.31,2.06.5.7H51.4v1.67H43.54v-1.67h3.6l-.93-.65-2.67-2.13v-1.85l3.48,2.74Z"/><path d="M49.21,1171a2,2,0,0,1,1.68.76,3.31,3.31,0,0,1,.61,2.13,5,5,0,0,1-.47,2.23H49.48a8.38,8.38,0,0,0,.5-1.35,3.86,3.86,0,0,0,.15-1,1.45,1.45,0,0,0-.21-.84.73.73,0,0,0-.62-.29.68.68,0,0,0-.42.13,1.29,1.29,0,0,0-.34.38,8.18,8.18,0,0,0-.53,1,5.5,5.5,0,0,1-.65,1.07,2.4,2.4,0,0,1-.73.58,2.1,2.1,0,0,1-1,.21,2,2,0,0,1-1.63-.7,2.92,2.92,0,0,1-.6-2,4.93,4.93,0,0,1,.14-1.17A9.69,9.69,0,0,1,44,1171l1.3.54a8.77,8.77,0,0,0-.36,1,3.21,3.21,0,0,0-.1.81,1,1,0,0,0,.22.72.7.7,0,0,0,.57.26.66.66,0,0,0,.38-.11,1,1,0,0,0,.32-.32,9.4,9.4,0,0,0,.55-1.06,4.19,4.19,0,0,1,1.06-1.5A2,2,0,0,1,49.21,1171Z"/><polygon points="45.44 1305.8 45.44 1359.3 50.44 1359.49 50.44 1305.8 45.44 1305.8"/><polygon points="50.44 1159.27 50.44 -7.32 45.44 -7.58 45.44 1159.27 50.44 1159.27"/></svg>