<?xml version="1.0" encoding="utf-8"?>
<!-- Generator: Adobe Illustrator 21.1.0, SVG Export Plug-In . SVG Version: 6.00 Build 0)  -->
<svg version="1.1" id="Layer_1" xmlns="http://www.w3.org/2000/svg" xmlns:xlink="http://www.w3.org/1999/xlink" x="0px" y="0px"
	 viewBox="0 0 309.6 148" style="enable-background:new 0 0 309.6 148;" xml:space="preserve">
<style type="text/css">
	.st0{fill:#E0E0E0;}
	.st1{fill:#80C6F3;}
	.st2{fill:#FFB625;}
	.st3{fill:#D6A049;}
	.st4{fill:#EDB150;}
	.st5{fill:#986845;}
	.st6{fill:#895E3E;}
	.st7{fill:#8A4301;}
	.st8{fill:#834001;}
	.st9{fill:#A14F02;}
	.st10{fill:#773701;}
	.st11{fill:#934403;}
	.st12{fill:#E8C39C;}
	.st13{fill:#E9B885;}
	.st14{fill:#5780BA;}
	.st15{fill:#5F8CCA;}
	.st16{fill:#5882BC;}
	.st17{fill:#4F74A8;}
	.st18{fill:#4C70A2;}
	.st19{fill:#D6CBA2;}
	.st20{fill:#C5BA95;}
	.st21{fill:#A5AD8F;}
	.st22{fill:#C9BF98;}
	.st23{fill:#D19C52;}
	.st24{fill:#AF8345;}
	.st25{fill:#F1CAA2;}
	.st26{fill:#8AE8BB;}
	.st27{fill:#80D8AE;}
	.st28{fill:#AA6E26;}
</style>
<title>MHM</title>
<g>
	<path class="st0" d="M174.8,18.8c-0.9,0.2-0.7,1.6-0.7,2.3c-0.1,1.8,0,3.5,0.1,5.2c0.2,2.6,0,5.1,0,7.7c0,0.9,0.2,1.9,0.2,2.8
		s0,1.8,0,2.8c0,1.7,0.1,3.3,0.2,5c0.1,3.2,0,6.3,0.1,9.4c0,0.7,0,1.5,0.1,2.2c0,0.8,0,1.6,0.1,2.4c-0.1,1.1-0.1,2.2,0.1,3.3
		c0.2,0.7,1.7,1.6,2.1,0.7c0.2-0.4-1.7-43.8-1.9-43.8C175.4,18.9,174.8,18.9,174.8,18.8L174.8,18.8z M176,85.3
		c-0.3,0.1-0.6,0.3-0.8,0.6c0,2.8-0.3,5.6-0.1,8.5c0.3,3,0.1,6,0.1,9c-0.1,5.9,0.1,11.8,0.1,17.7c0,1.5,0.1,3,0.1,4.4
		c0,0.7,0,1.4,0.1,2.1c0,0.3,0,0.6,0.1,0.9c0.1,0.1,0.4,0.1,0.6,0.1s0.6,0.2,0.7,0S177.1,85.1,176,85.3L176,85.3z"/>
	<path class="st1" d="M153.6,6c-0.3,0.5-2.4,131.9,1,135c1.4-0.9,2.8-1.6,4.2-2.3c2.5-1.1,4.9-2.3,7.2-3.7c1.5-0.7,3-1.6,4.4-2.5
		c0.5-0.4,0.4-0.7,0.4-1.3s0,0-0.1,0c0-3.3,0.3-6.5-0.1-9.7c-0.3-3.5-0.4-7.1-0.2-10.6c0.1-3.4-0.2-6.8-0.3-10.2
		c0-3-0.1-5.9-0.2-8.9c0-1.1,0-2.2-0.1-3.3c0-0.4-0.1-0.6,0.2-0.8c0.9-0.4,1.9-0.8,2.9-0.9c0.9-0.3,1.9-0.5,2.9-0.8
		c0.4,6.7,0.7,13.3,0.4,19.9c-0.1,2-0.1,9.5,0,11.2s0.2,7.2,0.3,8.2c0,0.5,0.3,3.3,0.2,3.5c1.6-0.8,3.3-1.8,4.8-2.7
		c0.9-0.5,1.8-1.1,2.7-1.7c0.2-0.1,0.4-0.3,0.6-0.5c0.3-0.2,0.5-0.6,0.6-0.9c0.1-0.1,0.4-97.3-0.5-98.2c-1.3-1.3-2.9-2.3-4.6-2.9
		c-1-0.5-2-1-2.9-1.5c-0.6-0.4-1.2-0.8-1.8-1.1c-0.5-0.2-0.4-0.4-0.6,0.1v2c0.1,1.7,0.2,3.4,0.1,5c-0.2,2.9-0.2,5.9,0.1,8.8V35
		c0.7,5.2,0.2,10.4,0.3,15.6c0.1,3.7,0,7.4,0.2,11.1c-1.2-0.4-2.4-0.7-3.7-1.1c-0.6-0.1-1.2-0.2-1.8-0.5c-0.4-0.4-0.2-2.4-0.2-3.1
		c0-3.1,0.1-6.3-0.1-9.4c-0.2-7.1-0.9-14.2-1-21.4c0-0.9-0.1-1.8-0.1-2.6s0-1.7-0.1-2.5c0-1.1,0-2.2-0.1-3.2c-0.1-0.9,0-1.8-0.1-2.7
		c-0.1-0.6-1.1-0.9-1.6-1.1c-1.7-0.9-3.3-1.9-4.9-2.9c-1.7-1.3-3.5-2.5-5.4-3.6c-0.5-0.3-1-0.5-1.6-0.8s-0.4-0.3-0.8-0.4
		C154.6,6.4,153.7,5.9,153.6,6L153.6,6z M168.5,14.8C168.6,14.8,168.6,14.8,168.5,14.8z M168.7,18.2L168.7,18.2L168.7,18.2
		L168.7,18.2z M175.9,20.1l0.2,1.1L175.9,20.1z"/>
	<path class="st2" d="M204.7,24.2c-1.9,0-3.8,0-5.7,0.1c-2.4,0.1-4.8,0.5-7.2,0.5c-1.8,0-3.6,0-5.4-0.2c-0.5-0.1-1-0.1-1.6-0.1
		c-0.2,0.1-0.1,2.8-0.1,3.5c-0.1,4,0.1,8.1,0.1,12.1v7.7c0,2.4,0.3,4.8,0.2,7.2c0,1.7-0.2,3.5-0.3,5.2c-0.2,3.2-0.2,6.4-0.2,9.5
		v12.4c0,5.6,0,11.1,0.2,16.7c0.1,4,0.3,7.9,0.4,11.9s-0.5,8-0.4,12.1c0,0.4,0,0.7,0.1,1.1c0.1,0.2,0.6,0.1,1.1,0.1
		c1.5-0.1,3-0.2,4.5-0.2c1.8,0,3.5-0.2,5.3-0.2c1.6,0,3.2,0.1,4.8,0.1c1.9,0,3.8,0.1,5.7,0.2c1.1,0,1.2-0.4,1.4-1.5s0.2-2.2,0.1-3.3
		c-0.2-5.3,0.1-10.6-0.1-15.9c-0.3-7.3-0.4-14.6-0.5-22c0-3.1-0.1-6.3-0.2-9.4c-0.1-4.2-0.5-8.4-0.5-12.7c0-1.6,0.1-3.2,0.4-4.8
		c0.3,0.2,0.4,0.7,0.5,1.1c0.4,1.1,0.8,2.2,1.2,3.3s0.8,2.2,1.2,3.3c1.2,3.1,2.5,6.1,3.7,9.2c1.6,4,2.5,8.1,3.8,12.2
		c1.2,3.8,2.8,7.4,4.1,11.2s2.5,7.4,3.9,11.2c1.1,3.1,2.5,6.2,3.6,9.4c0.5,1.5,1.1,3.1,1.6,4.6c0.2,0.6,0.5,1.1,0.7,1.7
		s0.5,1.9,1.1,2.3c0.4,0.1,0.8,0.2,1.2,0.2c0.9,0.1,1.9,0.2,2.8,0.2c1.8,0.1,3.5,0.1,5.3,0l4.1-0.1c1,0.1,2.1,0.1,3.1,0
		c0.3,0,0.5-0.2,0.5-0.5s0.1-0.5,0.2-0.8c0.2-0.8,0.5-1.7,0.9-2.4c1.1-3.2,2.6-6.2,3.6-9.4c0.6-1.9,1.1-3.8,1.8-5.7
		c0.7-1.9,1.3-3.4,1.9-5.2c1-3.1,2.1-6.1,3.3-9.1c1-2.7,2.2-5.4,3.3-8c1.3-3.2,2-6.5,3.5-9.6c1.5-3.3,2.5-6.8,3.7-10.1
		c0.8-2.1,1.4-4.2,2.4-6.2c0.2-0.4,1-2.4,1-1c0,1.2,0.1,2.3,0.1,3.4c0,4,0.2,8,0.1,11.9c-0.1,4.8-0.3,9.5-0.4,14.3
		c-0.1,2.5,0,5,0,7.5c0,4.8-0.5,9.6-0.4,14.5s0.2,9.6,0.2,14.5c0,0.4,0,0.9,0,1.3c0,0.3,0,0.7,0.1,1c0.3,0.2,1.1,0.1,1.4,0.1h2.1
		c1.7,0,3.5-0.1,5.2-0.2c3.2-0.1,6.3-0.2,9.5,0c1,0.1,1.9,0.1,2.9,0.2c0.4,0.1,0.8,0.1,1.2,0.1c0.2,0,0.5-0.1,0.7-0.1s0.4,0,0.5-0.1
		c0.5-0.2,0.4-1.7,0.4-2.1c0.1-1.2,0.2-2.4,0.2-3.6c0-4.2-0.4-8.3-0.5-12.4c-0.2-5.6,0.1-11.2-0.1-16.8c-0.1-4,0-7.9,0.2-11.8
		c0.1-2.9,0.2-5.7,0.2-8.6c0-2.5-0.2-4.9-0.2-7.4c0-4.6,0.4-9.3,0.4-13.9c0-3.4-0.1-6.9-0.1-10.3c0-2,0-4.1,0-6.1
		c0-1.2-0.1-2.4-0.1-3.6c0-0.4,0.2-1.6,0-1.9s-0.8-0.1-1.2-0.1c-2,0.1-4,0-5.9-0.1H286c-4.6,0-9.3,0-13.9,0.1
		c-2.3,0-4.6-0.1-6.9-0.4c-0.6-0.1-1.1-0.3-1.5,0.2c-0.6,1.1-1.2,2.2-1.6,3.4c-1.2,3-2.2,6.1-3.1,9.2c-0.8,2.7-1.5,5.5-2.1,8.2
		c-0.9,3.4-2,6.7-3.3,10c-1.4,3.8-3.2,7.5-4.6,11.3c-1.4,3.8-2.2,7.5-3.6,11.2c-0.6,1.6-1.3,3.1-1.8,4.7c-0.4,1.6-1,3.2-1.6,4.8
		c-0.7-1.9-1.4-3.7-2.1-5.6c-0.6-1.6-1.5-3.1-2.3-4.6c-1.3-2.8-2.2-5.7-2.9-8.7c-0.9-3.2-2-6.4-3.3-9.5c-1.5-3.6-2.7-7.3-3.8-11
		c-0.4-1.6-1-3.2-1.6-4.7c-0.8-2-1.8-3.9-2.6-5.8c-0.8-2-1.5-4.1-2.3-6.2c-0.5-1.3-0.9-2.6-1.3-3.9c-0.2-0.8-0.5-1.6-0.8-2.4
		c-0.2-0.7-0.3-0.9-0.9-1.1c-1-0.2-2.1-0.3-3.2-0.2c-1.3,0-2.7-0.1-4-0.1C208.7,24.2,206.8,24.1,204.7,24.2L204.7,24.2z"/>
	<path class="st0" d="M297.7,63.7c-0.9-0.1,0,0.1-0.9,0.2c-0.3,0-0.7,0.1-1,0.1c-0.6,0.2-0.6,0.5-0.9,0.9c-0.2,0.3-0.4,0.6-0.5,1
		c-0.1,0.6-0.3,0.5-0.6,0.9c-0.4,0.9-0.4,1.9-0.1,2.8c-0.9,0.1-1.3,1.1-2,1.5c-0.6,0.2-1.2,0.4-1.8,0.5c-0.3,0.2-0.6,0.3-1,0.3
		s-0.7,0-1,0.2c-0.5,0.3-0.7,0.6-1.4,0.6c-0.5,0-2.9-0.2-3.2,0.3s-0.2,1.8-0.3,2.5c0,0.5,0,1.1,0.1,1.6c0,0.6-0.3,1.3-0.4,2
		s0.1,1.4,0,2c0,1.3-0.1,2.6-0.3,3.9c-0.3,1.7-0.4,3.3-0.4,5v1.6c0,0.6,0.1,1.3,0.2,1.9c0.1,1.3-0.8,2.5-1.6,3.5
		c-0.4,0.5-0.6,1.2-0.7,1.8c-0.3,0.7-0.5,1.4-0.7,2.1c0,0.8,0.2,1.5,0.3,2.3s0,1.6,0,2.4c-0.2,1.4-0.2,2.8-0.1,4.1
		c0.1,0.9,0.2,1.8,0.2,2.7c0,1.2-0.3,2.3-0.3,3.5c0,1.1,0,2.2-0.1,3.4l-0.2,3c0,0.3-0.1,2-0.1,2.3c0,0.6,5.9,0,8.4,0.2
		s5.5-0.1,8.2,0.2c1,0,2,0,2.9-0.1c0.8-0.3-0.2-31.2-0.2-32.6c0.1-4.6,0.4-9.2,0.3-13.8c-0.1-4.4,0.1-8.9,0.1-13.3v-1
		c0-0.2-0.5-0.5-0.7-0.6C298,63.7,297.7,63.6,297.7,63.7L297.7,63.7z"/>
	<path class="st2" d="M22.4,5.7c-2.6,0.1-5.1,0.2-7.7,0.2s-5,0.5-7.5,0.7C6.3,6.7,5.4,6.7,4.6,6.7c-1.3,0-2.6,0.1-3.9,0
		c-0.3-0.1-0.1-0.4-0.4,0C0.1,7.2,0,7.7,0,8.1c-0.1,1.5-0.1,3-0.1,4.5c0,9.5-0.3,19.1-0.3,28.6c0,5.9,0.2,11.8,0.2,17.8
		c0,4.3,0.2,8.6,0.2,12.8c0.1,5.9-0.4,11.8-0.3,17.7c0.1,4.9,0.1,9.8,0.3,14.6c0.3,8.1,0.5,16.2,0.6,24.3c0,2.4,0,4.8-0.1,7.3
		c0,1-0.1,2.1-0.1,3.1c0,0.3,0,0.6,0,0.9c-0.1,0.3,0-0.1-0.1,0.4s0.1,0.4,0.4,0.4c4.3,0.6,8.8,0.1,13.2,0.1c3.2,0,6.3,0.1,9.5,0.1
		c1.9,0,3.8-0.3,5.8-0.3c0.4,0,0.8,0,1.2-0.1c0.5-0.3,0.6-0.4,0.5-0.7c-0.1-0.9-0.1-1.8-0.2-2.7c-0.2-5.3-0.1-10.6,0-15.9
		c0-5.9-0.1-11.8-0.1-17.6c0-7.2,0.1-14.4,0-21.6c0-4.6-0.2-9.2-0.3-13.9c-0.2-4.9,0-9.7,0.1-14.6c0-2.2,0-4.4,0.1-6.6
		c0.9,3,1.8,6,2.8,8.9c0.9,2.7,1.5,5.4,2.4,8.1c1.4,4.2,3.4,8.2,5.1,12.2c0.9,2.7,2,5.4,2.9,8.1c1,2.9,2.1,5.7,3,8.6
		c1.9,5.8,4.3,11.3,6.3,17c1.4,4,2.7,8.1,4.3,12.1c0.8,2.1,1.6,4.2,2.4,6.4c0.9,2.4,1.8,4.8,2.6,7.2c0.5,1.5,1,3,1.6,4.5
		c0.2,0.6,0.3,1.1,0.9,1.3c0.9,0.2,1.7,0.3,2.6,0.3c3.4,0.2,6.8,0,10.2-0.2c2.2-0.1,4.4-0.2,6.6-0.3H86c0.3,0,1.2-0.1,1.2-0.1
		c0.3,0.1,1.2-3.4,1.3-4c0.5-1.6,1.1-3.2,1.8-4.8c1.3-3.3,2.5-6.6,3.9-9.9c1.8-4.4,3.7-8.7,5.5-13c2-4.6,3.4-9.3,5.2-13.9
		c1.3-3.3,2.6-6.5,3.8-9.8c2.9-7.9,5.7-15.9,8.8-23.8c1.7-4.4,3.1-9,4.8-13.4c-0.1,7.1-0.1,14.3,0.4,21.4c0.4,4,0.5,8,0.4,12
		c-0.1,4.3-0.4,8.6-0.7,12.9c-0.4,5.4-0.5,10.7-0.4,16.1c0.1,4.5,0.1,8.9-0.2,13.4c-0.2,2.6-0.3,5.2-0.3,7.8c0,1.1,0.1,2.1,0.1,3.2
		c0,0.7-0.2,1.4-0.2,2.1s-0.1,1.8-0.1,2.2s-0.1,1.2,0.2,1.4s1.3,0.1,1.8,0.1c2.4,0,4.8,0.2,7.2,0.2c4.6,0.1,9.2-0.7,13.9,0
		c1.7,0.2,3.4,0.4,5.1,0.5c1.4,0.1,2.9,0.1,4.3-0.1c0.3,0,0.5,0,0.7-0.1c0.4-0.2-0.1-7.8-0.3-11.5c-0.1-1.5-0.1-3-0.1-4.5
		c-0.1-3.1-0.4-6.2-0.5-9.4c-0.1-5.6,0.1-11.1,0-16.6c-0.1-5.2-0.2-10.4,0-15.6c0.1-2.1,0.2-4.3,0.4-6.4c0.2-3.2,0.1-6.3,0.1-9.5
		v-7.5c0-3.6,0.1-7.1,0.1-10.7c0.1-4.6,0.3-9.2,0.2-13.8c-0.2-5.2-0.8-10.5-0.8-15.7c0-2.2,0-4.3,0.1-6.5c0.1-1.2,0.1-2.4,0.2-3.6
		c0-0.8,0-1.5,0.1-2.3c0-0.5,0-0.9,0-1.4c-0.6-0.1-1.2-0.2-1.8-0.2c-1.4,0.1-2.8,0.2-4.1,0.2c-1.8,0-3.5,0-5.3-0.1
		c-4.6-0.1-9.2-0.1-13.8,0.1c-1.9,0.1-3.8,0.1-5.7,0.2c-2.7,0.1-5.4,0.5-8.1,0.6c-1.7,0-3.4-0.1-5.1-0.3c-0.7,0-1.5,0-2.2-0.2
		c-0.1-0.1-0.8,0-0.8,0.2c-0.4,1-0.6,1.9-0.8,2.9c-1.1,4.2-2.5,8.3-3.6,12.5c-0.6,2.4-1.5,4.7-2.4,7c-1,2.7-1.8,5.3-2.7,8
		c-2.5,7.5-4.8,15-7.5,22.5c-1.5,4-2.9,8.1-4.4,12.1c-1.8,4.6-3.8,9.2-5.3,13.9c-0.8,2.4-1.7,4.8-2.6,7.2c-0.6-1.7-1.6-3.3-2.2-5
		c-0.5-1.5-1-2.9-1.5-4.4c-1.2-3.6-2.1-7.1-3-10.7c-1.1-3.8-2.5-7.5-4-11.1c-1.5-3.9-2.7-7.9-4.2-11.7c-1.2-3.2-2.5-6.3-3.7-9.5
		c-1.5-4.3-3-8.6-4.8-12.7c-0.8-1.8-1.5-3.6-2.2-5.4c-1-2.2-1.9-4.4-2.7-6.6c-0.8-2.5-1.6-5.1-2.4-7.6c-0.1-0.3-0.2-0.6-0.3-0.8
		c0-0.3-0.2-0.5-0.6-0.8c-0.9-0.9-2.3-0.6-3-0.6c-2.5,0.1-4.9-0.1-7.4-0.2C31.4,5.7,26.8,5.6,22.4,5.7L22.4,5.7z"/>
	<path class="st3" d="M292.4,70.1c-0.2,0.2,0.2,1.1,0.5,0.8S292.4,70.1,292.4,70.1z"/>
	<path class="st4" d="M293.1,70.8C293.1,70.8,293,70.8,293.1,70.8z M293,70.7L293,70.7L293,70.7z M293.9,70
		c-0.2-0.2-0.1-0.3-0.2-0.4c-0.3-0.1-0.4,0-0.3,0.1c-0.1-0.1-0.4-0.4-0.5-0.1v0.2c0,0-0.1-0.1-0.2-0.1v0.2c0,0.1-0.1,0-0.2,0
		s-0.1,0.2,0,0.2s-0.2,0-0.2-0.1c-0.2,0.2,0.6,0.9,0.8,0.9c0.4,0,0.7-0.3,0.7-0.7C293.9,70.2,293.9,70.1,293.9,70L293.9,70z
		 M292.6,70.2L292.6,70.2L292.6,70.2z"/>
	<path class="st5" d="M294.1,71.5c0-0.1,0-0.3,0-0.4c0-0.3,0.1-0.9-0.3-0.6c-0.2,0-0.3,0.1-0.5,0.1s-0.4,0.2-0.5,0.3
		c0.1,0.2,0.3,0.5,0.5,0.7c0.1,0.6,0.5,1.2,0.9,0.4C294.2,71.7,294.2,71.8,294.1,71.5L294.1,71.5z"/>
	<path class="st5" d="M293.9,70.4c0,0,0,0.3,0.1,0.2S294,70.4,293.9,70.4z"/>
	<path class="st6" d="M292.8,70.8c-0.1,0.2,0.6,1.2,0.9,1.3s-0.6-1.1-0.6-1.1S293,70.5,292.8,70.8L292.8,70.8z"/>
	<path class="st7" d="M298.8,93.9c-0.1,0-0.5,0.3-0.7,0.4s-0.6,6.5-0.6,6.8s-0.1,0.9-0.1,1.3v0.3c0,0.4-0.2,3.5-0.2,4
		c0,0.3-0.2,2.6-0.2,2.8s-0.4,4.3-0.4,4.4s-0.2,2.3-0.2,2.2c0,0.4-0.1,0.9-0.1,1.3c0,0.1-0.1,1.8-0.1,2c-0.1,0.9-0.2,3.6-0.2,3.6
		c-0.1,0.2,0,0.4,0.1,0.5s0.1,0.1,0.1,0.1c0.2,0.4,0.4-0.8,0.4-0.9c0.2-1.3,0.3-2.5,0.3-3.8c0.1-1.5,0.2-2.9,0.3-4.4
		c0.2-2.3,0.4-4.6,0.5-7c0.1-2,0.4-4,0.4-6c0-2.2,0.4-4.3,0.6-6.4C298.8,94.7,298.8,94.3,298.8,93.9z M292.5,93.9l-0.3,0.1
		c-0.2,0.1-0.4,0.3-0.6,0.4l-0.1,0.1c-0.1,0.2-0.1,1.6-0.1,2c-0.1,0.6-0.1,1.1-0.1,1.7s-0.4,3.7-0.5,4.3c-0.1,1.1-0.3,4-0.3,4.1
		c0,0.4-0.2,1.5-0.2,1.6c-0.1,0.5-0.1,1.1-0.1,1.6c-0.1,1-0.2,2.1-0.3,3.1v-0.1c-0.1,0.8-0.2,1.6-0.2,2.3c0,1.8-0.5,3.5-0.5,5.3
		c0,0.1,0,0.3,0,0.4c-0.1,0.8-0.2,1.6-0.3,2.4c-0.1,0.3-0.3,1.3-0.1,1.5c0.2,0,0.4,0,0.5-0.1c0-0.1,0.1-0.1,0.1-0.2
		c0.3-0.4,0.4-0.8,0.4-1.3c0.1-0.8,0.3-1.6,0.4-2.4c0.2-1.8,0.4-3.6,0.5-5.4c0.1-1.4,0.4-2.8,0.5-4.2v0.1c0.2-1.6,0.1-3.1,0.3-4.6
		v0.1c0-0.5,0.1-1,0.1-1.6v0.1c0-0.4,0-0.8,0.1-1.2v0.1c0-0.4,0.1-0.8,0.1-1.2v0.1c0-0.3,0-0.6,0.1-0.8v0.1c0.1-0.9,0.2-1.9,0.3-2.8
		v-1.2c0-0.3,0.1-0.5,0.2-0.8c0.1-0.6,0.2-1.4,0.3-2.1C292.7,95,292.6,94.5,292.5,93.9L292.5,93.9z"/>
	<path class="st8" d="M290.1,120c-0.3,0-0.2,0.9,0.2,0.8h2.8c0.6-0.1,1.3-0.1,1.9-0.1c0.2,0,0.6,0.2,0.8,0.1s0.4-0.9,0.1-0.9h-1.1
		c-0.6,0-1.1,0.1-1.7,0.1c-0.5,0.1-2,0-2.3,0C290.7,120,290.1,119.9,290.1,120L290.1,120z"/>
	<path class="st9" d="M299.4,101.8L299.4,101.8C299.4,101.8,299.5,101.8,299.4,101.8z M295.9,124.5L295.9,124.5L295.9,124.5
		L295.9,124.5z"/>
	<path class="st10" d="M299.1,94.2l-0.2-0.3c0,0.5,0,0.9-0.1,1.4l-0.1,0.4v0.2c-0.1,0.6-0.1,1.1-0.2,1.7v0.6l-0.3,2.2
		c-0.1,1-0.1,2.1-0.2,3.1c0-0.2-0.1,1.1-0.2,1.9c-0.1,1.2-0.2,2.4-0.2,3.6v-0.1c0,0.7-0.1,1.4-0.2,2.2V111l-0.1,1.5v-0.1
		c-0.1,0.7-0.1,1.4-0.2,2.2v-0.1v0.4c-0.2,1.4-0.4,3.7-0.4,4.1c-0.1,0.6-0.2,1.3-0.2,2c0,0.6-0.1,1.1-0.1,1.7v0.1
		c-0.1,0.3-0.1,0.5-0.1,0.8c0,0,0,0.1,0.1,0.1l0.1,0.1l0.1-0.2c0-0.1,0.1-1,0.1-1.1c0.1-0.4,0.1-0.9,0.2-1.3c0-0.4,0.1-0.9,0.1-1.3
		v0.1c0.2-2.4,0.5-4.8,0.6-7.2c0-0.4,0.1-0.8,0.1-1.2v0.1c0-0.6,0-1.2,0.1-1.7v0.1c0.1-1.4,0.3-2.8,0.4-4.2c0-0.7,0.1-1.3,0.1-2v0.1
		c0.1-1.1,0.2-2.2,0.3-3.4v-1.1c0.1-0.5,0.1-1.1,0.2-1.6l0.1-0.6c0-0.2,0-0.4,0.1-0.6s0.1-0.9,0.2-1.6
		C299.1,94.9,299.1,94.5,299.1,94.2L299.1,94.2z M293,94.9c0-0.3,0-0.3-0.1-0.4l-0.1-0.1h-0.2v0.1c0,0.2,0,0.4-0.1,0.5
		c0,0,0-0.4,0.1-0.5v1c0,0.4-0.2,0.7-0.2,1.1c0,0.1,0,0.2,0,0.4c-0.1,0.6-0.1,1.3-0.2,1.9v0.9c-0.1,0.9-0.2,1.8-0.2,2.6
		c-0.2,1.3-0.5,2.6-0.6,3.9c-0.2,2.2-0.4,4.4-0.6,6.6v-0.1c-0.2,1.9-0.5,3.8-0.6,5.8v0.4c-0.2,0.8-0.2,1.6-0.2,2.5v0.2
		c-0.1,0.3-0.1,0.5-0.1,0.8c0,0.5-0.1,1-0.3,1.4c-0.1,0.3-0.3,0.4-0.3,0.6c-0.2,0.1,0.3,0.2,0.3,0.1h0.1v-0.1
		c0.1-0.3,0.2-0.5,0.2-0.8c0-0.1,0-0.2,0-0.3c0.2-0.7,0.3-1.4,0.3-2.2v-0.1c0,0,0.1-0.7,0.1-1.1c0.1-0.6,0.2-1.2,0.2-1.8
		c0.1-0.9,0.1-1.7,0.2-2.6c-0.1,0.6,0.4-2.8,0.5-4v0.1c0.2-2.1,0.3-4.3,0.5-6.5v0.1c0.2-2,0.6-4,0.7-6v-0.1c0-0.2,0.1-0.5,0.1-0.7
		s0-0.1,0-0.1c0-0.1,0-0.2,0-0.2c0.1-0.5,0.2-0.9,0.2-1.4v-0.2c0.1-0.2,0.1-0.4,0.1-0.6v-0.5c0-0.2,0,0,0,0v-0.1
		C292.8,95.2,292.9,95.1,293,94.9L293,94.9z"/>
	<path class="st9" d="M295.1,128"/>
	<path class="st7" d="M305,126.3c-0.4-2.4-1.5-4.8-1.4-7.3c0-2.3-0.7-4.6-0.9-6.8c-0.3-2.7-0.9-5.3-1.2-8c-0.2-1.7-0.5-3.3-0.8-5
		c-0.1-1.5-0.4-2.9-0.9-4.3c-0.1-0.1-0.5-1.6-1-1.1c-0.1,0-0.2,0.1-0.3,0.1c-0.1,0.1-0.4,0.4-0.2,0.6s0.4,3.1,0.5,4.1
		c0,0.2,0.3,2.1,0.3,2.3c0,0.5,0.1,1,0.2,1.5c0-0.1,0.4,2.4,0.5,2.5s0.9,4.7,0.9,5s0.5,2.9,0.5,3.2c0,0.6,0.4,4.1,0.4,4.6v0.4
		c0.1,0.5,0.2,1,0.2,1.5c0,0.3,1.2,7.5,1.4,7.5c0.5,0.3,1,0.5,1.6,0.6C304.9,127.3,305,126.8,305,126.3L305,126.3z M297.3,126.8
		c-0.2-0.8-0.2-1.6-0.4-2.3c-0.1-0.3-0.2-0.6-0.3-0.9v-1.3c-0.1-1.1-0.3-2.1-0.5-3.1v0.1c0-0.3-0.1-0.6-0.1-0.9v0.1
		c-0.1-0.4-0.2-0.9-0.2-1.3v0.1c0-0.4-0.1-0.9-0.1-1.3v0.1c-0.1-0.6-0.1-1.2-0.2-1.8v0.1c-0.2-1.7-0.2-3.3-0.5-5.2v0.1
		c-0.2-1.6-0.5-3.1-0.7-4.7c-0.3-2-0.5-4-0.9-6c-0.1-0.9-0.4-1.8-0.6-2.6c-0.1-0.5-0.2-1.1-0.6-1.4c0-0.1-0.1-0.2-0.1-0.2
		c-0.3-0.1-0.6-0.1-0.9-0.1c-0.4,0.2,0.1,1.4,0.1,1.7c0.2,0.9,0.4,1.8,0.5,2.7c0,0.2,0.1,0.3,0.1,0.5c0,2,0.8,3.9,0.8,5.9
		c0,0.9,0.1,1.7,0.3,2.6v-0.1c0.1,1.2,0.3,2.3,0.5,3.5c0,0.6,0,1.2,0.1,1.8c0,0.1,0.2,1.3,0.2,1.8c0,0.1,0.3,3.4,0.5,4.6
		c0.1,0.7,0.7,4.2,0.8,4.8c0.1,0.6,0.1,1.3,0.2,1.9c0,0.7,0.1,1.5,0.2,2.2l0.2,0.1l0,0c0.3,0.2,0.7,0.4,1,0.5l0.5,0.2
		C297.3,128,297.3,127.4,297.3,126.8L297.3,126.8z"/>
	<path class="st8" d="M301.7,113.2c0.1-0.2,0.2-0.9-0.2-1c-1,0-1.9,0.1-2.9,0.2c-0.3,0-3.5,0.3-3.5,0.4c0.4,0,0.5,0.8,0.2,0.9
		c0.6,0,1.2,0,1.7-0.1c1.5-0.2,3,0,4.4-0.2 M302.8,121.5c0-0.7-0.6-0.5-1.1-0.4c-0.4,0-2.1,0.3-2.5,0.3l-1.8,0.2
		c-0.3,0-0.9,0-0.9,0.4s0.2,0.5,0.1,0.6c0.2,0.2,0.7,0,1-0.1c0.4,0,0.8-0.1,1.2-0.1c1-0.1,2-0.2,3-0.3
		C302.3,122.2,303,122.2,302.8,121.5L302.8,121.5z"/>
	<path class="st11" d="M293.7,99.8c0.4,0.2,1.5,0,1.9,0c1.1-0.2,2.9,0,4-0.5c0,0-0.8-1.2-1.2-1.2c-1.1,0-2.2,0.1-3.3,0.4
		c-0.5,0-1.1,0.1-1.6,0.2C293.3,98.7,293.7,99.8,293.7,99.8L293.7,99.8z"/>
	<path class="st8" d="M296.2,117.9c0.7,0,2.4-0.2,2.5-0.2c0.3,0,3.6-0.5,3.6-0.4c0.4-0.1,0.1-0.7-0.1-1c-0.2-0.4-6.2,0.6-6.2,0.7
		C296.1,117.4,296.1,117.7,296.2,117.9L296.2,117.9z M300.4,108.6c0.5-0.1,0.6-0.1,0.6-0.1c0-0.3,0.1-0.9-0.2-1
		c-0.4-0.1-0.8-0.1-1.1,0l-0.5,0.1c-0.7,0.1-4.5,0.3-4.5,0.3c0,0.3,0.1,0.6,0.1,0.9C295.1,109.1,300.3,108.6,300.4,108.6
		L300.4,108.6z M294.3,104.8c0.8,0,1.6-0.2,2.3-0.3c0.1,0,3.1-0.4,3.7-0.5c0.3,0,0.1-1-0.2-1h-0.3c-1,0.1-2.1,0.3-3.2,0.4
		c-0.2,0-2.6,0.3-2.6,0.5s-0.2,0.8-0.2,0.8L294.3,104.8L294.3,104.8z M294.6,100.6c0.3,0,1.9-0.2,2.3-0.2c0.5-0.1,1.1-0.1,1.7-0.1
		c0.4-0.1,0.7-0.1,1.1-0.1c0.3-0.1,0-0.8-0.1-0.8c-0.3,0-0.6,0-0.9,0.1c-0.6,0.1-1.2,0.1-1.9,0.2c-0.9,0.1-1.9,0.1-2.8,0.3
		c-0.5,0-0.4,0.9-0.1,0.9C293.9,100.7,294.5,100.6,294.6,100.6L294.6,100.6z"/>
	<path class="st9" d="M303.9,119.9L303.9,119.9C303.9,120,304,120,303.9,119.9z M300.4,97.2L300.4,97.2L300.4,97.2L300.4,97.2z
		 M294.5,104.3c0,0.4,0.1,0.7,0.1,1C294.6,105,294.6,104.6,294.5,104.3z"/>
	<path class="st9" d="M305.1,126.3c-0.1-0.8-0.4-1.6-0.4-1.8s-0.1-0.5-0.2-0.7l-0.1-0.7c-0.1-0.6-0.2-1.2-0.4-1.9
		c0-0.4-0.1-0.8-0.1-1.2c-0.2-1.3-0.5-2.6-0.6-3.8v0.1c-0.1-0.8-0.2-1.5-0.3-2.3c-0.2-1.6-0.6-3.2-0.8-4.8v0.1
		c-0.1-0.7-0.1-1.3-0.2-2v0.1c-0.1-0.5-0.1-0.9-0.2-1.4c-0.3-2.8-1-5.5-1.4-8.2v0.1c-0.1-0.5-0.2-1-0.3-1.5c0-0.5-0.2-1-0.4-1.5
		c-0.1-0.4-0.2-0.8-0.3-1.2c0-0.1-0.3-0.5-0.3-0.4c-0.1,0.1-0.1,0.2-0.2,0.3c-0.1,0-0.1,0.1-0.1,0.2c0.1,0.3,0.2,0.6,0.3,0.9v0.1
		c0.1,0.6,0.2,1.3,0.3,1.9c0.1,0.8,0.3,1.5,0.5,2.2c0,0.4,0.6,3.1,0.9,4.6c0,0.2,0,0.4,0.1,0.5v-0.1c0.1,0.8,0.3,1.6,0.4,2.5v-0.1
		l0.2,1.7v-0.1c0.1,0.8,0.2,1.6,0.4,2.5v-0.1c0.2,1.4,0.3,2.8,0.5,4.1c0.1,0.9,0.5,2.3,0.4,2.1c0.1,1.2,0.2,2.4,0.5,3.6l0.6,2.6v0.1
		v-0.1c0,0.2,0.1,0.5,0.1,0.7v-0.1v0.1c0.1,0.7,0.2,1.3,0.4,2v0.2l0.1,0.5c0.1,0.5,0.2,1.1,0.2,1.6l0,0l0.4-0.3
		C305.3,127.2,305.2,126.7,305.1,126.3L305.1,126.3z M297.7,127.9c0-0.1-0.1-0.3-0.1-0.4v-0.1v-0.1v-0.1c0-0.2,0-0.4-0.1-0.5
		c0-0.2,0-0.5-0.1-0.7v-0.3c0-0.5-0.1-1.1-0.3-1.6V124v-0.1c0-0.3-0.1-0.5-0.1-0.8v-0.2c-0.1-2.3-0.7-4.6-1-6.9v0.1
		c-0.3-2.4-0.4-4.9-0.7-7.4v0.1c-0.2-1.3-0.9-5.2-0.7-4.5c-0.1-1-0.2-2-0.3-3c-0.1-0.7-0.2-1.3-0.4-2c0-0.4-0.1-1.3-0.1-1.3v-0.1
		c0-0.8-0.2-1.7-0.5-2.5c0-0.1,0-0.2-0.1-0.3c0-0.3-0.1-0.6-0.3-0.9c0,0,0-0.1-0.1-0.1h-0.1c-0.1-0.1-0.7,0.1-0.4,0.2
		c0,0.2,0.3,0.4,0.5,0.6c0.2,0.5,0.3,1.1,0.4,1.6c0.1,0.3,0.1,0.6,0.2,0.9v0.2c0,0.9,0.1,1.9,0.3,2.8v0.5c0.2,2.2,0.6,4.4,0.9,6.6
		v-0.1c0.3,2.5,0.5,5,0.8,7.5c0.2,1.5,0.5,3,0.8,4.5c0.1,1,0.2,2,0.3,3l0.1,0.5c0,0.2,0,0.3,0.1,0.5v0.1c0.1,0.7,0.1,1.4,0.2,2.2
		v0.4c0,0.4,0.2,0.8,0.2,1.2c0,0.1,0,0.4,0.1,0.7c0,0.1,0,0.3,0,0.4c0-0.2-0.1-0.6-0.1-0.6c0,0.2,0,0.4,0.1,0.6v0.1h0.1
		c0,0.1,0.1,0.1,0.1,0l0.2-0.1C297.7,128.2,297.7,128.2,297.7,127.9L297.7,127.9z M296.8,125.5l-0.1-1.2v0.2
		C296.7,124.8,296.8,125.2,296.8,125.5L296.8,125.5z"/>
	<path class="st12" d="M293.6,72.8L293.6,72.8v-0.2V72.8z M294,72.6c0,0.1,0,0.2,0,0.2h0.1l0,0l0.1-0.1l0,0L294,72.6L294,72.6
		L294,72.6z"/>
	<path class="st12" d="M293.4,71.8c-0.1,0-0.1,0.1-0.1,0.2l0.1,0.1c0,0.1,0.1,0.2,0.2,0.4s0,0.1,0.1,0.2v0.1v-0.1v0.1h0.1
		c0,0,0,0,0-0.1c0.1,0,0.1-0.2,0-0.3v-0.1c0-0.1-0.1-0.2-0.1-0.2c0-0.1,0-0.2-0.1-0.2l0,0v-0.1C293.4,71.9,293.4,71.9,293.4,71.8
		l-0.1,0.1L293.4,71.8z"/>
	<path class="st13" d="M299.3,82.5c0-0.4-0.3-0.8-0.5-1.1c-0.2-0.4-0.3-0.7-0.4-1.1c-0.3-0.6-0.6-1.2-1-1.8l-0.2-0.1
		c0-0.1,0.1-0.2,0.1-0.3c0-0.2-0.1-0.4-0.1-0.5c-0.1-0.7-0.4-1.4-0.7-2c-0.3-0.6-0.9-1.1-1.2-1.7c-0.1-0.3-0.1-0.7-0.1-1v-0.1
		c0-0.1,0.1-0.2,0.1-0.3v-0.1v-0.1c-0.1-0.1-0.2-0.2-0.3-0.3l-0.1-0.1c0-0.1-0.1-0.1-0.2-0.2h-0.1c-0.1,0-0.1,0-0.2,0.1h-0.1
		c-0.2,0.2-0.3,0.4-0.4,0.6c-0.1-0.3-0.5-0.9-0.6-0.2c0.1,0.4,0.3,0.8,0.6,1.2c0,0,0,0.1,0.1,0.1c0.8,0.5,0.8,2.1,1.1,2.9
		c0.2,0.7,0.4,1.4,0.7,2c0.2,0.3,0.6,0.6,0.7,0.9c0.1,0.2,0.1,0.4,0.1,0.6c0.1,0.6,0.3,1.2,0.6,1.7c0.1,0.1,0.3,0.3,0.4,0.5
		c0.1,0.4,0.1,0.7,0.3,1.1s0.9,1.1,1.3,1S299.4,82.9,299.3,82.5L299.3,82.5z"/>
	<path class="st14" d="M299.7,91.9c-0.1-0.5-0.3-1-0.5-1.4c0,0-0.3,0.3-0.3,0.4s-0.6,0.7-0.6,0.8c-0.1,0.4,0.2,0.7,0.1,1.2
		c0,0.3-0.1,0.6-0.3,0.9c0-0.1-0.2,0.1-0.2,0.1s-0.2,0.1,0,0.1c0.1,0.1,0.2,0.1,0.4,0.1c-0.1,0-0.1,0.1-0.1,0.1c0.1,0,0.2,0,0.3-0.1
		C299.3,93.7,299.8,92.8,299.7,91.9L299.7,91.9z"/>
	<path class="st15" d="M298.6,92.4c-0.1-0.2-0.2-0.4-0.3-0.6c0,0,0-0.1-0.1,0s0-0.2,0-0.2s-0.1,0.1,0,0.2s0,0-0.1,0.1
		s-0.9-0.5-1.1-0.5c-1-0.2-2,0.2-2.6,1c0.1-0.1,0.1-0.2,0-0.3c-0.1,0.1-0.1,0.2,0,0.3c-0.2,2,0,4.1,0.4,6.1c0,1,0.2,1.9,0.4,2.9
		c0,0.1,0.2,0.4,0.2,0.3c0.2,0,0.6-0.1,0.8,0c0.3,0.1,0.5,0.1,0.8,0.1c0.2,0,0.2,0,0.2-0.2v-0.1c0-0.6,0-1.3-0.1-1.9
		c0-1,0.2-2,0.3-3c0-0.4,0-1.3,0.3-1.6l0.1-0.1c0.1-0.1,0.3-0.5,0.4-0.5C298.7,93.8,298.8,93,298.6,92.4L298.6,92.4z M294.4,92.5
		c0-0.1,0-0.1,0-0.2V92.5z M295.3,100.7c0,0.1,0,0.1,0,0.2C295.3,100.8,295.2,100.8,295.3,100.7L295.3,100.7z M295.5,101.3
		c-0.1,0-0.2,0-0.2-0.1v-0.1v0.1L295.5,101.3l0.1,0.1L295.5,101.3z M296.5,91.3L296.5,91.3L296.5,91.3z"/>
	<path class="st16" d="M296.8,94.9h-0.2c0.1,0,0.9,0.1,0.9-0.2C297.2,94.7,297,94.8,296.8,94.9L296.8,94.9z M297.4,94.9l-0.5,0.2
		c-0.2,0-0.3,0-0.2,0.1C296.9,95.2,297.4,95.1,297.4,94.9L297.4,94.9z"/>
	<path class="st16" d="M297.4,95.1c0,0,0.1,0,0.1-0.1L297.4,95.1z M296.9,98.6L296.9,98.6c-0.4,0.1-0.7,0-0.9,0.1s-0.2,0.2-0.1,0.1
		c0.1,0,0.2-0.1,0.3-0.1C296.3,98.6,296.7,98.8,296.9,98.6C297.1,98.4,296.9,98.5,296.9,98.6L296.9,98.6z M296.1,99
		c-0.1,0-0.2,0-0.2,0.1C296,99.1,296.1,99.1,296.1,99c0.1,0,0.7-0.1,0.7-0.1C296.6,98.9,296.4,99,296.1,99L296.1,99z M296.9,99.3
		h-0.8H296.9L296.9,99.3z"/>
	<path class="st17" d="M294.4,92.4c0,0.3,0.2,0.3,0.4,0.4c0.1,0,0.2,0.1,0.3,0.1c0,0,0.2,0-0.1-0.1h-0.2l-0.1-0.1
		c0.1,0,0-0.1-0.3-0.1c-0.5-0.1,0-0.2,0-0.1L294.4,92.4z"/>
	<path class="st18" d="M297,94l-0.3-0.4c0-0.1-0.1-1.1-0.2-1.1c0,0.2,0.1,0.4,0.1,0.6v0.4c0,0.1,0,0.2,0.1,0.2
		C296.7,93.8,297.1,94.2,297,94L297,94z M298.1,92.2c-0.2,0-0.4,0-0.5,0c-0.3,0-0.6,0-0.9,0C297.1,92.3,297.6,92.3,298.1,92.2z
		 M299.5,91.4c-0.2,0.2-0.4,0.4-0.6,0.6C299,92.1,299.4,91.4,299.5,91.4z M295.1,93.4c0-0.3,0.1-0.6,0.1-0.9c0.1-0.1,0.1-0.3,0-0.4
		c-0.1,0.2-0.1,0.4-0.1,0.6v0.1c-0.1,0.4-0.1,0.8-0.1,1.2C295.1,94.1,295.1,93.5,295.1,93.4L295.1,93.4z M295.1,95.4
		c-0.1,0,0,1.1,0,1.2C295.1,96.2,295.1,95.8,295.1,95.4z M295.2,97.5c0,0.4,0.1,0.8,0.2,1.2C295.4,98.7,295.3,97.5,295.2,97.5z
		 M295.5,99.2c0,0,0.2,1.3,0.2,1.4S295.7,99.2,295.5,99.2z M295.1,94.4c-0.1,0,0,0.8,0,0.8C295.2,94.9,295.2,94.6,295.1,94.4z
		 M298.3,92.4c0,0,0.1,0.7,0.1,0.8S298.4,92.4,298.3,92.4z M298.1,93.7l-0.4,0.4L298.1,93.7z M299,92.1v0.5v-0.1l0.1,0.6
		C299.1,92.8,299,92.4,299,92.1z M299.3,90.8c0,0.1,0,0.2,0.1,0.2l-0.1-0.4c0.1,0-0.5,0.7-0.4,0.7C299,91.1,299.1,91,299.3,90.8
		L299.3,90.8z"/>
	<path class="st19" d="M298.7,97.8l-0.2-0.2c-0.1-0.2-0.2-0.3-0.4-0.5c0-0.1-0.1-0.2-0.1-0.3c-0.1-0.2-0.4-1.5-0.5-1.4
		c-0.1-0.3-0.4,0.6-0.4,0.7c-0.1,0.7-0.2,2.1-0.2,2.1v0.2c0,0.1,0,0.1,0,0.2l-0.1,0.2v0.1v0.5l0.1-0.1c0.1,0.6,0.9-0.5,0.9-0.8
		c0.2-0.4,0.3-0.4,0.6-0.4C298.8,98,298.7,97.8,298.7,97.8L298.7,97.8z M297,99.5C297,99.4,297,99.4,297,99.5L297,99.5z
		 M297.2,100.7c0-0.1-0.2-0.1-0.3-0.1h-0.3l-0.3,0.1h-1.2l-0.2,0.1v1.6c0,0.2,0,0.3,0.1,0.5v0.9v0.5c0,0.2,0.1,0.3,0.1,0.5
		c0,0.3,0.1,0.6,0.2,0.9v0.7c-0.1,0.1-0.1,0.2-0.1,0.4l-0.1,0.3l-0.2,0.3l0.1,0.5c0.1,0,0.2-0.1,0.3-0.1c0,0,0.3-0.2,0.4-0.3
		c0.1-0.1,0.2-0.3,0.2-0.4s0-0.1,0.1-0.2c0-0.1,0.1-0.1,0.1-0.2c0.1-0.1,0.3-0.2,0.4-0.2h0.2c0,0.1,0.2,0.1,0.2,0s0-0.6,0-0.7
		c0-0.4,0.1-0.8,0.2-1.2l0.1-0.3v-0.8v-0.8v-0.4c0-0.1,0-0.3,0-0.4V101C297.2,100.9,297.2,100.8,297.2,100.7L297.2,100.7z"/>
	<path class="st19" d="M298.2,97.4c0,0.1,0,0.1,0.1,0.2h-0.1h0.1l0.1,0.1l0,0l0,0C298.4,97.7,298.4,97.4,298.2,97.4L298.2,97.4z
		 M298.6,97.6l0.1,0.2L298.6,97.6c-0.1,0.1-0.3,0.1-0.4,0.1c0.1,0,0.1,0,0.2,0L298.6,97.6v0.2l0.1,0.1l0.1,0.1c0,0,0,0,0-0.1
		L298.6,97.6L298.6,97.6z M297.5,95.5c0,0,0,0.1,0.1,0.1S297.6,95.6,297.5,95.5L297.5,95.5L297.5,95.5L297.5,95.5z"/>
	<path class="st19" d="M297.5,95.2L297.5,95.2C297.4,95.2,297.4,95.3,297.5,95.2c-0.1,0.1-0.1,0.2,0,0.3c0,0.1,0.1,0.1,0.1,0
		c0,0,0-0.1,0-0.2c0,0.1,0,0.1,0,0.2v0.2c0,0.1,0,0,0,0c0-0.1,0-0.2,0-0.4C297.5,95.3,297.5,95.2,297.5,95.2c-0.1,0-0.1,0-0.1,0
		H297.5z"/>
	<path class="st19" d="M297.5,95.2L297.5,95.2C297.5,95.3,297.5,95.2,297.5,95.2C297.4,95.2,297.4,95.2,297.5,95.2L297.5,95.2
		L297.5,95.2z"/>
	<path class="st20" d="M296,105.7C296,105.7,296,105.8,296,105.7L296,105.7l0.2-0.1h0.2l0.1,0.1c0,0,0.1,0,0,0
		c-0.1-0.1-0.2-0.1-0.3-0.1c-0.1,0-0.3,0-0.4,0.1H296z M296.1,105.4h0.3h-0.1H296.1L296.1,105.4z M295.7,105.4
		c-0.1,0.1-0.2,0.2-0.3,0.4c0,0.2-0.1,0.3-0.2,0.5c0-0.1,0.1-0.2,0.1-0.4s0.1-0.2,0.1-0.3l0.1-0.1L295.7,105.4L295.7,105.4z
		 M295.3,106.3L295.3,106.3z M298.3,97.3h-0.1H298.3l-0.2,0.1l-0.2,0.1l-0.1,0.1l-0.1,0.1l0.1-0.1c0.1-0.1,0.2-0.1,0.3-0.2
		L298.3,97.3C298.4,97.4,298.3,97.3,298.3,97.3L298.3,97.3z M297.6,97.6c0,0.1-0.1,0.2-0.1,0.2c0,0.1,0,0.2,0,0.4
		c0,0.1,0.1,0.3,0.1,0.4l0,0c0-0.1-0.1-0.2-0.1-0.3c0-0.1,0-0.3,0-0.4v-0.1L297.6,97.6L297.6,97.6z M295.7,105.9
		c-0.1,0.1-0.2,0.3-0.2,0.4s0,0.2,0,0.3c0-0.1,0-0.2,0-0.3v-0.1C295.6,106.1,295.6,106,295.7,105.9L295.7,105.9z M296.6,105.9
		c0,0.1,0,0.1,0.1,0.2C296.7,106.1,296.7,105.9,296.6,105.9L296.6,105.9z M297.1,98.2v-0.4v0.6v0.1v0.1
		C297.2,98.4,297.2,98.3,297.1,98.2L297.1,98.2z"/>
	<path class="st21" d="M296.6,100.5h-0.3c-0.3,0-0.5,0-0.8,0.1h-0.3c-0.1,0-0.2,0-0.3,0.1c0,0.1,0,0.2,0,0.2c0,0.1,0,0.3,0,0.4
		s0,0.2,0,0.3c0.1,0.1,0.2,0.1,0.3,0.1l0.4-0.1h1.5c0-0.1,0-0.1,0-0.2V101c0-0.2,0.1-0.4-0.1-0.5H296.6L296.6,100.5z M297.1,100.6
		L297.1,100.6L297.1,100.6z M295.5,100.7h-0.4H295.5L295.5,100.7z M295.1,100.7C295.1,100.8,295.1,100.8,295.1,100.7L295.1,100.7z"
		/>
	<path class="st21" d="M297,100.6L297,100.6c-0.1,0.1-0.1,0-0.2,0s-0.2,0.1-0.2,0.1c-0.1,0.1-0.3,0.2-0.5,0.3
		c-0.2,0.1-0.4,0.2-0.5,0.3c-0.1,0-0.2,0.1-0.2,0.1v-0.1c0-0.1,0-0.3,0-0.4h0.1c0,0,0.1,0,0.1-0.1c0,0,0,0,0-0.1
		c-0.1,0-0.1,0-0.2,0.1h-0.1c-0.1,0-0.1,0.1-0.1,0.2s0,0.3,0,0.4s0,0.1,0,0.2c-0.1,0.1,0,0.1,0.1,0.1h0.1h0.1c0.1,0,0.2-0.1,0.2-0.1
		c0.2-0.1,0.3-0.2,0.5-0.3l0.5-0.3c0.1-0.1,0.1-0.1,0.2-0.1l0,0c0.1,0,0.1,0,0.2,0.1v0.1v0.4l0,0v-0.3v-0.1V101
		c0.1-0.1,0.1-0.2,0-0.2c0,0,0,0-0.1,0c0,0-0.1,0-0.1,0.1L297,100.6z M297.7,95.2c-0.1-0.2-0.2-0.3-0.2-0.3
		c-0.1,0.2-0.1,0.3-0.1,0.5v0.1c0.1,0,0.4-0.1,0.4-0.1S297.8,95.6,297.7,95.2L297.7,95.2z"/>
	<path class="st19" d="M296.5,101.7c0,0.1,0,0.1,0,0.2C296.5,101.8,296.5,101.8,296.5,101.7z M296.3,101.6L296.3,101.6z
		 M296.3,102.3L296.3,102.3z M296.3,101.6v1.3l0,0V101.6L296.3,101.6z"/>
	<path class="st22" d="M296.3,101.9v1.4c0,0.4,0,0.7,0,1.1c0,0.1-0.1,0.3-0.1,0.4c0,0.2,0,0.3,0,0.5c0-0.2,0-0.4,0-0.6v-0.1
		c0-0.1,0.1-0.2,0.1-0.3c0-0.1,0-0.2,0-0.3v-0.6v-0.6c0-0.2,0-0.6-0.1-1L296.3,101.9z M297.6,95.8c0.1,0.3,0.2,0.6,0.2,0.8
		c0,0.1,0.1,0.3,0.1,0.4s0.1,0.3,0.2,0.4c0,0,0.1,0,0,0c0-0.1-0.1-0.1-0.1-0.2s0-0.1,0-0.2s0-0.1,0-0.2c0-0.2-0.1-0.4-0.1-0.6
		c0-0.1-0.1-0.2-0.1-0.3c-0.1-0.2-0.2-0.3-0.2-0.5v0.1C297.4,95.4,297.5,95.6,297.6,95.8z"/>
	<path class="st23" d="M296.9,106.2c-0.3,0-0.5,0-0.8,0.1c0-0.1-0.3,0.3-0.2,0.3c-0.1,0.3-0.3,0.5-0.5,0.8c-0.1,0-0.3,0.1-0.3,0.2
		s0,0.2,0,0.3c0,0.2,0.3,0.1,0.3,0c0.2-0.1,0.4-0.3,0.5-0.5c0.2-0.3,0.3-0.6,0.4-0.9c0.2-0.1,0.4-0.1,0.5,0s0.1,0,0.1-0.1
		s0.1,0.1,0.1,0.1C297.1,106.7,296.9,106.2,296.9,106.2L296.9,106.2z M298.8,98c0,0,0-0.2-0.1-0.2s-0.5,0.1-0.4,0.1
		c-0.1,0.1-0.2,0.2-0.3,0.3c-0.2,0.3-0.3,0.6-0.5,0.8s-0.5,0.2-0.5,0.3s0,0.1,0,0.1s0.7,0.1,0.8-0.2c0.3-0.4,0.6-0.8,0.8-1.3
		L298.8,98L298.8,98z"/>
	<path class="st24" d="M296.7,106.4c-0.8,0-0.6,0.9-1.1,1.2c-0.1,0.1-0.2,0.2-0.4,0.3s-0.1,0-0.1,0.1s0.2,0.1,0.2,0.1
		c0.4-0.1,0.8,0.1,1.2-0.1c0.2-0.1,0.2-0.6,0.3-0.7C296.9,107,297.3,106.4,296.7,106.4L296.7,106.4z M298.7,97.9
		c0-0.3-0.7,0.5-0.7,0.5c-0.2,0.4-0.2,0.7-0.7,0.9c-0.1,0-0.2,0.1-0.2,0.1H297v0.1c0.1,0,0.2,0,0.4,0.1c0.2,0,0.3,0,0.5,0
		c0.1,0,0.2,0,0.3-0.1c0.1,0,0.8-1.3,0.6-1.4C298.8,98,298.8,97.9,298.7,97.9L298.7,97.9z"/>
	<path class="st25" d="M300,78.3c0-0.2-0.1-0.5-0.1-0.7v-0.1c-0.1-0.2-0.2-0.3-0.2-0.5l-0.1-0.1c0-0.1,0-0.1-0.1-0.1l-0.1-0.1
		c-0.1-0.1-0.1-0.1-0.2-0.2s-0.2-0.3-0.4-0.2c-0.5-0.4-1.2-0.4-1.8-0.1l-0.1,0.1c-0.1,0-0.2,0.1-0.2,0.2c-0.2,0-0.3,0.3-0.3,0.4
		c0,0,0,0,0,0.1c-0.1-0.1-0.1,0,0,0.1c0,0.2,0,0.4,0,0.6c0,0.1-0.1,0.1-0.1,0.2V78v0.2c-0.2,0.3-0.2,0.7-0.1,1.1
		c0,0.4-0.1,0.8,0.3,1c0,0.1,0.1,0.1,0.1,0.2c0.1,0.4,0,0.7-0.1,1.1c-0.2,0.2-0.3,0.5-0.6,0.6c0,0-0.1,0-0.1,0.1
		c-0.1,0.2,1.3,1,1.5,1.1c0.6,0.3,1.3,0.1,1.6-0.5c0.1-0.1,0.1-0.3,0.1-0.4s0-0.2-0.1-0.2c-0.1-0.1-0.1-0.2-0.2-0.3
		c0-0.1,0-0.2,0-0.3c0.1-0.4,0.3-0.7,0.5-1C299.9,80.1,300.3,79.2,300,78.3L300,78.3z M296.3,82.6h-0.2H296.3L296.3,82.6z M299.2,80
		L299.2,80L299.2,80z"/>
	<path class="st26" d="M299.5,83.6c0,0-0.1,0-0.1,0.1h-0.1c0,0,0-0.1,0,0c0.1-0.4-0.1-0.9-0.3-1.3c-0.1-0.2-0.2-0.3-0.3-0.4
		c-0.1-0.2-0.2-0.4-0.5-0.4c0-0.1,0,0.2,0,0.1v0.1v0.1l0.1,0.1v0.1c0,0.7-0.8,1-1.4,1h-0.1c-0.2-0.2-0.4-0.4-0.7-0.5
		c-0.2-0.2-0.4-0.3-0.6-0.4c-0.2-0.2-0.5-0.2-0.7,0c0,0,0,0-0.1,0c-0.2,0-0.2,0.2-0.2,0.3c0,0,0,0,0,0.1c0,0-0.4,0.2-0.3,0.3
		s-0.1,0.1-0.1,0.1h0.2c0.2,0,0.4,0,0.6,0s0.4,0.1,0.5,0.3c0.2,0.7,0.2,1.3,0.3,2c0,0.1,0,0.1,0,0.2c-0.2,0.9-0.1,1.9-0.3,2.8
		s-0.6,1.8-0.7,2.8c-0.1,0.1-0.1,0.1-0.1,0.2c0,0,0,0,0,0.1l-0.1,0.1c-0.1-0.1-0.2,0.3-0.2,0.3c0,0.2,0,0.3,0,0.5
		c0,0.1,0,0.2,0.1,0.2h0.1c0,0,0.1,0,0.2,0s0.2-0.1,0.3-0.1c0.1,0,0.3,0,0.4-0.1c0.1,0,0.2,0,0.3,0c0.3,0.1,0.6,0.1,0.8,0
		c0.1,0,0.1,0,0.2,0h1c0.1,0,0.2,0,0.3,0c0.1,0.2,0.4-0.2,0.4-0.2h0.1c0.2-0.1,0.4-0.2,0.6-0.4c0.2-0.4,0.3-0.7,0.6-1v-0.1
		c0-0.1-0.1-0.3-0.1-0.4c0-0.5,0-0.9-0.1-1.4c0-0.1,0-0.1,0-0.2s0-0.2,0-0.4c0-0.9,0.3-1.8,0.3-2.7
		C299.6,84.9,299.6,84.2,299.5,83.6L299.5,83.6z"/>
	<path class="st27" d="M299.2,86.4L299,87c0,0.1-0.1,0.2-0.1,0.3l-0.3,0.6c-0.1,0.2-0.2,0.5-0.3,0.7c0,0.1-0.1,0.2-0.2,0.3
		s-0.1,0.2-0.1,0.2c0,0.1,0,0.1-0.1,0.2c0.1-0.1,0.2-0.3,0.2-0.5l0.1-0.2l0.1-0.2l0.2-0.4c0.1-0.2,0.2-0.4,0.2-0.5
		C299,87.2,299.1,86.8,299.2,86.4L299.2,86.4z"/>
	<path class="st27" d="M299.2,86v0.4c0,0.1,0,0.2,0,0.2c0-0.1,0.1-0.2,0.1-0.3c0-0.1,0-0.1,0-0.2C299.3,86.1,299.3,86,299.2,86
		L299.2,86z M298.7,88.8c-0.1,0.3-0.1,0.6-0.3,0.9c-0.1,0.1-0.1,0.2-0.2,0.3l-0.2,0.2c-0.1,0.1-0.1,0.2-0.1,0.3v0.7
		c0-0.1,0-0.3,0.1-0.4v-0.2c0-0.1,0-0.2,0.1-0.2l0.1-0.1c0.1-0.1,0.3-0.3,0.4-0.5C298.6,89.4,298.6,89.1,298.7,88.8L298.7,88.8z
		 M294.9,82.5h0.6v-0.1c-0.1,0-0.2-0.1-0.2-0.1H295L294.9,82.5z M298.7,82.4v0.3c0,0.1,0,0.3,0,0.4v0.2c0,0.2-0.1,0.4-0.1,0.5
		s-0.2,0.7-0.2,1c0.1-0.3,0.2-0.7,0.3-1c0.1-0.2,0.1-0.4,0.1-0.6C298.8,83,298.8,82.7,298.7,82.4L298.7,82.4z M298.2,83.9
		c-0.1,0.1-0.1,0.2-0.2,0.3s-0.2,0.3-0.2,0.4s-0.2,0.3-0.3,0.5l-0.3,0.5c0,0,0,0.1,0,0c0.2-0.3,0.4-0.5,0.6-0.8l0.2-0.4
		C298.1,84.1,298.1,84,298.2,83.9L298.2,83.9z M296,88.5c0,0.1-0.1,0.2-0.1,0.2c-0.1,0.1-0.2,0.3-0.3,0.4s0,0.1,0,0
		C295.8,88.9,295.9,88.7,296,88.5L296,88.5z M295.9,84.6v0.3c0,0.1-0.1,0.2-0.1,0.4c0,0.1-0.1,0.2-0.1,0.3v-0.1
		c0.1-0.1,0.1-0.3,0.1-0.4s0-0.1,0-0.2C295.9,84.8,295.9,84.7,295.9,84.6L295.9,84.6z M296,85.4L296,85.4c-0.2,0.2-0.3,0.3-0.4,0.4
		c0,0,0,0.1,0,0c0.1-0.1,0.2-0.1,0.3-0.2L296,85.4L296,85.4z M295.7,87c0.2,0.4,0.4,0.8,0.6,1.2l0,0c-0.1-0.2-0.2-0.4-0.3-0.6
		S295.8,87.2,295.7,87z M295,82.2h0.1l0.1,0.1h0.2c-0.1,0-0.2-0.1-0.3-0.1H295L295,82.2z"/>
	<path class="st28" d="M297.6,75.6c-2.7,0.2-1.5,3.8-1.1,5.4c0.2,0.7-0.5,2.2,0.6,2.5c0.4,0.1,0.5-0.1,0.9,0.1
		c0.6,0.4,0.8,0.6,1.6,0.2s0.3-1,0.3-1.7c0-0.4,0.1-0.7,0.3-1.1c0.2-0.5,0.2-1.1,0.2-1.6c0-1.1,0-2.3-1-3
		C299.3,76.4,297.6,75.4,297.6,75.6z"/>
	<path class="st25" d="M291.4,93.9c-0.2,0-0.3,0.1-0.4,0.3v0.1c0.1-0.1,0.1-0.1,0.2-0.2l0.1-0.1C291.3,93.9,291.4,93.9,291.4,93.9
		c0.1,0.1,0.2,0.1,0.3,0.1h0.4c0.1,0,0.1,0,0.2,0.1h-0.4c-0.1,0-0.1,0-0.2-0.1L291.4,93.9L291.4,93.9z"/>
	<path class="st25" d="M291.4,93.9l-0.1,0.2c0,0,0,0-0.1,0c-0.1,0.1-0.2,0.2-0.2,0.3v0.1l0.1-0.1l0.1-0.1v-0.1L291.4,93.9
		L291.4,93.9z M291,94.3L291,94.3L291,94.3z"/>
	<path class="st25" d="M295.9,87c0-0.5-0.1-1-0.1-1.4c-0.1-0.8,0.1-1.6-0.3-2.3c-0.2-0.4-0.7-0.6-1.1-0.3c-0.1,0.1-0.3,0.2-0.3,0.3
		c-0.3,0.7-0.3,1.5,0,2.2c0.1,0.7,0.2,1.4,0.1,2.1c0.1,0.5,0.1,1.1-0.1,1.6c-0.4,0.8-0.8,1.6-1,2.5c-0.1,0.4-0.2,0.9-0.3,1.4
		c-0.1,0.1-0.3,0.3-0.4,0.4c-0.4,0.1-1.2,0.2-1.3,0.7c-0.1,0.1-0.1,0.1-0.2,0.2l0.1,0.1c0,0.1,0,0.2,0.1,0.2l0.5-0.5h0.4
		c0.1,0.1,0.6,0.1,0.7,0h0.1c0.8,0,0.9-0.7,1.1-1.3s0.5-1,0.8-1.5c0.5-0.7,0.8-1.5,1.2-2.3C295.8,88.3,295.9,87.7,295.9,87L295.9,87
		z M291,94.4L291,94.4L291,94.4L291,94.4C291,94.3,291,94.4,291,94.4z"/>
	<path class="st25" d="M294.1,89.1c-0.1,0.1-0.2,0.2-0.3,0.3s-0.1,0.1-0.1,0.2c-0.1,0.1-0.1,0.1-0.1,0.2V90c0,0-0.1,0.1-0.1,0.2
		s0,0.1-0.1,0.2v0.1l-0.1,0.2c0,0.1-0.1,0.2-0.1,0.3v0.1v0.2c0,0.1,0,0.1,0,0.2c0,0,0,0,0.1,0h0.1v-0.1c0-0.1,0-0.2,0.1-0.3v-0.2
		c0.1-0.2,0.1-0.4,0.2-0.5c0-0.1,0.1-0.2,0.1-0.3V90c0-0.1,0.1-0.1,0.1-0.2s0.1-0.2,0.1-0.2C294,89.4,294.1,89.3,294.1,89.1
		L294.1,89.1z"/>
</g>
</svg>
