<svg id="AlterEgo_Image" data-name="AlterEgo Image" xmlns="http://www.w3.org/2000/svg" viewBox="0 0 460 800"><title>AlterEgo</title><path d="M460,671c-2,1.06-42.16,27.58-44,28.84a48,48,0,0,0-8.76,7.48c-1.75,2-1.74,4.12-2.09,6.39-.66,4.33-1,9-4.74,12a37.7,37.7,0,0,1-8.28,4.48c-2.15,1-4.51,1.43-6.74,2.22a2.17,2.17,0,0,0-1.21,1.22c-1,3.36-1.83,6.75-2.72,10.13-1.06,4-2,8-3.2,12-1,3.33-1.74,6.59-.11,9.92.07.16,0,.39,0,.59l-.5.14c-.52-1.63-1.44-3.27-1.46-4.91a32.72,32.72,0,0,1,.94-7.28c.82-3.79,1.88-7.52,2.81-11.29a66.12,66.12,0,0,0,1.82-8.13,15.15,15.15,0,0,1,1.95-5.33,53,53,0,0,0,5.18-20.74,54,54,0,0,1,1.89-10.84,20.87,20.87,0,0,0-.33-11.78,113.8,113.8,0,0,0-3.68-11.16c-.63-1.51-2.17-2.7-3.44-3.88a19.34,19.34,0,0,0-3.17-1.92,5.7,5.7,0,0,1,4.69,1.18c2.64,1.89,3.73,4.7,4.65,7.6.87,2.74,1.5,5.55,2.45,8.26,1.66,4.75.94,9.39-.14,14.09-.61,2.62-1.06,5.29-1.44,7.95-.59,4-.87,8.13-1.64,12.13a49.41,49.41,0,0,1-2.45,7.11c-.25.73-.49,1.47-.88,2.66,1.5-.47,2.65-.76,3.73-1.19,3-1.21,6.31-2,8.91-4.15a14.14,14.14,0,0,0,5.06-10.05c.28-2.83-.05-5.91,2-8.28a35.52,35.52,0,0,1,4.91-4.66,66.34,66.34,0,0,1,6.41-4.49c1.76-1.09,41.79-27.52,43.65-28.46Z"/><path d="M460,519.8c-3.25,2.13-44.58,16.65-47.84,18.76a7,7,0,0,1-5.24,1.34c1.52-.95,2.78-1.71,4-2.53,3.67-2.45,45.42-17.31,49.08-19.78Z"/><path d="M246.3,558.86a30.8,30.8,0,0,1,10.09-1.15c3.32.19,6.66-.17,10-.17,2.48,0,5,.12,7.45.31a7.79,7.79,0,0,1,2.56.76c2.38,1.13,9.62,4.37,10.89,4.4,4.56.12,9.13.28,13.66,0a51,51,0,0,0,10-1.73c1.55-.42,2.86-1.79,4.22-2.79,2.29-1.69,4.51-3.49,6.83-5.13a29.73,29.73,0,0,1,10.75-4.65c6.6-1.5,27.1-3.92,30.58-4.71a26.43,26.43,0,0,0,4.69-1.66,2.31,2.31,0,0,0,1.11-1.45c.53-2.45,1.36-4.16,4.41-4.52,2.71-.31,5.29-1.66,8-2.42a18.76,18.76,0,0,1,3.61-.44c5-.37,9.92-.93,14.89-1,4.69-.07,9.39.38,14.09.61v.58c-3,0-24.8,1.1-28.39,1.7-3.12.53-9.8,2.84-10.1,2.85-3.42.11-4,2.76-5,5.23s-2,4.89-3.21,7.27c-1.67,3.38-10.68,11.61-12.38,13.25-1.3,1.26-2.32,2.8-3.57,4.12a1.56,1.56,0,0,1-1.47.27c-.64-.53-.6-1.1-.05-2,2.66-4.3,7.1-6.81,10.44-10.44,2.42-2.63,4.74-5.14,6-8.53a13.89,13.89,0,0,1,1.91-2.67c-2.29.69-4.14,1.25-6,1.79-3.72,1.08-24.91,2.67-31.33,5.08a35.65,35.65,0,0,0-11.3,6.46A28.21,28.21,0,0,1,299,565.31c-3.7-.16-7.41,0-11.11-.1-1.1,0-1.49.41-1.87,1.4a10,10,0,0,1-2.14,3.58c-2.61,2.49-5,5.19-8.1,7.21-2.13,1.37-3.78,3.64-5.27,5.77-2.7,3.86-5.15,7.9-7.65,11.91-2.76,4.44-5.58,8.85-8.15,13.4-1.56,2.77-2.69,5.79-4,8.69-2.07,4.49-2.95,9.39-4.73,13.92s-2.26,9.15-3.75,13.62a29.43,29.43,0,0,0-.63,4c-.84,4.52-1.86,9-2.53,13.56-.41,2.79-.15,5.67-.49,8.48a13.46,13.46,0,0,0,.65,6.46.79.79,0,0,1,0,.62c-.42.58-.89,1.12-1.35,1.67a5.56,5.56,0,0,1-1.15-1.29c-1.9-4.34-2.62-9-3.59-13.57a10.46,10.46,0,0,0-.92-1.95c-1-2.34-2.14-4.66-3.12-7a50.88,50.88,0,0,1-1.93-5.48c-.3-1.1,0-2.37-.38-3.42-.49-1.35-3.51-6.85-4.26-8.35-1.16-2.33-9.21-17.83-10.43-20.15a3.8,3.8,0,0,0-.63-.91c-3.31-3.26-14.44-14.62-16.8-16.93A111.62,111.62,0,0,0,183,592.1c-2.58-1.42-4.81-3.53-7.86-4.1-1-.19-.73-3.56-2-3.62-3.48-.16-19.52-.9-24-1.33-5.14-.49-10.4.73-15.43-1-4.18-1.42-8.37-.9-12.58-.32-.83.11-1.69.06-2.53.14-4.45.46-8.9.85-13.33,1.44a83.14,83.14,0,0,0-9.67,1.8c-2.94.76-19.87,6.94-21,7.39,2.2,2.34,4.27,4.4,6.18,6.61s3.65,4.46,5.34,6.79c1.88,2.58,4.74,3.61,7.38,5,2.43,1.31,11.79,6.16,14.15,7,2.61.92,5.35,1.47,8,2.27,1.08.32,2.44.51,2.41,2.23-4.79.23-9.05-1.26-13.13-3.25q-9-4.38-17.91-9c-1-.51-6.72-7.74-8.92-10.35a73.62,73.62,0,0,0-8.49-7.51c-3.26-2-6.42-3.94-10.44-4.76-4.94-1-9.59-.23-14.35.27a99.32,99.32,0,0,1-12.45.52c-4-.07-8-.06-12,1.48C17.55,590.89.49,593.22,0,592.86c-.3-.22-.18-1.05,0-1.38s2.47-.62,3-.72c2.48-.51,16.87-2.84,18.22-3.44,1.53-.68,3-.59,4.53-.83,4.46-.68,8.85.5,13.23.11a63.76,63.76,0,0,0,10.44-1.84,17.82,17.82,0,0,1,8.12,0c2.23.43,4.61.53,6.62,1.44,2.76,1.24,5.22,3.14,7.85,4.69a2.16,2.16,0,0,0,1.59.2c2.59-.89,9.65-3.4,10.54-3.82A60.76,60.76,0,0,1,100,582.1c4.63-.8,9.24-1.72,13.89-2.37,2.88-.39,5.88,0,8.7-.6a25.54,25.54,0,0,1,11.57.62c4.18,1,8.48.85,12.77.89,4.91.05,21.41,1.32,24.76,1.49,1.19.06,1.91-.36,2-1.81.2-3.44,2.19-5.73,5.14-7.37a88,88,0,0,0,8.59-5.11c3.13-2.28,6.74-3.15,10.34-4.05a67.51,67.51,0,0,1,8.32-.94c4.11-.39,4.42-1,3.47-5-.15-.66-1.47-7.07-2-9.6-.77-3.49-1.5-7-2.33-10.46a75.2,75.2,0,0,0-5.65-16.46c-.79-1.58-1.63-3.15-2.33-4.77a4.84,4.84,0,0,1,0-1.78c.59,0,1.42-.19,1.72.12a14,14,0,0,1,2.79,3.52c1.7,3.54,3.33,7.14,4.68,10.83a81.23,81.23,0,0,1,2.45,9c1.28,5.33,2.58,10.67,3.65,16.05a57.91,57.91,0,0,1,.66,7.47c.24,3.56.6,7.12.61,10.69,0,3.77-1.15,17.5-1.3,20.59a2.77,2.77,0,0,1-1.75,2.35c-.76.46-1.73-.41-1.68-1.63.09-1.94.34-3.86.49-5.8.34-4.23.73-8.47,1-12.71a42.5,42.5,0,0,0-.36-5.06c-2.19.56-4.22,1.06-6.22,1.64-.44.13-3.74,2.07-5.08,2.29a30,30,0,0,0-9.59,3.79c-2,1.09-6.87,3.69-7.74,4.24,11.27,2.73,20.44,8.16,27.34,17.14l.3-.81c1,.1,2.24-.13,3,.37a21.54,21.54,0,0,0,8.88,3.79c1.21.18,2,.8,1.53,2s-1.43.86-2.38.46a60,60,0,0,0-6.93-2c.43.45,3.55,4.42,3.79,4.59,3.25,2.26,4,6.11,5.84,9.22.67,1.1,6.08,12.25,8.14,16.7.88,1.89,3.78,11.16,4.6,13.79,0,.13.2.23.57.39.79-8.35,1.64-16.63,4.48-24.63s5.41-15.72,9.08-23.42c-2.46,1-13.46,5.78-16.44,7.31-1,.53-1.5,0-1.9-.67-.48-.87-.12-1.47.77-1.88,2.5-1.14,15.32-7.24,19.17-9.24.75-.39,8.69-12,10.19-14.23,2.57-3.81,9.07-12.56,9.78-13.1a6.47,6.47,0,0,0,1.71-1.61c-1.19.07-2.38.22-3.56.19-2.17-.06-4.33-.16-6.49-.35-4.63-.4-14.41,2-14.86,1.92-2.23-.45-3.39.07-3.82,2.31-.6,3.14-3.23,26.17-3.51,26.68a9.41,9.41,0,0,1-1.56,1.67c-.51-.64-1.5-1.31-1.45-1.91.32-3.91,2.35-18.68,2.83-22.16.66-4.83,1.23-9.68,2-14.5.23-1.48,3.65-11.84,5-15.49,1.32-3.48,3-6.8,4.56-10.19.63-1.37,4.72-9.15,6.26-11.58,1.71-2.7,3.59-5.3,5.44-7.91a12,12,0,0,1,2-2.24c.35-.3,1-.21,1.56-.3-.06.52.06,1.16-.19,1.56-2.28,3.47-4.76,6.8-6.89,10.36a109.19,109.19,0,0,0-5.13,9.91c-1.78,3.79-3.52,7.62-5,11.55C248.94,549.26,246.58,557.91,246.3,558.86Z"/><path d="M328.75,234.88c-1.27-.56-2.12-.25-2.65.68-.64,1.11-1.15,2.28-1.72,3.42,0,.05,0,.14,0,.15-1.91.35-1.36,2.26-2.13,3.33-.21.28-.51.68-.45,1,.54,2.57,0,5.44,2.16,7.62.91-.51,1.17-1,.28-2a8.24,8.24,0,0,1-1.26-2.45c-.06-.14.26-.58.48-.67s.55.19.69.4a25.85,25.85,0,0,1,1.79,2.91,3.62,3.62,0,0,1,.29,1.87,3.21,3.21,0,0,1-.63,1.8c-.42.48-1.24,1-1.74.91a3,3,0,0,1-1.72-1.45c-.45-.86-.25-2.21-.86-2.8-2.12-2.05-1.52-4.87-2.38-7.26-1-2.66,1-6.54,3.66-8.16a23,23,0,0,1,2.43-1.69c1.35-.63,2.83-1,4.21-1.56,1.15-.49,2.19-1.21,3.34-1.71.49-.21,1.41-.38,1.63-.13,1.39,1.58,3.41,1.55,5.18,2.09a3.29,3.29,0,0,1,2.55,2.88,3,3,0,0,0,.77,1.75,2.69,2.69,0,0,1,.78,2.85c-.73,3.18-.71,3.19.42,6.31l2.12-.53-1,3.24c-.57-.31-1.31-.48-1.68-.95a10,10,0,0,1-2.17-6.74c0-.86-1.3-2.53-1.89-2.48-1.24.11-3.1-.17-3.58,1.84-.08.33-.78.65-1.25.73a5.24,5.24,0,0,1-2.05,0c-2.18-.49-4-.56-4.79,2.19-.24.84-1.28,1.51-2.06,2.11-.25.2-.85-.05-1.29-.09,0-.38-.05-.85.15-1.11.76-1,1.91-1.83.52-3.17a2.36,2.36,0,0,1,.77-1C327.34,238.05,327.89,236.41,328.75,234.88Zm-.27,3.55c1.19,0,2.16,0,3.13,0,.45,0,1.09,0,1.32-.32,1.23-1.53,2.95-1.91,4.74-2.19a2.55,2.55,0,0,0,1.21-.3,5.19,5.19,0,0,0,.85-1.31,4.37,4.37,0,0,0-1.21-.59c-.88-.12-1.91.16-2.64-.2-1.22-.61-1.92-.32-2.56.89-1.35-1.31-2.16-.44-2.83.61S329.12,237.32,328.48,238.43Z"/><path d="M319.32,282.1l4.24-2.1.38.55c-.32.37-.56.86-1,1.09a23.47,23.47,0,0,0-5.28,4.78c-.18.37-.61,1-.71,1-1.95-.77-2.91.95-4.25,1.64-.84.43-1.93.83-1.29,2.2.05.11-.38.64-.54.62-.38-.06-2.25-1.34-.23-2.94a2.7,2.7,0,0,0,.86-2,8.11,8.11,0,0,0-.91-2.82c-.87-1.76-1.85-3.48-2.76-5.16l-2.55-.49.1.25c-1.93.26-3.87.47-5.79.81a2.42,2.42,0,0,0-1.27,1,6.68,6.68,0,0,0-.55,1.46c-.28.65-.53,1.68-1.46,1.1-.42-.27-.33-1.34-.44-2.06,0-.11.19-.25.23-.4.14-.52.25-1.05.37-1.57a4.72,4.72,0,0,0-1.58-.06,4.11,4.11,0,0,1-4.14-1.21,1.75,1.75,0,0,1-.17-1.72,2.82,2.82,0,0,1,1.76-1.33c1.73-.19,3.41.14,4.42,1.83.82,1.37,1.95.83,2.92.36s1.8-.84,2.91.18,2-.3,2.86-.9c.43-.3.92-.51,1.67-.92a3.59,3.59,0,0,0-.18-1.62c-.87-1.45-.23-2.6.34-3.92s.51-2.56.9-3.8c.9-2.91,1.16-2.86,4.07-3.4a48.77,48.77,0,0,1,6.17-.55c.41,0,1.11.19,1.19.45a1.85,1.85,0,0,1-.12,1.58,29.72,29.72,0,0,1-3.57,3.06c-.25.18-.91-.21-1.38-.34.16-.42.21-1,.52-1.24a14.64,14.64,0,0,1,2.21-1.09l-.06-.45h-2.59c-3.78.06-5.18,1.6-4.92,5.37a3.08,3.08,0,0,1,0,1.25c-1.75,4.73-.16,9,1.9,13.14.54,1.1,1,2.25,1.47,3.38,2.42-1.45,2.47-1.75,1.93-4.62-.4-2.1-.54-4.25-.75-6.39-.1-1-.18-2.1,1-2.78.24-.14.21-.75.29-1.15a14,14,0,0,1,.58-2.6c.17-.4.84-.59,1.28-.88a3.36,3.36,0,0,1,.23,1.36,15.48,15.48,0,0,0,.91,10.59C318.74,281.1,319,281.55,319.32,282.1Z"/><path d="M256.84,431.26c1.45-.08,2-1.09,1.27-2.33-.57-1-.3-1.46.84-1.48,2.41,0,3.67,1.85,2.5,3.92-2,3.55-4.39,6.81-8,8.91a23.63,23.63,0,0,1-3.94,2.32,28.29,28.29,0,0,1-6.31,1.29,20.73,20.73,0,0,1-14.76-4.18c-.26-.2-5.19-4.41-7.23-5.46-.47-.25-1.28-.68-1.24-.91a2.28,2.28,0,0,1,1-1.49c.35-.21,1.09,0,1.53.27a32.2,32.2,0,0,1,2.67,1.82c.15-.08,4.29,2.91,6.62,4.24,1.71,1.15,3,2.12,5.13,2.19a63.57,63.57,0,0,0,8.39.09,13.48,13.48,0,0,0,7.24-3.4C253.91,436.14,256.36,433.34,256.84,431.26Z"/><path d="M227.36,522.66c-4.29-1-8.89-1.66-12.22-4.94a14.59,14.59,0,0,1-2.37-4.06c-.13-.25.32-1.11.49-1.11.46,0,1.18.21,1.34.55,1.54,3.2,4.49,4.48,7.57,5.42a59.87,59.87,0,0,0,9.37,1.92,32.34,32.34,0,0,0,14.33-1.3c3.32-1,5.52-3.58,7.43-6.27,1.78-2.51,3.23-5.23,5-7.76a2.21,2.21,0,0,1,2-.45,1.38,1.38,0,0,1,.8,2.06c-3.23,6-7.11,11.46-13.2,14.85-2,1.12-4.49,1.42-6.75,2.09C241.1,523.53,231.81,523.68,227.36,522.66Z"/><path d="M208.52,326.52a32.66,32.66,0,0,1,9.73-5.75,38.42,38.42,0,0,1,5.93-1.35c1.52-.33,3-.71,4.59-.92,5.88-.8,11.74-.14,17.58.43,3.06.3,6,1.53,8.9,2.57a27.53,27.53,0,0,1,10,6.59,2.43,2.43,0,0,1,.73,1.31,1.43,1.43,0,0,1-.47,1.22c-.27.17-2.21-1-2.5-1.45a7.77,7.77,0,0,0-4.36-3.41c-2.41-.82-4.59-2.46-7-3.05a81.05,81.05,0,0,0-11.72-1.77,58.8,58.8,0,0,0-13.77.35,34.1,34.1,0,0,0-12.52,4.56c-2.06,1.23-3.58,3.35-5.4,5a2.07,2.07,0,0,1-1.57.58C206.15,331.29,207.41,327.49,208.52,326.52Z"/><path d="M223.87,361.49c-.62-.4-1.58-1-2.53-1.62a47.93,47.93,0,0,1-5.86-4c-1.17-1.05-1.7-2.78-2.67-4.09a2.72,2.72,0,0,0-1.83-1.06,25,25,0,0,0-3.93.45c-.84.12-1.81.47-2.08-.73s.87-1.51,1.59-1.52c2.17,0,4.33-1.15,6.54.07a14.91,14.91,0,0,0,4,1.11c1.53-1.19,2.95-.51,4.44.14a9,9,0,0,1,3.93,3.76c1.14,1.8,2.32,3.57,3.41,5.39.15.24,0,1-.14,1C227.31,360.79,225.87,361.06,223.87,361.49Z"/><path d="M237.66,412.93a5.33,5.33,0,0,1-2.51-1.16c-2.34-1.72-3.62-1.74-5.88.11-.09.07-2.21,1.43-3.24.7a1.92,1.92,0,0,1-.53-1.77c.47-1.05,7.68-4.13,9.47-4.37a6.35,6.35,0,0,1,4.23,1.18c2.24,1.33,4.9,2.23,7.65,1,2-.86,3.91-1.79,5.91-2.58,1-.38,2.06-.38,2.46.91a1.29,1.29,0,0,1-.36,1.15c-3.09,1.67-6.22,3.28-9.35,4.87a4.33,4.33,0,0,1-1.23.23C244.28,413.15,239.85,413.09,237.66,412.93Z"/><path d="M357,212.21a5,5,0,0,1,4.88,2.16,2.86,2.86,0,0,1,.33,2.36c-1.39,3.4-3,6.72-4.48,10.07-.11.24-.24.6-.42.64-2.3.56-2.61,3.09-4.29,4.27-.27.18-.27.76-.38,1.16A7.93,7.93,0,0,1,352,235c-.42.67-1.26,1.72-1.7,1.62-1.26-.27-.78-1.52-.67-2.4s.53-1.48.68-2.24.46-1.75.13-2.3c-1.34-2.28.47-3.49,1.49-5a3.84,3.84,0,0,1,1.08-.91c1.13-.74.91-1.37-.12-2-.59-.34-1.16-.72-1.74-1.08a3.36,3.36,0,0,1-1.12-4.89c.2-.3.64-.6.63-.87-.17-3.28,2.53-2.21,4.16-2.71A9.3,9.3,0,0,1,357,212.21Zm-1.71,3.57a4.87,4.87,0,0,0-1.84.28,6.82,6.82,0,0,0-1.95,1.87,1.61,1.61,0,0,0,.39,1.48c1.29,1.17,2.7,2.22,4.38,3.56.56-.75,2.86-4.43,3.36-5.23,1.26-2.06,1.21-2.54-.95-3.32a12.86,12.86,0,0,0-3.37-.37c-.12,0-.25.13-.41.22Zm-3.23,12.47.77.54,2.08-3-.58-.41Z"/><path d="M248.6,362.09a9.55,9.55,0,0,1-.91,1.94c-.3.39-1.09.86-1.36.72a2,2,0,0,1-1-1.43,8.46,8.46,0,0,1,4.8-7.95c.55-.27,1-.77,1.53-1a77.18,77.18,0,0,1,7-3.27c1.64-.61,3.57-.48,5.2-1.1,1.14-.44,2-1.58,3-2.44a5.28,5.28,0,0,0,.72-1c1.29.66,1.47,1.46.79,2.61a5.69,5.69,0,0,1-4.85,3,4.08,4.08,0,0,0-3.29,1.94c-1.92,2.49-3.51,5.57-6.74,6.8A39.35,39.35,0,0,1,248.6,362.09Z"/><path d="M329.42,295.17c-2.07-.32-2.87,1.81-4.46,2.76l.18.42,2.23-.61c-.18.73-.15,1.43-.49,1.8-1.12,1.2-2.51.84-3.81.28-2-.84-2.37-1.62-2.14-3.83a6.36,6.36,0,0,1-1.68-.91c-.15-.16.15-1.09.48-1.29a5,5,0,0,1,1.95-.48c.55-.06,1.16.18,1.66,0a39.18,39.18,0,0,1,4.88-1.78c4.45-.86,6.82-4.47,10-7,2.46-2,4.88-4,7.34-5.9,1-.83,2.12-1.62,3.19-2.42l.26.3-3.71,3.41c-2.83,2.62-5.61,5.29-8.49,7.85-1.88,1.68-3.95,3.14-5.82,4.83A10.92,10.92,0,0,0,329.42,295.17Z"/><path d="M260.08,663.32c-.18.16-.28.3-.33.28l-4.89-1.44c-.33-.1-.67-.38-1-.33a42.39,42.39,0,0,0-5.4,1.12c-.55.17-1,1.08-1.19,1.74-.06.18.63.78,1.07,1,2.89,1.22,5.8,1.74,8.88.47a2.39,2.39,0,0,1,2.2.42c.53,1-.49,1.49-1.33,1.9-2.44,1.19-5,.75-7.41.18a22.25,22.25,0,0,1-4.82-1.86c-1.75-.89-1.34-2.65-1.07-4.08.12-.65,1.06-1.32,1.78-1.64a14.75,14.75,0,0,1,9.13-.63c1.63.34,3.07.51,4,2A5.53,5.53,0,0,1,260.08,663.32Z"/><path d="M193.74,348.25c.24-1.4.52-3.53,1-5.6.09-.4,1.08-.88,1.55-.79a1.77,1.77,0,0,1,.87,1.46c-.23,2.44-.78,4.85-.92,7.29-.18,3,2.14,4.74,5.17,4.82,2.26.05,4.12-.26,5.75-1.87.23-.23,1,.06,1.5.11-.12.5-.08,1.16-.4,1.49-2.26,2.34-6.48,2.95-9.74,1.79C194.59,355.55,193.76,353.91,193.74,348.25Z"/><path d="M260.18,693.86l-1.08.94c-2.1-1.7-4.43-.76-6.61-.53a5.42,5.42,0,0,1-5.14-2.12,4.61,4.61,0,0,1-.47-5.06,2.55,2.55,0,0,1,1.74-1c2.29-.31,4.61-.48,6.92-.67a2.36,2.36,0,0,1,1.25.13,10.82,10.82,0,0,1,1.49,1.13,6,6,0,0,1-1.66.77c-2.31.26-4.63.4-6.94.63-1,.1-1.5,1.74-.59,2.6a5.08,5.08,0,0,0,2.73,1.18c1.77.2,3.59-.06,5.35.17a13.05,13.05,0,0,1,3.15,1.24Z"/><path d="M269.93,358.91c-2.27-.82-4.23-1.45-6.12-2.27-.36-.16-.4-1-.58-1.58a7.51,7.51,0,0,1,1.65.12c1.45.44,2.87,1,4.31,1.45a.5.5,0,0,0,.32,0c1.81-1,3.65-1.95,5.44-3,2.1-1.21,2.57-3.15,2.35-5.39a18.79,18.79,0,0,1-.14-3.35c0-.26,1.06-.74,1.17-.64.58.55,1.44,1.25,1.43,1.9a19.42,19.42,0,0,1-.69,6.15,7.82,7.82,0,0,1-3,3.59A48.35,48.35,0,0,1,269.93,358.91Z"/><path d="M354,293.65l5.32.68c-4.22,3.95-1.41,7.7.59,11.61l1.53-.5c.17.4.5.79.45,1.12a8.52,8.52,0,0,1-.63,2s-.79-.05-.92-.26c-1.42-2.25-2.93-4.46-4.12-6.83a6.61,6.61,0,0,1,.11-6.39c-1.06-.12-1.88-.19-2.7-.32a4.42,4.42,0,0,1-1.51-.38c-.47-.29-1.15-.83-1.1-1.19a2,2,0,0,1,1.12-1.34A34,34,0,0,1,366.27,289a52.68,52.68,0,0,0-12.33,4Z"/><path d="M241.59,694.61l.27,4c.37,5.6.73,11.19,1.11,16.78.1,1.42.29,2.83.32,4.24,0,.41-.39.83-.6,1.25-.38-.36-1-.68-1.09-1.09-.3-1.85-.45-3.73-.63-5.6-.4-4.12-.9-8.23-1.14-12.36a35.89,35.89,0,0,1,.45-5.93,4.69,4.69,0,0,1,.72-1.43Z"/><path d="M245.8,739.13a11.51,11.51,0,0,1,.24,1.75c.05,3.7-.66,7.44.54,11.1.37,1.14.84,2.26,1.12,3.42.59,2.46,1.19,4.92,1.55,7.42.1.72-.6,1.56-.93,2.34l-.51.05a5.42,5.42,0,0,1-.68-1.85c.1-3.16-1-6-1.95-9-1.16-3.7-1.9-7.5-.77-11.4.24-.84.19-1.76.37-2.62a6.94,6.94,0,0,1,.59-1.31Z"/><path d="M256.73,714.07c-3.35.66-6.33,1.28-8.55,3.75,2.63,3.09,6.69,2,9.83,3.31l-.07.71c-.94.12-1.88.31-2.82.34a15.21,15.21,0,0,1-7.77-1.89c-1.89-1-2.21-2.94-.65-4.42,2.27-2.15,5.28-2.47,8.17-2.94C255.41,712.85,256.1,713.67,256.73,714.07Z"/><path d="M232.64,299.14c2.8.47,5.36.82,7.88,1.37a9.12,9.12,0,0,1,2.94,1.43,1.5,1.5,0,0,1,.25,1.41,1.39,1.39,0,0,1-1.28.43c-2.23-.69-4.38-1.64-6.63-2.21a9.54,9.54,0,0,0-4.05,0c-1.79.36-3.49,1.16-5.28,1.61-.55.13-1.24-.3-1.87-.47.33-.45.58-1.14,1-1.3C228,300.57,230.39,299.86,232.64,299.14Z"/><path d="M376.85,194.16c-.42.16-.9.52-1.25.43a4.26,4.26,0,0,1-2.16-1c-.7-.84.32-1.06.84-1.55,1.55-1.45,2.66-.19,3.74.53s.49,2,.16,3c-1.06,3.32-3.6,5.47-6,7.73a23.26,23.26,0,0,0-1.57,2.06c-.25.28-.68.66-.95.61s-.8-.64-.74-.85a6.46,6.46,0,0,1,1.19-2.73,30.46,30.46,0,0,1,3.8-2.79,2.32,2.32,0,0,0,.69-.63c.86-1.49,1.68-3,2.52-4.5Z"/><path d="M261.12,395.52c-1.83-1.92-3.44-4.16-6.44-4.49-1-.12-2-.62-3.07-.67-2.89-.12-5.81-.45-8.53,1.05a28.85,28.85,0,0,1-4.85,2.17,6.08,6.08,0,0,1-2.52-.28,14.14,14.14,0,0,1-1.46-.36c-.07-.16-.14-.34-.23-.54a3.11,3.11,0,0,1-.21-1.54c.64-5.29-1.27-10.11-2.8-15-.18-.56-.92-.94-1.4-1.41l-.47.38c.61,2.27,1.24,4.55,1.81,6.83.28,1.11.44,2.24.68,3.35.48,2.19-.1,4.5.18,6.71a4.46,4.46,0,0,1-.52-.31,8.35,8.35,0,0,0-10.69,1.22c-2.15,2.51-4.18,5.12-6.24,7.71-1.49,1.88-3,3.77-4.34,5.74-.29.43,0,1.27.08,1.91.59-.1,1.41,0,1.72-.33a32.55,32.55,0,0,0,2.23-3.16c.29-.42,4-5,5-6.2s2.14-2.24,3.15-3.42a7,7,0,0,1,5.25-2.81,7.22,7.22,0,0,1,4.11,1.73,13.82,13.82,0,0,0,8,2.34c0,.45.08-.58,3.86-2a14.39,14.39,0,0,1,8-.94c.73.13,3.59.74,4,.75,1.58.06,3.35,2.74,3.46,2.7l1.62,2.26C262,397.8,262.22,396.67,261.12,395.52Z"/><path d="M393.57,269.28l3.37-.56c-2.11,2.93-1.17,5.77-.77,8.57.28,2,.79,3.88,1.05,5.85a6.46,6.46,0,0,1-.54,2.09c-1.22-.69-1.42-1.22-1.32-2.34a22.18,22.18,0,0,0-.61-4.94C394.36,275.11,394,272.27,393.57,269.28Z"/><path d="M376.39,254.27c-1.8-2.72-2.15-5.34-1-8,.26-.63,1-1.06,1.49-1.58a6.71,6.71,0,0,1,1.23,1.71,27.82,27.82,0,0,1,.76,4C379.14,252.28,377.32,252.87,376.39,254.27Z"/><path d="M344.38,200.59l2.17.1a1.51,1.51,0,0,1,.61.06,3.78,3.78,0,0,1,1.07.81c.1.12-.19.78-.27.77a8.48,8.48,0,0,1-1.37-.32c-1.48,2.88-8.2,3.15-10.44.37a14.21,14.21,0,0,1-1.5-2.14c-.12-.21.23-.68.36-1a3.56,3.56,0,0,1,.94.38c1.13.87,2.1,2.07,3.37,2.59a8.5,8.5,0,0,0,3.87.18,1.33,1.33,0,0,0,1.23-1.81Z"/><path d="M395.92,191.5c-2.17.16-3.55-1.44-5.51-1-1.69.38-3.68-.6-5.14,1.13-.95-.83-1-1.75,0-2.22a7.59,7.59,0,0,1,3.44-.71c1.76.1,3.35.38,4.32-1.63.18-.38,1.47-.62,1.95-.37.9.46.45,1.24-.16,1.78s-.62,1,.07,1.51A8,8,0,0,1,395.92,191.5Z"/><path d="M247.42,461c-3.21,0-5.87-.13-8.51.05-1.54.1-3,.75-4.59,1a5.32,5.32,0,0,1-1.88-.43c.42-.43.75-1.07,1.26-1.26a16.42,16.42,0,0,1,9.41-.68c.82.18,1.69.1,2.51.3A8.15,8.15,0,0,1,247.42,461Z"/><path d="M406.65,287.19c.35,1.71.67,3.42,1.06,5.12.08.35.35.88.63.94,1.29.3,1.13,1.16,1.13,2.15,0,2.15-.21,4.36,1,6.34.19.31-.07.88-.12,1.33-.4-.25-1-.4-1.18-.77-1.42-2.48-2.66-5-1.46-8,.08-.21-.12-.55-.23-.81a31.31,31.31,0,0,1-1.31-3.53,12.53,12.53,0,0,1,0-2.81Z"/><path d="M309.09,193.14a7.64,7.64,0,0,1-1.84.62,4.31,4.31,0,0,0-4,2.35c-.29.49-1.32,1.09-1.64.92-.86-.43-1.06-1.27-.46-2.25a7.76,7.76,0,0,1,4.55-3.62C307.35,190.68,307.72,192.15,309.09,193.14Z"/><path d="M338.22,254.59a19.63,19.63,0,0,1-.63,2.54,1.19,1.19,0,0,1-1,.42,3.88,3.88,0,0,1-3.1-4.11,2.89,2.89,0,0,1,1.28-1.77c.37-.21,1.27.15,1.73.52A7.21,7.21,0,0,1,338.22,254.59Z"/><path d="M408.61,221.5c-2.5,2.06-3.34,5-4.21,7.89a4.24,4.24,0,0,1-.72,1.55,1.1,1.1,0,0,1-1.88,0c-.52-.62-.72-1.3.08-1.9.33-.25.77-1.94,1.79-1.94a16.35,16.35,0,0,1,5.16-6.82A1.44,1.44,0,0,1,408.61,221.5Z"/><path d="M307.44,205.6c.27-.38.39-.71.55-.74a1.38,1.38,0,0,1,1,.15c.87.82,1.53,1.55,2.55,0,.59-.88,4.14.34,4.2,1.39,0,.41-.43,1.19-.72,1.22-2.08.17-4.24.79-6.19-.45A7.62,7.62,0,0,1,307.44,205.6Z"/><path d="M392.77,211c-.28.22-.54.6-.85.64-2.32.34-1.33,1.68-.73,2.66s1.59,1.76,2.28,2.71c.28.39.48,1.25.27,1.47a2.49,2.49,0,0,1-1.64.51c-.16,0-.35-.76-.5-1.18a13,13,0,0,0-.61-1.65c-.77-1.4-1.66-2.75-2.4-4.17-.4-.76-.14-1.31.86-1.34s2.2-.13,3.3-.2Z"/><path d="M319.83,170.13a11,11,0,0,0,0,1.43c.17,1.33,1.38,1.93,2.32,1a2.36,2.36,0,0,1,2.4-.58c.71.12,1.47-.11,2.2-.05a4.9,4.9,0,0,1,1.33.5c-.33.3-.63.82-1,.88-1.76.28-3.53.28-5,1.61-.69.61-2.61-.8-3.25-2.41A1.6,1.6,0,0,1,319.83,170.13Z"/><path d="M368.19,292.92c1.75.85,3.14.87,4.51-.42s2.08.16,2.79.94a1.33,1.33,0,0,1-.38,2.24c-.41.22-1.41.23-1.52,0-.64-1.21-1.55-.73-2.45-.59C369.7,295.34,368.74,294.66,368.19,292.92Z"/><path d="M329.73,245.89c.26-1.48,1.88-3.32,3.12-3.22.41,0,1.11.67,1.11,1a6.34,6.34,0,0,1-.54,3c-.35.62-1.52,1.36-2,1.19C330.69,247.65,330.27,246.59,329.73,245.89Z"/><path d="M339.23,256.4a12.42,12.42,0,0,0,1.81-2.53c.57-1.48.81-3.09,1.26-4.62a5.15,5.15,0,0,1,.76-1.2c.23.36.65.72.66,1.09a10.91,10.91,0,0,1-1.75,6.71A1.74,1.74,0,0,1,339.23,256.4Z"/><path d="M334.72,246.31c1.76.52,3.08.86,4.37,1.31.36.13.87.62.84.89a1.5,1.5,0,0,1-.79,1.13,16.92,16.92,0,0,1-3.25.51c-.3,0-.87-.25-.9-.44C334.83,248.55,334.79,247.37,334.72,246.31Z"/><path d="M338.92,176.5a17,17,0,0,1,1.73-.71,1.81,1.81,0,0,1,1,.05c.3,1.69,1.84,1.15,2.82,1.62.31.15.51.52.76.8-.32.2-.63.55-.95.56a25.85,25.85,0,0,1-3.63-.08C339.42,178.61,338.61,178,338.92,176.5Z"/><path d="M406.19,274.48c-.34,2-.64,3.7-.95,5.43l-.53.09a14.21,14.21,0,0,1-.54-2.3c-.15-2-.26-4-.26-5.94,0-.44.53-.89,1-1.24C405.15,272,404.05,273.73,406.19,274.48Z"/><path d="M304.48,216.85a47.54,47.54,0,0,1,4.75-.4c.38,0,1.13.91,1,1.25A2,2,0,0,1,309,219a7.15,7.15,0,0,1-3.09,0c-.64-.16-1.11-.95-1.66-1.47Z"/><path d="M398,295.52c1,.54,1.84,1.09.53,2-2.86-1.82-2.29-5.67.21-7.36C396.9,290.88,399.68,293.68,398,295.52Z"/><path d="M396.63,202.65l-1.75-.72c.29-.65.54-1.32.88-2a18.33,18.33,0,0,1,1.11-1.7c.3-.43.63-.83.95-1.25l.54.25C397.83,198.94,397.29,200.59,396.63,202.65Z"/><path d="M338.11,241.74c.31.39,1.12,1,1,1.29-.37.87-.9,2-1.67,2.31s-1.54-.5-1.66-1.57C335.63,242.23,336.81,242.2,338.11,241.74Z"/><path d="M348.87,189.56c2-.48,3.76.24,4.25,1.76.12.36-.09.83-.15,1.25-.33-.17-.66-.36-1-.52-.52-.26-1.07-.74-1.57-.7C349,191.49,348.78,190.77,348.87,189.56Z"/><path d="M381.15,236.54c.4.51,1.16,1,1.13,1.52,0,.64-.71,1.25-1.1,1.86-.39-.53-1-1-1.11-1.61s.31-1.12.5-1.69Z"/><path d="M344.4,297.36c-.3,1.07-.55,2-.82,3-1.27-.06-1.48-.82-1.27-1.82S343.32,297.21,344.4,297.36Z"/><path d="M396,299.73a24.32,24.32,0,0,1,1.83,2.1c.05.06-.56.59-.86.9a9,9,0,0,1-1.42-1.49C395.45,301,395.8,300.48,396,299.73Z"/><path d="M167,252.6c1.11,1.52-.05,2-.77,2.49-2.65,1.88-5.44,3.6-8,5.6-4.75,3.72-9.42,7.55-14.05,11.44-5.36,4.5-10.61,9.15-16,13.66-1,.84-1.87,2.2-4,1.75a7,7,0,0,1,1.07-1.85c3.84-3.25,7.73-6.45,11.61-9.64,6.28-5.17,12.51-10.4,18.89-15.45C159.35,257.79,163.17,255.3,167,252.6Z"/><path d="M139,252.89c-.48-.39-1.95,1-2.2,1.36-.92,1.2-1.94,2.33-2.77,3.59-1.68,2.54,0,6.72,2.49,8,.53.27.84,1,1.25,1.5a5.1,5.1,0,0,1-1.91.41c-3.28-.69-6-5.84-4.68-9.23,2-5.36,6.12-8.77,12.25-8.57a8.23,8.23,0,0,1,7.4,5.66c.14.48.73,2.15.53,2.29a1.05,1.05,0,0,1-1-.16,6.35,6.35,0,0,1-1.33-1.74,7.5,7.5,0,0,0-7.61-3.71Z"/><path d="M183.27,254.06c-1.42.8-2.91,1.49-4.25,2.41s-2.52,2.15-3.85,3.13c-4.52,3.33-9.12,6.56-13.61,9.94-4.28,3.21-8.46,6.57-12.68,9.86-1.32,1-2.61,2.11-4,3.07-.35.24-1,.09-1.49.12.2-.49.26-1.13.61-1.43,2.42-2,4.84-4,7.38-5.91,3.25-2.4,6.63-4.62,9.91-7,2.43-1.74,4.76-3.6,7.19-5.33,2.79-2,5.63-3.89,8.45-5.81,1.47-1,2.94-2,4.44-3a11.15,11.15,0,0,1,1.62-.7Z"/><path d="M278.16,481.77c1.13-.48,2.65-.85,2.69-2.51.09-3,2.07-4.68,4.34-6.15,1.51-1,3.47-1.6,4.46-2.93a137.7,137.7,0,0,0,7.41-13,24.45,24.45,0,0,0,1.95-6.26,9,9,0,0,1,3.34-6.21c2.81-2.12,6-3.71,8.77-5.92,2.92-2.36,6.44-3.74,7.21-5.16,2.82-5.16,1.93-12.23.58-17.67a9.06,9.06,0,0,1,.69-6.72,60.74,60.74,0,0,1,3.94-6.45c2.45-3.5,2.11-7,.29-10.56a3,3,0,0,1,.16-3.38c2.32-3.49,4.67-7,7-10.46a17.73,17.73,0,0,1,1.31-2.14c2.83-3.17,4.5-6.7,3.64-11.05a4.4,4.4,0,0,1,1.34-3.87c1.81-2.05,3.76-4,5.64-6,2.57-2.74,4.74-5.63,4.52-9.71a16.85,16.85,0,0,1,.57-4.83c1-4,0-7.67-1.64-11.28-.5-1.11-1-2.23-1.46-3.34l.3-.34c2,.84,18.61-.05,21.07-.24,3.6-.27,18.18-.33,22.05-.44,8.69-.26,26-.71,26.4-1.7s-28.83-.37-32.41-1.91c-1.58-.68,8.2-2.52,6-3.3-2.8-1-16.47,0-20.12-.9-3.2-.83,13.33-3.29,9.61-3.9-6.91-1.14-8.66-1.81-16.84-1.42-3.81.19-7.62-.48-11.43-.44-5.61.06-11.22.45-16.84.58-3.22.08-12,.14-13.15.11-3.48-.08-7-.09-10.44-.39-2.78-.24-13.23-2.26-15.65-2.92a5.58,5.58,0,0,1-2.44-1.62c-3.56-3.89-5.84-8.57-8-13.29-.75-1.61-2.94-8.35-3.4-10.05-.95-3.55-5.79-21.74-6-23-.86-6.53-1.55-13.09-2.51-19.61a30.49,30.49,0,0,1,.31-10.78,3.59,3.59,0,0,1,.7-1.52,59.47,59.47,0,0,1,4.21-4.27c.47,1.91.8,3.54,1.29,5.12s1.19,3.09,1.67,4.66c.38,1.22.81,1.43,1.85.66a17.27,17.27,0,0,1,1.95-1.34c2.23-1.25,2.24-1.23,3.24,1.05.19.43.42.84.64,1.25,1,1.95,1.58,2.12,3.68,1.54a2,2,0,0,1,1.7.39,57.46,57.46,0,0,1,3.71,5.05c1.61,2.49,2.14,2.62,4.41.56a12.79,12.79,0,0,1,.62,1.22c1.59,4.26,3.14,8.53,4.76,12.77.42,1.11,1.41,1.11,2.24.59,3.22-2,6.38-4.11,9.91-6.4.69,1.58,1.41,3.27,2.16,5,.84,1.86,1.68,3.72,2.57,5.56a1.81,1.81,0,0,0,.89.79,7.13,7.13,0,0,1,4.23,4.47c.85,2.35,1.36,4.83,2.24,7.18.34.89,1.27,2.17,2,2.19a5.13,5.13,0,0,0,3.66-1.27c2.25-2.66,13.82-19.35,16.89-25.27.73-1.42,1.6-2.81,3.4-3.29.14.3.27.53.37.76,1,2.63,1.88,5.35,3.12,7.87,2.13,4.29,4.35,8.51,3.88,13.51,0,.31,1,8.43,1.52,12.16.11.76.44,1.92.94,2.09s1.53-.41,2.27-.76c.31-.15,4.36-4,5.92-5.41,1.83,2.51,3.46,4.8,5.15,7a1.44,1.44,0,0,0,1.2.5c1.43-.45,2.8-1,4.43-1.69a2.55,2.55,0,0,0,.65.38c.69.25,1,.09,1.12-.76a21.08,21.08,0,0,1,1-5.16c1.14-2.8,2.6-5.47,4-8.18.33-.64.62-1.49,1.18-1.79,1.84-1,2.08-1.36,1.31-3.43.64-.29.86-1.65,1.44-2.48,1.21-1.74,2.29-3.58,3.5-5.32,1.75-2.51,5-.74,5.41-3.77.18-1.47,13.86-5.26,15.38-6.35,0,1.8-1.62,8.31-.9,9.92l1.45-.19v12a12.57,12.57,0,0,0,2.69-1.72c1.14-1.28,6.75-11.26,8.07-13,1.1-1.42.76-2.63.63-4.13-3.51,4.36-5.05,9.76-9.38,13.8,0-2.32-.15-4.2,0-6.05s.88-3.8-.71-5.52c-.31-.33-.2-5.22-.29-6.93,0-.73-.59-3.93-.79-4.81h-.55c-.28.33-.7.62-.82,1-1.28,3.9-18.49,5.48-19.79,9.37-.49,1.46-.9,3.11-1.89,4.18a17.45,17.45,0,0,0-3,4.84,27.59,27.59,0,0,1-1.92,3.06c-.62-.51-1-1-1.53-1.18a2.36,2.36,0,0,0-1.74.17c-.28.18-.26,1-.19,1.51.31,2.06,2,4,.35,6.23-.5.67-.82,1.47-1.29,2.17a21.74,21.74,0,0,0-3.81,9.38,3.68,3.68,0,0,1-.3.89,14.77,14.77,0,0,0-2.77.6,1.32,1.32,0,0,1-1.89-.51c-1.35-2.11-2.81-4.2-1.61-6.91.12-.28.28-.7.17-.91a3.37,3.37,0,0,0-1.14-1.35,1.56,1.56,0,0,0-1.38.29c-2.51,2.12-5,4.31-7.46,6.46-.08.08-.29,0-.06,0-3.13-5.82-2-12.24-3.42-18.65l2.95,2.17-.29.18c.48.77,1,1.54,1.46,2.3l1.94-1.44,7.17,6.37c.45-.79,2.42-4,3.14-4.94s2.3-1.34,1.75-3c-.05-.15.23-.44.41-.62,2.33-2.5,5-2.61,8.13-1.34.43.17.9.28,1.35.41l.34-.59a7.41,7.41,0,0,0-1.77-1.52c-1.58-.67-1.78-1.82-1.35-3.2a27.23,27.23,0,0,1,1.34-3c.36.15.56.33.73.3a12.78,12.78,0,0,0,3-.73,4.65,4.65,0,0,0-.39-2.06,3.38,3.38,0,0,1,1.08-4.23,1.91,1.91,0,0,0,.75-1.43,26.1,26.1,0,0,0-1.24-5,34.13,34.13,0,0,0-2.34-4.23l.82-.36c1.85-.81,2.18-2.81.55-3.93a7,7,0,0,0-3-1.18c-1.52-.18-2.09-.78-1.83-2.26.19-1.14-.23-1.77-1.43-2.21-3.22-1.18-6.58-1.34-9.92-1.56a18.16,18.16,0,0,0-5.36.37c-1,.24-2.35,1.23-2.49,2.06-.22,1.27-1.07,1.94-1.5,2.89s-.1,2.29.13,3.41c0,.21,1.19.2,2.07.33.48.45,1.24,1.08,1.9,1.82a1.82,1.82,0,0,1,.35,1.17,33.18,33.18,0,0,1-1,5.31c-.39,1,.23,2.75,1.1,2.64,1-.12,2.06-.36,3.09-.56.75-.15,1.83-.13,1.59-1.27s-2.16-.33-2.32-.32c-.95,0-1.43-.13-.94-1.27.3-.69.32-5.16.32-6.65.44,0,1.12-.2,1.35,0,1.31,1.33,2.71.58,4.13.37,2.07-.32,2.34-.11,3.17,2a1.9,1.9,0,0,0,1.79,1.24c.88.12,2.41.87,2.39,1.26-.1,1.44.69,3-.51,4.36-.78.86-.42,1.65.15,2.55,1,1.64,3.71,2.87,1.61,5.44-.06.06,0,.2,0,.31-.34,2-.68,4-1.05,6.1l-2.6.41c0-.62,0-1,0-1.33-.39-3.18-1.4-4.33-4.65-2.75-1.13.55-2.27,1.1-3.45,1.54-.87.33-1.39.76-1.06,1.72s1.2.9,1.95.54c1.16-.57,2.26-1.28,3.42-1.84a6.74,6.74,0,0,1,1.64-.36c0,.69.15,1.51-.16,2-1.61,2.78-3.32,5.51-5.07,8.2-.94,1.45-1.2,1.42-2.45.18s-2.63-2.57-3.88-3.9c-.93-1-1.8-1.22-2.69,0l-3.56-2.62c-.45-2.82-.81-5.53-1.36-8.19a12.5,12.5,0,0,0-1.37-3.43c-.21-.39-.93-.51-1.42-.76-.15.56-.52,1.17-.41,1.67.39,1.84,1,3.63,1.41,5.46a8.33,8.33,0,0,1,0,1.87l-.46.23c-.15-.27-.34-.53-.46-.81-.85-2.08-1.82-4.13-2.5-6.26a5.12,5.12,0,0,0-4.53-3.77,1.51,1.51,0,0,0-1.13.59c-2.27,3.7-4.41,7.48-6.73,11.15-2.68,4.23-5.51,8.38-8.29,12.56-.4.61-.87,1.18-1.31,1.77l-.62-.28a5.15,5.15,0,0,1,.68-1.92,1.37,1.37,0,0,0,0-2.19,7.32,7.32,0,0,0-2.15-.87c-.19-1.15,1.22-3.6,2.57-3.77,1.65-.21,1.85-1.39,2.21-2.77a9,9,0,0,0-2.32.49c-.53.16-1.2.58-1.56.39-1-.53-4.22-3.33-5-3.74a3.78,3.78,0,0,0-2.25-.3,7.36,7.36,0,0,0-.42,2.89,4.4,4.4,0,0,0,1,1,15,15,0,0,1,.67-2,1.49,1.49,0,0,1,1.16.12,4.4,4.4,0,0,1,1.2,1.38c.56,1.07,1,2.19,1.57,3.48-1,1.76.12,7.55,2.23,9.61l-1.87,2c-2.19-.75-2.43-2.5-2.76-4-.54-2.53-1-5-3.09-6.85a5,5,0,0,1-1.11-1.7,3.85,3.85,0,0,0-2.65-2.5,1.7,1.7,0,0,1-1-.87,28.51,28.51,0,0,1-2.09-5.35,8.52,8.52,0,0,0-2.28-3.79c-.86-1-1.66-.94-2.7-.11-2.32,1.86-4.73,3.62-7.18,5.33a1.64,1.64,0,0,1-1.5-.18c-1.55-3.25-3.72-6.25-4-10s-.81-4.11-4.49-2.87a1.71,1.71,0,0,1-1.46-.26c-1.43-1.67-2.72-3.46-4.12-5.15-.78-.94-1.71-1.56-3-.74a7.92,7.92,0,0,1-1.85.53c-.17-1.53-.23-2.83-.48-4.1-.15-.79-.44-2-.92-2.17a3.74,3.74,0,0,0-2.52.68,41.85,41.85,0,0,0-3.54,2.68c-.72-2.66-1.44-5.09-2-7.56-.44-1.88-.38-3.58,2-4.39,1.31-.44,1.29-1.63.49-2.75a16.47,16.47,0,0,0,3.72-3c.24-.35.6-.84.5-1.14a1.53,1.53,0,0,0-1-.81c-.72-.14-1.5,0-2.21-.08a14,14,0,0,1-2.25-.88l2.39-1.83c1.48-1.18,1.47-1.42-.09-2.43-.12-.08-.18-.24-.3-.4.9-.49,3.84-3.67,5.36-3.74-.1-.53,0-1.26-.33-1.54a2.47,2.47,0,0,0-1.65-.25c-1.83.15-3.66.52-5.5.54-2.79,0-5.58-.22-8.37-.29a4.49,4.49,0,0,0-1.68.36c-3.47,1.26-6.82,1.49-10.08-.68a10.66,10.66,0,0,0-3.43-1.61c-2.78-.64-5-2.28-7.06-4-2.29-1.85-4.32-4-6.54-6a9,9,0,0,0-2.33-1.2,10.39,10.39,0,0,0-7-.47,72.55,72.55,0,0,0-7.36,1.82,21.36,21.36,0,0,0-10,7.08,4.89,4.89,0,0,1-3.19,1.69c-3.22.18-14.65-.1-17.12,0-2.19.09-4.37.44-6.56.51-1.69,0-3.38-.24-5.07-.26-3.6,0-42.05-.16-44.47-.17-4.18,0-8.36-.26-12.54-.24-6.58,0-13.15.21-19.73.31-.68,0-14.52.44-20.75.69-.69,0-4.84-.28-6-.3-2.32,0-4.64.11-7,.08-1.64,0-3.28-.36-4.91-.28-2.31.11-4.62.43-6.92.75-1.09.15-4.46,1.16-4.62,1-1.1-1.3-3.79,1.95-4.55,2.73-1,1-3.7,3.9-3.95,4.32-1,1.71-3.14,2.44-3.76,4.53a13.91,13.91,0,0,1-1.41,2.77v9l.08.12h-.08v5.92c1.19,1.86,6.11,5.85,6.31,6.13,1,1.39,6.27,8.67,7.65,8.67,2.81,0,5.61.06,8.41,0,1.14,0,1.55.26,1.62,1.48a70.43,70.43,0,0,0,.78,7.94c.87,5.38,1.88,10.73,2.89,16.09,1.2,6.38,2.32,12.77,5.16,18.73a72.85,72.85,0,0,1,3.71,9c1,3,3.89,4.39,5.28,7.15,2.3,4.56,6.85,7,11.32,9.17,2,1,4.08,1.86,6.25,2.83a5.27,5.27,0,0,1-.76,1.1,16.12,16.12,0,0,0-5.14,7.82,42.73,42.73,0,0,0-1.58,8.92c-.55,4.73,1,9.17,2.63,13.46a38.81,38.81,0,0,0,7.18,12.45A56.44,56.44,0,0,0,118.93,373a82.59,82.59,0,0,1,12.92,9.83c3.44,3.09,6,6.89,8.71,10.55,1.75,2.35,3.48,4.73,5,7.22,3.16,5.07,6.37,10.14,9.25,15.38,2.06,3.77,3.64,7.8,5.41,11.72,1.27,2.83,2.59,5.64,3.7,8.53.7,1.84,2.25-.94,1.82-1s-.68.26-1,.4l-.22-.38c.48-.37-1.66-8.72-3.1-11.91-1.08-2.41-2.14-4.84-3.43-7.14-2.71-4.86-5.52-9.67-8.38-14.44-1.83-3.05-3.7-6.1-5.8-9q-3.81-5.2-8.09-10.08c-1.65-1.87-3.84-3.27-5.55-5.1-2.49-2.65-5.65-4.34-8.56-6.38s-6.27-3.89-9-6.28a40.43,40.43,0,0,1-11.53-16.23,39.55,39.55,0,0,1-2.36-7.8,33.05,33.05,0,0,1,0-7.89,18.26,18.26,0,0,1,2.92-9.16c1-1.36,2.1-2.61,2.95-4,.66-1.1,1.43-1,2.4-.72a34.44,34.44,0,0,0,3.91,1.19q6.56,1.23,13.13,2.29a32.36,32.36,0,0,0,5.36.54c4.18,0,15.18-.06,16.48-.16,3.89-.31,7.8-.6,11.64-1.21,3.38-.54,20.63-4.58,21.74-5.27,2.29-1.41,4.6-2.79,6.89-4.19a68.93,68.93,0,0,0,9-7.63c2.16-2.9,4.17-5.9,6.29-8.83.47-.66,1.38-1.07,1.69-1.76,1.08-2.51,2-5.06,3-7.63.87-2.4,4.06-11.83,4-14.1-.06-3.27,2-15.71,2.56-17.39,1.17-3.7,2.5-13.12,3-13.83,1.63-2.53,3.1-5.28,5.2-7.38,2.9-2.91,6.42-5.14,10.76-5.5,2.42-.2,4.86-.23,7.28-.43,5.59-.47,9.51,2.09,12.49,6.55,2,3,6.7,17.6,7.14,20.11,1,5.36,1.54,10.8,2.33,16.2.73,5,1.24,10,2.35,14.91,1.37,6,3.2,11.83,5,17.7a28.16,28.16,0,0,0,11.35,15.86,46.14,46.14,0,0,0,11,5c2.7.89,5.71,1,8.6,1.2,5.39.44,21.15,1.09,22.29.94,4.8-.64,17.39-.46,18.88-.58,1.18-.1,2.41-.41,2.51,1.43a3.8,3.8,0,0,0,.66,1.42c2.29,4.32,3.43,8.81,2,13.67a5.28,5.28,0,0,0-.08,1.26c-.07,3.27,0,6.55-2.91,8.93-.43.35-.56,1-1,1.44-1.67,1.7-2.77,3.91-5.1,5.06-1.78.88-3.43,4.33-2.86,6.72.51,2.12.68,4.21-.9,6.12a23.52,23.52,0,0,0-3.62,5.11c-1.68,3.74-4.52,6.64-6.75,10-1.33,2-2.49,3.81-.79,6.14a4.39,4.39,0,0,1,.94,2.16,12.51,12.51,0,0,1-.34,4.54,32.62,32.62,0,0,1-2.65,4.73c-.64,1.16-1.11,2.43-1.81,3.55a9,9,0,0,0-1.23,7.17c.9,3.74,1.66,7.51,1.23,11.37-.35,3.09-.84,6.13-3.94,8-3.66,2.17-7.35,4.33-10.83,6.76-2.39,1.67-4.82,3.51-5.58,6.6-.3,1.2-.15,2.55-.64,3.65-1.54,3.5-3.25,6.93-4.95,10.35a37.63,37.63,0,0,1-2.73,4.94,22.14,22.14,0,0,1-3.53,4c-1.06.94-2.56,1.41-3.59,2.37s-2.58,2.36-2.76,3.7c-.29,2.21-1.49,3-3.23,3.73a2.47,2.47,0,0,0-1.14,1.18,13.35,13.35,0,0,0-.91,2.67,4.3,4.3,0,0,0-.15,2C274,487.63,276.2,482.58,278.16,481.77ZM393.22,240.28c-.78.28-1.81,1-2.44,0-.73-1.12.31-1.92,1.31-2.66ZM388,234.39l-.31-.54v-2.92l5.69.86C391.9,234.05,389.32,232.63,388,234.39ZM70.65,222.28c-.37,2.38-.66,4.77-1,7.16a6.22,6.22,0,0,1-.39,1.12h-.43a9.91,9.91,0,0,1-.19-1.33c0-2.67.13-5.35.08-8a13.94,13.94,0,0,0-.59-3.37c-.61-2.3.1-4.31,1.34-6.61a7.32,7.32,0,0,1,.84,1.53A25.41,25.41,0,0,1,70.65,222.28Zm4.68,53.21-.27.1q-1.65-9.19-3.31-18.39l.46-.29a22.53,22.53,0,0,1,2.24,3.5,12.42,12.42,0,0,1,.85,4.13C75.41,268.19,75.33,271.84,75.33,275.49Zm3.37-70.75c-1.5.06-3-.06-4.51-.11-.57,0-1.14-.08-1.71-.11a5.45,5.45,0,0,1-1.87-.11c-2.18-1-4.35-.4-6.52-.09a2.36,2.36,0,0,0-2,2.36c-.41,3.5-.8,7-1.21,10.49a69.85,69.85,0,0,0-.93,8,57.33,57.33,0,0,0,.8,9.33c.46,2.84.45,5.43-1.74,7.6a3.92,3.92,0,0,1-.86.4c-.11-1.82-.24-3.46-.3-5.09-.13-3.41-.26-6.82-.31-10.23s0-6.81,0-10.22c.08-4,.24-8.06.38-12.09,0-1.05.32-1.76,1.64-1.8,5.88-.22,11.76-.64,17.64-.76,7-.15,14.07,0,21.11-.1,3.7,0,7.41-.24,11.12-.49a5.78,5.78,0,0,0,1.92-.79,7.88,7.88,0,0,0,2.35.82c7.2-.05,14.39-.11,21.59-.35a40,40,0,0,1,4.4-.1c5.32.4,10.7.13,16.05.08,2.11,0,4.21-.1,6.31-.19.45,0,.89-.27,1.35-.29A7.09,7.09,0,0,1,165,201a10.5,10.5,0,0,0,1.3.29c5.78.2,11.56.37,17.33.56a2.11,2.11,0,0,1,.66.29l0,.45c-1.32.05-2.65.13-4,.13-2.74,0-5.48,0-8.23,0-3.95,0-7.9.1-11.85.17-4.82.08-9.65.27-14.47.24-2.26,0-4.52-.65-6.77-.61-4.66.07-9.32.43-14,.61-4.91.18-9.83.24-14.74.45-3.12.14-6.24.71-9.35.65-3.81-.06-7.52,1-11.48.17C86,203.71,82.28,204.61,78.7,204.74Zm5.07,8.95c-.28-1-.1-1.48,1.13-1.63,6.77-.82,13.53-1.53,20.36-1.89,4-.21,8-.6,12.08-.84a56.32,56.32,0,0,0,6.77-.4,22.15,22.15,0,0,1,6.3.09,6.26,6.26,0,0,0,2.05-.47,40,40,0,0,1,6.35-1.62c4-.37,8-.36,12.07-.5a1.19,1.19,0,0,1,.63,0c2.71,1.69,5.64.71,8.49.69.11,0,.24,0,.31,0,2.86,2,5.95.37,8.93.56,2.1.13,4.23-.08,6.35-.13.16,0,.38,0,.46.05,1.88,1.94,4.45,1,6.66,1.49s4.73.46,7.08.79a26.74,26.74,0,0,1,3.66,1.09c-1.81,1.66-3.57,1.47-5.25,1.4-2.58-.11-5.15-.41-7.73-.51-3.95-.13-7.91-.24-11.86-.21-4.69,0-9.38.22-14.06.35-5.51.15-11,.16-16.52.51-3.48.23-7,.09-10.44.4-3.79.34-7.6.22-11.38.6-2.23.23-4.46.54-6.7.57s-4.18-.41-6.27-.4c-1.77,0-3.54.51-5.31.5-4.13,0-8.31,1-12.4-.44A6.68,6.68,0,0,0,83.77,213.69Zm88.35,93.38c-3.32,1.76-6.64,3.55-10.09,5-1.31.55-3,.28-4.48.36-5.19.28-10.38.63-15.57.75a25.34,25.34,0,0,1-5.65-.76c-3.6-.73-7.21-1.48-10.76-2.42a38.48,38.48,0,0,1-5.4-2.16,5.23,5.23,0,0,1-1.19-1.08l.22-.43,6,1.53c3.26.81,6.48,2,9.78,2.32,4.14.35,8.33-.09,12.5-.2a28.21,28.21,0,0,0,3.8-.17c4.11-.68,8.2-1.44,12.29-2.21,1.76-.33,3.52-.69,5.24-1.18,1.46-.42,2.84-1.07,4.27-1.6.61-.22,1.25-.38,1.88-.57l.27.47A25.75,25.75,0,0,1,172.12,307.07Zm4.94-7.08c-3.52,2.4-7.46,3.56-11.39,4.79a52.27,52.27,0,0,1-8,1.38c-4.29.62-8.57,1.42-12.89,1.69a49.91,49.91,0,0,1-11.2-.42c-5-.85-9.92-2.4-14.88-3.57A48.49,48.49,0,0,1,106.58,299,32.05,32.05,0,0,1,95,288.47c-2.08-3.19-3.28-7-4.67-10.54a78.63,78.63,0,0,1-2.85-8.81,76,76,0,0,1-2.67-14.5,7.77,7.77,0,0,0-.55-1.91c.32-.67.82-1.21.81-1.74-.08-2.83-.27-5.65-.46-8.47-.22-3.09-.88-6.36.53-9.17,1.26-2.51,3.36-4.64,5.27-6.78A3.43,3.43,0,0,1,93,226a51.83,51.83,0,0,0,12.93-.64c1-.14,2,.15,3,.07,7.11-.54,14.19.2,21.29.31,3.65.06,7.3-.38,11-.43,3.17,0,6.35.14,9.53.25,4.39.15,8.78.43,13.18.45,6.08,0,12.16-.16,18.24-.21,3.11,0,6.22-.07,9.32.11a13.82,13.82,0,0,1,4.38,1.09c.55.24.87,1.26,1.1,2,1.27,3.9,1,7.9.63,11.9-.38,4.72-.52,9.47-1.13,14.16s-1.59,9.63-2.59,14.41c-.88,4.19-1.86,8.37-3.08,12.46a36.15,36.15,0,0,1-2.89,5.94A32.49,32.49,0,0,1,177.06,300Zm24.73-48.19c-.26,2.83-.42,5.67-.51,8.51-.13,4.27-1.67,8.19-3,12.16a121.21,121.21,0,0,1-4.08,11.87c-1.37,3-1.91,6.73-5.25,8.64-.36.21-.74.39-1.38.73.11-.58.08-.81.19-.95a36.47,36.47,0,0,0,6.77-14.82c1.3-5.88,2.81-11.72,3.89-17.63a107.56,107.56,0,0,0,1.16-11.77c.36-5,.6-9.95.89-14.92l.39-.11c.33,1.57.57,3.16,1,4.71C203.09,242.76,202.2,247.27,201.79,251.8Zm21.48-53.65a4.27,4.27,0,0,0-1.43,2.47c-.3,1.4-.53,2.43-2.38,2.43-2.87,0-5.75.24-8.63.41-.78,0-1.55.23-2.33.35A23.15,23.15,0,0,1,195,201.94c.37-.17.55-.32.72-.32,4.5.08,9,.14,13.5.29,1.14,0,2.27.53,3.4.52,1.58,0,3.28-.05,3.92-2.2l.35.3.48,1.53.39.1c.12-.43.46-1,.3-1.26-.48-.91.08-1.34.58-1.89a24.18,24.18,0,0,1,8.24-6,10.86,10.86,0,0,1,2.29-.6c2.48-.48,5-1,7.45-1.39a5.89,5.89,0,0,1,1.44.1l.1.63c-3.1-.22-4.93,2.05-7.3,3.26-1.09.56-2.37.74-3.51,1.21A20.07,20.07,0,0,0,223.27,198.15Zm6.76,9.19c1.88-2.33,3.51-4.54,5.38-6.54.46-.49,1.72-.46,2.58-.34,3.59.48,5,.54,5.89,4.22.21.86,1.26,1.54,2.27,2.69C240.74,205.38,235.61,207,230,207.34Zm36.4-.18c-.51,0-1.07-.72-1.51-1.29,5.08-.8,10-2.44,15.14-1.31a3.15,3.15,0,0,1,.08.71c0,.19-.12.38-.05.2-1.68.29-3.09.61-4.52.78C272.53,206.61,269.48,207,266.43,207.16Z"/></svg>