<svg id="AlterEgo_Image" data-name="AlterEgo Image" xmlns="http://www.w3.org/2000/svg" viewBox="0 0 95.87 800"><title>Arrow</title><polygon points="23.49 734.82 27.15 731.4 47.93 749.46 68.72 731.4 72.38 734.82 47.93 756.8 23.49 734.82"/><path d="M49.21,680.55a2,2,0,0,1,1.68.77,3.31,3.31,0,0,1,.61,2.13,4.9,4.9,0,0,1-.47,2.22H49.48a8,8,0,0,0,.5-1.34,3.92,3.92,0,0,0,.15-1,1.45,1.45,0,0,0-.21-.84.73.73,0,0,0-.62-.29.68.68,0,0,0-.42.13,1.29,1.29,0,0,0-.34.38,8.6,8.6,0,0,0-.53,1,5.33,5.33,0,0,1-.65,1.08,2.56,2.56,0,0,1-.73.58,2.1,2.1,0,0,1-1,.21,2,2,0,0,1-1.63-.7,2.94,2.94,0,0,1-.6-2,4.91,4.91,0,0,1,.14-1.16,9.13,9.13,0,0,1,.41-1.17l1.3.54a8.77,8.77,0,0,0-.36,1,3.21,3.21,0,0,0-.1.81,1.05,1.05,0,0,0,.22.72.7.7,0,0,0,.57.26.66.66,0,0,0,.38-.11,1,1,0,0,0,.32-.32,9.4,9.4,0,0,0,.55-1.06A4.34,4.34,0,0,1,47.92,681,2.05,2.05,0,0,1,49.21,680.55Z"/><path d="M51.4,672.41v4.52H43.54v-4.52h1.37v2.86h1.72v-2.66H48v2.66h2v-2.86Z"/><path d="M51.4,668.57H43.54v-1.66H50v-3.19H51.4Z"/><path d="M51.4,655.63v4.53H43.54v-4.53h1.37v2.86h1.72v-2.66H48v2.66h2v-2.86Z"/><path d="M44.82,648.46a1.71,1.71,0,0,0,.7,1.46,3.32,3.32,0,0,0,2,.51c1.75,0,2.63-.66,2.63-2a6.12,6.12,0,0,0-.42-2h1.4a5.51,5.51,0,0,1,.4,2.16,3.28,3.28,0,0,1-1,2.62,4.41,4.41,0,0,1-3,.91,4.86,4.86,0,0,1-2.15-.45,3.31,3.31,0,0,1-1.41-1.28,3.78,3.78,0,0,1-.49-2,5.28,5.28,0,0,1,.55-2.3l1.36.54a8.24,8.24,0,0,0-.37.88A2.76,2.76,0,0,0,44.82,648.46Z"/><path d="M51.4,639.56v1.66H44.93v2.13H43.54v-5.93h1.39v2.14Z"/><path d="M51.4,629.49V634H43.54v-4.53h1.37v2.86h1.72v-2.66H48v2.66h2v-2.86Z"/><path d="M47.39,619.14a3.83,3.83,0,0,1,3,1.11,4.46,4.46,0,0,1,1,3.18v2.23H43.54v-2.47a4.11,4.11,0,0,1,1-3A3.73,3.73,0,0,1,47.39,619.14Zm0,1.73c-1.69,0-2.53.75-2.53,2.24V624H50v-.71C50,621.67,49.16,620.87,47.44,620.87Z"/><path d="M51.4,602.61v1.89l-4.13,1.07-.91.2c-.46.09-.77.15-.93.16.2,0,.51.08.93.16l.92.2,4.12,1.06v1.89l-7.86,2v-1.63l4.29-1c.79-.17,1.48-.3,2.06-.38-.21,0-.52-.07-1-.15s-.76-.15-1-.21l-4.4-1.15v-1.57l4.4-1.15.9-.19,1-.17c-.28,0-.63-.09-1-.17l-1-.21-4.29-1v-1.64Z"/><path d="M47.46,590.29a4.29,4.29,0,0,1,3,1,4.21,4.21,0,0,1,0,5.54,4.27,4.27,0,0,1-3,1,4.21,4.21,0,0,1-3-1,4.24,4.24,0,0,1,0-5.55A4.27,4.27,0,0,1,47.46,590.29Zm0,5.74a3.28,3.28,0,0,0,2-.5,1.77,1.77,0,0,0,.67-1.5c0-1.33-.89-2-2.65-2s-2.65.66-2.65,2a1.78,1.78,0,0,0,.66,1.5A3.26,3.26,0,0,0,47.46,596Z"/><path d="M48.38,584.8h3v1.67H43.54v-2.29a3.9,3.9,0,0,1,.59-2.37A2.07,2.07,0,0,1,45.9,581a2.11,2.11,0,0,1,1.23.38A2.55,2.55,0,0,1,48,582.5c1.77-1.18,2.91-2,3.43-2.31V582l-3,1.88Zm-1.35,0v-.54a2.1,2.1,0,0,0-.26-1.16,1,1,0,0,0-.83-.38.87.87,0,0,0-.8.39,2.4,2.4,0,0,0-.23,1.19v.5Z"/><path d="M51.4,570.69v1.89l-3.31,2.06.5.7H51.4V577H43.54v-1.66h3.6l-.93-.66-2.67-2.12v-1.85L47,573.45Z"/><path d="M49.21,562.87a2,2,0,0,1,1.68.76,3.31,3.31,0,0,1,.61,2.13A4.9,4.9,0,0,1,51,568H49.48a8.32,8.32,0,0,0,.5-1.34,3.86,3.86,0,0,0,.15-1,1.45,1.45,0,0,0-.21-.84.7.7,0,0,0-.62-.29.68.68,0,0,0-.42.13,1.37,1.37,0,0,0-.34.37,10.05,10.05,0,0,0-.53,1,5.33,5.33,0,0,1-.65,1.08,2.56,2.56,0,0,1-.73.58,2.1,2.1,0,0,1-1,.21,2,2,0,0,1-1.63-.7,3,3,0,0,1-.6-2,4.91,4.91,0,0,1,.14-1.16A9.13,9.13,0,0,1,44,562.9l1.3.54a8.77,8.77,0,0,0-.36,1,3.21,3.21,0,0,0-.1.81A1.05,1.05,0,0,0,45,566a.7.7,0,0,0,.57.25.65.65,0,0,0,.38-.1,1.08,1.08,0,0,0,.32-.32,9.4,9.4,0,0,0,.55-1.06,4.24,4.24,0,0,1,1.06-1.51A2,2,0,0,1,49.21,562.87Z"/><polygon points="45.44 697.69 45.44 751.18 50.44 751.38 50.44 697.69 45.44 697.69"/><polygon points="50.44 551.16 50.44 0.16 45.44 -0.04 45.44 551.16 50.44 551.16"/></svg>