<svg id="Icons" xmlns="http://www.w3.org/2000/svg" width="40" height="40" viewBox="0 0 200 200"><title>MHM-Icon</title><g id="Behance"><path d="M125.75,76.38s.16,1.82.83,2.41c1.1,1,3.8.85,5.26.91,5.19.23,10.41,0,15.6,0,4.76,0,9.57.54,14.32.33s4.47-4.92,4.67-8.17-.6-4.57-4.38-5.24c-4.82-.85-10-.26-14.93-.12s-9.79.46-14.69.67c-1.24.05-7.49-.81-6.86,1.36A47.65,47.65,0,0,0,125.75,76.38Z" style="fill:#2a2722"/><path d="M109.83,124.89c0,10.67,3.71,23.34,15.66,30.31,10.23,6,31.33,6.94,41.37.07,4.31-2.95,8.47-5.37,9.78-10,1-3.7,4-9.38,1.64-10.51-1.89-.91-9.49-.19-11.49.49a13.61,13.61,0,0,1-2.1,4.23c-2.93,4.33-11.36,4.47-15.46,5.12s-14.18-.13-15.82-1.81-5.34-4.95-5.84-7.06c-.27-1.12-1.83-4.39-1.05-6.89,6.65-.8,23.08.41,29.9.33,5.92-.07,20.78,2.13,22.86-.66s-.55-17.63-2.63-21.92c-2.44-5.05-5.2-9.18-9.84-12.63-10.7-8-25.86-8.85-37.77-2.52S109.83,107.82,109.83,124.89ZM147.09,116c-6.93.67-12.42-1-19.34-.16.49-9.19,12.71-13.51,15.73-14,1.26-.16,9-1,12.69,2.25,2,1.77,9.47,6.67,9.47,12.36C165.27,116.59,147.09,116,147.09,116Zm5-13.44a.33.33,0,0,0,.14,0l-.14,0Zm2.6.64a2.47,2.47,0,0,1,.27.09l-.27-.09ZM157,105s.06.08.1.13L157,105Z" style="fill:#2a2722"/><path d="M32,157.7c6-.1,12,.06,17.94-.13,11.34-.37,23,1.56,33.87-2.51a20.83,20.83,0,0,0,13.66-18c.42-5.6,1.22-9.83.06-15.68a24.07,24.07,0,0,0-3.36-7.6c-1.11-1.75-2.42-4-5-5.35a12.67,12.67,0,0,1-3-1.73c8-4.75,12.67-14.79,7.86-27.8C89.47,66.52,79.92,64.43,67.6,64.08,60.07,63.87,52.52,63.94,45,64c-7.21.08-14.89-.34-22,.69-3.35.48-2.55-1.16-2.58,1.84,0,4,0,8,.11,12,.22,7.19-.35,14.38,0,21.58.44,8.32.7,16.71.47,25s.28,16.78-.63,25a29.64,29.64,0,0,0-.25,7.21S28.68,157.76,32,157.7Zm5.71-60.95c-.17-4.14-.45-8.26-.46-12.41,0-.54-.26-4.1.1-4.5s34.61-1.66,38.85,1.67c0,0,2.64,3.17,3,4.39.88,2.75.71,5.57.28,8.89-.29,2.28-1.35,5.84-5,6.53-2.2.41-17.15.7-20.29.63s-13.95-.22-16.17-.59c-.79,0-.27-4-.29-4.62Zm-.45,19.11c6.74-1,28,.06,36.84.25,6,.12,9.12,7.12,9.06,13.3,0,3.43-1.52,7.57-3.15,9.11-2.43,2.43-5.37,2.12-5.87,2.37s-30.37.86-36.21.86a47.67,47.67,0,0,1-.25-4.81c0-4.06-.54-7.95-.42-12C37.2,125.47,37.23,115.86,37.23,115.86Zm4.71-13,.14,0-.14,0Zm28.23,38Z" style="fill:#2a2722"/></g></svg>