<svg xmlns="http://www.w3.org/2000/svg" xmlns:xlink="http://www.w3.org/1999/xlink" width="1025" height="210" viewBox="0 0 1025 210"><defs><linearGradient id="a" x1="1" y1="0.5" x2="0.131" y2="0.5" gradientUnits="objectBoundingBox"><stop offset="0" stop-color="#ffa800"/><stop offset="1" stop-color="#ffba00"/></linearGradient></defs><g transform="translate(-26 -36)"><g transform="translate(182 66)" fill="#a1ebe8" stroke="#fff" stroke-width="5"><circle cx="75" cy="75" r="75" stroke="none"/><circle cx="75" cy="75" r="77.5" fill="none"/></g><g transform="translate(132 66)" fill="#18b5be" stroke="#fff" stroke-width="5"><circle cx="75" cy="75" r="75" stroke="none"/><circle cx="75" cy="75" r="77.5" fill="none"/></g><g transform="translate(31 41)" fill="#178f9c" stroke="#fff" stroke-width="5"><circle cx="100" cy="100" r="100" stroke="none"/><circle cx="100" cy="100" r="102.5" fill="none"/></g><g transform="translate(-7)"><g transform="translate(521 66)" stroke="#fff" stroke-width="5" fill="url(#a)"><circle cx="75" cy="75" r="75" stroke="none"/><circle cx="75" cy="75" r="77.5" fill="none"/></g><g transform="translate(421 41)" fill="#fe9600" stroke="#fff" stroke-width="5"><circle cx="100" cy="100" r="100" stroke="none"/><circle cx="100" cy="100" r="102.5" fill="none"/></g></g><g transform="translate(7)"><g transform="translate(889 66)" fill="#807568" stroke="#fff" stroke-width="5"><circle cx="75" cy="75" r="75" stroke="none"/><circle cx="75" cy="75" r="77.5" fill="none"/></g><g transform="translate(814 66)" fill="#c00" stroke="#fff" stroke-width="5"><circle cx="75" cy="75" r="75" stroke="none"/><circle cx="75" cy="75" r="77.5" fill="none"/></g><g transform="translate(739 66)" fill="#36a900" stroke="#fff" stroke-width="5"><circle cx="75" cy="75" r="75" stroke="none"/><circle cx="75" cy="75" r="77.5" fill="none"/></g></g></g></svg>