<svg xmlns="http://www.w3.org/2000/svg" viewBox="0 0 590.33 160.29"><defs><style>.cls-1{fill:#fb9502;}</style></defs><title>DesignSpine</title><g id="Page3"><path class="cls-1" d="M9.17,17.67h6.61l5.38,17,5.36-17h6.63L24,41.68H18.38Z"/><path class="cls-1" d="M37.58,21.66V17h6.33v4.7Zm.07,20v-18h6.19v18Z"/><path class="cls-1" d="M49,29.43a5.24,5.24,0,0,1,2-4.43,8.31,8.31,0,0,1,5.15-1.53,9.83,9.83,0,0,1,5.16,1.45V29a8.77,8.77,0,0,0-4.15-1.3q-1.95,0-1.95,1.23c0,.24.26.47.8.71s1.17.52,1.93.82a21.06,21.06,0,0,1,2.25,1.09,5.54,5.54,0,0,1,1.91,1.86A5.3,5.3,0,0,1,63,36.29a4.92,4.92,0,0,1-2,4.06,8,8,0,0,1-5.15,1.57,11,11,0,0,1-6.08-1.76v-4.8a8.87,8.87,0,0,0,5.43,2.2c1.08,0,1.62-.33,1.62-1,0-.32-.27-.6-.79-.85s-1.17-.51-1.93-.79a23.86,23.86,0,0,1-2.28-1,5.25,5.25,0,0,1-2-1.75A4.78,4.78,0,0,1,49,29.43Z"/><path class="cls-1" d="M68.12,21.66V17h6.33v4.7Zm.07,20v-18h6.19v18Z"/><path class="cls-1" d="M81.87,39.55q-2.25-2.37-2.25-6.84t2.25-6.84a8.39,8.39,0,0,1,6.39-2.37,8.39,8.39,0,0,1,6.39,2.37q2.25,2.39,2.25,6.84t-2.25,6.84a8.39,8.39,0,0,1-6.39,2.37A8.39,8.39,0,0,1,81.87,39.55ZM88.26,28c-1.64,0-2.45,1.58-2.45,4.74s.81,4.75,2.45,4.75,2.45-1.58,2.45-4.75S89.89,28,88.26,28Z"/><path class="cls-1" d="M101.93,41.68v-16a19.63,19.63,0,0,1,8.93-2.17,8.63,8.63,0,0,1,6,2,7.21,7.21,0,0,1,2.23,5.6V41.68H113V30.14a2.35,2.35,0,0,0-.15-.9,1.73,1.73,0,0,0-.84-.72,4.55,4.55,0,0,0-2-.36,7.43,7.43,0,0,0-1.81.21V41.68Z"/><path class="cls-1" d="M137.13,41.68v-10h2.37a3.47,3.47,0,0,1,2.71,1.09,4.5,4.5,0,0,1,1,3.07v1.67a4.34,4.34,0,0,1-1,3.05,3.61,3.61,0,0,1-2.83,1.08Zm1.25-8.88v7.8h1a2.33,2.33,0,0,0,1.93-.75,3.56,3.56,0,0,0,.62-2.24V35.84a3.63,3.63,0,0,0-.6-2.31,2.22,2.22,0,0,0-1.83-.73Z"/><path class="cls-1" d="M147.94,41.81a2.71,2.71,0,0,1-2.12-.82,3.57,3.57,0,0,1-.75-2.42v-.89a4.2,4.2,0,0,1,.72-2.6,2.42,2.42,0,0,1,2-.94,2.32,2.32,0,0,1,1.94.83,4.18,4.18,0,0,1,.65,2.58v.79h-4.12v.17a2.74,2.74,0,0,0,.44,1.73,1.58,1.58,0,0,0,1.29.54,2.13,2.13,0,0,0,.94-.2,2.24,2.24,0,0,0,.76-.64l.63.77A2.75,2.75,0,0,1,147.94,41.81Zm-.13-6.63a1.27,1.27,0,0,0-1.12.52,3,3,0,0,0-.41,1.6h2.91v-.16a2.88,2.88,0,0,0-.37-1.51A1.19,1.19,0,0,0,147.81,35.18Z"/><path class="cls-1" d="M154.21,39.84l1.41-5.56h1.23l-2.2,7.4h-.9l-2.22-7.4h1.23Z"/><path class="cls-1" d="M161,41.81a2.69,2.69,0,0,1-2.12-.82,3.57,3.57,0,0,1-.75-2.42v-.89a4.2,4.2,0,0,1,.72-2.6,2.41,2.41,0,0,1,2-.94,2.29,2.29,0,0,1,1.94.83,4.24,4.24,0,0,1,.66,2.58v.79h-4.13v.17a2.68,2.68,0,0,0,.45,1.73,1.58,1.58,0,0,0,1.29.54,2.16,2.16,0,0,0,.94-.2,2.34,2.34,0,0,0,.76-.64l.63.77A2.75,2.75,0,0,1,161,41.81Zm-.14-6.63a1.25,1.25,0,0,0-1.11.52,3,3,0,0,0-.41,1.6h2.91v-.16a2.87,2.87,0,0,0-.38-1.51A1.17,1.17,0,0,0,160.87,35.18Z"/><path class="cls-1" d="M166.58,41.68h-1.21V31.18h1.21Z"/><path class="cls-1" d="M168.57,37.64a3.84,3.84,0,0,1,.79-2.56,2.76,2.76,0,0,1,4.13,0,3.78,3.78,0,0,1,.8,2.5v.77a3.86,3.86,0,0,1-.77,2.55,2.59,2.59,0,0,1-2.08.93,2.55,2.55,0,0,1-2.06-.91,3.75,3.75,0,0,1-.81-2.46Zm1.21.69a3.13,3.13,0,0,0,.45,1.8,1.4,1.4,0,0,0,1.21.65q1.59,0,1.65-2.31v-.83a3.15,3.15,0,0,0-.46-1.8,1.42,1.42,0,0,0-2.4,0,3.14,3.14,0,0,0-.45,1.79Z"/><path class="cls-1" d="M181.55,38.33a4.42,4.42,0,0,1-.63,2.62,2.07,2.07,0,0,1-1.79.86,2,2,0,0,1-1.72-.84v3.55h-1.2V34.28h1.09l.07.82a1.93,1.93,0,0,1,1.74-1,2.1,2.1,0,0,1,1.82.85,4.48,4.48,0,0,1,.62,2.54Zm-1.2-.69a3.36,3.36,0,0,0-.39-1.83,1.33,1.33,0,0,0-1.23-.59,1.42,1.42,0,0,0-1.32.87v3.84a1.43,1.43,0,0,0,1.34.85,1.33,1.33,0,0,0,1.2-.59,3.42,3.42,0,0,0,.4-1.81Z"/><path class="cls-1" d="M184.6,34.28l0,.68a2.21,2.21,0,0,1,1.78-.82,1.75,1.75,0,0,1,1.73,1.08,2.19,2.19,0,0,1,1.94-1.08c1.36,0,2.06.85,2.09,2.55v5H191V36.81a2,2,0,0,0-.29-1.2,1.12,1.12,0,0,0-1-.39,1.1,1.1,0,0,0-.89.42,1.92,1.92,0,0,0-.39,1.08v5h-1.22V36.76c0-1-.43-1.54-1.25-1.54a1.31,1.31,0,0,0-1.29.91v5.55h-1.21v-7.4Z"/><path class="cls-1" d="M197,41.81a2.69,2.69,0,0,1-2.12-.82,3.57,3.57,0,0,1-.75-2.42v-.89a4.2,4.2,0,0,1,.72-2.6,2.41,2.41,0,0,1,2-.94,2.31,2.31,0,0,1,1.94.83,4.24,4.24,0,0,1,.66,2.58v.79h-4.13v.17a2.68,2.68,0,0,0,.45,1.73,1.58,1.58,0,0,0,1.29.54,2.16,2.16,0,0,0,.94-.2,2.34,2.34,0,0,0,.76-.64l.63.77A2.77,2.77,0,0,1,197,41.81Zm-.14-6.63a1.25,1.25,0,0,0-1.11.52,3,3,0,0,0-.41,1.6h2.91v-.16a2.87,2.87,0,0,0-.38-1.51A1.17,1.17,0,0,0,196.85,35.18Z"/><path class="cls-1" d="M202.39,34.28l0,.8a2.18,2.18,0,0,1,1.8-.94c1.31,0,2,.88,2,2.62v4.92H205V36.82a2.07,2.07,0,0,0-.29-1.24,1.07,1.07,0,0,0-.87-.36,1.2,1.2,0,0,0-.81.3,2.1,2.1,0,0,0-.58.78v5.38h-1.21v-7.4Z"/><path class="cls-1" d="M210,32.49v1.79h1.11v1H210v4.59a1.36,1.36,0,0,0,.14.67.54.54,0,0,0,.49.22,1.67,1.67,0,0,0,.49-.08v1a2.74,2.74,0,0,1-.85.13,1.28,1.28,0,0,1-1.09-.51,2.41,2.41,0,0,1-.38-1.45V35.26h-1.12v-1h1.12V32.49Z"/><path class="cls-1" d="M217.82,32.32a.76.76,0,0,1-.18.51.61.61,0,0,1-.51.21.64.64,0,0,1-.52-.21.8.8,0,0,1-.17-.51.81.81,0,0,1,.17-.52.64.64,0,0,1,.52-.21.62.62,0,0,1,.51.21A.8.8,0,0,1,217.82,32.32Zm-.1,9.36h-1.21v-7.4h1.21Z"/><path class="cls-1" d="M223.57,39.78a.89.89,0,0,0-.3-.67,4.41,4.41,0,0,0-1.13-.65,7.82,7.82,0,0,1-1.38-.69,1.87,1.87,0,0,1-.6-.66,1.8,1.8,0,0,1-.2-.87,1.94,1.94,0,0,1,.66-1.5,2.41,2.41,0,0,1,1.69-.6,2.37,2.37,0,0,1,1.73.63,2.14,2.14,0,0,1,.66,1.62h-1.2a1.18,1.18,0,0,0-.34-.86,1.14,1.14,0,0,0-.85-.35,1.17,1.17,0,0,0-.84.28,1,1,0,0,0-.3.74.8.8,0,0,0,.22.59,3.78,3.78,0,0,0,1.07.59,5.55,5.55,0,0,1,1.83,1,1.81,1.81,0,0,1,.49,1.28,2,2,0,0,1-.67,1.55,2.61,2.61,0,0,1-1.77.57,2.66,2.66,0,0,1-1.88-.66,2.18,2.18,0,0,1-.72-1.68H221a1.26,1.26,0,0,0,1.38,1.31,1.35,1.35,0,0,0,.91-.27A.91.91,0,0,0,223.57,39.78Z"/><path class="cls-1" d="M230,37.64a4.42,4.42,0,0,1,.64-2.6,2.12,2.12,0,0,1,1.84-.9,1.9,1.9,0,0,1,1.65.87V31.18h1.21v10.5h-1.11l-.06-.8a1.9,1.9,0,0,1-1.7.93,2.08,2.08,0,0,1-1.8-.89A4.22,4.22,0,0,1,230,38.4Zm1.21.69a3.48,3.48,0,0,0,.37,1.83,1.32,1.32,0,0,0,1.2.58,1.44,1.44,0,0,0,1.35-.91V36.1a1.45,1.45,0,0,0-1.34-.88,1.29,1.29,0,0,0-1.2.58,3.48,3.48,0,0,0-.38,1.79Z"/><path class="cls-1" d="M240.61,35.42a2.45,2.45,0,0,0-.55-.05,1.33,1.33,0,0,0-1.3,1v5.29h-1.21v-7.4h1.18l0,.75a1.5,1.5,0,0,1,1.37-.89,1.14,1.14,0,0,1,.48.1Z"/><path class="cls-1" d="M243.56,32.32a.8.8,0,0,1-.17.51.64.64,0,0,1-.52.21.61.61,0,0,1-.51-.21.75.75,0,0,1-.17-.51.76.76,0,0,1,.17-.52.72.72,0,0,1,1,0A.8.8,0,0,1,243.56,32.32Zm-.1,9.36h-1.21v-7.4h1.21Z"/><path class="cls-1" d="M247.81,39.84l1.4-5.56h1.23l-2.19,7.4h-.9l-2.22-7.4h1.23Z"/><path class="cls-1" d="M254.61,41.81a2.69,2.69,0,0,1-2.12-.82,3.57,3.57,0,0,1-.75-2.42v-.89a4.2,4.2,0,0,1,.72-2.6,2.41,2.41,0,0,1,2-.94,2.29,2.29,0,0,1,1.94.83,4.24,4.24,0,0,1,.66,2.58v.79h-4.13v.17a2.68,2.68,0,0,0,.45,1.73,1.58,1.58,0,0,0,1.29.54,2.16,2.16,0,0,0,.94-.2,2.34,2.34,0,0,0,.76-.64l.63.77A2.77,2.77,0,0,1,254.61,41.81Zm-.14-6.63a1.25,1.25,0,0,0-1.11.52,3,3,0,0,0-.41,1.6h2.91v-.16a2.87,2.87,0,0,0-.38-1.51A1.17,1.17,0,0,0,254.47,35.18Z"/><path class="cls-1" d="M260,34.28l0,.8a2.18,2.18,0,0,1,1.8-.94c1.31,0,2,.88,2,2.62v4.92h-1.2V36.82a2.07,2.07,0,0,0-.29-1.24,1.07,1.07,0,0,0-.87-.36,1.23,1.23,0,0,0-.81.3,2.1,2.1,0,0,0-.58.78v5.38h-1.21v-7.4Z"/><path class="cls-1" d="M274.91,38.33a4.53,4.53,0,0,1-.62,2.61,2.09,2.09,0,0,1-1.81.87,1.9,1.9,0,0,1-1.76-1l-.06.88h-1.1V31.18h1.2v3.91a1.92,1.92,0,0,1,1.71-1,2.07,2.07,0,0,1,1.82.87,4.53,4.53,0,0,1,.62,2.59Zm-1.2-.69a3.62,3.62,0,0,0-.37-1.87,1.31,1.31,0,0,0-1.19-.55,1.48,1.48,0,0,0-1.39,1v3.51a1.48,1.48,0,0,0,1.41,1,1.27,1.27,0,0,0,1.17-.57,3.55,3.55,0,0,0,.37-1.78Z"/><path class="cls-1" d="M278.75,39.67l1.35-5.39h1.28L279,42.72a3.26,3.26,0,0,1-.77,1.45,1.56,1.56,0,0,1-1.13.49,2.38,2.38,0,0,1-.63-.1v-1l.26,0a1.3,1.3,0,0,0,.83-.25,1.78,1.78,0,0,0,.48-.87l.24-.82-2.17-7.34h1.31Z"/><path class="cls-1" d="M290.06,39.78a.92.92,0,0,0-.29-.67,4.72,4.72,0,0,0-1.14-.65,7.82,7.82,0,0,1-1.38-.69,1.93,1.93,0,0,1-.59-.66,1.8,1.8,0,0,1-.2-.87,1.94,1.94,0,0,1,.66-1.5,2.69,2.69,0,0,1,3.42,0,2.14,2.14,0,0,1,.66,1.62H290a1.22,1.22,0,0,0-.33-.86,1.29,1.29,0,0,0-1.69-.07.92.92,0,0,0-.31.74.84.84,0,0,0,.22.59,4,4,0,0,0,1.07.59,5.73,5.73,0,0,1,1.84,1,1.8,1.8,0,0,1,.48,1.28,2,2,0,0,1-.66,1.55,3,3,0,0,1-3.65-.09,2.18,2.18,0,0,1-.72-1.68h1.22a1.24,1.24,0,0,0,1.37,1.31,1.38,1.38,0,0,0,.92-.27A.9.9,0,0,0,290.06,39.78Z"/><path class="cls-1" d="M294.78,32.49v1.79h1.11v1h-1.11v4.59a1.36,1.36,0,0,0,.14.67.55.55,0,0,0,.5.22,1.61,1.61,0,0,0,.48-.08v1a2.72,2.72,0,0,1-.84.13,1.28,1.28,0,0,1-1.1-.51,2.41,2.41,0,0,1-.37-1.45V35.26h-1.13v-1h1.13V32.49Z"/><path class="cls-1" d="M300.74,35.42a2.45,2.45,0,0,0-.55-.05,1.33,1.33,0,0,0-1.3,1v5.29h-1.21v-7.4h1.18l0,.75a1.5,1.5,0,0,1,1.37-.89,1.14,1.14,0,0,1,.48.1Z"/><path class="cls-1" d="M301.9,37.64a3.89,3.89,0,0,1,.78-2.56,2.57,2.57,0,0,1,2.07-.94,2.6,2.6,0,0,1,2.07.92,3.78,3.78,0,0,1,.8,2.5v.77a3.87,3.87,0,0,1-.78,2.55,2.79,2.79,0,0,1-4.14,0,3.74,3.74,0,0,1-.8-2.46Zm1.21.69a3.13,3.13,0,0,0,.45,1.8,1.39,1.39,0,0,0,1.2.65q1.61,0,1.65-2.31v-.83a3.15,3.15,0,0,0-.45-1.8,1.4,1.4,0,0,0-1.21-.66,1.36,1.36,0,0,0-1.19.66,3.14,3.14,0,0,0-.45,1.79Z"/><path class="cls-1" d="M310.67,34.28l0,.8a2.15,2.15,0,0,1,1.79-.94c1.31,0,2,.88,2,2.62v4.92h-1.2V36.82a2.07,2.07,0,0,0-.29-1.24,1.07,1.07,0,0,0-.87-.36,1.23,1.23,0,0,0-.81.3,2.1,2.1,0,0,0-.58.78v5.38h-1.21v-7.4Z"/><path class="cls-1" d="M316.41,37.64A4.49,4.49,0,0,1,317,35a2.13,2.13,0,0,1,1.84-.89,1.91,1.91,0,0,1,1.72,1l.06-.83h1.09v7.47a2.91,2.91,0,0,1-.7,2.1,2.59,2.59,0,0,1-2,.74,3.35,3.35,0,0,1-1.23-.27,2.55,2.55,0,0,1-1-.67l.49-.83a2.33,2.33,0,0,0,1.66.74c1,0,1.53-.55,1.55-1.65V41a1.91,1.91,0,0,1-1.66.86,2.1,2.1,0,0,1-1.8-.86,4.34,4.34,0,0,1-.67-2.49Zm1.21.69a3.58,3.58,0,0,0,.37,1.83,1.29,1.29,0,0,0,1.2.58,1.45,1.45,0,0,0,1.35-.92V36.13a1.45,1.45,0,0,0-1.34-.91,1.32,1.32,0,0,0-1.2.58,3.48,3.48,0,0,0-.38,1.79Z"/><path class="cls-1" d="M328.86,32.32a.8.8,0,0,1-.17.51.64.64,0,0,1-.52.21.61.61,0,0,1-.51-.21.76.76,0,0,1-.18-.51.77.77,0,0,1,.18-.52.72.72,0,0,1,1,0A.8.8,0,0,1,328.86,32.32Zm-.1,9.36h-1.21v-7.4h1.21Z"/><path class="cls-1" d="M332.15,34.28l0,.8a2.18,2.18,0,0,1,1.8-.94c1.3,0,2,.88,2,2.62v4.92h-1.21V36.82a2,2,0,0,0-.29-1.24,1,1,0,0,0-.87-.36,1.23,1.23,0,0,0-.81.3,2.21,2.21,0,0,0-.58.78v5.38H331v-7.4Z"/><path class="cls-1" d="M341.73,39.78a.88.88,0,0,0-.29-.67,4.52,4.52,0,0,0-1.14-.65,7.3,7.3,0,0,1-1.37-.69,1.87,1.87,0,0,1-.6-.66,1.8,1.8,0,0,1-.2-.87,1.94,1.94,0,0,1,.66-1.5,2.69,2.69,0,0,1,3.42,0,2.14,2.14,0,0,1,.66,1.62h-1.2a1.23,1.23,0,0,0-.34-.86,1.14,1.14,0,0,0-.85-.35,1.17,1.17,0,0,0-.84.28,1,1,0,0,0-.31.74.81.81,0,0,0,.23.59,3.63,3.63,0,0,0,1.07.59,5.77,5.77,0,0,1,1.83,1,1.8,1.8,0,0,1,.48,1.28,2,2,0,0,1-.66,1.55,2.62,2.62,0,0,1-1.78.57,2.65,2.65,0,0,1-1.87-.66,2.18,2.18,0,0,1-.72-1.68h1.22a1.24,1.24,0,0,0,1.37,1.31,1.38,1.38,0,0,0,.92-.27A.9.9,0,0,0,341.73,39.78Z"/><path class="cls-1" d="M346.27,32.32a.8.8,0,0,1-.17.51.75.75,0,0,1-1,0,.8.8,0,0,1-.17-.51.81.81,0,0,1,.17-.52.64.64,0,0,1,.52-.21.62.62,0,0,1,.51.21A.8.8,0,0,1,346.27,32.32Zm-.1,9.36H345v-7.4h1.21Z"/><path class="cls-1" d="M348.18,37.64a4.49,4.49,0,0,1,.63-2.61,2.12,2.12,0,0,1,1.84-.89,1.92,1.92,0,0,1,1.72,1l.06-.83h1.09v7.47a2.91,2.91,0,0,1-.7,2.1,2.6,2.6,0,0,1-2,.74,3.35,3.35,0,0,1-1.23-.27,2.42,2.42,0,0,1-1-.67l.49-.83a2.33,2.33,0,0,0,1.66.74c1,0,1.52-.55,1.55-1.65V41a1.91,1.91,0,0,1-1.67.86,2.1,2.1,0,0,1-1.79-.86,4.27,4.27,0,0,1-.67-2.49Zm1.21.69a3.48,3.48,0,0,0,.37,1.83,1.29,1.29,0,0,0,1.2.58,1.45,1.45,0,0,0,1.35-.92V36.13a1.45,1.45,0,0,0-1.34-.91,1.31,1.31,0,0,0-1.2.58,3.48,3.48,0,0,0-.38,1.79Z"/><path class="cls-1" d="M356.88,35a2.13,2.13,0,0,1,1.76-.9c1.31,0,2,.88,2,2.62v4.92h-1.2V36.82a2.07,2.07,0,0,0-.29-1.24,1.07,1.07,0,0,0-.87-.36,1.23,1.23,0,0,0-.81.3,2.1,2.1,0,0,0-.58.78v5.38h-1.21V31.18h1.21Z"/><path class="cls-1" d="M364.37,32.49v1.79h1.11v1h-1.11v4.59a1.26,1.26,0,0,0,.14.67.53.53,0,0,0,.49.22,1.73,1.73,0,0,0,.49-.08l0,1a2.63,2.63,0,0,1-.84.13,1.27,1.27,0,0,1-1.09-.51,2.41,2.41,0,0,1-.38-1.45V35.26H362v-1h1.13V32.49Z"/><path class="cls-1" d="M372.22,32.32a.75.75,0,0,1-.17.51.63.63,0,0,1-.52.21.61.61,0,0,1-.51-.21.8.8,0,0,1-.17-.51.81.81,0,0,1,.17-.52.61.61,0,0,1,.51-.21.64.64,0,0,1,.52.21A.79.79,0,0,1,372.22,32.32Zm-.09,9.36h-1.21v-7.4h1.21Z"/><path class="cls-1" d="M375.52,34.28l0,.8a2.18,2.18,0,0,1,1.8-.94c1.31,0,2,.88,2,2.62v4.92h-1.2V36.82a2.07,2.07,0,0,0-.29-1.24,1.07,1.07,0,0,0-.87-.36,1.21,1.21,0,0,0-.81.3,2.1,2.1,0,0,0-.58.78v5.38h-1.21v-7.4Z"/><path class="cls-1" d="M383.09,32.49v1.79h1.11v1h-1.11v4.59a1.36,1.36,0,0,0,.14.67.54.54,0,0,0,.49.22,1.73,1.73,0,0,0,.49-.08v1a2.74,2.74,0,0,1-.85.13,1.28,1.28,0,0,1-1.09-.51,2.41,2.41,0,0,1-.38-1.45V35.26h-1.12v-1h1.12V32.49Z"/><path class="cls-1" d="M385.6,37.64a3.89,3.89,0,0,1,.78-2.56,2.57,2.57,0,0,1,2.07-.94,2.62,2.62,0,0,1,2.07.92,3.78,3.78,0,0,1,.8,2.5v.77a3.87,3.87,0,0,1-.78,2.55,2.79,2.79,0,0,1-4.14,0,3.74,3.74,0,0,1-.8-2.46Zm1.21.69a3.21,3.21,0,0,0,.44,1.8,1.42,1.42,0,0,0,1.21.65q1.6,0,1.65-2.31v-.83a3.15,3.15,0,0,0-.45-1.8,1.4,1.4,0,0,0-1.21-.66,1.39,1.39,0,0,0-1.2.66,3.22,3.22,0,0,0-.44,1.79Z"/><path class="cls-1" d="M398.37,32.49v1.79h1.11v1h-1.11v4.59a1.36,1.36,0,0,0,.14.67.55.55,0,0,0,.5.22,1.61,1.61,0,0,0,.48-.08v1a2.72,2.72,0,0,1-.84.13,1.28,1.28,0,0,1-1.1-.51,2.41,2.41,0,0,1-.37-1.45V35.26H396v-1h1.13V32.49Z"/><path class="cls-1" d="M402.48,35a2.13,2.13,0,0,1,1.76-.9c1.31,0,2,.88,2,2.62v4.92H405V36.82a2.07,2.07,0,0,0-.29-1.24,1,1,0,0,0-.87-.36,1.23,1.23,0,0,0-.81.3,2.21,2.21,0,0,0-.58.78v5.38h-1.21V31.18h1.21Z"/><path class="cls-1" d="M411,41.81a2.69,2.69,0,0,1-2.12-.82,3.52,3.52,0,0,1-.75-2.42v-.89a4.2,4.2,0,0,1,.72-2.6,2.41,2.41,0,0,1,2-.94,2.31,2.31,0,0,1,1.94.83,4.24,4.24,0,0,1,.66,2.58v.79h-4.13v.17a2.68,2.68,0,0,0,.45,1.73,1.55,1.55,0,0,0,1.28.54,2.21,2.21,0,0,0,1-.2,2.34,2.34,0,0,0,.76-.64l.63.77A2.77,2.77,0,0,1,411,41.81Zm-.14-6.63a1.25,1.25,0,0,0-1.11.52,3,3,0,0,0-.41,1.6h2.91v-.16a2.87,2.87,0,0,0-.38-1.51A1.17,1.17,0,0,0,410.89,35.18Z"/><path class="cls-1" d="M422.62,41a2.1,2.1,0,0,1-1.76.78,1.77,1.77,0,0,1-1.52-.69,3.45,3.45,0,0,1-.52-2V34.28H420V39c0,1.15.34,1.73,1,1.73a1.52,1.52,0,0,0,1.52-1V34.28h1.21v7.4h-1.15Z"/><path class="cls-1" d="M429.56,39.78a.89.89,0,0,0-.3-.67,4.41,4.41,0,0,0-1.13-.65,7.82,7.82,0,0,1-1.38-.69,1.87,1.87,0,0,1-.6-.66,1.8,1.8,0,0,1-.2-.87,1.94,1.94,0,0,1,.66-1.5,2.41,2.41,0,0,1,1.69-.6,2.37,2.37,0,0,1,1.73.63,2.14,2.14,0,0,1,.66,1.62h-1.2a1.18,1.18,0,0,0-.34-.86,1.14,1.14,0,0,0-.85-.35,1.17,1.17,0,0,0-.84.28,1,1,0,0,0-.3.74.8.8,0,0,0,.22.59,3.78,3.78,0,0,0,1.07.59,5.55,5.55,0,0,1,1.83,1,1.81,1.81,0,0,1,.49,1.28,2,2,0,0,1-.67,1.55,2.61,2.61,0,0,1-1.77.57,2.66,2.66,0,0,1-1.88-.66,2.18,2.18,0,0,1-.72-1.68H427a1.26,1.26,0,0,0,1.38,1.31,1.35,1.35,0,0,0,.91-.27A.91.91,0,0,0,429.56,39.78Z"/><path class="cls-1" d="M435.33,41.81a2.71,2.71,0,0,1-2.12-.82,3.57,3.57,0,0,1-.75-2.42v-.89a4.2,4.2,0,0,1,.72-2.6,2.44,2.44,0,0,1,2-.94,2.32,2.32,0,0,1,1.94.83,4.18,4.18,0,0,1,.65,2.58v.79h-4.12v.17a2.74,2.74,0,0,0,.44,1.73,1.58,1.58,0,0,0,1.29.54,2.13,2.13,0,0,0,.94-.2,2.24,2.24,0,0,0,.76-.64l.63.77A2.75,2.75,0,0,1,435.33,41.81Zm-.13-6.63a1.27,1.27,0,0,0-1.12.52,3.15,3.15,0,0,0-.41,1.6h2.92v-.16a3,3,0,0,0-.38-1.51A1.19,1.19,0,0,0,435.2,35.18Z"/><path class="cls-1" d="M442.65,35.42a2.39,2.39,0,0,0-.55-.05,1.33,1.33,0,0,0-1.3,1v5.29h-1.21v-7.4h1.18l0,.75a1.5,1.5,0,0,1,1.37-.89,1.1,1.1,0,0,1,.48.1Z"/><path class="cls-1" d="M453.12,38.33a4.53,4.53,0,0,1-.62,2.61,2.09,2.09,0,0,1-1.81.87,1.9,1.9,0,0,1-1.76-1l-.06.88h-1.1V31.18H449v3.91a1.9,1.9,0,0,1,1.71-1,2.07,2.07,0,0,1,1.82.87,4.53,4.53,0,0,1,.62,2.59Zm-1.2-.69a3.62,3.62,0,0,0-.37-1.87,1.31,1.31,0,0,0-1.19-.55,1.47,1.47,0,0,0-1.39,1v3.51a1.48,1.48,0,0,0,1.41,1,1.27,1.27,0,0,0,1.17-.57,3.55,3.55,0,0,0,.37-1.78Z"/><path class="cls-1" d="M458.82,41.68a3.05,3.05,0,0,1-.16-.81,1.91,1.91,0,0,1-1.64.94,2.11,2.11,0,0,1-1.57-.56,2.19,2.19,0,0,1-.56-1.59,2.22,2.22,0,0,1,.77-1.79,3.16,3.16,0,0,1,2.09-.68h.89v-.78a1,1,0,0,0-1.19-1.23,1.24,1.24,0,0,0-.89.33,1.1,1.1,0,0,0-.34.82H455a1.89,1.89,0,0,1,.34-1.08,2.21,2.21,0,0,1,.9-.81,2.66,2.66,0,0,1,1.26-.3,2.39,2.39,0,0,1,1.73.57,2.21,2.21,0,0,1,.61,1.64v3.73a4.44,4.44,0,0,0,.23,1.49v.11Zm-1.61-1a1.6,1.6,0,0,0,.84-.24,1.52,1.52,0,0,0,.59-.62V38.09H458a2.34,2.34,0,0,0-1.36.38,1.25,1.25,0,0,0-.5,1.05,1.34,1.34,0,0,0,.25.91A1.11,1.11,0,0,0,457.21,40.71Z"/><path class="cls-1" d="M465.67,39.78a.89.89,0,0,0-.3-.67,4.6,4.6,0,0,0-1.13-.65,7.82,7.82,0,0,1-1.38-.69,1.87,1.87,0,0,1-.6-.66,1.8,1.8,0,0,1-.2-.87,1.94,1.94,0,0,1,.66-1.5,2.41,2.41,0,0,1,1.69-.6,2.37,2.37,0,0,1,1.73.63,2.14,2.14,0,0,1,.66,1.62h-1.2a1.18,1.18,0,0,0-.34-.86,1.14,1.14,0,0,0-.85-.35,1.17,1.17,0,0,0-.84.28,1,1,0,0,0-.3.74.8.8,0,0,0,.22.59,3.78,3.78,0,0,0,1.07.59,5.55,5.55,0,0,1,1.83,1,1.81,1.81,0,0,1,.49,1.28,2,2,0,0,1-.67,1.55,2.62,2.62,0,0,1-1.78.57,2.65,2.65,0,0,1-1.87-.66,2.18,2.18,0,0,1-.72-1.68h1.22a1.26,1.26,0,0,0,1.37,1.31,1.37,1.37,0,0,0,.92-.27A.91.91,0,0,0,465.67,39.78Z"/><path class="cls-1" d="M471.44,41.81a2.71,2.71,0,0,1-2.12-.82,3.57,3.57,0,0,1-.75-2.42v-.89a4.2,4.2,0,0,1,.72-2.6,2.41,2.41,0,0,1,2-.94,2.32,2.32,0,0,1,1.94.83,4.25,4.25,0,0,1,.65,2.58v.79h-4.13v.17a2.68,2.68,0,0,0,.45,1.73,1.58,1.58,0,0,0,1.29.54,2.13,2.13,0,0,0,.94-.2,2.24,2.24,0,0,0,.76-.64l.63.77A2.75,2.75,0,0,1,471.44,41.81Zm-.13-6.63a1.26,1.26,0,0,0-1.12.52,3,3,0,0,0-.41,1.6h2.91v-.16a2.78,2.78,0,0,0-.38-1.51A1.15,1.15,0,0,0,471.31,35.18Z"/><path class="cls-1" d="M483.07,41.68a2.41,2.41,0,0,1-.16-.81,1.92,1.92,0,0,1-1.64.94,2.11,2.11,0,0,1-1.57-.56,2.14,2.14,0,0,1-.56-1.59,2.24,2.24,0,0,1,.76-1.79,3.17,3.17,0,0,1,2.1-.68h.89v-.78a1,1,0,0,0-1.19-1.23,1.24,1.24,0,0,0-.89.33,1.06,1.06,0,0,0-.34.82h-1.21a2,2,0,0,1,.33-1.08,2.3,2.3,0,0,1,.91-.81,2.63,2.63,0,0,1,1.26-.3,2.41,2.41,0,0,1,1.73.57,2.21,2.21,0,0,1,.6,1.64v3.73a4.71,4.71,0,0,0,.23,1.49v.11Zm-1.62-1a1.63,1.63,0,0,0,.85-.24,1.52,1.52,0,0,0,.59-.62V38.09h-.68a2.39,2.39,0,0,0-1.37.38,1.24,1.24,0,0,0-.49,1.05,1.34,1.34,0,0,0,.25.91A1.09,1.09,0,0,0,481.45,40.71Z"/><path class="cls-1" d="M487.46,34.28l0,.8a2.18,2.18,0,0,1,1.8-.94c1.31,0,2,.88,2,2.62v4.92h-1.21V36.82a2,2,0,0,0-.29-1.24,1,1,0,0,0-.87-.36,1.23,1.23,0,0,0-.81.3,2.21,2.21,0,0,0-.58.78v5.38h-1.21v-7.4Z"/><path class="cls-1" d="M493.19,37.64a4.42,4.42,0,0,1,.64-2.6,2.09,2.09,0,0,1,1.83-.9,1.9,1.9,0,0,1,1.66.87V31.18h1.21v10.5h-1.11l-.06-.8a1.92,1.92,0,0,1-1.71.93,2.1,2.1,0,0,1-1.8-.89,4.3,4.3,0,0,1-.66-2.52Zm1.21.69a3.48,3.48,0,0,0,.37,1.83,1.29,1.29,0,0,0,1.2.58,1.44,1.44,0,0,0,1.35-.91V36.1a1.45,1.45,0,0,0-1.34-.88,1.32,1.32,0,0,0-1.21.58,3.49,3.49,0,0,0-.37,1.79Z"/><path class="cls-1" d="M505.88,32.49v1.79H507v1h-1.11v4.59a1.26,1.26,0,0,0,.14.67.54.54,0,0,0,.49.22,1.73,1.73,0,0,0,.49-.08l0,1a2.63,2.63,0,0,1-.84.13,1.27,1.27,0,0,1-1.09-.51,2.41,2.41,0,0,1-.38-1.45V35.26h-1.13v-1h1.13V32.49Z"/><path class="cls-1" d="M510,35a2.12,2.12,0,0,1,1.76-.9c1.31,0,2,.88,2,2.62v4.92h-1.2V36.82a2.07,2.07,0,0,0-.29-1.24,1.08,1.08,0,0,0-.88-.36,1.23,1.23,0,0,0-.81.3,2.19,2.19,0,0,0-.57.78v5.38h-1.21V31.18H510Z"/><path class="cls-1" d="M518.53,41.81a2.71,2.71,0,0,1-2.12-.82,3.57,3.57,0,0,1-.75-2.42v-.89a4.2,4.2,0,0,1,.72-2.6,2.41,2.41,0,0,1,2-.94,2.32,2.32,0,0,1,1.94.83,4.25,4.25,0,0,1,.65,2.58v.79h-4.13v.17a2.68,2.68,0,0,0,.45,1.73,1.58,1.58,0,0,0,1.29.54,2.13,2.13,0,0,0,.94-.2,2.24,2.24,0,0,0,.76-.64l.63.77A2.75,2.75,0,0,1,518.53,41.81Zm-.13-6.63a1.26,1.26,0,0,0-1.12.52,3,3,0,0,0-.41,1.6h2.91v-.16a2.78,2.78,0,0,0-.38-1.51A1.15,1.15,0,0,0,518.4,35.18Z"/><path class="cls-1" d="M526.88,41.68V35.26h-1v-1h1v-.85a2.72,2.72,0,0,1,.57-1.76A1.94,1.94,0,0,1,529,31a2.37,2.37,0,0,1,.73.12l-.06,1a2.53,2.53,0,0,0-.56-.06c-.68,0-1,.49-1,1.47v.7h1.27v1h-1.27v6.42Z"/><path class="cls-1" d="M534.9,41a2.08,2.08,0,0,1-1.76.78,1.75,1.75,0,0,1-1.51-.69,3.38,3.38,0,0,1-.52-2V34.28h1.2V39c0,1.15.35,1.73,1,1.73a1.53,1.53,0,0,0,1.52-1V34.28h1.21v7.4h-1.15Z"/><path class="cls-1" d="M539.83,32.49v1.79H541v1h-1.12v4.59a1.26,1.26,0,0,0,.15.67.53.53,0,0,0,.49.22,1.61,1.61,0,0,0,.48-.08v1a2.63,2.63,0,0,1-.84.13,1.3,1.3,0,0,1-1.1-.51,2.41,2.41,0,0,1-.37-1.45V35.26H537.5v-1h1.13V32.49Z"/><path class="cls-1" d="M546.5,41a2.07,2.07,0,0,1-1.75.78,1.77,1.77,0,0,1-1.52-.69,3.45,3.45,0,0,1-.52-2V34.28h1.2V39c0,1.15.35,1.73,1,1.73a1.52,1.52,0,0,0,1.52-1V34.28h1.21v7.4h-1.15Z"/><path class="cls-1" d="M552.91,35.42a2.45,2.45,0,0,0-.55-.05,1.33,1.33,0,0,0-1.3,1v5.29h-1.21v-7.4H551l0,.75a1.5,1.5,0,0,1,1.37-.89,1.14,1.14,0,0,1,.48.1Z"/><path class="cls-1" d="M557,41.81a2.71,2.71,0,0,1-2.12-.82,3.57,3.57,0,0,1-.75-2.42v-.89a4.2,4.2,0,0,1,.72-2.6,2.42,2.42,0,0,1,2-.94,2.32,2.32,0,0,1,1.94.83,4.18,4.18,0,0,1,.65,2.58v.79h-4.12v.17a2.74,2.74,0,0,0,.44,1.73,1.58,1.58,0,0,0,1.29.54,2.13,2.13,0,0,0,.94-.2,2.24,2.24,0,0,0,.76-.64l.63.77A2.75,2.75,0,0,1,557,41.81Zm-.13-6.63a1.27,1.27,0,0,0-1.12.52,3,3,0,0,0-.41,1.6h2.91v-.16a2.88,2.88,0,0,0-.37-1.51A1.19,1.19,0,0,0,556.84,35.18Z"/><path class="cls-1" d="M561.32,41a.78.78,0,0,1,.19-.54.73.73,0,0,1,.58-.22.73.73,0,0,1,.8.76.76.76,0,0,1-.2.53.81.81,0,0,1-.6.21.76.76,0,0,1-.58-.21A.75.75,0,0,1,561.32,41Z"/><path class="cls-1" d="M11.82,89.68v-24h9.74a9.65,9.65,0,0,1,6.78,2.21,8,8,0,0,1,2.41,6.21,8,8,0,0,1-2.41,6.2,9.75,9.75,0,0,1-6.79,2.2H18v7.19ZM18,77.44H21a3.22,3.22,0,0,0,3.61-3.35,3.56,3.56,0,0,0-.86-2.36,3.41,3.41,0,0,0-2.75-1H18Z"/><path class="cls-1" d="M35.5,89.68V73.51a28.06,28.06,0,0,1,10.27-2.08v5.29a31,31,0,0,0-4.08.32V89.68Z"/><path class="cls-1" d="M50.77,69.66V65h6.32v4.7Zm.07,20v-18H57v18Z"/><path class="cls-1" d="M63.71,89.68v-16a19.63,19.63,0,0,1,8.93-2.17,8.59,8.59,0,0,1,6,2,7.18,7.18,0,0,1,2.24,5.6V89.68H74.73V78.14a2.35,2.35,0,0,0-.15-.9,1.73,1.73,0,0,0-.84-.72,4.55,4.55,0,0,0-2-.36,7.57,7.57,0,0,0-1.82.21V89.68Z"/><path class="cls-1" d="M88,87.58q-2.2-2.39-2.2-6.87c0-3,.74-5.27,2.21-6.86a8.25,8.25,0,0,1,6.35-2.38A12.91,12.91,0,0,1,100,72.68v4.59a11,11,0,0,0-4.54-1.11,3.16,3.16,0,0,0-2.54,1.14,6.61,6.61,0,0,0,0,6.83,3.16,3.16,0,0,0,2.54,1.14A10.91,10.91,0,0,0,100,84.15v4.6A12.48,12.48,0,0,1,94.44,90h-.09A8.28,8.28,0,0,1,88,87.58Z"/><path class="cls-1" d="M105,69.66V65h6.33v4.7Zm.08,20v-18h6.18v18Z"/><path class="cls-1" d="M117.77,96.34V77.86a7.9,7.9,0,0,1,.31-2.32,6.18,6.18,0,0,1,1.08-2,5,5,0,0,1,2.4-1.53,13.33,13.33,0,0,1,4-.53q8.85,0,8.85,9.35,0,4.41-2.12,6.76a7.75,7.75,0,0,1-6,2.34,21.83,21.83,0,0,1-2.33-.07v6.49ZM124,85.93c.57,0,1,.07,1.19.07a2.57,2.57,0,0,0,2.33-1.31,7.2,7.2,0,0,0,.78-3.65,11.87,11.87,0,0,0-.57-4c-.37-1-1-1.58-1.82-1.58a2.23,2.23,0,0,0-1.44.39,1.16,1.16,0,0,0-.47.9Z"/><path class="cls-1" d="M140.15,89.68V64.87h6.19V89.68Z"/><path class="cls-1" d="M152.27,80.85a10.85,10.85,0,0,1,2-6.85q2-2.56,6.25-2.57a7.42,7.42,0,0,1,6.1,2.53,9.5,9.5,0,0,1,2.07,6.21,16.69,16.69,0,0,1-.1,2H158.45a2.58,2.58,0,0,0,1.19,2.13,4.45,4.45,0,0,0,2.66.86A10.8,10.8,0,0,0,168,83.7v4.36a14.2,14.2,0,0,1-9.34,1.67,8.42,8.42,0,0,1-2.29-.81,7.14,7.14,0,0,1-2.06-1.56,7.56,7.56,0,0,1-1.43-2.63A12.05,12.05,0,0,1,152.27,80.85Zm6.32-2.44h4a5.16,5.16,0,0,0-.62-2,1.5,1.5,0,0,0-2.81-.08A4.78,4.78,0,0,0,158.59,78.41Z"/><path class="cls-1" d="M172.82,77.43a5.21,5.21,0,0,1,2-4.43A8.29,8.29,0,0,1,180,71.47a9.79,9.79,0,0,1,5.15,1.45V77a8.74,8.74,0,0,0-4.15-1.3q-2,0-2,1.23c0,.24.27.47.8.71s1.18.52,1.93.82A19.36,19.36,0,0,1,184,79.54a5.46,5.46,0,0,1,1.91,1.86,5.22,5.22,0,0,1,.79,2.89,4.94,4.94,0,0,1-2,4.06,8.07,8.07,0,0,1-5.15,1.57,11,11,0,0,1-6.09-1.76v-4.8a8.92,8.92,0,0,0,5.44,2.2c1.07,0,1.61-.33,1.61-1,0-.32-.26-.6-.79-.85s-1.17-.51-1.92-.79a24,24,0,0,1-2.29-1,5.22,5.22,0,0,1-1.94-1.75A4.7,4.7,0,0,1,172.82,77.43Z"/><path class="cls-1" d="M209,80.8h-2.62v8.88h-1.25V80.8h-2.61V79.72H209Z"/><path class="cls-1" d="M211.86,83a2.13,2.13,0,0,1,1.76-.9c1.31,0,2,.88,2,2.62v4.92h-1.2V84.82a2.07,2.07,0,0,0-.29-1.24,1.07,1.07,0,0,0-.87-.36,1.23,1.23,0,0,0-.81.3,2.21,2.21,0,0,0-.58.78v5.38h-1.21V79.18h1.21Z"/><path class="cls-1" d="M219.16,80.32a.8.8,0,0,1-.17.51.63.63,0,0,1-.52.21.61.61,0,0,1-.51-.21.75.75,0,0,1-.17-.51.76.76,0,0,1,.17-.52.61.61,0,0,1,.51-.21.64.64,0,0,1,.52.21A.85.85,0,0,1,219.16,80.32Zm-.09,9.36h-1.21v-7.4h1.21Z"/><path class="cls-1" d="M222.46,82.28l0,.8a2.18,2.18,0,0,1,1.8-.94c1.31,0,2,.88,2,2.62v4.92h-1.2V84.82a2.07,2.07,0,0,0-.29-1.24,1.08,1.08,0,0,0-.88-.36,1.23,1.23,0,0,0-.81.3,2.19,2.19,0,0,0-.57.78v5.38h-1.21v-7.4Z"/><path class="cls-1" d="M228.2,85.64a4.49,4.49,0,0,1,.63-2.61,2.12,2.12,0,0,1,1.84-.89,1.89,1.89,0,0,1,1.71,1l.07-.83h1.09v7.47a2.91,2.91,0,0,1-.7,2.1,2.61,2.61,0,0,1-2,.74,3.34,3.34,0,0,1-1.22-.27,2.42,2.42,0,0,1-1-.67l.49-.83a2.33,2.33,0,0,0,1.66.74c1,0,1.52-.55,1.55-1.65V89a1.91,1.91,0,0,1-1.67.86,2.1,2.1,0,0,1-1.79-.86,4.27,4.27,0,0,1-.67-2.49Zm1.21.69a3.48,3.48,0,0,0,.37,1.83,1.29,1.29,0,0,0,1.2.58,1.45,1.45,0,0,0,1.35-.92V84.13a1.45,1.45,0,0,0-1.34-.91,1.29,1.29,0,0,0-1.2.58,3.48,3.48,0,0,0-.38,1.79Z"/><path class="cls-1" d="M239.28,87.78a.88.88,0,0,0-.29-.67,4.6,4.6,0,0,0-1.13-.65,7.47,7.47,0,0,1-1.38-.69,1.87,1.87,0,0,1-.6-.66,1.8,1.8,0,0,1-.2-.87,1.94,1.94,0,0,1,.66-1.5,2.41,2.41,0,0,1,1.69-.6,2.37,2.37,0,0,1,1.73.63,2.14,2.14,0,0,1,.66,1.62h-1.2a1.23,1.23,0,0,0-.34-.86,1.14,1.14,0,0,0-.85-.35,1.17,1.17,0,0,0-.84.28,1,1,0,0,0-.31.74.81.81,0,0,0,.23.59,3.63,3.63,0,0,0,1.07.59,5.66,5.66,0,0,1,1.83,1,1.8,1.8,0,0,1,.48,1.28,2,2,0,0,1-.66,1.55,2.62,2.62,0,0,1-1.78.57,2.65,2.65,0,0,1-1.87-.66,2.18,2.18,0,0,1-.72-1.68h1.22a1.26,1.26,0,0,0,1.37,1.31,1.37,1.37,0,0,0,.92-.27A.9.9,0,0,0,239.28,87.78Z"/><path class="cls-1" d="M249.57,87.78a.89.89,0,0,0-.3-.67,4.41,4.41,0,0,0-1.13-.65,7.82,7.82,0,0,1-1.38-.69,2,2,0,0,1-.6-.66,1.8,1.8,0,0,1-.2-.87,1.94,1.94,0,0,1,.66-1.5,2.7,2.7,0,0,1,3.43,0,2.17,2.17,0,0,1,.65,1.62h-1.2a1.18,1.18,0,0,0-.34-.86,1.12,1.12,0,0,0-.85-.35,1.17,1.17,0,0,0-.84.28,1,1,0,0,0-.3.74.8.8,0,0,0,.22.59,3.78,3.78,0,0,0,1.07.59,5.55,5.55,0,0,1,1.83,1,1.77,1.77,0,0,1,.49,1.28,1.94,1.94,0,0,1-.67,1.55,2.61,2.61,0,0,1-1.77.57,2.68,2.68,0,0,1-1.88-.66,2.2,2.2,0,0,1-.71-1.68H247a1.36,1.36,0,0,0,.38,1,1.63,1.63,0,0,0,1.91.08A.91.91,0,0,0,249.57,87.78Z"/><path class="cls-1" d="M253.91,83a2.13,2.13,0,0,1,1.76-.9c1.31,0,2,.88,2,2.62v4.92h-1.2V84.82a2.07,2.07,0,0,0-.29-1.24,1,1,0,0,0-.87-.36,1.23,1.23,0,0,0-.81.3,2.21,2.21,0,0,0-.58.78v5.38H252.7V79.18h1.21Z"/><path class="cls-1" d="M259.56,85.64a3.89,3.89,0,0,1,.78-2.56,2.57,2.57,0,0,1,2.07-.94,2.62,2.62,0,0,1,2.07.92,3.78,3.78,0,0,1,.8,2.5v.77a3.87,3.87,0,0,1-.78,2.55,2.79,2.79,0,0,1-4.14,0,3.74,3.74,0,0,1-.8-2.46Zm1.21.69a3.21,3.21,0,0,0,.44,1.8,1.42,1.42,0,0,0,1.21.65q1.6,0,1.65-2.31v-.83a3.15,3.15,0,0,0-.45-1.8,1.4,1.4,0,0,0-1.21-.66,1.39,1.39,0,0,0-1.2.66,3.22,3.22,0,0,0-.44,1.79Z"/><path class="cls-1" d="M271,89a2.07,2.07,0,0,1-1.75.78,1.77,1.77,0,0,1-1.52-.69,3.38,3.38,0,0,1-.52-2V82.28h1.2V87c0,1.15.35,1.73,1,1.73a1.53,1.53,0,0,0,1.52-1V82.28h1.21v7.4H271Z"/><path class="cls-1" d="M275.61,89.68H274.4V79.18h1.21Z"/><path class="cls-1" d="M277.61,85.64a4.42,4.42,0,0,1,.64-2.6,2.11,2.11,0,0,1,1.83-.9,1.9,1.9,0,0,1,1.66.87V79.18H283v10.5h-1.11l-.06-.8a1.91,1.91,0,0,1-1.7.93,2.08,2.08,0,0,1-1.8-.89,4.22,4.22,0,0,1-.67-2.52Zm1.21.69a3.48,3.48,0,0,0,.37,1.83,1.31,1.31,0,0,0,1.2.58,1.44,1.44,0,0,0,1.35-.91V84.1a1.45,1.45,0,0,0-1.34-.88,1.32,1.32,0,0,0-1.21.58,3.49,3.49,0,0,0-.37,1.79Z"/><path class="cls-1" d="M294.07,86.33a4.45,4.45,0,0,1-.62,2.61,2.08,2.08,0,0,1-1.8.87,1.9,1.9,0,0,1-1.77-1l-.06.88h-1.1V79.18h1.2v3.91a1.92,1.92,0,0,1,1.71-1,2.1,2.1,0,0,1,1.83.87,4.54,4.54,0,0,1,.61,2.59Zm-1.2-.69a3.52,3.52,0,0,0-.37-1.87,1.3,1.3,0,0,0-1.18-.55,1.48,1.48,0,0,0-1.4,1v3.51a1.48,1.48,0,0,0,1.41,1,1.29,1.29,0,0,0,1.18-.57,3.68,3.68,0,0,0,.36-1.78Z"/><path class="cls-1" d="M298.61,89.81a2.71,2.71,0,0,1-2.12-.82,3.57,3.57,0,0,1-.75-2.42v-.89a4.2,4.2,0,0,1,.72-2.6,2.42,2.42,0,0,1,2-.94,2.32,2.32,0,0,1,1.94.83,4.18,4.18,0,0,1,.65,2.58v.79H297v.17a2.68,2.68,0,0,0,.44,1.73,1.58,1.58,0,0,0,1.29.54,2.13,2.13,0,0,0,.94-.2,2.24,2.24,0,0,0,.76-.64l.63.77A2.75,2.75,0,0,1,298.61,89.81Zm-.13-6.63a1.27,1.27,0,0,0-1.12.52,3,3,0,0,0-.41,1.6h2.91v-.16a2.88,2.88,0,0,0-.37-1.51A1.19,1.19,0,0,0,298.48,83.18Z"/><path class="cls-1" d="M311.79,86.33a4.53,4.53,0,0,1-.62,2.61,2.09,2.09,0,0,1-1.81.87,1.9,1.9,0,0,1-1.76-1l-.06.88h-1.1V79.18h1.2v3.91a1.9,1.9,0,0,1,1.71-1,2.07,2.07,0,0,1,1.82.87,4.53,4.53,0,0,1,.62,2.59Zm-1.2-.69a3.62,3.62,0,0,0-.37-1.87,1.31,1.31,0,0,0-1.19-.55,1.47,1.47,0,0,0-1.39,1v3.51a1.48,1.48,0,0,0,1.41,1,1.27,1.27,0,0,0,1.17-.57,3.55,3.55,0,0,0,.37-1.78Z"/><path class="cls-1" d="M317.46,89a2.09,2.09,0,0,1-1.76.78,1.77,1.77,0,0,1-1.52-.69,3.45,3.45,0,0,1-.52-2V82.28h1.21V87c0,1.15.34,1.73,1,1.73a1.51,1.51,0,0,0,1.51-1V82.28h1.21v7.4h-1.15Z"/><path class="cls-1" d="M322.2,80.32a.75.75,0,0,1-.17.51.63.63,0,0,1-.52.21.61.61,0,0,1-.51-.21.75.75,0,0,1-.17-.51.76.76,0,0,1,.17-.52.61.61,0,0,1,.51-.21.64.64,0,0,1,.52.21A.85.85,0,0,1,322.2,80.32Zm-.09,9.36H320.9v-7.4h1.21Z"/><path class="cls-1" d="M325.66,89.68h-1.21V79.18h1.21Z"/><path class="cls-1" d="M329.5,80.49v1.79h1.11v1H329.5v4.59a1.36,1.36,0,0,0,.14.67.54.54,0,0,0,.49.22,1.67,1.67,0,0,0,.49-.08v1a2.72,2.72,0,0,1-.84.13,1.28,1.28,0,0,1-1.1-.51,2.41,2.41,0,0,1-.37-1.45V83.26h-1.13v-1h1.13V80.49Z"/><path class="cls-1" d="M341.31,86.33a4.45,4.45,0,0,1-.62,2.61,2.06,2.06,0,0,1-1.8.87,1.91,1.91,0,0,1-1.77-1l-.06.88H336V79.18h1.21v3.91a1.89,1.89,0,0,1,1.7-1,2.08,2.08,0,0,1,1.83.87,4.54,4.54,0,0,1,.61,2.59Zm-1.2-.69a3.64,3.64,0,0,0-.36-1.87,1.32,1.32,0,0,0-1.19-.55,1.47,1.47,0,0,0-1.39,1v3.51a1.47,1.47,0,0,0,1.4,1,1.29,1.29,0,0,0,1.18-.57,3.46,3.46,0,0,0,.36-1.78Z"/><path class="cls-1" d="M345.16,87.67l1.34-5.39h1.29l-2.42,8.44a3.26,3.26,0,0,1-.77,1.45,1.58,1.58,0,0,1-1.14.49,2.51,2.51,0,0,1-.63-.1v-1l.27,0a1.25,1.25,0,0,0,.82-.25,1.86,1.86,0,0,0,.49-.87l.23-.82-2.17-7.34h1.32Z"/><path class="cls-1" d="M354.46,80.49v1.79h1.11v1h-1.11v4.59a1.26,1.26,0,0,0,.14.67.54.54,0,0,0,.49.22,1.73,1.73,0,0,0,.49-.08l0,1a2.63,2.63,0,0,1-.84.13,1.28,1.28,0,0,1-1.09-.51,2.41,2.41,0,0,1-.38-1.45V83.26h-1.12v-1h1.12V80.49Z"/><path class="cls-1" d="M358.57,83a2.12,2.12,0,0,1,1.76-.9c1.31,0,2,.88,2,2.62v4.92h-1.2V84.82a2.07,2.07,0,0,0-.29-1.24,1.08,1.08,0,0,0-.88-.36,1.23,1.23,0,0,0-.81.3,2.19,2.19,0,0,0-.57.78v5.38h-1.21V79.18h1.21Z"/><path class="cls-1" d="M367.11,89.81A2.71,2.71,0,0,1,365,89a3.57,3.57,0,0,1-.75-2.42v-.89a4.2,4.2,0,0,1,.72-2.6,2.42,2.42,0,0,1,2-.94,2.32,2.32,0,0,1,1.94.83,4.18,4.18,0,0,1,.65,2.58v.79h-4.12v.17a2.68,2.68,0,0,0,.44,1.73,1.58,1.58,0,0,0,1.29.54,2.13,2.13,0,0,0,.94-.2,2.24,2.24,0,0,0,.76-.64l.63.77A2.75,2.75,0,0,1,367.11,89.81ZM367,83.18a1.27,1.27,0,0,0-1.12.52,3,3,0,0,0-.41,1.6h2.91v-.16a2.88,2.88,0,0,0-.37-1.51A1.19,1.19,0,0,0,367,83.18Z"/><path class="cls-1" d="M380.28,86.33a4.41,4.41,0,0,1-.64,2.62,2.06,2.06,0,0,1-1.78.86,2,2,0,0,1-1.72-.84v3.55h-1.2V82.28H376l.06.82a2,2,0,0,1,1.75-1,2.08,2.08,0,0,1,1.81.85,4.55,4.55,0,0,1,.63,2.54Zm-1.21-.69a3.47,3.47,0,0,0-.38-1.83,1.35,1.35,0,0,0-1.23-.59,1.42,1.42,0,0,0-1.32.87v3.84a1.42,1.42,0,0,0,1.33.85,1.35,1.35,0,0,0,1.21-.59,3.33,3.33,0,0,0,.39-1.81Z"/><path class="cls-1" d="M385.24,83.42a2.39,2.39,0,0,0-.55,0,1.33,1.33,0,0,0-1.3,1v5.29h-1.21v-7.4h1.18l0,.75a1.5,1.5,0,0,1,1.37-.89,1.1,1.1,0,0,1,.48.1Z"/><path class="cls-1" d="M388.19,80.32a.75.75,0,0,1-.17.51.74.74,0,0,1-1,0,.8.8,0,0,1-.17-.51.81.81,0,0,1,.17-.52.62.62,0,0,1,.51-.21.64.64,0,0,1,.52.21A.79.79,0,0,1,388.19,80.32Zm-.09,9.36h-1.21v-7.4h1.21Z"/><path class="cls-1" d="M391.49,82.28l0,.8a2.18,2.18,0,0,1,1.8-.94c1.31,0,2,.88,2,2.62v4.92h-1.2V84.82a2.07,2.07,0,0,0-.29-1.24,1.07,1.07,0,0,0-.87-.36,1.23,1.23,0,0,0-.81.3,2.1,2.1,0,0,0-.58.78v5.38h-1.21v-7.4Z"/><path class="cls-1" d="M400,88.78a1.29,1.29,0,0,0,1-.37,1.57,1.57,0,0,0,.39-1.06h1.14a2.44,2.44,0,0,1-.75,1.76,2.4,2.4,0,0,1-1.75.7A2.56,2.56,0,0,1,398,89a3.94,3.94,0,0,1-.72-2.57v-.82a4,4,0,0,1,.71-2.54,2.58,2.58,0,0,1,2.1-.88,2.35,2.35,0,0,1,1.8.72,2.9,2.9,0,0,1,.7,2H401.4a2,2,0,0,0-.39-1.23,1.22,1.22,0,0,0-1-.41,1.4,1.4,0,0,0-1.2.53,3.1,3.1,0,0,0-.4,1.74v1a3.34,3.34,0,0,0,.38,1.84A1.41,1.41,0,0,0,400,88.78Z"/><path class="cls-1" d="M405.69,80.32a.8.8,0,0,1-.17.51A.63.63,0,0,1,405,81a.61.61,0,0,1-.51-.21.75.75,0,0,1-.17-.51.76.76,0,0,1,.17-.52.61.61,0,0,1,.51-.21.64.64,0,0,1,.52.21A.85.85,0,0,1,405.69,80.32Zm-.09,9.36h-1.21v-7.4h1.21Z"/><path class="cls-1" d="M413.19,86.33a4.42,4.42,0,0,1-.63,2.62,2.07,2.07,0,0,1-1.79.86,2,2,0,0,1-1.71-.84v3.55h-1.21V82.28H409l.06.82a1.93,1.93,0,0,1,1.74-1,2.1,2.1,0,0,1,1.82.85,4.48,4.48,0,0,1,.62,2.54Zm-1.2-.69a3.47,3.47,0,0,0-.38-1.83,1.35,1.35,0,0,0-1.23-.59,1.42,1.42,0,0,0-1.32.87v3.84a1.41,1.41,0,0,0,1.33.85,1.35,1.35,0,0,0,1.21-.59,3.52,3.52,0,0,0,.39-1.81Z"/><path class="cls-1" d="M416.41,89.68H415.2V79.18h1.21Z"/><path class="cls-1" d="M421.3,89.81a2.69,2.69,0,0,1-2.12-.82,3.57,3.57,0,0,1-.75-2.42v-.89a4.2,4.2,0,0,1,.72-2.6,2.41,2.41,0,0,1,2-.94,2.32,2.32,0,0,1,1.94.83,4.25,4.25,0,0,1,.65,2.58v.79h-4.13v.17a2.68,2.68,0,0,0,.45,1.73,1.58,1.58,0,0,0,1.29.54,2.13,2.13,0,0,0,.94-.2,2.24,2.24,0,0,0,.76-.64l.63.77A2.75,2.75,0,0,1,421.3,89.81Zm-.13-6.63a1.26,1.26,0,0,0-1.12.52,3,3,0,0,0-.41,1.6h2.91v-.16a2.87,2.87,0,0,0-.38-1.51A1.15,1.15,0,0,0,421.17,83.18Z"/><path class="cls-1" d="M429.16,87.78a.89.89,0,0,0-.3-.67,4.41,4.41,0,0,0-1.13-.65,7.82,7.82,0,0,1-1.38-.69,2,2,0,0,1-.6-.66,1.8,1.8,0,0,1-.2-.87,1.94,1.94,0,0,1,.66-1.5,2.7,2.7,0,0,1,3.43,0,2.17,2.17,0,0,1,.65,1.62h-1.2a1.18,1.18,0,0,0-.34-.86,1.12,1.12,0,0,0-.85-.35,1.17,1.17,0,0,0-.84.28,1,1,0,0,0-.3.74.8.8,0,0,0,.22.59,3.78,3.78,0,0,0,1.07.59,5.55,5.55,0,0,1,1.83,1,1.77,1.77,0,0,1,.49,1.28,1.94,1.94,0,0,1-.67,1.55,2.61,2.61,0,0,1-1.77.57,2.68,2.68,0,0,1-1.88-.66,2.2,2.2,0,0,1-.71-1.68h1.21a1.36,1.36,0,0,0,.38,1,1.63,1.63,0,0,0,1.91.08A.91.91,0,0,0,429.16,87.78Z"/><path class="cls-1" d="M437.43,80.49v1.79h1.12v1h-1.12v4.59a1.26,1.26,0,0,0,.15.67.53.53,0,0,0,.49.22,1.61,1.61,0,0,0,.48-.08v1a2.63,2.63,0,0,1-.84.13,1.3,1.3,0,0,1-1.1-.51,2.41,2.41,0,0,1-.37-1.45V83.26H435.1v-1h1.13V80.49Z"/><path class="cls-1" d="M441.54,83a2.13,2.13,0,0,1,1.76-.9c1.31,0,2,.88,2,2.62v4.92h-1.2V84.82a2.07,2.07,0,0,0-.29-1.24,1,1,0,0,0-.87-.36,1.23,1.23,0,0,0-.81.3,2.21,2.21,0,0,0-.58.78v5.38h-1.21V79.18h1.21Z"/><path class="cls-1" d="M451.25,89.68a3.05,3.05,0,0,1-.16-.81,1.91,1.91,0,0,1-1.64.94,2.11,2.11,0,0,1-1.57-.56,2.19,2.19,0,0,1-.56-1.59,2.22,2.22,0,0,1,.77-1.79,3.14,3.14,0,0,1,2.09-.68h.89v-.78a1,1,0,0,0-1.19-1.23,1.24,1.24,0,0,0-.89.33,1.1,1.1,0,0,0-.34.82h-1.21a1.89,1.89,0,0,1,.34-1.08,2.21,2.21,0,0,1,.9-.81,2.66,2.66,0,0,1,1.26-.3,2.39,2.39,0,0,1,1.73.57,2.21,2.21,0,0,1,.61,1.64v3.73a4.44,4.44,0,0,0,.23,1.49v.11Zm-1.61-1a1.6,1.6,0,0,0,.84-.24,1.52,1.52,0,0,0,.59-.62V86.09h-.68a2.34,2.34,0,0,0-1.36.38,1.25,1.25,0,0,0-.5,1,1.34,1.34,0,0,0,.25.91A1.11,1.11,0,0,0,449.64,88.71Z"/><path class="cls-1" d="M456.08,80.49v1.79h1.12v1h-1.12v4.59a1.26,1.26,0,0,0,.15.67.53.53,0,0,0,.49.22,1.73,1.73,0,0,0,.49-.08l0,1a2.63,2.63,0,0,1-.84.13,1.27,1.27,0,0,1-1.09-.51,2.41,2.41,0,0,1-.38-1.45V83.26h-1.13v-1h1.13V80.49Z"/><path class="cls-1" d="M462.3,85.64a4.49,4.49,0,0,1,.63-2.61,2.12,2.12,0,0,1,1.84-.89,1.89,1.89,0,0,1,1.71,1l.07-.83h1.09v7.47a2.91,2.91,0,0,1-.7,2.1,2.61,2.61,0,0,1-2,.74,3.34,3.34,0,0,1-1.22-.27,2.52,2.52,0,0,1-1-.67l.5-.83a2.33,2.33,0,0,0,1.66.74c1,0,1.52-.55,1.55-1.65V89a1.91,1.91,0,0,1-1.67.86A2.1,2.1,0,0,1,463,89a4.27,4.27,0,0,1-.67-2.49Zm1.21.69a3.48,3.48,0,0,0,.37,1.83,1.29,1.29,0,0,0,1.2.58,1.45,1.45,0,0,0,1.35-.92V84.13a1.45,1.45,0,0,0-1.34-.91,1.29,1.29,0,0,0-1.2.58,3.48,3.48,0,0,0-.38,1.79Z"/><path class="cls-1" d="M469.53,85.64a3.84,3.84,0,0,1,.79-2.56,2.76,2.76,0,0,1,4.13,0,3.84,3.84,0,0,1,.81,2.5v.77a3.87,3.87,0,0,1-.78,2.55,2.59,2.59,0,0,1-2.08.93,2.55,2.55,0,0,1-2.06-.91,3.75,3.75,0,0,1-.81-2.46Zm1.21.69a3.13,3.13,0,0,0,.45,1.8,1.4,1.4,0,0,0,1.21.65q1.59,0,1.65-2.31v-.83a3.08,3.08,0,0,0-.46-1.8,1.42,1.42,0,0,0-2.4,0,3.14,3.14,0,0,0-.45,1.79Z"/><path class="cls-1" d="M479.16,87.84l1.4-5.56h1.23l-2.19,7.4h-.9l-2.23-7.4h1.24Z"/><path class="cls-1" d="M486,89.81a2.69,2.69,0,0,1-2.12-.82,3.52,3.52,0,0,1-.75-2.42v-.89a4.2,4.2,0,0,1,.72-2.6,2.41,2.41,0,0,1,2-.94,2.31,2.31,0,0,1,1.94.83,4.24,4.24,0,0,1,.66,2.58v.79h-4.13v.17a2.68,2.68,0,0,0,.45,1.73,1.57,1.57,0,0,0,1.29.54,2.2,2.2,0,0,0,.94-.2,2.34,2.34,0,0,0,.76-.64l.63.77A2.77,2.77,0,0,1,486,89.81Zm-.14-6.63a1.25,1.25,0,0,0-1.11.52,3,3,0,0,0-.41,1.6h2.91v-.16a2.87,2.87,0,0,0-.38-1.51A1.17,1.17,0,0,0,485.82,83.18Z"/><path class="cls-1" d="M493.27,83.42a2.36,2.36,0,0,0-.54,0,1.32,1.32,0,0,0-1.3,1v5.29h-1.21v-7.4h1.17l0,.75a1.53,1.53,0,0,1,1.38-.89,1.14,1.14,0,0,1,.48.1Z"/><path class="cls-1" d="M496,82.28l0,.8a2.18,2.18,0,0,1,1.8-.94c1.31,0,2,.88,2,2.62v4.92h-1.2V84.82a2,2,0,0,0-.3-1.24,1,1,0,0,0-.87-.36,1.23,1.23,0,0,0-.81.3,2.19,2.19,0,0,0-.57.78v5.38h-1.21v-7.4Z"/><path class="cls-1" d="M509.31,89.68a2.76,2.76,0,0,1-.15-.81,1.92,1.92,0,0,1-1.64.94,2.1,2.1,0,0,1-1.57-.56,2.15,2.15,0,0,1-.57-1.59,2.25,2.25,0,0,1,.77-1.79,3.17,3.17,0,0,1,2.1-.68h.89v-.78A1,1,0,0,0,508,83.18a1.22,1.22,0,0,0-.89.33,1.06,1.06,0,0,0-.34.82h-1.21a2,2,0,0,1,.33-1.08,2.34,2.34,0,0,1,.9-.81,2.67,2.67,0,0,1,1.27-.3,2.41,2.41,0,0,1,1.73.57,2.21,2.21,0,0,1,.6,1.64v3.73a4.44,4.44,0,0,0,.23,1.49v.11Zm-1.61-1a1.63,1.63,0,0,0,.85-.24,1.59,1.59,0,0,0,.59-.62V86.09h-.69a2.38,2.38,0,0,0-1.36.38,1.25,1.25,0,0,0-.5,1,1.34,1.34,0,0,0,.26.91A1.09,1.09,0,0,0,507.7,88.71Z"/><path class="cls-1" d="M519.89,89a2.07,2.07,0,0,1-1.75.78,1.77,1.77,0,0,1-1.52-.69,3.38,3.38,0,0,1-.52-2V82.28h1.2V87c0,1.15.35,1.73,1,1.73a1.53,1.53,0,0,0,1.52-1V82.28h1.21v7.4h-1.15Z"/><path class="cls-1" d="M526.83,87.78a.92.92,0,0,0-.29-.67,4.72,4.72,0,0,0-1.14-.65,7.3,7.3,0,0,1-1.37-.69,1.87,1.87,0,0,1-.6-.66,1.8,1.8,0,0,1-.2-.87,1.94,1.94,0,0,1,.66-1.5,2.69,2.69,0,0,1,3.42,0,2.14,2.14,0,0,1,.66,1.62h-1.21a1.22,1.22,0,0,0-.33-.86,1.15,1.15,0,0,0-.86-.35,1.16,1.16,0,0,0-.83.28.92.92,0,0,0-.31.74.84.84,0,0,0,.22.59,4,4,0,0,0,1.07.59,5.73,5.73,0,0,1,1.84,1,1.8,1.8,0,0,1,.48,1.28,2,2,0,0,1-.66,1.55,3,3,0,0,1-3.65-.09,2.18,2.18,0,0,1-.72-1.68h1.22a1.24,1.24,0,0,0,1.37,1.31,1.38,1.38,0,0,0,.92-.27A.9.9,0,0,0,526.83,87.78Z"/><path class="cls-1" d="M532.61,89.81a2.69,2.69,0,0,1-2.12-.82,3.57,3.57,0,0,1-.75-2.42v-.89a4.2,4.2,0,0,1,.72-2.6,2.41,2.41,0,0,1,2-.94,2.29,2.29,0,0,1,1.94.83,4.24,4.24,0,0,1,.66,2.58v.79h-4.13v.17a2.68,2.68,0,0,0,.45,1.73,1.58,1.58,0,0,0,1.29.54,2.16,2.16,0,0,0,.94-.2,2.34,2.34,0,0,0,.76-.64l.63.77A2.77,2.77,0,0,1,532.61,89.81Zm-.14-6.63a1.25,1.25,0,0,0-1.11.52,3,3,0,0,0-.41,1.6h2.91v-.16a2.87,2.87,0,0,0-.38-1.51A1.17,1.17,0,0,0,532.47,83.18Z"/><path class="cls-1" d="M539.93,83.42a2.39,2.39,0,0,0-.55,0,1.33,1.33,0,0,0-1.3,1v5.29h-1.21v-7.4h1.18l0,.75a1.5,1.5,0,0,1,1.37-.89,1.14,1.14,0,0,1,.48.1Z"/><path class="cls-1" d="M545.07,87.78a.88.88,0,0,0-.29-.67,4.6,4.6,0,0,0-1.13-.65,7.47,7.47,0,0,1-1.38-.69,1.87,1.87,0,0,1-.6-.66,1.8,1.8,0,0,1-.2-.87,1.94,1.94,0,0,1,.66-1.5,2.41,2.41,0,0,1,1.69-.6,2.37,2.37,0,0,1,1.73.63,2.14,2.14,0,0,1,.66,1.62H545a1.23,1.23,0,0,0-.34-.86,1.14,1.14,0,0,0-.85-.35,1.17,1.17,0,0,0-.84.28,1,1,0,0,0-.31.74.81.81,0,0,0,.23.59,3.63,3.63,0,0,0,1.07.59,5.66,5.66,0,0,1,1.83,1,1.8,1.8,0,0,1,.48,1.28,2,2,0,0,1-.66,1.55,2.62,2.62,0,0,1-1.78.57,2.65,2.65,0,0,1-1.87-.66,2.18,2.18,0,0,1-.72-1.68h1.22a1.26,1.26,0,0,0,1.37,1.31,1.37,1.37,0,0,0,.92-.27A.9.9,0,0,0,545.07,87.78Z"/><path class="cls-1" d="M548.36,82.53l-.67-.5a3.71,3.71,0,0,0,.55-1.85v-1h1.2v.92a3.43,3.43,0,0,1-.31,1.33A3.07,3.07,0,0,1,548.36,82.53Z"/><path class="cls-1" d="M556.14,89.68h-1.21V79.18h1.21Z"/><path class="cls-1" d="M559.79,80.32a.8.8,0,0,1-.17.51.63.63,0,0,1-.52.21.61.61,0,0,1-.51-.21.75.75,0,0,1-.17-.51.76.76,0,0,1,.17-.52.61.61,0,0,1,.51-.21.64.64,0,0,1,.52.21A.85.85,0,0,1,559.79,80.32Zm-.09,9.36h-1.21v-7.4h1.21Z"/><path class="cls-1" d="M564,87.84l1.41-5.56h1.23l-2.2,7.4h-.9l-2.22-7.4h1.23Z"/><path class="cls-1" d="M570.84,89.81a2.69,2.69,0,0,1-2.12-.82,3.57,3.57,0,0,1-.75-2.42v-.89a4.2,4.2,0,0,1,.72-2.6,2.41,2.41,0,0,1,2-.94,2.33,2.33,0,0,1,1.95.83,4.32,4.32,0,0,1,.65,2.58v.79h-4.13v.17a2.68,2.68,0,0,0,.45,1.73,1.58,1.58,0,0,0,1.29.54,2.16,2.16,0,0,0,.94-.2,2.34,2.34,0,0,0,.76-.64l.63.77A2.75,2.75,0,0,1,570.84,89.81Zm-.14-6.63a1.25,1.25,0,0,0-1.11.52,3,3,0,0,0-.41,1.6h2.91v-.16a2.87,2.87,0,0,0-.38-1.51A1.16,1.16,0,0,0,570.7,83.18Z"/><path class="cls-1" d="M578.7,87.78a.89.89,0,0,0-.3-.67,4.41,4.41,0,0,0-1.13-.65,7.82,7.82,0,0,1-1.38-.69,1.87,1.87,0,0,1-.6-.66,1.8,1.8,0,0,1-.2-.87,1.94,1.94,0,0,1,.66-1.5,2.41,2.41,0,0,1,1.69-.6,2.37,2.37,0,0,1,1.73.63,2.14,2.14,0,0,1,.66,1.62h-1.2a1.18,1.18,0,0,0-.34-.86,1.12,1.12,0,0,0-.85-.35,1.17,1.17,0,0,0-.84.28,1,1,0,0,0-.3.74.8.8,0,0,0,.22.59,3.78,3.78,0,0,0,1.07.59,5.55,5.55,0,0,1,1.83,1,1.81,1.81,0,0,1,.49,1.28,1.94,1.94,0,0,1-.67,1.55,2.61,2.61,0,0,1-1.77.57,2.68,2.68,0,0,1-1.88-.66,2.17,2.17,0,0,1-.71-1.68h1.21a1.36,1.36,0,0,0,.38,1,1.63,1.63,0,0,0,1.91.08A.91.91,0,0,0,578.7,87.78Z"/><path class="cls-1" d="M581.91,89a.74.74,0,0,1,.2-.54.71.71,0,0,1,.58-.22.72.72,0,0,1,.79.76.72.72,0,0,1-.2.53.77.77,0,0,1-.59.21.73.73,0,0,1-.58-.21A.72.72,0,0,1,581.91,89Z"/><path class="cls-1" d="M11.86,137.68v-24h6.19v18.72H28.72v5.29Z"/><path class="cls-1" d="M34.22,135.55Q32,133.18,32,128.71t2.25-6.84a8.39,8.39,0,0,1,6.39-2.37A8.39,8.39,0,0,1,47,121.87q2.25,2.38,2.25,6.84T47,135.55a8.39,8.39,0,0,1-6.39,2.37A8.39,8.39,0,0,1,34.22,135.55ZM40.61,124q-2.45,0-2.45,4.74t2.45,4.75c1.64,0,2.45-1.58,2.45-4.75S42.25,124,40.61,124Z"/><path class="cls-1" d="M52.28,119.71h6.57l3,11.06,3-11.06h6.63l-6.87,18H59.15Z"/><path class="cls-1" d="M74.36,132.39a4.82,4.82,0,0,1,.13-1.12,4.93,4.93,0,0,1,.62-1.38,5,5,0,0,1,1.27-1.42,6.91,6.91,0,0,1,2.35-1,13.69,13.69,0,0,1,3.65-.43c.75,0,1.29,0,1.63,0a2.67,2.67,0,0,0-.72-2.1,2.48,2.48,0,0,0-1.7-.64,14.39,14.39,0,0,0-5.46,1.13v-4.7a15.94,15.94,0,0,1,5.9-1.24,8.69,8.69,0,0,1,6.13,2,7.52,7.52,0,0,1,2.16,5.79v4.25q0,3.34-1.8,4.87t-6.45,1.53Q74.38,137.92,74.36,132.39Zm6.19-1.07c0,1.27.57,1.91,1.73,1.91h0a1.55,1.55,0,0,0,1.35-.69,2.55,2.55,0,0,0,.47-1.45v-1.52c-.57,0-1-.07-1.2-.07C81.34,129.5,80.55,130.11,80.55,131.32Z"/><path class="cls-1" d="M95.63,131.58V112.91h6.19v6.66a21.83,21.83,0,0,1,2.33-.07,7.72,7.72,0,0,1,6,2.35c1.42,1.56,2.12,3.82,2.12,6.76q0,9.34-8.81,9.35h0a12.91,12.91,0,0,1-4-.54A4.78,4.78,0,0,1,97,135.9a6.22,6.22,0,0,1-1.09-2A7.83,7.83,0,0,1,95.63,131.58Zm6.19,1.06a1.15,1.15,0,0,0,.46.9,2.2,2.2,0,0,0,1.43.39c.84,0,1.45-.52,1.84-1.57a11.75,11.75,0,0,0,.58-4,7.19,7.19,0,0,0-.79-3.65,2.54,2.54,0,0,0-2.33-1.33c-.21,0-.61,0-1.19.07Z"/><path class="cls-1" d="M118,137.68V112.87h6.19v24.81Z"/><path class="cls-1" d="M130.09,128.85a10.86,10.86,0,0,1,2-6.85q2-2.56,6.25-2.57a7.43,7.43,0,0,1,6.1,2.53,9.5,9.5,0,0,1,2.07,6.21,16.69,16.69,0,0,1-.1,2H136.28a2.58,2.58,0,0,0,1.19,2.13,4.45,4.45,0,0,0,2.66.86,10.83,10.83,0,0,0,5.66-1.41v4.36a14.2,14.2,0,0,1-9.34,1.67,8.42,8.42,0,0,1-2.29-.81,7.14,7.14,0,0,1-2.06-1.56,7.57,7.57,0,0,1-1.44-2.63A12.05,12.05,0,0,1,130.09,128.85Zm6.33-2.44h4a5,5,0,0,0-.61-2,1.62,1.62,0,0,0-1.41-1,1.6,1.6,0,0,0-1.4.93A4.65,4.65,0,0,0,136.42,126.41Z"/><path class="cls-1" d="M169.19,128.8h-2.61v8.88h-1.26V128.8h-2.61v-1.08h6.48Z"/><path class="cls-1" d="M172.05,131a2.14,2.14,0,0,1,1.77-.9c1.3,0,2,.88,2,2.62v4.92h-1.2v-4.86a2.07,2.07,0,0,0-.29-1.24,1,1,0,0,0-.87-.36,1.23,1.23,0,0,0-.81.3,2.21,2.21,0,0,0-.58.78v5.38h-1.21v-10.5h1.21Z"/><path class="cls-1" d="M180.6,137.81a2.69,2.69,0,0,1-2.12-.82,3.57,3.57,0,0,1-.75-2.42v-.89a4.2,4.2,0,0,1,.72-2.6,2.41,2.41,0,0,1,2-.94,2.31,2.31,0,0,1,1.94.83,4.24,4.24,0,0,1,.66,2.58v.79h-4.13v.17a2.68,2.68,0,0,0,.45,1.73,1.58,1.58,0,0,0,1.29.54,2.16,2.16,0,0,0,.94-.2,2.34,2.34,0,0,0,.76-.64l.63.77A2.77,2.77,0,0,1,180.6,137.81Zm-.14-6.63a1.25,1.25,0,0,0-1.11.52,3,3,0,0,0-.41,1.6h2.91v-.16a2.87,2.87,0,0,0-.38-1.51A1.17,1.17,0,0,0,180.46,131.18Z"/><path class="cls-1" d="M193.76,134.33a4.42,4.42,0,0,1-.63,2.62,2.07,2.07,0,0,1-1.79.86,2,2,0,0,1-1.72-.84v3.55h-1.2V130.28h1.1l.06.82a1.93,1.93,0,0,1,1.74-1,2.1,2.1,0,0,1,1.82.85,4.48,4.48,0,0,1,.62,2.54Zm-1.2-.69a3.36,3.36,0,0,0-.39-1.83,1.33,1.33,0,0,0-1.23-.59,1.44,1.44,0,0,0-1.32.87v3.84a1.44,1.44,0,0,0,1.34.85,1.33,1.33,0,0,0,1.2-.59,3.42,3.42,0,0,0,.4-1.81Z"/><path class="cls-1" d="M198.72,131.42a2.31,2.31,0,0,0-.54,0,1.33,1.33,0,0,0-1.3,1v5.29h-1.21v-7.4h1.17l0,.75a1.5,1.5,0,0,1,1.37-.89,1.14,1.14,0,0,1,.48.1Z"/><path class="cls-1" d="M199.89,133.64a3.89,3.89,0,0,1,.78-2.56,2.57,2.57,0,0,1,2.07-.94,2.6,2.6,0,0,1,2.07.92,3.78,3.78,0,0,1,.8,2.5v.77a3.87,3.87,0,0,1-.78,2.55,2.79,2.79,0,0,1-4.14,0,3.74,3.74,0,0,1-.8-2.46Zm1.21.69a3.13,3.13,0,0,0,.45,1.8,1.39,1.39,0,0,0,1.2.65q1.6,0,1.65-2.31v-.83a3.15,3.15,0,0,0-.45-1.8,1.4,1.4,0,0,0-1.21-.66,1.36,1.36,0,0,0-1.19.66,3.14,3.14,0,0,0-.45,1.79Z"/><path class="cls-1" d="M207.27,133.64a4.5,4.5,0,0,1,.63-2.6,2.12,2.12,0,0,1,1.84-.9,1.88,1.88,0,0,1,1.65.87v-3.83h1.21v10.5h-1.1l-.06-.8a1.92,1.92,0,0,1-1.71.93,2.1,2.1,0,0,1-1.8-.89,4.22,4.22,0,0,1-.66-2.52Zm1.21.69a3.59,3.59,0,0,0,.36,1.83,1.32,1.32,0,0,0,1.21.58,1.41,1.41,0,0,0,1.34-.91V132.1a1.44,1.44,0,0,0-1.34-.88,1.32,1.32,0,0,0-1.2.58,3.49,3.49,0,0,0-.37,1.79Z"/><path class="cls-1" d="M218.59,137a2.09,2.09,0,0,1-1.76.78,1.77,1.77,0,0,1-1.52-.69,3.45,3.45,0,0,1-.52-2v-4.82H216V135c0,1.15.34,1.73,1,1.73a1.51,1.51,0,0,0,1.51-1v-5.48h1.21v7.4h-1.15Z"/><path class="cls-1" d="M224.5,136.78a1.27,1.27,0,0,0,1-.37,1.53,1.53,0,0,0,.4-1.06H227a2.48,2.48,0,0,1-.75,1.76,2.4,2.4,0,0,1-1.75.7,2.56,2.56,0,0,1-2.09-.86,3.88,3.88,0,0,1-.73-2.57v-.82a3.9,3.9,0,0,1,.72-2.54,2.57,2.57,0,0,1,2.09-.88,2.36,2.36,0,0,1,1.81.72,2.9,2.9,0,0,1,.7,2h-1.14a2.09,2.09,0,0,0-.39-1.23,1.24,1.24,0,0,0-1-.41,1.39,1.39,0,0,0-1.19.53,3.09,3.09,0,0,0-.41,1.74v1a3.24,3.24,0,0,0,.39,1.84A1.41,1.41,0,0,0,224.5,136.78Z"/><path class="cls-1" d="M230.33,128.49v1.79h1.12v1h-1.12v4.59a1.26,1.26,0,0,0,.15.67.53.53,0,0,0,.49.22,1.73,1.73,0,0,0,.49-.08l0,1a2.63,2.63,0,0,1-.84.13,1.27,1.27,0,0,1-1.09-.51,2.41,2.41,0,0,1-.38-1.45v-4.59H228v-1h1.13v-1.79Z"/><path class="cls-1" d="M240.39,135.78a.89.89,0,0,0-.3-.67,4.41,4.41,0,0,0-1.13-.65,7.82,7.82,0,0,1-1.38-.69,1.87,1.87,0,0,1-.6-.66,1.8,1.8,0,0,1-.2-.87,1.94,1.94,0,0,1,.66-1.5,2.41,2.41,0,0,1,1.69-.6,2.37,2.37,0,0,1,1.73.63,2.14,2.14,0,0,1,.66,1.62h-1.2a1.18,1.18,0,0,0-.34-.86,1.14,1.14,0,0,0-.85-.35,1.17,1.17,0,0,0-.84.28,1,1,0,0,0-.3.74.8.8,0,0,0,.22.59,3.78,3.78,0,0,0,1.07.59,5.55,5.55,0,0,1,1.83,1,1.81,1.81,0,0,1,.49,1.28,1.94,1.94,0,0,1-.67,1.55,2.61,2.61,0,0,1-1.77.57,2.66,2.66,0,0,1-1.88-.66,2.18,2.18,0,0,1-.72-1.68h1.22a1.26,1.26,0,0,0,1.38,1.31,1.35,1.35,0,0,0,.91-.27A.91.91,0,0,0,240.39,135.78Z"/><path class="cls-1" d="M244.73,131a2.13,2.13,0,0,1,1.76-.9c1.31,0,2,.88,2,2.62v4.92h-1.2v-4.86a2.07,2.07,0,0,0-.29-1.24,1.07,1.07,0,0,0-.87-.36,1.24,1.24,0,0,0-.82.3,2.19,2.19,0,0,0-.57.78v5.38h-1.21v-10.5h1.21Z"/><path class="cls-1" d="M250.38,133.64a3.89,3.89,0,0,1,.78-2.56,2.76,2.76,0,0,1,4.13,0,3.79,3.79,0,0,1,.81,2.5v.77a3.87,3.87,0,0,1-.78,2.55,2.79,2.79,0,0,1-4.14,0,3.69,3.69,0,0,1-.8-2.46Zm1.21.69a3.13,3.13,0,0,0,.44,1.8,1.4,1.4,0,0,0,1.21.65c1.07,0,1.61-.77,1.65-2.31v-.83a3.15,3.15,0,0,0-.45-1.8,1.42,1.42,0,0,0-1.21-.66,1.39,1.39,0,0,0-1.2.66,3.14,3.14,0,0,0-.44,1.79Z"/><path class="cls-1" d="M261.78,137a2.09,2.09,0,0,1-1.76.78,1.79,1.79,0,0,1-1.52-.69,3.38,3.38,0,0,1-.51-2v-4.82h1.2V135c0,1.15.35,1.73,1,1.73a1.53,1.53,0,0,0,1.52-1v-5.48H263v7.4h-1.15Z"/><path class="cls-1" d="M266.43,137.68h-1.21v-10.5h1.21Z"/><path class="cls-1" d="M268.43,133.64a4.42,4.42,0,0,1,.64-2.6,2.09,2.09,0,0,1,1.83-.9,1.9,1.9,0,0,1,1.66.87v-3.83h1.21v10.5h-1.11l-.06-.8a1.92,1.92,0,0,1-1.71.93,2.1,2.1,0,0,1-1.8-.89,4.3,4.3,0,0,1-.66-2.52Zm1.21.69a3.48,3.48,0,0,0,.37,1.83,1.29,1.29,0,0,0,1.2.58,1.44,1.44,0,0,0,1.35-.91V132.1a1.45,1.45,0,0,0-1.34-.88,1.32,1.32,0,0,0-1.21.58,3.49,3.49,0,0,0-.37,1.79Z"/><path class="cls-1" d="M279.28,133.64a4.42,4.42,0,0,1,.64-2.6,2.09,2.09,0,0,1,1.83-.9,1.9,1.9,0,0,1,1.66.87v-3.83h1.21v10.5h-1.11l-.06-.8a1.91,1.91,0,0,1-1.7.93,2.11,2.11,0,0,1-1.81-.89,4.3,4.3,0,0,1-.66-2.52Zm1.21.69a3.48,3.48,0,0,0,.37,1.83,1.29,1.29,0,0,0,1.2.58,1.44,1.44,0,0,0,1.35-.91V132.1a1.45,1.45,0,0,0-1.34-.88,1.32,1.32,0,0,0-1.21.58,3.49,3.49,0,0,0-.37,1.79Z"/><path class="cls-1" d="M289.47,137.81a2.69,2.69,0,0,1-2.12-.82,3.57,3.57,0,0,1-.75-2.42v-.89a4.2,4.2,0,0,1,.72-2.6,2.41,2.41,0,0,1,2-.94,2.32,2.32,0,0,1,1.94.83,4.25,4.25,0,0,1,.65,2.58v.79H287.8v.17a2.68,2.68,0,0,0,.45,1.73,1.58,1.58,0,0,0,1.29.54,2.13,2.13,0,0,0,.94-.2,2.34,2.34,0,0,0,.76-.64l.63.77A2.75,2.75,0,0,1,289.47,137.81Zm-.13-6.63a1.26,1.26,0,0,0-1.12.52,3,3,0,0,0-.41,1.6h2.91v-.16a2.87,2.87,0,0,0-.38-1.51A1.15,1.15,0,0,0,289.34,131.18Z"/><path class="cls-1" d="M295,137.68h-1.21v-10.5H295Z"/><path class="cls-1" d="M298.69,128.32a.8.8,0,0,1-.17.51.64.64,0,0,1-.52.21.61.61,0,0,1-.51-.21.75.75,0,0,1-.17-.51.76.76,0,0,1,.17-.52.72.72,0,0,1,1,0A.8.8,0,0,1,298.69,128.32Zm-.1,9.36h-1.21v-7.4h1.21Z"/><path class="cls-1" d="M300.6,133.64a4.49,4.49,0,0,1,.63-2.61,2.13,2.13,0,0,1,1.84-.89,1.91,1.91,0,0,1,1.72,1l.06-.83h1.09v7.47a2.91,2.91,0,0,1-.7,2.1,2.59,2.59,0,0,1-2,.74,3.35,3.35,0,0,1-1.23-.27,2.55,2.55,0,0,1-1-.67l.49-.83a2.34,2.34,0,0,0,1.66.74c1,0,1.53-.55,1.55-1.65v-1a1.89,1.89,0,0,1-1.66.86,2.1,2.1,0,0,1-1.8-.86,4.34,4.34,0,0,1-.67-2.49Zm1.21.69a3.58,3.58,0,0,0,.37,1.83,1.29,1.29,0,0,0,1.2.58,1.45,1.45,0,0,0,1.35-.92v-3.69a1.45,1.45,0,0,0-1.34-.91,1.32,1.32,0,0,0-1.2.58,3.48,3.48,0,0,0-.38,1.79Z"/><path class="cls-1" d="M309.3,131a2.13,2.13,0,0,1,1.76-.9c1.31,0,2,.88,2,2.62v4.92h-1.2v-4.86a2.07,2.07,0,0,0-.29-1.24,1,1,0,0,0-.87-.36,1.23,1.23,0,0,0-.81.3,2.21,2.21,0,0,0-.58.78v5.38h-1.21v-10.5h1.21Z"/><path class="cls-1" d="M316.79,128.49v1.79h1.11v1h-1.11v4.59a1.36,1.36,0,0,0,.14.67.54.54,0,0,0,.49.22,1.67,1.67,0,0,0,.49-.08v1a2.74,2.74,0,0,1-.85.13,1.28,1.28,0,0,1-1.09-.51,2.41,2.41,0,0,1-.37-1.45v-4.59h-1.13v-1h1.13v-1.79Z"/><path class="cls-1" d="M327.05,137.68a3.05,3.05,0,0,1-.16-.81,1.9,1.9,0,0,1-1.64.94,2.07,2.07,0,0,1-1.56-.56,2.15,2.15,0,0,1-.57-1.59,2.25,2.25,0,0,1,.77-1.79,3.17,3.17,0,0,1,2.1-.68h.88v-.78a1.26,1.26,0,0,0-.29-.95,1.29,1.29,0,0,0-.9-.28,1.2,1.2,0,0,0-.88.33,1.07,1.07,0,0,0-.35.82h-1.21a2,2,0,0,1,.34-1.08,2.21,2.21,0,0,1,.9-.81,2.67,2.67,0,0,1,1.27-.3,2.38,2.38,0,0,1,1.72.57,2.17,2.17,0,0,1,.61,1.64v3.73a4.44,4.44,0,0,0,.23,1.49v.11Zm-1.61-1a1.66,1.66,0,0,0,.85-.24,1.56,1.56,0,0,0,.58-.62v-1.76h-.68a2.36,2.36,0,0,0-1.36.38,1.25,1.25,0,0,0-.5,1.05,1.39,1.39,0,0,0,.25.91A1.11,1.11,0,0,0,325.44,136.71Z"/><path class="cls-1" d="M331.44,130.28l0,.8a2.16,2.16,0,0,1,1.79-.94c1.31,0,2,.88,2,2.62v4.92h-1.2v-4.86a2.07,2.07,0,0,0-.29-1.24,1,1,0,0,0-.87-.36,1.23,1.23,0,0,0-.81.3,2.21,2.21,0,0,0-.58.78v5.38H330.3v-7.4Z"/><path class="cls-1" d="M337.17,133.64a4.42,4.42,0,0,1,.64-2.6,2.12,2.12,0,0,1,1.84-.9,1.9,1.9,0,0,1,1.65.87v-3.83h1.21v10.5H341.4l-.06-.8a1.9,1.9,0,0,1-1.7.93,2.08,2.08,0,0,1-1.8-.89,4.22,4.22,0,0,1-.67-2.52Zm1.21.69a3.48,3.48,0,0,0,.37,1.83,1.32,1.32,0,0,0,1.2.58,1.44,1.44,0,0,0,1.35-.91V132.1a1.45,1.45,0,0,0-1.34-.88,1.29,1.29,0,0,0-1.2.58,3.48,3.48,0,0,0-.38,1.79Z"/><path class="cls-1" d="M349.68,128.32a.8.8,0,0,1-.17.51.75.75,0,0,1-1,0,.8.8,0,0,1-.17-.51.81.81,0,0,1,.17-.52.64.64,0,0,1,.52-.21.62.62,0,0,1,.51.21A.8.8,0,0,1,349.68,128.32Zm-.1,9.36h-1.21v-7.4h1.21Z"/><path class="cls-1" d="M353,130.28l0,.8a2.18,2.18,0,0,1,1.8-.94c1.3,0,2,.88,2,2.62v4.92h-1.2v-4.86a2,2,0,0,0-.29-1.24,1,1,0,0,0-.87-.36,1.23,1.23,0,0,0-.81.3,2.21,2.21,0,0,0-.58.78v5.38h-1.21v-7.4Z"/><path class="cls-1" d="M362.55,135.78a.92.92,0,0,0-.29-.67,4.72,4.72,0,0,0-1.14-.65,7.3,7.3,0,0,1-1.37-.69,1.87,1.87,0,0,1-.6-.66,1.8,1.8,0,0,1-.2-.87,1.94,1.94,0,0,1,.66-1.5,2.69,2.69,0,0,1,3.42,0,2.14,2.14,0,0,1,.66,1.62h-1.21a1.22,1.22,0,0,0-.33-.86,1.29,1.29,0,0,0-1.69-.07.92.92,0,0,0-.31.74.84.84,0,0,0,.22.59,4,4,0,0,0,1.07.59,5.73,5.73,0,0,1,1.84,1,1.8,1.8,0,0,1,.48,1.28,2,2,0,0,1-.66,1.55,3,3,0,0,1-3.65-.09,2.18,2.18,0,0,1-.72-1.68H360a1.24,1.24,0,0,0,1.37,1.31,1.38,1.38,0,0,0,.92-.27A.9.9,0,0,0,362.55,135.78Z"/><path class="cls-1" d="M371,134.33a4.42,4.42,0,0,1-.63,2.62,2.07,2.07,0,0,1-1.79.86,2,2,0,0,1-1.72-.84v3.55h-1.2V130.28h1.09l.07.82a1.93,1.93,0,0,1,1.74-1,2.1,2.1,0,0,1,1.82.85,4.48,4.48,0,0,1,.62,2.54Zm-1.2-.69a3.36,3.36,0,0,0-.39-1.83,1.33,1.33,0,0,0-1.23-.59,1.42,1.42,0,0,0-1.32.87v3.84a1.43,1.43,0,0,0,1.34.85,1.33,1.33,0,0,0,1.2-.59,3.42,3.42,0,0,0,.4-1.81Z"/><path class="cls-1" d="M374.34,128.32a.8.8,0,0,1-.17.51.64.64,0,0,1-.52.21.61.61,0,0,1-.51-.21.75.75,0,0,1-.17-.51.76.76,0,0,1,.17-.52.61.61,0,0,1,.51-.21.64.64,0,0,1,.52.21A.85.85,0,0,1,374.34,128.32Zm-.1,9.36H373v-7.4h1.21Z"/><path class="cls-1" d="M379.55,131.42a2.39,2.39,0,0,0-.55,0,1.33,1.33,0,0,0-1.3,1v5.29h-1.21v-7.4h1.18l0,.75a1.5,1.5,0,0,1,1.37-.89,1.07,1.07,0,0,1,.48.1Z"/><path class="cls-1" d="M383.62,137.81a2.69,2.69,0,0,1-2.12-.82,3.57,3.57,0,0,1-.75-2.42v-.89a4.2,4.2,0,0,1,.72-2.6,2.41,2.41,0,0,1,2-.94,2.29,2.29,0,0,1,1.94.83,4.24,4.24,0,0,1,.66,2.58v.79H382v.17a2.68,2.68,0,0,0,.45,1.73,1.58,1.58,0,0,0,1.29.54,2.16,2.16,0,0,0,.94-.2,2.34,2.34,0,0,0,.76-.64l.63.77A2.77,2.77,0,0,1,383.62,137.81Zm-.14-6.63a1.25,1.25,0,0,0-1.11.52,3,3,0,0,0-.41,1.6h2.91v-.16a2.87,2.87,0,0,0-.38-1.51A1.17,1.17,0,0,0,383.48,131.18Z"/><path class="cls-1" d="M388,137a.78.78,0,0,1,.2-.54.72.72,0,0,1,.58-.22.72.72,0,0,1,.79.76.72.72,0,0,1-.2.53.77.77,0,0,1-.59.21.75.75,0,0,1-.58-.21A.76.76,0,0,1,388,137Z"/><path class="cls-1" d="M397,137.68H395.7v-10H397Z"/><path class="cls-1" d="M400.91,128.49v1.79H402v1h-1.11v4.59a1.26,1.26,0,0,0,.14.67.53.53,0,0,0,.49.22,1.73,1.73,0,0,0,.49-.08l0,1a2.63,2.63,0,0,1-.84.13,1.27,1.27,0,0,1-1.09-.51,2.41,2.41,0,0,1-.38-1.45v-4.59h-1.13v-1h1.13v-1.79Z"/><path class="cls-1" d="M404,130.53l-.67-.5a3.71,3.71,0,0,0,.55-1.85v-1H405v.92a3.43,3.43,0,0,1-.31,1.33A3.07,3.07,0,0,1,404,130.53Z"/><path class="cls-1" d="M409.71,135.78a.89.89,0,0,0-.3-.67,4.41,4.41,0,0,0-1.13-.65,7.82,7.82,0,0,1-1.38-.69,1.87,1.87,0,0,1-.6-.66,1.8,1.8,0,0,1-.2-.87,1.94,1.94,0,0,1,.66-1.5,2.41,2.41,0,0,1,1.69-.6,2.37,2.37,0,0,1,1.73.63,2.14,2.14,0,0,1,.66,1.62h-1.2a1.18,1.18,0,0,0-.34-.86,1.14,1.14,0,0,0-.85-.35,1.17,1.17,0,0,0-.84.28,1,1,0,0,0-.3.74.8.8,0,0,0,.22.59,3.78,3.78,0,0,0,1.07.59,5.55,5.55,0,0,1,1.83,1,1.81,1.81,0,0,1,.49,1.28,1.94,1.94,0,0,1-.67,1.55,2.61,2.61,0,0,1-1.77.57,2.68,2.68,0,0,1-1.88-.66,2.18,2.18,0,0,1-.72-1.68h1.22a1.36,1.36,0,0,0,.38,1,1.33,1.33,0,0,0,1,.35,1.35,1.35,0,0,0,.91-.27A.91.91,0,0,0,409.71,135.78Z"/><path class="cls-1" d="M417.54,130.28l0,.8a2.18,2.18,0,0,1,1.8-.94c1.31,0,2,.88,2,2.62v4.92h-1.21v-4.86a2,2,0,0,0-.29-1.24,1,1,0,0,0-.87-.36,1.23,1.23,0,0,0-.81.3,2.21,2.21,0,0,0-.58.78v5.38h-1.21v-7.4Z"/><path class="cls-1" d="M423.27,133.64a3.89,3.89,0,0,1,.78-2.56,2.76,2.76,0,0,1,4.13,0,3.79,3.79,0,0,1,.81,2.5v.77a3.87,3.87,0,0,1-.78,2.55,2.79,2.79,0,0,1-4.14,0,3.69,3.69,0,0,1-.8-2.46Zm1.21.69a3.21,3.21,0,0,0,.44,1.8,1.4,1.4,0,0,0,1.21.65q1.61,0,1.65-2.31v-.83a3.15,3.15,0,0,0-.45-1.8,1.4,1.4,0,0,0-1.21-.66,1.39,1.39,0,0,0-1.2.66,3.22,3.22,0,0,0-.44,1.79Z"/><path class="cls-1" d="M432.48,128.49v1.79h1.12v1h-1.12v4.59a1.26,1.26,0,0,0,.15.67.53.53,0,0,0,.49.22,1.61,1.61,0,0,0,.48-.08v1a2.63,2.63,0,0,1-.84.13,1.27,1.27,0,0,1-1.09-.51,2.34,2.34,0,0,1-.38-1.45v-4.59h-1.13v-1h1.13v-1.79Z"/><path class="cls-1" d="M442.53,135.78a.88.88,0,0,0-.29-.67,4.52,4.52,0,0,0-1.14-.65,7.3,7.3,0,0,1-1.37-.69,1.87,1.87,0,0,1-.6-.66,1.8,1.8,0,0,1-.2-.87,1.94,1.94,0,0,1,.66-1.5,2.69,2.69,0,0,1,3.42,0,2.14,2.14,0,0,1,.66,1.62h-1.21a1.22,1.22,0,0,0-.33-.86,1.14,1.14,0,0,0-.85-.35,1.17,1.17,0,0,0-.84.28,1,1,0,0,0-.31.74.81.81,0,0,0,.23.59,3.63,3.63,0,0,0,1.07.59,5.77,5.77,0,0,1,1.83,1,1.8,1.8,0,0,1,.48,1.28,2,2,0,0,1-.66,1.55,2.62,2.62,0,0,1-1.78.57,2.65,2.65,0,0,1-1.87-.66,2.18,2.18,0,0,1-.72-1.68h1.22a1.24,1.24,0,0,0,1.37,1.31,1.38,1.38,0,0,0,.92-.27A.9.9,0,0,0,442.53,135.78Z"/><path class="cls-1" d="M445.41,133.64a3.84,3.84,0,0,1,.79-2.56,2.76,2.76,0,0,1,4.13,0,3.78,3.78,0,0,1,.8,2.5v.77a3.86,3.86,0,0,1-.77,2.55,2.59,2.59,0,0,1-2.08.93,2.55,2.55,0,0,1-2.06-.91,3.75,3.75,0,0,1-.81-2.46Zm1.21.69a3.13,3.13,0,0,0,.45,1.8,1.4,1.4,0,0,0,1.21.65c1.06,0,1.61-.77,1.64-2.31v-.83a3.15,3.15,0,0,0-.45-1.8,1.42,1.42,0,0,0-2.4,0,3.14,3.14,0,0,0-.45,1.79Z"/><path class="cls-1" d="M454.18,130.28l0,.68a2.23,2.23,0,0,1,1.79-.82,1.76,1.76,0,0,1,1.73,1.08,2.18,2.18,0,0,1,1.94-1.08c1.36,0,2.06.85,2.09,2.55v5h-1.2v-4.87a2,2,0,0,0-.29-1.2,1.13,1.13,0,0,0-1-.39,1.09,1.09,0,0,0-.89.42,1.93,1.93,0,0,0-.4,1.08v5H456.8v-4.92c0-1-.43-1.54-1.26-1.54a1.31,1.31,0,0,0-1.29.91v5.55h-1.2v-7.4Z"/><path class="cls-1" d="M466.57,137.81a2.71,2.71,0,0,1-2.12-.82,3.57,3.57,0,0,1-.75-2.42v-.89a4.2,4.2,0,0,1,.72-2.6,2.42,2.42,0,0,1,2-.94,2.32,2.32,0,0,1,1.94.83,4.18,4.18,0,0,1,.65,2.58v.79h-4.12v.17a2.68,2.68,0,0,0,.44,1.73,1.58,1.58,0,0,0,1.29.54,2.13,2.13,0,0,0,.94-.2,2.24,2.24,0,0,0,.76-.64l.63.77A2.75,2.75,0,0,1,466.57,137.81Zm-.13-6.63a1.27,1.27,0,0,0-1.12.52,3,3,0,0,0-.41,1.6h2.91v-.16a2.88,2.88,0,0,0-.37-1.51A1.19,1.19,0,0,0,466.44,131.18Z"/><path class="cls-1" d="M472.42,128.49v1.79h1.11v1h-1.11v4.59a1.36,1.36,0,0,0,.14.67.54.54,0,0,0,.49.22,1.67,1.67,0,0,0,.49-.08v1a2.72,2.72,0,0,1-.84.13,1.28,1.28,0,0,1-1.1-.51,2.41,2.41,0,0,1-.37-1.45v-4.59h-1.13v-1h1.13v-1.79Z"/><path class="cls-1" d="M476.53,131a2.13,2.13,0,0,1,1.76-.9c1.31,0,2,.88,2,2.62v4.92h-1.2v-4.86a2.07,2.07,0,0,0-.29-1.24,1.07,1.07,0,0,0-.87-.36,1.23,1.23,0,0,0-.81.3,2.1,2.1,0,0,0-.58.78v5.38h-1.21v-10.5h1.21Z"/><path class="cls-1" d="M483.83,128.32a.8.8,0,0,1-.17.51.63.63,0,0,1-.52.21.61.61,0,0,1-.51-.21.75.75,0,0,1-.17-.51.76.76,0,0,1,.17-.52.61.61,0,0,1,.51-.21.64.64,0,0,1,.52.21A.85.85,0,0,1,483.83,128.32Zm-.09,9.36h-1.21v-7.4h1.21Z"/><path class="cls-1" d="M487.13,130.28l0,.8a2.18,2.18,0,0,1,1.8-.94c1.31,0,2,.88,2,2.62v4.92h-1.2v-4.86a2,2,0,0,0-.3-1.24,1,1,0,0,0-.87-.36,1.23,1.23,0,0,0-.81.3,2.08,2.08,0,0,0-.57.78v5.38H486v-7.4Z"/><path class="cls-1" d="M492.87,133.64a4.49,4.49,0,0,1,.63-2.61,2.12,2.12,0,0,1,1.84-.89,1.89,1.89,0,0,1,1.71,1l.07-.83h1.09v7.47a2.91,2.91,0,0,1-.7,2.1,2.61,2.61,0,0,1-2,.74,3.34,3.34,0,0,1-1.22-.27,2.52,2.52,0,0,1-1-.67l.5-.83a2.33,2.33,0,0,0,1.66.74c1,0,1.52-.55,1.55-1.65v-1a1.91,1.91,0,0,1-1.67.86,2.1,2.1,0,0,1-1.79-.86,4.27,4.27,0,0,1-.67-2.49Zm1.21.69a3.48,3.48,0,0,0,.37,1.83,1.29,1.29,0,0,0,1.2.58,1.45,1.45,0,0,0,1.35-.92v-3.69a1.45,1.45,0,0,0-1.34-.91,1.29,1.29,0,0,0-1.2.58,3.48,3.48,0,0,0-.38,1.79Z"/><path class="cls-1" d="M503.66,133.64a3.89,3.89,0,0,1,.78-2.56,2.77,2.77,0,0,1,4.14,0,3.78,3.78,0,0,1,.8,2.5v.77a3.87,3.87,0,0,1-.78,2.55,2.79,2.79,0,0,1-4.14,0,3.8,3.8,0,0,1-.8-2.46Zm1.21.69a3.13,3.13,0,0,0,.45,1.8,1.4,1.4,0,0,0,1.2.65q1.61,0,1.65-2.31v-.83a3.15,3.15,0,0,0-.45-1.8,1.39,1.39,0,0,0-1.21-.66,1.37,1.37,0,0,0-1.19.66,3.14,3.14,0,0,0-.45,1.79Z"/><path class="cls-1" d="M511.82,137.68v-6.42h-1v-1h1v-.85a2.72,2.72,0,0,1,.57-1.76A1.94,1.94,0,0,1,514,127a2.33,2.33,0,0,1,.73.12l-.06,1a2.44,2.44,0,0,0-.55-.06c-.69,0-1,.49-1,1.47v.7h1.27v1H513v6.42Z"/><path class="cls-1" d="M516.6,137.68v-6.42h-1v-1h1v-.85a2.72,2.72,0,0,1,.57-1.76,1.94,1.94,0,0,1,1.56-.64,2.37,2.37,0,0,1,.73.12l-.06,1a2.44,2.44,0,0,0-.55-.06c-.69,0-1,.49-1,1.47v.7h1.27v1h-1.27v6.42Z"/><path class="cls-1" d="M526,128.49v1.79h1.12v1H526v4.59a1.26,1.26,0,0,0,.15.67.53.53,0,0,0,.49.22,1.61,1.61,0,0,0,.48-.08v1a2.63,2.63,0,0,1-.84.13,1.27,1.27,0,0,1-1.09-.51,2.34,2.34,0,0,1-.38-1.45v-4.59h-1.13v-1h1.13v-1.79Z"/><path class="cls-1" d="M530.1,131a2.14,2.14,0,0,1,1.77-.9c1.3,0,2,.88,2,2.62v4.92h-1.2v-4.86a2.07,2.07,0,0,0-.29-1.24,1,1,0,0,0-.87-.36,1.23,1.23,0,0,0-.81.3,2.21,2.21,0,0,0-.58.78v5.38h-1.21v-10.5h1.21Z"/><path class="cls-1" d="M538.65,137.81a2.69,2.69,0,0,1-2.12-.82,3.57,3.57,0,0,1-.75-2.42v-.89a4.2,4.2,0,0,1,.72-2.6,2.41,2.41,0,0,1,2-.94,2.31,2.31,0,0,1,1.94.83,4.24,4.24,0,0,1,.66,2.58v.79H537v.17a2.68,2.68,0,0,0,.45,1.73,1.58,1.58,0,0,0,1.29.54,2.16,2.16,0,0,0,.94-.2,2.34,2.34,0,0,0,.76-.64l.63.77A2.77,2.77,0,0,1,538.65,137.81Zm-.14-6.63a1.25,1.25,0,0,0-1.11.52,3,3,0,0,0-.41,1.6h2.91v-.16a2.87,2.87,0,0,0-.38-1.51A1.17,1.17,0,0,0,538.51,131.18Z"/><path class="cls-1" d="M550.06,135.78a.92.92,0,0,0-.29-.67,4.72,4.72,0,0,0-1.14-.65,7.82,7.82,0,0,1-1.38-.69,1.93,1.93,0,0,1-.59-.66,1.7,1.7,0,0,1-.2-.87,1.94,1.94,0,0,1,.66-1.5,2.69,2.69,0,0,1,3.42,0,2.14,2.14,0,0,1,.66,1.62H550a1.22,1.22,0,0,0-.33-.86,1.16,1.16,0,0,0-.86-.35,1.2,1.2,0,0,0-.84.28,1,1,0,0,0-.3.74.84.84,0,0,0,.22.59,4,4,0,0,0,1.07.59,5.73,5.73,0,0,1,1.84,1,1.8,1.8,0,0,1,.48,1.28,2,2,0,0,1-.66,1.55,3,3,0,0,1-3.65-.09,2.18,2.18,0,0,1-.72-1.68h1.22a1.31,1.31,0,0,0,.37,1,1.34,1.34,0,0,0,1,.35,1.38,1.38,0,0,0,.92-.27A.9.9,0,0,0,550.06,135.78Z"/><path class="cls-1" d="M554.4,131a2.14,2.14,0,0,1,1.77-.9c1.3,0,2,.88,2,2.62v4.92H557v-4.86a2,2,0,0,0-.29-1.24,1,1,0,0,0-.87-.36,1.23,1.23,0,0,0-.81.3,2.21,2.21,0,0,0-.58.78v5.38h-1.21v-10.5h1.21Z"/><path class="cls-1" d="M563,137.81a2.69,2.69,0,0,1-2.12-.82,3.57,3.57,0,0,1-.75-2.42v-.89a4.2,4.2,0,0,1,.72-2.6,2.41,2.41,0,0,1,2-.94,2.31,2.31,0,0,1,1.94.83,4.24,4.24,0,0,1,.66,2.58v.79h-4.13v.17a2.68,2.68,0,0,0,.45,1.73,1.58,1.58,0,0,0,1.29.54,2.16,2.16,0,0,0,.94-.2,2.34,2.34,0,0,0,.76-.64l.63.77A2.77,2.77,0,0,1,563,137.81Zm-.14-6.63a1.25,1.25,0,0,0-1.11.52,3,3,0,0,0-.41,1.6h2.91v-.16a2.87,2.87,0,0,0-.38-1.51A1.17,1.17,0,0,0,562.81,131.18Z"/><path class="cls-1" d="M568.51,137.68H567.3v-10.5h1.21Z"/><path class="cls-1" d="M571.3,137.68v-6.42h-1v-1h1v-.85a2.62,2.62,0,0,1,.57-1.76,1.92,1.92,0,0,1,1.55-.64,2.39,2.39,0,0,1,.74.12l-.07,1a2.38,2.38,0,0,0-.55-.06c-.69,0-1,.49-1,1.47v.7h1.26v1h-1.26v6.42Z"/><path class="cls-1" d="M575.63,137a.78.78,0,0,1,.19-.54.74.74,0,0,1,.59-.22.76.76,0,0,1,.59.22.78.78,0,0,1,.2.54.76.76,0,0,1-.2.53.79.79,0,0,1-.59.21.77.77,0,0,1-.59-.21A.75.75,0,0,1,575.63,137Z"/></g></svg>