<svg xmlns="http://www.w3.org/2000/svg" xmlns:xlink="http://www.w3.org/1999/xlink" viewBox="0 0 250 150"><defs><style>.cls-1,.cls-3{fill:#a3eae7;}.cls-2{opacity:0.5;}.cls-3{opacity:0.35;}.cls-4{fill:#fb9502;}.cls-5{fill:#28b5bd;}.cls-6{fill:#228f9b;}</style><symbol id="Company-2" data-name="Company" viewBox="0 0 31.71 42.07"><polygon class="cls-1" points="20.38 42.07 31.71 42.07 31.71 7.68 20.38 0 20.38 42.07"/><polygon class="cls-1" points="0 7.68 0 42.05 1.7 42.05 1.7 8.56 18.38 2.59 18.38 42.05 20.38 42.05 20.38 0 0 7.68"/></symbol><symbol id="Tree" data-name="Tree" viewBox="0 0 10.7 22.8"><rect class="cls-1" x="4.42" y="11.6" width="1.87" height="11.2"/><path class="cls-1" d="M8.48,6c0,4.17-1.4,7.55-3.13,7.55S2.23,10.12,2.23,6,3.62,0,5.35,0,8.48,1.78,8.48,6Z"/><path class="cls-1" d="M10.7,7.35c0,2.62-2.4,4-5.35,4S0,10,0,7.35,2.4,2.6,5.35,2.6,10.7,4.73,10.7,7.35Z"/></symbol></defs><title>FindCompany</title><g id="FindCompany"><path id="Ground" class="cls-3" d="M7.5,90v4a14,14,0,0,0,14,14H84.28a4,4,0,0,1,4,4h0a14,14,0,0,0,14,14h89.44a14,14,0,0,0,14-14h0a4,4,0,0,1,4-4h18.75a14,14,0,0,0,14-14V90Z"/><g id="Companies"><use width="31.71" height="42.07" transform="translate(66.11 48.14)" xlink:href="#Company-2"/><use width="31.71" height="42.07" transform="translate(21.49 27.11) scale(1 1.5)" xlink:href="#Company-2"/><use width="31.71" height="42.07" transform="translate(149.41 42.88) scale(1.13 1.13)" xlink:href="#Company-2"/><use width="31.71" height="42.07" transform="translate(195.67 66.55) scale(0.63 0.56)" xlink:href="#Company-2"/></g><g id="Company-10" data-name="Company"><polygon class="cls-4" points="129.53 33.42 129.53 90.22 140.86 90.22 140.86 43.79 129.53 33.42"/><polygon class="cls-4" points="109.14 90.18 110.84 90.18 110.84 44.98 127.53 36.91 127.53 90.18 129.53 90.18 129.53 33.42 109.14 43.79 109.14 90.18"/></g><g id="Search"><path class="cls-5" d="M167.15,100.12A5.8,5.8,0,0,1,160,92.93l-.8-.8a45.09,45.09,0,1,0-9.29,7.68l1.6,1.61a5.8,5.8,0,0,1,7.19,7.18l28.91,29.27,9.92-7.41Zm-41.36-1.63A37.25,37.25,0,1,1,163,61.24,37.29,37.29,0,0,1,125.79,98.49Z"/><polygon class="cls-6" points="158.67 108.6 167.15 100.12 197.5 130.47 188.68 139.07 158.67 108.6"/><path class="cls-6" d="M126.27,20.66a41,41,0,1,1-41,41,41,41,0,0,1,41-41m0-3a44,44,0,1,0,44,44,44,44,0,0,0-44-44Z"/><polygon class="cls-4" points="188.68 139.07 197.5 130.47 195.37 128.16 186.37 136.66 188.68 139.07"/><polygon class="cls-4" points="160.79 110.89 169.62 102.28 167.49 99.98 158.49 108.48 160.79 110.89"/></g><g id="Trees"><use width="10.7" height="22.8" transform="translate(22.84 67.34)" xlink:href="#Tree"/><use width="10.7" height="22.8" transform="translate(227.69 67.34)" xlink:href="#Tree"/></g></g></svg>