<svg xmlns="http://www.w3.org/2000/svg" xmlns:xlink="http://www.w3.org/1999/xlink" viewBox="0 0 46 46"><defs><style>.cls-1{fill:#fff;stroke:#fb9502;}.cls-1,.cls-2,.cls-3{stroke-miterlimit:10;}.cls-2{fill:#a3eae7;stroke:#5dc5ca;}.cls-3{fill:#28b5bd;stroke:#fffefa;}</style><symbol id="Heart" data-name="Heart" viewBox="0 0 39.62 39.53"><path class="cls-1" d="M17.53,36.65a13,13,0,0,1-1.12-1.22L5.33,23.83,3.19,21.08A12.74,12.74,0,0,1,5.43,3.19a12.75,12.75,0,0,1,14.38-.88A12.75,12.75,0,0,1,36.42,21.09l-2.13,2.74L23.21,35.43a14.46,14.46,0,0,1-1.12,1.22l-2.28,2.19Z"/><path class="cls-2" d="M32.17,5.79a9.46,9.46,0,0,0-12.36.65,9.46,9.46,0,0,0-14,12.62l2,2.61L18.9,33.26a8.74,8.74,0,0,0,.91,1,11.06,11.06,0,0,0,.91-1L31.79,21.67l2-2.61A9.45,9.45,0,0,0,32.17,5.79Z"/><path class="cls-3" d="M11.06,18.89l-1.9-2.45A5.19,5.19,0,0,1,16.85,9.5l2.95,2.86,3-2.85a5.19,5.19,0,0,1,7.7,6.93l-1.9,2.45L19.81,28Z"/></symbol></defs><title>Icon-Empathize</title><g id="Page3"><use width="39.62" height="39.53" transform="translate(3.19 3.24)" xlink:href="#Heart"/></g></svg>