<svg xmlns="http://www.w3.org/2000/svg" xmlns:xlink="http://www.w3.org/1999/xlink" viewBox="0 0 1000 304.53"><defs><style>.cls-1,.cls-21,.cls-22,.cls-5,.cls-55,.cls-7{fill:none;}.cls-2{clip-path:url(#clip-path);}.cls-3{clip-path:url(#clip-path-3);}.cls-4{fill:#ffd58a;}.cls-5{stroke:#ffc166;stroke-width:1.37px;}.cls-21,.cls-22,.cls-5,.cls-55,.cls-7{stroke-miterlimit:10;}.cls-6{fill:#f8f8f8;}.cls-55,.cls-7{stroke:#fb9502;}.cls-8{fill:#5dc5ca;}.cls-9{fill:#a3eae7;}.cls-10{fill:#fb9502;}.cls-11{clip-path:url(#clip-path-5);}.cls-12{clip-path:url(#clip-path-6);}.cls-13{fill:#bc7002;}.cls-14{fill:#d8d9d9;}.cls-15{fill:#f2f2f2;}.cls-16{fill:#ccc;}.cls-17{fill:#e6e6e6;}.cls-18{fill:#fbb03b;}.cls-19{fill:#363636;}.cls-20{fill:#32312b;}.cls-21{stroke:#ccc;}.cls-21,.cls-22{stroke-linecap:round;}.cls-22{stroke:#b3b3b3;}.cls-23{clip-path:url(#clip-path-8);}.cls-24{fill:#228f9b;}.cls-25{fill:#28b5bd;}.cls-26{opacity:0.25;}.cls-27{clip-path:url(#clip-path-11);}.cls-28{opacity:0.05;}.cls-29{clip-path:url(#clip-path-12);}.cls-30{fill:#c8f3f1;}.cls-31{clip-path:url(#clip-path-13);}.cls-32{clip-path:url(#clip-path-14);}.cls-33{clip-path:url(#clip-path-15);}.cls-34{clip-path:url(#clip-path-16);}.cls-35{clip-path:url(#clip-path-17);}.cls-36{clip-path:url(#clip-path-18);}.cls-37{clip-path:url(#clip-path-19);}.cls-38{clip-path:url(#clip-path-20);}.cls-39{clip-path:url(#clip-path-21);}.cls-40{clip-path:url(#clip-path-22);}.cls-41{clip-path:url(#clip-path-23);}.cls-42{clip-path:url(#clip-path-24);}.cls-43{clip-path:url(#clip-path-25);}.cls-44{clip-path:url(#clip-path-26);}.cls-45{clip-path:url(#clip-path-27);}.cls-46{clip-path:url(#clip-path-28);}.cls-47{clip-path:url(#clip-path-29);}.cls-48{clip-path:url(#clip-path-30);}.cls-49{clip-path:url(#clip-path-31);}.cls-50{clip-path:url(#clip-path-32);}.cls-51{clip-path:url(#clip-path-33);}.cls-52{clip-path:url(#clip-path-34);}.cls-53{clip-path:url(#clip-path-35);}.cls-54{clip-path:url(#clip-path-37);}.cls-55{stroke-width:0.9px;}.cls-56{fill:#b5eeec;}.cls-57{opacity:0.1;}.cls-58{clip-path:url(#clip-path-38);}.cls-59{opacity:0.5;}.cls-60{clip-path:url(#clip-path-39);}.cls-61{fill:#b9b9b6;}.cls-62{fill:#e3e3e2;}.cls-63{clip-path:url(#clip-path-40);}</style><clipPath id="clip-path"><rect class="cls-1" x="123.31" y="164.85" width="360" height="122.74"/></clipPath><clipPath id="clip-path-3"><rect class="cls-1" x="258.81" y="170.99" width="120.56" height="49.69"/></clipPath><clipPath id="clip-path-5"><rect class="cls-1" x="227.25" y="231.41" width="120.56" height="49.69"/></clipPath><clipPath id="clip-path-6"><rect class="cls-1" x="531.2" y="166.39" width="267.3" height="119.66"/></clipPath><clipPath id="clip-path-8"><rect class="cls-1" x="711.77" y="6.38" width="274.95" height="114.84"/></clipPath><clipPath id="clip-path-11"><rect class="cls-1" x="791.77" y="102.47" width="94.66" height="4.06"/></clipPath><clipPath id="clip-path-12"><rect class="cls-1" x="791.77" y="109.45" width="14.66" height="3.52"/></clipPath><clipPath id="clip-path-13"><rect class="cls-1" x="771.77" y="102.47" width="14.66" height="4.06"/></clipPath><clipPath id="clip-path-14"><rect class="cls-1" x="771.77" y="109.45" width="14.66" height="3.52"/></clipPath><clipPath id="clip-path-15"><rect class="cls-1" x="751.77" y="102.47" width="14.66" height="4.06"/></clipPath><clipPath id="clip-path-16"><rect class="cls-1" x="751.77" y="109.45" width="14.66" height="3.52"/></clipPath><clipPath id="clip-path-17"><rect class="cls-1" x="731.77" y="102.47" width="14.66" height="4.06"/></clipPath><clipPath id="clip-path-18"><rect class="cls-1" x="731.77" y="109.45" width="14.66" height="3.52"/></clipPath><clipPath id="clip-path-19"><rect class="cls-1" x="711.77" y="102.47" width="14.66" height="4.06"/></clipPath><clipPath id="clip-path-20"><rect class="cls-1" x="711.77" y="109.45" width="14.66" height="3.52"/></clipPath><clipPath id="clip-path-21"><rect class="cls-1" x="892.06" y="102.47" width="14.66" height="4.06"/></clipPath><clipPath id="clip-path-22"><rect class="cls-1" x="892.06" y="109.45" width="14.66" height="3.52"/></clipPath><clipPath id="clip-path-23"><rect class="cls-1" x="912.06" y="102.47" width="14.66" height="4.06"/></clipPath><clipPath id="clip-path-24"><rect class="cls-1" x="912.06" y="109.45" width="14.66" height="3.52"/></clipPath><clipPath id="clip-path-25"><rect class="cls-1" x="932.06" y="102.47" width="14.66" height="4.06"/></clipPath><clipPath id="clip-path-26"><rect class="cls-1" x="932.06" y="109.45" width="14.66" height="3.52"/></clipPath><clipPath id="clip-path-27"><rect class="cls-1" x="952.06" y="102.47" width="14.66" height="4.06"/></clipPath><clipPath id="clip-path-28"><rect class="cls-1" x="952.06" y="109.45" width="14.66" height="3.52"/></clipPath><clipPath id="clip-path-29"><rect class="cls-1" x="972.06" y="102.47" width="14.66" height="4.06"/></clipPath><clipPath id="clip-path-30"><rect class="cls-1" x="972.06" y="109.45" width="14.66" height="3.52"/></clipPath><clipPath id="clip-path-31"><rect class="cls-1" x="811.77" y="109.45" width="14.66" height="3.52"/></clipPath><clipPath id="clip-path-32"><rect class="cls-1" x="831.77" y="109.45" width="14.66" height="3.52"/></clipPath><clipPath id="clip-path-33"><rect class="cls-1" x="851.77" y="109.45" width="14.66" height="3.52"/></clipPath><clipPath id="clip-path-34"><rect class="cls-1" x="871.77" y="109.45" width="14.66" height="3.52"/></clipPath><clipPath id="clip-path-35"><rect class="cls-1" x="364.7" y="26.85" width="301.52" height="73.89"/></clipPath><clipPath id="clip-path-37"><rect class="cls-1" x="364.7" y="26.85" width="301.52" height="73.89"/></clipPath><clipPath id="clip-path-38"><rect class="cls-1" x="435.25" y="88.18" width="61.13" height="5.04"/></clipPath><clipPath id="clip-path-39"><rect class="cls-1" x="467.38" y="88.28" width="29.02" height="4.01"/></clipPath><clipPath id="clip-path-40"><rect class="cls-1" x="13.28" y="15.89" width="336.77" height="95.82"/></clipPath></defs><title>Illustrations</title><g id="CoverWide"><g id="TrustedOwnership"><g class="cls-2"><g class="cls-2"><g class="cls-3"><path class="cls-4" d="M351.71,210.85l25.83,8.91-.89-27.62-12.74-1.81-22.77-5.14-30.28-13.32a10.28,10.28,0,0,0-7.1-.45c-6.83,2-21.06,6.31-22.9,7.47l-22.05,18s.7,9,8.55,7.2c5.81-1.37,17.33-8.76,25.44-14A13.21,13.21,0,0,1,303,188.35Z"/><path class="cls-4" d="M379.11,220.05s-31.58-13.19-40.76-7.34-22.52-9.09-34.55-10.42c-4.18-.47-9-2-12.41-2.17a6,6,0,0,1-4.63-9.28s8.87-7.08,16.3-3.81,14.25,6.53,14.25,6.53"/><path class="cls-5" d="M379.11,220.05s-31.58-13.19-40.76-7.34-22.52-9.09-34.55-10.42c-4.18-.47-9-2-12.41-2.17a6,6,0,0,1-4.63-9.28s8.87-7.08,16.3-3.81,14.25,6.53,14.25,6.53"/></g></g><polygon class="cls-6" points="468.31 196.72 374.78 188.95 378.96 237.33 468.31 255.25 468.31 196.72"/><g class="cls-2"><path class="cls-7" d="M299.56,222.13s2.58,5.12,2.77,14.6-5.11,20,5.5,28.33"/><path class="cls-8" d="M308.19,214.57c0,1.47-5.79,9.58-5.79,9.58s-6-7.74-6-9.2,1.63-3.6,5.58-3.73c3.6-.11,6.16,1.88,6.21,3.35"/><path class="cls-8" d="M295.08,215.68c1.41.41,7.32,8.47,7.32,8.47s-9.2,3.27-10.61,2.86-2.91-2.66-1.81-6.47c1-3.45,3.69-5.27,5.1-4.86"/><path class="cls-8" d="M292.09,228.49c.82-1.21,10.31-4.34,10.31-4.34s.27,9.75-.55,11-3.44,1.95-6.71-.27c-3-2-3.88-5.14-3.05-6.36"/><path class="cls-8" d="M303.34,235.3c-.9-1.16-.94-11.15-.94-11.15s9.36,2.75,10.26,3.91.8,3.87-2.33,6.3c-2.84,2.21-6.09,2.09-7,.94"/><path class="cls-8" d="M313.3,226.69c-1.39.5-10.9-2.54-10.9-2.54s5.51-8.06,6.89-8.55,3.93.43,5.27,4.16c1.22,3.38.12,6.43-1.26,6.93"/><path class="cls-9" d="M305.88,218.23c0,.89-3.48,5.76-3.48,5.76s-3.58-4.65-3.6-5.53,1-2.16,3.35-2.24c2.16-.07,3.7,1.13,3.73,2"/><path class="cls-9" d="M298,218.9c.85.25,4.4,5.09,4.4,5.09s-5.52,2-6.37,1.72-1.76-1.6-1.09-3.88c.6-2.08,2.22-3.17,3.06-2.93"/><path class="cls-9" d="M296.2,226.6c.5-.73,6.2-2.61,6.2-2.61s.16,5.86-.33,6.59-2.06,1.17-4-.16c-1.79-1.22-2.33-3.09-1.84-3.82"/><path class="cls-9" d="M303,230.69c-.54-.7-.57-6.7-.57-6.7s5.63,1.66,6.17,2.35.48,2.33-1.4,3.79c-1.71,1.32-3.66,1.26-4.2.56"/><path class="cls-9" d="M309,225.52c-.83.3-6.55-1.53-6.55-1.53s3.32-4.84,4.14-5.14,2.36.27,3.17,2.5c.73,2,.07,3.87-.76,4.17"/><path class="cls-10" d="M306.09,223.88a3.83,3.83,0,1,1-3.95-3.7,3.83,3.83,0,0,1,3.95,3.7"/><g class="cls-11"><path class="cls-4" d="M254.91,241.24l-25.83-8.9L230,260l12.74,1.82,22.77,5.13,30.28,13.33a10.39,10.39,0,0,0,7.1.45c6.83-2,21.06-6.32,22.9-7.48l22.05-18s-.7-9-8.55-7.2c-5.81,1.37-17.33,8.76-25.44,14a13.21,13.21,0,0,1-10.19,1.76Z"/><path class="cls-4" d="M227.51,232s31.58,13.19,40.76,7.34,22.52,9.09,34.55,10.42c4.18.47,9,2,12.41,2.17a6,6,0,0,1,4.63,9.28s-8.88,7.08-16.3,3.81-14.25-6.53-14.25-6.53"/><path class="cls-5" d="M227.51,232s31.58,13.19,40.76,7.34,22.52,9.09,34.55,10.42c4.18.47,9,2,12.41,2.17a6,6,0,0,1,4.63,9.28s-8.88,7.08-16.3,3.81-14.25-6.53-14.25-6.53"/></g><polygon class="cls-6" points="233.23 230.16 238.6 280.93 138.31 265.4 138.31 200.9 233.23 230.16"/></g></g></g><g id="RidingTrends"><g class="cls-12"><g class="cls-12"><path class="cls-10" d="M654.31,265.14H598.63a2.61,2.61,0,0,1,2.61-2.62h53.07c24.24,0,47.18-6.83,64.61-19.23,17.27-12.3,27.3-28.76,28.25-46.36l2.61.14c-2.06,38.17-44,68.07-95.47,68.07"/><polygon class="cls-10" points="736.84 204.6 738.58 206.56 748.19 197.99 756.04 208.2 758.11 206.61 748.55 194.17 736.84 204.6"/><path class="cls-10" d="M594.12,263.52a1.8,1.8,0,1,1-1.8-1.79,1.8,1.8,0,0,1,1.8,1.79"/><path class="cls-10" d="M587.25,263.52a1.79,1.79,0,1,1-1.79-1.79,1.79,1.79,0,0,1,1.79,1.79"/><path class="cls-10" d="M579.39,263.52a1.8,1.8,0,1,1-1.79-1.79,1.79,1.79,0,0,1,1.79,1.79"/><path class="cls-10" d="M571.52,263.52a1.79,1.79,0,1,1-1.79-1.79,1.79,1.79,0,0,1,1.79,1.79"/><path class="cls-8" d="M795.67,276.68H561.3a2.61,2.61,0,0,1,2.61-2.62H795.67Z"/><polygon class="cls-8" points="787.01 264.69 785.23 266.6 794.66 275.37 785.23 284.14 787.01 286.05 798.5 275.37 787.01 264.69"/><path class="cls-8" d="M557.38,275.2a1.8,1.8,0,1,1-1.8-1.79,1.81,1.81,0,0,1,1.8,1.79"/><path class="cls-8" d="M550.51,275.2a1.79,1.79,0,1,1-1.79-1.79,1.8,1.8,0,0,1,1.79,1.79"/><path class="cls-8" d="M542.65,275.2a1.8,1.8,0,1,1-1.79-1.79,1.8,1.8,0,0,1,1.79,1.79"/><path class="cls-8" d="M534.78,275.2a1.79,1.79,0,1,1-1.79-1.79,1.8,1.8,0,0,1,1.79,1.79"/><path class="cls-13" d="M677.87,261.05c.09.63-3.09,1.58-7.1,2.14s-7.33.5-7.42-.12,3.09-1.58,7.1-2.14,7.33-.5,7.42.12"/><path class="cls-14" d="M668.64,262.59l4.12-.57a2.37,2.37,0,0,0,2-2.68l-.91-6.56a4.45,4.45,0,1,0-8.82,1.22l.91,6.57a2.38,2.38,0,0,0,2.68,2"/><path class="cls-15" d="M671.21,249.77c.06.44-.87.93-2.07,1.09s-2.23-.05-2.29-.49.87-.92,2.07-1.09,2.23.05,2.29.49"/><path class="cls-16" d="M663.16,248.3A4.35,4.35,0,1,0,667.5,244a4.34,4.34,0,0,0-4.34,4.35"/><path class="cls-14" d="M672.74,232.18c.35,2,3.87,3.13,7.86,2.44s6.93-2.91,6.58-4.94-3.87-3.14-7.86-2.44-6.94,2.9-6.58,4.94"/><path class="cls-16" d="M669,233.07a4.35,4.35,0,1,0,4.35-4.35,4.34,4.34,0,0,0-4.35,4.35"/><path class="cls-17" d="M643.46,251.19l-7.19-6.95c-5.09-4.92-2.12-13.78,4.94-14.26l.69,0h23.93a10.15,10.15,0,0,1,2.72.37A8.29,8.29,0,0,1,672.17,244L666,250.59a15.78,15.78,0,0,1-22.52.6"/><path class="cls-14" d="M668.81,230.42c0,.79-6.52,1.43-14.55,1.43s-14.55-.64-14.55-1.43,6.52-1.44,14.55-1.44,14.55.65,14.55,1.44"/><path class="cls-16" d="M667.57,227.2c0,2.88-5.88,3.22-13.14,3.22s-13.14-.34-13.14-3.22,5.88-5.21,13.14-5.21,13.14,2.34,13.14,5.21"/><path class="cls-17" d="M668.14,225.42H643A21.22,21.22,0,0,1,643,183h25.17a21.22,21.22,0,1,1,0,42.44"/><path class="cls-10" d="M672.58,212.19a7,7,0,1,1,7-7,7,7,0,0,1-7,7"/><path class="cls-18" d="M672.58,198.64a6.53,6.53,0,1,1-6.53,6.52,6.53,6.53,0,0,1,6.53-6.52m0-1a7.53,7.53,0,1,0,7.52,7.52,7.53,7.53,0,0,0-7.52-7.52"/><path class="cls-19" d="M672.58,210.18a5,5,0,1,1,5-5,5,5,0,0,1-5,5"/><path class="cls-20" d="M672.58,200.4a4.77,4.77,0,1,1-4.77,4.76,4.77,4.77,0,0,1,4.77-4.76m0-.5a5.27,5.27,0,1,0,5.26,5.26,5.26,5.26,0,0,0-5.26-5.26"/><path class="cls-21" d="M672.72,201.48a3.69,3.69,0,0,1,3.69,3.68"/><path class="cls-10" d="M644.22,212.19a7,7,0,1,1,7-7,7,7,0,0,1-7,7"/><path class="cls-18" d="M644.22,198.64a6.53,6.53,0,1,1-6.52,6.52,6.53,6.53,0,0,1,6.52-6.52m0-1a7.53,7.53,0,1,0,7.52,7.52,7.52,7.52,0,0,0-7.52-7.52"/><path class="cls-19" d="M644.22,210.18a5,5,0,1,1,5-5,5,5,0,0,1-5,5"/><path class="cls-20" d="M644.22,200.4a4.77,4.77,0,1,1-4.77,4.76,4.77,4.77,0,0,1,4.77-4.76m0-.5a5.27,5.27,0,1,0,5.27,5.26,5.26,5.26,0,0,0-5.27-5.26"/><path class="cls-22" d="M644.22,201.48a3.69,3.69,0,0,1,3.69,3.68"/><path class="cls-10" d="M657.68,168.51a2.13,2.13,0,1,1-2.13-2.12,2.12,2.12,0,0,1,2.13,2.12"/><rect class="cls-10" x="654.88" y="170.63" width="1.35" height="13.12"/><path class="cls-16" d="M630.45,237.09a4.35,4.35,0,1,0,4.35-4.35,4.34,4.34,0,0,0-4.35,4.35"/><path class="cls-16" d="M638.86,249.79a4.35,4.35,0,1,0,4.34-4.34,4.34,4.34,0,0,0-4.34,4.34"/><path class="cls-13" d="M649.14,263.53c0,.63-3.28,1.14-7.33,1.14s-7.33-.51-7.33-1.14,3.28-1.14,7.33-1.14,7.33.51,7.33,1.14"/><path class="cls-15" d="M644.09,251.44c0,.44-1,.8-2.2.8s-2.19-.36-2.19-.8,1-.8,2.19-.8,2.2.36,2.2.8"/><path class="cls-17" d="M639.79,263.79h4.15a2.38,2.38,0,0,0,2.38-2.38v-6.62a4.45,4.45,0,0,0-8.9,0v6.62a2.38,2.38,0,0,0,2.37,2.38"/><path class="cls-17" d="M618.23,237.1c0,2.07,3.29,3.75,7.33,3.75s7.33-1.68,7.33-3.75-3.28-3.75-7.33-3.75-7.33,1.68-7.33,3.75"/><path class="cls-19" d="M655.92,216.53c-.8,0-2.29-.66-2.29-1.28a1.29,1.29,0,0,1,1.29-1.29h5.55a1.29,1.29,0,0,1,1.29,1.29c0,.62-1.49,1.28-2.29,1.28Z"/><path class="cls-20" d="M660.47,214.21a1,1,0,0,1,1,1c0,.39-1.26,1-2,1h-3.55c-.78,0-2-.64-2-1a1,1,0,0,1,1-1h5.55m0-.5h-5.55a1.54,1.54,0,0,0-1.54,1.54c0,.84,1.69,1.53,2.54,1.53h3.55c.85,0,2.54-.69,2.54-1.53a1.54,1.54,0,0,0-1.54-1.54"/></g></g></g><g id="GreatFinancials"><g class="cls-23"><g class="cls-23"><rect class="cls-9" x="791.77" y="54.09" width="14.66" height="45.39"/><rect class="cls-8" x="811.77" y="44.83" width="14.66" height="54.65"/><rect class="cls-24" x="831.77" y="47.75" width="14.66" height="51.73"/><rect class="cls-10" x="851.77" y="21.13" width="14.66" height="78.35"/><g class="cls-23"><path class="cls-10" d="M866.39,17.27a1.79,1.79,0,1,1-1.79-1.79,1.8,1.8,0,0,1,1.79,1.79"/><path class="cls-10" d="M860.93,17.27a1.79,1.79,0,1,1-1.79-1.79,1.8,1.8,0,0,1,1.79,1.79"/><path class="cls-10" d="M855.48,17.27a1.8,1.8,0,1,1-1.8-1.79,1.81,1.81,0,0,1,1.8,1.79"/><path class="cls-10" d="M865.94,12.27a1.35,1.35,0,1,1-1.34-1.34,1.34,1.34,0,0,1,1.34,1.34"/><path class="cls-10" d="M860.49,12.27a1.35,1.35,0,1,1-1.35-1.34,1.35,1.35,0,0,1,1.35,1.34"/><path class="cls-10" d="M855,12.27a1.35,1.35,0,1,1-1.35-1.34A1.34,1.34,0,0,1,855,12.27"/><path class="cls-10" d="M865.49,7.27a.9.9,0,1,1-.89-.89.89.89,0,0,1,.89.89"/><path class="cls-10" d="M860,7.27a.9.9,0,1,1-.9-.89.9.9,0,0,1,.9.89"/><path class="cls-10" d="M854.58,7.27a.9.9,0,1,1-.9-.89.9.9,0,0,1,.9.89"/><rect class="cls-25" x="871.77" y="36.47" width="14.66" height="63.01"/><g class="cls-26"><g class="cls-27"><rect class="cls-9" x="791.77" y="102.47" width="14.66" height="4.06"/><rect class="cls-8" x="811.77" y="102.47" width="14.66" height="4.06"/><rect class="cls-24" x="831.77" y="102.47" width="14.66" height="4.06"/><rect class="cls-10" x="851.77" y="102.47" width="14.66" height="4.06"/><rect class="cls-25" x="871.77" y="102.47" width="14.66" height="4.06"/></g></g><g class="cls-28"><g class="cls-29"><rect class="cls-9" x="791.77" y="109.45" width="14.66" height="3.52"/></g></g><rect class="cls-30" x="771.77" y="64.09" width="14.66" height="35.39"/><g class="cls-26"><g class="cls-31"><rect class="cls-30" x="771.77" y="102.47" width="14.66" height="4.06"/></g></g><g class="cls-28"><g class="cls-32"><rect class="cls-30" x="771.77" y="109.45" width="14.66" height="3.52"/></g></g><rect class="cls-15" x="751.77" y="75.09" width="14.66" height="24.39"/><g class="cls-26"><g class="cls-33"><rect class="cls-15" x="751.77" y="102.47" width="14.66" height="4.06"/></g></g><g class="cls-28"><g class="cls-34"><rect class="cls-15" x="751.77" y="109.45" width="14.66" height="3.52"/></g></g><rect class="cls-6" x="731.77" y="93.09" width="14.66" height="6.39"/><g class="cls-26"><g class="cls-35"><rect class="cls-6" x="731.77" y="102.47" width="14.66" height="4.06"/></g></g><g class="cls-28"><g class="cls-36"><rect class="cls-6" x="731.77" y="109.45" width="14.66" height="3.52"/></g></g><rect class="cls-6" x="711.77" y="88.09" width="14.66" height="11.39"/><g class="cls-26"><g class="cls-37"><rect class="cls-6" x="711.77" y="102.47" width="14.66" height="4.06"/></g></g><g class="cls-28"><g class="cls-38"><rect class="cls-6" x="711.77" y="109.45" width="14.66" height="3.52"/></g></g><rect class="cls-9" x="892.06" y="54.09" width="14.66" height="45.39"/><g class="cls-26"><g class="cls-39"><rect class="cls-9" x="892.06" y="102.47" width="14.66" height="4.06"/></g></g><g class="cls-28"><g class="cls-40"><rect class="cls-9" x="892.06" y="109.45" width="14.66" height="3.52"/></g></g><rect class="cls-30" x="912.06" y="64.09" width="14.66" height="35.39"/><g class="cls-26"><g class="cls-41"><rect class="cls-30" x="912.06" y="102.47" width="14.66" height="4.06"/></g></g><g class="cls-28"><g class="cls-42"><rect class="cls-30" x="912.06" y="109.45" width="14.66" height="3.52"/></g></g><rect class="cls-15" x="932.06" y="75.09" width="14.66" height="24.39"/><g class="cls-26"><g class="cls-43"><rect class="cls-15" x="932.06" y="102.47" width="14.66" height="4.06"/></g></g><g class="cls-28"><g class="cls-44"><rect class="cls-15" x="932.06" y="109.45" width="14.66" height="3.52"/></g></g><rect class="cls-6" x="952.06" y="85.09" width="14.66" height="14.39"/><g class="cls-26"><g class="cls-45"><rect class="cls-6" x="952.06" y="102.47" width="14.66" height="4.06"/></g></g><g class="cls-28"><g class="cls-46"><rect class="cls-6" x="952.06" y="109.45" width="14.66" height="3.52"/></g></g><rect class="cls-6" x="972.06" y="74.09" width="14.66" height="25.39"/><g class="cls-26"><g class="cls-47"><rect class="cls-6" x="972.06" y="102.47" width="14.66" height="4.06"/></g></g><g class="cls-28"><g class="cls-48"><rect class="cls-6" x="972.06" y="109.45" width="14.66" height="3.52"/></g></g><g class="cls-28"><g class="cls-49"><rect class="cls-8" x="811.77" y="109.45" width="14.66" height="3.52"/></g></g><g class="cls-28"><g class="cls-50"><rect class="cls-24" x="831.77" y="109.45" width="14.66" height="3.52"/></g></g><g class="cls-28"><g class="cls-51"><rect class="cls-10" x="851.77" y="109.45" width="14.66" height="3.52"/></g></g><g class="cls-28"><g class="cls-52"><rect class="cls-25" x="871.77" y="109.45" width="14.66" height="3.52"/></g></g></g></g></g></g><g id="ForBeginners"><g class="cls-53"><g class="cls-53"><g class="cls-54"><path class="cls-10" d="M586.51,57.62a28.68,28.68,0,1,1-28.68-28.68,28.68,28.68,0,0,1,28.68,28.68"/><path class="cls-6" d="M369.63,91.82s30.47-12.58,52.72-10.16,75.44,2.9,99.63-.48,63.84-16.93,91.89-16.45,66.74,19.35,36.27,24.19-80.28,0-99.15,4.83-67.22,7.74-92.37,6.29-41.11-7.74-57.07-7.74-31.92-.48-31.92-.48"/><path class="cls-55" d="M482.54,53.92s-4.73,2.52-2.53,6.94,6,5.35,5.36,9.76"/><path class="cls-9" d="M486.1,50.25c-.59,2.89-5.08,4.4-5.08,4.4s-3.55-3.15-3-6,2.86-4.85,5.09-4.4,3.54,3.15,3,6"/><path class="cls-56" d="M487.32,51c-.89,2.8-5.52,3.8-5.52,3.8s-3.18-3.54-2.29-6.34,3.36-4.5,5.52-3.8,3.18,3.53,2.29,6.34"/><path class="cls-10" d="M478.05,54.93c1.48,1.71,2,3.65,1.25,4.33s-2.63-.15-4.11-1.86-2-3.65-1.25-4.34,2.63.16,4.11,1.87"/><g class="cls-57"><g class="cls-58"><path d="M496.38,90.71c0,1.39-13.68,2.52-30.56,2.52s-30.57-1.13-30.57-2.52,13.69-2.53,30.57-2.53,30.56,1.13,30.56,2.53"/></g></g><g class="cls-59"><g class="cls-60"><path class="cls-61" d="M496.4,89.49c0,.67-6.16,2.8-14.51,2.8s-14.51-2.13-14.51-2.8,6.15-1.21,14.51-1.21,14.51.54,14.51,1.21"/></g></g><path class="cls-61" d="M469.26,64.5a22.57,22.57,0,0,1,4.41-1c1.26,0,3.58.42,5.05.42s4.62-.63,6.72-.42,5.46,0,6.51.42a25,25,0,0,0,2.94.84L489.24,68l-17.17-.87Z"/><path class="cls-62" d="M494.86,64.36c-.33.63-6,1.14-13,1.14s-12.64-.51-13-1.14a1.71,1.71,0,0,0-.84,1.93l5.77,22.21c.4.8,3.94,1.42,8.23,1.42,4.47,0,8.1-.58,8.26-1.42l5.36-22.21a1.72,1.72,0,0,0-.84-1.93"/></g></g></g></g><g id="DrivenByBelief"><g class="cls-63"><g class="cls-63"><path class="cls-10" d="M70.58,91.08c0,9.33,7.56,9.17,16.88,9.17s16.89.16,16.89-9.17a16.89,16.89,0,0,0-33.77,0"/><path class="cls-6" d="M31,101.46S61.41,88.91,83.6,91.33s75.28,2.89,99.4-.49S246.7,74,274.68,74.44,344.16,74,344.16,74s-2.89,19.79-33.29,24.61-80.1,0-98.92,4.83-67.07,7.72-92.16,6.27-41-7.72-56.93-7.72S31,101.46,31,101.46"/><polygon class="cls-25" points="198.26 96.28 194.53 96.28 195.09 54.85 197.7 54.85 198.26 96.28"/><path class="cls-8" d="M195.61,50.42a2.6,2.6,0,1,1-1.72,3.24,2.6,2.6,0,0,1,1.72-3.24"/><path class="cls-8" d="M196.81,51.38l-.51-3.46a7.65,7.65,0,0,0-.35-1.41L188.84,26a.48.48,0,0,0-.59-.31.48.48,0,0,0-.32.59l7.64,25.47Z"/><path class="cls-8" d="M194.8,53.45l-2.74,2.18a8.28,8.28,0,0,0-1.05,1L176.81,73a.48.48,0,0,0,0,.67.47.47,0,0,0,.67,0l18.24-19.35Z"/><path class="cls-8" d="M197.6,54.16l3.25,1.28a7.5,7.5,0,0,0,1.4.41l21.31,4.09a.47.47,0,0,0,.56-.36.47.47,0,0,0-.35-.56l-25.88-6.13Z"/><path class="cls-8" d="M236.92,85.72h-1.71a.54.54,0,0,1-.54-.54l.41-30.52h2l.42,30.52a.54.54,0,0,1-.54.54"/><path class="cls-9" d="M235.21,50.77a2.44,2.44,0,1,1-1.36,3.17,2.44,2.44,0,0,1,1.36-3.17"/><path class="cls-9" d="M236.41,51.58l-.74-3.19a7.37,7.37,0,0,0-.44-1.3L227,28.48a.44.44,0,0,0-.57-.24.44.44,0,0,0-.25.57L235.27,52Z"/><path class="cls-9" d="M234.69,53.67l-2.4,2.24a7.3,7.3,0,0,0-.9,1l-12,16.42a.44.44,0,1,0,.69.55l15.58-19.47Z"/><path class="cls-9" d="M237.36,54.12l3.13,1a7.76,7.76,0,0,0,1.34.27l20.22,2.2a.45.45,0,0,0,.5-.38.44.44,0,0,0-.37-.5l-24.65-3.75Z"/><path class="cls-9" d="M266,57.76a1.63,1.63,0,1,1-1.23,2,1.63,1.63,0,0,1,1.23-2"/><path class="cls-9" d="M266.68,58.42l-.16-2.18a4.48,4.48,0,0,0-.15-.89l-3.48-13.11a.29.29,0,0,0-.35-.22.28.28,0,0,0-.22.35l3.57,16.23Z"/><path class="cls-9" d="M265.33,59.62l-1.81,1.23a4.79,4.79,0,0,0-.7.58L253.21,71a.3.3,0,0,0,0,.42.31.31,0,0,0,.42,0l12.27-11.21Z"/><path class="cls-9" d="M267,60.19l2,1a4.36,4.36,0,0,0,.85.32L283,65a.29.29,0,1,0,.18-.56l-15.85-5Z"/><polygon class="cls-9" points="267.02 81.4 265.15 81.4 265.43 60.69 266.74 60.69 267.02 81.4"/><polygon class="cls-25" points="149.4 107.09 144.74 107.09 145.44 55.31 148.7 55.31 149.4 107.09"/><path class="cls-8" d="M144.54,54.6a3.25,3.25,0,1,1,4.36,1.45,3.25,3.25,0,0,1-4.36-1.45"/><path class="cls-8" d="M145.48,52.92l-4.15,1.34a10.36,10.36,0,0,0-1.68.72L115.84,68a.59.59,0,0,0,.52,1.06l29.85-14.63Z"/><path class="cls-8" d="M148.45,55l3.24,2.93A9.67,9.67,0,0,0,153.15,59L176.3,73.13a.59.59,0,0,0,.65-1l-27.6-18.53Z"/><path class="cls-8" d="M148.75,51.37l.92-4.27a9.93,9.93,0,0,0,.21-1.8l.67-27.12a.59.59,0,1,0-1.17-.07l-2.26,33.16Z"/><polygon class="cls-10" points="282.59 82.65 271.78 82.64 278.05 72.35 288.86 72.36 282.59 82.65"/><polygon class="cls-10" points="294.17 87.47 283.36 87.46 289.63 77.17 300.44 77.19 294.17 87.47"/><polygon class="cls-10" points="305.75 93.27 294.94 93.25 301.21 82.97 312.02 82.98 305.75 93.27"/><polygon class="cls-25" points="45.97 100.33 40.17 100.33 41 61.37 45.14 61.37 45.97 100.33"/><path class="cls-9" d="M46.25,58.33c0,2-2.48,3.59-5.53,3.59s-5.53-1.61-5.53-3.59,2.48-3.6,5.53-3.6,5.53,1.61,5.53,3.6"/><path class="cls-9" d="M40.17,55.84c0,1.68-2.17,3-4.84,3s-4.83-1.36-4.83-3,2.16-3,4.83-3,4.84,1.36,4.84,3"/><path class="cls-9" d="M35.19,57.5c0,1.68-2.6,3-5.8,3s-5.8-1.36-5.8-3,2.59-3,5.8-3,5.8,1.36,5.8,3"/><path class="cls-9" d="M33.26,52.8c0,1.37-2,2.49-4.42,2.49s-4.43-1.12-4.43-2.49,2-2.49,4.43-2.49,4.42,1.12,4.42,2.49"/><path class="cls-9" d="M29.11,53.77c0,1.45-2.22,2.62-5,2.62s-5-1.17-5-2.62,2.23-2.63,5-2.63,5,1.18,5,2.63"/><polygon class="cls-25" points="54.91 98.4 49.69 98.4 50.43 63.31 54.17 63.31 54.91 98.4"/><path class="cls-9" d="M55.16,60.57c0,1.79-2.23,3.23-5,3.23s-5-1.44-5-3.23,2.22-3.24,5-3.24,5,1.45,5,3.24"/><path class="cls-9" d="M49.69,58.33c0,1.51-1.95,2.74-4.36,2.74S41,59.84,41,58.33s2-2.74,4.35-2.74,4.36,1.23,4.36,2.74"/><path class="cls-9" d="M45.21,59.82c0,1.52-2.34,2.74-5.23,2.74s-5.23-1.22-5.23-2.74,2.34-2.73,5.23-2.73,5.23,1.22,5.23,2.73"/><path class="cls-9" d="M43.46,55.59c0,1.24-1.78,2.24-4,2.24s-4-1-4-2.24,1.78-2.24,4-2.24,4,1,4,2.24"/><path class="cls-9" d="M39.73,56.46c0,1.31-2,2.37-4.48,2.37s-4.48-1.06-4.48-2.37,2-2.36,4.48-2.36,4.48,1.06,4.48,2.36"/></g></g></g></g></svg>