<svg xmlns="http://www.w3.org/2000/svg" viewBox="0 0 200 200"><defs><style>.cls-1{opacity:0.5;}.cls-2,.cls-6{fill:#fb9502;}.cls-2{opacity:0.25;}.cls-3{fill:#228f9b;}.cls-4{fill:#f2f2f2;}.cls-5{fill:#fffefa;}</style></defs><title>Artboard 10 copy</title><g id="Personas"><path class="cls-2" d="M191.56,87.89a21.38,21.38,0,0,0-6.47-15.63c-1.29-1.22-9.61-12.68-9.61-23.83h0c0-11.14-7.89-20.18-17.63-20.18h-108c-9.73,0-17.62,9-17.62,20.18h0a22.5,22.5,0,0,0,2,9.29c2.06,4.55-.78,10-5.25,10H26.3c-9,0-17,7.59-18,17.89-1.17,12.17,7.12,22.48,17.52,22.48h-.37a11,11,0,0,1,2.82.36,24.37,24.37,0,0,0,26.85,38.82c.3,0,.59.05.89.05h.06c4.13,0,7.22,4.4,6.25,9a22.66,22.66,0,0,0-.49,4.71h0c0,11.09,7.86,20.09,17.55,20.09h64.36c9.69,0,17.55-9,17.55-20.09h0a21.61,21.61,0,0,0-4.75-13.71h8.19c10,0,18.07-9.57,17.6-21.16-.45-10.86-8.61-19.21-18.1-19.21,0,0,19.79-2.41,21.07-3.66A21.38,21.38,0,0,0,191.56,87.89Z"/><path class="cls-3" d="M155.33,192.49,40,191.49l3-15.6c0-17.89,2-32.4,32.4-32.4h44.53c32.08,0,32.4,14.51,32.4,32.4Z"/><path class="cls-4" d="M79.67,143.49l4.6,2.91a33.35,33.35,0,0,0,35.64,0l4.6-2.91s-10.61-8.62-10.61-18.82c0-4.14-25.13-4.14-25.13,0C88.77,134.87,79.67,143.49,79.67,143.49Z"/><path class="cls-5" d="M140.5,73.74c0,23.89-8.53,55.75-43.25,55.75C64.51,129.49,54,97.63,54,73.74a43.25,43.25,0,0,1,86.5,0Z"/><path class="cls-6" d="M54.6,89.49V62S80.34,56.26,93,53.12s18.38-8.35,26.66-13.69,14-9.13,14-9.13S110.27,14.64,94.51,17,69,21,54,33.44c-6.47,5.38-21.79,15-11,28.92C54.07,76.65,54.6,89.49,54.6,89.49Z"/><path class="cls-6" d="M113.24,42.83S124.51,61,136,63l2.83,23.62s6.34-12.78,5.67-24.12-7-41.54-20-37.5C111.2,29.12,113.24,42.83,113.24,42.83Z"/><path class="cls-6" d="M63.3,110.49s0,20.63,34,19c36.42-1.75,36.42-22.21,36.42-22.21s-20.54-.78-29.41-10.54L90.51,98.49C75.76,115.74,63.3,110.49,63.3,110.49Z"/><path class="cls-5" d="M87.76,107.74A18.86,18.86,0,0,1,99.25,104c6.76.16,8.93.68,8.93.68S103.86,111.82,87.76,107.74Z"/><ellipse class="cls-5" cx="140.5" cy="79.99" rx="3.3" ry="12.75"/></g></svg>