<svg xmlns="http://www.w3.org/2000/svg" xmlns:xlink="http://www.w3.org/1999/xlink" viewBox="0 0 444.85 261.83"><defs><style>.cls-1{fill:#171616;}.cls-2{fill:#888581;}.cls-3{fill:#228f9b;}.cls-4{fill:#fb9502;}.cls-5{fill:#4a4a42;}.cls-6{fill:#fffefa;}.cls-7{fill:#548e0e;}.cls-8{fill:#c90303;}.cls-9{fill:url(#New_Gradient_Swatch_1);}</style><linearGradient id="New_Gradient_Swatch_1" x1="39.27" y1="115.03" x2="194.44" y2="181.73" gradientUnits="userSpaceOnUse"><stop offset="0" stop-color="#fcbf2d"/><stop offset="1" stop-color="#fb9502"/></linearGradient></defs><title>Artboard 81</title><g id="StyleGuide"><path class="cls-1" d="M294.13,80.22l19.16-48h5.17l19.09,48H332l-5.76-15H305.52l-5.77,15Zm13.32-19.93h16.84l-8.4-22Z"/><path class="cls-1" d="M344.89,80.22v-48h15.93q16,0,16,12.79a12.76,12.76,0,0,1-.53,3.74A9.23,9.23,0,0,1,375,51.49a20.83,20.83,0,0,1-1.49,1.78,4.85,4.85,0,0,1-1.33,1l-.49.35a5.63,5.63,0,0,1,.87.28,14.94,14.94,0,0,1,1.93,1.16,10.65,10.65,0,0,1,4.38,5.59,13.29,13.29,0,0,1,.87,4.89q0,13.64-17.42,13.64ZM350.1,53H362a13.93,13.93,0,0,0,7-1.52q2.63-1.52,2.62-6.07T369,38.9q-2.53-1.82-7.74-1.82H350.1Zm0,22.32h12.58q5.49,0,8.65-1.9c2.11-1.28,3.16-3.65,3.16-7.13a8.85,8.85,0,0,0-.75-3.8A7,7,0,0,0,371.89,60a7.46,7.46,0,0,0-2.81-1.37,18,18,0,0,0-3.2-.61c-1-.1-2.12-.14-3.41-.14H350.1Z"/><path class="cls-1" d="M387.22,56.17q0-24.6,22.29-24.61a39,39,0,0,1,14.63,2.78v5a36,36,0,0,0-14.07-2.88q-9.13,0-13.39,4.75t-4.26,15q0,10.23,4.26,15t13.39,4.75a36,36,0,0,0,14.07-2.82v5a39.28,39.28,0,0,1-14.45,2.7h-.18Q387.22,80.78,387.22,56.17Z"/><path class="cls-2" d="M294.1,104.22V92.8h1.34l3.92,5.8,3.94-5.8h1.34v11.42H303.4v-9.4l-4,5.82-4-5.82v9.4Z"/><path class="cls-2" d="M307,101.6a2.48,2.48,0,0,1,.22-1,2.28,2.28,0,0,1,.52-.74,2.64,2.64,0,0,1,.79-.48,4.79,4.79,0,0,1,.84-.3,6.1,6.1,0,0,1,.87-.14,7.16,7.16,0,0,1,.72-.06h.51l1.37.08a2,2,0,0,0-.63-1.66,3,3,0,0,0-1.87-.49,7,7,0,0,0-2.49.41V96a7.79,7.79,0,0,1,2.56-.44,3.82,3.82,0,0,1,2.74.9,3.52,3.52,0,0,1,.94,2.66v2.56a2.42,2.42,0,0,1-.38,1.4,2.17,2.17,0,0,1-1,.84,4.67,4.67,0,0,1-1.12.36,5.21,5.21,0,0,1-1,.1,5.51,5.51,0,0,1-.81,0,4.4,4.4,0,0,1-.94-.23,3.38,3.38,0,0,1-.91-.46,2.21,2.21,0,0,1-.65-.8A2.51,2.51,0,0,1,307,101.6Zm1.24,0c0,1.06.77,1.59,2.32,1.59h0c1.51,0,2.27-.51,2.27-1.54V100a8.85,8.85,0,0,0-1.52-.1C309.26,99.91,308.23,100.47,308.23,101.6Z"/><path class="cls-2" d="M315.4,95.68h1.31l2.58,7,2.59-7h1.32l-3.29,8.54h-1.25Z"/><path class="cls-2" d="M324.37,100.06v-.13q0-4.4,3.75-4.4a3.93,3.93,0,0,1,1.41.24,3.4,3.4,0,0,1,1,.58,3.22,3.22,0,0,1,.66.88,4.63,4.63,0,0,1,.59,1.82c0,.35.07.57.07.66v.36l0,.61h-6.21a2.71,2.71,0,0,0,.79,1.87,3,3,0,0,0,2,.58,5.76,5.76,0,0,0,2.93-.64v1.27a6.82,6.82,0,0,1-3,.59h-.05a5,5,0,0,1-1.38-.17,4,4,0,0,1-1.23-.63,2.81,2.81,0,0,1-.94-1.33A6,6,0,0,1,324.37,100.06Zm1.24-.48h5a3.21,3.21,0,0,0-.07-.65,5.44,5.44,0,0,0-.29-.92,1.94,1.94,0,0,0-.77-.94,2.81,2.81,0,0,0-3.22.28A3.76,3.76,0,0,0,325.61,99.58Z"/><path class="cls-2" d="M334,104.22V96.36a8.07,8.07,0,0,1,3.61-.83,3.52,3.52,0,0,1,2.5.82,2.93,2.93,0,0,1,.89,2.3v5.57h-1.23V98.65a2.49,2.49,0,0,0-.08-.64,2.13,2.13,0,0,0-.29-.59,1.33,1.33,0,0,0-.7-.49,3.59,3.59,0,0,0-1.22-.17,7.93,7.93,0,0,0-2.25.34v7.12Z"/><path class="cls-2" d="M349.78,104.22V92.8h4.06a4.31,4.31,0,0,1,2.94.9,3.92,3.92,0,0,1,0,5.25,4.26,4.26,0,0,1-2.94.92H351v4.35ZM351,98.67h2.66a5,5,0,0,0,1.52-.2,1.69,1.69,0,0,0,.88-.57,2.48,2.48,0,0,0,.38-.74,3.58,3.58,0,0,0,0-1.68,2.48,2.48,0,0,0-.38-.74,1.7,1.7,0,0,0-.88-.58,5,5,0,0,0-1.52-.2H351Z"/><path class="cls-2" d="M359.65,104.22V96.35a10.63,10.63,0,0,1,4.15-.81v1.17a12.16,12.16,0,0,0-2.91.44v7.07Z"/><path class="cls-2" d="M365.21,102.16a7,7,0,0,1,0-4.44,3,3,0,0,1,1-1.37,3.92,3.92,0,0,1,1.26-.63,4.76,4.76,0,0,1,1.41-.19,4.93,4.93,0,0,1,1.42.19,4.07,4.07,0,0,1,1.27.63,3.06,3.06,0,0,1,1,1.37,7,7,0,0,1,0,4.44,3,3,0,0,1-1,1.37,4.34,4.34,0,0,1-1.27.64,5.31,5.31,0,0,1-1.42.18,5.13,5.13,0,0,1-1.41-.18,4.17,4.17,0,0,1-1.26-.64A2.94,2.94,0,0,1,365.21,102.16Zm1.54-4.72a5.06,5.06,0,0,0,0,5,3.24,3.24,0,0,0,4.23,0,5,5,0,0,0,0-5,3.27,3.27,0,0,0-4.23,0Z"/><path class="cls-1" d="M322,191.56h-17.3l-4,13.39h-6.61l16.49-51.19h5.52L332.66,205h-6.61ZM306.4,186h14l-7-23.28Z"/><path class="cls-1" d="M339.62,205V153.76h14.59q7,0,10.53,3.41t3.53,10.24a11.3,11.3,0,0,1-1.79,6.32,12.09,12.09,0,0,1-4.85,4.26,9.72,9.72,0,0,1,5.57,4.32,14.52,14.52,0,0,1,2.06,7.88q0,6.88-3.78,10.82T354.7,205Zm6.43-29.35h8.27a7,7,0,0,0,5.39-2.26,8.55,8.55,0,0,0,2.06-6q0-4.23-1.86-6.15t-5.7-1.92h-8.16Zm0,5.41v18.42h8.79a7.36,7.36,0,0,0,5.8-2.41,9.81,9.81,0,0,0,2.15-6.76q0-9.25-7.81-9.25Z"/><path class="cls-1" d="M411,188.67q-.42,8.24-4.63,12.61t-11.86,4.38a14.7,14.7,0,0,1-12.24-5.86q-4.53-5.85-4.53-15.87v-9.28q0-10,4.66-15.79t12.71-5.8q7.41,0,11.48,4.43T411,170.18h-6.51q-.42-6.26-2.63-8.93t-6.75-2.67a9.17,9.17,0,0,0-8.05,4.1q-2.82,4.09-2.82,12v9.39q0,7.77,2.62,11.92a8.51,8.51,0,0,0,7.65,4.15c3.35,0,5.76-.84,7.24-2.5s2.39-4.65,2.74-9Z"/><path class="cls-2" d="M297.61,221h-2.14V226h-1.54V213.78h3.41a3.67,3.67,0,0,1,2.71.93,3.74,3.74,0,0,1,.92,2.73,3.82,3.82,0,0,1-.5,2,3.17,3.17,0,0,1-1.41,1.27l2.36,5.17v.1h-1.65Zm-2.14-1.31h1.85a2,2,0,0,0,1.54-.62,2.37,2.37,0,0,0,.57-1.66c0-1.57-.71-2.35-2.12-2.35h-1.84Z"/><path class="cls-2" d="M302.5,221a4.78,4.78,0,0,1,.95-3.12,3.39,3.39,0,0,1,5.06,0,4.59,4.59,0,0,1,1,3v1a4.68,4.68,0,0,1-.95,3.11,3.4,3.4,0,0,1-5.06,0,4.62,4.62,0,0,1-1-3Zm1.48.85a3.89,3.89,0,0,0,.54,2.2,1.72,1.72,0,0,0,1.48.8c1.3,0,2-1,2-2.83v-1a3.82,3.82,0,0,0-.55-2.19,1.74,1.74,0,0,0-2.94,0A3.86,3.86,0,0,0,304,221Z"/><path class="cls-2" d="M318,221.86a5.48,5.48,0,0,1-.76,3.19,2.53,2.53,0,0,1-2.2,1.07,2.34,2.34,0,0,1-2.16-1.24l-.08,1.07h-1.34V213.11h1.47v4.79a2.32,2.32,0,0,1,2.09-1.16,2.55,2.55,0,0,1,2.23,1A5.49,5.49,0,0,1,318,221Zm-1.47-.84a4.47,4.47,0,0,0-.44-2.29,1.63,1.63,0,0,0-1.45-.68,1.81,1.81,0,0,0-1.71,1.24v4.3a1.82,1.82,0,0,0,1.72,1.22,1.58,1.58,0,0,0,1.44-.7,4.26,4.26,0,0,0,.44-2.18Z"/><path class="cls-2" d="M319.53,221a4.73,4.73,0,0,1,1-3.12,3.12,3.12,0,0,1,2.53-1.15,3.15,3.15,0,0,1,2.53,1.12,4.65,4.65,0,0,1,1,3v1a4.73,4.73,0,0,1-.95,3.11,3.4,3.4,0,0,1-5.06,0,4.63,4.63,0,0,1-1-3Zm1.48.85a3.89,3.89,0,0,0,.55,2.2,1.72,1.72,0,0,0,1.48.8c1.3,0,2-1,2-2.83v-1a3.82,3.82,0,0,0-.55-2.19A1.71,1.71,0,0,0,323,218a1.69,1.69,0,0,0-1.46.81A3.86,3.86,0,0,0,321,221Z"/><path class="cls-2" d="M330.38,214.72v2.19h1.36v1.19h-1.36v5.62a1.48,1.48,0,0,0,.17.81.67.67,0,0,0,.6.28,2.09,2.09,0,0,0,.6-.1l0,1.24a3.27,3.27,0,0,1-1,.17,1.57,1.57,0,0,1-1.34-.63,3,3,0,0,1-.45-1.77V218.1h-1.38v-1.19h1.38v-2.19Z"/><path class="cls-2" d="M333,221a4.73,4.73,0,0,1,1-3.12,3.1,3.1,0,0,1,2.52-1.15,3.15,3.15,0,0,1,2.53,1.12,4.59,4.59,0,0,1,1,3v1a4.68,4.68,0,0,1-.95,3.11,3.4,3.4,0,0,1-5.06,0,4.62,4.62,0,0,1-1-3Zm1.48.85a3.81,3.81,0,0,0,.55,2.2,1.69,1.69,0,0,0,1.47.8c1.31,0,2-1,2-2.83v-1a3.82,3.82,0,0,0-.56-2.19,1.7,1.7,0,0,0-1.48-.81,1.67,1.67,0,0,0-1.45.81,3.78,3.78,0,0,0-.55,2.18Z"/><path class="cls-2" d="M353.68,222.08a4.47,4.47,0,0,1-1.1,3,3.72,3.72,0,0,1-2.82,1,3.48,3.48,0,0,1-2.91-1.39,6,6,0,0,1-1.08-3.78v-2.2a5.83,5.83,0,0,1,1.11-3.76,3.67,3.67,0,0,1,3-1.38,3.48,3.48,0,0,1,2.73,1.06,4.53,4.53,0,0,1,1.05,3h-1.54a3.8,3.8,0,0,0-.63-2.12,2,2,0,0,0-1.61-.63,2.18,2.18,0,0,0-1.91,1,5,5,0,0,0-.67,2.85V221a5.38,5.38,0,0,0,.62,2.83,2,2,0,0,0,1.82,1,2.17,2.17,0,0,0,1.72-.6,3.68,3.68,0,0,0,.66-2.13Z"/><path class="cls-2" d="M355.24,221a4.78,4.78,0,0,1,.95-3.12,3.39,3.39,0,0,1,5.06,0,4.59,4.59,0,0,1,1,3v1a4.68,4.68,0,0,1-1,3.11,3.4,3.4,0,0,1-5.06,0,4.62,4.62,0,0,1-1-3Zm1.48.85a3.89,3.89,0,0,0,.54,2.2,1.72,1.72,0,0,0,1.48.8c1.3,0,2-1,2-2.83v-1a3.82,3.82,0,0,0-.55-2.19,1.74,1.74,0,0,0-2.94,0,3.86,3.86,0,0,0-.54,2.18Z"/><path class="cls-2" d="M365.54,216.91l0,1a2.63,2.63,0,0,1,2.2-1.15c1.6,0,2.41,1.07,2.43,3.2v6h-1.47V220a2.44,2.44,0,0,0-.36-1.51,1.26,1.26,0,0,0-1.06-.45,1.47,1.47,0,0,0-1,.37,2.68,2.68,0,0,0-.71,1V226h-1.48v-9Z"/><path class="cls-2" d="M372.12,221a5.5,5.5,0,0,1,.78-3.19,2.61,2.61,0,0,1,2.24-1.09,2.31,2.31,0,0,1,2,1v-4.68h1.48V226h-1.35l-.08-1a2.31,2.31,0,0,1-2.08,1.14,2.57,2.57,0,0,1-2.2-1.09,5.25,5.25,0,0,1-.81-3.08Zm1.48.84a4.28,4.28,0,0,0,.45,2.23,1.6,1.6,0,0,0,1.47.72,1.75,1.75,0,0,0,1.64-1.11v-4.56a1.76,1.76,0,0,0-1.63-1.09,1.63,1.63,0,0,0-1.48.72,4.16,4.16,0,0,0-.45,2.19Z"/><path class="cls-2" d="M384.15,226.12a3.31,3.31,0,0,1-2.59-1,4.36,4.36,0,0,1-.92-3v-1.1a5.15,5.15,0,0,1,.88-3.17,2.93,2.93,0,0,1,2.47-1.15,2.83,2.83,0,0,1,2.37,1,5.24,5.24,0,0,1,.8,3.15v1h-5.05v.21a3.34,3.34,0,0,0,.55,2.12,1.94,1.94,0,0,0,1.58.66,2.66,2.66,0,0,0,1.15-.25,2.77,2.77,0,0,0,.93-.78l.77.93A3.35,3.35,0,0,1,384.15,226.12ZM384,218a1.56,1.56,0,0,0-1.37.63,3.82,3.82,0,0,0-.5,2h3.56v-.2a3.48,3.48,0,0,0-.46-1.84A1.42,1.42,0,0,0,384,218Z"/><path class="cls-2" d="M390.33,216.91l0,1a2.64,2.64,0,0,1,2.2-1.15c1.6,0,2.41,1.07,2.43,3.2v6h-1.47V220a2.52,2.52,0,0,0-.35-1.51,1.29,1.29,0,0,0-1.07-.45,1.47,1.47,0,0,0-1,.37,2.8,2.8,0,0,0-.71,1V226h-1.48v-9Z"/><path class="cls-2" d="M401.62,223.64a1.09,1.09,0,0,0-.36-.82,5.47,5.47,0,0,0-1.39-.81,9,9,0,0,1-1.69-.84,2.39,2.39,0,0,1-.73-.8,2.21,2.21,0,0,1-.24-1.06,2.38,2.38,0,0,1,.81-1.84,3.29,3.29,0,0,1,4.18,0,2.59,2.59,0,0,1,.8,2h-1.47a1.43,1.43,0,0,0-.41-1,1.36,1.36,0,0,0-1-.43,1.46,1.46,0,0,0-1,.34,1.17,1.17,0,0,0-.37.9,1,1,0,0,0,.27.73,5,5,0,0,0,1.31.72A6.5,6.5,0,0,1,402.5,222a2.14,2.14,0,0,1,.6,1.56,2.36,2.36,0,0,1-.82,1.89,3.19,3.19,0,0,1-2.17.71,3.25,3.25,0,0,1-2.29-.81,2.71,2.71,0,0,1-.88-2.06h1.49a1.67,1.67,0,0,0,.46,1.18,2,2,0,0,0,2.34.1A1.11,1.11,0,0,0,401.62,223.64Z"/><path class="cls-2" d="M408.25,226.12a3.31,3.31,0,0,1-2.59-1,4.36,4.36,0,0,1-.92-3v-1.1a5.15,5.15,0,0,1,.88-3.17,2.93,2.93,0,0,1,2.47-1.15,2.83,2.83,0,0,1,2.37,1,5.24,5.24,0,0,1,.8,3.15v1h-5.05v.21a3.34,3.34,0,0,0,.55,2.12,1.94,1.94,0,0,0,1.58.66,2.66,2.66,0,0,0,1.15-.25,2.77,2.77,0,0,0,.93-.78l.77.93A3.35,3.35,0,0,1,408.25,226.12Zm-.16-8.11a1.56,1.56,0,0,0-1.37.63,3.82,3.82,0,0,0-.5,2h3.56v-.2a3.48,3.48,0,0,0-.46-1.84A1.42,1.42,0,0,0,408.09,218Z"/><path class="cls-2" d="M412.72,221a5.5,5.5,0,0,1,.79-3.19,2.61,2.61,0,0,1,2.24-1.09,2.31,2.31,0,0,1,2,1v-4.68h1.48V226H417.9l-.08-1a2.31,2.31,0,0,1-2.08,1.14,2.57,2.57,0,0,1-2.2-1.09,5.32,5.32,0,0,1-.82-3.08Zm1.48.84a4.27,4.27,0,0,0,.46,2.23,1.6,1.6,0,0,0,1.47.72,1.75,1.75,0,0,0,1.64-1.11v-4.56a1.76,1.76,0,0,0-1.63-1.09,1.63,1.63,0,0,0-1.48.72,4.25,4.25,0,0,0-.46,2.19Z"/><circle class="cls-3" cx="78.88" cy="61.59" r="46.33"/><circle class="cls-4" cx="157.72" cy="61.59" r="46.33"/><circle class="cls-1" cx="57.05" cy="212.04" r="24.5"/><circle class="cls-5" cx="81.55" cy="212.04" r="24.5"/><circle class="cls-2" cx="106.05" cy="212.04" r="24.5"/><circle class="cls-6" cx="130.55" cy="212.04" r="24.5"/><circle class="cls-7" cx="155.05" cy="212.04" r="24.5"/><circle class="cls-8" cx="179.55" cy="212.04" r="24.5"/><rect class="cls-9" x="32.55" y="122.98" width="171.41" height="52"/></g></svg>