<svg xmlns="http://www.w3.org/2000/svg" xmlns:xlink="http://www.w3.org/1999/xlink" viewBox="0 0 1116 642"><defs><style>.a,.b,.f{fill:#171616;}.a{font-size:20px;font-family:MavenProRegular, Maven Pro;}.b{font-size:18px;font-family:RobotoCondensed-Light, Roboto Condensed;font-weight:300;letter-spacing:0.01em;}.c{fill:#fb9502;}.d{fill:#4a4a42;}.e{fill:#28b5bd;}.g{fill:#a3eae7;}.h{fill:#888581;}.i{fill:#fff;stroke:#707070;}.j{fill:#fffefa;stroke:#4a4a42;}.k{fill:#548e0e;}.l{fill:#c90303;}.m{fill:url(#a);}.n{fill:#228f9b;}.o{stroke:none;}.p{fill:none;}</style><linearGradient id="a" x2="1" y2="1" gradientUnits="objectBoundingBox"><stop offset="0" stop-color="#fcbf2d"/><stop offset="1" stop-color="#fb9502"/></linearGradient></defs><g transform="translate(-84 -296)"><g transform="translate(563)"><text class="a" transform="translate(96 296)"><tspan x="0" y="19">Secondary – @orange</tspan></text><text class="b" transform="translate(220 363)"><tspan x="0" y="17">#FB9502 • The color of joy, happiness, </tspan><tspan x="0" y="41">change, and success is chosen as </tspan><tspan x="0" y="65">primary color and is used for charts and </tspan><tspan x="0" y="89">staging the scene.</tspan></text><circle class="c" cx="50" cy="50" r="50" transform="translate(97 359)"/></g><text class="a" transform="translate(96 535)"><tspan x="0" y="19">Supporting Cast</tspan></text><text class="b" transform="translate(970 715)"><tspan x="29.328" y="17">Gradient to bottom right </tspan><tspan x="38.262" y="41">#FCBF2D to #FB9502</tspan><tspan x="83.975" y="65">@sunset</tspan></text><g transform="translate(111 214)"><text class="b" transform="translate(118 500)"><tspan x="32.459" y="17">#4A4A42</tspan><tspan x="26.491" y="41">@tungsten</tspan></text><circle class="d" cx="50" cy="50" r="50" transform="translate(133 389)"/></g><g transform="translate(111 388)"><text class="b" transform="translate(118 500)"><tspan x="31.936" y="17">#28B5BD</tspan><tspan x="31.407" y="41">@horizon</tspan></text><circle class="e" cx="50" cy="50" r="50" transform="translate(133 389)"/></g><g transform="translate(-34 214)"><text class="b" transform="translate(118 500)"><tspan x="33.575" y="17">#171616</tspan><tspan x="27.373" y="41">@liquorice</tspan></text><circle class="f" cx="50" cy="50" r="50" transform="translate(133 389)"/></g><g transform="translate(-34 388)"><text class="b" transform="translate(118 500)"><tspan x="32.266" y="17">#A3EAE7</tspan><tspan x="45.987" y="41">@sky</tspan></text><circle class="g" cx="50" cy="50" r="50" transform="translate(133 389)"/></g><g transform="translate(142 214)"><text class="b" transform="translate(232 500)"><tspan x="33.575" y="17">#888581</tspan><tspan x="38.998" y="41">@silver</tspan></text><circle class="h" cx="50" cy="50" r="50" transform="translate(247 389)"/></g><g transform="translate(142 388)"><text class="b" transform="translate(232 500)"><tspan x="43.621" y="17">#ffffff</tspan><tspan x="38.945" y="41">@snow</tspan></text><g class="i" transform="translate(247 389)"><circle class="o" cx="50" cy="50" r="50"/><circle class="p" cx="50" cy="50" r="49.5"/></g></g><g transform="translate(150 214)"><text class="b" transform="translate(368 500)"><tspan x="28.814" y="17">##FFFEFA</tspan><tspan x="37.809" y="41">@sugar</tspan></text><g class="j" transform="translate(383 389)"><circle class="o" cx="50" cy="50" r="50"/><circle class="p" cx="50" cy="50" r="49.5"/></g></g><g transform="translate(158 214)"><text class="b" transform="translate(505 500)"><tspan x="33.382" y="17">#548E0E</tspan><tspan x="44.632" y="41">@leaf</tspan></text><circle class="k" cx="50" cy="50" r="50" transform="translate(520 389)"/></g><g transform="translate(83 214)"><text class="b" transform="translate(725 500)"><tspan x="32.863" y="17">#C90303</tspan><tspan x="39.712" y="41">@berry</tspan></text><circle class="l" cx="50" cy="50" r="50" transform="translate(740 389)"/></g><rect class="m" width="230" height="100" transform="translate(970 598)"/><g transform="translate(-564)"><text class="a" transform="translate(660 296)"><tspan x="0" y="19">Primary – @petrolBlue</tspan></text><text class="b" transform="translate(787 363)"><tspan x="0" y="17">#228F9B • Petrol blue is used as the </tspan><tspan x="0" y="41">secondary color to the orange. Its </tspan><tspan x="0" y="65">function is to indicate all elements that </tspan><tspan x="0" y="89">are interactable ex. labels, tags etc.</tspan></text><circle class="n" cx="50" cy="50" r="50" transform="translate(660 359)"/></g></g></svg>