<svg xmlns="http://www.w3.org/2000/svg" xmlns:xlink="http://www.w3.org/1999/xlink" viewBox="0 0 583.67 259.87"><defs><style>.cls-1{fill:#fff;}.cls-1,.cls-16{stroke:#fb9502;}.cls-1,.cls-12,.cls-14,.cls-15,.cls-16,.cls-2,.cls-3,.cls-6{stroke-miterlimit:10;}.cls-13,.cls-2,.cls-4{fill:#a3eae7;}.cls-2{stroke:#5dc5ca;}.cls-10,.cls-3{fill:#28b5bd;}.cls-12,.cls-14,.cls-3{stroke:#fffefa;}.cls-5{fill:#5dc5ca;}.cls-14,.cls-6,.cls-9{fill:#fffefa;}.cls-15,.cls-6{stroke:#228f9b;}.cls-12,.cls-7{fill:#228f9b;}.cls-8{fill:#fb9502;}.cls-9{opacity:0.5;}.cls-11{fill:#b9b9b6;}.cls-13{opacity:0.25;}.cls-15{fill:#e9fffb;}.cls-16{fill:none;}</style><symbol id="Heart" data-name="Heart" viewBox="0 0 39.62 39.53"><path class="cls-1" d="M17.53,36.65a13,13,0,0,1-1.12-1.22L5.33,23.83,3.19,21.08A12.74,12.74,0,0,1,5.43,3.19a12.75,12.75,0,0,1,14.38-.88A12.75,12.75,0,0,1,36.42,21.09l-2.13,2.74L23.21,35.43a14.46,14.46,0,0,1-1.12,1.22l-2.28,2.19Z"/><path class="cls-2" d="M32.17,5.79a9.46,9.46,0,0,0-12.36.65,9.46,9.46,0,0,0-14,12.62l2,2.61L18.9,33.26a8.74,8.74,0,0,0,.91,1,11.06,11.06,0,0,0,.91-1L31.79,21.67l2-2.61A9.45,9.45,0,0,0,32.17,5.79Z"/><path class="cls-3" d="M11.06,18.89l-1.9-2.45A5.19,5.19,0,0,1,16.85,9.5l2.95,2.86,3-2.85a5.19,5.19,0,0,1,7.7,6.93l-1.9,2.45L19.81,28Z"/></symbol><symbol id="Empathize" data-name="Empathize" viewBox="0 0 85.85 62.27"><path d="M1.13,54.15a5.68,5.68,0,0,1,1-3.44,3.56,3.56,0,0,1,3-1.28,3.59,3.59,0,0,1,3,1.25,4.69,4.69,0,0,1,1,3.07q0,.75,0,1.11H3.28A1.89,1.89,0,0,0,4,56.42a2.89,2.89,0,0,0,1.58.39,7.07,7.07,0,0,0,3-.69v1.73a6.91,6.91,0,0,1-3.37.8,6.57,6.57,0,0,1-1.11-.09A3.92,3.92,0,0,1,3,58.16a3.54,3.54,0,0,1-1-.78,3.65,3.65,0,0,1-.66-1.31A6.24,6.24,0,0,1,1.13,54.15Zm2.15-.77H6.87a3,3,0,0,0-.54-1.55,1.47,1.47,0,0,0-1.26-.64,1.6,1.6,0,0,0-1.26.52A2.79,2.79,0,0,0,3.28,53.38Z"/><path d="M11.27,58.51V50.45a8.56,8.56,0,0,1,3.9-1h0a4.24,4.24,0,0,1,2.43.66,8.71,8.71,0,0,1,3.23-.66,3.87,3.87,0,0,1,2.82,1,3.62,3.62,0,0,1,1,2.72v5.36H22.54V53a1.82,1.82,0,0,0-.43-1.29,2.28,2.28,0,0,0-1.61-.43,8,8,0,0,0-1.83.21,2.61,2.61,0,0,1,.38,1.66v5.35H16.9V53a1.67,1.67,0,0,0-.42-1.23,2.31,2.31,0,0,0-1.58-.41,7.91,7.91,0,0,0-1.48.14v7Z"/><path d="M27.27,61.82V52.47a2.86,2.86,0,0,1,.92-2.12A4,4,0,0,1,31,49.46a6.52,6.52,0,0,1,.88.07,3.87,3.87,0,0,1,1,.37,3.52,3.52,0,0,1,1,.77,4.1,4.1,0,0,1,.74,1.38A6.51,6.51,0,0,1,35,54.16,4.85,4.85,0,0,1,34,57.53a3.93,3.93,0,0,1-3.06,1.18,7.19,7.19,0,0,1-1.47-.16v3.27Zm2.15-4.9a9.74,9.74,0,0,0,1.32.11,2,2,0,0,0,1.59-.61,3.24,3.24,0,0,0,.54-2.14A4.72,4.72,0,0,0,32.46,52a1.51,1.51,0,0,0-1.43-.7c-1.07,0-1.61.32-1.61,1Z"/><path d="M36.75,55.6a3.64,3.64,0,0,1,0-.56,2.77,2.77,0,0,1,.28-.71,2.32,2.32,0,0,1,.61-.75A3.36,3.36,0,0,1,38.83,53a6.3,6.3,0,0,1,1.78-.23,11,11,0,0,1,1.57.12c0-1.13-.63-1.7-1.89-1.7a7,7,0,0,0-2.62.45V49.9a8,8,0,0,1,2.74-.45,4.06,4.06,0,0,1,2.93,1,3.75,3.75,0,0,1,1,2.82v2.41a2.86,2.86,0,0,1-.92,2.12,4,4,0,0,1-2.83.88,4.06,4.06,0,0,1-2.91-.89A2.84,2.84,0,0,1,36.75,55.6Zm2.15-.28q0,1.44,1.68,1.44h0c1.07,0,1.6-.45,1.6-1.36V54.28a12,12,0,0,0-1.28-.12C39.58,54.16,38.9,54.55,38.9,55.32Z"/><path d="M45.67,51.43V49.59h1.5V46.94h2.15v2.65h2.11v1.84H49.32v4.4a1,1,0,0,0,.24.78,1.37,1.37,0,0,0,.85.2,2.48,2.48,0,0,0,1-.19v1.77a3.41,3.41,0,0,1-1.37.26h0a2.78,2.78,0,0,1-2.09-.78,3,3,0,0,1-.76-2.17V51.43Z"/><path d="M53.59,58.51V46.19h2.15v3.55a5.13,5.13,0,0,1,1.79-.29,4.15,4.15,0,0,1,2.92,1,3.54,3.54,0,0,1,1,2.73v5.36H59.35V53a2.52,2.52,0,0,0-.06-.6,1.3,1.3,0,0,0-.27-.5,1.25,1.25,0,0,0-.67-.4,4.76,4.76,0,0,0-1.18-.13,3.62,3.62,0,0,0-1.43.26v6.91Z"/><path d="M64,48.37v-2h2.2v2Zm0,10.14V49.59H66.2v8.92Z"/><path d="M68.45,58.51v-2l4.11-5h-4V49.59h6.79v2l-4.18,5h4.18v1.93Z"/><path d="M77,54.15a5.62,5.62,0,0,1,1-3.44,3.56,3.56,0,0,1,3-1.28,3.59,3.59,0,0,1,3,1.25,4.75,4.75,0,0,1,1,3.07,10.14,10.14,0,0,1,0,1.11H79.13a1.9,1.9,0,0,0,.7,1.56,2.85,2.85,0,0,0,1.57.39,7,7,0,0,0,3-.69v1.73a6.9,6.9,0,0,1-3.36.8A6.69,6.69,0,0,1,80,58.56a3.86,3.86,0,0,1-1.08-.4,3.54,3.54,0,0,1-1-.78,3.82,3.82,0,0,1-.67-1.31A6.56,6.56,0,0,1,77,54.15Zm2.15-.77h3.6a3.12,3.12,0,0,0-.54-1.55,1.47,1.47,0,0,0-1.27-.64,1.59,1.59,0,0,0-1.25.52A2.86,2.86,0,0,0,79.13,53.38Z"/><use width="39.62" height="39.53" transform="translate(25.49)" xlink:href="#Heart"/></symbol><symbol id="Lightbulb" data-name="Lightbulb" viewBox="0 0 30.61 42.06"><g id="Search"><circle class="cls-9" cx="15.32" cy="15" r="13.84"/><path class="cls-10" d="M25.39,5.22a14.26,14.26,0,1,1-20.17,0,14.28,14.28,0,0,1,20.17,0m.74-.74a15.31,15.31,0,1,0,0,21.65,15.32,15.32,0,0,0,0-21.65Z"/></g><ellipse class="cls-8" cx="17.29" cy="22.11" rx="1.14" ry="4.12"/><ellipse class="cls-8" cx="12.61" cy="22.11" rx="1.14" ry="4.12"/><path class="cls-11" d="M18.65,40.31a4.93,4.93,0,0,1-3.49,1.75A4.21,4.21,0,0,1,12,40.31V34h6.68Z"/><rect class="cls-12" x="8.21" y="31.2" width="14.2" height="2.56"/><rect class="cls-12" x="9.77" y="34.28" width="11.07" height="2.56"/><path class="cls-4" d="M24.34,6.27a12.75,12.75,0,0,0-9.6-3.72v.88a11.9,11.9,0,1,1-7.85,20.3c-.11-.11-.21-.23-.31-.34H5.41A12.78,12.78,0,1,0,24.34,6.27Z"/></symbol><symbol id="ideate" data-name="ideate" viewBox="0 0 50.76 65.7"><path d="M1.69,51.8v-2h2.2v2Zm0,10.14V53H3.87v8.93Z"/><path d="M6.12,57.37A4.79,4.79,0,0,1,7.19,54a4,4,0,0,1,3.07-1.16,8.59,8.59,0,0,1,1.48.14V49.58h2.15v9.49A2.81,2.81,0,0,1,13,61.19a4,4,0,0,1-2.84.89A5.26,5.26,0,0,1,9.23,62a3.32,3.32,0,0,1-1-.37,3.39,3.39,0,0,1-1-.77,3.7,3.7,0,0,1-.74-1.38A6.81,6.81,0,0,1,6.12,57.37Zm2.15-.11a4.79,4.79,0,0,0,.41,2.28,1.53,1.53,0,0,0,1.44.7c1.08,0,1.62-.32,1.62-1V54.7a7.44,7.44,0,0,0-1.41-.15,1.92,1.92,0,0,0-1.53.6A3.23,3.23,0,0,0,8.27,57.26Z"/><path d="M16,57.57a5.6,5.6,0,0,1,1-3.43,3.54,3.54,0,0,1,3-1.28,3.6,3.6,0,0,1,3,1.25,4.72,4.72,0,0,1,1,3.07q0,.75,0,1.11H18.11a1.94,1.94,0,0,0,.69,1.56,2.89,2.89,0,0,0,1.58.39,7.07,7.07,0,0,0,3-.69v1.73a7,7,0,0,1-3.36.8A6.6,6.6,0,0,1,18.94,62a3.77,3.77,0,0,1-1.09-.41,3.47,3.47,0,0,1-1-.77,3.65,3.65,0,0,1-.66-1.31A6.63,6.63,0,0,1,16,57.57Zm2.15-.76h3.6a3.1,3.1,0,0,0-.55-1.56,1.47,1.47,0,0,0-1.26-.63,1.55,1.55,0,0,0-1.25.52A2.86,2.86,0,0,0,18.11,56.81Z"/><path d="M25.56,59a3.51,3.51,0,0,1,.05-.55,2.77,2.77,0,0,1,.28-.71A2.32,2.32,0,0,1,26.5,57a3.36,3.36,0,0,1,1.14-.56,6.3,6.3,0,0,1,1.78-.23,11,11,0,0,1,1.57.12c0-1.13-.63-1.7-1.89-1.7a7,7,0,0,0-2.62.45V53.33a8,8,0,0,1,2.74-.46,4.07,4.07,0,0,1,2.93,1,3.75,3.75,0,0,1,1,2.82v2.41a2.87,2.87,0,0,1-.92,2.12,4,4,0,0,1-2.83.88,4.1,4.1,0,0,1-2.91-.89A2.86,2.86,0,0,1,25.56,59Zm2.15-.27q0,1.44,1.68,1.44h0c1.07,0,1.6-.45,1.6-1.36V57.71a12,12,0,0,0-1.28-.12C28.39,57.59,27.71,58,27.71,58.75Z"/><path d="M34.48,54.86V53H36V50.37h2.15V53h2.11v1.85H38.13v4.4a1,1,0,0,0,.24.78,1.37,1.37,0,0,0,.85.2,2.65,2.65,0,0,0,1-.19v1.77a3.59,3.59,0,0,1-1.37.26h0a2.78,2.78,0,0,1-2.09-.78A3,3,0,0,1,36,59.13V54.86Z"/><path d="M41.9,57.57a5.6,5.6,0,0,1,1-3.43,3.56,3.56,0,0,1,3-1.28,3.57,3.57,0,0,1,3,1.25,4.73,4.73,0,0,1,1,3.07,10.14,10.14,0,0,1,0,1.11H44a1.91,1.91,0,0,0,.7,1.56,2.85,2.85,0,0,0,1.57.39,7,7,0,0,0,3-.69v1.73a7,7,0,0,1-3.36.8A6.69,6.69,0,0,1,44.87,62a3.61,3.61,0,0,1-1.08-.41,3.34,3.34,0,0,1-1-.77,3.82,3.82,0,0,1-.67-1.31A6.64,6.64,0,0,1,41.9,57.57ZM44,56.81h3.6a3.19,3.19,0,0,0-.54-1.56,1.49,1.49,0,0,0-1.27-.63,1.56,1.56,0,0,0-1.25.52A2.86,2.86,0,0,0,44,56.81Z"/><use width="30.61" height="42.06" transform="translate(10.94 0.38)" xlink:href="#Lightbulb"/></symbol><symbol id="prototype" data-name="prototype" viewBox="0 0 79.5 65.17"><path d="M1.47,64.72V55.37a2.82,2.82,0,0,1,.92-2.12,4,4,0,0,1,2.83-.89,6.67,6.67,0,0,1,.89.07,3.82,3.82,0,0,1,1,.37,3.27,3.27,0,0,1,1,.77A3.85,3.85,0,0,1,8.9,55a6.45,6.45,0,0,1,.32,2.11,4.85,4.85,0,0,1-1.07,3.37,4,4,0,0,1-3.07,1.18,7,7,0,0,1-1.46-.16v3.27Zm2.15-4.9a9.49,9.49,0,0,0,1.32.11,2,2,0,0,0,1.58-.61,3.24,3.24,0,0,0,.55-2.14,4.79,4.79,0,0,0-.41-2.28,1.54,1.54,0,0,0-1.44-.69c-1.07,0-1.6.32-1.6,1Z"/><path d="M11.37,61.41V53.28L12,53a14.88,14.88,0,0,1,1.54-.4,10.88,10.88,0,0,1,2.31-.28v1.84a8.52,8.52,0,0,0-2.31.3v6.92Z"/><path d="M18.24,60.36A4.82,4.82,0,0,1,17.15,57a4.85,4.85,0,0,1,1.09-3.41,4,4,0,0,1,3.13-1.19,4,4,0,0,1,3.13,1.19A4.85,4.85,0,0,1,25.59,57a4.82,4.82,0,0,1-1.09,3.4,4,4,0,0,1-3.13,1.19A4,4,0,0,1,18.24,60.36Zm1.57-5.65A3.56,3.56,0,0,0,19.3,57a3.56,3.56,0,0,0,.51,2.25,2,2,0,0,0,1.57.58,2,2,0,0,0,1.56-.58A3.56,3.56,0,0,0,23.45,57a3.56,3.56,0,0,0-.51-2.25,2,2,0,0,0-1.56-.58A2,2,0,0,0,19.81,54.71Z"/><path d="M26.59,54.33V52.49h1.5V49.84h2.15v2.65h2.12v1.84H30.24v4.4a1,1,0,0,0,.24.78,1.39,1.39,0,0,0,.85.2,2.56,2.56,0,0,0,1-.19v1.77a3.65,3.65,0,0,1-1.38.26h0a2.78,2.78,0,0,1-2.09-.78,3,3,0,0,1-.76-2.17V54.33Z"/><path d="M35.12,60.36A4.83,4.83,0,0,1,34,57a4.85,4.85,0,0,1,1.1-3.41,4,4,0,0,1,3.13-1.19,4,4,0,0,1,3.13,1.19A4.85,4.85,0,0,1,42.47,57a4.82,4.82,0,0,1-1.09,3.4,4,4,0,0,1-3.13,1.19A4,4,0,0,1,35.12,60.36Zm1.56-5.65A3.56,3.56,0,0,0,36.17,57a3.56,3.56,0,0,0,.51,2.25,2.41,2.41,0,0,0,3.14,0,3.64,3.64,0,0,0,.5-2.25,3.64,3.64,0,0,0-.5-2.25,2.41,2.41,0,0,0-3.14,0Z"/><path d="M43.47,54.33V52.49H45V49.84h2.15v2.65h2.11v1.84H47.12v4.4a1,1,0,0,0,.24.78,1.37,1.37,0,0,0,.85.2,2.51,2.51,0,0,0,1-.19v1.77a3.59,3.59,0,0,1-1.37.26h0a2.78,2.78,0,0,1-2.09-.78A3,3,0,0,1,45,58.6V54.33Z"/><path d="M50.74,52.49H53l2,6.21,2-6.21h2.15l-3.28,9.14a6.19,6.19,0,0,1-1.55,2.63,2.74,2.74,0,0,1-1.74.67,4.09,4.09,0,0,1-1.35-.24V62.87a2.49,2.49,0,0,0,1,.22c.62,0,1.19-.72,1.72-2.16Z"/><path d="M60.83,64.72V55.37a2.86,2.86,0,0,1,.92-2.12,4,4,0,0,1,2.84-.89,6.52,6.52,0,0,1,.88.07,3.87,3.87,0,0,1,1,.37,3.52,3.52,0,0,1,1,.77A4,4,0,0,1,68.27,55a6.47,6.47,0,0,1,.31,2.11,4.85,4.85,0,0,1-1.07,3.37,3.93,3.93,0,0,1-3.06,1.18A7.19,7.19,0,0,1,63,61.45v3.27ZM63,59.82a9.74,9.74,0,0,0,1.32.11,2,2,0,0,0,1.59-.61,3.24,3.24,0,0,0,.54-2.14A4.79,4.79,0,0,0,66,54.9a1.52,1.52,0,0,0-1.43-.69c-1.07,0-1.61.32-1.61,1Z"/><path d="M70.63,57.05a5.62,5.62,0,0,1,1-3.44,4.2,4.2,0,0,1,6,0,4.73,4.73,0,0,1,1,3.07q0,.75,0,1.11h-5.8a1.91,1.91,0,0,0,.7,1.56,2.85,2.85,0,0,0,1.57.39,7,7,0,0,0,3-.69v1.73a7,7,0,0,1-3.36.8,6.69,6.69,0,0,1-1.12-.09,3.61,3.61,0,0,1-1.08-.41,3.34,3.34,0,0,1-1-.77A3.82,3.82,0,0,1,70.89,59,6.56,6.56,0,0,1,70.63,57.05Zm2.15-.77h3.6a3.12,3.12,0,0,0-.54-1.55,1.47,1.47,0,0,0-1.27-.64,1.56,1.56,0,0,0-1.25.52A2.86,2.86,0,0,0,72.78,56.28Z"/><rect class="cls-5" x="34.48" y="9.28" width="8.42" height="27.2"/><rect class="cls-10" x="37.28" y="9.28" width="2.81" height="27.2"/><rect class="cls-7" x="40.13" y="9.28" width="2.81" height="27.2"/><polygon class="cls-4" points="38.36 43.41 42.9 36.48 34.48 36.48 38.36 43.41"/><polygon class="cls-8" points="38.36 43.41 40.2 40.6 36.8 40.62 38.36 43.41"/><path class="cls-11" d="M49.45,3.7a2.57,2.57,0,0,1-2.57-2.57,1.75,1.75,0,0,1,0-.32H31c-.08,5.64-7.78,6-7.78,6v3.72H46.9c0-.07,0-.13,0-.2a2.57,2.57,0,0,1,2.57-2.57l.19,0V3.68Z"/><rect class="cls-5" x="49.64" width="4.62" height="11.76"/><rect class="cls-8" x="52.5" width="2.31" height="11.76"/><rect class="cls-7" x="34.48" y="10.54" width="8.45" height="2.65"/><path class="cls-7" d="M49.45,3.7a2.57,2.57,0,0,1-2.57-2.57,1.75,1.75,0,0,1,0-.32h0v9.75h0c0-.07,0-.13,0-.2a2.57,2.57,0,0,1,2.57-2.57l.19,0V3.68Z"/></symbol><symbol id="test" data-name="test" viewBox="0 0 34.81 64.5"><path d="M2.3,53.66V51.81H3.81V49.17H6v2.64H8.07v1.85H6v4.4a1,1,0,0,0,.24.78,1.37,1.37,0,0,0,.85.2,2.73,2.73,0,0,0,1-.19v1.77a3.63,3.63,0,0,1-1.37.26h0a2.77,2.77,0,0,1-2.09-.78,3,3,0,0,1-.76-2.17V53.66Z"/><path d="M9.72,56.37a5.6,5.6,0,0,1,1-3.43,3.55,3.55,0,0,1,3-1.28,3.59,3.59,0,0,1,3,1.25,4.73,4.73,0,0,1,1,3.07,10.14,10.14,0,0,1,0,1.11H11.87a1.91,1.91,0,0,0,.7,1.56,2.83,2.83,0,0,0,1.57.39,7.07,7.07,0,0,0,3-.69v1.73a7,7,0,0,1-3.36.8,6.6,6.6,0,0,1-1.12-.09,3.77,3.77,0,0,1-1.09-.41,3.43,3.43,0,0,1-1-.77A3.82,3.82,0,0,1,10,58.3,6.63,6.63,0,0,1,9.72,56.37Zm2.15-.76h3.6a3.1,3.1,0,0,0-.55-1.56,1.46,1.46,0,0,0-1.26-.63,1.55,1.55,0,0,0-1.25.52A2.86,2.86,0,0,0,11.87,55.61Z"/><path d="M19.37,54.46a2.44,2.44,0,0,1,.95-2.06,3.79,3.79,0,0,1,2.36-.73,4.86,4.86,0,0,1,2.44.64V54a4.69,4.69,0,0,0-2.06-.43c-1,0-1.54.25-1.54.75a.66.66,0,0,0,.44.59,5.28,5.28,0,0,0,1.07.38,8.12,8.12,0,0,1,1.25.44,2.46,2.46,0,0,1,1.06.93,2.91,2.91,0,0,1,.44,1.67,2.28,2.28,0,0,1-.91,1.86,3.67,3.67,0,0,1-2.41.74,5.6,5.6,0,0,1-2.83-.73v-1.9a4.39,4.39,0,0,0,2.52.79,2.16,2.16,0,0,0,1.21-.22.76.76,0,0,0,.28-.64.74.74,0,0,0-.44-.64,5.43,5.43,0,0,0-1.07-.42c-.42-.12-.83-.26-1.25-.42a2.55,2.55,0,0,1-1.07-.81A2.28,2.28,0,0,1,19.37,54.46Z"/><path d="M27.11,53.66V51.81h1.51V49.17h2.14v2.64h2.12v1.85H30.76v4.4a1,1,0,0,0,.24.78,1.41,1.41,0,0,0,.86.2,2.73,2.73,0,0,0,1-.19v1.77a3.63,3.63,0,0,1-1.37.26h-.05a2.76,2.76,0,0,1-2.08-.78,3,3,0,0,1-.76-2.17V53.66Z"/><rect class="cls-15" x="4.49" y="0.5" width="29.82" height="38.34" rx="5.13"/><rect class="cls-3" x="0.5" y="5.82" width="7.19" height="2.13" rx="1.03"/><rect class="cls-3" x="0.5" y="12.21" width="7.19" height="2.13" rx="1.03"/><rect class="cls-3" x="0.5" y="18.6" width="7.19" height="2.13" rx="1.03"/><rect class="cls-3" x="0.5" y="24.99" width="7.19" height="2.13" rx="1.03"/><rect class="cls-3" x="0.5" y="31.38" width="7.19" height="2.13" rx="1.03"/><polygon class="cls-8" points="13.55 12.09 12.82 12.82 10.24 10.24 10.97 9.51 13.55 12.09"/><polygon class="cls-8" points="12.11 12.09 12.84 12.82 17.41 8.25 16.68 7.52 12.11 12.09"/><polygon class="cls-8" points="10.7 21.59 11.43 22.32 15.99 17.75 15.27 17.02 10.7 21.59"/><polygon class="cls-8" points="15.99 21.59 15.27 22.32 10.7 17.75 11.43 17.02 15.99 21.59"/><polygon class="cls-8" points="10.7 31.09 11.43 31.82 15.99 27.25 15.27 26.52 10.7 31.09"/><polygon class="cls-8" points="15.99 31.09 15.27 31.82 10.7 27.25 11.43 26.52 15.99 31.09"/><rect class="cls-4" x="18.6" y="9.88" width="13.31" height="1.2"/><rect class="cls-4" x="18.6" y="18.66" width="13.31" height="1.2"/><rect class="cls-4" x="18.6" y="26.89" width="13.31" height="1.2"/></symbol><symbol id="Implement" data-name="Implement" viewBox="0 0 89.72 62.41"><path d="M1.69,48.51v-2h2.2v2Zm0,10.15V49.73H3.87v8.93Z"/><path d="M6.78,58.66V50.59a8.56,8.56,0,0,1,3.9-1h0a4.24,4.24,0,0,1,2.43.66,8.75,8.75,0,0,1,3.23-.66,3.92,3.92,0,0,1,2.82,1,3.64,3.64,0,0,1,1,2.72v5.37H18.05v-5.5a1.79,1.79,0,0,0-.43-1.29A2.28,2.28,0,0,0,16,51.43a8,8,0,0,0-1.83.21,2.55,2.55,0,0,1,.38,1.66v5.36H12.41V53.1A1.63,1.63,0,0,0,12,51.88a2.26,2.26,0,0,0-1.58-.41,7.15,7.15,0,0,0-1.48.14v7Z"/><path d="M22.78,62V52.61a2.86,2.86,0,0,1,.92-2.12,4,4,0,0,1,2.84-.88,5.22,5.22,0,0,1,.88.07,3.49,3.49,0,0,1,1,.36,3.71,3.71,0,0,1,1,.77,4.16,4.16,0,0,1,.74,1.39,6.42,6.42,0,0,1,.31,2.11,4.82,4.82,0,0,1-1.07,3.36,3.9,3.9,0,0,1-3.06,1.18,7.19,7.19,0,0,1-1.47-.16V62Zm2.15-4.9a9.58,9.58,0,0,0,1.32.1,2,2,0,0,0,1.58-.61,3.18,3.18,0,0,0,.55-2.14A4.72,4.72,0,0,0,28,52.15a1.51,1.51,0,0,0-1.43-.7c-1.07,0-1.61.32-1.61,1Z"/><path d="M33,58.66V46.33h2.14V58.66Z"/><path d="M37.64,54.29a5.62,5.62,0,0,1,1-3.44,3.54,3.54,0,0,1,3-1.28,3.63,3.63,0,0,1,3,1.25,4.75,4.75,0,0,1,1,3.07c0,.51,0,.88,0,1.11H39.79a1.92,1.92,0,0,0,.69,1.56,2.89,2.89,0,0,0,1.58.39,7.07,7.07,0,0,0,3-.69V58a6.9,6.9,0,0,1-3.36.8,6.6,6.6,0,0,1-1.12-.09,4,4,0,0,1-1.09-.4,3.28,3.28,0,0,1-1.63-2.09A6.51,6.51,0,0,1,37.64,54.29Zm2.15-.77h3.6A3.06,3.06,0,0,0,42.84,52a1.47,1.47,0,0,0-1.26-.64,1.58,1.58,0,0,0-1.25.52A2.86,2.86,0,0,0,39.79,53.52Z"/><path d="M47.78,58.66V50.59a8.63,8.63,0,0,1,3.9-1h0a4.21,4.21,0,0,1,2.42.66,8.75,8.75,0,0,1,3.23-.66,3.88,3.88,0,0,1,2.82,1,3.64,3.64,0,0,1,1,2.72v5.37H59.05v-5.5a1.75,1.75,0,0,0-.43-1.29A2.26,2.26,0,0,0,57,51.43a7.94,7.94,0,0,0-1.82.21,2.61,2.61,0,0,1,.38,1.66v5.36H53.42V53.1A1.59,1.59,0,0,0,53,51.88a2.24,2.24,0,0,0-1.58-.41,7.21,7.21,0,0,0-1.48.14v7Z"/><path d="M63.45,54.29a5.61,5.61,0,0,1,1-3.44,3.56,3.56,0,0,1,3-1.28,3.59,3.59,0,0,1,3,1.25,4.75,4.75,0,0,1,1,3.07q0,.77,0,1.11h-5.8a1.9,1.9,0,0,0,.7,1.56,2.87,2.87,0,0,0,1.58.39,7.1,7.1,0,0,0,3-.69V58a6.94,6.94,0,0,1-3.37.8,6.69,6.69,0,0,1-1.12-.09,3.86,3.86,0,0,1-1.08-.4,3.54,3.54,0,0,1-1-.78,3.65,3.65,0,0,1-.66-1.31A6.19,6.19,0,0,1,63.45,54.29Zm2.14-.77h3.6A3.15,3.15,0,0,0,68.65,52a1.5,1.5,0,0,0-1.27-.64,1.59,1.59,0,0,0-1.25.52A2.86,2.86,0,0,0,65.59,53.52Z"/><path d="M73.56,58.66V50.57a9,9,0,0,1,4.1-1,4.14,4.14,0,0,1,2.92,1,3.54,3.54,0,0,1,1,2.73v5.37H79.48V53.11a2.52,2.52,0,0,0-.06-.6,1.6,1.6,0,0,0-.26-.5,1.23,1.23,0,0,0-.65-.4,4.41,4.41,0,0,0-1.14-.13,9.8,9.8,0,0,0-1.66.16v7Z"/><path d="M83.21,51.57V49.73h1.51V47.08h2.14v2.65H89v1.84H86.86V56a1,1,0,0,0,.24.78A1.41,1.41,0,0,0,88,57a2.54,2.54,0,0,0,1-.19v1.77a3.45,3.45,0,0,1-1.37.26h0A2.76,2.76,0,0,1,85.48,58a3,3,0,0,1-.76-2.17V51.57Z"/><ellipse class="cls-4" cx="26.62" cy="18.78" rx="13.42" ry="10.22"/><ellipse class="cls-4" cx="44.51" cy="19.56" rx="14.27" ry="10.86"/><ellipse class="cls-4" cx="58.28" cy="14.59" rx="13.84" ry="5.32"/><ellipse class="cls-4" cx="44.29" cy="30" rx="12.35" ry="4.26"/><ellipse class="cls-4" cx="59.06" cy="24.04" rx="9.37" ry="6.67"/><path class="cls-5" d="M43.65,0c-3.65,2.61-6.1,12.37-6.1,18V34.23h12.2V18C49.75,12.37,47.3,2.61,43.65,0Z"/><circle class="cls-6" cx="43.65" cy="16.57" r="3.49"/><path class="cls-7" d="M49.92,25.86c2.56,0,4.64,2.66,4.64,5.93s-4.64,5.92-4.64,5.92"/><path class="cls-7" d="M37.37,25.86c-2.57,0-4.65,2.66-4.65,5.93s4.65,5.92,4.65,5.92"/><path class="cls-8" d="M46,39.34c0,1.8-2.44,3.26-2.44,3.26s-2.45-1.46-2.45-3.26,1.1-3.25,2.45-3.25S46,37.54,46,39.34Z"/><rect class="cls-8" x="43.01" y="27.26" width="6.27" height="1.16"/><rect class="cls-8" x="39.01" y="29.64" width="10.28" height="1.14"/></symbol><symbol id="SearchIcon" data-name="SearchIcon" viewBox="0 0 40.47 42.59"><g id="Search-2" data-name="Search"><circle class="cls-13" cx="15.48" cy="15.44" r="13.84"/><path class="cls-7" d="M29.91,29.05a2.08,2.08,0,0,1-2-.52,2,2,0,0,1-.51-2l-.28-.28a15.69,15.69,0,1,0-3.23,2.67l.56.56a2.05,2.05,0,0,1,2,.51A2.08,2.08,0,0,1,27,32L37,42.18l3.46-2.58Zm-14.39-.57a13,13,0,1,1,13-13A13,13,0,0,1,15.52,28.48Z"/><polygon class="cls-7" points="26.96 32 29.91 29.05 40.47 39.6 37.4 42.59 26.96 32"/><path class="cls-10" d="M15.69,1.41A14.26,14.26,0,1,1,1.43,15.67,14.27,14.27,0,0,1,15.69,1.41m0-1A15.31,15.31,0,1,0,31,15.67,15.31,15.31,0,0,0,15.69.36Z"/><polygon class="cls-8" points="37.4 42.59 40.47 39.6 39.73 38.8 36.6 41.76 37.4 42.59"/><polygon class="cls-8" points="27.7 32.79 30.77 29.8 30.03 29 26.9 31.95 27.7 32.79"/></g><line class="cls-14" x1="15.69" y1="10.54" x2="8.88" y2="19.92"/><line class="cls-14" x1="20.59" y1="10.54" x2="13.78" y2="19.92"/></symbol><symbol id="define" data-name="define" viewBox="0 0 51.93 64.68"><path d="M1.13,56.36A4.75,4.75,0,0,1,2.19,53a4,4,0,0,1,3.07-1.16A7.63,7.63,0,0,1,6.74,52V48.56H8.89v9.49A2.85,2.85,0,0,1,8,60.18a4,4,0,0,1-2.84.88A5.34,5.34,0,0,1,4.23,61a3.35,3.35,0,0,1-1-.36,3.71,3.71,0,0,1-1-.77,3.84,3.84,0,0,1-.75-1.39A6.76,6.76,0,0,1,1.13,56.36Zm2.15-.12a4.67,4.67,0,0,0,.41,2.28,1.51,1.51,0,0,0,1.43.7q1.62,0,1.62-1V53.68a7.44,7.44,0,0,0-1.41-.15,1.92,1.92,0,0,0-1.53.6A3.26,3.26,0,0,0,3.28,56.24Z"/><path d="M11,56.56a5.62,5.62,0,0,1,1-3.44,3.56,3.56,0,0,1,3-1.28,3.59,3.59,0,0,1,3,1.25,4.75,4.75,0,0,1,1,3.07,10.14,10.14,0,0,1,0,1.11H13.11a1.9,1.9,0,0,0,.7,1.56,2.85,2.85,0,0,0,1.57.39,7.07,7.07,0,0,0,3-.69v1.73a6.9,6.9,0,0,1-3.36.8A6.6,6.6,0,0,1,13.94,61a3.86,3.86,0,0,1-1.08-.4,3.54,3.54,0,0,1-1-.78,3.82,3.82,0,0,1-.67-1.31A6.56,6.56,0,0,1,11,56.56Zm2.15-.77h3.6a3.06,3.06,0,0,0-.55-1.55,1.47,1.47,0,0,0-1.26-.64,1.59,1.59,0,0,0-1.25.52A2.86,2.86,0,0,0,13.11,55.79Z"/><path d="M20.22,53.84V52h1.52q0-3.73,3.33-3.73a4.28,4.28,0,0,1,.87.09v1.71a3.5,3.5,0,0,0-.48,0,1.57,1.57,0,0,0-1.2.4A2.38,2.38,0,0,0,23.89,52h2.05v1.84H23.89v7.08H21.74V53.84Z"/><path d="M27.72,50.78v-2h2.2v2Zm0,10.14V52H29.9v8.92Z"/><path d="M32.77,60.92V52.84a9,9,0,0,1,4.09-1,4.16,4.16,0,0,1,2.93,1,3.54,3.54,0,0,1,1.05,2.73v5.36H38.69V55.38a2.06,2.06,0,0,0-.07-.6,1.42,1.42,0,0,0-.26-.5,1.16,1.16,0,0,0-.64-.4,4.47,4.47,0,0,0-1.14-.13,9.8,9.8,0,0,0-1.66.16v7Z"/><path d="M43.07,56.56a5.61,5.61,0,0,1,1-3.44,3.56,3.56,0,0,1,3-1.28,3.59,3.59,0,0,1,3,1.25,4.75,4.75,0,0,1,1,3.07q0,.75,0,1.11h-5.8a1.9,1.9,0,0,0,.7,1.56,2.87,2.87,0,0,0,1.58.39,7.1,7.1,0,0,0,3-.69v1.73a6.94,6.94,0,0,1-3.37.8A6.69,6.69,0,0,1,46,61a3.86,3.86,0,0,1-1.08-.4,3.54,3.54,0,0,1-1-.78,3.65,3.65,0,0,1-.66-1.31A6.24,6.24,0,0,1,43.07,56.56Zm2.14-.77h3.6a3.15,3.15,0,0,0-.54-1.55A1.5,1.5,0,0,0,47,53.6a1.59,1.59,0,0,0-1.25.52A2.86,2.86,0,0,0,45.21,55.79Z"/><use width="40.47" height="42.6" transform="translate(2.13)" xlink:href="#SearchIcon"/></symbol></defs><title>DesignThinking</title><g id="Page3"><use width="85.85" height="62.27" transform="translate(3.79 146.14)" xlink:href="#Empathize"/><use width="50.76" height="65.7" transform="translate(214.58 142.71)" xlink:href="#ideate"/><use width="79.5" height="65.17" transform="translate(296.84 143.24)" xlink:href="#prototype"/><use width="34.81" height="64.5" transform="translate(415.81 143.91)" xlink:href="#test"/><use width="89.72" height="62.41" transform="translate(484.98 146)" xlink:href="#Implement"/><use width="51.93" height="64.68" transform="translate(117.37 143.73)" xlink:href="#define"/><path class="cls-16" d="M529,136.22c-50.86-76-137.45-126-235.74-126a283.13,283.13,0,0,0-232.32,121"/><path class="cls-8" d="M57.48,136.22a30.34,30.34,0,0,0,1-9.74l2.93,4.12,4.89,1.29A30,30,0,0,0,57.48,136.22Z"/><path class="cls-16" d="M337.71,136.22a168.51,168.51,0,0,0-276.78-5"/><path class="cls-8" d="M57.48,136.22a30.35,30.35,0,0,0,1.1-9.72l2.87,4.16L66.32,132A30.22,30.22,0,0,0,57.48,136.22Z"/><path class="cls-16" d="M135.22,136.22a46.74,46.74,0,0,0-74.07-4.79"/><path class="cls-8" d="M57.48,136.22A30.08,30.08,0,0,0,59,126.55l2.69,4.29,4.81,1.57A30,30,0,0,0,57.48,136.22Z"/><path class="cls-16" d="M230.22,136.22a46.74,46.74,0,0,0-74.07-4.79"/><path class="cls-8" d="M152.48,136.22a30.08,30.08,0,0,0,1.51-9.67l2.69,4.29,4.81,1.57A30,30,0,0,0,152.48,136.22Z"/><path class="cls-16" d="M325.22,136.22a46.74,46.74,0,0,0-74.07-4.79"/><path class="cls-8" d="M247.48,136.22a30.08,30.08,0,0,0,1.51-9.67l2.69,4.29,4.81,1.57A30,30,0,0,0,247.48,136.22Z"/><path class="cls-16" d="M420.22,136.22a46.74,46.74,0,0,0-74.07-4.79"/><path class="cls-8" d="M342.48,136.22a30.08,30.08,0,0,0,1.51-9.67l2.69,4.29,4.81,1.57A30,30,0,0,0,342.48,136.22Z"/><path class="cls-16" d="M131.55,222.33a46.74,46.74,0,0,1-74.07-4.79"/><path class="cls-8" d="M135.22,217.54a30.2,30.2,0,0,1-9,3.81l4.81,1.57,2.69,4.28A30.06,30.06,0,0,1,135.22,217.54Z"/><path class="cls-16" d="M226.55,222.33a46.74,46.74,0,0,1-74.07-4.79"/><path class="cls-8" d="M230.22,217.54a30.2,30.2,0,0,1-9,3.81l4.81,1.57,2.69,4.28A30.06,30.06,0,0,1,230.22,217.54Z"/><path class="cls-16" d="M321.55,222.33a46.74,46.74,0,0,1-74.07-4.79"/><path class="cls-8" d="M325.22,217.54a30.2,30.2,0,0,1-9,3.81l4.81,1.57,2.69,4.28A30.06,30.06,0,0,1,325.22,217.54Z"/><path class="cls-16" d="M416.55,222.33a46.74,46.74,0,0,1-74.07-4.79"/><path class="cls-8" d="M420.22,217.54a30.2,30.2,0,0,1-9,3.81l4.81,1.57,2.69,4.28A30.06,30.06,0,0,1,420.22,217.54Z"/><path class="cls-16" d="M511.55,222.33a46.74,46.74,0,0,1-74.07-4.79"/><path class="cls-8" d="M515.22,217.54a30.2,30.2,0,0,1-9,3.81l4.81,1.57,2.69,4.28A30.06,30.06,0,0,1,515.22,217.54Z"/></g></svg>