<svg xmlns="http://www.w3.org/2000/svg" viewBox="0 0 46 46"><defs><style>.cls-1{fill:#5dc5ca;}.cls-2{fill:#28b5bd;}.cls-3{fill:#228f9b;}.cls-4{fill:#a3eae7;}.cls-5{fill:#fb9502;}.cls-6{fill:#b9b9b6;}</style></defs><title>Icon-Ideation copy</title><g id="Layer_16" data-name="Layer 16"><g id="prototype"><rect class="cls-1" x="18.47" y="10.57" width="8.42" height="27.2"/><rect class="cls-2" x="21.27" y="10.57" width="2.81" height="27.2"/><rect class="cls-3" x="24.12" y="10.57" width="2.81" height="27.2"/><polygon class="cls-4" points="22.35 44.7 26.89 37.77 18.47 37.77 22.35 44.7"/><polygon class="cls-5" points="22.35 44.7 24.19 41.89 20.79 41.92 22.35 44.7"/><path class="cls-6" d="M33.44,5a2.57,2.57,0,0,1-2.57-2.57,1.65,1.65,0,0,1,0-.32H15c-.08,5.64-7.78,6-7.78,6v3.72H30.89c0-.07,0-.13,0-.2a2.57,2.57,0,0,1,2.57-2.57l.19,0V5Z"/><rect class="cls-1" x="33.63" y="1.3" width="4.62" height="11.76"/><rect class="cls-5" x="36.49" y="1.3" width="2.31" height="11.76"/><rect class="cls-3" x="18.47" y="11.83" width="8.45" height="2.65"/><path class="cls-3" d="M33.44,5a2.57,2.57,0,0,1-2.57-2.57,1.65,1.65,0,0,1,0-.32h0v9.75h0c0-.07,0-.13,0-.2a2.57,2.57,0,0,1,2.57-2.57l.19,0V5Z"/></g></g></svg>