<svg xmlns="http://www.w3.org/2000/svg" viewBox="0 0 46 46"><defs><style>.cls-1{fill:#5dc5ca;}.cls-2{fill:#fffefa;stroke:#228f9b;stroke-miterlimit:10;}.cls-3{fill:#228f9b;}.cls-4{fill:#fb9502;}</style></defs><title>Icon-Implement</title><g id="Page3"><g id="Implement"><path class="cls-1" d="M23,1.7c-3.65,2.61-6.1,12.37-6.1,18V35.93h12.2V19.66C29.11,14.07,26.66,4.31,23,1.7Z"/><circle class="cls-2" cx="23.01" cy="18.27" r="3.49"/><path class="cls-3" d="M29.27,27.56c2.57,0,4.65,2.66,4.65,5.93s-4.65,5.93-4.65,5.93"/><path class="cls-3" d="M16.73,27.56c-2.57,0-4.65,2.66-4.65,5.93s4.65,5.93,4.65,5.93"/><path class="cls-4" d="M25.39,41c0,1.8-2.44,3.26-2.44,3.26S20.51,42.84,20.51,41s1.1-3.25,2.44-3.25S25.39,39.25,25.39,41Z"/><rect class="cls-4" x="22.37" y="28.96" width="6.27" height="1.16"/><rect class="cls-4" x="18.37" y="31.34" width="10.28" height="1.14"/></g></g></svg>