<svg xmlns="http://www.w3.org/2000/svg" xmlns:xlink="http://www.w3.org/1999/xlink" viewBox="0 0 46 46"><defs><style>.cls-1{fill:#a3eae7;opacity:0.25;}.cls-2{fill:#228f9b;}.cls-3{fill:#28b5bd;}.cls-4{fill:#fb9502;}.cls-5{fill:#fffefa;stroke:#fffefa;stroke-miterlimit:10;}</style><symbol id="SearchIcon" data-name="SearchIcon" viewBox="0 0 40.47 42.59"><g id="Search"><circle class="cls-1" cx="15.48" cy="15.44" r="13.84"/><path class="cls-2" d="M29.91,29.05a2.08,2.08,0,0,1-2-.52,2,2,0,0,1-.51-2l-.28-.28a15.69,15.69,0,1,0-3.23,2.67l.56.56a2.05,2.05,0,0,1,2,.51A2.08,2.08,0,0,1,27,32L37,42.18l3.46-2.58Zm-14.39-.57a13,13,0,1,1,13-13A13,13,0,0,1,15.52,28.48Z"/><polygon class="cls-2" points="26.96 32 29.91 29.05 40.47 39.6 37.4 42.59 26.96 32"/><path class="cls-3" d="M15.69,1.41A14.26,14.26,0,1,1,1.43,15.67,14.27,14.27,0,0,1,15.69,1.41m0-1A15.31,15.31,0,1,0,31,15.67,15.31,15.31,0,0,0,15.69.36Z"/><polygon class="cls-4" points="37.4 42.59 40.47 39.6 39.73 38.8 36.6 41.76 37.4 42.59"/><polygon class="cls-4" points="27.7 32.79 30.77 29.8 30.03 29 26.9 31.95 27.7 32.79"/></g><line class="cls-5" x1="15.69" y1="10.54" x2="8.88" y2="19.92"/><line class="cls-5" x1="20.59" y1="10.54" x2="13.78" y2="19.92"/></symbol></defs><title>Icon-Define</title><g id="Page10"><use width="40.47" height="42.6" transform="translate(2.77 1.7)" xlink:href="#SearchIcon"/></g></svg>