<svg xmlns="http://www.w3.org/2000/svg" xmlns:xlink="http://www.w3.org/1999/xlink" viewBox="0 0 438 654"><defs><style>.a,.h,.i,.n{fill:none;}.b{fill:#28b5bd;}.c{fill:#888581;}.d{clip-path:url(#a);}.e{fill:#171616;font-size:18px;font-family:RobotoCondensed-Light, Roboto Condensed;font-weight:300;letter-spacing:0.01em;}.f{fill:#548e0e;}.g{fill:#c90303;}.h{stroke:#4a4a42;}.h,.i,.n{stroke-linecap:round;stroke-linejoin:round;}.h,.i{stroke-width:1.5px;}.i,.n{stroke:#28b5bd;}.j{clip-path:url(#b);}.k{clip-path:url(#c);}.l{fill:#a3eae7;}.m{fill:#228f9b;}.n{stroke-width:2px;}</style><clipPath id="a"><rect class="a" width="318" height="654"/></clipPath><clipPath id="b"><path class="b" d="M0,0,16.076.031l.013,6.494L.013,6.494Z"/></clipPath><clipPath id="c"><path class="c" d="M0,0,16.076.031l.013,6.494L.013,6.494Z"/></clipPath></defs><g transform="translate(-81 -3293)"><g class="d" transform="translate(201 3293)"><g transform="translate(-199 -2432)"><text class="e" transform="translate(199 2432)"><tspan x="0" y="17">Bloom Dots</tspan><tspan x="0" y="41"></tspan></text></g><g transform="translate(-199 -2370)"><text class="e" transform="translate(199 2432)"><tspan x="0" y="17">Portfolio – active/inactive</tspan></text></g><g transform="translate(-199 -2308)"><text class="e" transform="translate(199 2432)"><tspan x="0" y="17" xml:space="preserve">Discover  – active/inactive</tspan></text></g><g transform="translate(-199 -2246)"><text class="e" transform="translate(199 2432)"><tspan x="0" y="17">Search</tspan></text></g><g transform="translate(-199 -2184)"><text class="e" transform="translate(199 2432)"><tspan x="0" y="17">Settings – active/inactive</tspan></text></g><g transform="translate(-199 -2122)"><text class="e" transform="translate(199 2432)"><tspan x="0" y="17">Navigation Arrows – back/forward</tspan></text></g><g transform="translate(-199 -2060)"><text class="e" transform="translate(199 2432)"><tspan x="0" y="17">Share</tspan></text></g><g transform="translate(-199 -1998)"><text class="e" transform="translate(199 2432)"><tspan x="0" y="17">Delete x</tspan></text></g><g transform="translate(-199 -1936)"><text class="e" transform="translate(199 2432)"><tspan x="0" y="17">Bookmark (add to watchlist) – inactive/active</tspan></text></g><g transform="translate(-199 -1874)"><text class="e" transform="translate(199 2432)"><tspan x="0" y="17">Indicator arrows – negative/positive/neutral</tspan></text></g><g transform="translate(-199 -1812)"><text class="e" transform="translate(199 2432)"><tspan x="0" y="17">user</tspan><tspan x="0" y="41"></tspan></text></g></g><g transform="translate(-16.545 510)"><ellipse class="c" cx="3.341" cy="3.341" rx="3.341" ry="3.341" transform="translate(119.659 3409)"/><path class="c" d="M6.683,6.4a4.709,4.709,0,0,1-2.228.557A4.265,4.265,0,0,1,2.339,6.4C-.111,6.4,0,11.08,0,11.08H8.91C8.91,10.969,9.133,6.4,6.683,6.4Z" transform="translate(118.545 3409.728)"/></g><g transform="translate(81 3854)"><g transform="translate(33 -707.127)"><path class="f" d="M-874.271,56V48.318H-878l4.874-8.153V40l.049.083.049-.083v.166l4.872,8.153h-3.63V56Z" transform="translate(864 668.127)"/></g><g transform="translate(9.603 -720.603)"><path class="c" d="M-874.271,56V48.318H-878l4.874-8.153V40l.049.083.049-.083v.166l4.872,8.153h-3.63V56Z" transform="translate(82.396 1602.604) rotate(90)"/></g><g transform="translate(-18 -1023)"><path class="g" d="M6.923,0V8.585h4.154L5.538,17.723v.138L0,8.585H4.015V0Z" transform="translate(18 1023)"/></g></g><g transform="translate(-13)"><g transform="translate(-886 3877)"><path class="b" d="M19,0H5A1,1,0,0,0,4,1V20a1,1,0,0,0,1.71.71L12,14.41l6.27,6.3A1.023,1.023,0,0,0,20,20V1A1,1,0,0,0,19,0ZM18,17.58l-5.26-5.29A1.05,1.05,0,0,0,12,12h0a1,1,0,0,0-.71.29L6,17.59V2H18Z" transform="translate(981 -87)"/></g><g transform="translate(-200 3422)"><path class="b" d="M15,0H1A.945.945,0,0,0,0,1V20a.875.875,0,0,0,.6.9A.6.6,0,0,0,1,21a.908.908,0,0,0,.7-.3L8,14.4l6.3,6.3a.913.913,0,0,0,1.1.2A.961.961,0,0,0,16,20V1A.945.945,0,0,0,15,0Z" transform="translate(325 368)"/></g></g><g transform="translate(-591 3871)"><path class="h" d="M5,5,17,17" transform="translate(687 -143)"/><path class="h" d="M17,5,5,17" transform="translate(687 -143)"/></g><g transform="translate(-1054 3754)"><path class="i" d="M19,13.93v7.14H3V13.93" transform="translate(1150 -91)"/><path class="i" d="M16,7,11,2,6,7" transform="translate(1150 -90)"/><path class="i" d="M11,17V2" transform="translate(1150 -90)"/></g><g transform="translate(81 3543)"><g transform="translate(-137 -366)"><path class="c" d="M19.818,8.455l-2.727-.545a.2.2,0,0,1-.182-.182,4.872,4.872,0,0,0-.455-1V6.545L18,4.182a.17.17,0,0,0,0-.273L16.091,2a.17.17,0,0,0-.273,0L13.455,3.545c-.091,0-.182.091-.182,0-.364-.182-.636-.273-1-.455-.091,0-.091-.091-.182-.182L11.545.182A.2.2,0,0,0,11.364,0H8.636a.2.2,0,0,0-.182.182L7.909,2.909a.2.2,0,0,1-.182.182,4.872,4.872,0,0,0-1,.455H6.545L4.182,1.909a.17.17,0,0,0-.273,0L2,3.909a.17.17,0,0,0,0,.273L3.545,6.545c0,.091.091.182,0,.182a4.872,4.872,0,0,0-.455,1c0,.091-.091.091-.182.182L.182,8.455A.2.2,0,0,0,0,8.636v2.727a.2.2,0,0,0,.182.182l2.727.545a.2.2,0,0,1,.182.182,4.872,4.872,0,0,0,.455,1v.182L2,15.818a.17.17,0,0,0,0,.273L3.909,18a.17.17,0,0,0,.273,0l2.364-1.545c.091,0,.182-.091.182,0,.364.182.636.273,1,.455.091,0,.091.091.182.182l.545,2.727A.2.2,0,0,0,8.636,20h2.727a.2.2,0,0,0,.182-.182l.545-2.727a.2.2,0,0,1,.182-.182,4.872,4.872,0,0,0,1-.455h.182L15.818,18a.17.17,0,0,0,.273,0L18,16.091a.17.17,0,0,0,0-.273l-1.545-2.364c0-.091-.091-.182,0-.182.182-.364.273-.636.455-1,0-.091.091-.091.182-.182l2.727-.545A.2.2,0,0,0,20,11.364V8.636A.2.2,0,0,0,19.818,8.455ZM10,13.636A3.636,3.636,0,1,1,13.636,10,3.647,3.647,0,0,1,10,13.636Z" transform="translate(168 366)"/></g><g transform="translate(-167 -365)"><path class="b" d="M19.818,8.455l-2.727-.545a.2.2,0,0,1-.182-.182,4.872,4.872,0,0,0-.455-1V6.545L18,4.182a.17.17,0,0,0,0-.273L16.091,2a.17.17,0,0,0-.273,0L13.455,3.545c-.091,0-.182.091-.182,0-.364-.182-.636-.273-1-.455-.091,0-.091-.091-.182-.182L11.545.182A.2.2,0,0,0,11.364,0H8.636a.2.2,0,0,0-.182.182L7.909,2.909a.2.2,0,0,1-.182.182,4.872,4.872,0,0,0-1,.455H6.545L4.182,1.909a.17.17,0,0,0-.273,0L2,3.909a.17.17,0,0,0,0,.273L3.545,6.545c0,.091.091.182,0,.182a4.872,4.872,0,0,0-.455,1c0,.091-.091.091-.182.182L.182,8.455A.2.2,0,0,0,0,8.636v2.727a.2.2,0,0,0,.182.182l2.727.545a.2.2,0,0,1,.182.182,4.872,4.872,0,0,0,.455,1v.182L2,15.818a.17.17,0,0,0,0,.273L3.909,18a.17.17,0,0,0,.273,0l2.364-1.545c.091,0,.182-.091.182,0,.364.182.636.273,1,.455.091,0,.091.091.182.182l.545,2.727A.2.2,0,0,0,8.636,20h2.727a.2.2,0,0,0,.182-.182l.545-2.727a.2.2,0,0,1,.182-.182,4.872,4.872,0,0,0,1-.455h.182L15.818,18a.17.17,0,0,0,.273,0L18,16.091a.17.17,0,0,0,0-.273l-1.545-2.364c0-.091-.091-.182,0-.182.182-.364.273-.636.455-1,0-.091.091-.091.182-.182l2.727-.545A.2.2,0,0,0,20,11.364V8.636A.2.2,0,0,0,19.818,8.455ZM10,13.636A3.636,3.636,0,1,1,13.636,10,3.647,3.647,0,0,1,10,13.636Z" transform="translate(167 365)"/></g></g><g transform="translate(62 3347)"><path class="c" d="M9,3A5.5,5.5,0,1,1,3.5,8.5,5.5,5.5,0,0,1,9,3M9,1a7.5,7.5,0,1,0,7.5,7.5A7.5,7.5,0,0,0,9,1Z" transform="translate(33.5 132)"/><path class="c" d="M14.63,13.72l-1.1-1.11L12.11,14l1.11,1.1a1,1,0,0,1,1.2,1.2l5,5.06L20.89,20l-5.06-5a1,1,0,0,1-1.2-1.2Z" transform="translate(33.5 132)"/></g><g transform="translate(82 3417)"><g transform="translate(243 -554)"><g transform="translate(-257 555)"><path class="b" d="M10.5,21A10.5,10.5,0,1,1,21,10.5,10.47,10.47,0,0,1,10.5,21Zm0-19.091A8.591,8.591,0,1,0,19.091,10.5,8.555,8.555,0,0,0,10.5,1.909Z" transform="translate(14 -1)"/></g><g class="j" transform="translate(-240.444 567.881) rotate(-45)"><path class="b" d="M15.56,2.441,8.1-.235H7.783L.23,2.411h0c-.425.212-.424.851,0,.958L7.689,6.045h.319L15.456,3.4A.5.5,0,0,0,15.56,2.441ZM7.9,4.768h0L7.892,1.042h0l5.114,1.926Z" transform="translate(0.095 0.251)"/></g></g><g transform="translate(15 1)"><path class="c" d="M10.5,21A10.5,10.5,0,1,1,21,10.5,10.47,10.47,0,0,1,10.5,21Zm0-19.091A8.591,8.591,0,1,0,19.091,10.5,8.555,8.555,0,0,0,10.5,1.909Z" transform="translate(14 -1)"/><g class="k" transform="translate(16.556 12.881) rotate(-45)"><path class="c" d="M15.56,2.441,8.1-.235H7.783L.23,2.411h0c-.425.212-.424.851,0,.958L7.689,6.045h.319L15.456,3.4A.5.5,0,0,0,15.56,2.441ZM7.9,4.768h0L7.892,1.042h0l5.114,1.926Z" transform="translate(0.095 0.251)"/></g></g></g><g transform="translate(81 3357)"><g transform="translate(16)"><path class="c" d="M19,3H14.8V2.8A2.8,2.8,0,0,0,12,0H8A2.8,2.8,0,0,0,5.2,2.8V3H1A.945.945,0,0,0,0,4V7.3L9.9,9,20,7.2V4A.945.945,0,0,0,19,3ZM6.8,2.8A1.216,1.216,0,0,1,8,1.6h4a1.216,1.216,0,0,1,1.2,1.2V3H6.8Z" transform="translate(15)"/><path class="c" d="M11.5,10.5v1a.945.945,0,0,1-1,1h-1a.945.945,0,0,1-1-1V10.3L1,8.7V17a.945.945,0,0,0,1,1H18a.945.945,0,0,0,1-1V8.7l-7.5,1.5Z" transform="translate(15)"/></g><g transform="translate(-15)"><path class="b" d="M19,3H14.8V2.8A2.8,2.8,0,0,0,12,0H8A2.8,2.8,0,0,0,5.2,2.8V3H1A.945.945,0,0,0,0,4V7.3L9.9,9,20,7.2V4A.945.945,0,0,0,19,3ZM6.8,2.8A1.216,1.216,0,0,1,8,1.6h4a1.216,1.216,0,0,1,1.2,1.2V3H6.8Z" transform="translate(15)"/><path class="b" d="M11.5,10.5v1a.945.945,0,0,1-1,1h-1a.945.945,0,0,1-1-1V10.3L1,8.7V17a.945.945,0,0,0,1,1H18a.945.945,0,0,0,1-1V8.7l-7.5,1.5Z" transform="translate(15)"/></g></g><g transform="translate(66 3257)"><ellipse class="l" cx="8.6" cy="8.3" rx="8.6" ry="8.3" transform="translate(39.7 36)"/><ellipse class="b" cx="6.9" cy="6.7" rx="6.9" ry="6.7" transform="translate(24 51.2)"/><ellipse class="m" cx="4.8" cy="4.7" rx="4.8" ry="4.7" transform="matrix(0.999, -0.048, 0.048, 0.999, 42.78, 61.436)"/></g><g transform="translate(-13)"><g transform="translate(69.5 3503.5)"><path class="n" d="M16,2,5,11l11,9" transform="translate(26.5 98.5)"/></g><path class="b" d="M1,20a1.421,1.421,0,0,0,.6-.2l11-9A1.234,1.234,0,0,0,13,10a.909.909,0,0,0-.4-.8L1.6.2A.988.988,0,0,0,.2.4,1.063,1.063,0,0,0,.3,1.8L10.4,10,.4,18.2a.972.972,0,0,0-.1,1.4A.67.67,0,0,0,1,20Z" transform="translate(125.014 3603.005)"/></g></g></svg>