<svg xmlns="http://www.w3.org/2000/svg" xmlns:xlink="http://www.w3.org/1999/xlink" viewBox="0 0 46 46"><defs><style>.cls-1{fill:#fffefa;opacity:0.5;}.cls-2{fill:#28b5bd;}.cls-3{fill:#fb9502;}.cls-4{fill:#b9b9b6;}.cls-5{fill:#228f9b;stroke:#fffefa;stroke-miterlimit:10;}.cls-6{fill:#a3eae7;}</style><symbol id="Lightbulb" data-name="Lightbulb" viewBox="0 0 30.61 42.06"><g id="Search"><circle class="cls-1" cx="15.32" cy="15" r="13.84"/><path class="cls-2" d="M25.39,5.22a14.26,14.26,0,1,1-20.17,0,14.28,14.28,0,0,1,20.17,0m.74-.74a15.31,15.31,0,1,0,0,21.65,15.32,15.32,0,0,0,0-21.65Z"/></g><ellipse class="cls-3" cx="17.29" cy="22.11" rx="1.14" ry="4.12"/><ellipse class="cls-3" cx="12.61" cy="22.11" rx="1.14" ry="4.12"/><path class="cls-4" d="M18.65,40.31a4.93,4.93,0,0,1-3.49,1.75A4.21,4.21,0,0,1,12,40.31V34h6.68Z"/><rect class="cls-5" x="8.21" y="31.2" width="14.2" height="2.56"/><rect class="cls-5" x="9.77" y="34.28" width="11.07" height="2.56"/><path class="cls-6" d="M24.34,6.27a12.75,12.75,0,0,0-9.6-3.72v.88a11.9,11.9,0,1,1-7.85,20.3c-.11-.11-.21-.23-.31-.34H5.41A12.78,12.78,0,1,0,24.34,6.27Z"/></symbol></defs><title>Icon-Ideation</title><g id="Page10"><use width="30.61" height="42.06" transform="translate(7.69 1.97)" xlink:href="#Lightbulb"/></g></svg>