<svg xmlns="http://www.w3.org/2000/svg" viewBox="0 0 250 150"><defs><style>.cls-1{opacity:0.5;}.cls-2,.cls-8{fill:#a3eae7;}.cls-2{opacity:0.25;}.cls-3{fill:#28b5bd;}.cls-4{fill:#228f9b;}.cls-5{fill:#5dc5ca;}.cls-6{fill:#fb9502;}.cls-7{fill:#fcbe6b;}.cls-9{fill:#fffefa;}</style></defs><title>Invest</title><g id="Invest"><path id="BG" class="cls-2" d="M166.54,22.17h-95A15.5,15.5,0,0,0,56,37.67h0a15.4,15.4,0,0,0,1.74,7.13,5.23,5.23,0,0,1-4.62,7.67H50.83A15.75,15.75,0,0,0,35,66.2a15.51,15.51,0,0,0,15.4,17.27H50.1A11.27,11.27,0,0,1,61.19,96.25a16.5,16.5,0,0,0,0,4A15.75,15.75,0,0,0,77,113.59H77a5.63,5.63,0,0,1,5.5,6.91,15.4,15.4,0,0,0-.43,3.62h0a15.43,15.43,0,0,0,15.43,15.43h56.61a15.43,15.43,0,0,0,15.44-15.43h0a15.38,15.38,0,0,0-4.17-10.53h7.19a15.5,15.5,0,0,0,15.48-16.25c-.39-8.33-7.57-14.75-15.92-14.75,0,0,17.41-1.85,18.54-2.81A15.47,15.47,0,0,0,190.5,56C189.36,55,182,46.23,182,37.67h0A15.5,15.5,0,0,0,166.54,22.17Z"/><g id="Ribbon"><path class="cls-3" d="M112.23,128.44,107,113.07l-13.3,9.32A1.26,1.26,0,0,1,91.76,121l13.08-40.14,22.85,7.44-13.08,40.15A1.25,1.25,0,0,1,112.23,128.44Z"/><path class="cls-3" d="M134.06,128.44l5.25-15.37,13.3,9.32a1.26,1.26,0,0,0,1.92-1.42L141.44,80.83l-22.85,7.44,13.09,40.15A1.25,1.25,0,0,0,134.06,128.44Z"/><path class="cls-4" d="M146.37,96l-4.23-13a31.36,31.36,0,0,1-5.24,3l-.78.33-.78.31a30.78,30.78,0,0,1-11.1,2.06,30.19,30.19,0,0,1-5.33-.47l-.32.1,7.12,21.85c3.32-.62,6.25-3.32,8.32-7.3A12.82,12.82,0,0,1,146.37,96Z"/><path class="cls-4" d="M124.24,88.64a30.78,30.78,0,0,1-11.1-2.06l-.78-.31-.78-.33a31,31,0,0,1-7-4.32L99.79,96.34a12.79,12.79,0,0,1,14.65,6.48,14.44,14.44,0,0,0,6.34,6.66l6.86-21A31.84,31.84,0,0,1,124.24,88.64Z"/><path class="cls-5" d="M113.41,127.27l-5.66-16.58L93.41,120.75l12.39-38,20,6.52Zm-5.14-18.16,5.12,15,11.15-34.23L106.45,84,95.29,118.21Z"/><path class="cls-5" d="M132.88,127.26l-12.4-38,20-6.52,12.4,38-14.34-10.06ZM121.74,89.88l11.16,34.23,5.12-15,13,9.1L139.84,84Z"/><path class="cls-6" d="M166.38,57.58c0-3.12-2.3-5.93-5.95-7.83a10.25,10.25,0,0,1-5.06-12.21c1.23-3.93.88-7.54-1.33-9.75s-5.83-2.57-9.75-1.34a10.24,10.24,0,0,1-12.21-5.06c-1.91-3.64-4.71-5.94-7.84-5.94s-5.93,2.3-7.84,5.94a10.24,10.24,0,0,1-12.21,5.06c-3.92-1.23-7.54-.88-9.75,1.34s-2.56,5.82-1.33,9.75a10.25,10.25,0,0,1-5.06,12.21c-3.65,1.9-6,4.71-6,7.83s2.3,5.94,6,7.84a10.25,10.25,0,0,1,5.06,12.21c-1.23,3.93-.88,7.54,1.33,9.75s5.83,2.57,9.75,1.34a10.24,10.24,0,0,1,12.21,5.06c1.91,3.64,4.71,5.94,7.84,5.94s5.93-2.3,7.84-5.94a10.24,10.24,0,0,1,12.21-5.06c3.92,1.23,7.53.87,9.75-1.34s2.56-5.82,1.33-9.75a10.25,10.25,0,0,1,5.06-12.21C164.08,63.52,166.38,60.71,166.38,57.58Zm-18.94,8.89c-.08.2-.17.41-.25.62l-.27.62a24.79,24.79,0,0,1-12.55,12.56l-.63.26-.62.25a24.72,24.72,0,0,1-17.76,0l-.62-.25-.63-.26a24.79,24.79,0,0,1-12.55-12.56l-.27-.62c-.08-.21-.17-.42-.25-.62a24.75,24.75,0,0,1,0-17.77c.08-.2.17-.41.25-.62l.27-.62A24.79,24.79,0,0,1,114.11,34.9l.63-.26.62-.25a24.72,24.72,0,0,1,17.76,0l.62.25.63.26a24.79,24.79,0,0,1,12.55,12.56l.27.62c.08.21.17.42.25.62a24.89,24.89,0,0,1,0,17.77Z"/><path class="cls-7" d="M124.24,100.22C121,100.22,118,98,116,94a9.79,9.79,0,0,0-11.62-4.82c-4.25,1.34-8,.81-10.25-1.45s-2.79-6-1.46-10.25a9.8,9.8,0,0,0-4.81-11.63c-3.95-2.06-6.22-5.08-6.22-8.28s2.27-6.21,6.22-8.27a9.8,9.8,0,0,0,4.81-11.63c-1.33-4.25-.8-8,1.46-10.25s6-2.79,10.25-1.45A9.78,9.78,0,0,0,116,21.16C118,17.21,121,15,124.24,15s6.22,2.26,8.28,6.21A9.79,9.79,0,0,0,144.14,26c4.25-1.34,8-.81,10.25,1.45s2.79,6,1.46,10.25a9.79,9.79,0,0,0,4.81,11.63c4,2.06,6.22,5.08,6.22,8.27s-2.27,6.22-6.22,8.28a9.79,9.79,0,0,0-4.81,11.63c1.33,4.25.8,8-1.46,10.25s-6,2.79-10.25,1.45A9.79,9.79,0,0,0,132.52,94C130.46,98,127.44,100.22,124.24,100.22Zm-17-12.48a10.8,10.8,0,0,1,9.57,5.8c1.88,3.61,4.58,5.68,7.39,5.68s5.51-2.07,7.39-5.68a10.79,10.79,0,0,1,12.81-5.3c3.89,1.22,7.25.78,9.24-1.21s2.43-5.36,1.21-9.25A10.78,10.78,0,0,1,160.2,65c3.61-1.89,5.68-4.58,5.68-7.4s-2.07-5.5-5.68-7.39a10.78,10.78,0,0,1-5.31-12.8c1.22-3.89.78-7.26-1.21-9.25s-5.35-2.43-9.24-1.21a10.79,10.79,0,0,1-12.81-5.3C129.75,18,127.05,16,124.24,16s-5.51,2.07-7.39,5.68A10.8,10.8,0,0,1,104,26.93c-3.89-1.22-7.26-.78-9.24,1.21s-2.43,5.36-1.21,9.25a10.8,10.8,0,0,1-5.31,12.8c-3.61,1.89-5.68,4.58-5.68,7.39s2.07,5.51,5.68,7.4a10.8,10.8,0,0,1,5.31,12.8C92.37,81.67,92.81,85,94.8,87s5.35,2.43,9.24,1.21A10.72,10.72,0,0,1,107.28,87.74Zm17-4.81a25.26,25.26,0,0,1-9.06-1.68l-.55-.22-.19-.08-.53-.23A25.22,25.22,0,0,1,101.1,67.91c-.09-.19-.17-.38-.25-.58l0-.14c-.08-.18-.16-.36-.23-.54a25.27,25.27,0,0,1,0-18.12c.07-.18.14-.36.22-.54l0-.1c.1-.25.18-.44.27-.63a25.22,25.22,0,0,1,12.81-12.81l.53-.23.1,0,.64-.26a25.38,25.38,0,0,1,18.12,0l.53.21.1,0,.64.28a25.22,25.22,0,0,1,12.81,12.81c.08.19.17.38.25.58s.19.47.28.69a25.17,25.17,0,0,1,0,18.11c-.08.22-.16.43-.25.64s-.19.44-.27.63a25.22,25.22,0,0,1-12.81,12.81L134,81l-.09,0-.64.26A25.31,25.31,0,0,1,124.24,82.93ZM101.77,67l.24.56a24.43,24.43,0,0,0,5,7.29,24.11,24.11,0,0,0,7.3,5l.51.22.1,0,.61.25a24.38,24.38,0,0,0,17.4,0l.56-.23.15-.06.51-.22a24.27,24.27,0,0,0,12.3-12.3c.09-.19.17-.38.24-.56l.27-.66h0a24.2,24.2,0,0,0,0-17.41l-.25-.61c-.09-.23-.17-.42-.26-.61a24.27,24.27,0,0,0-12.3-12.3l-.54-.23-.17-.07-.51-.21a24.38,24.38,0,0,0-17.4,0l-.53.22-.18.07-.51.22a24.11,24.11,0,0,0-7.3,5,24.43,24.43,0,0,0-5,7.29l-.24.56-.06.15c-.07.17-.14.34-.2.51a24.2,24.2,0,0,0,0,17.41l.21.52-.41.33Z"/><circle class="cls-8" cx="124.24" cy="57.58" r="29.81"/><path class="cls-9" d="M124.24,29.77A27.82,27.82,0,1,1,96.43,57.58a27.84,27.84,0,0,1,27.81-27.81m0-2a29.82,29.82,0,1,0,29.81,29.81,29.81,29.81,0,0,0-29.81-29.81Z"/><circle class="cls-4" cx="124.24" cy="57.58" r="24.85"/><path class="cls-5" d="M124.24,78a20.38,20.38,0,1,1,20.38-20.38A20.4,20.4,0,0,1,124.24,78Zm0-39.75a19.38,19.38,0,1,0,19.38,19.37A19.4,19.4,0,0,0,124.24,38.21Z"/><path id="Arrow" class="cls-9" d="M122.41,69V57.44H116.8l7.33-12.27v-.25l.08.12.07-.12v.25l7.34,12.27h-5.47V69Z"/></g><g id="Hand"><path id="HandBG" class="cls-9" d="M204.39,117.83c-.51-6.34-.44-7.71-3.67-14.81l-4.65-9.37L186.69,80a5.4,5.4,0,0,0-7.37-1.65s-3.2,1.64-3.38,2.24a6.87,6.87,0,0,0-3.37-2.6,5.34,5.34,0,0,0-4.06.75s-3.4,2.87-3.7,4.27c-.07.3-1.72-3.15-1.72-3.15a5.38,5.38,0,0,0-7.45-1.6l-1.36.88a8,8,0,0,0-2.52,3.8L138.55,63A6.21,6.21,0,0,0,130,61.12a6.21,6.21,0,0,0-1.84,8.57l19.49,30.09,2.12,3.28a9.35,9.35,0,0,0-9.81.2l-3.09,2,13.53,17.65,6.33,9.93a21.07,21.07,0,0,0,12.88,6.71c2.8.31,8.25,6,9.78,8.42l31.35-6.75C207.7,136.57,204.83,123.36,204.39,117.83Z"/><g id="HandOutline"><path class="cls-3" d="M169,139.06c-9.78-1.51-14-8.91-16.73-13.82-.59-1-1.1-1.94-1.6-2.66-2.47-3.62-11.22-14.81-13.09-17.18,1-.61,3.48-2,5.93-3.18,2.71-1.27,5.49.88,5.86,1.18l11.76,16.81a.51.51,0,0,0,.7.12.51.51,0,0,0,.12-.7l-11.8-16.86h0l-22-34c-.08-.19-2.13-4.73,2-7.2a5.86,5.86,0,0,1,7.31.81L168,108.53l.83-.55L152.51,83.27a8,8,0,0,1,3.61-4.12c2.78-1.28,4.68-.89,6.14,1.28,1.68,2.49,15,23.23,15.18,23.44a.48.48,0,0,0,.42.23.56.56,0,0,0,.27-.08.5.5,0,0,0,.15-.69c-.14-.21-13.51-21-15.19-23.46s-4.16-3.11-7.39-1.62a8.58,8.58,0,0,0-3.85,4l-13.58-20.5a7,7,0,0,0-8.62-1.05c-4.87,2.94-2.38,8.43-2.32,8.55l20.79,32.18a5.89,5.89,0,0,0-5-.15c-3.23,1.51-6.48,3.51-6.51,3.53l-.48.29.35.44c.1.14,10.66,13.57,13.4,17.57.47.69,1,1.57,1.55,2.6,2.86,5.07,7.19,12.73,17.45,14.31,11,1.69,11,4.4,11,4.4l1,.21a1.77,1.77,0,0,0-.38-1.32C179.59,142.06,176.88,140.27,169,139.06Z"/><path class="cls-3" d="M176,80.27c-2.54-3.92-4.65-2.93-7.4-1.63-2.92,1.37-3.35,3.11-3.37,3.18a.5.5,0,0,0,1,.23s.39-1.36,2.91-2.55,4-1.87,6.05,1.31c2.3,3.55,13.41,19.65,13.52,19.82a.51.51,0,0,0,.41.21.52.52,0,0,0,.29-.09.5.5,0,0,0,.13-.69C189.38,99.9,178.28,83.8,176,80.27Z"/><path class="cls-3" d="M211.09,140.89c-1-1.13-6.46-15.27-6.22-24.64.18-6.8-3.45-13.16-8.48-22l-.8-1.42a153.92,153.92,0,0,0-8.74-13.26,6,6,0,0,0-4.21-2.54A7.91,7.91,0,0,0,177.3,79a.49.49,0,0,0-.05.7.51.51,0,0,0,.71,0,7,7,0,0,1,4.59-1.64,5.07,5.07,0,0,1,3.51,2.15,152.41,152.41,0,0,1,8.66,13.15l.81,1.41c4.94,8.66,8.51,14.91,8.34,21.44-.23,9.2,5.2,23.88,6.47,25.32a.48.48,0,0,0,.37.17.54.54,0,0,0,.34-.12A.51.51,0,0,0,211.09,140.89Z"/></g></g></g></svg>