<svg xmlns="http://www.w3.org/2000/svg" xmlns:xlink="http://www.w3.org/1999/xlink" viewBox="0 0 250 150"><defs><style>.cls-1,.cls-3{fill:#a3eae7;}.cls-2{opacity:0.5;}.cls-3{opacity:0.25;}.cls-4{fill:#228f9b;}.cls-5{fill:#fb9502;}.cls-6{fill:#28b5bd;}</style><symbol id="Tree" data-name="Tree" viewBox="0 0 10.7 22.8"><rect class="cls-1" x="4.42" y="11.6" width="1.87" height="11.2"/><path class="cls-1" d="M8.48,6c0,4.17-1.4,7.55-3.13,7.55S2.23,10.12,2.23,6,3.62,0,5.35,0,8.48,1.78,8.48,6Z"/><path class="cls-1" d="M10.7,7.35c0,2.62-2.4,4-5.35,4S0,10,0,7.35,2.4,2.6,5.35,2.6,10.7,4.73,10.7,7.35Z"/></symbol></defs><title>Knowledge</title><g id="Knowledge"><path id="Ground" class="cls-3" d="M8.74,127.18v1.69a6,6,0,0,0,6,6H73.26A1.68,1.68,0,0,1,75,136.53h0a6,6,0,0,0,6,6H210.21a6,6,0,0,0,6-6h0a1.69,1.69,0,0,1,1.69-1.69h18.38a6,6,0,0,0,6-6v-1.69Z"/><g id="Company"><polygon class="cls-4" points="129.53 70.42 129.53 127.22 140.86 127.22 140.86 80.79 129.53 70.42"/><polygon class="cls-4" points="109.14 127.18 110.84 127.18 110.84 81.98 127.53 73.92 127.53 127.18 129.53 127.18 129.53 70.42 109.14 80.79 109.14 127.18"/></g><g id="Trees"><use width="10.7" height="22.8" transform="translate(86.81 104.42)" xlink:href="#Tree"/><use width="10.7" height="22.8" transform="translate(155.53 104.32)" xlink:href="#Tree"/></g><path class="cls-5" d="M179.61,91.33V88.91a7,7,0,0,1-3.67-1.06l.57-1.61a6.4,6.4,0,0,0,3.46,1c1.7,0,2.86-1,2.86-2.35s-.94-2.13-2.72-2.85c-2.44-1-4-2.07-4-4.16a3.94,3.94,0,0,1,3.63-3.86V71.62h1.49V74a6.53,6.53,0,0,1,3.12.84l-.6,1.59a5.81,5.81,0,0,0-3-.82c-1.85,0-2.54,1.1-2.54,2.07,0,1.24.89,1.87,3,2.73,2.48,1,3.72,2.26,3.72,4.39a4.17,4.17,0,0,1-3.79,4.08v2.5Z"/><path class="cls-5" d="M191.92,91.33V88.91a7,7,0,0,1-3.67-1.06l.57-1.61a6.4,6.4,0,0,0,3.46,1c1.71,0,2.86-1,2.86-2.35s-.94-2.13-2.72-2.85c-2.44-1-4-2.07-4-4.16a3.94,3.94,0,0,1,3.63-3.86V71.62h1.49V74a6.53,6.53,0,0,1,3.12.84l-.6,1.59a5.81,5.81,0,0,0-3-.82c-1.85,0-2.54,1.1-2.54,2.07,0,1.24.89,1.87,3,2.73,2.48,1,3.73,2.26,3.73,4.39a4.17,4.17,0,0,1-3.8,4.08v2.5Z"/><g id="People"><circle class="cls-5" cx="70.75" cy="78.9" r="4.51"/><path class="cls-5" d="M73.83,84a6.39,6.39,0,0,1-3.08.81A5.79,5.79,0,0,1,67.83,84c-3.25,0-3.1,6.1-3.1,6.1h12S77.07,84,73.83,84Z"/><circle class="cls-5" cx="56.02" cy="78.9" r="4.51"/><path class="cls-5" d="M59.09,84a6.33,6.33,0,0,1-3.07.81A5.76,5.76,0,0,1,53.1,84c-3.25,0-3.1,6.1-3.1,6.1H62S62.34,84,59.09,84Z"/></g><polygon id="Graphy" class="cls-5" points="158.05 56.53 156.52 55.24 164.58 45.69 167.4 50.92 174.01 40.98 178.13 45.84 185.56 35.52 187.19 36.68 178.25 49.08 174.2 44.3 167.22 54.8 164.21 49.23 158.05 56.53"/><path id="Medal" class="cls-5" d="M85.58,37.15h-17c-1.44.08-4.1.84-4.1,3.18,0,1.83,1.92,2.63,3.47,3.28a5.08,5.08,0,0,1,2.1,1.23c.19.3.13.45.1.5-.17.39-1,.67-1.35.75l.19,1c.17,0,1.65-.36,2.08-1.33a1.43,1.43,0,0,0,.1-.46,8,8,0,0,0,4.49,3v6.86h-5a2.33,2.33,0,0,0-2.34,2.33H85.85a2.33,2.33,0,0,0-2.33-2.33h-5V48.3a8,8,0,0,0,4.46-3,1.3,1.3,0,0,0,.1.43c.42,1,1.9,1.29,2.07,1.33l.2-1C85,46,84.15,45.73,84,45.34c0-.05-.08-.2.1-.5a5.13,5.13,0,0,1,2.11-1.23c1.54-.65,3.47-1.45,3.47-3.28C89.66,38,87,37.24,85.58,37.15ZM68.36,42.69c-1.41-.59-2.86-1.2-2.86-2.36,0-1.86,2.74-2.15,3.14-2.18a13.65,13.65,0,0,0,1.45,5.39A12.12,12.12,0,0,0,68.36,42.69Zm17.44,0a11,11,0,0,0-1.68.82,13.88,13.88,0,0,0,1.43-5.36c.47,0,3.11.35,3.11,2.18C88.66,41.49,87.2,42.1,85.8,42.69Z"/><path id="Arrow" class="cls-5" d="M123.59,35.26v-9H119.2l5.74-9.6v-.2l.06.1.06-.1v.2l5.74,9.6h-4.28v9Z"/><g id="Rays"><rect class="cls-6" x="91.23" y="83.46" width="12.31" height="1"/><rect class="cls-6" x="104.93" y="58.37" width="1" height="12.31" transform="translate(-14.74 93.45) rotate(-45)"/><rect class="cls-6" x="124.37" y="50.31" width="1" height="12.32"/><rect class="cls-6" x="138.15" y="64.02" width="12.31" height="1" transform="translate(-3.36 120.94) rotate(-45)"/><rect class="cls-6" x="146.21" y="83.46" width="12.31" height="1"/></g></g></svg>