<svg xmlns="http://www.w3.org/2000/svg" viewBox="0 0 428.6 134.77"><defs><style>.cls-1{fill:#fb9502;}.cls-2{fill:#a3eae7;}.cls-3{fill:#28b5bd;}.cls-4{fill:#228f9b;}</style></defs><title>Logo</title><g id="Layer_12" data-name="Layer 12"><g id="BloomLogo"><g id="Bloom"><path class="cls-1" d="M164.92,84.81c0,11-5.42,22.11-15.46,27.6a32.63,32.63,0,0,1-32.87-1.19c-9-5.86-13.54-16.15-13.68-26.46,0-3,0-52.19,0-52.19h14.9s.59,21,.59,26c8.55-5.59,20.87-6.07,30-1.35A30.7,30.7,0,0,1,164.92,84.81Zm-15.09,0a16.14,16.14,0,0,0-15.91-16c-8.67,0-15.79,7.94-15.86,16a15.89,15.89,0,1,0,31.77,0Z"/><path class="cls-1" d="M189.07,114.71H173.48v-82l15.59-.09Z"/><path class="cls-1" d="M259.52,84.81a31,31,0,0,1-19.93,29A31.13,31.13,0,0,1,202,68.46c6.72-11.21,20.39-16.74,33.41-14.09C250.26,57.4,259.52,70.46,259.52,84.81Zm-15.09,0a15.86,15.86,0,1,0-31.71,0,16.1,16.1,0,0,0,15.8,16A15.93,15.93,0,0,0,244.43,84.81Z"/><path class="cls-1" d="M326.74,84.81a31,31,0,0,1-19.93,29,31.13,31.13,0,0,1-37.63-45.37c6.72-11.21,20.4-16.74,33.42-14.09C317.48,57.4,326.74,70.46,326.74,84.81Zm-15.09,0a15.86,15.86,0,1,0-31.71,0,16.1,16.1,0,0,0,15.8,16A15.93,15.93,0,0,0,311.65,84.81Z"/><path class="cls-1" d="M412.5,114.71H397.12s0-25.41,0-32.21c0-5.61-.4-13.66-8.81-12.55-7.41,1-6.61,8.49-6.61,13.79,0,6.8-.34,31-.34,31l-15.14-.06s.08-36,0-37.25c-.33-5.52-6.33-9.55-11.62-6.51-5,2.88-3.79,9.69-3.79,14.46,0,6.85.13,25.47,0,27.9-.09,1.64.27,1.35-1.49,1.46-3.36.21-14-.25-14-.25V57.32S335,55.88,336.86,56c5.82.19,6,4.2,6,4.2s3.88-2.18,5.3-2.86a23.64,23.64,0,0,1,10.24-2.39c6,0,11.68,2.24,15.42,6.86,5.86-7.72,17.73-8.53,26-4.39a22.71,22.71,0,0,1,12.6,20.22C412.67,86.43,412.5,114.71,412.5,114.71Z"/></g><g id="Dots"><ellipse class="cls-2" cx="66.34" cy="33.93" rx="20.64" ry="19.98"/><ellipse class="cls-3" cx="24.72" cy="66.43" rx="16.51" ry="15.98"/><ellipse class="cls-4" cx="65.24" cy="85.7" rx="11.6" ry="11.23" transform="translate(-4.02 3.21) rotate(-2.74)"/></g></g></g></svg>