<svg xmlns="http://www.w3.org/2000/svg" viewBox="0 0 200 200"><defs><style>.cls-1{opacity:0.5;}.cls-2,.cls-4{fill:#fb9502;}.cls-3{fill:#228f9b;}.cls-4{opacity:0.25;}.cls-5{fill:#a3eae7;}.cls-6{fill:#f2f2f2;}.cls-7{fill:#fffefa;}</style></defs><title>Artboard 10 copy 3</title><g id="Personas"><ellipse class="cls-2" cx="96.91" cy="91.12" rx="53.91" ry="33.32"/><ellipse class="cls-3" cx="61.78" cy="112.22" rx="2.69" ry="12.22"/><path class="cls-4" d="M191.56,87.89a21.38,21.38,0,0,0-6.47-15.63c-1.29-1.22-9.61-12.68-9.61-23.83h0c0-11.14-7.89-20.18-17.63-20.18h-108c-9.73,0-17.62,9-17.62,20.18h0a22.5,22.5,0,0,0,2,9.29c2.06,4.55-.78,10-5.25,10H26.3c-9,0-17,7.59-18,17.89-1.17,12.17,7.12,22.48,17.52,22.48h-.37a11,11,0,0,1,2.82.36,24.37,24.37,0,0,0,26.85,38.82c.3,0,.59.05.89.05h.06c4.13,0,7.22,4.4,6.25,9a22.66,22.66,0,0,0-.49,4.71h0c0,11.09,7.86,20.09,17.55,20.09h64.36c9.69,0,17.55-9,17.55-20.09h0a21.61,21.61,0,0,0-4.75-13.71h8.19c10,0,18.07-9.57,17.6-21.16-.45-10.86-8.61-19.21-18.1-19.21,0,0,19.79-2.41,21.07-3.66A21.38,21.38,0,0,0,191.56,87.89Z"/><path class="cls-5" d="M155.33,192.49,45,191.49l-2-15.6a32.41,32.41,0,0,1,32.4-32.4h44.53a32.4,32.4,0,0,1,32.4,32.4Z"/><path class="cls-3" d="M155.33,192.49,42,191.49l1-15.6c3.71-27.14,14.51-32.4,32.4-32.4L100,188.41l19.93-44.92c17.9,0,32.28,9.07,32.4,32.4Z"/><path class="cls-6" d="M81.67,143.49l4.72,3.9a20.16,20.16,0,0,0,24.9,0l4.72-3.9s-8.13-8.62-8.13-18.82c0-4.14-19.24-4.14-19.24,0C88.64,134.87,81.67,143.49,81.67,143.49Z"/><path class="cls-7" d="M140.5,73.74c0,23.89-19.36,55.75-43.25,55.75S54,97.63,54,73.74a43.25,43.25,0,0,1,86.5,0Z"/><path class="cls-2" d="M128.93,109s6.29-11.64,6.94-18.86c.52-5.87-4.45-6.62-5.35-13.62-2-15.6-4-12.09-20.68-10.93-13.71,1-27.41-3-35.69-12S60.15,38,60.15,38,85.3,18.71,101.06,22.71s37.09,6.66,38.76,20.66,17,32.87,11,49.1A24.9,24.9,0,0,1,128.93,109Z"/><path class="cls-2" d="M80.58,44s-7.26,6.89-16.43,25.34S54.76,109,54.76,109,42.33,107.08,43,95.75,40,36,64.18,30.49C77.78,27.42,80.58,44,80.58,44Z"/><ellipse class="cls-7" cx="132.57" cy="90.12" rx="3.3" ry="12.75"/><ellipse class="cls-3" cx="131.96" cy="112.22" rx="2.69" ry="12.22"/></g></svg>