<svg xmlns="http://www.w3.org/2000/svg" viewBox="0 0 200 200"><defs><style>.cls-1{opacity:0.5;}.cls-2{fill:#a3eae7;opacity:0.25;}.cls-3{fill:#fb9502;}.cls-4{fill:#28b5bd;}.cls-5{fill:#f2f2f2;}.cls-6{fill:#fffefa;}</style></defs><title>Artboard 10</title><g id="Personas"><path class="cls-2" d="M191.56,87.89a21.38,21.38,0,0,0-6.47-15.63c-1.29-1.22-9.61-12.68-9.61-23.83h0c0-11.14-7.89-20.18-17.63-20.18h-108c-9.73,0-17.62,9-17.62,20.18h0a22.5,22.5,0,0,0,2,9.29c2.06,4.55-.78,10-5.25,10H26.3c-9,0-17,7.59-18,17.89-1.17,12.17,7.12,22.48,17.52,22.48h-.37a11,11,0,0,1,2.82.36,24.37,24.37,0,0,0,26.85,38.82c.3,0,.59.05.89.05h.06c4.13,0,7.22,4.4,6.25,9a22.66,22.66,0,0,0-.49,4.71h0c0,11.09,7.86,20.09,17.55,20.09h64.36c9.69,0,17.55-9,17.55-20.09h0a21.61,21.61,0,0,0-4.75-13.71h8.19c10,0,18.07-9.57,17.6-21.16-.45-10.86-8.61-19.21-18.1-19.21,0,0,19.79-2.41,21.07-3.66A21.38,21.38,0,0,0,191.56,87.89Z"/><path class="cls-3" d="M155.33,192.49,45,191.49l-2-15.6a32.41,32.41,0,0,1,32.4-32.4h44.53a32.4,32.4,0,0,1,32.4,32.4Z"/><path class="cls-4" d="M129.67,25S119.67,4.83,100,9.49,55,4.5,43.64,35s-2,29.5-12,45,16,26.24,4,41.2,10,10.3,7.33,19.64,11,35,26,34.17c8.38-.45-10.67-14.84,6.4-31.51h44.53c19.57,0,17.11-15.73,26.44-35.73s14.63-40.27,6-52.27-1-9.5-11.83-20Z"/><path class="cls-5" d="M83.67,143.49l14.78,14.17,14.79-14.17s-7-8.62-7-18.82c0-4.14-16.57-4.14-16.57,0C89.67,134.87,83.67,143.49,83.67,143.49Z"/><path class="cls-6" d="M140.5,73.74c0,23.89-19.36,55.75-43.25,55.75S54,97.63,54,73.74a43.25,43.25,0,0,1,86.5,0Z"/><path class="cls-4" d="M62.33,121.19S77,114.69,79,99.09s-2.67-30.26,10-35.6,22.39-2.1,30.67-11.16,14-15.5,14-15.5S108.52,17.49,92.76,21.49,55.67,28.16,54,42.16,37,75,43,91.26,62.33,121.19,62.33,121.19Z"/><path class="cls-4" d="M113.24,42.83s7.26,6.89,16.43,25.33,9.39,39.6,9.39,39.6,12.27-32.93,11.61-44.27-8.34-44.32-21-38.49A32.09,32.09,0,0,0,113.24,42.83Z"/></g></svg>