<svg xmlns="http://www.w3.org/2000/svg" viewBox="0 0 200 200"><defs><style>.cls-1{opacity:0.5;}.cls-2{fill:#a3eae7;opacity:0.25;}.cls-3{fill:#28b5bd;}.cls-4{fill:#228f9b;}.cls-5{fill:#fffefa;}.cls-6{fill:none;stroke:#fb9502;stroke-miterlimit:10;stroke-width:2px;}</style></defs><title>Artboard 10 copy 2</title><g id="Personas"><path class="cls-2" d="M191.56,87.89a21.38,21.38,0,0,0-6.47-15.63c-1.29-1.22-9.61-12.68-9.61-23.83h0c0-11.14-7.89-20.18-17.63-20.18h-108c-9.73,0-17.62,9-17.62,20.18h0a22.5,22.5,0,0,0,2,9.29c2.06,4.55-.78,10-5.25,10H26.3c-9,0-17,7.59-18,17.89-1.17,12.17,7.12,22.48,17.52,22.48h-.37a11,11,0,0,1,2.82.36,24.37,24.37,0,0,0,26.85,38.82c.3,0,.59.05.89.05h.06c4.13,0,7.22,4.4,6.25,9a22.66,22.66,0,0,0-.49,4.71h0c0,11.09,7.86,20.09,17.55,20.09h64.36c9.69,0,17.55-9,17.55-20.09h0a21.61,21.61,0,0,0-4.75-13.71h8.19c10,0,18.07-9.57,17.6-21.16-.45-10.86-8.61-19.21-18.1-19.21,0,0,19.79-2.41,21.07-3.66A21.38,21.38,0,0,0,191.56,87.89Z"/><path class="cls-3" d="M164.33,192.49,35,191.49v-15.6c0-28.81,10-32.4,40.4-32.4h44.53c32.08,0,44.82,3.81,44.4,32.4Z"/><path class="cls-4" d="M81,145.34l1.72,1.09c11.82,7.47,22.89,8.47,34.72,1l1-.63c1.17-.74,3.66-2.21,3.14-3.5C120,139.4,119,129,119,121.43c0-4.14-39.33-1.16-39.33,3V142.9A2.88,2.88,0,0,0,81,145.34Z"/><path class="cls-5" d="M140.5,73.74c0,10.15-1.43,19-2.57,26.66-3.57,23.95-13.15,35.6-39.48,35.6-25.74,0-35.49-8.92-39.76-36C57.53,92.65,54,84,54,73.74c0-23.88,7.36-43.25,31.25-43.25S140.5,49.86,140.5,73.74Z"/><ellipse class="cls-5" cx="56.74" cy="83.27" rx="3.54" ry="14.55" transform="translate(-13.05 10.59) rotate(-9.57)"/><path class="cls-3" d="M124.51,25c-20-1.73-12.76-1-31.48-3.58-11.84-1.63-20-2.6-29.81.5-6.22,2-10.77,13-11.72,19.5,0,0,.07,12.27.5,16.34.66,6.17,2.5,18.41,2.5,18.41l-.44-8L56.75,54.8c1.14-3.45,57.86-3.8,65.88-2.56,6,.92,12.12,2.92,12.55,8.37,0,.49-.05,15.84.32,20.84s1.45-.42,1.67,0c.55,1.09,2.93-8.77,3.33-7.71,1.81,4.78-.24,1.55-.24,1.55l.08,10.42,4.17-23.22S147.15,27,124.51,25Z"/><rect class="cls-6" x="102.47" y="73.41" width="28.23" height="16.08" rx="3.43"/><rect class="cls-6" x="61.22" y="73.41" width="28.23" height="16.08" rx="3.43"/><path class="cls-6" d="M89.4,77.16s2.43-3.75,6.27-3.75,6.8,3.43,6.8,3.43"/><path class="cls-5" d="M143.8,82.22c0,7.47-1.82,13.53-4.07,13.53s-2.56-6.83-2.56-14.3.32-12.75,2.56-12.75S143.8,74.76,143.8,82.22Z"/></g></svg>