<svg xmlns="http://www.w3.org/2000/svg" viewBox="0 0 387 486"><defs><style>.a{fill:#171616;font-size:18px;font-family:RobotoCondensed-Light, Roboto Condensed;font-weight:300;letter-spacing:0.01em;}.b,.d{fill:none;}.b{stroke:#228f9b;}.c{stroke:none;}</style></defs><g transform="translate(-679 -3293)"><text class="a" transform="translate(766 3340)"><tspan x="0" y="17">8 • centi</tspan></text><text class="a" transform="translate(766 3293)"><tspan x="0" y="17">4 • milli</tspan></text><text class="a" transform="translate(766 3383)"><tspan x="0" y="17">16 • deci</tspan></text><text class="a" transform="translate(766 3434)"><tspan x="0" y="17">24 • regular</tspan></text><text class="a" transform="translate(766 3560)"><tspan x="0" y="17">48 • kilo</tspan></text><text class="a" transform="translate(766 3490)"><tspan x="0" y="17">40 • hecto</tspan></text><text class="a" transform="translate(766 3646)"><tspan x="0" y="17">64 • mega</tspan></text><g class="b" transform="translate(679 3346)"><rect class="c" width="8" height="8"/><rect class="d" x="0.5" y="0.5" width="7" height="7"/></g><g class="b" transform="translate(679 3299)"><rect class="c" width="4" height="4"/><rect class="d" x="0.5" y="0.5" width="3" height="3"/></g><g class="b" transform="translate(679 3386)"><rect class="c" width="16" height="16"/><rect class="d" x="0.5" y="0.5" width="15" height="15"/></g><g class="b" transform="translate(679 3434)"><rect class="c" width="24" height="24"/><rect class="d" x="0.5" y="0.5" width="23" height="23"/></g><g class="b" transform="translate(679 3549)"><rect class="c" width="48" height="48"/><rect class="d" x="0.5" y="0.5" width="47" height="47"/></g><g class="b" transform="translate(679 3479)"><rect class="c" width="40" height="40"/><rect class="d" x="0.5" y="0.5" width="39" height="39"/></g><g class="b" transform="translate(679 3629)"><rect class="c" width="64" height="64"/><rect class="d" x="0.5" y="0.5" width="63" height="63"/></g><text class="a" transform="translate(679 3733)"><tspan x="0" y="17">1 M 1 B 1 %</tspan></text><text class="a" transform="translate(766 3733)"><tspan x="0" y="17">Hairline space &amp;hairsp; used between </tspan><tspan x="0" y="41">value and unit</tspan></text></g></svg>