<svg xmlns="http://www.w3.org/2000/svg" viewBox="0 0 158.07 213.74"><defs><style>.cls-1{fill:#171616;}.cls-2{fill:#888581;}</style></defs><title>Type</title><g id="StyleGuide"><path class="cls-1" d="M13.34,53.9l19.16-48h5.17l19.09,48H51.21l-5.77-15H24.73L19,53.9ZM26.67,34H43.51l-8.4-22Z"/><path class="cls-1" d="M64.11,53.9v-48H80q16,0,16,12.8a12.8,12.8,0,0,1-.53,3.74,9.16,9.16,0,0,1-1.3,2.75,17.89,17.89,0,0,1-1.48,1.78,4.62,4.62,0,0,1-1.33,1l-.5.36a4.28,4.28,0,0,1,.87.28,13.74,13.74,0,0,1,1.94,1.15,12.22,12.22,0,0,1,2.46,2.16,11.89,11.89,0,0,1,1.92,3.43,13.58,13.58,0,0,1,.86,4.89q0,13.65-17.42,13.65Zm5.2-27.22H81.18a13.93,13.93,0,0,0,7-1.51c1.74-1,2.61-3,2.61-6.08s-.85-5.3-2.54-6.51S84,10.76,80.51,10.76H69.31Zm0,22.33H81.9q5.49,0,8.65-1.91T93.71,40A8.8,8.8,0,0,0,93,36.18a7,7,0,0,0-1.85-2.49,7.53,7.53,0,0,0-2.81-1.37,19.19,19.19,0,0,0-3.2-.61c-1-.09-2.12-.14-3.41-.14H69.31Z"/><path class="cls-1" d="M106.44,29.85q0-24.62,22.29-24.61A38.76,38.76,0,0,1,143.35,8v5a36,36,0,0,0-14.06-2.88q-9.13,0-13.39,4.74t-4.26,15q0,10.23,4.26,15t13.39,4.75a36.09,36.09,0,0,0,14.06-2.81v5a39,39,0,0,1-14.45,2.71h-.17Q106.44,54.46,106.44,29.85Z"/><path class="cls-2" d="M13.32,77.9V66.48h1.34l3.92,5.8,3.94-5.8h1.33V77.9H22.62V68.5l-4,5.82-4-5.82v9.4Z"/><path class="cls-2" d="M26.21,75.27a2.43,2.43,0,0,1,.21-1A2.34,2.34,0,0,1,27,73.5a2.67,2.67,0,0,1,.78-.49,6.13,6.13,0,0,1,.85-.29,4.59,4.59,0,0,1,.87-.15l.72-.06h.5l1.38.08a2,2,0,0,0-.63-1.66,3,3,0,0,0-1.87-.5,7.28,7.28,0,0,0-2.5.41v-1.2a7.84,7.84,0,0,1,2.57-.44,3.79,3.79,0,0,1,2.74.91,3.5,3.5,0,0,1,.94,2.65v2.57a2.55,2.55,0,0,1-.38,1.4,2.15,2.15,0,0,1-1,.84,5.57,5.57,0,0,1-1.12.36,5.14,5.14,0,0,1-1,.1,7.31,7.31,0,0,1-.8,0,5.1,5.1,0,0,1-.94-.23,3.69,3.69,0,0,1-.91-.46,2.26,2.26,0,0,1-.66-.81A2.6,2.6,0,0,1,26.21,75.27Zm1.24,0c0,1.06.77,1.6,2.32,1.6h0c1.52,0,2.27-.52,2.27-1.55V73.68a8.78,8.78,0,0,0-1.52-.1C28.48,73.58,27.45,74.14,27.45,75.27Z"/><path class="cls-2" d="M34.61,69.35h1.31l2.59,7,2.59-7h1.31L39.13,77.9H37.88Z"/><path class="cls-2" d="M43.59,73.73v-.12q0-4.41,3.74-4.41a3.82,3.82,0,0,1,1.42.25,3.31,3.31,0,0,1,1,.58,3,3,0,0,1,.66.87,6.94,6.94,0,0,1,.4.92,5.53,5.53,0,0,1,.19.91c0,.34.06.56.06.65v.37l0,.6H44.83a2.73,2.73,0,0,0,.78,1.87,3,3,0,0,0,2,.58,5.62,5.62,0,0,0,2.92-.64v1.28a6.93,6.93,0,0,1-3,.59h-.05a4.89,4.89,0,0,1-1.37-.18,4,4,0,0,1-1.23-.62,2.93,2.93,0,0,1-1-1.34A6,6,0,0,1,43.59,73.73Zm1.24-.47h5a3.29,3.29,0,0,0-.08-.66,5.53,5.53,0,0,0-.28-.92,1.94,1.94,0,0,0-.77-.94,2.41,2.41,0,0,0-1.38-.38,2.34,2.34,0,0,0-1.85.66A3.73,3.73,0,0,0,44.83,73.26Z"/><path class="cls-2" d="M53.2,77.9V70a8,8,0,0,1,3.62-.84,3.54,3.54,0,0,1,2.5.82,3,3,0,0,1,.89,2.31V77.9H59V72.33a2.46,2.46,0,0,0-.07-.64,1.87,1.87,0,0,0-.3-.6,1.36,1.36,0,0,0-.7-.49,3.79,3.79,0,0,0-1.21-.17,7.93,7.93,0,0,0-2.25.34V77.9Z"/><path class="cls-2" d="M69,77.9V66.48h4.07a4.3,4.3,0,0,1,2.93.9A3.3,3.3,0,0,1,77,70a3.35,3.35,0,0,1-1,2.63,4.25,4.25,0,0,1-2.93.91H70.23V77.9Zm1.24-5.56H72.9a5.07,5.07,0,0,0,1.52-.19,1.75,1.75,0,0,0,.88-.58,2.23,2.23,0,0,0,.37-.74,3.54,3.54,0,0,0,0-1.67,2.37,2.37,0,0,0-.37-.75,1.74,1.74,0,0,0-.88-.57,4.75,4.75,0,0,0-1.52-.2H70.23Z"/><path class="cls-2" d="M78.87,77.9V70A10.58,10.58,0,0,1,83,69.22v1.16a12.31,12.31,0,0,0-2.91.44V77.9Z"/><path class="cls-2" d="M84.43,75.83a7,7,0,0,1,0-4.43,3,3,0,0,1,1-1.37,4.41,4.41,0,0,1,1.26-.64,4.86,4.86,0,0,1,1.41-.19,5,5,0,0,1,1.43.19,4.17,4.17,0,0,1,1.26.64,3,3,0,0,1,1,1.37,7,7,0,0,1,0,4.43,3,3,0,0,1-1,1.37,4,4,0,0,1-1.26.64,5,5,0,0,1-1.43.19,4.86,4.86,0,0,1-1.41-.19,4.17,4.17,0,0,1-1.26-.64A3,3,0,0,1,84.43,75.83ZM86,71.12a5,5,0,0,0,0,5,2.61,2.61,0,0,0,2.12.79,2.65,2.65,0,0,0,2.12-.78,5.08,5.08,0,0,0,0-5,2.65,2.65,0,0,0-2.12-.78A2.61,2.61,0,0,0,86,71.12Z"/><path class="cls-1" d="M41.22,165.23H23.93l-4,13.4H13.34l16.49-51.19h5.52l16.53,51.19H45.27Zm-15.61-5.52h14l-7-23.27Z"/><path class="cls-1" d="M58.84,178.63V127.44H73.43q7,0,10.53,3.41t3.53,10.23a11.35,11.35,0,0,1-1.79,6.33,12.09,12.09,0,0,1-4.86,4.25A9.72,9.72,0,0,1,86.42,156a14.48,14.48,0,0,1,2,7.87q0,6.88-3.78,10.83t-10.77,3.94Zm6.43-29.36h8.26a7,7,0,0,0,5.4-2.25A8.56,8.56,0,0,0,81,141c0-2.82-.63-4.87-1.87-6.15S76,133,73.43,133H65.27Zm0,5.41v18.43h8.79a7.39,7.39,0,0,0,5.8-2.41A9.84,9.84,0,0,0,82,163.93q0-9.24-7.8-9.25Z"/><path class="cls-1" d="M130.2,162.35q-.42,8.22-4.62,12.6t-11.86,4.38a14.67,14.67,0,0,1-12.24-5.85Q96.95,167.62,97,157.6v-9.28q0-10,4.65-15.78t12.71-5.8q7.43,0,11.48,4.43t4.41,12.69h-6.5c-.28-4.18-1.16-7.15-2.64-8.93s-3.72-2.68-6.75-2.68a9.19,9.19,0,0,0-8,4.1q-2.81,4.1-2.81,12v9.38q0,7.77,2.62,11.92a8.48,8.48,0,0,0,7.65,4.15q5,0,7.24-2.5c1.47-1.66,2.39-4.65,2.74-9Z"/><path class="cls-2" d="M16.82,194.7H14.68v4.93H13.15V187.46h3.41a3.63,3.63,0,0,1,2.7.93,3.7,3.7,0,0,1,.92,2.73,3.78,3.78,0,0,1-.49,2,3.11,3.11,0,0,1-1.41,1.27l2.36,5.18v.1H19Zm-2.14-1.31h1.86a2,2,0,0,0,1.53-.62,2.32,2.32,0,0,0,.58-1.66q0-2.34-2.13-2.34H14.68Z"/><path class="cls-2" d="M21.71,194.69a4.74,4.74,0,0,1,1-3.13,3.15,3.15,0,0,1,2.53-1.15,3.19,3.19,0,0,1,2.53,1.12,4.66,4.66,0,0,1,1,3.05v1a4.75,4.75,0,0,1-.95,3.11,3.41,3.41,0,0,1-5.06,0,4.61,4.61,0,0,1-1-3Zm1.48.85a3.85,3.85,0,0,0,.55,2.19,1.72,1.72,0,0,0,1.48.8q2,0,2-2.82v-1a3.83,3.83,0,0,0-.55-2.2,1.71,1.71,0,0,0-1.48-.81,1.69,1.69,0,0,0-1.46.81,3.9,3.9,0,0,0-.55,2.19Z"/><path class="cls-2" d="M37.17,195.54a5.45,5.45,0,0,1-.76,3.18,2.53,2.53,0,0,1-2.21,1.07,2.33,2.33,0,0,1-2.15-1.23L32,199.63H30.63V186.79H32.1v4.79a2.31,2.31,0,0,1,2.09-1.17,2.54,2.54,0,0,1,2.23,1.06,5.55,5.55,0,0,1,.75,3.17Zm-1.47-.85a4.29,4.29,0,0,0-.45-2.28,1.59,1.59,0,0,0-1.45-.68A1.81,1.81,0,0,0,32.1,193v4.3a1.81,1.81,0,0,0,1.72,1.22,1.56,1.56,0,0,0,1.44-.7,4.34,4.34,0,0,0,.44-2.18Z"/><path class="cls-2" d="M38.75,194.69a4.74,4.74,0,0,1,1-3.13,3.15,3.15,0,0,1,2.53-1.15,3.2,3.2,0,0,1,2.53,1.12,4.72,4.72,0,0,1,1,3.05v1a4.7,4.7,0,0,1-1,3.11,3.13,3.13,0,0,1-2.54,1.14,3.17,3.17,0,0,1-2.52-1.11,4.6,4.6,0,0,1-1-3Zm1.48.85a3.78,3.78,0,0,0,.55,2.19,1.69,1.69,0,0,0,1.47.8c1.31,0,2-.94,2-2.82v-1a3.91,3.91,0,0,0-.55-2.2,1.71,1.71,0,0,0-1.48-.81,1.68,1.68,0,0,0-1.46.81,3.82,3.82,0,0,0-.55,2.19Z"/><path class="cls-2" d="M49.59,188.39v2.19H51v1.2H49.59v5.61a1.53,1.53,0,0,0,.18.82.67.67,0,0,0,.6.27,1.74,1.74,0,0,0,.59-.1v1.25a3.31,3.31,0,0,1-1,.16,1.57,1.57,0,0,1-1.34-.62,3,3,0,0,1-.46-1.78v-5.61H46.74v-1.2h1.38v-2.19Z"/><path class="cls-2" d="M52.23,194.69a4.74,4.74,0,0,1,1-3.13,3.15,3.15,0,0,1,2.53-1.15,3.19,3.19,0,0,1,2.53,1.12,4.61,4.61,0,0,1,1,3.05v1a4.75,4.75,0,0,1-.95,3.11,3.41,3.41,0,0,1-5.06,0,4.66,4.66,0,0,1-1-3Zm1.48.85a3.85,3.85,0,0,0,.55,2.19,1.72,1.72,0,0,0,1.48.8q1.95,0,2-2.82v-1a3.83,3.83,0,0,0-.55-2.2,1.71,1.71,0,0,0-1.48-.81,1.69,1.69,0,0,0-1.46.81,3.9,3.9,0,0,0-.55,2.19Z"/><path class="cls-2" d="M72.9,195.76a4.49,4.49,0,0,1-1.1,3,3.71,3.71,0,0,1-2.82,1,3.48,3.48,0,0,1-2.91-1.39A6,6,0,0,1,65,194.63v-2.21a5.82,5.82,0,0,1,1.11-3.75,3.67,3.67,0,0,1,3-1.38,3.51,3.51,0,0,1,2.73,1.05,4.66,4.66,0,0,1,1.05,3H71.35a3.7,3.7,0,0,0-.62-2.12,2,2,0,0,0-1.61-.64,2.16,2.16,0,0,0-1.91,1,5,5,0,0,0-.67,2.86v2.23a5.35,5.35,0,0,0,.62,2.83,2,2,0,0,0,1.82,1,2.21,2.21,0,0,0,1.72-.59,3.74,3.74,0,0,0,.65-2.13Z"/><path class="cls-2" d="M74.45,194.69a4.74,4.74,0,0,1,1-3.13,3.15,3.15,0,0,1,2.53-1.15,3.19,3.19,0,0,1,2.53,1.12,4.66,4.66,0,0,1,1,3.05v1a4.75,4.75,0,0,1-1,3.11,3.41,3.41,0,0,1-5.06,0,4.61,4.61,0,0,1-1-3Zm1.48.85a3.85,3.85,0,0,0,.55,2.19,1.72,1.72,0,0,0,1.48.8q2,0,2-2.82v-1a3.83,3.83,0,0,0-.55-2.2,1.71,1.71,0,0,0-1.48-.81,1.69,1.69,0,0,0-1.46.81,3.9,3.9,0,0,0-.55,2.19Z"/><path class="cls-2" d="M84.75,190.58l0,1A2.64,2.64,0,0,1,87,190.41c1.6,0,2.41,1.07,2.44,3.21v6H88v-5.95a2.44,2.44,0,0,0-.36-1.51,1.3,1.3,0,0,0-1.07-.44,1.55,1.55,0,0,0-1,.36,2.72,2.72,0,0,0-.7,1v6.57H83.36v-9Z"/><path class="cls-2" d="M91.33,194.69a5.45,5.45,0,0,1,.78-3.18,2.6,2.6,0,0,1,2.25-1.1,2.31,2.31,0,0,1,2,1.06v-4.68h1.48v12.84H96.51l-.08-1a2.33,2.33,0,0,1-2.08,1.13,2.56,2.56,0,0,1-2.2-1.09,5.22,5.22,0,0,1-.82-3.08Zm1.48.84a4.32,4.32,0,0,0,.45,2.24,1.61,1.61,0,0,0,1.47.71,1.75,1.75,0,0,0,1.65-1.11v-4.56a1.78,1.78,0,0,0-1.64-1.08,1.59,1.59,0,0,0-1.47.71,4.3,4.3,0,0,0-.46,2.19Z"/><path class="cls-2" d="M103.37,199.79a3.29,3.29,0,0,1-2.59-1,4.38,4.38,0,0,1-.92-3v-1.09a5.11,5.11,0,0,1,.88-3.18,3,3,0,0,1,2.46-1.15,2.83,2.83,0,0,1,2.38,1,5.2,5.2,0,0,1,.8,3.15v1h-5v.21a3.25,3.25,0,0,0,.55,2.11,1.92,1.92,0,0,0,1.57.66,2.47,2.47,0,0,0,1.15-.25,2.8,2.8,0,0,0,.94-.78l.76.94A3.35,3.35,0,0,1,103.37,199.79Zm-.17-8.11a1.54,1.54,0,0,0-1.36.64,3.7,3.7,0,0,0-.5,2h3.56v-.2a3.45,3.45,0,0,0-.46-1.84A1.44,1.44,0,0,0,103.2,191.68Z"/><path class="cls-2" d="M109.55,190.58l0,1a2.65,2.65,0,0,1,2.2-1.15q2.4,0,2.43,3.21v6h-1.47v-5.95a2.44,2.44,0,0,0-.36-1.51,1.28,1.28,0,0,0-1.06-.44,1.51,1.51,0,0,0-1,.36,2.75,2.75,0,0,0-.71,1v6.57h-1.48v-9Z"/><path class="cls-2" d="M120.83,197.31a1.09,1.09,0,0,0-.36-.82,5.41,5.41,0,0,0-1.38-.8,8.84,8.84,0,0,1-1.69-.85,2.46,2.46,0,0,1-.73-.79,2.25,2.25,0,0,1-.24-1.07,2.36,2.36,0,0,1,.8-1.83,3.28,3.28,0,0,1,4.19,0,2.64,2.64,0,0,1,.8,2h-1.47a1.45,1.45,0,0,0-.41-1,1.37,1.37,0,0,0-1-.44,1.49,1.49,0,0,0-1,.34,1.17,1.17,0,0,0-.37.91,1,1,0,0,0,.27.72,4.93,4.93,0,0,0,1.31.73,6.6,6.6,0,0,1,2.24,1.26,2.18,2.18,0,0,1,.59,1.56,2.41,2.41,0,0,1-.81,1.89,3.18,3.18,0,0,1-2.17.7A3.24,3.24,0,0,1,117,199a2.65,2.65,0,0,1-.88-2h1.49a1.6,1.6,0,0,0,.46,1.17,1.64,1.64,0,0,0,1.22.43,1.68,1.68,0,0,0,1.12-.33A1.13,1.13,0,0,0,120.83,197.31Z"/><path class="cls-2" d="M127.47,199.79a3.29,3.29,0,0,1-2.59-1,4.38,4.38,0,0,1-.92-3v-1.09a5.11,5.11,0,0,1,.88-3.18,3,3,0,0,1,2.46-1.15,2.83,2.83,0,0,1,2.38,1,5.2,5.2,0,0,1,.8,3.15v1h-5v.21a3.25,3.25,0,0,0,.55,2.11,1.92,1.92,0,0,0,1.57.66,2.47,2.47,0,0,0,1.15-.25,2.8,2.8,0,0,0,.94-.78l.76.94A3.35,3.35,0,0,1,127.47,199.79Zm-.17-8.11a1.54,1.54,0,0,0-1.36.64,3.7,3.7,0,0,0-.5,2H129v-.2a3.45,3.45,0,0,0-.46-1.84A1.44,1.44,0,0,0,127.3,191.68Z"/><path class="cls-2" d="M131.94,194.69a5.45,5.45,0,0,1,.78-3.18,2.6,2.6,0,0,1,2.25-1.1,2.31,2.31,0,0,1,2,1.06v-4.68h1.48v12.84h-1.35l-.08-1a2.33,2.33,0,0,1-2.08,1.13,2.56,2.56,0,0,1-2.2-1.09,5.22,5.22,0,0,1-.82-3.08Zm1.48.84a4.32,4.32,0,0,0,.45,2.24,1.61,1.61,0,0,0,1.47.71,1.75,1.75,0,0,0,1.65-1.11v-4.56a1.78,1.78,0,0,0-1.64-1.08,1.59,1.59,0,0,0-1.47.71,4.3,4.3,0,0,0-.46,2.19Z"/></g></svg>